<svg width="1120" height="1048" viewBox="0 0 1120 1048" fill="none" xmlns="http://www.w3.org/2000/svg">
<rect width="1120" height="1048" fill="#525252"/>
<g id="VehicleMarker.spritesheet">
<rect width="1040" height="968" transform="translate(40 40)" fill="#494949"/>
<g id="backgrounds">
<g id="black_full" clip-path="url(#clip0_0_1)">
<mask id="mask0_0_1" style="mask-type:alpha" maskUnits="userSpaceOnUse" x="121" y="120" width="86" height="107">
<path id="Union" d="M167.438 223.089C173.641 216.924 185.753 204.671 190.473 198.866C197.137 190.67 201.181 184.397 203.534 178.575C205.912 172.692 206.5 167.423 206.5 161.37C206.5 140.802 187.779 120.5 164 120.5C140.221 120.5 121.5 140.802 121.5 161.37C121.5 167.449 122.195 172.982 124.614 178.996C127.016 184.969 131.061 191.273 137.552 199.003C140.884 202.97 147.538 209.939 153.295 215.854C156.187 218.826 158.873 221.553 160.837 223.538C161.819 224.53 162.62 225.337 163.177 225.896C163.455 226.175 163.672 226.393 163.819 226.541L164.041 226.763L164.045 226.767C164.045 226.767 164.045 226.767 165.813 225C167.582 223.233 167.582 223.233 167.582 223.233L167.438 223.089Z" fill="black"/>
</mask>
<g mask="url(#mask0_0_1)">
<g id="Group 1">
<path id="lower part" fill-rule="evenodd" clip-rule="evenodd" d="M163.919 223.92C163.946 223.947 163.973 223.973 164 224L164.319 223.526C195.421 192.882 203.503 181.414 204 164.75H203.837H124C124.497 181.414 132.418 192.882 163.518 223.526L163.837 224C163.864 223.973 163.891 223.947 163.919 223.92Z" fill="#111111"/>
<circle id="circle" cx="164" cy="164" r="40" fill="#111111"/>
</g>
</g>
</g>
<g id="black_without_border">
<path id="Subtract" fill-rule="evenodd" clip-rule="evenodd" d="M164 249C144.381 249 129 265.881 129 282.5C129 287.783 129.597 292.321 131.57 297.23C133.559 302.181 137.006 307.652 142.915 314.693C147.72 320.418 159.364 332.27 163.914 336.865C169.767 331.041 180.84 319.817 185.06 314.624C191.183 307.088 194.63 301.637 196.572 296.828C198.49 292.08 199 287.81 199 282.5C199 265.881 183.619 249 164 249Z" fill="#111111"/>
</g>
<rect x="104.5" y="104.5" width="119" height="239" stroke="#BCBCBC"/>
</g>
<g id="vehicle_types">
<g id="VW_ID.3">
<g id="Frame 1">
<path id="Vector" d="M716 138C703.317 138 693 148.318 693 161C693 173.682 703.317 184 716 184C728.683 184 739 173.682 739 161C739 148.318 728.683 138 716 138ZM721.873 142.94L716 156L710.127 142.94C711.978 142.336 713.95 142 716 142C718.05 142 720.022 142.336 721.873 142.94ZM706.241 144.728L713.398 160H718.601L725.758 144.728C727.888 146.011 729.743 147.694 731.224 149.681L722.353 169L718.66 162H713.34L709.647 169L700.775 149.681C702.256 147.695 704.111 146.011 706.241 144.728ZM697 161C697 158.652 697.448 156.413 698.23 154.335L709.144 178.7C709.151 178.703 709.158 178.705 709.165 178.708C702.06 175.955 697 169.065 697 161ZM709.185 178.715L716 166L722.815 178.715C720.696 179.533 718.404 180 716 180C713.596 180 711.304 179.533 709.185 178.715ZM722.834 178.708C722.841 178.705 722.848 178.703 722.855 178.7L733.77 154.335C734.552 156.413 735 158.652 735 161C735 169.065 729.94 175.955 722.834 178.708Z" fill="white"/>
<path id="3" d="M722.028 187.46L722.037 187.464L722.045 187.467C723.751 188.113 725.576 188.432 727.512 188.432C729.784 188.432 731.806 188.041 733.55 187.222C735.304 186.41 736.693 185.263 737.671 183.77C738.676 182.248 739.168 180.505 739.168 178.576C739.168 176.912 738.842 175.421 738.148 174.142C737.467 172.864 736.525 171.859 735.322 171.16C734.93 170.932 734.523 170.742 734.101 170.59L738.107 166.065L738.52 165.905V165.599L739.731 164.23L738.52 164.225V161.368V160.368H737.52H720.348H719.348V161.368V167.272V168.272H720.348H725.919L723.437 171.197L723.2 171.477V171.844V175.696V177.342L724.616 176.606C724.775 176.547 725.06 176.481 725.514 176.44L725.533 176.438L725.553 176.436C726.069 176.368 726.541 176.336 726.972 176.336C727.747 176.336 728.363 176.444 728.845 176.629C729.323 176.813 729.635 177.057 729.838 177.333C730.03 177.593 730.148 177.929 730.148 178.396C730.148 178.863 730.03 179.199 729.838 179.459L729.828 179.473L729.818 179.487C729.629 179.764 729.348 179.997 728.927 180.173L728.92 180.176L728.913 180.179C728.509 180.355 728.013 180.456 727.404 180.456C726.659 180.456 725.932 180.307 725.216 180.002C724.495 179.67 724.034 179.29 723.756 178.898L723.076 177.939L722.238 178.763L717.738 183.191L717.035 183.883L717.717 184.596C718.903 185.834 720.346 186.788 722.028 187.46Z" fill="white" stroke="black" stroke-width="2"/>
</g>
</g>
<g id="VW_ID.4">
<g id="Frame 2">
<path id="Vector_2" d="M836 138C823.317 138 813 148.318 813 161C813 173.682 823.317 184 836 184C848.683 184 859 173.682 859 161C859 148.318 848.683 138 836 138ZM841.873 142.94L836 156L830.127 142.94C831.978 142.336 833.95 142 836 142C838.05 142 840.022 142.336 841.873 142.94ZM826.241 144.728L833.398 160H838.601L845.758 144.728C847.888 146.011 849.743 147.694 851.224 149.681L842.353 169L838.66 162H833.34L829.647 169L820.775 149.681C822.256 147.695 824.111 146.011 826.241 144.728ZM817 161C817 158.652 817.448 156.413 818.23 154.335L829.144 178.7C829.151 178.703 829.158 178.705 829.165 178.708C822.06 175.955 817 169.065 817 161ZM829.185 178.715L836 166L842.815 178.715C840.696 179.533 838.404 180 836 180C833.596 180 831.304 179.533 829.185 178.715ZM842.834 178.708C842.841 178.705 842.848 178.703 842.855 178.7L853.77 154.335C854.552 156.413 855 158.652 855 161C855 169.065 849.94 175.955 842.834 178.708Z" fill="white"/>
<path id="4" d="M836.409 178.794L836.25 178.962V179.144L835.699 180.36H836.25V183.212V184.212H837.25H848.274V188V189H849.274H856.294H857.294V188V184.212H858.418H859.418V183.212V177.308V176.308H858.418H857.294V173.024V172.024H856.294H849.274H849.208L853.493 162.789L854.153 161.368H852.586H844.954H844.31L844.043 161.955L836.409 178.794ZM848.274 174.037V176.308H847.221L848.274 174.037Z" fill="white" stroke="black" stroke-width="2"/>
</g>
</g>
<g id="VW_Polo">
<g id="Frame 3">
<path id="Vector_3" d="M956 138C943.317 138 933 148.318 933 161C933 173.682 943.317 184 956 184C968.683 184 979 173.682 979 161C979 148.318 968.683 138 956 138ZM961.873 142.94L956 156L950.127 142.94C951.978 142.336 953.95 142 956 142C958.05 142 960.022 142.336 961.873 142.94ZM946.241 144.728L953.398 160H958.601L965.758 144.728C967.888 146.011 969.743 147.694 971.224 149.681L962.353 169L958.66 162H953.34L949.647 169L940.775 149.681C942.256 147.695 944.111 146.011 946.241 144.728ZM937 161C937 158.652 937.448 156.413 938.23 154.335L949.144 178.7C949.151 178.703 949.158 178.705 949.165 178.708C942.06 175.955 937 169.065 937 161ZM949.185 178.715L956 166L962.815 178.715C960.696 179.533 958.404 180 956 180C953.596 180 951.304 179.533 949.185 178.715ZM962.834 178.708C962.841 178.705 962.848 178.703 962.855 178.7L973.77 154.335C974.552 156.413 975 158.652 975 161C975 169.065 969.94 175.955 962.834 178.708Z" fill="white"/>
<path id="P" d="M965.84 188V180H969.52C971.309 180 972.951 179.649 974.424 178.926L974.424 178.926L974.431 178.922C975.935 178.17 977.132 177.086 978 175.678C978.907 174.246 979.34 172.567 979.34 170.684C979.34 168.783 978.909 167.1 977.997 165.686C977.13 164.28 975.933 163.208 974.428 162.48C972.954 161.732 971.311 161.368 969.52 161.368H965.84H964.84H963.472H962.472H957.64H956.64V162.368V188V189H957.64H964.84H965.84V188ZM965.84 172.816V168.552H968.116C968.517 168.552 968.86 168.638 969.162 168.797L969.189 168.811L969.217 168.824C969.499 168.951 969.732 169.154 969.922 169.471L969.928 169.48L969.934 169.49C970.096 169.746 970.212 170.123 970.212 170.684C970.212 171.236 970.099 171.634 969.928 171.924C969.74 172.218 969.498 172.437 969.19 172.593C968.882 172.737 968.529 172.816 968.116 172.816H965.84Z" fill="white" stroke="black" stroke-width="2"/>
</g>
</g>
<g id="VW_Polo_GP">
<g id="Frame 4">
<path id="Vector_4" d="M715 258C702.317 258 692 268.318 692 281C692 293.682 702.317 304 715 304C727.683 304 738 293.682 738 281C738 268.318 727.683 258 715 258ZM720.873 262.94L715 276L709.127 262.94C710.978 262.336 712.95 262 715 262C717.05 262 719.022 262.336 720.873 262.94ZM705.241 264.728L712.398 280H717.601L724.758 264.728C726.888 266.011 728.743 267.694 730.224 269.681L721.353 289L717.66 282H712.34L708.647 289L699.775 269.681C701.256 267.695 703.111 266.011 705.241 264.728ZM696 281C696 278.652 696.448 276.413 697.23 274.335L708.144 298.7C708.151 298.703 708.158 298.705 708.165 298.708C701.06 295.955 696 289.065 696 281ZM708.185 298.715L715 286L721.815 298.715C719.696 299.533 717.404 300 715 300C712.596 300 710.304 299.533 708.185 298.715ZM721.834 298.708C721.841 298.705 721.848 298.703 721.855 298.7L732.77 274.335C733.552 276.413 734 278.652 734 281C734 289.065 728.94 295.955 721.834 298.708Z" fill="white"/>
<path id="GP" d="M710.991 303.569L710.999 303.572L711.007 303.575C712.267 304.054 713.621 304.288 715.059 304.288C716.978 304.288 718.705 303.881 720.205 303.031C721.728 302.179 722.903 300.935 723.723 299.331C723.935 298.925 724.119 298.5 724.275 298.056L724.76 298.071V303V304H725.76H730.56H731.56V303V298H733.68C734.917 298 736.063 297.757 737.096 297.25L737.096 297.25L737.103 297.246C738.159 296.718 739.004 295.954 739.616 294.962C740.259 293.946 740.56 292.763 740.56 291.456C740.56 290.139 740.261 288.952 739.614 287.946C739.002 286.956 738.157 286.2 737.1 285.688C736.066 285.164 734.919 284.912 733.68 284.912H731.56H730.56H729.648H728.648H725.76H724.76V285.912V291.92H723.963H720.737L723.302 289.355L723.952 288.705L723.359 288.003C722.462 286.942 721.307 286.119 719.92 285.522C718.528 284.916 716.973 284.624 715.275 284.624C713.849 284.624 712.495 284.868 711.222 285.362C709.958 285.837 708.834 286.517 707.858 287.404C706.894 288.279 706.135 289.316 705.583 290.508L705.583 290.508L705.578 290.519C705.036 291.731 704.771 293.048 704.771 294.456C704.771 295.845 705.026 297.15 705.549 298.357C706.065 299.549 706.789 300.596 707.718 301.489L707.718 301.489L707.725 301.495C708.667 302.385 709.759 303.075 710.991 303.569ZM724.76 297.297L724.548 297.162C724.631 296.839 724.702 296.508 724.76 296.169V297.297ZM731.56 292.544V290.368H732.744C732.961 290.368 733.136 290.414 733.286 290.493L733.313 290.507L733.341 290.52C733.463 290.575 733.568 290.662 733.662 290.819L733.668 290.828L733.674 290.838C733.74 290.942 733.808 291.127 733.808 291.456C733.808 291.775 733.744 291.977 733.668 292.108C733.576 292.25 733.462 292.353 733.314 292.429C733.158 292.501 732.973 292.544 732.744 292.544H731.56ZM717.042 291.237C717.354 291.401 717.673 291.626 717.997 291.92H714.483H713.483V292.92V296.76V297.728C713.411 297.694 713.342 297.658 713.275 297.62C712.768 297.33 712.371 296.931 712.075 296.405C711.797 295.868 711.643 295.22 711.643 294.432C711.643 293.655 711.808 293.028 712.103 292.518C712.428 291.983 712.848 291.585 713.37 291.306L713.378 291.302L713.386 291.297C713.914 291.003 714.512 290.848 715.203 290.848C715.975 290.848 716.576 290.993 717.042 291.237L717.507 290.352L717.042 291.237ZM715.131 298.064C714.484 298.064 713.944 297.946 713.488 297.73L714.453 297.76L716.548 297.823C716.178 297.974 715.714 298.064 715.131 298.064Z" fill="white" stroke="black" stroke-width="2"/>
</g>
</g>
<g id="VW_Taigo">
<g id="Frame 5">
<path id="Vector_5" d="M835 258C822.317 258 812 268.318 812 281C812 293.682 822.317 304 835 304C847.683 304 858 293.682 858 281C858 268.318 847.683 258 835 258ZM840.873 262.94L835 276L829.127 262.94C830.978 262.336 832.95 262 835 262C837.05 262 839.022 262.336 840.873 262.94ZM825.241 264.728L832.398 280H837.601L844.758 264.728C846.888 266.011 848.743 267.694 850.224 269.681L841.353 289L837.66 282H832.34L828.647 289L819.775 269.681C821.256 267.695 823.111 266.011 825.241 264.728ZM816 281C816 278.652 816.448 276.413 817.23 274.335L828.144 298.7C828.151 298.703 828.158 298.705 828.165 298.708C821.06 295.955 816 289.065 816 281ZM828.185 298.715L835 286L841.815 298.715C839.696 299.533 837.404 300 835 300C832.596 300 830.304 299.533 828.185 298.715ZM841.834 298.708C841.841 298.705 841.848 298.703 841.855 298.7L852.77 274.335C853.552 276.413 854 278.652 854 281C854 289.065 848.94 295.955 841.834 298.708Z" fill="white"/>
<path id="T" d="M843.514 308V309H844.514H851.714H852.714V308V289.488H859.418H860.418V288.488V282.368V281.368H859.418H852.714H851.714H844.514H843.514H836.846H835.846V282.368V288.488V289.488H836.846H843.514V308Z" fill="white" stroke="black" stroke-width="2"/>
</g>
</g>
<g id="Cupra">
<g id="Frame 6">
<path id="Vector_6" d="M969.401 282.009C966.913 283.18 964.426 284.352 961.938 285.522H961.936C963.453 286.08 964.969 286.641 966.485 287.203C967.423 287.551 968.536 287.988 968.946 289.055C969.367 290.15 968.748 291.127 968.201 291.951C967.373 293.199 966.544 294.446 965.716 295.693C962.77 300.131 959.822 304.569 956.865 309C956.859 307.632 956.856 306.263 956.853 304.895V304.893C957.984 301.472 959.088 298.043 960.153 294.601C960.455 293.624 960.754 292.646 961.049 291.667C961.226 291.077 961.111 290.724 960.521 290.443C959.015 289.728 957.507 289.013 955.999 288.299C954.491 289.013 952.984 289.728 951.477 290.443C950.887 290.724 950.772 291.077 950.949 291.667C951.245 292.646 951.544 293.624 951.846 294.601C952.91 298.043 954.014 301.471 955.146 304.893L955.145 304.895C955.142 306.263 955.139 307.632 955.133 309C952.176 304.569 949.229 300.131 946.282 295.693C945.454 294.446 944.626 293.199 943.799 291.951C943.251 291.127 942.631 290.15 943.052 289.055C943.463 287.988 944.575 287.551 945.514 287.203C947.029 286.641 948.545 286.08 950.062 285.522H950.061C947.573 284.352 945.085 283.18 942.597 282.009L942.594 282.006C943.37 283.255 944.145 284.506 944.921 285.757C943.637 286.231 942.355 286.704 941.073 287.18C938.38 283.122 935.684 279.065 933 275C940.658 277.613 948.309 280.246 955.999 282.771C963.691 280.246 971.341 277.613 979 275C976.316 279.065 973.619 283.122 970.925 287.18C969.644 286.705 968.361 286.231 967.078 285.757C967.853 284.507 968.629 283.256 969.405 282.006" fill="white"/>
</g>
</g>
<g id="Tesla_Model_3">
<g id="Frame 7">
<g id="Vector_7">
<path d="M694 382.778C699.746 380.832 705.841 380.201 711.936 380.045C714.29 379.985 716.703 379.985 719.064 380.045C725.159 380.201 731.254 380.832 737 382.778L735.693 384.68C730.831 382.971 725.092 382.132 719.004 381.946C716.703 381.879 714.305 381.879 711.996 381.946C705.908 382.132 700.169 382.971 695.307 384.68L694 382.778Z" fill="white"/>
<path d="M696.316 386.284C700.073 384.762 705.663 384.256 709.739 384.145C711.098 384.108 712.285 384.108 713.184 384.145L715.5 387.116L717.816 384.145C721.41 384.011 729.672 384.256 734.684 386.284C733.993 387.599 730.994 389.493 729.338 389.909C729.242 387.324 725.597 386.76 722.093 386.76L715.5 422L708.907 386.76C705.403 386.76 701.758 387.324 701.662 389.909C700.013 389.493 697.007 387.599 696.316 386.284Z" fill="white"/>
</g>
<path id="3_2" d="M721.028 426.46L721.037 426.464L721.045 426.467C722.751 427.113 724.576 427.432 726.512 427.432C728.784 427.432 730.806 427.041 732.55 426.222C734.304 425.41 735.693 424.263 736.671 422.77C737.676 421.248 738.168 419.505 738.168 417.576C738.168 415.912 737.842 414.421 737.148 413.142C736.467 411.864 735.525 410.859 734.322 410.159C733.93 409.932 733.523 409.742 733.101 409.59L737.107 405.065L737.52 404.905V404.599L738.731 403.23L737.52 403.225V400.368V399.368H736.52H719.348H718.348V400.368V406.272V407.272H719.348H724.919L722.437 410.197L722.2 410.477V410.844V414.696V416.342L723.616 415.606C723.775 415.547 724.06 415.481 724.514 415.44L724.533 415.438L724.553 415.436C725.069 415.368 725.541 415.336 725.972 415.336C726.747 415.336 727.363 415.444 727.845 415.629C728.323 415.813 728.635 416.057 728.838 416.333C729.03 416.593 729.148 416.929 729.148 417.396C729.148 417.863 729.03 418.199 728.838 418.459L728.828 418.473L728.818 418.487C728.629 418.764 728.348 418.997 727.927 419.173L727.92 419.176L727.913 419.179C727.509 419.355 727.013 419.456 726.404 419.456C725.659 419.456 724.932 419.307 724.216 419.002C723.495 418.67 723.034 418.29 722.756 417.898L722.076 416.939L721.238 417.763L716.738 422.191L716.035 422.883L716.717 423.596C717.903 424.834 719.346 425.788 721.028 426.46Z" fill="white" stroke="black" stroke-width="2"/>
</g>
</g>
<g id="Tesla_Model_Y">
<g id="Frame 8">
<g id="Vector_8">
<path d="M814 382.778C819.746 380.832 825.841 380.201 831.936 380.045C834.29 379.985 836.703 379.985 839.064 380.045C845.159 380.201 851.254 380.832 857 382.778L855.693 384.68C850.831 382.971 845.092 382.132 839.004 381.946C836.703 381.879 834.305 381.879 831.996 381.946C825.908 382.132 820.169 382.971 815.307 384.68L814 382.778Z" fill="white"/>
<path d="M816.316 386.284C820.073 384.762 825.663 384.256 829.739 384.145C831.098 384.108 832.285 384.108 833.184 384.145L835.5 387.116L837.816 384.145C841.41 384.011 849.672 384.256 854.684 386.284C853.993 387.599 850.994 389.493 849.338 389.909C849.242 387.324 845.597 386.76 842.093 386.76L835.5 422L828.907 386.76C825.403 386.76 821.758 387.324 821.662 389.909C820.013 389.493 817.007 387.599 816.316 386.284Z" fill="white"/>
</g>
<path id="Y" d="M840.83 416.022V426V427H841.83H849.03H850.03V426V415.727L858.713 400.873L859.593 399.368H857.85H849.75H849.152L848.869 399.894L845.466 406.219L842.062 399.894L841.779 399.368H841.182H832.902H831.165L832.037 400.87L840.83 416.022Z" fill="white" stroke="black" stroke-width="2"/>
</g>
</g>
<g id="Audi_A4">
<g id="Frame 9">
<path id="Vector_9" d="M939.5 386C934.817 386 931 389.817 931 394.5C931 399.183 934.817 403 939.5 403C941.596 403 943.516 402.231 945 400.967C946.484 402.231 948.404 403 950.5 403C952.596 403 954.516 402.231 956 400.967C957.484 402.231 959.404 403 961.5 403C963.596 403 965.516 402.231 967 400.967C968.484 402.231 970.404 403 972.5 403C977.183 403 981 399.183 981 394.5C981 389.817 977.183 386 972.5 386C970.404 386 968.484 386.769 967 388.033C965.516 386.769 963.596 386 961.5 386C959.404 386 957.484 386.769 956 388.033C954.516 386.769 952.596 386 950.5 386C948.404 386 946.484 386.769 945 388.033C943.516 386.769 941.596 386 939.5 386ZM939.5 388C941.081 388 942.526 388.559 943.65 389.49C942.618 390.897 942 392.627 942 394.5C942 396.373 942.618 398.103 943.65 399.51C942.526 400.441 941.081 401 939.5 401C935.898 401 933 398.102 933 394.5C933 390.898 935.898 388 939.5 388ZM950.5 388C952.081 388 953.526 388.559 954.65 389.49C953.618 390.897 953 392.627 953 394.5C953 396.373 953.618 398.103 954.65 399.51C953.526 400.441 952.081 401 950.5 401C948.919 401 947.474 400.441 946.35 399.51C947.382 398.103 948 396.373 948 394.5C948 392.627 947.382 390.897 946.35 389.49C947.474 388.559 948.919 388 950.5 388ZM961.5 388C963.081 388 964.526 388.559 965.65 389.49C964.618 390.897 964 392.627 964 394.5C964 396.373 964.618 398.103 965.65 399.51C964.526 400.441 963.081 401 961.5 401C959.919 401 958.474 400.441 957.35 399.51C958.382 398.103 959 396.373 959 394.5C959 392.627 958.382 390.897 957.35 389.49C958.474 388.559 959.919 388 961.5 388ZM972.5 388C976.102 388 979 390.898 979 394.5C979 398.102 976.102 401 972.5 401C970.919 401 969.474 400.441 968.35 399.51C969.382 398.103 970 396.373 970 394.5C970 392.627 969.382 390.897 968.35 389.49C969.474 388.559 970.919 388 972.5 388ZM945 391.037C945.631 392.039 946 393.223 946 394.5C946 395.777 945.631 396.961 945 397.963C944.369 396.961 944 395.777 944 394.5C944 393.223 944.369 392.039 945 391.037ZM956 391.037C956.631 392.039 957 393.223 957 394.5C957 395.777 956.631 396.961 956 397.963C955.369 396.961 955 395.777 955 394.5C955 393.223 955.369 392.039 956 391.037ZM967 391.037C967.631 392.039 968 393.223 968 394.5C968 395.777 967.631 396.961 967 397.963C966.369 396.961 966 395.777 966 394.5C966 393.223 966.369 392.039 967 391.037Z" fill="white"/>
<path id="A" d="M953.106 420.644L952.59 422H954.04H961.384H962.102L962.332 421.319L963.559 417.68H971.155L972.35 421.312L972.576 422H973.3H980.788H982.233L981.724 420.648L972.076 395.016L971.832 394.368H971.14H963.796H963.107L962.862 395.012L953.106 420.644ZM967.404 406.276L968.65 410.064H966.127L967.404 406.276Z" fill="white" stroke="black" stroke-width="2"/>
</g>
</g>
<g id="Audi_Q2">
<g id="Frame 10">
<path id="Vector_10" d="M699.5 506C694.817 506 691 509.817 691 514.5C691 519.183 694.817 523 699.5 523C701.596 523 703.516 522.231 705 520.967C706.484 522.231 708.404 523 710.5 523C712.596 523 714.516 522.231 716 520.967C717.484 522.231 719.404 523 721.5 523C723.596 523 725.516 522.231 727 520.967C728.484 522.231 730.404 523 732.5 523C737.183 523 741 519.183 741 514.5C741 509.817 737.183 506 732.5 506C730.404 506 728.484 506.769 727 508.033C725.516 506.769 723.596 506 721.5 506C719.404 506 717.484 506.769 716 508.033C714.516 506.769 712.596 506 710.5 506C708.404 506 706.484 506.769 705 508.033C703.516 506.769 701.596 506 699.5 506ZM699.5 508C701.081 508 702.526 508.559 703.65 509.49C702.618 510.897 702 512.627 702 514.5C702 516.373 702.618 518.103 703.65 519.51C702.526 520.441 701.081 521 699.5 521C695.898 521 693 518.102 693 514.5C693 510.898 695.898 508 699.5 508ZM710.5 508C712.081 508 713.526 508.559 714.65 509.49C713.618 510.897 713 512.627 713 514.5C713 516.373 713.618 518.103 714.65 519.51C713.526 520.441 712.081 521 710.5 521C708.919 521 707.474 520.441 706.35 519.51C707.382 518.103 708 516.373 708 514.5C708 512.627 707.382 510.897 706.35 509.49C707.474 508.559 708.919 508 710.5 508ZM721.5 508C723.081 508 724.526 508.559 725.65 509.49C724.618 510.897 724 512.627 724 514.5C724 516.373 724.618 518.103 725.65 519.51C724.526 520.441 723.081 521 721.5 521C719.919 521 718.474 520.441 717.35 519.51C718.382 518.103 719 516.373 719 514.5C719 512.627 718.382 510.897 717.35 509.49C718.474 508.559 719.919 508 721.5 508ZM732.5 508C736.102 508 739 510.898 739 514.5C739 518.102 736.102 521 732.5 521C730.919 521 729.474 520.441 728.35 519.51C729.382 518.103 730 516.373 730 514.5C730 512.627 729.382 510.897 728.35 509.49C729.474 508.559 730.919 508 732.5 508ZM705 511.037C705.631 512.039 706 513.223 706 514.5C706 515.777 705.631 516.961 705 517.963C704.369 516.961 704 515.777 704 514.5C704 513.223 704.369 512.039 705 511.037ZM716 511.037C716.631 512.039 717 513.223 717 514.5C717 515.777 716.631 516.961 716 517.963C715.369 516.961 715 515.777 715 514.5C715 513.223 715.369 512.039 716 511.037ZM727 511.037C727.631 512.039 728 513.223 728 514.5C728 515.777 727.631 516.961 727 517.963C726.369 516.961 726 515.777 726 514.5C726 513.223 726.369 512.039 727 511.037Z" fill="white"/>
<path id="Q" d="M720.384 541.425L720.388 541.426C722.22 542.149 724.206 542.504 726.335 542.504C728.437 542.504 730.397 542.162 732.203 541.465L732.203 541.465L732.214 541.46C732.676 541.276 733.123 541.072 733.555 540.85L736.752 544.047L737.459 544.754L738.166 544.047L742.054 540.159L742.761 539.452L742.054 538.745L739.07 535.76C739.437 535.159 739.76 534.527 740.036 533.865C740.788 532.102 741.159 530.204 741.159 528.184C741.159 526.144 740.789 524.246 740.036 522.503C739.313 520.749 738.276 519.219 736.928 517.923L736.235 518.644L736.928 517.923C735.58 516.627 733.99 515.633 732.171 514.94C730.362 514.218 728.389 513.864 726.263 513.864C724.135 513.864 722.151 514.219 720.32 514.94C718.522 515.634 716.945 516.628 715.598 517.923L716.213 518.563L715.598 517.923C714.253 519.216 713.205 520.731 712.457 522.459L712.457 522.459L712.452 522.47C711.724 524.212 711.367 526.109 711.367 528.148C711.367 530.169 711.739 532.068 712.491 533.832C713.239 535.585 714.287 537.113 715.634 538.409L715.634 538.409L715.641 538.415C717.007 539.705 718.591 540.707 720.384 541.425ZM731.815 528.148C731.815 528.267 731.813 528.384 731.809 528.5L729.634 526.325L728.927 525.618L728.22 526.325L724.332 530.213L723.625 530.92L724.332 531.627L726.851 534.146C726.661 534.161 726.465 534.168 726.263 534.168C725.366 534.168 724.583 534.03 723.901 533.772C723.24 533.489 722.677 533.102 722.203 532.611C721.731 532.096 721.357 531.476 721.088 530.736C720.842 529.994 720.711 529.135 720.711 528.148C720.711 526.856 720.952 525.795 721.393 524.931L721.393 524.932L721.397 524.923C721.84 524.037 722.459 523.386 723.26 522.936L723.268 522.932L723.276 522.927C724.082 522.456 725.065 522.2 726.263 522.2C727.16 522.2 727.923 522.349 728.573 522.625L728.589 522.632L728.606 522.638C729.282 522.897 729.848 523.279 730.316 523.786L730.323 523.793L730.33 523.801C730.793 524.284 731.153 524.883 731.398 525.62L731.404 525.636L731.41 525.652C731.674 526.363 731.815 527.19 731.815 528.148Z" fill="white" stroke="black" stroke-width="2"/>
</g>
</g>
<g id="Seat">
<g id="Frame 11">
<path id="Vector_11" d="M828.897 508.112C836.792 507.83 844.695 508.11 852.576 508.624C853.406 508.697 854.246 508.691 855.063 508.868C855.505 508.976 855.983 509.148 856.241 509.555C856.477 509.999 856.482 510.516 856.543 511.005C856.731 513.405 856.786 515.816 856.963 518.216C856.621 518.258 856.28 518.205 855.938 518.194C849.86 517.875 843.776 517.609 837.688 517.601C834.535 517.61 831.378 517.579 828.227 517.734C827.464 517.848 826.6 518.108 826.159 518.799C828.542 519.228 830.921 519.692 833.304 520.13C841.2 521.63 849.103 523.097 857 524.595C856.993 526.115 856.996 527.635 856.999 529.155C852.558 528.409 848.125 527.604 843.688 526.834C834.14 525.163 824.596 523.47 815.045 521.816C815.064 520.129 815.135 518.442 815.17 516.754C815.23 515.417 815.192 514.062 815.49 512.749C815.691 511.823 816.062 510.892 816.753 510.23C817.947 509.03 819.674 508.693 821.281 508.524C823.813 508.285 826.357 508.207 828.897 508.112ZM815 524.036C828.678 526.597 842.352 529.202 856.028 531.779C856.327 531.853 856.647 531.859 856.934 531.97L856.968 532.05C856.893 534.327 856.85 536.606 856.769 538.883C856.717 540.288 856.571 541.758 855.858 542.996C855.095 544.276 853.672 544.984 852.264 545.251C850.189 545.647 848.07 545.673 845.969 545.79C836.926 546.206 827.865 545.976 818.838 545.345C818.117 545.294 817.383 545.281 816.682 545.078C816.319 544.962 815.944 544.774 815.739 544.434C815.519 543.987 815.505 543.478 815.451 542.991C815.258 540.334 815.155 537.673 815.018 535.013C819.675 535.313 824.339 535.482 829.005 535.587C833.51 535.661 838.015 535.66 842.52 535.705C843.491 535.746 844.542 535.558 845.279 534.865C845.387 534.74 845.561 534.623 845.543 534.436C843.513 534.127 841.494 533.742 839.468 533.404C831.315 531.989 823.157 530.587 815.005 529.164C814.995 527.455 815.007 525.745 815 524.036Z" fill="white"/>
</g>
</g>
<g id="Opel">
<g id="Frame 12">
<path id="Vector_12" d="M956 539.857C946.908 539.857 939.511 532.518 939.511 523.499C939.511 523.034 939.535 522.574 939.575 522.119L953.36 522.973L947.394 527.063C947.313 527.119 947.26 527.212 947.26 527.316C947.26 527.486 947.399 527.627 947.571 527.627H971.959C970.109 534.654 963.655 539.857 956 539.857ZM956 507.142C965.095 507.142 972.49 514.48 972.49 523.499C972.49 523.962 972.466 524.419 972.428 524.871H972.42L958.636 524.001L964.618 519.935C964.701 519.879 964.752 519.786 964.752 519.682C964.752 519.509 964.612 519.371 964.441 519.371H940.044C941.891 512.344 948.346 507.142 956 507.142ZM979.641 525.326L974.584 525.007C974.624 524.509 974.651 524.007 974.651 523.499C974.651 513.299 966.285 505 956 505C947.147 505 939.722 511.152 937.824 519.37H933.703C933.469 519.37 933.263 519.48 933.132 519.65L932.078 521.094C932.03 521.155 932 521.232 932 521.315C932 521.512 932.161 521.671 932.362 521.671L936.856 521.948L937.419 521.985C937.379 522.485 937.352 522.988 937.352 523.498C937.352 533.698 945.718 542 956 542C964.853 542 972.281 535.845 974.176 527.627H978.3C978.533 527.627 978.74 527.518 978.871 527.348L979.925 525.903C979.973 525.842 980 525.765 980 525.682C980 525.486 979.839 525.326 979.641 525.326Z" fill="white"/>
</g>
</g>
<g id="Ford">
<g id="Frame 13">
<g id="Vector_13">
<path d="M737.788 639.854C737.635 639.854 737.556 639.874 737.484 640.024C737.246 640.505 734.353 645.086 733.815 645.976C733.724 646.111 733.613 646.093 733.6 645.939C733.546 645.41 733.114 644.803 732.433 644.512C731.915 644.289 731.408 644.249 730.881 644.323C729.929 644.459 729.081 644.989 728.336 645.587C727.212 646.49 726.243 647.659 724.992 648.524C724.309 648.994 723.373 649.404 722.748 648.792C722.181 648.237 722.245 647.004 723.112 646.051C723.203 645.951 723.313 646.034 723.296 646.125C723.214 646.556 723.314 646.984 723.624 647.285C724.002 647.643 724.543 647.684 725.006 647.445C725.552 647.158 725.874 646.606 725.968 645.979C726.112 645.006 725.403 644.148 724.516 644.079C723.796 644.025 723.106 644.291 722.433 644.878C722.096 645.173 721.903 645.392 721.611 645.83C721.54 645.939 721.431 645.95 721.434 645.79C721.469 644.545 720.981 643.844 720.006 643.821C719.25 643.802 718.442 644.235 717.812 644.766C717.121 645.352 716.518 646.128 715.87 646.858C715.79 646.948 715.72 646.944 715.698 646.769C715.678 645.944 715.482 645.145 715.12 644.577C714.992 644.38 714.723 644.282 714.497 644.416C714.392 644.476 714.029 644.653 713.765 644.878C713.634 644.992 713.582 645.157 713.64 645.369C713.99 646.602 713.913 648.003 713.439 649.188C713.004 650.271 712.16 651.249 711.167 651.581C710.513 651.8 709.833 651.692 709.413 651.08C708.835 650.233 709.068 648.764 709.929 647.542C710.689 646.468 711.789 645.784 712.885 645.344C713.015 645.292 713.041 645.204 713.004 645.088C712.944 644.897 712.85 644.638 712.811 644.52C712.711 644.237 712.429 644.191 712.085 644.23C711.288 644.329 710.569 644.617 709.859 645.019C708 646.071 707.068 648.108 706.659 649.197C706.463 649.72 706.294 650.047 706.077 650.336C705.784 650.725 705.416 651.08 704.743 651.704C704.682 651.762 704.637 651.88 704.688 651.992C704.756 652.142 705.107 652.663 705.205 652.711C705.315 652.768 705.442 652.688 705.493 652.65C705.963 652.312 706.527 651.778 706.802 651.415C706.899 651.291 706.999 651.344 707.049 651.532C707.307 652.502 707.981 653.294 708.912 653.624C710.617 654.231 712.386 653.352 713.72 651.821C714.569 650.849 714.875 650.223 715.2 649.797C715.751 649.076 716.838 647.462 718.132 646.426C718.607 646.044 719.17 645.753 719.452 645.946C719.678 646.101 719.752 646.462 719.388 647.161C718.068 649.708 716.125 652.7 715.77 653.426C715.705 653.552 715.761 653.651 715.886 653.651C716.577 653.648 717.261 653.65 717.889 653.65C717.993 653.645 718.04 653.594 718.092 653.517C719.105 651.841 720.058 650.245 721.08 648.597C721.138 648.5 721.19 648.576 721.192 648.618C721.213 649.001 721.303 649.523 721.517 649.867C721.903 650.502 722.451 650.776 723.058 650.779C723.541 650.785 723.785 650.708 724.306 650.502C724.73 650.336 725.07 650.118 725.332 649.921C725.484 649.809 725.511 649.996 725.507 650.025C725.272 651.355 725.562 652.932 726.813 653.585C728.311 654.365 729.955 653.268 730.902 652.279C730.994 652.183 731.094 652.193 731.103 652.399C731.123 652.777 731.285 653.225 731.58 653.538C732.374 654.38 733.974 654.046 735.58 652.733C736.611 651.892 737.69 650.703 738.665 649.445C738.702 649.396 738.728 649.318 738.659 649.24C738.51 649.075 738.296 648.888 738.148 648.743C738.081 648.683 737.983 648.7 737.926 648.745C736.927 649.749 736.028 650.894 734.728 651.841C734.29 652.163 733.591 652.425 733.277 651.976C733.155 651.802 733.169 651.561 733.289 651.245C733.668 650.245 739.668 640.593 739.98 640.025C740.033 639.925 739.977 639.853 739.858 639.853C739.241 639.853 738.431 639.854 737.788 639.854M728.279 651.717C727.97 651.548 727.836 651.091 727.843 650.721C727.859 649.683 728.294 648.616 729.102 647.568C730.087 646.288 731.176 645.623 731.89 645.986C732.629 646.359 732.393 647.263 732.062 647.972C732.038 648.028 732.036 648.074 732.049 648.119C732.061 648.193 732.153 648.265 732.242 648.299C732.273 648.311 732.29 648.335 732.255 648.412C732 648.99 731.765 649.323 731.445 649.825C731.151 650.289 730.82 650.651 730.419 650.999C729.952 651.407 729.345 651.844 728.773 651.844C728.604 651.844 728.438 651.805 728.279 651.717Z" fill="white"/>
<path d="M704.169 634.073C700.481 634.401 696.972 636.594 696.965 639.925C696.962 641.613 698.098 642.982 699.858 642.922C701.927 642.848 703.626 641.097 704.515 638.888C704.852 638.05 704.227 637.703 703.93 638.185C703.399 639.054 702.651 639.729 701.842 640.147C700.869 640.651 699.828 640.515 699.513 639.68C699.069 638.502 699.991 636.738 702.095 635.908C705.134 634.72 708.313 635.506 711.372 636.114C711.416 636.114 711.579 636.209 711.435 636.289C710.886 636.604 710.348 636.861 709.507 637.625C708.905 638.17 708.116 638.896 707.506 639.686C706.901 640.465 706.471 641.161 705.903 641.931C705.825 642.042 705.727 642.037 705.728 642.037C704.344 642.284 702.989 642.449 701.748 643.361C701.492 643.548 701.38 643.88 701.536 644.135C701.675 644.36 701.995 644.384 702.217 644.213C702.989 643.604 703.782 643.317 704.692 643.29C704.732 643.293 704.751 643.3 704.762 643.326C704.769 643.34 704.765 643.371 704.749 643.394C703.385 645.392 703.044 645.843 702.018 647.082C701.494 647.719 700.978 648.257 700.402 648.816C698.073 651.102 695.569 651.063 694.67 649.629C694.133 648.77 694.204 647.866 694.556 647.117C694.989 646.2 695.865 645.528 696.592 645.135C696.863 644.989 696.94 644.624 696.67 644.291C696.498 644.074 696.081 644.035 695.77 644.096C694.816 644.282 693.689 645.044 693.024 645.96C692.273 646.989 691.898 648.239 692.024 649.64C692.25 652.169 694.221 653.63 696.458 653.613C698.239 653.598 699.916 653.029 701.934 650.864C703.815 648.845 705.529 645.83 707.133 643.034C707.184 642.944 707.22 642.896 707.463 642.864C708.469 642.731 709.955 642.58 710.909 642.521C711.12 642.509 711.163 642.512 711.248 642.623C711.496 642.954 711.868 643.236 712.167 643.406C712.313 643.49 712.382 643.531 712.496 643.533C712.637 643.536 712.747 643.456 712.818 643.371C712.92 643.254 712.947 643.101 712.893 643.002C712.835 642.898 712.171 642.509 712.152 642.352C712.137 642.254 712.239 642.23 712.239 642.23C712.727 642.068 713.235 641.736 713.543 641.112C713.845 640.499 713.894 639.681 713.341 639.225C712.856 638.825 712.122 638.888 711.536 639.443C710.963 639.983 710.774 640.766 710.852 641.454C710.865 641.573 710.859 641.613 710.706 641.627C709.825 641.701 708.977 641.727 708.034 641.78C707.97 641.785 707.95 641.74 707.987 641.695C709.073 639.7 710.695 638.28 712.489 636.881C712.608 636.788 712.571 636.608 712.567 636.459C715.806 637.202 718.936 638.586 722.297 638.556C723.687 638.545 725.018 638.321 726.289 637.585C727.407 636.94 727.861 636.343 727.894 635.724C727.92 635.295 727.639 635.025 727.237 635.117C723.842 635.942 720.603 635.932 717.225 635.501C713.391 635.009 709.71 634 705.896 634C705.323 634 704.748 634.022 704.169 634.073ZM711.75 641.189C711.701 640.809 711.818 640.3 712.201 639.942C712.395 639.761 712.655 639.72 712.814 639.865C712.994 640.027 712.909 640.43 712.728 640.71C712.531 641.017 712.196 641.283 711.891 641.347C711.882 641.349 711.874 641.35 711.866 641.35C711.815 641.35 711.772 641.312 711.75 641.189Z" fill="white"/>
</g>
</g>
</g>
<g id="Generic">
<g id="Frame 13_2">
<path id="Vector_14" d="M841.335 631C841.091 631 840.832 631.113 840.644 631.302L835.354 636.609C834.978 636.986 834.978 637.589 835.354 637.966C835.542 638.155 835.797 638.238 836.045 638.238C836.293 638.238 836.549 638.155 836.736 637.966L838.69 636.006L842.177 639.504C840.651 640.465 838.081 641.555 834.121 641.555C828.005 641.555 825.214 639.029 824.503 638.268V637.363C824.503 636.112 824.154 634.969 823.482 633.955L822.43 632.327C822.14 631.882 821.554 631.735 821.107 632.025C820.66 632.316 820.517 632.904 820.807 633.352L821.889 635.011C822.362 635.723 822.58 636.489 822.58 637.363V637.695H817.11C815.34 637.695 813.954 639.082 813.954 640.861V645.505C814.292 645.426 814.619 645.385 814.976 645.385H816.238C817.564 644.152 819.307 643.455 821.137 643.455C822.967 643.455 824.71 644.152 826.036 645.385H846.054C847.38 644.152 849.123 643.455 850.953 643.455C852.783 643.455 854.526 644.152 855.852 645.385H857.024C857.25 645.385 857.468 645.415 857.686 645.445C855.469 641.072 846.159 638.091 844.972 637.725C844.6 637.608 844.19 637.744 843.95 638.057C843.946 638.06 843.848 638.155 843.709 638.298L840.073 634.649L842.026 632.659C842.402 632.282 842.402 631.679 842.026 631.302C841.838 631.113 841.579 631 841.335 631ZM821.137 645.385C819.499 645.385 818.023 646.135 817.049 647.315H814.976C813.36 647.315 812 648.717 812 650.391V651.084C812 652.679 813.386 654.07 814.976 654.07H817.049C818.023 655.25 819.499 656 821.137 656C822.775 656 824.252 655.25 825.225 654.07H846.865C847.838 655.25 849.315 656 850.953 656C852.591 656 854.068 655.25 855.041 654.07H855.492C855.638 654.07 855.788 654.04 855.912 653.979H857.024C858.67 653.979 860 652.645 860 650.994V650.3C860 648.653 858.67 647.315 857.024 647.315H855.041C854.068 646.135 852.591 645.385 850.953 645.385C849.315 645.385 847.838 646.135 846.865 647.315H825.225C824.252 646.135 822.775 645.385 821.137 645.385ZM821.137 647.315C822.993 647.315 824.503 648.83 824.503 650.692C824.503 652.555 822.993 654.07 821.137 654.07C819.281 654.07 817.771 652.555 817.771 650.692C817.771 648.83 819.281 647.315 821.137 647.315ZM850.953 647.315C852.809 647.315 854.319 648.83 854.319 650.692C854.319 652.555 852.809 654.07 850.953 654.07C849.097 654.07 847.587 652.555 847.587 650.692C847.587 648.83 849.097 647.315 850.953 647.315Z" fill="white"/>
</g>
</g>
<g id="Generic_Truck">
<g id="Frame 13_3">
<path id="Vector_15" d="M934.73 626C933.223 626 932 627.243 932 628.767V654.216C932 655.74 933.373 657.135 934.88 657.135H938.81C939.268 659.894 941.63 662 944.48 662C947.33 662 949.692 659.894 950.15 657.135H959.03C960.534 657.135 961.76 655.892 961.76 654.368V628.828C961.76 627.269 960.549 626 959.06 626H934.73ZM963.68 632.811V657.135C964.141 659.891 966.59 662 969.44 662C972.29 662 974.653 659.891 975.11 657.135H977.12C978.627 657.135 980 655.744 980 654.216V644.851C980 642.894 978.609 640.895 978.44 640.655L974.45 635.243C973.535 634.126 972.099 632.811 970.4 632.811H963.68ZM968.48 637.676H973.85L976.91 641.811C977.236 642.278 978.08 643.711 978.08 644.851V645.459H968.48C967.52 645.459 966.56 644.486 966.56 643.514V639.622C966.56 638.546 967.52 637.676 968.48 637.676ZM944.48 652.27C946.599 652.27 948.32 654.015 948.32 656.162C948.32 658.31 946.599 660.054 944.48 660.054C942.361 660.054 940.64 658.31 940.64 656.162C940.64 654.015 942.361 652.27 944.48 652.27ZM969.44 652.27C971.559 652.27 973.28 654.015 973.28 656.162C973.28 658.31 971.559 660.054 969.44 660.054C967.321 660.054 965.6 658.31 965.6 656.162C965.6 654.015 967.321 652.27 969.44 652.27Z" fill="white"/>
</g>
</g>
<rect x="656.5" y="104.5" width="359" height="599" stroke="#BCBCBC"/>
</g>
<g id="modifiers">
<g id="discounted">
<circle id="Ellipse 1" cx="136.5" cy="442.5" r="17.5" fill="#37DFA3"/>
<path id="Vector_16" d="M129.495 452.748L129.546 452.783L129.602 452.81C129.604 452.811 129.606 452.813 129.61 452.815C129.666 452.845 129.958 453 130.301 453C130.302 453 130.302 453 130.304 453C130.327 453.001 130.519 453.006 130.723 452.938C130.894 452.881 131.025 452.794 131.121 452.713L136.521 449.239L141.931 452.72C142.228 452.956 142.569 453.009 142.823 452.993C143.099 452.976 143.351 452.879 143.547 452.748L143.57 452.733L143.592 452.716C143.82 452.545 144.006 452.309 144.104 452.017C144.2 451.729 144.19 451.448 144.13 451.211L144.128 451.203L144.126 451.195L142.445 444.931L147.488 440.844L147.528 440.811L147.565 440.774C147.95 440.39 148.078 439.857 147.954 439.362C147.801 438.749 147.243 438.327 146.641 438.311L140.163 437.968L137.837 431.907C137.726 431.599 137.512 431.385 137.326 431.257C137.125 431.117 136.846 431 136.521 431C136.192 431 135.922 431.119 135.738 431.238C135.552 431.357 135.389 431.517 135.268 431.697L135.207 431.79L135.167 431.894L132.836 437.968L126.358 438.311C125.757 438.327 125.198 438.749 125.045 439.362C124.952 439.734 124.967 440.488 125.615 440.894L130.596 444.931L128.915 451.195L128.913 451.203L128.911 451.211C128.831 451.532 128.879 451.836 128.966 452.068C129.05 452.293 129.214 452.561 129.495 452.748Z" fill="white" stroke="black" stroke-width="2"/>
</g>
<g id="charging">
<circle id="Ellipse 2" cx="191.5" cy="562.5" r="17.5" fill="#EEC048"/>
<path id="Vector_17" d="M187.958 573.902L187.963 573.904C188.141 573.97 188.324 574 188.5 574C188.957 574 189.437 573.794 189.739 573.366L189.741 573.364L197.74 561.95L197.74 561.95L197.743 561.946C198.059 561.491 198.092 560.888 197.796 560.396C197.511 559.922 197 559.674 196.499 559.674H193.872L195.464 552.775L195.465 552.773C195.637 552.02 195.185 551.349 194.558 551.105C193.945 550.866 193.21 551.04 192.789 551.594L192.789 551.594L192.784 551.602L184.284 563.015L184.284 563.015C183.947 563.469 183.901 564.083 184.194 564.585C184.476 565.073 184.995 565.326 185.5 565.326H188.628L187.038 572.22C187.038 572.221 187.038 572.222 187.038 572.223C186.859 572.986 187.326 573.664 187.958 573.902Z" fill="white" stroke="black" stroke-width="2"/>
</g>
<rect x="104.5" y="408.5" width="119" height="239" stroke="#BCBCBC"/>
</g>
<g id="chargestates_combustion">
<g id="fuel_30_plus">
<path id="Outline Path" d="M532 220.3C537.066 215.3 550.228 202.073 555 196.2C567.374 180.97 569.5 173.5 569.5 162.5C569.5 144.5 553 126.5 532 126.5C511 126.5 494.5 144.5 494.5 162.5C494.5 173.5 497 182 509 196.3C514.789 203.199 530.226 218.72 531.86 220.359" stroke="#EE4848" stroke-width="5" stroke-linecap="round"/>
</g>
<g id="fuel_30">
<path id="Outline Path_2" d="M532 340.3C537.066 335.3 550.228 322.073 555 316.2C567.374 300.97 569.5 293.5 569.5 282.5C569.5 264.5 553 246.5 532 246.5C511 246.5 494.5 264.5 494.5 282.5C494.5 293.5 497 302 509 316.3C514.789 323.199 530.226 338.72 531.86 340.359" stroke="#429DF1" stroke-width="5" stroke-linecap="round"/>
</g>
<g id="fuel_25">
<path id="Outline Path_3" d="M531.86 460.359C530.226 458.72 514.789 443.199 509 436.3C497 422 494.5 413.5 494.5 402.5C494.5 384.5 511 366.5 532 366.5C547.425 366.5 560.421 376.211 566.235 388.5C568.337 392.942 569.5 397.721 569.5 402.5C569.5 411.757 567.995 418.514 560.143 429.5" stroke="#429DF1" stroke-width="5" stroke-linecap="round"/>
</g>
<g id="fuel_20">
<path id="Outline Path_4" d="M531.86 580.359C530.226 578.72 514.789 563.199 509 556.3C497 542 494.5 533.5 494.5 522.5C494.5 504.5 511 486.5 532 486.5C547.425 486.5 560.421 496.211 566.235 508.5" stroke="#429DF1" stroke-width="5" stroke-linecap="round"/>
</g>
<g id="fuel_15">
<path id="Outline Path_5" d="M532 606.5C511 606.5 494.5 624.5 494.5 642.5C494.5 653.5 497 662 509 676.3C514.789 683.199 530.226 698.72 531.86 700.359" stroke="#429DF1" stroke-width="5" stroke-linecap="round"/>
</g>
<g id="fuel_10">
<path id="Outline Path_6" d="M531.86 820.359C530.226 818.72 514.789 803.199 509 796.3C497 782 494.5 773.5 494.5 762.5C494.5 757.721 495.663 752.942 497.765 748.5" stroke="#429DF1" stroke-width="5" stroke-linecap="round"/>
</g>
<g id="fuel_5">
<path id="Outline Path_7" d="M531.86 940.359C530.226 938.72 514.789 923.199 509 916.3C506.97 913.881 505.212 911.627 503.691 909.5" stroke="#429DF1" stroke-width="5" stroke-linecap="round"/>
</g>
<rect x="472.5" y="104.5" width="119" height="839" stroke="#BCBCBC"/>
</g>
<g id="chargestates_electric">
<g id="electric_30_plus">
<path id="Outline Path_8" d="M348 220.3C353.066 215.3 366.228 202.073 371 196.2C383.374 180.97 385.5 173.5 385.5 162.5C385.5 144.5 369 126.5 348 126.5C327 126.5 310.5 144.5 310.5 162.5C310.5 173.5 313 182 325 196.3C330.789 203.199 346.226 218.72 347.86 220.359" stroke="#EEC048" stroke-width="5" stroke-linecap="round"/>
</g>
<g id="electric_30">
<path id="Outline Path_9" d="M348 340.3C353.066 335.3 366.228 322.073 371 316.2C383.374 300.97 385.5 293.5 385.5 282.5C385.5 264.5 369 246.5 348 246.5C327 246.5 310.5 264.5 310.5 282.5C310.5 293.5 313 302 325 316.3C330.789 323.199 346.226 338.72 347.86 340.359" stroke="#37DFA3" stroke-width="5" stroke-linecap="round"/>
</g>
<g id="electric_25">
<path id="Outline Path_10" d="M347.86 460.359C346.226 458.72 330.789 443.199 325 436.3C313 422 310.5 413.5 310.5 402.5C310.5 384.5 327 366.5 348 366.5C363.425 366.5 376.421 376.211 382.235 388.5C384.337 392.942 385.5 397.721 385.5 402.5C385.5 411.757 383.995 418.514 376.143 429.5" stroke="#37DFA3" stroke-width="5" stroke-linecap="round"/>
</g>
<g id="electric_20">
<path id="Outline Path_11" d="M347.86 580.359C346.226 578.72 330.789 563.199 325 556.3C313 542 310.5 533.5 310.5 522.5C310.5 504.5 327 486.5 348 486.5C363.425 486.5 376.421 496.211 382.235 508.5" stroke="#37DFA3" stroke-width="5" stroke-linecap="round"/>
</g>
<g id="electric_15">
<path id="Outline Path_12" d="M348 606.5C327 606.5 310.5 624.5 310.5 642.5C310.5 653.5 313 662 325 676.3C330.789 683.199 346.226 698.72 347.86 700.359" stroke="#37DFA3" stroke-width="5" stroke-linecap="round"/>
</g>
<g id="electric_10">
<path id="Outline Path_13" d="M347.86 820.359C346.226 818.72 330.789 803.199 325 796.3C313 782 310.5 773.5 310.5 762.5C310.5 757.721 311.663 752.942 313.765 748.5" stroke="#37DFA3" stroke-width="5" stroke-linecap="round"/>
</g>
<g id="electric_5">
<path id="Outline Path_14" d="M347.86 940.359C346.226 938.72 330.789 923.199 325 916.3C322.97 913.881 321.212 911.627 319.691 909.5" stroke="#37DFA3" stroke-width="5" stroke-linecap="round"/>
</g>
<rect x="288.5" y="104.5" width="119" height="839" stroke="#BCBCBC"/>
</g>
</g>
<g id="Rectangle">
<rect x="40" y="4" width="146.766" height="30" rx="3" fill="#494949"/>
<rect x="40.5" y="4.5" width="145.766" height="29" rx="2.5" stroke="black" stroke-opacity="0.14902"/>
</g>
<path id="VehicleMarker.spritesheet_2" d="M47.2969 14L49.6719 20.7344H49.7656L52.1406 14H53.1563L50.2188 22H49.2188L46.2813 14H47.2969ZM56.2344 22.125C55.6563 22.125 55.1576 21.9974 54.7383 21.7422C54.3216 21.4844 54 21.125 53.7734 20.6641C53.5495 20.2005 53.4375 19.6615 53.4375 19.0469C53.4375 18.4323 53.5495 17.8906 53.7734 17.4219C54 16.9505 54.3151 16.5833 54.7188 16.3203C55.125 16.0547 55.599 15.9219 56.1406 15.9219C56.4531 15.9219 56.7617 15.974 57.0664 16.0781C57.3711 16.1823 57.6484 16.3516 57.8984 16.5859C58.1484 16.8177 58.3477 17.125 58.4961 17.5078C58.6445 17.8906 58.7188 18.362 58.7188 18.9219V19.3125H54.0938V18.5156H57.7813C57.7813 18.1771 57.7135 17.875 57.5781 17.6094C57.4453 17.3437 57.2552 17.1341 57.0078 16.9805C56.763 16.8268 56.474 16.75 56.1406 16.75C55.7734 16.75 55.4557 16.8411 55.1875 17.0234C54.9219 17.2031 54.7174 17.4375 54.5742 17.7266C54.431 18.0156 54.3594 18.3255 54.3594 18.6562V19.1875C54.3594 19.6406 54.4375 20.0247 54.5938 20.3398C54.7526 20.6523 54.9727 20.8906 55.2539 21.0547C55.5352 21.2161 55.862 21.2969 56.2344 21.2969C56.4766 21.2969 56.6953 21.263 56.8906 21.1953C57.0885 21.125 57.2591 21.0208 57.4023 20.8828C57.5456 20.7422 57.6563 20.5677 57.7344 20.3594L58.625 20.6094C58.5313 20.9115 58.3737 21.1771 58.1523 21.4062C57.931 21.6328 57.6576 21.8099 57.332 21.9375C57.0065 22.0625 56.6406 22.125 56.2344 22.125ZM61.043 18.3906V22H60.1211V14H61.043V16.9375H61.1211C61.2617 16.6276 61.4727 16.3815 61.7539 16.1992C62.0378 16.0143 62.4154 15.9219 62.8867 15.9219C63.2956 15.9219 63.6536 16.0039 63.9609 16.168C64.2682 16.3294 64.5065 16.5781 64.6758 16.9141C64.8477 17.2474 64.9336 17.6719 64.9336 18.1875V22H64.0117V18.25C64.0117 17.7734 63.888 17.4049 63.6406 17.1445C63.3958 16.8815 63.056 16.75 62.6211 16.75C62.319 16.75 62.0482 16.8138 61.8086 16.9414C61.5716 17.069 61.3841 17.2552 61.2461 17.5C61.1107 17.7448 61.043 18.0417 61.043 18.3906ZM66.6201 22V16H67.542V22H66.6201ZM67.0889 15C66.9092 15 66.7542 14.9388 66.624 14.8164C66.4964 14.694 66.4326 14.5469 66.4326 14.375C66.4326 14.2031 66.4964 14.056 66.624 13.9336C66.7542 13.8112 66.9092 13.75 67.0889 13.75C67.2686 13.75 67.4222 13.8112 67.5498 13.9336C67.68 14.056 67.7451 14.2031 67.7451 14.375C67.7451 14.5469 67.68 14.694 67.5498 14.8164C67.4222 14.9388 67.2686 15 67.0889 15ZM71.668 22.125C71.1055 22.125 70.6211 21.9922 70.2148 21.7266C69.8086 21.4609 69.4961 21.0951 69.2773 20.6289C69.0586 20.1628 68.9492 19.6302 68.9492 19.0312C68.9492 18.4219 69.0612 17.8841 69.2852 17.418C69.5117 16.9492 69.8268 16.5833 70.2305 16.3203C70.6367 16.0547 71.1107 15.9219 71.6523 15.9219C72.0742 15.9219 72.4544 16 72.793 16.1562C73.1315 16.3125 73.4089 16.5312 73.625 16.8125C73.8411 17.0937 73.9753 17.4219 74.0273 17.7969H73.1055C73.0352 17.5234 72.8789 17.2812 72.6367 17.0703C72.3971 16.8568 72.0742 16.75 71.668 16.75C71.3086 16.75 70.9935 16.8437 70.7227 17.0312C70.4544 17.2161 70.2448 17.4779 70.0937 17.8164C69.9453 18.1523 69.8711 18.5469 69.8711 19C69.8711 19.4635 69.944 19.8672 70.0898 20.2109C70.2383 20.5547 70.4466 20.8216 70.7148 21.0117C70.9857 21.2018 71.3034 21.2969 71.668 21.2969C71.9076 21.2969 72.125 21.2552 72.3203 21.1719C72.5156 21.0885 72.681 20.9688 72.8164 20.8125C72.9518 20.6562 73.0482 20.4687 73.1055 20.25H74.0273C73.9753 20.6042 73.8464 20.9232 73.6406 21.207C73.4375 21.4883 73.168 21.7122 72.832 21.8789C72.4987 22.043 72.1107 22.125 71.668 22.125ZM76.2969 14V22H75.375V14H76.2969ZM80.501 22.125C79.9229 22.125 79.4242 21.9974 79.0049 21.7422C78.5882 21.4844 78.2666 21.125 78.04 20.6641C77.8161 20.2005 77.7041 19.6615 77.7041 19.0469C77.7041 18.4323 77.8161 17.8906 78.04 17.4219C78.2666 16.9505 78.5817 16.5833 78.9854 16.3203C79.3916 16.0547 79.8656 15.9219 80.4072 15.9219C80.7197 15.9219 81.0283 15.974 81.333 16.0781C81.6377 16.1823 81.915 16.3516 82.165 16.5859C82.415 16.8177 82.6143 17.125 82.7627 17.5078C82.9111 17.8906 82.9854 18.362 82.9854 18.9219V19.3125H78.3604V18.5156H82.0479C82.0479 18.1771 81.9801 17.875 81.8447 17.6094C81.7119 17.3437 81.5218 17.1341 81.2744 16.9805C81.0296 16.8268 80.7406 16.75 80.4072 16.75C80.04 16.75 79.7223 16.8411 79.4541 17.0234C79.1885 17.2031 78.984 17.4375 78.8408 17.7266C78.6976 18.0156 78.626 18.3255 78.626 18.6562V19.1875C78.626 19.6406 78.7041 20.0247 78.8604 20.3398C79.0192 20.6523 79.2393 20.8906 79.5205 21.0547C79.8018 21.2161 80.1286 21.2969 80.501 21.2969C80.7432 21.2969 80.9619 21.263 81.1572 21.1953C81.3551 21.125 81.5257 21.0208 81.6689 20.8828C81.8122 20.7422 81.9229 20.5677 82.001 20.3594L82.8916 20.6094C82.7979 20.9115 82.6403 21.1771 82.4189 21.4062C82.1976 21.6328 81.9242 21.8099 81.5986 21.9375C81.2731 22.0625 80.9072 22.125 80.501 22.125ZM84.5127 14H85.6689L88.3877 20.6406H88.4814L91.2002 14H92.3564V22H91.4502V15.9219H91.3721L88.8721 22H87.9971L85.4971 15.9219H85.4189V22H84.5127V14ZM95.9395 22.1406C95.5592 22.1406 95.2142 22.069 94.9043 21.9258C94.5944 21.7799 94.3483 21.5703 94.166 21.2969C93.9837 21.0208 93.8926 20.6875 93.8926 20.2969C93.8926 19.9531 93.9603 19.6745 94.0957 19.4609C94.2311 19.2448 94.4121 19.0755 94.6387 18.9531C94.8652 18.8307 95.1152 18.7396 95.3887 18.6797C95.6647 18.6172 95.9421 18.5677 96.2207 18.5313C96.5853 18.4844 96.8809 18.4492 97.1074 18.4258C97.3366 18.3997 97.5033 18.3568 97.6074 18.2969C97.7142 18.237 97.7676 18.1328 97.7676 17.9844V17.9531C97.7676 17.5677 97.6621 17.2682 97.4512 17.0547C97.2428 16.8411 96.9264 16.7344 96.502 16.7344C96.0618 16.7344 95.7168 16.8307 95.4668 17.0234C95.2168 17.2161 95.041 17.4219 94.9395 17.6406L94.0645 17.3281C94.2207 16.9635 94.429 16.6797 94.6895 16.4766C94.9525 16.2708 95.2389 16.1276 95.5488 16.0469C95.8613 15.9635 96.1686 15.9219 96.4707 15.9219C96.6634 15.9219 96.8848 15.9453 97.1348 15.9922C97.3874 16.0365 97.6309 16.1289 97.8652 16.2695C98.1022 16.4102 98.2988 16.6224 98.4551 16.9062C98.6113 17.1901 98.6895 17.5703 98.6895 18.0469V22H97.7676V21.1875H97.7207C97.6582 21.3177 97.554 21.457 97.4082 21.6055C97.2624 21.7539 97.0684 21.8802 96.8262 21.9844C96.584 22.0885 96.2884 22.1406 95.9395 22.1406ZM96.0801 21.3125C96.4447 21.3125 96.752 21.2409 97.002 21.0977C97.2546 20.9544 97.4447 20.7695 97.5723 20.543C97.7025 20.3164 97.7676 20.0781 97.7676 19.8281V18.9844C97.7285 19.0312 97.6426 19.0742 97.5098 19.1133C97.3796 19.1497 97.2285 19.1823 97.0566 19.2109C96.8874 19.237 96.722 19.2604 96.5605 19.2812C96.4017 19.2995 96.2728 19.3151 96.1738 19.3281C95.9342 19.3594 95.7103 19.4102 95.502 19.4805C95.2962 19.5482 95.1296 19.651 95.002 19.7891C94.877 19.9245 94.8145 20.1094 94.8145 20.3437C94.8145 20.6641 94.9329 20.9062 95.1699 21.0703C95.4095 21.2318 95.7129 21.3125 96.0801 21.3125ZM100.372 22V16H101.263V16.9062H101.325C101.435 16.6094 101.632 16.3685 101.919 16.1836C102.205 15.9987 102.528 15.9062 102.888 15.9062C102.955 15.9062 103.04 15.9076 103.142 15.9102C103.243 15.9128 103.32 15.9167 103.372 15.9219V16.8594C103.341 16.8516 103.269 16.8398 103.157 16.8242C103.048 16.806 102.932 16.7969 102.81 16.7969C102.518 16.7969 102.257 16.8581 102.028 16.9805C101.802 17.1003 101.622 17.2669 101.489 17.4805C101.359 17.6914 101.294 17.9323 101.294 18.2031V22H100.372ZM105.324 19.8125L105.309 18.6719H105.496L108.121 16H109.262L106.465 18.8281H106.387L105.324 19.8125ZM104.465 22V14H105.387V22H104.465ZM108.277 22L105.934 19.0312L106.59 18.3906L109.449 22H108.277ZM112.717 22.125C112.139 22.125 111.64 21.9974 111.221 21.7422C110.804 21.4844 110.482 21.125 110.256 20.6641C110.032 20.2005 109.92 19.6615 109.92 19.0469C109.92 18.4323 110.032 17.8906 110.256 17.4219C110.482 16.9505 110.798 16.5833 111.201 16.3203C111.607 16.0547 112.081 15.9219 112.623 15.9219C112.936 15.9219 113.244 15.974 113.549 16.0781C113.854 16.1823 114.131 16.3516 114.381 16.5859C114.631 16.8177 114.83 17.125 114.979 17.5078C115.127 17.8906 115.201 18.362 115.201 18.9219V19.3125H110.576V18.5156H114.264C114.264 18.1771 114.196 17.875 114.061 17.6094C113.928 17.3437 113.738 17.1341 113.49 16.9805C113.245 16.8268 112.956 16.75 112.623 16.75C112.256 16.75 111.938 16.8411 111.67 17.0234C111.404 17.2031 111.2 17.4375 111.057 17.7266C110.913 18.0156 110.842 18.3255 110.842 18.6562V19.1875C110.842 19.6406 110.92 20.0247 111.076 20.3398C111.235 20.6523 111.455 20.8906 111.736 21.0547C112.018 21.2161 112.344 21.2969 112.717 21.2969C112.959 21.2969 113.178 21.263 113.373 21.1953C113.571 21.125 113.742 21.0208 113.885 20.8828C114.028 20.7422 114.139 20.5677 114.217 20.3594L115.107 20.6094C115.014 20.9115 114.856 21.1771 114.635 21.4062C114.413 21.6328 114.14 21.8099 113.814 21.9375C113.489 22.0625 113.123 22.125 112.717 22.125ZM116.604 22V16H117.494V16.9062H117.557C117.666 16.6094 117.864 16.3685 118.15 16.1836C118.437 15.9987 118.76 15.9062 119.119 15.9062C119.187 15.9062 119.271 15.9076 119.373 15.9102C119.475 15.9128 119.551 15.9167 119.604 15.9219V16.8594C119.572 16.8516 119.501 16.8398 119.389 16.8242C119.279 16.806 119.163 16.7969 119.041 16.7969C118.749 16.7969 118.489 16.8581 118.26 16.9805C118.033 17.1003 117.854 17.2669 117.721 17.4805C117.59 17.6914 117.525 17.9323 117.525 18.2031V22H116.604ZM120.681 22.0625C120.488 22.0625 120.323 21.9935 120.185 21.8555C120.047 21.7174 119.978 21.5521 119.978 21.3594C119.978 21.1667 120.047 21.0013 120.185 20.8633C120.323 20.7253 120.488 20.6562 120.681 20.6562C120.873 20.6562 121.039 20.7253 121.177 20.8633C121.315 21.0013 121.384 21.1667 121.384 21.3594C121.384 21.487 121.351 21.6042 121.286 21.7109C121.224 21.8177 121.139 21.9036 121.032 21.9687C120.928 22.0313 120.811 22.0625 120.681 22.0625ZM127.288 17.3437L126.46 17.5781C126.408 17.4401 126.331 17.306 126.229 17.1758C126.131 17.043 125.995 16.9336 125.823 16.8477C125.651 16.7617 125.431 16.7187 125.163 16.7187C124.796 16.7187 124.49 16.8034 124.245 16.9727C124.003 17.1393 123.882 17.3516 123.882 17.6094C123.882 17.8385 123.965 18.0195 124.132 18.1523C124.299 18.2852 124.559 18.3958 124.913 18.4844L125.804 18.7031C126.34 18.8333 126.74 19.0326 127.003 19.3008C127.266 19.5664 127.397 19.9089 127.397 20.3281C127.397 20.6719 127.299 20.9792 127.101 21.25C126.905 21.5208 126.632 21.7344 126.28 21.8906C125.929 22.0469 125.52 22.125 125.054 22.125C124.442 22.125 123.935 21.9922 123.534 21.7266C123.133 21.4609 122.879 21.0729 122.772 20.5625L123.647 20.3437C123.731 20.6667 123.888 20.9089 124.12 21.0703C124.354 21.2318 124.66 21.3125 125.038 21.3125C125.468 21.3125 125.809 21.2214 126.062 21.0391C126.317 20.8542 126.444 20.6328 126.444 20.375C126.444 20.1667 126.371 19.9922 126.226 19.8516C126.08 19.7083 125.856 19.6016 125.554 19.5312L124.554 19.2969C124.004 19.1667 123.601 18.9648 123.343 18.6914C123.088 18.4154 122.96 18.0703 122.96 17.6562C122.96 17.3177 123.055 17.0182 123.245 16.7578C123.438 16.4974 123.7 16.293 124.03 16.1445C124.364 15.9961 124.741 15.9219 125.163 15.9219C125.757 15.9219 126.223 16.0521 126.562 16.3125C126.903 16.5729 127.145 16.9167 127.288 17.3437ZM128.785 24.25V16H129.676V16.9531H129.785C129.853 16.849 129.947 16.7161 130.066 16.5547C130.189 16.3906 130.363 16.2448 130.59 16.1172C130.819 15.987 131.129 15.9219 131.52 15.9219C132.025 15.9219 132.47 16.0482 132.855 16.3008C133.241 16.5534 133.542 16.9115 133.758 17.375C133.974 17.8385 134.082 18.3854 134.082 19.0156C134.082 19.651 133.974 20.2018 133.758 20.668C133.542 21.1315 133.242 21.4909 132.859 21.7461C132.477 21.9987 132.035 22.125 131.535 22.125C131.15 22.125 130.841 22.0612 130.609 21.9336C130.378 21.8034 130.199 21.6562 130.074 21.4922C129.949 21.3255 129.853 21.1875 129.785 21.0781H129.707V24.25H128.785ZM129.691 19C129.691 19.4531 129.758 19.8529 129.891 20.1992C130.023 20.543 130.217 20.8125 130.473 21.0078C130.728 21.2005 131.04 21.2969 131.41 21.2969C131.796 21.2969 132.117 21.1953 132.375 20.9922C132.635 20.7865 132.831 20.5104 132.961 20.1641C133.094 19.8151 133.16 19.4271 133.16 19C133.16 18.5781 133.095 18.1979 132.965 17.8594C132.837 17.5182 132.643 17.2487 132.383 17.0508C132.125 16.8503 131.801 16.75 131.41 16.75C131.035 16.75 130.72 16.8451 130.465 17.0352C130.21 17.2227 130.017 17.4857 129.887 17.8242C129.757 18.1602 129.691 18.5521 129.691 19ZM135.488 22V16H136.379V16.9062H136.441C136.551 16.6094 136.749 16.3685 137.035 16.1836C137.322 15.9987 137.645 15.9062 138.004 15.9062C138.072 15.9062 138.156 15.9076 138.258 15.9102C138.359 15.9128 138.436 15.9167 138.488 15.9219V16.8594C138.457 16.8516 138.385 16.8398 138.273 16.8242C138.164 16.806 138.048 16.7969 137.926 16.7969C137.634 16.7969 137.374 16.8581 137.145 16.9805C136.918 17.1003 136.738 17.2669 136.605 17.4805C136.475 17.6914 136.41 17.9323 136.41 18.2031V22H135.488ZM139.581 22V16H140.503V22H139.581ZM140.05 15C139.87 15 139.715 14.9388 139.585 14.8164C139.457 14.694 139.394 14.5469 139.394 14.375C139.394 14.2031 139.457 14.056 139.585 13.9336C139.715 13.8112 139.87 13.75 140.05 13.75C140.229 13.75 140.383 13.8112 140.511 13.9336C140.641 14.056 140.706 14.2031 140.706 14.375C140.706 14.5469 140.641 14.694 140.511 14.8164C140.383 14.9388 140.229 15 140.05 15ZM144.801 16V16.7812H141.691V16H144.801ZM142.598 14.5625H143.52V20.2812C143.52 20.5417 143.557 20.737 143.633 20.8672C143.711 20.9948 143.81 21.0807 143.93 21.125C144.052 21.1667 144.181 21.1875 144.316 21.1875C144.418 21.1875 144.501 21.1823 144.566 21.1719C144.632 21.1589 144.684 21.1484 144.723 21.1406L144.91 21.9687C144.848 21.9922 144.76 22.0156 144.648 22.0391C144.536 22.0651 144.395 22.0781 144.223 22.0781C143.962 22.0781 143.707 22.0221 143.457 21.9102C143.21 21.7982 143.004 21.6276 142.84 21.3984C142.678 21.1693 142.598 20.8802 142.598 20.5312V14.5625ZM148.639 22.125C148.061 22.125 147.562 21.9974 147.143 21.7422C146.726 21.4844 146.404 21.125 146.178 20.6641C145.954 20.2005 145.842 19.6615 145.842 19.0469C145.842 18.4323 145.954 17.8906 146.178 17.4219C146.404 16.9505 146.719 16.5833 147.123 16.3203C147.529 16.0547 148.003 15.9219 148.545 15.9219C148.857 15.9219 149.166 15.974 149.471 16.0781C149.775 16.1823 150.053 16.3516 150.303 16.5859C150.553 16.8177 150.752 17.125 150.9 17.5078C151.049 17.8906 151.123 18.362 151.123 18.9219V19.3125H146.498V18.5156H150.186C150.186 18.1771 150.118 17.875 149.982 17.6094C149.85 17.3437 149.66 17.1341 149.412 16.9805C149.167 16.8268 148.878 16.75 148.545 16.75C148.178 16.75 147.86 16.8411 147.592 17.0234C147.326 17.2031 147.122 17.4375 146.979 17.7266C146.835 18.0156 146.764 18.3255 146.764 18.6562V19.1875C146.764 19.6406 146.842 20.0247 146.998 20.3398C147.157 20.6523 147.377 20.8906 147.658 21.0547C147.939 21.2161 148.266 21.2969 148.639 21.2969C148.881 21.2969 149.1 21.263 149.295 21.1953C149.493 21.125 149.663 21.0208 149.807 20.8828C149.95 20.7422 150.061 20.5677 150.139 20.3594L151.029 20.6094C150.936 20.9115 150.778 21.1771 150.557 21.4062C150.335 21.6328 150.062 21.8099 149.736 21.9375C149.411 22.0625 149.045 22.125 148.639 22.125ZM156.775 17.3437L155.947 17.5781C155.895 17.4401 155.818 17.306 155.717 17.1758C155.618 17.043 155.482 16.9336 155.311 16.8477C155.139 16.7617 154.919 16.7187 154.65 16.7187C154.283 16.7187 153.977 16.8034 153.732 16.9727C153.49 17.1393 153.369 17.3516 153.369 17.6094C153.369 17.8385 153.452 18.0195 153.619 18.1523C153.786 18.2852 154.046 18.3958 154.4 18.4844L155.291 18.7031C155.827 18.8333 156.227 19.0326 156.49 19.3008C156.753 19.5664 156.885 19.9089 156.885 20.3281C156.885 20.6719 156.786 20.9792 156.588 21.25C156.393 21.5208 156.119 21.7344 155.768 21.8906C155.416 22.0469 155.007 22.125 154.541 22.125C153.929 22.125 153.423 21.9922 153.021 21.7266C152.62 21.4609 152.367 21.0729 152.26 20.5625L153.135 20.3437C153.218 20.6667 153.376 20.9089 153.607 21.0703C153.842 21.2318 154.148 21.3125 154.525 21.3125C154.955 21.3125 155.296 21.2214 155.549 21.0391C155.804 20.8542 155.932 20.6328 155.932 20.375C155.932 20.1667 155.859 19.9922 155.713 19.8516C155.567 19.7083 155.343 19.6016 155.041 19.5312L154.041 19.2969C153.492 19.1667 153.088 18.9648 152.83 18.6914C152.575 18.4154 152.447 18.0703 152.447 17.6562C152.447 17.3177 152.542 17.0182 152.732 16.7578C152.925 16.4974 153.187 16.293 153.518 16.1445C153.851 15.9961 154.229 15.9219 154.65 15.9219C155.244 15.9219 155.71 16.0521 156.049 16.3125C156.39 16.5729 156.632 16.9167 156.775 17.3437ZM159.194 18.3906V22H158.272V14H159.194V16.9375H159.272C159.413 16.6276 159.624 16.3815 159.905 16.1992C160.189 16.0143 160.567 15.9219 161.038 15.9219C161.447 15.9219 161.805 16.0039 162.112 16.168C162.42 16.3294 162.658 16.5781 162.827 16.9141C162.999 17.2474 163.085 17.6719 163.085 18.1875V22H162.163V18.25C162.163 17.7734 162.039 17.4049 161.792 17.1445C161.547 16.8815 161.207 16.75 160.772 16.75C160.47 16.75 160.2 16.8138 159.96 16.9414C159.723 17.069 159.535 17.2552 159.397 17.5C159.262 17.7448 159.194 18.0417 159.194 18.3906ZM167.287 22.125C166.709 22.125 166.21 21.9974 165.791 21.7422C165.374 21.4844 165.053 21.125 164.826 20.6641C164.602 20.2005 164.49 19.6615 164.49 19.0469C164.49 18.4323 164.602 17.8906 164.826 17.4219C165.053 16.9505 165.368 16.5833 165.771 16.3203C166.178 16.0547 166.652 15.9219 167.193 15.9219C167.506 15.9219 167.814 15.974 168.119 16.0781C168.424 16.1823 168.701 16.3516 168.951 16.5859C169.201 16.8177 169.4 17.125 169.549 17.5078C169.697 17.8906 169.771 18.362 169.771 18.9219V19.3125H165.146V18.5156H168.834C168.834 18.1771 168.766 17.875 168.631 17.6094C168.498 17.3437 168.308 17.1341 168.061 16.9805C167.816 16.8268 167.527 16.75 167.193 16.75C166.826 16.75 166.508 16.8411 166.24 17.0234C165.975 17.2031 165.77 17.4375 165.627 17.7266C165.484 18.0156 165.412 18.3255 165.412 18.6562V19.1875C165.412 19.6406 165.49 20.0247 165.646 20.3398C165.805 20.6523 166.025 20.8906 166.307 21.0547C166.588 21.2161 166.915 21.2969 167.287 21.2969C167.529 21.2969 167.748 21.263 167.943 21.1953C168.141 21.125 168.312 21.0208 168.455 20.8828C168.598 20.7422 168.709 20.5677 168.787 20.3594L169.678 20.6094C169.584 20.9115 169.426 21.1771 169.205 21.4062C168.984 21.6328 168.71 21.8099 168.385 21.9375C168.059 22.0625 167.693 22.125 167.287 22.125ZM173.689 22.125C173.111 22.125 172.613 21.9974 172.193 21.7422C171.777 21.4844 171.455 21.125 171.229 20.6641C171.005 20.2005 170.893 19.6615 170.893 19.0469C170.893 18.4323 171.005 17.8906 171.229 17.4219C171.455 16.9505 171.77 16.5833 172.174 16.3203C172.58 16.0547 173.054 15.9219 173.596 15.9219C173.908 15.9219 174.217 15.974 174.521 16.0781C174.826 16.1823 175.104 16.3516 175.354 16.5859C175.604 16.8177 175.803 17.125 175.951 17.5078C176.1 17.8906 176.174 18.362 176.174 18.9219V19.3125H171.549V18.5156H175.236C175.236 18.1771 175.169 17.875 175.033 17.6094C174.9 17.3437 174.71 17.1341 174.463 16.9805C174.218 16.8268 173.929 16.75 173.596 16.75C173.229 16.75 172.911 16.8411 172.643 17.0234C172.377 17.2031 172.173 17.4375 172.029 17.7266C171.886 18.0156 171.814 18.3255 171.814 18.6562V19.1875C171.814 19.6406 171.893 20.0247 172.049 20.3398C172.208 20.6523 172.428 20.8906 172.709 21.0547C172.99 21.2161 173.317 21.2969 173.689 21.2969C173.932 21.2969 174.15 21.263 174.346 21.1953C174.544 21.125 174.714 21.0208 174.857 20.8828C175.001 20.7422 175.111 20.5677 175.189 20.3594L176.08 20.6094C175.986 20.9115 175.829 21.1771 175.607 21.4062C175.386 21.6328 175.113 21.8099 174.787 21.9375C174.462 22.0625 174.096 22.125 173.689 22.125ZM180.186 16V16.7812H177.076V16H180.186ZM177.982 14.5625H178.904V20.2812C178.904 20.5417 178.942 20.737 179.018 20.8672C179.096 20.9948 179.195 21.0807 179.314 21.125C179.437 21.1667 179.566 21.1875 179.701 21.1875C179.803 21.1875 179.886 21.1823 179.951 21.1719C180.016 21.1589 180.068 21.1484 180.107 21.1406L180.295 21.9687C180.232 21.9922 180.145 22.0156 180.033 22.0391C179.921 22.0651 179.779 22.0781 179.607 22.0781C179.347 22.0781 179.092 22.0221 178.842 21.9102C178.594 21.7982 178.389 21.6276 178.225 21.3984C178.063 21.1693 177.982 20.8802 177.982 20.5312V14.5625Z" fill="white"/>
<defs>
<clipPath id="clip0_0_1">
<rect width="120" height="120" fill="white" transform="translate(104 104)"/>
</clipPath>
</defs>
</svg>
