<svg width="120" height="120" viewBox="0 0 120 120" fill="none" xmlns="http://www.w3.org/2000/svg">
<path d="M38 38.7782C43.7462 36.832 49.8413 36.2006 55.9365 36.0446C58.2899 35.9851 60.7027 35.9851 63.0635 36.0446C69.1587 36.2006 75.2538 36.832 81 38.7782L79.6934 40.6799C74.8306 38.9713 69.0919 38.1319 63.0041 37.9462C60.7027 37.8794 58.3047 37.8794 55.9959 37.9462C49.9081 38.1319 44.1694 38.9713 39.3066 40.6799L38 38.7782Z" fill="white"/>
<path d="M40.3163 42.2844C44.0729 40.7616 49.6632 40.2565 53.739 40.145C55.0975 40.1079 56.2854 40.1079 57.1837 40.145L59.5 43.1164L61.8163 40.145C65.4095 40.0113 73.6725 40.2565 78.6837 42.2844C77.9933 43.5992 74.994 45.4935 73.3384 45.9094C73.2419 43.3244 69.5967 42.7598 66.0925 42.7598L59.5 78L52.9075 42.7598C49.4033 42.7598 45.7581 43.3244 45.6616 45.9094C44.0135 45.4935 41.0067 43.5992 40.3163 42.2844Z" fill="white"/>
<path d="M65.0281 82.4605L65.0367 82.4639L65.0453 82.4671C66.7509 83.1132 68.5758 83.432 70.5115 83.432C72.7837 83.432 74.8061 83.0409 76.5499 82.2224C78.3044 81.4101 79.6928 80.2632 80.671 78.7694C81.6758 77.248 82.1675 75.5053 82.1675 73.576C82.1675 71.9116 81.8423 70.4213 81.1483 69.1424C80.4673 67.8639 79.5253 66.859 78.3221 66.1595C77.9302 65.9316 77.5229 65.7419 77.1013 65.5899L81.2683 60.8828L81.5195 60.599V60.22V56.368V55.368H80.5195H63.3475H62.3475V56.368V62.272V63.272H63.3475H68.9193L66.4371 66.1969L66.1995 66.4768V66.844V70.696V72.196L67.5841 71.6191C67.7354 71.556 68.027 71.4842 68.514 71.4399L68.5335 71.4381L68.5528 71.4356C69.0686 71.3683 69.5409 71.336 69.9715 71.336C70.7469 71.336 71.3631 71.4442 71.8445 71.6293C72.323 71.8134 72.6347 72.0567 72.8384 72.3332C73.0301 72.5932 73.1475 72.9294 73.1475 73.396C73.1475 73.8625 73.0301 74.1987 72.8384 74.4588L72.8281 74.4729L72.8182 74.4873C72.6291 74.7637 72.3482 74.9973 71.9269 75.1729L71.9198 75.1759L71.9128 75.1789C71.5088 75.3546 71.0127 75.456 70.4035 75.456C69.6587 75.456 68.9321 75.3066 68.2164 75.0015C67.4948 74.67 67.0335 74.2904 66.7555 73.898L66.076 72.9387L65.2381 73.7632L60.7381 78.1912L60.035 78.8831L60.7172 79.5956C61.9032 80.8343 63.3458 81.7875 65.0281 82.4605Z" fill="white" stroke="black" stroke-width="2"/>
</svg>
