<svg width="120" height="120" viewBox="0 0 120 120" fill="none" xmlns="http://www.w3.org/2000/svg">
<path d="M60 34C47.317 34 37 44.318 37 57C37 69.682 47.317 80 60 80C72.683 80 83 69.682 83 57C83 44.318 72.683 34 60 34ZM65.873 38.94L60 52L54.127 38.94C55.978 38.336 57.95 38 60 38C62.05 38 64.022 38.336 65.873 38.94ZM50.241 40.728L57.398 56H62.601L69.758 40.728C71.888 42.011 73.743 43.694 75.224 45.681L66.353 65L62.66 58H57.34L53.647 65L44.775 45.681C46.256 43.695 48.111 42.011 50.241 40.728ZM41 57C41 54.652 41.448 52.413 42.23 50.335L53.144 74.7C53.151 74.703 53.158 74.705 53.165 74.708C46.06 71.955 41 65.065 41 57ZM53.185 74.715L60 62L66.815 74.715C64.696 75.533 62.404 76 60 76C57.596 76 55.304 75.533 53.185 74.715ZM66.834 74.708C66.841 74.705 66.848 74.703 66.855 74.7L77.77 50.335C78.552 52.413 79 54.652 79 57C79 65.065 73.94 71.955 66.834 74.708Z" fill="white"/>
<path d="M69.8396 84V76H73.5196C75.309 76 76.9507 75.6491 78.4243 74.9257L78.4243 74.9257L78.4308 74.9224C79.9349 74.1704 81.1317 73.0861 81.9996 71.678C82.907 70.2456 83.3396 68.5666 83.3396 66.684C83.3396 64.7828 82.9093 63.1003 81.9973 61.6863C81.1295 60.2801 79.9326 59.2077 78.4277 58.48C76.9537 57.7316 75.3106 57.368 73.5196 57.368H69.8396H68.8396H67.4716H66.4716H61.6396H60.6396V58.368V84V85H61.6396H68.8396H69.8396V84ZM69.8396 68.816V64.552H72.1156C72.5172 64.552 72.8596 64.6379 73.1619 64.7969L73.1891 64.8113L73.2173 64.8239C73.4991 64.9507 73.7321 65.1538 73.9221 65.4705L73.928 65.4803L73.9341 65.49C74.0957 65.7459 74.2116 66.1229 74.2116 66.684C74.2116 67.2365 74.0992 67.6339 73.9278 67.9239C73.7395 68.2185 73.4979 68.4369 73.1899 68.5928C72.8821 68.7368 72.5293 68.816 72.1156 68.816H69.8396Z" fill="white" stroke="black" stroke-width="2"/>
</svg>
