<?xml version="1.0" encoding="UTF-8" standalone="yes"?>
<svg width="119" height="119" viewBox="0 0 119 119" fill="none" xmlns="http://www.w3.org/2000/svg">
  <g id="Audi A3" transform="translate(-896.5 -584.5)">
    <g id="Frame 9">
      <g id="Vector_15">
        <mask id="path-44-outside-25_0_1" maskUnits="userSpaceOnUse" x="928" y="623" width="56" height="23" fill="black">
          <rect fill="white" x="928" y="623" width="56" height="23"/>
          <path d="M939.5 626C934.817 626 931 629.817 931 634.5C931 639.183 934.817 643 939.5 643C941.596 643 943.516 642.231 945 640.967C946.484 642.231 948.404 643 950.5 643C952.596 643 954.516 642.231 956 640.967C957.484 642.231 959.404 643 961.5 643C963.596 643 965.516 642.231 967 640.967C968.484 642.231 970.404 643 972.5 643C977.183 643 981 639.183 981 634.5C981 629.817 977.183 626 972.5 626C970.404 626 968.484 626.769 967 628.033C965.516 626.769 963.596 626 961.5 626C959.404 626 957.484 626.769 956 628.033C954.516 626.769 952.596 626 950.5 626C948.404 626 946.484 626.769 945 628.033C943.516 626.769 941.596 626 939.5 626ZM939.5 628C941.081 628 942.526 628.559 943.65 629.49C942.618 630.897 942 632.627 942 634.5C942 636.373 942.618 638.103 943.65 639.51C942.526 640.441 941.081 641 939.5 641C935.898 641 933 638.102 933 634.5C933 630.898 935.898 628 939.5 628ZM950.5 628C952.081 628 953.526 628.559 954.65 629.49C953.618 630.897 953 632.627 953 634.5C953 636.373 953.618 638.103 954.65 639.51C953.526 640.441 952.081 641 950.5 641C948.919 641 947.474 640.441 946.35 639.51C947.382 638.103 948 636.373 948 634.5C948 632.627 947.382 630.897 946.35 629.49C947.474 628.559 948.919 628 950.5 628ZM961.5 628C963.081 628 964.526 628.559 965.65 629.49C964.618 630.897 964 632.627 964 634.5C964 636.373 964.618 638.103 965.65 639.51C964.526 640.441 963.081 641 961.5 641C959.919 641 958.474 640.441 957.35 639.51C958.382 638.103 959 636.373 959 634.5C959 632.627 958.382 630.897 957.35 629.49C958.474 628.559 959.919 628 961.5 628ZM972.5 628C976.102 628 979 630.898 979 634.5C979 638.102 976.102 641 972.5 641C970.919 641 969.474 640.441 968.35 639.51C969.382 638.103 970 636.373 970 634.5C970 632.627 969.382 630.897 968.35 629.49C969.474 628.559 970.919 628 972.5 628ZM945 631.037C945.631 632.039 946 633.223 946 634.5C946 635.777 945.631 636.961 945 637.963C944.369 636.961 944 635.777 944 634.5C944 633.223 944.369 632.039 945 631.037ZM956 631.037C956.631 632.039 957 633.223 957 634.5C957 635.777 956.631 636.961 956 637.963C955.369 636.961 955 635.777 955 634.5C955 633.223 955.369 632.039 956 631.037ZM967 631.037C967.631 632.039 968 633.223 968 634.5C968 635.777 967.631 636.961 967 637.963C966.369 636.961 966 635.777 966 634.5C966 633.223 966.369 632.039 967 631.037Z"/>
        </mask>
        <path d="M939.5 626C934.817 626 931 629.817 931 634.5C931 639.183 934.817 643 939.5 643C941.596 643 943.516 642.231 945 640.967C946.484 642.231 948.404 643 950.5 643C952.596 643 954.516 642.231 956 640.967C957.484 642.231 959.404 643 961.5 643C963.596 643 965.516 642.231 967 640.967C968.484 642.231 970.404 643 972.5 643C977.183 643 981 639.183 981 634.5C981 629.817 977.183 626 972.5 626C970.404 626 968.484 626.769 967 628.033C965.516 626.769 963.596 626 961.5 626C959.404 626 957.484 626.769 956 628.033C954.516 626.769 952.596 626 950.5 626C948.404 626 946.484 626.769 945 628.033C943.516 626.769 941.596 626 939.5 626ZM939.5 628C941.081 628 942.526 628.559 943.65 629.49C942.618 630.897 942 632.627 942 634.5C942 636.373 942.618 638.103 943.65 639.51C942.526 640.441 941.081 641 939.5 641C935.898 641 933 638.102 933 634.5C933 630.898 935.898 628 939.5 628ZM950.5 628C952.081 628 953.526 628.559 954.65 629.49C953.618 630.897 953 632.627 953 634.5C953 636.373 953.618 638.103 954.65 639.51C953.526 640.441 952.081 641 950.5 641C948.919 641 947.474 640.441 946.35 639.51C947.382 638.103 948 636.373 948 634.5C948 632.627 947.382 630.897 946.35 629.49C947.474 628.559 948.919 628 950.5 628ZM961.5 628C963.081 628 964.526 628.559 965.65 629.49C964.618 630.897 964 632.627 964 634.5C964 636.373 964.618 638.103 965.65 639.51C964.526 640.441 963.081 641 961.5 641C959.919 641 958.474 640.441 957.35 639.51C958.382 638.103 959 636.373 959 634.5C959 632.627 958.382 630.897 957.35 629.49C958.474 628.559 959.919 628 961.5 628ZM972.5 628C976.102 628 979 630.898 979 634.5C979 638.102 976.102 641 972.5 641C970.919 641 969.474 640.441 968.35 639.51C969.382 638.103 970 636.373 970 634.5C970 632.627 969.382 630.897 968.35 629.49C969.474 628.559 970.919 628 972.5 628ZM945 631.037C945.631 632.039 946 633.223 946 634.5C946 635.777 945.631 636.961 945 637.963C944.369 636.961 944 635.777 944 634.5C944 633.223 944.369 632.039 945 631.037ZM956 631.037C956.631 632.039 957 633.223 957 634.5C957 635.777 956.631 636.961 956 637.963C955.369 636.961 955 635.777 955 634.5C955 633.223 955.369 632.039 956 631.037ZM967 631.037C967.631 632.039 968 633.223 968 634.5C968 635.777 967.631 636.961 967 637.963C966.369 636.961 966 635.777 966 634.5C966 633.223 966.369 632.039 967 631.037Z" fill="white"/>
        <path d="M939.5 626C934.817 626 931 629.817 931 634.5C931 639.183 934.817 643 939.5 643C941.596 643 943.516 642.231 945 640.967C946.484 642.231 948.404 643 950.5 643C952.596 643 954.516 642.231 956 640.967C957.484 642.231 959.404 643 961.5 643C963.596 643 965.516 642.231 967 640.967C968.484 642.231 970.404 643 972.5 643C977.183 643 981 639.183 981 634.5C981 629.817 977.183 626 972.5 626C970.404 626 968.484 626.769 967 628.033C965.516 626.769 963.596 626 961.5 626C959.404 626 957.484 626.769 956 628.033C954.516 626.769 952.596 626 950.5 626C948.404 626 946.484 626.769 945 628.033C943.516 626.769 941.596 626 939.5 626ZM939.5 628C941.081 628 942.526 628.559 943.65 629.49C942.618 630.897 942 632.627 942 634.5C942 636.373 942.618 638.103 943.65 639.51C942.526 640.441 941.081 641 939.5 641C935.898 641 933 638.102 933 634.5C933 630.898 935.898 628 939.5 628ZM950.5 628C952.081 628 953.526 628.559 954.65 629.49C953.618 630.897 953 632.627 953 634.5C953 636.373 953.618 638.103 954.65 639.51C953.526 640.441 952.081 641 950.5 641C948.919 641 947.474 640.441 946.35 639.51C947.382 638.103 948 636.373 948 634.5C948 632.627 947.382 630.897 946.35 629.49C947.474 628.559 948.919 628 950.5 628ZM961.5 628C963.081 628 964.526 628.559 965.65 629.49C964.618 630.897 964 632.627 964 634.5C964 636.373 964.618 638.103 965.65 639.51C964.526 640.441 963.081 641 961.5 641C959.919 641 958.474 640.441 957.35 639.51C958.382 638.103 959 636.373 959 634.5C959 632.627 958.382 630.897 957.35 629.49C958.474 628.559 959.919 628 961.5 628ZM972.5 628C976.102 628 979 630.898 979 634.5C979 638.102 976.102 641 972.5 641C970.919 641 969.474 640.441 968.35 639.51C969.382 638.103 970 636.373 970 634.5C970 632.627 969.382 630.897 968.35 629.49C969.474 628.559 970.919 628 972.5 628ZM945 631.037C945.631 632.039 946 633.223 946 634.5C946 635.777 945.631 636.961 945 637.963C944.369 636.961 944 635.777 944 634.5C944 633.223 944.369 632.039 945 631.037ZM956 631.037C956.631 632.039 957 633.223 957 634.5C957 635.777 956.631 636.961 956 637.963C955.369 636.961 955 635.777 955 634.5C955 633.223 955.369 632.039 956 631.037ZM967 631.037C967.631 632.039 968 633.223 968 634.5C968 635.777 967.631 636.961 967 637.963C966.369 636.961 966 635.777 966 634.5C966 633.223 966.369 632.039 967 631.037Z" stroke="black" stroke-width="6" mask="url(#path-44-outside-25_0_1)"/>
      </g>
      <g id="3_3">
        <mask id="path-45-outside-26_0_1" maskUnits="userSpaceOnUse" x="955.439" y="632.368" width="28" height="33" fill="black">
          <rect fill="white" x="955.439" y="632.368" width="28" height="33"/>
          <path d="M969.511 661.432C967.687 661.432 965.983 661.132 964.399 660.532C962.839 659.908 961.519 659.032 960.439 657.904L964.939 653.476C965.347 654.052 965.971 654.532 966.811 654.916C967.651 655.276 968.515 655.456 969.403 655.456C970.123 655.456 970.759 655.336 971.311 655.096C971.887 654.856 972.331 654.508 972.643 654.052C972.979 653.596 973.147 653.044 973.147 652.396C973.147 651.748 972.979 651.196 972.643 650.74C972.307 650.284 971.827 649.936 971.203 649.696C970.579 649.456 969.835 649.336 968.971 649.336C968.491 649.336 967.975 649.372 967.423 649.444C966.895 649.492 966.487 649.576 966.199 649.696L969.331 645.808C970.171 645.616 970.915 645.46 971.563 645.34C972.235 645.196 972.823 645.124 973.327 645.124C974.623 645.124 975.787 645.424 976.819 646.024C977.851 646.624 978.667 647.488 979.267 648.616C979.867 649.72 980.167 651.04 980.167 652.576C980.167 654.328 979.723 655.876 978.835 657.22C977.971 658.54 976.735 659.572 975.127 660.316C973.543 661.06 971.671 661.432 969.511 661.432ZM966.199 649.696V645.844L971.851 639.184L979.519 639.22L973.687 645.808L966.199 649.696ZM962.347 641.272V635.368H979.519V639.22L974.227 641.272H962.347Z"/>
        </mask>
        <path d="M969.511 661.432C967.687 661.432 965.983 661.132 964.399 660.532C962.839 659.908 961.519 659.032 960.439 657.904L964.939 653.476C965.347 654.052 965.971 654.532 966.811 654.916C967.651 655.276 968.515 655.456 969.403 655.456C970.123 655.456 970.759 655.336 971.311 655.096C971.887 654.856 972.331 654.508 972.643 654.052C972.979 653.596 973.147 653.044 973.147 652.396C973.147 651.748 972.979 651.196 972.643 650.74C972.307 650.284 971.827 649.936 971.203 649.696C970.579 649.456 969.835 649.336 968.971 649.336C968.491 649.336 967.975 649.372 967.423 649.444C966.895 649.492 966.487 649.576 966.199 649.696L969.331 645.808C970.171 645.616 970.915 645.46 971.563 645.34C972.235 645.196 972.823 645.124 973.327 645.124C974.623 645.124 975.787 645.424 976.819 646.024C977.851 646.624 978.667 647.488 979.267 648.616C979.867 649.72 980.167 651.04 980.167 652.576C980.167 654.328 979.723 655.876 978.835 657.22C977.971 658.54 976.735 659.572 975.127 660.316C973.543 661.06 971.671 661.432 969.511 661.432ZM966.199 649.696V645.844L971.851 639.184L979.519 639.22L973.687 645.808L966.199 649.696ZM962.347 641.272V635.368H979.519V639.22L974.227 641.272H962.347Z" fill="white"/>
        <path d="M964.399 660.532L963.285 663.317L963.311 663.328L963.337 663.337L964.399 660.532ZM960.439 657.904L958.335 655.766L956.226 657.841L958.273 659.979L960.439 657.904ZM964.939 653.476L967.388 651.742L965.349 648.864L962.835 651.338L964.939 653.476ZM966.811 654.916L965.564 657.644L965.597 657.659L965.63 657.673L966.811 654.916ZM971.311 655.096L970.158 652.327L970.136 652.336L970.115 652.345L971.311 655.096ZM972.643 654.052L970.228 652.272L970.197 652.315L970.168 652.358L972.643 654.052ZM972.643 650.74L975.059 648.96L975.059 648.96L972.643 650.74ZM971.203 649.696L972.28 646.896H972.28L971.203 649.696ZM967.423 649.444L967.695 652.432L967.753 652.426L967.811 652.419L967.423 649.444ZM966.199 649.696H963.199V654.196L967.353 652.465L966.199 649.696ZM969.331 645.808L968.663 642.883L967.648 643.115L966.995 643.926L969.331 645.808ZM971.563 645.34L972.11 648.29L972.151 648.282L972.192 648.273L971.563 645.34ZM976.819 646.024L975.312 648.618L975.312 648.618L976.819 646.024ZM979.267 648.616L976.619 650.025L976.625 650.037L976.632 650.049L979.267 648.616ZM978.835 657.22L976.332 655.566L976.325 655.577L978.835 657.22ZM975.127 660.316L973.868 657.593L973.86 657.597L973.852 657.601L975.127 660.316ZM966.199 645.844L963.912 643.903L963.199 644.743V645.844H966.199ZM971.851 639.184L971.866 636.184L970.468 636.177L969.564 637.243L971.851 639.184ZM979.519 639.22L981.766 641.208L982.519 640.357V639.22H979.519ZM973.687 645.808L975.07 648.47L975.564 648.214L975.934 647.796L973.687 645.808ZM962.347 641.272H959.347V644.272H962.347V641.272ZM962.347 635.368V632.368H959.347V635.368H962.347ZM979.519 635.368H982.519V632.368H979.519V635.368ZM974.227 641.272V644.272H974.789L975.312 644.069L974.227 641.272ZM969.511 658.432C968.022 658.432 966.681 658.188 965.462 657.727L963.337 663.337C965.286 664.076 967.352 664.432 969.511 664.432V658.432ZM965.514 657.747C964.321 657.269 963.368 656.625 962.606 655.829L958.273 659.979C959.671 661.439 961.358 662.547 963.285 663.317L965.514 657.747ZM962.544 660.042L967.044 655.614L962.835 651.338L958.335 655.766L962.544 660.042ZM962.491 655.21C963.285 656.331 964.388 657.107 965.564 657.644L968.059 652.188C967.555 651.957 967.41 651.773 967.388 651.742L962.491 655.21ZM965.63 657.673C966.832 658.189 968.097 658.456 969.403 658.456V652.456C968.934 652.456 968.471 652.363 967.993 652.159L965.63 657.673ZM969.403 658.456C970.456 658.456 971.512 658.28 972.508 657.847L970.115 652.345C970.007 652.392 969.791 652.456 969.403 652.456V658.456ZM972.465 657.865C973.505 657.432 974.439 656.741 975.119 655.746L970.168 652.358C970.177 652.344 970.188 652.331 970.199 652.319C970.211 652.306 970.22 652.298 970.226 652.294C970.231 652.29 970.23 652.291 970.22 652.297C970.21 652.302 970.19 652.313 970.158 652.327L972.465 657.865ZM975.059 655.832C975.828 654.788 976.147 653.588 976.147 652.396H970.147C970.147 652.46 970.139 652.462 970.151 652.422C970.157 652.403 970.167 652.378 970.181 652.35C970.195 652.322 970.211 652.296 970.228 652.272L975.059 655.832ZM976.147 652.396C976.147 651.204 975.828 650.004 975.059 648.96L970.228 652.52C970.211 652.496 970.195 652.47 970.181 652.442C970.167 652.414 970.157 652.389 970.151 652.369C970.139 652.33 970.147 652.332 970.147 652.396H976.147ZM975.059 648.96C974.326 647.966 973.341 647.304 972.28 646.896L970.127 652.496C970.226 652.534 970.266 652.563 970.271 652.566C970.273 652.567 970.268 652.564 970.259 652.555C970.25 652.546 970.239 652.534 970.228 652.52L975.059 648.96ZM972.28 646.896C971.229 646.491 970.101 646.336 968.971 646.336V652.336C969.57 652.336 969.93 652.421 970.127 652.496L972.28 646.896ZM968.971 646.336C968.343 646.336 967.696 646.383 967.035 646.469L967.811 652.419C968.255 652.361 968.64 652.336 968.971 652.336V646.336ZM967.152 646.456C966.501 646.515 965.744 646.636 965.046 646.927L967.353 652.465C967.273 652.499 967.252 652.497 967.326 652.481C967.395 652.467 967.514 652.448 967.695 652.432L967.152 646.456ZM968.536 651.578L971.668 647.69L966.995 643.926L963.863 647.814L968.536 651.578ZM970 648.733C970.811 648.547 971.513 648.4 972.11 648.29L971.017 642.39C970.318 642.52 969.532 642.685 968.663 642.883L970 648.733ZM972.192 648.273C972.726 648.159 973.095 648.124 973.327 648.124V642.124C972.552 642.124 971.744 642.233 970.935 642.407L972.192 648.273ZM973.327 648.124C974.141 648.124 974.776 648.306 975.312 648.618L978.327 643.43C976.799 642.542 975.106 642.124 973.327 642.124V648.124ZM975.312 648.618C975.826 648.917 976.262 649.354 976.619 650.025L981.916 647.207C981.073 645.622 979.877 644.331 978.327 643.43L975.312 648.618ZM976.632 650.049C976.945 650.625 977.167 651.43 977.167 652.576H983.167C983.167 650.65 982.79 648.815 981.903 647.183L976.632 650.049ZM977.167 652.576C977.167 653.794 976.868 654.756 976.332 655.566L981.338 658.874C982.579 656.996 983.167 654.862 983.167 652.576H977.167ZM976.325 655.577C975.806 656.371 975.031 657.055 973.868 657.593L976.387 663.039C978.44 662.089 980.137 660.709 981.346 658.863L976.325 655.577ZM973.852 657.601C972.749 658.119 971.331 658.432 969.511 658.432V664.432C972.011 664.432 974.338 664.001 976.403 663.031L973.852 657.601ZM969.199 649.696V645.844H963.199V649.696H969.199ZM968.487 647.785L974.139 641.125L969.564 637.243L963.912 643.903L968.487 647.785ZM971.837 642.184L979.505 642.22L979.534 636.22L971.866 636.184L971.837 642.184ZM977.273 637.231L971.441 643.819L975.934 647.796L981.766 641.208L977.273 637.231ZM972.305 643.145L964.817 647.033L967.582 652.358L975.07 648.47L972.305 643.145ZM965.347 641.272V635.368H959.347V641.272H965.347ZM962.347 638.368H979.519V632.368H962.347V638.368ZM976.519 635.368V639.22H982.519V635.368H976.519ZM978.435 636.423L973.143 638.475L975.312 644.069L980.604 642.017L978.435 636.423ZM974.227 638.272H962.347V644.272H974.227V638.272Z" fill="black" mask="url(#path-45-outside-26_0_1)"/>
      </g>
    </g>
  </g>
</svg>