<?xml version="1.0" encoding="UTF-8" standalone="yes"?>
<svg width="119" height="119" viewBox="0 0 119 119" fill="none" xmlns="http://www.w3.org/2000/svg">
  <g id="Audi Q2 S line" transform="translate(-896.5 -704.5)">
    <g id="Frame 10_3">
      <g id="Vector_18">
        <mask id="path-55-outside-31_0_1" maskUnits="userSpaceOnUse" x="928" y="743" width="56" height="23" fill="black">
          <rect fill="white" x="928" y="743" width="56" height="23"/>
          <path d="M939.5 746C934.817 746 931 749.817 931 754.5C931 759.183 934.817 763 939.5 763C941.596 763 943.516 762.231 945 760.967C946.484 762.231 948.404 763 950.5 763C952.596 763 954.516 762.231 956 760.967C957.484 762.231 959.404 763 961.5 763C963.596 763 965.516 762.231 967 760.967C968.484 762.231 970.404 763 972.5 763C977.183 763 981 759.183 981 754.5C981 749.817 977.183 746 972.5 746C970.404 746 968.484 746.769 967 748.033C965.516 746.769 963.596 746 961.5 746C959.404 746 957.484 746.769 956 748.033C954.516 746.769 952.596 746 950.5 746C948.404 746 946.484 746.769 945 748.033C943.516 746.769 941.596 746 939.5 746ZM939.5 748C941.081 748 942.526 748.559 943.65 749.49C942.618 750.897 942 752.627 942 754.5C942 756.373 942.618 758.103 943.65 759.51C942.526 760.441 941.081 761 939.5 761C935.898 761 933 758.102 933 754.5C933 750.898 935.898 748 939.5 748ZM950.5 748C952.081 748 953.526 748.559 954.65 749.49C953.618 750.897 953 752.627 953 754.5C953 756.373 953.618 758.103 954.65 759.51C953.526 760.441 952.081 761 950.5 761C948.919 761 947.474 760.441 946.35 759.51C947.382 758.103 948 756.373 948 754.5C948 752.627 947.382 750.897 946.35 749.49C947.474 748.559 948.919 748 950.5 748ZM961.5 748C963.081 748 964.526 748.559 965.65 749.49C964.618 750.897 964 752.627 964 754.5C964 756.373 964.618 758.103 965.65 759.51C964.526 760.441 963.081 761 961.5 761C959.919 761 958.474 760.441 957.35 759.51C958.382 758.103 959 756.373 959 754.5C959 752.627 958.382 750.897 957.35 749.49C958.474 748.559 959.919 748 961.5 748ZM972.5 748C976.102 748 979 750.898 979 754.5C979 758.102 976.102 761 972.5 761C970.919 761 969.474 760.441 968.35 759.51C969.382 758.103 970 756.373 970 754.5C970 752.627 969.382 750.897 968.35 749.49C969.474 748.559 970.919 748 972.5 748ZM945 751.037C945.631 752.039 946 753.223 946 754.5C946 755.777 945.631 756.961 945 757.963C944.369 756.961 944 755.777 944 754.5C944 753.223 944.369 752.039 945 751.037ZM956 751.037C956.631 752.039 957 753.223 957 754.5C957 755.777 956.631 756.961 956 757.963C955.369 756.961 955 755.777 955 754.5C955 753.223 955.369 752.039 956 751.037ZM967 751.037C967.631 752.039 968 753.223 968 754.5C968 755.777 967.631 756.961 967 757.963C966.369 756.961 966 755.777 966 754.5C966 753.223 966.369 752.039 967 751.037Z"/>
        </mask>
        <path d="M939.5 746C934.817 746 931 749.817 931 754.5C931 759.183 934.817 763 939.5 763C941.596 763 943.516 762.231 945 760.967C946.484 762.231 948.404 763 950.5 763C952.596 763 954.516 762.231 956 760.967C957.484 762.231 959.404 763 961.5 763C963.596 763 965.516 762.231 967 760.967C968.484 762.231 970.404 763 972.5 763C977.183 763 981 759.183 981 754.5C981 749.817 977.183 746 972.5 746C970.404 746 968.484 746.769 967 748.033C965.516 746.769 963.596 746 961.5 746C959.404 746 957.484 746.769 956 748.033C954.516 746.769 952.596 746 950.5 746C948.404 746 946.484 746.769 945 748.033C943.516 746.769 941.596 746 939.5 746ZM939.5 748C941.081 748 942.526 748.559 943.65 749.49C942.618 750.897 942 752.627 942 754.5C942 756.373 942.618 758.103 943.65 759.51C942.526 760.441 941.081 761 939.5 761C935.898 761 933 758.102 933 754.5C933 750.898 935.898 748 939.5 748ZM950.5 748C952.081 748 953.526 748.559 954.65 749.49C953.618 750.897 953 752.627 953 754.5C953 756.373 953.618 758.103 954.65 759.51C953.526 760.441 952.081 761 950.5 761C948.919 761 947.474 760.441 946.35 759.51C947.382 758.103 948 756.373 948 754.5C948 752.627 947.382 750.897 946.35 749.49C947.474 748.559 948.919 748 950.5 748ZM961.5 748C963.081 748 964.526 748.559 965.65 749.49C964.618 750.897 964 752.627 964 754.5C964 756.373 964.618 758.103 965.65 759.51C964.526 760.441 963.081 761 961.5 761C959.919 761 958.474 760.441 957.35 759.51C958.382 758.103 959 756.373 959 754.5C959 752.627 958.382 750.897 957.35 749.49C958.474 748.559 959.919 748 961.5 748ZM972.5 748C976.102 748 979 750.898 979 754.5C979 758.102 976.102 761 972.5 761C970.919 761 969.474 760.441 968.35 759.51C969.382 758.103 970 756.373 970 754.5C970 752.627 969.382 750.897 968.35 749.49C969.474 748.559 970.919 748 972.5 748ZM945 751.037C945.631 752.039 946 753.223 946 754.5C946 755.777 945.631 756.961 945 757.963C944.369 756.961 944 755.777 944 754.5C944 753.223 944.369 752.039 945 751.037ZM956 751.037C956.631 752.039 957 753.223 957 754.5C957 755.777 956.631 756.961 956 757.963C955.369 756.961 955 755.777 955 754.5C955 753.223 955.369 752.039 956 751.037ZM967 751.037C967.631 752.039 968 753.223 968 754.5C968 755.777 967.631 756.961 967 757.963C966.369 756.961 966 755.777 966 754.5C966 753.223 966.369 752.039 967 751.037Z" fill="white"/>
        <path d="M939.5 746C934.817 746 931 749.817 931 754.5C931 759.183 934.817 763 939.5 763C941.596 763 943.516 762.231 945 760.967C946.484 762.231 948.404 763 950.5 763C952.596 763 954.516 762.231 956 760.967C957.484 762.231 959.404 763 961.5 763C963.596 763 965.516 762.231 967 760.967C968.484 762.231 970.404 763 972.5 763C977.183 763 981 759.183 981 754.5C981 749.817 977.183 746 972.5 746C970.404 746 968.484 746.769 967 748.033C965.516 746.769 963.596 746 961.5 746C959.404 746 957.484 746.769 956 748.033C954.516 746.769 952.596 746 950.5 746C948.404 746 946.484 746.769 945 748.033C943.516 746.769 941.596 746 939.5 746ZM939.5 748C941.081 748 942.526 748.559 943.65 749.49C942.618 750.897 942 752.627 942 754.5C942 756.373 942.618 758.103 943.65 759.51C942.526 760.441 941.081 761 939.5 761C935.898 761 933 758.102 933 754.5C933 750.898 935.898 748 939.5 748ZM950.5 748C952.081 748 953.526 748.559 954.65 749.49C953.618 750.897 953 752.627 953 754.5C953 756.373 953.618 758.103 954.65 759.51C953.526 760.441 952.081 761 950.5 761C948.919 761 947.474 760.441 946.35 759.51C947.382 758.103 948 756.373 948 754.5C948 752.627 947.382 750.897 946.35 749.49C947.474 748.559 948.919 748 950.5 748ZM961.5 748C963.081 748 964.526 748.559 965.65 749.49C964.618 750.897 964 752.627 964 754.5C964 756.373 964.618 758.103 965.65 759.51C964.526 760.441 963.081 761 961.5 761C959.919 761 958.474 760.441 957.35 759.51C958.382 758.103 959 756.373 959 754.5C959 752.627 958.382 750.897 957.35 749.49C958.474 748.559 959.919 748 961.5 748ZM972.5 748C976.102 748 979 750.898 979 754.5C979 758.102 976.102 761 972.5 761C970.919 761 969.474 760.441 968.35 759.51C969.382 758.103 970 756.373 970 754.5C970 752.627 969.382 750.897 968.35 749.49C969.474 748.559 970.919 748 972.5 748ZM945 751.037C945.631 752.039 946 753.223 946 754.5C946 755.777 945.631 756.961 945 757.963C944.369 756.961 944 755.777 944 754.5C944 753.223 944.369 752.039 945 751.037ZM956 751.037C956.631 752.039 957 753.223 957 754.5C957 755.777 956.631 756.961 956 757.963C955.369 756.961 955 755.777 955 754.5C955 753.223 955.369 752.039 956 751.037ZM967 751.037C967.631 752.039 968 753.223 968 754.5C968 755.777 967.631 756.961 967 757.963C966.369 756.961 966 755.777 966 754.5C966 753.223 966.369 752.039 967 751.037Z" stroke="black" stroke-width="6" mask="url(#path-55-outside-31_0_1)"/>
      </g>
      <g id="Qs">
        <mask id="path-56-outside-32_0_1" maskUnits="userSpaceOnUse" x="950.263" y="753.576" width="38" height="27" fill="black">
          <rect fill="white" x="950.263" y="753.576" width="38" height="27"/>
          <path d="M962.575 774.336C961.231 774.336 959.991 774.112 958.855 773.664C957.735 773.216 956.751 772.592 955.903 771.792C955.071 770.992 954.423 770.048 953.959 768.96C953.495 767.872 953.263 766.696 953.263 765.432C953.263 764.152 953.487 762.976 953.935 761.904C954.399 760.832 955.047 759.896 955.879 759.096C956.711 758.296 957.687 757.68 958.807 757.248C959.943 756.8 961.183 756.576 962.527 756.576C963.871 756.576 965.103 756.8 966.223 757.248C967.359 757.68 968.343 758.296 969.175 759.096C970.007 759.896 970.647 760.84 971.095 761.928C971.559 763 971.791 764.176 971.791 765.456C971.791 766.72 971.559 767.896 971.095 768.984C970.647 770.056 970.007 771 969.175 771.816C968.343 772.616 967.367 773.24 966.247 773.688C965.127 774.12 963.903 774.336 962.575 774.336ZM969.991 775.56L961.711 767.28L964.303 764.688L972.583 772.968L969.991 775.56ZM962.527 770.112C963.423 770.112 964.199 769.92 964.855 769.536C965.511 769.152 966.015 768.608 966.367 767.904C966.719 767.2 966.895 766.376 966.895 765.432C966.895 764.728 966.791 764.096 966.583 763.536C966.391 762.96 966.103 762.472 965.719 762.072C965.335 761.656 964.871 761.344 964.327 761.136C963.799 760.912 963.199 760.8 962.527 760.8C961.631 760.8 960.855 760.992 960.199 761.376C959.543 761.744 959.039 762.28 958.687 762.984C958.335 763.672 958.159 764.488 958.159 765.432C958.159 766.152 958.255 766.8 958.447 767.376C958.655 767.952 958.951 768.448 959.335 768.864C959.719 769.264 960.175 769.576 960.703 769.8C961.247 770.008 961.855 770.112 962.527 770.112Z"/>
          <path d="M978.184 774.36C977.448 774.36 976.712 774.264 975.976 774.072C975.24 773.88 974.552 773.616 973.912 773.28C973.288 772.944 972.76 772.56 972.328 772.128L974.8 769.584C975.184 769.968 975.64 770.272 976.168 770.496C976.712 770.72 977.28 770.832 977.872 770.832C978.144 770.832 978.352 770.8 978.496 770.736C978.656 770.656 978.736 770.552 978.736 770.424C978.736 770.2 978.6 770.032 978.328 769.92C978.072 769.808 977.736 769.704 977.32 769.608C976.92 769.512 976.488 769.392 976.024 769.248C975.576 769.088 975.144 768.88 974.728 768.624C974.312 768.352 973.976 767.984 973.72 767.52C973.464 767.04 973.336 766.432 973.336 765.696C973.336 764.944 973.544 764.28 973.96 763.704C974.392 763.112 974.992 762.648 975.76 762.312C976.544 761.96 977.448 761.784 978.472 761.784C979.512 761.784 980.52 761.96 981.496 762.312C982.472 762.664 983.248 763.192 983.824 763.896L981.328 766.44C980.928 765.992 980.488 765.696 980.008 765.552C979.528 765.392 979.128 765.312 978.808 765.312C978.504 765.312 978.288 765.36 978.16 765.456C978.048 765.536 977.992 765.64 977.992 765.768C977.992 765.944 978.12 766.088 978.376 766.2C978.632 766.312 978.96 766.416 979.36 766.512C979.776 766.608 980.208 766.736 980.656 766.896C981.104 767.056 981.528 767.28 981.928 767.568C982.344 767.856 982.68 768.24 982.936 768.72C983.192 769.184 983.32 769.792 983.32 770.544C983.32 771.712 982.856 772.64 981.928 773.328C981 774.016 979.752 774.36 978.184 774.36Z"/>
        </mask>
        <path d="M962.575 774.336C961.231 774.336 959.991 774.112 958.855 773.664C957.735 773.216 956.751 772.592 955.903 771.792C955.071 770.992 954.423 770.048 953.959 768.96C953.495 767.872 953.263 766.696 953.263 765.432C953.263 764.152 953.487 762.976 953.935 761.904C954.399 760.832 955.047 759.896 955.879 759.096C956.711 758.296 957.687 757.68 958.807 757.248C959.943 756.8 961.183 756.576 962.527 756.576C963.871 756.576 965.103 756.8 966.223 757.248C967.359 757.68 968.343 758.296 969.175 759.096C970.007 759.896 970.647 760.84 971.095 761.928C971.559 763 971.791 764.176 971.791 765.456C971.791 766.72 971.559 767.896 971.095 768.984C970.647 770.056 970.007 771 969.175 771.816C968.343 772.616 967.367 773.24 966.247 773.688C965.127 774.12 963.903 774.336 962.575 774.336ZM969.991 775.56L961.711 767.28L964.303 764.688L972.583 772.968L969.991 775.56ZM962.527 770.112C963.423 770.112 964.199 769.92 964.855 769.536C965.511 769.152 966.015 768.608 966.367 767.904C966.719 767.2 966.895 766.376 966.895 765.432C966.895 764.728 966.791 764.096 966.583 763.536C966.391 762.96 966.103 762.472 965.719 762.072C965.335 761.656 964.871 761.344 964.327 761.136C963.799 760.912 963.199 760.8 962.527 760.8C961.631 760.8 960.855 760.992 960.199 761.376C959.543 761.744 959.039 762.28 958.687 762.984C958.335 763.672 958.159 764.488 958.159 765.432C958.159 766.152 958.255 766.8 958.447 767.376C958.655 767.952 958.951 768.448 959.335 768.864C959.719 769.264 960.175 769.576 960.703 769.8C961.247 770.008 961.855 770.112 962.527 770.112Z" fill="white"/>
        <path d="M978.184 774.36C977.448 774.36 976.712 774.264 975.976 774.072C975.24 773.88 974.552 773.616 973.912 773.28C973.288 772.944 972.76 772.56 972.328 772.128L974.8 769.584C975.184 769.968 975.64 770.272 976.168 770.496C976.712 770.72 977.28 770.832 977.872 770.832C978.144 770.832 978.352 770.8 978.496 770.736C978.656 770.656 978.736 770.552 978.736 770.424C978.736 770.2 978.6 770.032 978.328 769.92C978.072 769.808 977.736 769.704 977.32 769.608C976.92 769.512 976.488 769.392 976.024 769.248C975.576 769.088 975.144 768.88 974.728 768.624C974.312 768.352 973.976 767.984 973.72 767.52C973.464 767.04 973.336 766.432 973.336 765.696C973.336 764.944 973.544 764.28 973.96 763.704C974.392 763.112 974.992 762.648 975.76 762.312C976.544 761.96 977.448 761.784 978.472 761.784C979.512 761.784 980.52 761.96 981.496 762.312C982.472 762.664 983.248 763.192 983.824 763.896L981.328 766.44C980.928 765.992 980.488 765.696 980.008 765.552C979.528 765.392 979.128 765.312 978.808 765.312C978.504 765.312 978.288 765.36 978.16 765.456C978.048 765.536 977.992 765.64 977.992 765.768C977.992 765.944 978.12 766.088 978.376 766.2C978.632 766.312 978.96 766.416 979.36 766.512C979.776 766.608 980.208 766.736 980.656 766.896C981.104 767.056 981.528 767.28 981.928 767.568C982.344 767.856 982.68 768.24 982.936 768.72C983.192 769.184 983.32 769.792 983.32 770.544C983.32 771.712 982.856 772.64 981.928 773.328C981 774.016 979.752 774.36 978.184 774.36Z" fill="white"/>
        <path d="M962.575 774.336C961.231 774.336 959.991 774.112 958.855 773.664C957.735 773.216 956.751 772.592 955.903 771.792C955.071 770.992 954.423 770.048 953.959 768.96C953.495 767.872 953.263 766.696 953.263 765.432C953.263 764.152 953.487 762.976 953.935 761.904C954.399 760.832 955.047 759.896 955.879 759.096C956.711 758.296 957.687 757.68 958.807 757.248C959.943 756.8 961.183 756.576 962.527 756.576C963.871 756.576 965.103 756.8 966.223 757.248C967.359 757.68 968.343 758.296 969.175 759.096C970.007 759.896 970.647 760.84 971.095 761.928C971.559 763 971.791 764.176 971.791 765.456C971.791 766.72 971.559 767.896 971.095 768.984C970.647 770.056 970.007 771 969.175 771.816C968.343 772.616 967.367 773.24 966.247 773.688C965.127 774.12 963.903 774.336 962.575 774.336ZM969.991 775.56L961.711 767.28L964.303 764.688L972.583 772.968L969.991 775.56ZM962.527 770.112C963.423 770.112 964.199 769.92 964.855 769.536C965.511 769.152 966.015 768.608 966.367 767.904C966.719 767.2 966.895 766.376 966.895 765.432C966.895 764.728 966.791 764.096 966.583 763.536C966.391 762.96 966.103 762.472 965.719 762.072C965.335 761.656 964.871 761.344 964.327 761.136C963.799 760.912 963.199 760.8 962.527 760.8C961.631 760.8 960.855 760.992 960.199 761.376C959.543 761.744 959.039 762.28 958.687 762.984C958.335 763.672 958.159 764.488 958.159 765.432C958.159 766.152 958.255 766.8 958.447 767.376C958.655 767.952 958.951 768.448 959.335 768.864C959.719 769.264 960.175 769.576 960.703 769.8C961.247 770.008 961.855 770.112 962.527 770.112Z" stroke="black" stroke-width="6" mask="url(#path-56-outside-32_0_1)"/>
        <path d="M978.184 774.36C977.448 774.36 976.712 774.264 975.976 774.072C975.24 773.88 974.552 773.616 973.912 773.28C973.288 772.944 972.76 772.56 972.328 772.128L974.8 769.584C975.184 769.968 975.64 770.272 976.168 770.496C976.712 770.72 977.28 770.832 977.872 770.832C978.144 770.832 978.352 770.8 978.496 770.736C978.656 770.656 978.736 770.552 978.736 770.424C978.736 770.2 978.6 770.032 978.328 769.92C978.072 769.808 977.736 769.704 977.32 769.608C976.92 769.512 976.488 769.392 976.024 769.248C975.576 769.088 975.144 768.88 974.728 768.624C974.312 768.352 973.976 767.984 973.72 767.52C973.464 767.04 973.336 766.432 973.336 765.696C973.336 764.944 973.544 764.28 973.96 763.704C974.392 763.112 974.992 762.648 975.76 762.312C976.544 761.96 977.448 761.784 978.472 761.784C979.512 761.784 980.52 761.96 981.496 762.312C982.472 762.664 983.248 763.192 983.824 763.896L981.328 766.44C980.928 765.992 980.488 765.696 980.008 765.552C979.528 765.392 979.128 765.312 978.808 765.312C978.504 765.312 978.288 765.36 978.16 765.456C978.048 765.536 977.992 765.64 977.992 765.768C977.992 765.944 978.12 766.088 978.376 766.2C978.632 766.312 978.96 766.416 979.36 766.512C979.776 766.608 980.208 766.736 980.656 766.896C981.104 767.056 981.528 767.28 981.928 767.568C982.344 767.856 982.68 768.24 982.936 768.72C983.192 769.184 983.32 769.792 983.32 770.544C983.32 771.712 982.856 772.64 981.928 773.328C981 774.016 979.752 774.36 978.184 774.36Z" stroke="black" stroke-width="6" mask="url(#path-56-outside-32_0_1)"/>
      </g>
    </g>
  </g>
</svg>