<?xml version="1.0" encoding="UTF-8" standalone="yes"?>
<svg width="120" height="120" viewBox="0 0 120 120" fill="none" xmlns="http://www.w3.org/2000/svg">
  <g id="Audi_Q2">
    <g id="Frame 10">
      <path id="Vector_10" d="M699.5 506C694.817 506 691 509.817 691 514.5C691 519.183 694.817 523 699.5 523C701.596 523 703.516 522.231 705 520.967C706.484 522.231 708.404 523 710.5 523C712.596 523 714.516 522.231 716 520.967C717.484 522.231 719.404 523 721.5 523C723.596 523 725.516 522.231 727 520.967C728.484 522.231 730.404 523 732.5 523C737.183 523 741 519.183 741 514.5C741 509.817 737.183 506 732.5 506C730.404 506 728.484 506.769 727 508.033C725.516 506.769 723.596 506 721.5 506C719.404 506 717.484 506.769 716 508.033C714.516 506.769 712.596 506 710.5 506C708.404 506 706.484 506.769 705 508.033C703.516 506.769 701.596 506 699.5 506ZM699.5 508C701.081 508 702.526 508.559 703.65 509.49C702.618 510.897 702 512.627 702 514.5C702 516.373 702.618 518.103 703.65 519.51C702.526 520.441 701.081 521 699.5 521C695.898 521 693 518.102 693 514.5C693 510.898 695.898 508 699.5 508ZM710.5 508C712.081 508 713.526 508.559 714.65 509.49C713.618 510.897 713 512.627 713 514.5C713 516.373 713.618 518.103 714.65 519.51C713.526 520.441 712.081 521 710.5 521C708.919 521 707.474 520.441 706.35 519.51C707.382 518.103 708 516.373 708 514.5C708 512.627 707.382 510.897 706.35 509.49C707.474 508.559 708.919 508 710.5 508ZM721.5 508C723.081 508 724.526 508.559 725.65 509.49C724.618 510.897 724 512.627 724 514.5C724 516.373 724.618 518.103 725.65 519.51C724.526 520.441 723.081 521 721.5 521C719.919 521 718.474 520.441 717.35 519.51C718.382 518.103 719 516.373 719 514.5C719 512.627 718.382 510.897 717.35 509.49C718.474 508.559 719.919 508 721.5 508ZM732.5 508C736.102 508 739 510.898 739 514.5C739 518.102 736.102 521 732.5 521C730.919 521 729.474 520.441 728.35 519.51C729.382 518.103 730 516.373 730 514.5C730 512.627 729.382 510.897 728.35 509.49C729.474 508.559 730.919 508 732.5 508ZM705 511.037C705.631 512.039 706 513.223 706 514.5C706 515.777 705.631 516.961 705 517.963C704.369 516.961 704 515.777 704 514.5C704 513.223 704.369 512.039 705 511.037ZM716 511.037C716.631 512.039 717 513.223 717 514.5C717 515.777 716.631 516.961 716 517.963C715.369 516.961 715 515.777 715 514.5C715 513.223 715.369 512.039 716 511.037ZM727 511.037C727.631 512.039 728 513.223 728 514.5C728 515.777 727.631 516.961 727 517.963C726.369 516.961 726 515.777 726 514.5C726 513.223 726.369 512.039 727 511.037Z" fill="white"/>
      <path id="Q" d="M720.384 541.425L720.388 541.426C722.22 542.149 724.206 542.504 726.335 542.504C728.437 542.504 730.397 542.162 732.203 541.465L732.203 541.465L732.214 541.46C732.676 541.276 733.123 541.072 733.555 540.85L736.752 544.047L737.459 544.754L738.166 544.047L742.054 540.159L742.761 539.452L742.054 538.745L739.07 535.76C739.437 535.159 739.76 534.527 740.036 533.865C740.788 532.102 741.159 530.204 741.159 528.184C741.159 526.144 740.789 524.246 740.036 522.503C739.313 520.749 738.276 519.219 736.928 517.923L736.235 518.644L736.928 517.923C735.58 516.627 733.99 515.633 732.171 514.94C730.362 514.218 728.389 513.864 726.263 513.864C724.135 513.864 722.151 514.219 720.32 514.94C718.522 515.634 716.945 516.628 715.598 517.923L716.213 518.563L715.598 517.923C714.253 519.216 713.205 520.731 712.457 522.459L712.457 522.459L712.452 522.47C711.724 524.212 711.367 526.109 711.367 528.148C711.367 530.169 711.739 532.068 712.491 533.832C713.239 535.585 714.287 537.113 715.634 538.409L715.634 538.409L715.641 538.415C717.007 539.705 718.591 540.707 720.384 541.425ZM731.815 528.148C731.815 528.267 731.813 528.384 731.809 528.5L729.634 526.325L728.927 525.618L728.22 526.325L724.332 530.213L723.625 530.92L724.332 531.627L726.851 534.146C726.661 534.161 726.465 534.168 726.263 534.168C725.366 534.168 724.583 534.03 723.901 533.772C723.24 533.489 722.677 533.102 722.203 532.611C721.731 532.096 721.357 531.476 721.088 530.736C720.842 529.994 720.711 529.135 720.711 528.148C720.711 526.856 720.952 525.795 721.393 524.931L721.393 524.932L721.397 524.923C721.84 524.037 722.459 523.386 723.26 522.936L723.268 522.932L723.276 522.927C724.082 522.456 725.065 522.2 726.263 522.2C727.16 522.2 727.923 522.349 728.573 522.625L728.589 522.632L728.606 522.638C729.282 522.897 729.848 523.279 730.316 523.786L730.323 523.793L730.33 523.801C730.793 524.284 731.153 524.883 731.398 525.62L731.404 525.636L731.41 525.652C731.674 526.363 731.815 527.19 731.815 528.148Z" fill="white" stroke="black" stroke-width="2"/>
    </g>
  </g>
</svg>