<?xml version="1.0" encoding="UTF-8" standalone="yes"?>
<svg width="119" height="119" viewBox="0 0 119 119" fill="none" xmlns="http://www.w3.org/2000/svg">
  <g id="Audi Q2" transform="translate(-776.5 -704.5)">
    <g id="Frame 10_2">
      <g id="Vector_17">
        <mask id="path-52-outside-29_0_1" maskUnits="userSpaceOnUse" x="808" y="743" width="56" height="23" fill="black">
          <rect fill="white" x="808" y="743" width="56" height="23"/>
          <path d="M819.5 746C814.817 746 811 749.817 811 754.5C811 759.183 814.817 763 819.5 763C821.596 763 823.516 762.231 825 760.967C826.484 762.231 828.404 763 830.5 763C832.596 763 834.516 762.231 836 760.967C837.484 762.231 839.404 763 841.5 763C843.596 763 845.516 762.231 847 760.967C848.484 762.231 850.404 763 852.5 763C857.183 763 861 759.183 861 754.5C861 749.817 857.183 746 852.5 746C850.404 746 848.484 746.769 847 748.033C845.516 746.769 843.596 746 841.5 746C839.404 746 837.484 746.769 836 748.033C834.516 746.769 832.596 746 830.5 746C828.404 746 826.484 746.769 825 748.033C823.516 746.769 821.596 746 819.5 746ZM819.5 748C821.081 748 822.526 748.559 823.65 749.49C822.618 750.897 822 752.627 822 754.5C822 756.373 822.618 758.103 823.65 759.51C822.526 760.441 821.081 761 819.5 761C815.898 761 813 758.102 813 754.5C813 750.898 815.898 748 819.5 748ZM830.5 748C832.081 748 833.526 748.559 834.65 749.49C833.618 750.897 833 752.627 833 754.5C833 756.373 833.618 758.103 834.65 759.51C833.526 760.441 832.081 761 830.5 761C828.919 761 827.474 760.441 826.35 759.51C827.382 758.103 828 756.373 828 754.5C828 752.627 827.382 750.897 826.35 749.49C827.474 748.559 828.919 748 830.5 748ZM841.5 748C843.081 748 844.526 748.559 845.65 749.49C844.618 750.897 844 752.627 844 754.5C844 756.373 844.618 758.103 845.65 759.51C844.526 760.441 843.081 761 841.5 761C839.919 761 838.474 760.441 837.35 759.51C838.382 758.103 839 756.373 839 754.5C839 752.627 838.382 750.897 837.35 749.49C838.474 748.559 839.919 748 841.5 748ZM852.5 748C856.102 748 859 750.898 859 754.5C859 758.102 856.102 761 852.5 761C850.919 761 849.474 760.441 848.35 759.51C849.382 758.103 850 756.373 850 754.5C850 752.627 849.382 750.897 848.35 749.49C849.474 748.559 850.919 748 852.5 748ZM825 751.037C825.631 752.039 826 753.223 826 754.5C826 755.777 825.631 756.961 825 757.963C824.369 756.961 824 755.777 824 754.5C824 753.223 824.369 752.039 825 751.037ZM836 751.037C836.631 752.039 837 753.223 837 754.5C837 755.777 836.631 756.961 836 757.963C835.369 756.961 835 755.777 835 754.5C835 753.223 835.369 752.039 836 751.037ZM847 751.037C847.631 752.039 848 753.223 848 754.5C848 755.777 847.631 756.961 847 757.963C846.369 756.961 846 755.777 846 754.5C846 753.223 846.369 752.039 847 751.037Z"/>
        </mask>
        <path d="M819.5 746C814.817 746 811 749.817 811 754.5C811 759.183 814.817 763 819.5 763C821.596 763 823.516 762.231 825 760.967C826.484 762.231 828.404 763 830.5 763C832.596 763 834.516 762.231 836 760.967C837.484 762.231 839.404 763 841.5 763C843.596 763 845.516 762.231 847 760.967C848.484 762.231 850.404 763 852.5 763C857.183 763 861 759.183 861 754.5C861 749.817 857.183 746 852.5 746C850.404 746 848.484 746.769 847 748.033C845.516 746.769 843.596 746 841.5 746C839.404 746 837.484 746.769 836 748.033C834.516 746.769 832.596 746 830.5 746C828.404 746 826.484 746.769 825 748.033C823.516 746.769 821.596 746 819.5 746ZM819.5 748C821.081 748 822.526 748.559 823.65 749.49C822.618 750.897 822 752.627 822 754.5C822 756.373 822.618 758.103 823.65 759.51C822.526 760.441 821.081 761 819.5 761C815.898 761 813 758.102 813 754.5C813 750.898 815.898 748 819.5 748ZM830.5 748C832.081 748 833.526 748.559 834.65 749.49C833.618 750.897 833 752.627 833 754.5C833 756.373 833.618 758.103 834.65 759.51C833.526 760.441 832.081 761 830.5 761C828.919 761 827.474 760.441 826.35 759.51C827.382 758.103 828 756.373 828 754.5C828 752.627 827.382 750.897 826.35 749.49C827.474 748.559 828.919 748 830.5 748ZM841.5 748C843.081 748 844.526 748.559 845.65 749.49C844.618 750.897 844 752.627 844 754.5C844 756.373 844.618 758.103 845.65 759.51C844.526 760.441 843.081 761 841.5 761C839.919 761 838.474 760.441 837.35 759.51C838.382 758.103 839 756.373 839 754.5C839 752.627 838.382 750.897 837.35 749.49C838.474 748.559 839.919 748 841.5 748ZM852.5 748C856.102 748 859 750.898 859 754.5C859 758.102 856.102 761 852.5 761C850.919 761 849.474 760.441 848.35 759.51C849.382 758.103 850 756.373 850 754.5C850 752.627 849.382 750.897 848.35 749.49C849.474 748.559 850.919 748 852.5 748ZM825 751.037C825.631 752.039 826 753.223 826 754.5C826 755.777 825.631 756.961 825 757.963C824.369 756.961 824 755.777 824 754.5C824 753.223 824.369 752.039 825 751.037ZM836 751.037C836.631 752.039 837 753.223 837 754.5C837 755.777 836.631 756.961 836 757.963C835.369 756.961 835 755.777 835 754.5C835 753.223 835.369 752.039 836 751.037ZM847 751.037C847.631 752.039 848 753.223 848 754.5C848 755.777 847.631 756.961 847 757.963C846.369 756.961 846 755.777 846 754.5C846 753.223 846.369 752.039 847 751.037Z" fill="white"/>
        <path d="M819.5 746C814.817 746 811 749.817 811 754.5C811 759.183 814.817 763 819.5 763C821.596 763 823.516 762.231 825 760.967C826.484 762.231 828.404 763 830.5 763C832.596 763 834.516 762.231 836 760.967C837.484 762.231 839.404 763 841.5 763C843.596 763 845.516 762.231 847 760.967C848.484 762.231 850.404 763 852.5 763C857.183 763 861 759.183 861 754.5C861 749.817 857.183 746 852.5 746C850.404 746 848.484 746.769 847 748.033C845.516 746.769 843.596 746 841.5 746C839.404 746 837.484 746.769 836 748.033C834.516 746.769 832.596 746 830.5 746C828.404 746 826.484 746.769 825 748.033C823.516 746.769 821.596 746 819.5 746ZM819.5 748C821.081 748 822.526 748.559 823.65 749.49C822.618 750.897 822 752.627 822 754.5C822 756.373 822.618 758.103 823.65 759.51C822.526 760.441 821.081 761 819.5 761C815.898 761 813 758.102 813 754.5C813 750.898 815.898 748 819.5 748ZM830.5 748C832.081 748 833.526 748.559 834.65 749.49C833.618 750.897 833 752.627 833 754.5C833 756.373 833.618 758.103 834.65 759.51C833.526 760.441 832.081 761 830.5 761C828.919 761 827.474 760.441 826.35 759.51C827.382 758.103 828 756.373 828 754.5C828 752.627 827.382 750.897 826.35 749.49C827.474 748.559 828.919 748 830.5 748ZM841.5 748C843.081 748 844.526 748.559 845.65 749.49C844.618 750.897 844 752.627 844 754.5C844 756.373 844.618 758.103 845.65 759.51C844.526 760.441 843.081 761 841.5 761C839.919 761 838.474 760.441 837.35 759.51C838.382 758.103 839 756.373 839 754.5C839 752.627 838.382 750.897 837.35 749.49C838.474 748.559 839.919 748 841.5 748ZM852.5 748C856.102 748 859 750.898 859 754.5C859 758.102 856.102 761 852.5 761C850.919 761 849.474 760.441 848.35 759.51C849.382 758.103 850 756.373 850 754.5C850 752.627 849.382 750.897 848.35 749.49C849.474 748.559 850.919 748 852.5 748ZM825 751.037C825.631 752.039 826 753.223 826 754.5C826 755.777 825.631 756.961 825 757.963C824.369 756.961 824 755.777 824 754.5C824 753.223 824.369 752.039 825 751.037ZM836 751.037C836.631 752.039 837 753.223 837 754.5C837 755.777 836.631 756.961 836 757.963C835.369 756.961 835 755.777 835 754.5C835 753.223 835.369 752.039 836 751.037ZM847 751.037C847.631 752.039 848 753.223 848 754.5C848 755.777 847.631 756.961 847 757.963C846.369 756.961 846 755.777 846 754.5C846 753.223 846.369 752.039 847 751.037Z" stroke="black" stroke-width="6" mask="url(#path-52-outside-29_0_1)"/>
      </g>
      <g id="Q">
        <mask id="path-53-outside-30_0_1" maskUnits="userSpaceOnUse" x="829.367" y="751.864" width="37" height="36" fill="black">
          <rect fill="white" x="829.367" y="751.864" width="37" height="36"/>
          <path d="M846.335 781.504C844.319 781.504 842.459 781.168 840.755 780.496C839.075 779.824 837.599 778.888 836.327 777.688C835.079 776.488 834.107 775.072 833.411 773.44C832.715 771.808 832.367 770.044 832.367 768.148C832.367 766.228 832.703 764.464 833.375 762.856C834.071 761.248 835.043 759.844 836.291 758.644C837.539 757.444 839.003 756.52 840.683 755.872C842.387 755.2 844.247 754.864 846.263 754.864C848.279 754.864 850.127 755.2 851.807 755.872C853.511 756.52 854.987 757.444 856.235 758.644C857.483 759.844 858.443 761.26 859.115 762.892C859.811 764.5 860.159 766.264 860.159 768.184C860.159 770.08 859.811 771.844 859.115 773.476C858.443 775.084 857.483 776.5 856.235 777.724C854.987 778.924 853.523 779.86 851.843 780.532C850.163 781.18 848.327 781.504 846.335 781.504ZM857.459 783.34L845.039 770.92L848.927 767.032L861.347 779.452L857.459 783.34ZM846.263 775.168C847.607 775.168 848.771 774.88 849.755 774.304C850.739 773.728 851.495 772.912 852.023 771.856C852.551 770.8 852.815 769.564 852.815 768.148C852.815 767.092 852.659 766.144 852.347 765.304C852.059 764.44 851.627 763.708 851.051 763.108C850.475 762.484 849.779 762.016 848.963 761.704C848.171 761.368 847.271 761.2 846.263 761.2C844.919 761.2 843.755 761.488 842.771 762.064C841.787 762.616 841.031 763.42 840.503 764.476C839.975 765.508 839.711 766.732 839.711 768.148C839.711 769.228 839.855 770.2 840.143 771.064C840.455 771.928 840.899 772.672 841.475 773.296C842.051 773.896 842.735 774.364 843.527 774.7C844.343 775.012 845.255 775.168 846.263 775.168Z"/>
        </mask>
        <path d="M846.335 781.504C844.319 781.504 842.459 781.168 840.755 780.496C839.075 779.824 837.599 778.888 836.327 777.688C835.079 776.488 834.107 775.072 833.411 773.44C832.715 771.808 832.367 770.044 832.367 768.148C832.367 766.228 832.703 764.464 833.375 762.856C834.071 761.248 835.043 759.844 836.291 758.644C837.539 757.444 839.003 756.52 840.683 755.872C842.387 755.2 844.247 754.864 846.263 754.864C848.279 754.864 850.127 755.2 851.807 755.872C853.511 756.52 854.987 757.444 856.235 758.644C857.483 759.844 858.443 761.26 859.115 762.892C859.811 764.5 860.159 766.264 860.159 768.184C860.159 770.08 859.811 771.844 859.115 773.476C858.443 775.084 857.483 776.5 856.235 777.724C854.987 778.924 853.523 779.86 851.843 780.532C850.163 781.18 848.327 781.504 846.335 781.504ZM857.459 783.34L845.039 770.92L848.927 767.032L861.347 779.452L857.459 783.34ZM846.263 775.168C847.607 775.168 848.771 774.88 849.755 774.304C850.739 773.728 851.495 772.912 852.023 771.856C852.551 770.8 852.815 769.564 852.815 768.148C852.815 767.092 852.659 766.144 852.347 765.304C852.059 764.44 851.627 763.708 851.051 763.108C850.475 762.484 849.779 762.016 848.963 761.704C848.171 761.368 847.271 761.2 846.263 761.2C844.919 761.2 843.755 761.488 842.771 762.064C841.787 762.616 841.031 763.42 840.503 764.476C839.975 765.508 839.711 766.732 839.711 768.148C839.711 769.228 839.855 770.2 840.143 771.064C840.455 771.928 840.899 772.672 841.475 773.296C842.051 773.896 842.735 774.364 843.527 774.7C844.343 775.012 845.255 775.168 846.263 775.168Z" fill="white"/>
        <path d="M846.335 781.504C844.319 781.504 842.459 781.168 840.755 780.496C839.075 779.824 837.599 778.888 836.327 777.688C835.079 776.488 834.107 775.072 833.411 773.44C832.715 771.808 832.367 770.044 832.367 768.148C832.367 766.228 832.703 764.464 833.375 762.856C834.071 761.248 835.043 759.844 836.291 758.644C837.539 757.444 839.003 756.52 840.683 755.872C842.387 755.2 844.247 754.864 846.263 754.864C848.279 754.864 850.127 755.2 851.807 755.872C853.511 756.52 854.987 757.444 856.235 758.644C857.483 759.844 858.443 761.26 859.115 762.892C859.811 764.5 860.159 766.264 860.159 768.184C860.159 770.08 859.811 771.844 859.115 773.476C858.443 775.084 857.483 776.5 856.235 777.724C854.987 778.924 853.523 779.86 851.843 780.532C850.163 781.18 848.327 781.504 846.335 781.504ZM857.459 783.34L845.039 770.92L848.927 767.032L861.347 779.452L857.459 783.34ZM846.263 775.168C847.607 775.168 848.771 774.88 849.755 774.304C850.739 773.728 851.495 772.912 852.023 771.856C852.551 770.8 852.815 769.564 852.815 768.148C852.815 767.092 852.659 766.144 852.347 765.304C852.059 764.44 851.627 763.708 851.051 763.108C850.475 762.484 849.779 762.016 848.963 761.704C848.171 761.368 847.271 761.2 846.263 761.2C844.919 761.2 843.755 761.488 842.771 762.064C841.787 762.616 841.031 763.42 840.503 764.476C839.975 765.508 839.711 766.732 839.711 768.148C839.711 769.228 839.855 770.2 840.143 771.064C840.455 771.928 840.899 772.672 841.475 773.296C842.051 773.896 842.735 774.364 843.527 774.7C844.343 775.012 845.255 775.168 846.263 775.168Z" stroke="black" stroke-width="6" mask="url(#path-53-outside-30_0_1)"/>
      </g>
    </g>
  </g>
</svg>