<?xml version="1.0" encoding="UTF-8" standalone="yes"?>
<svg width="119" height="119" viewBox="0 0 119 119" fill="none" xmlns="http://www.w3.org/2000/svg">
  <g id="Audi A4 Avant" transform="translate(-656.5 -704.5)">
    <g id="Frame 9_2">
      <g id="Vector_16">
        <mask id="path-48-outside-27_0_1" maskUnits="userSpaceOnUse" x="688" y="743" width="56" height="23" fill="black">
          <rect fill="white" x="688" y="743" width="56" height="23"/>
          <path d="M699.5 746C694.817 746 691 749.817 691 754.5C691 759.183 694.817 763 699.5 763C701.596 763 703.516 762.231 705 760.967C706.484 762.231 708.404 763 710.5 763C712.596 763 714.516 762.231 716 760.967C717.484 762.231 719.404 763 721.5 763C723.596 763 725.516 762.231 727 760.967C728.484 762.231 730.404 763 732.5 763C737.183 763 741 759.183 741 754.5C741 749.817 737.183 746 732.5 746C730.404 746 728.484 746.769 727 748.033C725.516 746.769 723.596 746 721.5 746C719.404 746 717.484 746.769 716 748.033C714.516 746.769 712.596 746 710.5 746C708.404 746 706.484 746.769 705 748.033C703.516 746.769 701.596 746 699.5 746ZM699.5 748C701.081 748 702.526 748.559 703.65 749.49C702.618 750.897 702 752.627 702 754.5C702 756.373 702.618 758.103 703.65 759.51C702.526 760.441 701.081 761 699.5 761C695.898 761 693 758.102 693 754.5C693 750.898 695.898 748 699.5 748ZM710.5 748C712.081 748 713.526 748.559 714.65 749.49C713.618 750.897 713 752.627 713 754.5C713 756.373 713.618 758.103 714.65 759.51C713.526 760.441 712.081 761 710.5 761C708.919 761 707.474 760.441 706.35 759.51C707.382 758.103 708 756.373 708 754.5C708 752.627 707.382 750.897 706.35 749.49C707.474 748.559 708.919 748 710.5 748ZM721.5 748C723.081 748 724.526 748.559 725.65 749.49C724.618 750.897 724 752.627 724 754.5C724 756.373 724.618 758.103 725.65 759.51C724.526 760.441 723.081 761 721.5 761C719.919 761 718.474 760.441 717.35 759.51C718.382 758.103 719 756.373 719 754.5C719 752.627 718.382 750.897 717.35 749.49C718.474 748.559 719.919 748 721.5 748ZM732.5 748C736.102 748 739 750.898 739 754.5C739 758.102 736.102 761 732.5 761C730.919 761 729.474 760.441 728.35 759.51C729.382 758.103 730 756.373 730 754.5C730 752.627 729.382 750.897 728.35 749.49C729.474 748.559 730.919 748 732.5 748ZM705 751.037C705.631 752.039 706 753.223 706 754.5C706 755.777 705.631 756.961 705 757.963C704.369 756.961 704 755.777 704 754.5C704 753.223 704.369 752.039 705 751.037ZM716 751.037C716.631 752.039 717 753.223 717 754.5C717 755.777 716.631 756.961 716 757.963C715.369 756.961 715 755.777 715 754.5C715 753.223 715.369 752.039 716 751.037ZM727 751.037C727.631 752.039 728 753.223 728 754.5C728 755.777 727.631 756.961 727 757.963C726.369 756.961 726 755.777 726 754.5C726 753.223 726.369 752.039 727 751.037Z"/>
        </mask>
        <path d="M699.5 746C694.817 746 691 749.817 691 754.5C691 759.183 694.817 763 699.5 763C701.596 763 703.516 762.231 705 760.967C706.484 762.231 708.404 763 710.5 763C712.596 763 714.516 762.231 716 760.967C717.484 762.231 719.404 763 721.5 763C723.596 763 725.516 762.231 727 760.967C728.484 762.231 730.404 763 732.5 763C737.183 763 741 759.183 741 754.5C741 749.817 737.183 746 732.5 746C730.404 746 728.484 746.769 727 748.033C725.516 746.769 723.596 746 721.5 746C719.404 746 717.484 746.769 716 748.033C714.516 746.769 712.596 746 710.5 746C708.404 746 706.484 746.769 705 748.033C703.516 746.769 701.596 746 699.5 746ZM699.5 748C701.081 748 702.526 748.559 703.65 749.49C702.618 750.897 702 752.627 702 754.5C702 756.373 702.618 758.103 703.65 759.51C702.526 760.441 701.081 761 699.5 761C695.898 761 693 758.102 693 754.5C693 750.898 695.898 748 699.5 748ZM710.5 748C712.081 748 713.526 748.559 714.65 749.49C713.618 750.897 713 752.627 713 754.5C713 756.373 713.618 758.103 714.65 759.51C713.526 760.441 712.081 761 710.5 761C708.919 761 707.474 760.441 706.35 759.51C707.382 758.103 708 756.373 708 754.5C708 752.627 707.382 750.897 706.35 749.49C707.474 748.559 708.919 748 710.5 748ZM721.5 748C723.081 748 724.526 748.559 725.65 749.49C724.618 750.897 724 752.627 724 754.5C724 756.373 724.618 758.103 725.65 759.51C724.526 760.441 723.081 761 721.5 761C719.919 761 718.474 760.441 717.35 759.51C718.382 758.103 719 756.373 719 754.5C719 752.627 718.382 750.897 717.35 749.49C718.474 748.559 719.919 748 721.5 748ZM732.5 748C736.102 748 739 750.898 739 754.5C739 758.102 736.102 761 732.5 761C730.919 761 729.474 760.441 728.35 759.51C729.382 758.103 730 756.373 730 754.5C730 752.627 729.382 750.897 728.35 749.49C729.474 748.559 730.919 748 732.5 748ZM705 751.037C705.631 752.039 706 753.223 706 754.5C706 755.777 705.631 756.961 705 757.963C704.369 756.961 704 755.777 704 754.5C704 753.223 704.369 752.039 705 751.037ZM716 751.037C716.631 752.039 717 753.223 717 754.5C717 755.777 716.631 756.961 716 757.963C715.369 756.961 715 755.777 715 754.5C715 753.223 715.369 752.039 716 751.037ZM727 751.037C727.631 752.039 728 753.223 728 754.5C728 755.777 727.631 756.961 727 757.963C726.369 756.961 726 755.777 726 754.5C726 753.223 726.369 752.039 727 751.037Z" fill="white"/>
        <path d="M699.5 746C694.817 746 691 749.817 691 754.5C691 759.183 694.817 763 699.5 763C701.596 763 703.516 762.231 705 760.967C706.484 762.231 708.404 763 710.5 763C712.596 763 714.516 762.231 716 760.967C717.484 762.231 719.404 763 721.5 763C723.596 763 725.516 762.231 727 760.967C728.484 762.231 730.404 763 732.5 763C737.183 763 741 759.183 741 754.5C741 749.817 737.183 746 732.5 746C730.404 746 728.484 746.769 727 748.033C725.516 746.769 723.596 746 721.5 746C719.404 746 717.484 746.769 716 748.033C714.516 746.769 712.596 746 710.5 746C708.404 746 706.484 746.769 705 748.033C703.516 746.769 701.596 746 699.5 746ZM699.5 748C701.081 748 702.526 748.559 703.65 749.49C702.618 750.897 702 752.627 702 754.5C702 756.373 702.618 758.103 703.65 759.51C702.526 760.441 701.081 761 699.5 761C695.898 761 693 758.102 693 754.5C693 750.898 695.898 748 699.5 748ZM710.5 748C712.081 748 713.526 748.559 714.65 749.49C713.618 750.897 713 752.627 713 754.5C713 756.373 713.618 758.103 714.65 759.51C713.526 760.441 712.081 761 710.5 761C708.919 761 707.474 760.441 706.35 759.51C707.382 758.103 708 756.373 708 754.5C708 752.627 707.382 750.897 706.35 749.49C707.474 748.559 708.919 748 710.5 748ZM721.5 748C723.081 748 724.526 748.559 725.65 749.49C724.618 750.897 724 752.627 724 754.5C724 756.373 724.618 758.103 725.65 759.51C724.526 760.441 723.081 761 721.5 761C719.919 761 718.474 760.441 717.35 759.51C718.382 758.103 719 756.373 719 754.5C719 752.627 718.382 750.897 717.35 749.49C718.474 748.559 719.919 748 721.5 748ZM732.5 748C736.102 748 739 750.898 739 754.5C739 758.102 736.102 761 732.5 761C730.919 761 729.474 760.441 728.35 759.51C729.382 758.103 730 756.373 730 754.5C730 752.627 729.382 750.897 728.35 749.49C729.474 748.559 730.919 748 732.5 748ZM705 751.037C705.631 752.039 706 753.223 706 754.5C706 755.777 705.631 756.961 705 757.963C704.369 756.961 704 755.777 704 754.5C704 753.223 704.369 752.039 705 751.037ZM716 751.037C716.631 752.039 717 753.223 717 754.5C717 755.777 716.631 756.961 716 757.963C715.369 756.961 715 755.777 715 754.5C715 753.223 715.369 752.039 716 751.037ZM727 751.037C727.631 752.039 728 753.223 728 754.5C728 755.777 727.631 756.961 727 757.963C726.369 756.961 726 755.777 726 754.5C726 753.223 726.369 752.039 727 751.037Z" stroke="black" stroke-width="6" mask="url(#path-48-outside-27_0_1)"/>
      </g>
      <g id="4_2">
        <mask id="path-49-outside-28_0_1" maskUnits="userSpaceOnUse" x="717.25" y="752.368" width="28" height="32" fill="black">
          <rect fill="white" x="717.25" y="752.368" width="28" height="32"/>
          <path d="M720.25 772.36L727.954 755.368H735.586L727.702 772.36H720.25ZM720.25 776.212V772.36L722.194 770.308H741.418V776.212H720.25ZM732.274 781V766.024H739.294V781H732.274Z"/>
        </mask>
        <path d="M720.25 772.36L727.954 755.368H735.586L727.702 772.36H720.25ZM720.25 776.212V772.36L722.194 770.308H741.418V776.212H720.25ZM732.274 781V766.024H739.294V781H732.274Z" fill="white"/>
        <path d="M720.25 772.36L717.518 771.121L717.25 771.712V772.36H720.25ZM727.954 755.368V752.368H726.02L725.222 754.129L727.954 755.368ZM735.586 755.368L738.307 756.631L740.285 752.368H735.586V755.368ZM727.702 772.36V775.36H729.617L730.423 773.623L727.702 772.36ZM720.25 776.212H717.25V779.212H720.25V776.212ZM722.194 770.308V767.308H720.904L720.016 768.245L722.194 770.308ZM741.418 770.308H744.418V767.308H741.418V770.308ZM741.418 776.212V779.212H744.418V776.212H741.418ZM732.274 781H729.274V784H732.274V781ZM732.274 766.024V763.024H729.274V766.024H732.274ZM739.294 766.024H742.294V763.024H739.294V766.024ZM739.294 781V784H742.294V781H739.294ZM722.982 773.599L730.686 756.607L725.222 754.129L717.518 771.121L722.982 773.599ZM727.954 758.368H735.586V752.368H727.954V758.368ZM732.865 754.105L724.981 771.097L730.423 773.623L738.307 756.631L732.865 754.105ZM727.702 769.36H720.25V775.36H727.702V769.36ZM723.25 776.212V772.36H717.25V776.212H723.25ZM722.428 774.423L724.372 772.371L720.016 768.245L718.072 770.297L722.428 774.423ZM722.194 773.308H741.418V767.308H722.194V773.308ZM738.418 770.308V776.212H744.418V770.308H738.418ZM741.418 773.212H720.25V779.212H741.418V773.212ZM735.274 781V766.024H729.274V781H735.274ZM732.274 769.024H739.294V763.024H732.274V769.024ZM736.294 766.024V781H742.294V766.024H736.294ZM739.294 778H732.274V784H739.294V778Z" fill="black" mask="url(#path-49-outside-28_0_1)"/>
      </g>
    </g>
  </g>
</svg>