<?xml version="1.0" encoding="UTF-8" standalone="yes"?>
<svg width="120" height="120" viewBox="0 0 120 120" fill="none" xmlns="http://www.w3.org/2000/svg">
  <g id="Audi_A4">
    <g id="Frame 9">
      <path id="Vector_9" d="M939.5 386C934.817 386 931 389.817 931 394.5C931 399.183 934.817 403 939.5 403C941.596 403 943.516 402.231 945 400.967C946.484 402.231 948.404 403 950.5 403C952.596 403 954.516 402.231 956 400.967C957.484 402.231 959.404 403 961.5 403C963.596 403 965.516 402.231 967 400.967C968.484 402.231 970.404 403 972.5 403C977.183 403 981 399.183 981 394.5C981 389.817 977.183 386 972.5 386C970.404 386 968.484 386.769 967 388.033C965.516 386.769 963.596 386 961.5 386C959.404 386 957.484 386.769 956 388.033C954.516 386.769 952.596 386 950.5 386C948.404 386 946.484 386.769 945 388.033C943.516 386.769 941.596 386 939.5 386ZM939.5 388C941.081 388 942.526 388.559 943.65 389.49C942.618 390.897 942 392.627 942 394.5C942 396.373 942.618 398.103 943.65 399.51C942.526 400.441 941.081 401 939.5 401C935.898 401 933 398.102 933 394.5C933 390.898 935.898 388 939.5 388ZM950.5 388C952.081 388 953.526 388.559 954.65 389.49C953.618 390.897 953 392.627 953 394.5C953 396.373 953.618 398.103 954.65 399.51C953.526 400.441 952.081 401 950.5 401C948.919 401 947.474 400.441 946.35 399.51C947.382 398.103 948 396.373 948 394.5C948 392.627 947.382 390.897 946.35 389.49C947.474 388.559 948.919 388 950.5 388ZM961.5 388C963.081 388 964.526 388.559 965.65 389.49C964.618 390.897 964 392.627 964 394.5C964 396.373 964.618 398.103 965.65 399.51C964.526 400.441 963.081 401 961.5 401C959.919 401 958.474 400.441 957.35 399.51C958.382 398.103 959 396.373 959 394.5C959 392.627 958.382 390.897 957.35 389.49C958.474 388.559 959.919 388 961.5 388ZM972.5 388C976.102 388 979 390.898 979 394.5C979 398.102 976.102 401 972.5 401C970.919 401 969.474 400.441 968.35 399.51C969.382 398.103 970 396.373 970 394.5C970 392.627 969.382 390.897 968.35 389.49C969.474 388.559 970.919 388 972.5 388ZM945 391.037C945.631 392.039 946 393.223 946 394.5C946 395.777 945.631 396.961 945 397.963C944.369 396.961 944 395.777 944 394.5C944 393.223 944.369 392.039 945 391.037ZM956 391.037C956.631 392.039 957 393.223 957 394.5C957 395.777 956.631 396.961 956 397.963C955.369 396.961 955 395.777 955 394.5C955 393.223 955.369 392.039 956 391.037ZM967 391.037C967.631 392.039 968 393.223 968 394.5C968 395.777 967.631 396.961 967 397.963C966.369 396.961 966 395.777 966 394.5C966 393.223 966.369 392.039 967 391.037Z" fill="white"/>
      <path id="A" d="M953.106 420.644L952.59 422H954.04H961.384H962.102L962.332 421.319L963.559 417.68H971.155L972.35 421.312L972.576 422H973.3H980.788H982.233L981.724 420.648L972.076 395.016L971.832 394.368H971.14H963.796H963.107L962.862 395.012L953.106 420.644ZM967.404 406.276L968.65 410.064H966.127L967.404 406.276Z" fill="white" stroke="black" stroke-width="2"/>
    </g>
  </g>
</svg>