<?xml version="1.0" encoding="UTF-8" standalone="yes"?>
<svg width="120" height="120" viewBox="0 0 120 120" fill="none" xmlns="http://www.w3.org/2000/svg">
  <g id="Cupra">
    <g id="Frame 6">
      <path id="Vector_6" d="M969.401 282.009C966.913 283.18 964.426 284.352 961.938 285.522H961.936C963.453 286.08 964.969 286.641 966.485 287.203C967.423 287.551 968.536 287.988 968.946 289.055C969.367 290.15 968.748 291.127 968.201 291.951C967.373 293.199 966.544 294.446 965.716 295.693C962.77 300.131 959.822 304.569 956.865 309C956.859 307.632 956.856 306.263 956.853 304.895V304.893C957.984 301.472 959.088 298.043 960.153 294.601C960.455 293.624 960.754 292.646 961.049 291.667C961.226 291.077 961.111 290.724 960.521 290.443C959.015 289.728 957.507 289.013 955.999 288.299C954.491 289.013 952.984 289.728 951.477 290.443C950.887 290.724 950.772 291.077 950.949 291.667C951.245 292.646 951.544 293.624 951.846 294.601C952.91 298.043 954.014 301.471 955.146 304.893L955.145 304.895C955.142 306.263 955.139 307.632 955.133 309C952.176 304.569 949.229 300.131 946.282 295.693C945.454 294.446 944.626 293.199 943.799 291.951C943.251 291.127 942.631 290.15 943.052 289.055C943.463 287.988 944.575 287.551 945.514 287.203C947.029 286.641 948.545 286.08 950.062 285.522H950.061C947.573 284.352 945.085 283.18 942.597 282.009L942.594 282.006C943.37 283.255 944.145 284.506 944.921 285.757C943.637 286.231 942.355 286.704 941.073 287.18C938.38 283.122 935.684 279.065 933 275C940.658 277.613 948.309 280.246 955.999 282.771C963.691 280.246 971.341 277.613 979 275C976.316 279.065 973.619 283.122 970.925 287.18C969.644 286.705 968.361 286.231 967.078 285.757C967.853 284.507 968.629 283.256 969.405 282.006" fill="white"/>
    </g>
  </g>
</svg>