<?xml version="1.0" encoding="UTF-8" standalone="yes"?>
<svg width="119" height="119" viewBox="0 0 119 119" fill="none" xmlns="http://www.w3.org/2000/svg">
  <g id="Cupra Born" transform="translate(-656.5 -584.5)">
    <g id="Frame 6">
      <g id="Vector_13">
        <mask id="path-39-outside-23_0_1" maskUnits="userSpaceOnUse" x="685" y="629" width="62" height="50" fill="black">
          <rect fill="white" x="685" y="629" width="62" height="50"/>
          <path d="M729.401 642.009C726.913 643.18 724.426 644.352 721.938 645.522H721.936C723.453 646.08 724.969 646.641 726.485 647.203C727.423 647.551 728.536 647.988 728.946 649.055C729.367 650.15 728.748 651.127 728.201 651.951C727.373 653.199 726.544 654.446 725.716 655.693C722.77 660.131 719.822 664.569 716.865 669C716.859 667.632 716.856 666.263 716.853 664.895V664.893C717.984 661.472 719.088 658.043 720.153 654.601C720.455 653.624 720.754 652.646 721.049 651.667C721.226 651.077 721.111 650.724 720.521 650.443C719.015 649.728 717.507 649.013 715.999 648.299C714.491 649.013 712.984 649.728 711.477 650.443C710.887 650.724 710.772 651.077 710.949 651.667C711.245 652.646 711.544 653.624 711.846 654.601C712.91 658.043 714.014 661.471 715.146 664.893L715.145 664.895C715.142 666.263 715.139 667.632 715.133 669C712.176 664.569 709.229 660.131 706.282 655.693C705.454 654.446 704.626 653.199 703.799 651.951C703.251 651.127 702.631 650.15 703.052 649.055C703.463 647.988 704.575 647.551 705.514 647.203C707.029 646.641 708.545 646.08 710.062 645.522H710.061C707.573 644.352 705.085 643.18 702.597 642.009L702.594 642.006C703.37 643.255 704.145 644.506 704.921 645.757C703.637 646.231 702.355 646.704 701.073 647.18C698.38 643.122 695.684 639.065 693 635C700.658 637.613 708.309 640.246 715.999 642.771C723.691 640.246 731.341 637.613 739 635C736.316 639.065 733.619 643.122 730.925 647.18C729.644 646.705 728.361 646.231 727.078 645.757C727.853 644.507 728.629 643.256 729.405 642.006"/>
        </mask>
        <path d="M729.401 642.009C726.913 643.18 724.426 644.352 721.938 645.522H721.936C723.453 646.08 724.969 646.641 726.485 647.203C727.423 647.551 728.536 647.988 728.946 649.055C729.367 650.15 728.748 651.127 728.201 651.951C727.373 653.199 726.544 654.446 725.716 655.693C722.77 660.131 719.822 664.569 716.865 669C716.859 667.632 716.856 666.263 716.853 664.895V664.893C717.984 661.472 719.088 658.043 720.153 654.601C720.455 653.624 720.754 652.646 721.049 651.667C721.226 651.077 721.111 650.724 720.521 650.443C719.015 649.728 717.507 649.013 715.999 648.299C714.491 649.013 712.984 649.728 711.477 650.443C710.887 650.724 710.772 651.077 710.949 651.667C711.245 652.646 711.544 653.624 711.846 654.601C712.91 658.043 714.014 661.471 715.146 664.893L715.145 664.895C715.142 666.263 715.139 667.632 715.133 669C712.176 664.569 709.229 660.131 706.282 655.693C705.454 654.446 704.626 653.199 703.799 651.951C703.251 651.127 702.631 650.15 703.052 649.055C703.463 647.988 704.575 647.551 705.514 647.203C707.029 646.641 708.545 646.08 710.062 645.522H710.061C707.573 644.352 705.085 643.18 702.597 642.009L702.594 642.006C703.37 643.255 704.145 644.506 704.921 645.757C703.637 646.231 702.355 646.704 701.073 647.18C698.38 643.122 695.684 639.065 693 635C700.658 637.613 708.309 640.246 715.999 642.771C723.691 640.246 731.341 637.613 739 635C736.316 639.065 733.619 643.122 730.925 647.18C729.644 646.705 728.361 646.231 727.078 645.757C727.853 644.507 728.629 643.256 729.405 642.006" fill="white"/>
        <path d="M721.938 645.522V648.522H722.608L723.215 648.237L721.938 645.522ZM721.936 645.522V642.522L720.9 648.338L721.936 645.522ZM726.485 647.203L725.441 650.016L725.441 650.016L726.485 647.203ZM728.946 649.055L726.145 650.13L726.146 650.131L728.946 649.055ZM728.201 651.951L725.701 650.292L725.701 650.292L728.201 651.951ZM725.716 655.693L723.217 654.033L723.217 654.034L725.716 655.693ZM716.865 669L713.865 669.012L713.903 678.842L719.36 670.665L716.865 669ZM716.853 664.895L713.853 664.895L713.853 664.901L716.853 664.895ZM716.853 664.893L714.005 663.951L713.853 664.41V664.893H716.853ZM720.153 654.601L723.019 655.488L723.019 655.487L720.153 654.601ZM721.049 651.667L723.921 652.532L723.921 652.532L721.049 651.667ZM720.521 650.443L721.812 647.735L721.808 647.733L720.521 650.443ZM715.999 648.299L717.282 645.588L715.999 644.98L714.715 645.588L715.999 648.299ZM711.477 650.443L710.191 647.733L710.185 647.735L711.477 650.443ZM710.949 651.667L708.076 652.53L708.078 652.535L710.949 651.667ZM711.846 654.601L714.712 653.715L714.712 653.714L711.846 654.601ZM715.146 664.893L718.009 665.787L718.297 664.867L717.994 663.951L715.146 664.893ZM715.145 664.895L712.281 664L712.146 664.435L712.145 664.89L715.145 664.895ZM715.133 669L712.638 670.665L718.095 678.842L718.133 669.012L715.133 669ZM706.282 655.693L708.781 654.033L708.781 654.033L706.282 655.693ZM703.799 651.951L706.299 650.294L706.298 650.292L703.799 651.951ZM703.052 649.055L700.252 647.977L700.252 647.978L703.052 649.055ZM705.514 647.203L706.557 650.016L706.557 650.016L705.514 647.203ZM710.062 645.522L711.098 648.338L710.062 642.522V645.522ZM710.061 645.522L708.784 648.237L709.391 648.522H710.061V645.522ZM702.597 642.009L700.518 644.171L700.873 644.513L701.319 644.723L702.597 642.009ZM702.594 642.006L704.673 639.843L700.046 643.589L702.594 642.006ZM704.921 645.757L705.959 648.572L709.405 647.3L707.471 644.177L704.921 645.757ZM701.073 647.18L698.574 648.839L699.888 650.819L702.116 649.993L701.073 647.18ZM693 635L693.969 632.161L685.657 629.325L690.497 636.653L693 635ZM715.999 642.771L715.064 645.621L715.999 645.929L716.935 645.621L715.999 642.771ZM739 635L741.503 636.653L746.343 629.325L738.031 632.161L739 635ZM730.925 647.18L729.882 649.993L732.11 650.819L733.425 648.839L730.925 647.18ZM727.078 645.757L724.528 644.177L722.593 647.3L726.039 648.572L727.078 645.757ZM728.123 639.295C725.635 640.466 723.148 641.637 720.661 642.808L723.215 648.237C725.703 647.066 728.191 645.894 730.679 644.723L728.123 639.295ZM721.938 642.522H721.936V648.522H721.938V642.522ZM720.9 648.338C722.414 648.895 723.928 649.454 725.441 650.016L727.528 644.391C726.01 643.827 724.492 643.266 722.972 642.707L720.9 648.338ZM725.441 650.016C725.674 650.102 725.847 650.168 726.002 650.236C726.154 650.303 726.244 650.353 726.296 650.386C726.346 650.418 726.331 650.416 726.29 650.371C726.243 650.318 726.186 650.235 726.145 650.13L731.747 647.979C730.776 645.452 728.215 644.645 727.528 644.39L725.441 650.016ZM726.146 650.131C726.104 650.022 726.082 649.892 726.085 649.768C726.089 649.654 726.112 649.595 726.107 649.608C726.101 649.626 726.075 649.69 726.003 649.816C725.929 649.945 725.837 650.088 725.701 650.292L730.7 653.611C731.093 653.019 732.801 650.722 731.746 647.978L726.146 650.131ZM725.701 650.292C724.873 651.54 724.045 652.787 723.217 654.033L728.215 657.353C729.044 656.106 729.872 654.858 730.7 653.611L725.701 650.292ZM723.217 654.034C720.271 658.471 717.325 662.907 714.369 667.335L719.36 670.665C722.32 666.231 725.27 661.79 728.216 657.352L723.217 654.034ZM719.865 668.988C719.859 667.623 719.856 666.257 719.853 664.889L713.853 664.901C713.856 666.27 713.859 667.641 713.865 669.012L719.865 668.988ZM719.853 664.895V664.893H713.853V664.895H719.853ZM719.702 665.834C720.837 662.398 721.947 658.951 723.019 655.488L717.287 653.715C716.229 657.134 715.131 660.545 714.005 663.951L719.702 665.834ZM723.019 655.487C723.323 654.504 723.624 653.519 723.921 652.532L718.176 650.802C717.884 651.773 717.587 652.744 717.286 653.716L723.019 655.487ZM723.921 652.532C724.086 651.984 724.314 650.944 723.851 649.808C723.371 648.628 722.433 648.031 721.812 647.735L719.231 653.151C719.199 653.136 718.614 652.856 718.294 652.07C718.144 651.702 718.117 651.37 718.127 651.142C718.135 650.933 718.175 650.806 718.176 650.802L723.921 652.532ZM721.808 647.733C720.3 647.017 718.792 646.302 717.282 645.588L714.716 651.011C716.223 651.724 717.729 652.438 719.235 653.153L721.808 647.733ZM714.715 645.588C713.207 646.302 711.699 647.017 710.191 647.733L712.763 653.153C714.27 652.438 715.776 651.724 717.283 651.011L714.715 645.588ZM710.185 647.735C709.564 648.031 708.627 648.629 708.147 649.808C707.685 650.943 707.912 651.983 708.076 652.53L713.822 650.804C713.824 650.807 713.863 650.934 713.872 651.143C713.881 651.371 713.854 651.702 713.704 652.07C713.385 652.855 712.799 653.136 712.768 653.151L710.185 647.735ZM708.078 652.535C708.375 653.519 708.675 654.504 708.981 655.489L714.712 653.714C714.412 652.744 714.115 651.773 713.821 650.799L708.078 652.535ZM708.98 655.487C710.051 658.951 711.161 662.398 712.297 665.835L717.994 663.951C716.867 660.544 715.769 657.134 714.712 653.715L708.98 655.487ZM712.282 663.998L712.281 664L718.008 665.79L718.009 665.787L712.282 663.998ZM712.145 664.89C712.142 666.256 712.139 667.623 712.133 668.988L718.133 669.012C718.139 667.641 718.142 666.27 718.145 664.901L712.145 664.89ZM717.629 667.335C714.674 662.907 711.728 658.472 708.781 654.033L703.783 657.353C706.73 661.79 709.678 666.231 712.638 670.665L717.629 667.335ZM708.781 654.033C707.953 652.787 707.125 651.54 706.299 650.294L701.298 653.609C702.126 654.858 702.955 656.106 703.783 657.353L708.781 654.033ZM706.298 650.292C706.162 650.087 706.07 649.945 705.996 649.815C705.924 649.689 705.898 649.625 705.891 649.607C705.887 649.593 705.91 649.653 705.913 649.767C705.917 649.892 705.894 650.022 705.852 650.131L700.252 647.978C699.197 650.723 700.908 653.021 701.299 653.611L706.298 650.292ZM705.852 650.133C705.812 650.236 705.755 650.319 705.708 650.371C705.667 650.416 705.653 650.418 705.703 650.386C705.755 650.353 705.845 650.303 705.997 650.236C706.152 650.168 706.325 650.102 706.557 650.016L704.47 644.39C703.781 644.646 701.224 645.453 700.252 647.977L705.852 650.133ZM706.557 650.016C708.071 649.454 709.584 648.895 711.098 648.338L709.026 642.707C707.506 643.266 705.988 643.827 704.47 644.391L706.557 650.016ZM710.062 642.522H710.061V648.522H710.062V642.522ZM711.338 642.808C708.85 641.637 706.363 640.466 703.875 639.295L701.319 644.723C703.807 645.894 706.295 647.066 708.784 648.237L711.338 642.808ZM704.677 639.847L704.673 639.843L700.514 644.168L700.518 644.171L704.677 639.847ZM700.046 643.589C700.821 644.837 701.595 646.086 702.37 647.337L707.471 644.177C706.696 642.927 705.92 641.674 705.142 640.422L700.046 643.589ZM703.882 642.943C702.599 643.416 701.315 643.891 700.03 644.367L702.116 649.993C703.396 649.518 704.676 649.045 705.959 648.572L703.882 642.943ZM703.573 645.52C700.878 641.461 698.185 637.408 695.503 633.347L690.497 636.653C693.183 640.722 695.881 644.783 698.574 648.839L703.573 645.52ZM692.031 637.839C699.679 640.449 707.352 643.089 715.064 645.621L716.935 639.921C709.266 637.403 701.638 634.777 693.969 632.161L692.031 637.839ZM716.935 645.621C724.648 643.089 732.321 640.448 739.969 637.839L738.031 632.161C730.361 634.777 722.734 637.403 715.064 639.921L716.935 645.621ZM736.497 633.347C733.815 637.408 731.121 641.461 728.426 645.521L733.425 648.839C736.117 644.783 738.816 640.722 741.503 636.653L736.497 633.347ZM731.969 644.367C730.685 643.891 729.399 643.416 728.117 642.943L726.039 648.572C727.323 649.046 728.603 649.518 729.882 649.993L731.969 644.367ZM729.628 647.337C730.403 646.088 731.178 644.837 731.954 643.588L726.856 640.424C726.08 641.674 725.303 642.926 724.528 644.177L729.628 647.337Z" fill="black" mask="url(#path-39-outside-23_0_1)"/>
      </g>
    </g>
  </g>
</svg>