<?xml version="1.0" encoding="UTF-8" standalone="yes"?>
<svg width="119" height="119" viewBox="0 0 119 119" fill="none" xmlns="http://www.w3.org/2000/svg">
  <g id="Ford Transit Custom 9 Seater" transform="translate(-656.5 -1184.5)">
    <g id="Vector_31">
      <mask id="path-85-outside-48_0_1" maskUnits="userSpaceOnUse" x="691" y="1226" width="51" height="36" fill="black">
        <rect fill="white" x="691" y="1226" width="51" height="36"/>
        <path d="M699.287 1229C696.377 1229.11 694 1231.44 694 1234.2V1252.13C694 1253.48 695.143 1254.6 696.531 1254.6H698.584C699.017 1257.09 701.228 1259 703.9 1259C706.572 1259 708.783 1257.09 709.216 1254.6H723.784C724.217 1257.09 726.428 1259 729.1 1259C731.772 1259 733.987 1257.09 734.416 1254.6H734.781C736.82 1254.6 739 1253.4 739 1250.81V1243.88C739 1243.05 738.821 1242.06 738.494 1241.1C738.476 1241.06 736.936 1236.9 735.597 1233.76C734.155 1230.28 732.071 1229 727.919 1229H699.287ZM700.581 1233.48H706.319C707.489 1233.48 708.4 1234.37 708.4 1235.52V1239.37C708.4 1240.51 707.489 1241.4 706.319 1241.4H700.581C699.411 1241.4 698.5 1240.51 698.5 1239.37V1235.52C698.5 1234.37 699.411 1233.48 700.581 1233.48ZM714.081 1233.48H720.719C721.889 1233.48 722.8 1234.37 722.8 1235.52V1239.37C722.8 1240.51 721.889 1241.4 720.719 1241.4H714.081C712.911 1241.4 712 1240.51 712 1239.37V1235.52C712 1234.37 712.911 1233.48 714.081 1233.48ZM728.481 1233.48H733.487C733.646 1233.77 733.793 1234.1 733.937 1234.44C735.066 1237.09 736.332 1240.44 736.694 1241.4H728.481C727.311 1241.4 726.4 1240.51 726.4 1239.37V1235.52C726.4 1234.37 727.311 1233.48 728.481 1233.48ZM703.9 1250.2C705.886 1250.2 707.5 1251.78 707.5 1253.72C707.5 1254.03 707.433 1254.32 707.359 1254.6C706.959 1256.12 705.573 1257.24 703.9 1257.24C702.227 1257.24 700.841 1256.12 700.441 1254.6C700.367 1254.32 700.3 1254.03 700.3 1253.72C700.3 1251.78 701.914 1250.2 703.9 1250.2ZM729.1 1250.2C731.086 1250.2 732.7 1251.78 732.7 1253.72C732.7 1254.03 732.633 1254.32 732.559 1254.6C732.159 1256.12 730.773 1257.24 729.1 1257.24C727.427 1257.24 726.041 1256.12 725.641 1254.6C725.567 1254.32 725.5 1254.03 725.5 1253.72C725.5 1251.78 727.114 1250.2 729.1 1250.2Z"/>
      </mask>
      <path d="M699.287 1229C696.377 1229.11 694 1231.44 694 1234.2V1252.13C694 1253.48 695.143 1254.6 696.531 1254.6H698.584C699.017 1257.09 701.228 1259 703.9 1259C706.572 1259 708.783 1257.09 709.216 1254.6H723.784C724.217 1257.09 726.428 1259 729.1 1259C731.772 1259 733.987 1257.09 734.416 1254.6H734.781C736.82 1254.6 739 1253.4 739 1250.81V1243.88C739 1243.05 738.821 1242.06 738.494 1241.1C738.476 1241.06 736.936 1236.9 735.597 1233.76C734.155 1230.28 732.071 1229 727.919 1229H699.287ZM700.581 1233.48H706.319C707.489 1233.48 708.4 1234.37 708.4 1235.52V1239.37C708.4 1240.51 707.489 1241.4 706.319 1241.4H700.581C699.411 1241.4 698.5 1240.51 698.5 1239.37V1235.52C698.5 1234.37 699.411 1233.48 700.581 1233.48ZM714.081 1233.48H720.719C721.889 1233.48 722.8 1234.37 722.8 1235.52V1239.37C722.8 1240.51 721.889 1241.4 720.719 1241.4H714.081C712.911 1241.4 712 1240.51 712 1239.37V1235.52C712 1234.37 712.911 1233.48 714.081 1233.48ZM728.481 1233.48H733.487C733.646 1233.77 733.793 1234.1 733.937 1234.44C735.066 1237.09 736.332 1240.44 736.694 1241.4H728.481C727.311 1241.4 726.4 1240.51 726.4 1239.37V1235.52C726.4 1234.37 727.311 1233.48 728.481 1233.48ZM703.9 1250.2C705.886 1250.2 707.5 1251.78 707.5 1253.72C707.5 1254.03 707.433 1254.32 707.359 1254.6C706.959 1256.12 705.573 1257.24 703.9 1257.24C702.227 1257.24 700.841 1256.12 700.441 1254.6C700.367 1254.32 700.3 1254.03 700.3 1253.72C700.3 1251.78 701.914 1250.2 703.9 1250.2ZM729.1 1250.2C731.086 1250.2 732.7 1251.78 732.7 1253.72C732.7 1254.03 732.633 1254.32 732.559 1254.6C732.159 1256.12 730.773 1257.24 729.1 1257.24C727.427 1257.24 726.041 1256.12 725.641 1254.6C725.567 1254.32 725.5 1254.03 725.5 1253.72C725.5 1251.78 727.114 1250.2 729.1 1250.2Z" fill="white"/>
      <path d="M699.287 1229C696.377 1229.11 694 1231.44 694 1234.2V1252.13C694 1253.48 695.143 1254.6 696.531 1254.6H698.584C699.017 1257.09 701.228 1259 703.9 1259C706.572 1259 708.783 1257.09 709.216 1254.6H723.784C724.217 1257.09 726.428 1259 729.1 1259C731.772 1259 733.987 1257.09 734.416 1254.6H734.781C736.82 1254.6 739 1253.4 739 1250.81V1243.88C739 1243.05 738.821 1242.06 738.494 1241.1C738.476 1241.06 736.936 1236.9 735.597 1233.76C734.155 1230.28 732.071 1229 727.919 1229H699.287ZM700.581 1233.48H706.319C707.489 1233.48 708.4 1234.37 708.4 1235.52V1239.37C708.4 1240.51 707.489 1241.4 706.319 1241.4H700.581C699.411 1241.4 698.5 1240.51 698.5 1239.37V1235.52C698.5 1234.37 699.411 1233.48 700.581 1233.48ZM714.081 1233.48H720.719C721.889 1233.48 722.8 1234.37 722.8 1235.52V1239.37C722.8 1240.51 721.889 1241.4 720.719 1241.4H714.081C712.911 1241.4 712 1240.51 712 1239.37V1235.52C712 1234.37 712.911 1233.48 714.081 1233.48ZM728.481 1233.48H733.487C733.646 1233.77 733.793 1234.1 733.937 1234.44C735.066 1237.09 736.332 1240.44 736.694 1241.4H728.481C727.311 1241.4 726.4 1240.51 726.4 1239.37V1235.52C726.4 1234.37 727.311 1233.48 728.481 1233.48ZM703.9 1250.2C705.886 1250.2 707.5 1251.78 707.5 1253.72C707.5 1254.03 707.433 1254.32 707.359 1254.6C706.959 1256.12 705.573 1257.24 703.9 1257.24C702.227 1257.24 700.841 1256.12 700.441 1254.6C700.367 1254.32 700.3 1254.03 700.3 1253.72C700.3 1251.78 701.914 1250.2 703.9 1250.2ZM729.1 1250.2C731.086 1250.2 732.7 1251.78 732.7 1253.72C732.7 1254.03 732.633 1254.32 732.559 1254.6C732.159 1256.12 730.773 1257.24 729.1 1257.24C727.427 1257.24 726.041 1256.12 725.641 1254.6C725.567 1254.32 725.5 1254.03 725.5 1253.72C725.5 1251.78 727.114 1250.2 729.1 1250.2Z" stroke="black" stroke-width="6" mask="url(#path-85-outside-48_0_1)"/>
    </g>
    <g id="Vector_32">
      <mask id="path-86-outside-49_0_1" maskUnits="userSpaceOnUse" x="709" y="1245" width="41" height="20" fill="black">
        <rect fill="white" x="709" y="1245" width="41" height="20"/>
        <path d="M744.433 1252.1C744.325 1252.1 744.269 1252.11 744.217 1252.22C744.05 1252.55 742 1255.76 741.619 1256.38C741.554 1256.48 741.476 1256.46 741.467 1256.36C741.428 1255.99 741.122 1255.56 740.64 1255.36C740.273 1255.2 739.914 1255.17 739.541 1255.23C738.867 1255.32 738.266 1255.69 737.738 1256.11C736.942 1256.74 736.256 1257.56 735.369 1258.17C734.885 1258.5 734.223 1258.78 733.78 1258.35C733.378 1257.97 733.424 1257.1 734.038 1256.44C734.102 1256.37 734.18 1256.42 734.168 1256.49C734.11 1256.79 734.181 1257.09 734.4 1257.3C734.668 1257.55 735.051 1257.58 735.379 1257.41C735.766 1257.21 735.994 1256.82 736.06 1256.39C736.163 1255.7 735.661 1255.1 735.032 1255.06C734.522 1255.02 734.033 1255.2 733.556 1255.61C733.318 1255.82 733.181 1255.97 732.975 1256.28C732.924 1256.36 732.847 1256.36 732.849 1256.25C732.874 1255.38 732.528 1254.89 731.837 1254.87C731.302 1254.86 730.73 1255.16 730.283 1255.54C729.794 1255.95 729.367 1256.49 728.908 1257C728.851 1257.06 728.802 1257.06 728.786 1256.94C728.772 1256.36 728.633 1255.8 728.376 1255.4C728.286 1255.27 728.096 1255.2 727.936 1255.29C727.861 1255.33 727.604 1255.46 727.417 1255.61C727.324 1255.69 727.288 1255.81 727.328 1255.96C727.576 1256.82 727.522 1257.8 727.186 1258.63C726.878 1259.39 726.28 1260.07 725.577 1260.31C725.114 1260.46 724.632 1260.38 724.334 1259.96C723.925 1259.36 724.09 1258.33 724.699 1257.48C725.238 1256.73 726.017 1256.25 726.794 1255.94C726.885 1255.9 726.904 1255.84 726.878 1255.76C726.836 1255.63 726.769 1255.45 726.741 1255.36C726.67 1255.17 726.47 1255.13 726.227 1255.16C725.663 1255.23 725.153 1255.43 724.65 1255.71C723.334 1256.45 722.673 1257.88 722.383 1258.64C722.244 1259 722.125 1259.23 721.971 1259.44C721.764 1259.71 721.503 1259.96 721.026 1260.39C720.983 1260.43 720.951 1260.52 720.987 1260.59C721.036 1260.7 721.284 1261.06 721.354 1261.1C721.431 1261.14 721.521 1261.08 721.557 1261.05C721.891 1260.82 722.29 1260.44 722.485 1260.19C722.554 1260.1 722.624 1260.14 722.66 1260.27C722.843 1260.95 723.32 1261.51 723.98 1261.74C725.187 1262.16 726.44 1261.55 727.385 1260.48C727.986 1259.79 728.203 1259.36 728.433 1259.06C728.824 1258.55 729.594 1257.42 730.51 1256.7C730.847 1256.43 731.245 1256.23 731.445 1256.36C731.605 1256.47 731.657 1256.72 731.4 1257.21C730.465 1259 729.089 1261.09 728.837 1261.6C728.791 1261.69 728.831 1261.76 728.919 1261.76C729.408 1261.75 729.893 1261.76 730.338 1261.76C730.412 1261.75 730.445 1261.72 730.482 1261.66C731.2 1260.49 731.875 1259.37 732.598 1258.22C732.639 1258.15 732.676 1258.2 732.678 1258.23C732.693 1258.5 732.756 1258.87 732.908 1259.11C733.181 1259.55 733.569 1259.74 733.999 1259.75C734.341 1259.75 734.515 1259.7 734.884 1259.55C735.184 1259.44 735.425 1259.28 735.61 1259.14C735.718 1259.07 735.737 1259.2 735.734 1259.22C735.568 1260.15 735.773 1261.25 736.659 1261.71C737.72 1262.26 738.885 1261.49 739.555 1260.8C739.621 1260.73 739.691 1260.74 739.698 1260.88C739.712 1261.14 739.827 1261.46 740.036 1261.68C740.598 1262.27 741.732 1262.03 742.869 1261.11C743.6 1260.52 744.364 1259.69 745.055 1258.81C745.08 1258.78 745.099 1258.72 745.05 1258.67C744.945 1258.55 744.793 1258.42 744.688 1258.32C744.641 1258.28 744.572 1258.29 744.531 1258.32C743.823 1259.02 743.186 1259.83 742.265 1260.49C741.955 1260.71 741.46 1260.9 741.238 1260.58C741.151 1260.46 741.161 1260.29 741.246 1260.07C741.515 1259.37 745.765 1252.62 745.986 1252.22C746.023 1252.15 745.984 1252.1 745.9 1252.1C745.463 1252.1 744.889 1252.1 744.433 1252.1M737.697 1260.4C737.479 1260.28 737.384 1259.96 737.389 1259.7C737.4 1258.98 737.709 1258.23 738.281 1257.5C738.978 1256.6 739.749 1256.14 740.255 1256.39C740.779 1256.65 740.612 1257.28 740.377 1257.78C740.36 1257.82 740.359 1257.85 740.368 1257.88C740.377 1257.94 740.441 1257.99 740.505 1258.01C740.527 1258.02 740.539 1258.03 740.514 1258.09C740.333 1258.49 740.167 1258.73 739.94 1259.08C739.732 1259.4 739.498 1259.66 739.213 1259.9C738.883 1260.18 738.453 1260.49 738.048 1260.49C737.928 1260.49 737.81 1260.46 737.697 1260.4Z"/>
        <path d="M720.619 1248.05C718.008 1248.28 715.522 1249.82 715.517 1252.15C715.515 1253.33 716.319 1254.29 717.566 1254.25C719.032 1254.19 720.235 1252.97 720.865 1251.42C721.104 1250.84 720.661 1250.59 720.45 1250.93C720.074 1251.54 719.544 1252.01 718.972 1252.3C718.282 1252.66 717.545 1252.56 717.322 1251.98C717.008 1251.15 717.66 1249.92 719.15 1249.34C721.303 1248.5 723.555 1249.05 725.722 1249.48C725.753 1249.48 725.868 1249.55 725.766 1249.6C725.378 1249.82 724.996 1250 724.401 1250.54C723.974 1250.92 723.416 1251.43 722.983 1251.98C722.555 1252.53 722.25 1253.01 721.848 1253.55C721.792 1253.63 721.723 1253.63 721.724 1253.63C720.744 1253.8 719.784 1253.91 718.905 1254.55C718.723 1254.68 718.644 1254.92 718.755 1255.09C718.853 1255.25 719.08 1255.27 719.237 1255.15C719.784 1254.72 720.346 1254.52 720.99 1254.5C721.019 1254.51 721.032 1254.51 721.04 1254.53C721.045 1254.54 721.042 1254.56 721.03 1254.58C720.064 1255.97 719.823 1256.29 719.096 1257.16C718.725 1257.6 718.359 1257.98 717.951 1258.37C716.302 1259.97 714.528 1259.94 713.891 1258.94C713.511 1258.34 713.561 1257.71 713.811 1257.18C714.117 1256.54 714.738 1256.07 715.253 1255.79C715.444 1255.69 715.499 1255.44 715.308 1255.2C715.186 1255.05 714.891 1255.02 714.671 1255.07C713.995 1255.2 713.196 1255.73 712.725 1256.37C712.194 1257.09 711.928 1257.97 712.017 1258.95C712.177 1260.72 713.573 1261.74 715.158 1261.73C716.419 1261.72 717.607 1261.32 719.037 1259.8C720.369 1258.39 721.583 1256.28 722.719 1254.32C722.755 1254.26 722.781 1254.23 722.953 1254.2C723.666 1254.11 724.718 1254.01 725.394 1253.96C725.543 1253.96 725.574 1253.96 725.634 1254.04C725.81 1254.27 726.073 1254.46 726.285 1254.58C726.388 1254.64 726.437 1254.67 726.518 1254.67C726.618 1254.68 726.696 1254.62 726.746 1254.56C726.818 1254.48 726.838 1254.37 726.799 1254.3C726.758 1254.23 726.288 1253.96 726.274 1253.85C726.264 1253.78 726.336 1253.76 726.336 1253.76C726.682 1253.65 727.041 1253.41 727.26 1252.98C727.474 1252.55 727.509 1251.98 727.116 1251.66C726.773 1251.38 726.253 1251.42 725.838 1251.81C725.432 1252.19 725.298 1252.74 725.353 1253.22C725.362 1253.3 725.358 1253.33 725.25 1253.34C724.626 1253.39 724.025 1253.41 723.357 1253.45C723.312 1253.45 723.298 1253.42 723.324 1253.39C724.093 1251.99 725.242 1251 726.513 1250.02C726.597 1249.95 726.571 1249.83 726.568 1249.72C728.863 1250.24 731.08 1251.21 733.461 1251.19C734.445 1251.18 735.387 1251.02 736.288 1250.51C737.08 1250.06 737.401 1249.64 737.425 1249.21C737.443 1248.91 737.244 1248.72 736.96 1248.78C734.554 1249.36 732.26 1249.35 729.868 1249.05C727.152 1248.71 724.545 1248 721.843 1248C721.437 1248 721.03 1248.02 720.619 1248.05ZM725.99 1253.03C725.955 1252.77 726.038 1252.41 726.309 1252.16C726.446 1252.03 726.63 1252 726.744 1252.11C726.871 1252.22 726.811 1252.5 726.683 1252.7C726.543 1252.91 726.306 1253.1 726.089 1253.14C726.083 1253.14 726.077 1253.14 726.072 1253.14C726.035 1253.14 726.006 1253.12 725.99 1253.03Z"/>
      </mask>
      <path d="M744.433 1252.1C744.325 1252.1 744.269 1252.11 744.217 1252.22C744.05 1252.55 742 1255.76 741.619 1256.38C741.554 1256.48 741.476 1256.46 741.467 1256.36C741.428 1255.99 741.122 1255.56 740.64 1255.36C740.273 1255.2 739.914 1255.17 739.541 1255.23C738.867 1255.32 738.266 1255.69 737.738 1256.11C736.942 1256.74 736.256 1257.56 735.369 1258.17C734.885 1258.5 734.223 1258.78 733.78 1258.35C733.378 1257.97 733.424 1257.1 734.038 1256.44C734.102 1256.37 734.18 1256.42 734.168 1256.49C734.11 1256.79 734.181 1257.09 734.4 1257.3C734.668 1257.55 735.051 1257.58 735.379 1257.41C735.766 1257.21 735.994 1256.82 736.06 1256.39C736.163 1255.7 735.661 1255.1 735.032 1255.06C734.522 1255.02 734.033 1255.2 733.556 1255.61C733.318 1255.82 733.181 1255.97 732.975 1256.28C732.924 1256.36 732.847 1256.36 732.849 1256.25C732.874 1255.38 732.528 1254.89 731.837 1254.87C731.302 1254.86 730.73 1255.16 730.283 1255.54C729.794 1255.95 729.367 1256.49 728.908 1257C728.851 1257.06 728.802 1257.06 728.786 1256.94C728.772 1256.36 728.633 1255.8 728.376 1255.4C728.286 1255.27 728.096 1255.2 727.936 1255.29C727.861 1255.33 727.604 1255.46 727.417 1255.61C727.324 1255.69 727.288 1255.81 727.328 1255.96C727.576 1256.82 727.522 1257.8 727.186 1258.63C726.878 1259.39 726.28 1260.07 725.577 1260.31C725.114 1260.46 724.632 1260.38 724.334 1259.96C723.925 1259.36 724.09 1258.33 724.699 1257.48C725.238 1256.73 726.017 1256.25 726.794 1255.94C726.885 1255.9 726.904 1255.84 726.878 1255.76C726.836 1255.63 726.769 1255.45 726.741 1255.36C726.67 1255.17 726.47 1255.13 726.227 1255.16C725.663 1255.23 725.153 1255.43 724.65 1255.71C723.334 1256.45 722.673 1257.88 722.383 1258.64C722.244 1259 722.125 1259.23 721.971 1259.44C721.764 1259.71 721.503 1259.96 721.026 1260.39C720.983 1260.43 720.951 1260.52 720.987 1260.59C721.036 1260.7 721.284 1261.06 721.354 1261.1C721.431 1261.14 721.521 1261.08 721.557 1261.05C721.891 1260.82 722.29 1260.44 722.485 1260.19C722.554 1260.1 722.624 1260.14 722.66 1260.27C722.843 1260.95 723.32 1261.51 723.98 1261.74C725.187 1262.16 726.44 1261.55 727.385 1260.48C727.986 1259.79 728.203 1259.36 728.433 1259.06C728.824 1258.55 729.594 1257.42 730.51 1256.7C730.847 1256.43 731.245 1256.23 731.445 1256.36C731.605 1256.47 731.657 1256.72 731.4 1257.21C730.465 1259 729.089 1261.09 728.837 1261.6C728.791 1261.69 728.831 1261.76 728.919 1261.76C729.408 1261.75 729.893 1261.76 730.338 1261.76C730.412 1261.75 730.445 1261.72 730.482 1261.66C731.2 1260.49 731.875 1259.37 732.598 1258.22C732.639 1258.15 732.676 1258.2 732.678 1258.23C732.693 1258.5 732.756 1258.87 732.908 1259.11C733.181 1259.55 733.569 1259.74 733.999 1259.75C734.341 1259.75 734.515 1259.7 734.884 1259.55C735.184 1259.44 735.425 1259.28 735.61 1259.14C735.718 1259.07 735.737 1259.2 735.734 1259.22C735.568 1260.15 735.773 1261.25 736.659 1261.71C737.72 1262.26 738.885 1261.49 739.555 1260.8C739.621 1260.73 739.691 1260.74 739.698 1260.88C739.712 1261.14 739.827 1261.46 740.036 1261.68C740.598 1262.27 741.732 1262.03 742.869 1261.11C743.6 1260.52 744.364 1259.69 745.055 1258.81C745.08 1258.78 745.099 1258.72 745.05 1258.67C744.945 1258.55 744.793 1258.42 744.688 1258.32C744.641 1258.28 744.572 1258.29 744.531 1258.32C743.823 1259.02 743.186 1259.83 742.265 1260.49C741.955 1260.71 741.46 1260.9 741.238 1260.58C741.151 1260.46 741.161 1260.29 741.246 1260.07C741.515 1259.37 745.765 1252.62 745.986 1252.22C746.023 1252.15 745.984 1252.1 745.9 1252.1C745.463 1252.1 744.889 1252.1 744.433 1252.1M737.697 1260.4C737.479 1260.28 737.384 1259.96 737.389 1259.7C737.4 1258.98 737.709 1258.23 738.281 1257.5C738.978 1256.6 739.749 1256.14 740.255 1256.39C740.779 1256.65 740.612 1257.28 740.377 1257.78C740.36 1257.82 740.359 1257.85 740.368 1257.88C740.377 1257.94 740.441 1257.99 740.505 1258.01C740.527 1258.02 740.539 1258.03 740.514 1258.09C740.333 1258.49 740.167 1258.73 739.94 1259.08C739.732 1259.4 739.498 1259.66 739.213 1259.9C738.883 1260.18 738.453 1260.49 738.048 1260.49C737.928 1260.49 737.81 1260.46 737.697 1260.4Z" fill="white"/>
      <path d="M720.619 1248.05C718.008 1248.28 715.522 1249.82 715.517 1252.15C715.515 1253.33 716.319 1254.29 717.566 1254.25C719.032 1254.19 720.235 1252.97 720.865 1251.42C721.104 1250.84 720.661 1250.59 720.45 1250.93C720.074 1251.54 719.544 1252.01 718.972 1252.3C718.282 1252.66 717.545 1252.56 717.322 1251.98C717.008 1251.15 717.66 1249.92 719.15 1249.34C721.303 1248.5 723.555 1249.05 725.722 1249.48C725.753 1249.48 725.868 1249.55 725.766 1249.6C725.378 1249.82 724.996 1250 724.401 1250.54C723.974 1250.92 723.416 1251.43 722.983 1251.98C722.555 1252.53 722.25 1253.01 721.848 1253.55C721.792 1253.63 721.723 1253.63 721.724 1253.63C720.744 1253.8 719.784 1253.91 718.905 1254.55C718.723 1254.68 718.644 1254.92 718.755 1255.09C718.853 1255.25 719.08 1255.27 719.237 1255.15C719.784 1254.72 720.346 1254.52 720.99 1254.5C721.019 1254.51 721.032 1254.51 721.04 1254.53C721.045 1254.54 721.042 1254.56 721.03 1254.58C720.064 1255.97 719.823 1256.29 719.096 1257.16C718.725 1257.6 718.359 1257.98 717.951 1258.37C716.302 1259.97 714.528 1259.94 713.891 1258.94C713.511 1258.34 713.561 1257.71 713.811 1257.18C714.117 1256.54 714.738 1256.07 715.253 1255.79C715.444 1255.69 715.499 1255.44 715.308 1255.2C715.186 1255.05 714.891 1255.02 714.671 1255.07C713.995 1255.2 713.196 1255.73 712.725 1256.37C712.194 1257.09 711.928 1257.97 712.017 1258.95C712.177 1260.72 713.573 1261.74 715.158 1261.73C716.419 1261.72 717.607 1261.32 719.037 1259.8C720.369 1258.39 721.583 1256.28 722.719 1254.32C722.755 1254.26 722.781 1254.23 722.953 1254.2C723.666 1254.11 724.718 1254.01 725.394 1253.96C725.543 1253.96 725.574 1253.96 725.634 1254.04C725.81 1254.27 726.073 1254.46 726.285 1254.58C726.388 1254.64 726.437 1254.67 726.518 1254.67C726.618 1254.68 726.696 1254.62 726.746 1254.56C726.818 1254.48 726.838 1254.37 726.799 1254.3C726.758 1254.23 726.288 1253.96 726.274 1253.85C726.264 1253.78 726.336 1253.76 726.336 1253.76C726.682 1253.65 727.041 1253.41 727.26 1252.98C727.474 1252.55 727.509 1251.98 727.116 1251.66C726.773 1251.38 726.253 1251.42 725.838 1251.81C725.432 1252.19 725.298 1252.74 725.353 1253.22C725.362 1253.3 725.358 1253.33 725.25 1253.34C724.626 1253.39 724.025 1253.41 723.357 1253.45C723.312 1253.45 723.298 1253.42 723.324 1253.39C724.093 1251.99 725.242 1251 726.513 1250.02C726.597 1249.95 726.571 1249.83 726.568 1249.72C728.863 1250.24 731.08 1251.21 733.461 1251.19C734.445 1251.18 735.387 1251.02 736.288 1250.51C737.08 1250.06 737.401 1249.64 737.425 1249.21C737.443 1248.91 737.244 1248.72 736.96 1248.78C734.554 1249.36 732.26 1249.35 729.868 1249.05C727.152 1248.71 724.545 1248 721.843 1248C721.437 1248 721.03 1248.02 720.619 1248.05ZM725.99 1253.03C725.955 1252.77 726.038 1252.41 726.309 1252.16C726.446 1252.03 726.63 1252 726.744 1252.11C726.871 1252.22 726.811 1252.5 726.683 1252.7C726.543 1252.91 726.306 1253.1 726.089 1253.14C726.083 1253.14 726.077 1253.14 726.072 1253.14C726.035 1253.14 726.006 1253.12 725.99 1253.03Z" fill="white"/>
      <path d="M744.217 1252.22L746.901 1253.56L746.909 1253.54L746.916 1253.53L744.217 1252.22ZM741.619 1256.38L744.102 1258.07L744.141 1258.01L744.177 1257.95L741.619 1256.38ZM741.467 1256.36L744.457 1256.11L744.454 1256.08L744.451 1256.05L741.467 1256.36ZM740.64 1255.36L739.467 1258.12L739.473 1258.12L740.64 1255.36ZM739.541 1255.23L739.13 1252.25L739.121 1252.26L739.541 1255.23ZM737.738 1256.11L735.875 1253.76L735.872 1253.76L737.738 1256.11ZM735.369 1258.17L737.058 1260.65L737.061 1260.64L735.369 1258.17ZM733.78 1258.35L735.867 1256.2L735.865 1256.2L733.78 1258.35ZM734.038 1256.44L731.835 1254.4L731.83 1254.4L734.038 1256.44ZM734.168 1256.49L731.221 1255.92L731.221 1255.92L734.168 1256.49ZM734.4 1257.3L732.322 1259.46L732.336 1259.48L732.351 1259.49L734.4 1257.3ZM735.379 1257.41L736.741 1260.08L736.75 1260.08L736.76 1260.07L735.379 1257.41ZM736.06 1256.39L739.026 1256.84L739.027 1256.83L736.06 1256.39ZM735.032 1255.06L735.261 1252.06L735.252 1252.06L735.032 1255.06ZM733.556 1255.61L731.598 1253.34L731.594 1253.35L733.556 1255.61ZM732.975 1256.28L730.486 1254.61L730.48 1254.62L730.474 1254.62L732.975 1256.28ZM732.849 1256.25L729.85 1256.17L729.85 1256.19L729.85 1256.2L732.849 1256.25ZM731.837 1254.87L731.764 1257.87L731.768 1257.87L731.837 1254.87ZM730.283 1255.54L728.363 1253.23L728.356 1253.24L730.283 1255.54ZM728.908 1257L731.132 1259.01L731.137 1259.01L731.142 1259L728.908 1257ZM728.786 1256.94L725.787 1257.01L725.791 1257.17L725.811 1257.32L728.786 1256.94ZM728.376 1255.4L730.897 1253.78L730.893 1253.77L730.89 1253.77L728.376 1255.4ZM727.936 1255.29L729.417 1257.9L729.432 1257.89L729.446 1257.88L727.936 1255.29ZM727.417 1255.61L725.485 1253.32L725.475 1253.33L725.466 1253.34L727.417 1255.61ZM727.328 1255.96L724.436 1256.76L724.44 1256.77L724.445 1256.79L727.328 1255.96ZM727.186 1258.63L729.966 1259.76L729.967 1259.76L727.186 1258.63ZM725.577 1260.31L724.638 1257.46L724.634 1257.46L725.577 1260.31ZM724.334 1259.96L721.866 1261.66L721.871 1261.67L724.334 1259.96ZM724.699 1257.48L722.261 1255.73L722.256 1255.74L724.699 1257.48ZM726.794 1255.94L727.9 1258.73L727.907 1258.73L727.915 1258.72L726.794 1255.94ZM726.878 1255.76L724.018 1256.67L724.022 1256.68L726.878 1255.76ZM726.741 1255.36L729.59 1254.42L729.577 1254.38L729.564 1254.35L726.741 1255.36ZM726.227 1255.16L725.894 1252.18L725.878 1252.18L725.863 1252.18L726.227 1255.16ZM724.65 1255.71L723.186 1253.09L723.185 1253.1L724.65 1255.71ZM722.383 1258.64L725.188 1259.7L725.188 1259.7L722.383 1258.64ZM721.971 1259.44L724.358 1261.25L724.362 1261.25L721.971 1259.44ZM721.026 1260.39L719 1258.18L718.984 1258.19L718.969 1258.21L721.026 1260.39ZM720.987 1260.59L718.262 1261.85L718.265 1261.86L720.987 1260.59ZM721.354 1261.1L722.722 1258.43L722.68 1258.41L722.637 1258.39L721.354 1261.1ZM721.557 1261.05L719.823 1258.61L719.801 1258.62L719.78 1258.64L721.557 1261.05ZM722.485 1260.19L720.138 1258.32L720.121 1258.34L720.105 1258.36L722.485 1260.19ZM722.66 1260.27L725.557 1259.49L725.555 1259.48L722.66 1260.27ZM723.98 1261.74L724.976 1258.91L724.972 1258.91L723.98 1261.74ZM727.385 1260.48L725.137 1258.49L725.135 1258.49L727.385 1260.48ZM728.433 1259.06L726.06 1257.22L726.058 1257.23L728.433 1259.06ZM730.51 1256.7L732.372 1259.05L732.376 1259.05L730.51 1256.7ZM731.445 1256.36L729.762 1258.85L729.764 1258.85L731.445 1256.36ZM731.4 1257.21L728.745 1255.82L728.743 1255.82L731.4 1257.21ZM728.837 1261.6L731.495 1262.99L731.51 1262.96L731.525 1262.93L728.837 1261.6ZM728.919 1261.76V1264.76H728.927L728.934 1264.76L728.919 1261.76ZM730.338 1261.76V1264.76H730.417L730.495 1264.75L730.338 1261.76ZM730.482 1261.66L732.951 1263.37L732.998 1263.3L733.041 1263.23L730.482 1261.66ZM732.598 1258.22L735.14 1259.81L735.152 1259.79L735.164 1259.77L732.598 1258.22ZM732.678 1258.23L729.681 1258.38L729.682 1258.39L729.682 1258.4L732.678 1258.23ZM732.908 1259.11L735.464 1257.54L735.454 1257.52L735.443 1257.5L732.908 1259.11ZM733.999 1259.75L734.038 1256.75L734.027 1256.75L734.016 1256.75L733.999 1259.75ZM734.884 1259.55L733.801 1256.75L733.794 1256.76L734.884 1259.55ZM735.61 1259.14L733.85 1256.72L733.831 1256.73L733.813 1256.74L735.61 1259.14ZM735.734 1259.22L738.687 1259.74L738.698 1259.68L738.706 1259.62L735.734 1259.22ZM736.659 1261.71L735.284 1264.38L735.286 1264.38L736.659 1261.71ZM739.555 1260.8L737.404 1258.71L737.4 1258.71L739.555 1260.8ZM739.698 1260.88L736.701 1261.01L736.701 1261.03L736.702 1261.04L739.698 1260.88ZM740.036 1261.68L742.207 1259.61L742.205 1259.6L740.036 1261.68ZM742.869 1261.11L740.986 1258.78L740.984 1258.78L742.869 1261.11ZM745.055 1258.81L747.416 1260.66L747.434 1260.64L747.451 1260.62L745.055 1258.81ZM745.05 1258.67L747.282 1256.66L747.274 1256.65L747.265 1256.64L745.05 1258.67ZM744.688 1258.32L746.782 1256.17L746.728 1256.12L746.671 1256.07L744.688 1258.32ZM744.531 1258.32L742.685 1255.96L742.544 1256.07L742.418 1256.19L744.531 1258.32ZM742.265 1260.49L740.513 1258.05L740.502 1258.06L742.265 1260.49ZM741.238 1260.58L743.687 1258.85L743.681 1258.84L741.238 1260.58ZM741.246 1260.07L744.046 1261.15L744.047 1261.15L741.246 1260.07ZM745.986 1252.22L748.61 1253.67L748.618 1253.66L748.627 1253.64L745.986 1252.22ZM737.697 1260.4L739.147 1257.78L739.135 1257.77L739.123 1257.76L737.697 1260.4ZM737.389 1259.7L740.388 1259.76L740.388 1259.75L737.389 1259.7ZM738.281 1257.5L740.646 1259.34L740.649 1259.34L738.281 1257.5ZM740.255 1256.39L738.908 1259.07L738.915 1259.07L740.255 1256.39ZM740.377 1257.78L737.664 1256.5L737.649 1256.53L737.635 1256.56L740.377 1257.78ZM740.368 1257.88L743.325 1257.38L743.294 1257.2L743.242 1257.02L740.368 1257.88ZM740.505 1258.01L741.618 1255.22L741.59 1255.21L741.561 1255.2L740.505 1258.01ZM740.514 1258.09L737.79 1256.83L737.782 1256.85L737.775 1256.87L740.514 1258.09ZM739.94 1259.08L737.419 1257.45L737.413 1257.46L739.94 1259.08ZM739.213 1259.9L737.262 1257.62L737.257 1257.63L737.251 1257.63L739.213 1259.9ZM720.619 1248.05L720.361 1245.06L720.356 1245.06L720.619 1248.05ZM715.517 1252.15L712.517 1252.14L712.517 1252.14L715.517 1252.15ZM717.566 1254.25L717.668 1257.24L717.672 1257.24L717.566 1254.25ZM720.865 1251.42L718.087 1250.29L718.086 1250.29L720.865 1251.42ZM720.45 1250.93L717.904 1249.34L717.899 1249.35L720.45 1250.93ZM718.972 1252.3L720.336 1254.97L720.338 1254.97L718.972 1252.3ZM717.322 1251.98L714.518 1253.04L714.519 1253.05L717.322 1251.98ZM719.15 1249.34L718.069 1246.54L718.06 1246.54L719.15 1249.34ZM725.722 1249.48L725.144 1252.42L725.43 1252.48H725.722V1249.48ZM725.766 1249.6L724.324 1246.97L724.305 1246.98L724.285 1246.99L725.766 1249.6ZM724.401 1250.54L726.4 1252.77L726.407 1252.77L724.401 1250.54ZM722.983 1251.98L725.342 1253.83L725.347 1253.83L722.983 1251.98ZM721.848 1253.55L719.444 1251.76L719.421 1251.79L719.399 1251.82L721.848 1253.55ZM721.724 1253.63L722.245 1256.58L721.724 1250.63V1253.63ZM718.905 1254.55L720.66 1256.99L720.668 1256.98L718.905 1254.55ZM718.755 1255.09L716.206 1256.68L716.21 1256.68L718.755 1255.09ZM719.237 1255.15L721.053 1257.54L721.068 1257.53L721.083 1257.51L719.237 1255.15ZM720.99 1254.5L721.195 1251.51L721.05 1251.5L720.904 1251.5L720.99 1254.5ZM721.04 1254.53L718.294 1255.74L718.323 1255.8L718.355 1255.87L721.04 1254.53ZM721.03 1254.58L718.596 1252.82L718.579 1252.85L718.562 1252.87L721.03 1254.58ZM719.096 1257.16L716.796 1255.23L716.792 1255.24L719.096 1257.16ZM717.951 1258.37L715.875 1256.21L715.869 1256.21L715.862 1256.22L717.951 1258.37ZM713.891 1258.94L711.356 1260.54L711.358 1260.55L713.891 1258.94ZM713.811 1257.18L711.103 1255.89L711.102 1255.89L713.811 1257.18ZM715.253 1255.79L713.843 1253.15L713.84 1253.15L715.253 1255.79ZM715.308 1255.2L712.971 1257.08L712.981 1257.1L712.99 1257.11L715.308 1255.2ZM714.671 1255.07L715.238 1258.01L715.243 1258.01L714.671 1255.07ZM712.725 1256.37L715.14 1258.15L715.142 1258.15L712.725 1256.37ZM712.017 1258.95L709.029 1259.22L709.029 1259.22L712.017 1258.95ZM715.158 1261.73L715.181 1264.73L715.182 1264.73L715.158 1261.73ZM719.037 1259.8L721.219 1261.86L721.22 1261.86L719.037 1259.8ZM722.719 1254.32L725.314 1255.83L725.319 1255.82L725.324 1255.81L722.719 1254.32ZM722.953 1254.2L723.339 1257.18L723.342 1257.18L722.953 1254.2ZM725.394 1253.96L725.228 1250.97L725.22 1250.97L725.213 1250.97L725.394 1253.96ZM725.634 1254.04L728.022 1252.22L728.014 1252.21L725.634 1254.04ZM726.285 1254.58L727.774 1251.98L727.765 1251.97L727.756 1251.97L726.285 1254.58ZM726.518 1254.67L726.446 1257.67L726.46 1257.67L726.518 1254.67ZM726.746 1254.56L724.486 1252.59L724.472 1252.6L724.458 1252.62L726.746 1254.56ZM726.799 1254.3L724.176 1255.76L724.181 1255.77L726.799 1254.3ZM726.274 1253.85L729.252 1253.48L729.247 1253.44L729.241 1253.4L726.274 1253.85ZM726.336 1253.76L727.024 1256.68L727.148 1256.65L727.27 1256.61L726.336 1253.76ZM727.26 1252.98L729.943 1254.32L729.945 1254.32L727.26 1252.98ZM727.116 1251.66L725.221 1253.98L725.223 1253.98L727.116 1251.66ZM725.838 1251.81L727.882 1254.01L727.889 1254L725.838 1251.81ZM725.353 1253.22L728.335 1252.88L728.334 1252.88L725.353 1253.22ZM725.25 1253.34L725.497 1256.33L725.507 1256.33L725.518 1256.33L725.25 1253.34ZM723.357 1253.45L723.192 1250.45L723.159 1250.45L723.126 1250.45L723.357 1253.45ZM723.324 1253.39L725.654 1255.28L725.823 1255.07L725.952 1254.83L723.324 1253.39ZM726.513 1250.02L728.344 1252.39L728.35 1252.39L728.357 1252.38L726.513 1250.02ZM726.568 1249.72L727.232 1246.8L723.449 1245.94L723.57 1249.81L726.568 1249.72ZM733.461 1251.19L733.435 1248.19L733.434 1248.19L733.461 1251.19ZM736.288 1250.51L734.802 1247.9L734.797 1247.91L736.288 1250.51ZM737.425 1249.21L734.431 1249.03L734.43 1249.03L734.43 1249.04L737.425 1249.21ZM736.96 1248.78L736.3 1245.86L736.28 1245.86L736.26 1245.86L736.96 1248.78ZM729.868 1249.05L729.49 1252.03L729.492 1252.03L729.868 1249.05ZM725.99 1253.03L723.015 1253.42L723.025 1253.5L723.039 1253.57L725.99 1253.03ZM726.309 1252.16L728.344 1254.36L728.345 1254.36L726.309 1252.16ZM726.744 1252.11L724.739 1254.34L724.748 1254.35L726.744 1252.11ZM726.683 1252.7L724.171 1251.06L724.168 1251.06L726.683 1252.7ZM726.089 1253.14L726.657 1256.09L726.68 1256.08L726.703 1256.08L726.089 1253.14ZM744.433 1249.1C744.363 1249.1 743.694 1249.07 742.98 1249.43C742.127 1249.85 741.707 1250.52 741.519 1250.91L746.916 1253.53C746.779 1253.81 746.413 1254.42 745.627 1254.81C745.282 1254.98 744.973 1255.05 744.774 1255.07C744.59 1255.1 744.452 1255.1 744.433 1255.1V1249.1ZM741.534 1250.88C741.57 1250.8 741.511 1250.91 741.244 1251.34C741.029 1251.69 740.75 1252.13 740.46 1252.59C739.896 1253.49 739.265 1254.48 739.06 1254.82L744.177 1257.95C744.354 1257.66 744.939 1256.74 745.536 1255.79C745.827 1255.33 746.116 1254.87 746.344 1254.5C746.521 1254.22 746.781 1253.8 746.901 1253.56L741.534 1250.88ZM739.135 1254.7C739.289 1254.47 740.247 1253.18 742.027 1253.49C744.096 1253.84 744.427 1255.74 744.457 1256.11L738.477 1256.6C738.516 1257.08 738.89 1259.04 741.017 1259.4C742.855 1259.72 743.884 1258.39 744.102 1258.07L739.135 1254.7ZM744.451 1256.05C744.282 1254.43 743.143 1253.16 741.807 1252.59L739.473 1258.12C739.238 1258.02 739.034 1257.87 738.873 1257.66C738.725 1257.48 738.534 1257.15 738.483 1256.67L744.451 1256.05ZM741.813 1252.6C740.865 1252.19 739.944 1252.14 739.13 1252.25L739.951 1258.2C739.933 1258.2 739.865 1258.21 739.764 1258.2C739.658 1258.18 739.555 1258.16 739.467 1258.12L741.813 1252.6ZM739.121 1252.26C737.65 1252.46 736.538 1253.23 735.875 1253.76L739.601 1258.46C739.777 1258.32 739.897 1258.25 739.974 1258.21C740.047 1258.17 740.037 1258.19 739.96 1258.2L739.121 1252.26ZM735.872 1253.76C735.347 1254.18 734.85 1254.66 734.532 1254.96C734.163 1255.31 733.914 1255.53 733.677 1255.69L737.061 1260.64C737.711 1260.2 738.248 1259.71 738.643 1259.33C739.089 1258.91 739.333 1258.68 739.604 1258.46L735.872 1253.76ZM733.681 1255.69C733.576 1255.76 733.667 1255.67 733.94 1255.61C734.101 1255.58 734.399 1255.54 734.775 1255.62C735.181 1255.71 735.565 1255.91 735.867 1256.2L731.693 1260.51C732.843 1261.62 734.25 1261.68 735.178 1261.48C736.014 1261.3 736.678 1260.9 737.058 1260.65L733.681 1255.69ZM735.865 1256.2C736.519 1256.83 736.541 1257.55 736.51 1257.82C736.474 1258.16 736.343 1258.36 736.245 1258.47L731.83 1254.4C731.119 1255.18 730.658 1256.15 730.546 1257.17C730.439 1258.15 730.639 1259.49 731.695 1260.51L735.865 1256.2ZM736.24 1258.47C735.479 1259.3 734.067 1259.77 732.731 1259.06C731.651 1258.49 730.967 1257.25 731.221 1255.92L737.114 1257.05C737.381 1255.66 736.664 1254.36 735.532 1253.76C734.144 1253.03 732.661 1253.51 731.835 1254.4L736.24 1258.47ZM731.221 1255.92C731.01 1257.03 731.237 1258.42 732.322 1259.46L736.478 1255.13C737.125 1255.76 737.21 1256.55 737.114 1257.05L731.221 1255.92ZM732.351 1259.49C733.671 1260.72 735.454 1260.74 736.741 1260.08L734.017 1254.74C734.648 1254.42 735.666 1254.38 736.449 1255.11L732.351 1259.49ZM736.76 1260.07C738.188 1259.33 738.851 1257.99 739.026 1256.84L733.094 1255.94C733.136 1255.66 733.344 1255.09 733.999 1254.75L736.76 1260.07ZM739.027 1256.83C739.386 1254.44 737.642 1252.25 735.261 1252.06L734.803 1258.05C733.68 1257.96 732.939 1256.97 733.094 1255.94L739.027 1256.83ZM735.252 1252.06C733.772 1251.95 732.528 1252.54 731.598 1253.34L735.515 1257.89C735.541 1257.86 735.486 1257.92 735.345 1257.97C735.193 1258.03 735.006 1258.06 734.813 1258.05L735.252 1252.06ZM731.594 1253.35C731.137 1253.74 730.828 1254.1 730.486 1254.61L735.464 1257.96C735.526 1257.86 735.534 1257.86 735.51 1257.89C735.499 1257.9 735.489 1257.91 735.485 1257.91C735.482 1257.92 735.491 1257.91 735.519 1257.88L731.594 1253.35ZM730.474 1254.62C730.634 1254.38 730.882 1254.09 731.255 1253.84C731.597 1253.61 732.279 1253.26 733.193 1253.35C734.259 1253.46 735.06 1254.11 735.476 1254.84C735.827 1255.47 735.853 1256.04 735.849 1256.3L729.85 1256.2C729.844 1256.52 729.879 1257.13 730.246 1257.79C730.677 1258.55 731.5 1259.21 732.592 1259.32C733.531 1259.42 734.241 1259.06 734.612 1258.81C735.014 1258.54 735.291 1258.22 735.475 1257.94L730.474 1254.62ZM735.848 1256.34C735.87 1255.56 735.751 1254.46 735.039 1253.48C734.228 1252.36 733.021 1251.9 731.907 1251.88L731.768 1257.87C731.592 1257.87 731.311 1257.83 730.994 1257.68C730.664 1257.52 730.386 1257.28 730.184 1257.01C729.811 1256.49 729.853 1256.07 729.85 1256.17L735.848 1256.34ZM731.911 1251.88C730.308 1251.84 729.034 1252.67 728.363 1253.23L732.203 1257.84C732.261 1257.79 732.29 1257.78 732.267 1257.79C732.251 1257.8 732.204 1257.82 732.127 1257.84C732.049 1257.86 731.925 1257.88 731.764 1257.87L731.911 1251.88ZM728.356 1253.24C727.649 1253.83 726.947 1254.69 726.675 1255L731.142 1259C731.787 1258.28 731.94 1258.06 732.211 1257.84L728.356 1253.24ZM726.685 1254.99C726.794 1254.87 727.061 1254.59 727.495 1254.37C727.954 1254.13 728.854 1253.84 729.893 1254.23C730.882 1254.61 731.342 1255.36 731.516 1255.73C731.694 1256.1 731.744 1256.42 731.761 1256.55L725.811 1257.32C725.835 1257.51 725.897 1257.88 726.092 1258.29C726.281 1258.69 726.76 1259.46 727.77 1259.84C728.831 1260.25 729.755 1259.95 730.24 1259.7C730.7 1259.47 730.994 1259.17 731.132 1259.01L726.685 1254.99ZM731.785 1256.87C731.762 1255.93 731.541 1254.78 730.897 1253.78L725.855 1257.03C725.814 1256.97 725.791 1256.92 725.781 1256.89C725.77 1256.87 725.768 1256.86 725.77 1256.86C725.772 1256.87 725.776 1256.89 725.779 1256.92C725.783 1256.94 725.786 1256.97 725.787 1257.01L731.785 1256.87ZM730.89 1253.77C730.071 1252.51 728.185 1251.67 726.425 1252.7L729.446 1257.88C728.007 1258.72 726.501 1258.02 725.863 1257.04L730.89 1253.77ZM726.454 1252.68C726.484 1252.67 726.504 1252.65 726.489 1252.66C726.484 1252.67 726.479 1252.67 726.47 1252.67C726.461 1252.68 726.45 1252.68 726.437 1252.69C726.387 1252.72 726.309 1252.76 726.22 1252.81C726.061 1252.9 725.775 1253.07 725.485 1253.32L729.349 1257.91C729.317 1257.94 729.291 1257.96 729.273 1257.97C729.254 1257.98 729.24 1257.99 729.231 1258C729.215 1258.01 729.209 1258.01 729.217 1258.01C729.225 1258 729.237 1258 729.262 1257.98C729.268 1257.98 729.275 1257.98 729.283 1257.97C729.29 1257.97 729.301 1257.96 729.311 1257.96C729.321 1257.95 729.335 1257.94 729.351 1257.94C729.366 1257.93 729.39 1257.92 729.417 1257.9L726.454 1252.68ZM725.466 1253.34C724.377 1254.27 724.128 1255.64 724.436 1256.76L730.221 1255.16C730.314 1255.5 730.369 1255.99 730.218 1256.55C730.062 1257.12 729.737 1257.58 729.368 1257.89L725.466 1253.34ZM724.445 1256.79C724.506 1257 724.491 1257.29 724.405 1257.51L729.967 1259.76C730.552 1258.31 730.646 1256.64 730.212 1255.13L724.445 1256.79ZM724.407 1257.5C724.397 1257.53 724.384 1257.55 724.368 1257.58C724.353 1257.6 724.341 1257.61 724.339 1257.62C724.336 1257.62 724.352 1257.6 724.395 1257.57C724.437 1257.54 724.517 1257.5 724.638 1257.46L726.516 1263.16C728.316 1262.56 729.445 1261.04 729.966 1259.76L724.407 1257.5ZM724.634 1257.46C724.818 1257.4 725.167 1257.33 725.612 1257.44C726.107 1257.56 726.531 1257.86 726.798 1258.24L721.871 1261.67C723.142 1263.5 725.193 1263.59 726.52 1263.15L724.634 1257.46ZM726.802 1258.25C727.168 1258.78 727.107 1259.22 727.101 1259.27C727.089 1259.34 727.08 1259.31 727.142 1259.22L722.256 1255.74C721.709 1256.51 721.313 1257.41 721.168 1258.37C721.029 1259.29 721.091 1260.54 721.866 1261.66L726.802 1258.25ZM727.138 1259.23C727.228 1259.1 727.441 1258.91 727.9 1258.73L725.688 1253.15C724.593 1253.59 723.249 1254.35 722.261 1255.73L727.138 1259.23ZM727.915 1258.72C728.411 1258.52 729.21 1258.05 729.638 1257.05C730.047 1256.09 729.862 1255.24 729.734 1254.84L724.022 1256.68C723.92 1256.36 723.738 1255.58 724.122 1254.69C724.524 1253.75 725.268 1253.32 725.673 1253.16L727.915 1258.72ZM729.738 1254.86C729.701 1254.74 729.659 1254.62 729.634 1254.55C729.616 1254.5 729.611 1254.48 729.599 1254.45C729.588 1254.42 729.587 1254.41 729.59 1254.42L723.893 1256.31C723.909 1256.35 723.927 1256.4 723.938 1256.44C723.947 1256.46 723.967 1256.52 723.974 1256.54C724 1256.61 724.013 1256.65 724.018 1256.67L729.738 1254.86ZM729.564 1254.35C729.186 1253.3 728.366 1252.62 727.486 1252.33C726.783 1252.1 726.16 1252.15 725.894 1252.18L726.56 1258.14C726.538 1258.15 726.136 1258.2 725.612 1258.03C725.314 1257.93 724.953 1257.75 724.617 1257.44C724.274 1257.12 724.049 1256.74 723.919 1256.38L729.564 1254.35ZM725.863 1252.18C724.797 1252.31 723.91 1252.69 723.186 1253.09L726.114 1258.33C726.396 1258.17 726.528 1258.15 726.591 1258.14L725.863 1252.18ZM723.185 1253.1C720.884 1254.38 719.909 1256.7 719.579 1257.57L725.188 1259.7C725.288 1259.44 725.43 1259.12 725.621 1258.84C725.813 1258.55 725.987 1258.4 726.115 1258.33L723.185 1253.1ZM719.579 1257.57C719.558 1257.63 719.543 1257.66 719.532 1257.69C719.522 1257.71 719.517 1257.72 719.519 1257.72C719.521 1257.71 719.528 1257.7 719.541 1257.68C719.553 1257.66 719.567 1257.64 719.58 1257.62L724.362 1261.25C724.749 1260.74 724.991 1260.22 725.188 1259.7L719.579 1257.57ZM719.584 1257.62C719.567 1257.64 719.513 1257.71 719 1258.18L723.052 1262.61C723.493 1262.2 723.96 1261.78 724.358 1261.25L719.584 1257.62ZM718.969 1258.21C718.188 1258.95 717.58 1260.37 718.262 1261.85L723.712 1259.34C724.019 1260.01 724.02 1260.68 723.887 1261.21C723.764 1261.7 723.5 1262.18 723.083 1262.58L718.969 1258.21ZM718.265 1261.86C718.416 1262.18 718.635 1262.5 718.714 1262.61C718.777 1262.7 718.867 1262.82 718.971 1262.94C719.021 1263 719.106 1263.1 719.215 1263.21C719.252 1263.24 719.569 1263.57 720.07 1263.81L722.637 1258.39C722.926 1258.52 723.125 1258.67 723.208 1258.74C723.309 1258.82 723.383 1258.89 723.424 1258.93C723.507 1259.01 723.56 1259.08 723.576 1259.1C723.613 1259.14 723.624 1259.16 723.611 1259.14C723.607 1259.13 723.603 1259.13 723.599 1259.12C723.595 1259.12 723.593 1259.11 723.593 1259.11C723.594 1259.11 723.596 1259.12 723.599 1259.12C723.601 1259.13 723.607 1259.14 723.614 1259.15C723.62 1259.16 723.661 1259.23 723.709 1259.33L718.265 1261.86ZM719.985 1263.77C721.015 1264.3 721.972 1264.1 722.427 1263.94C722.884 1263.79 723.204 1263.57 723.335 1263.47L719.78 1258.64C719.875 1258.57 720.131 1258.39 720.516 1258.26C720.897 1258.13 721.77 1257.94 722.722 1258.43L719.985 1263.77ZM723.292 1263.5C723.817 1263.13 724.451 1262.56 724.865 1262.02L720.105 1258.36C720.134 1258.33 720.143 1258.32 720.119 1258.34C720.099 1258.37 720.067 1258.4 720.026 1258.44C719.985 1258.47 719.943 1258.51 719.903 1258.54C719.862 1258.58 719.835 1258.6 719.823 1258.61L723.292 1263.5ZM724.832 1262.06C724.656 1262.28 724.277 1262.69 723.638 1262.94C722.9 1263.23 722.04 1263.22 721.275 1262.85C720.606 1262.52 720.241 1262.04 720.073 1261.76C719.893 1261.47 719.807 1261.21 719.765 1261.06L725.555 1259.48C725.495 1259.26 725.387 1258.95 725.182 1258.62C724.987 1258.3 724.594 1257.79 723.895 1257.45C723.098 1257.06 722.206 1257.05 721.435 1257.36C720.762 1257.62 720.348 1258.06 720.138 1258.32L724.832 1262.06ZM719.763 1261.05C720.178 1262.59 721.304 1263.98 722.987 1264.57L724.972 1258.91C725.335 1259.03 725.507 1259.31 725.557 1259.49L719.763 1261.05ZM722.983 1264.57C725.871 1265.58 728.329 1263.94 729.635 1262.46L725.135 1258.49C725.021 1258.62 724.914 1258.72 724.825 1258.78C724.736 1258.85 724.678 1258.88 724.659 1258.88C724.643 1258.89 724.672 1258.88 724.743 1258.87C724.818 1258.87 724.902 1258.88 724.976 1258.91L722.983 1264.57ZM729.634 1262.46C730.034 1262.01 730.315 1261.62 730.527 1261.31C730.621 1261.18 730.716 1261.03 730.758 1260.97C730.815 1260.88 730.821 1260.87 730.808 1260.89L726.058 1257.23C725.93 1257.39 725.823 1257.55 725.756 1257.65C725.674 1257.78 725.634 1257.84 725.57 1257.93C725.466 1258.09 725.337 1258.26 725.137 1258.49L729.634 1262.46ZM730.806 1260.89C731.12 1260.49 731.257 1260.28 731.599 1259.86C731.897 1259.49 732.161 1259.22 732.372 1259.05L728.649 1254.35C727.358 1255.37 726.273 1256.95 726.06 1257.22L730.806 1260.89ZM732.376 1259.05C732.418 1259.01 732.35 1259.08 732.155 1259.16C732.057 1259.2 731.804 1259.29 731.442 1259.31C731.067 1259.34 730.415 1259.29 729.762 1258.85L733.128 1253.88C731.678 1252.9 730.198 1253.48 729.903 1253.6C729.374 1253.81 728.939 1254.12 728.644 1254.35L732.376 1259.05ZM729.764 1258.85C729.403 1258.6 729.081 1258.26 728.861 1257.82C728.645 1257.39 728.581 1256.98 728.579 1256.66C728.577 1256.36 728.632 1256.13 728.669 1256.01C728.707 1255.89 728.743 1255.82 728.745 1255.82L734.055 1258.61C734.29 1258.16 734.584 1257.47 734.579 1256.63C734.573 1255.62 734.12 1254.55 733.127 1253.88L729.764 1258.85ZM728.743 1255.82C728.323 1256.62 727.787 1257.52 727.299 1258.33C726.889 1259 726.351 1259.86 726.149 1260.27L731.525 1262.93C731.52 1262.94 731.579 1262.83 731.779 1262.5C731.963 1262.2 732.16 1261.88 732.426 1261.44C732.922 1260.63 733.542 1259.59 734.057 1258.61L728.743 1255.82ZM726.18 1260.21C725.868 1260.8 725.545 1261.94 726.187 1263.13C726.865 1264.39 728.099 1264.76 728.919 1264.76V1258.76C729.652 1258.76 730.821 1259.09 731.468 1260.29C732.08 1261.42 731.76 1262.48 731.495 1262.99L726.18 1260.21ZM728.934 1264.76C729.413 1264.75 729.88 1264.76 730.338 1264.76V1258.76C729.907 1258.76 729.404 1258.75 728.905 1258.76L728.934 1264.76ZM730.495 1264.75C731.037 1264.72 731.639 1264.55 732.187 1264.15C732.646 1263.82 732.903 1263.44 732.951 1263.37L728.013 1259.96C728.024 1259.94 728.245 1259.6 728.661 1259.3C729.164 1258.93 729.712 1258.78 730.18 1258.76L730.495 1264.75ZM733.041 1263.23C733.769 1262.04 734.428 1260.95 735.14 1259.81L730.057 1256.62C729.321 1257.8 728.63 1258.94 727.923 1260.1L733.041 1263.23ZM735.164 1259.77C735.016 1260.02 734.621 1260.59 733.836 1260.93C732.887 1261.35 731.89 1261.21 731.151 1260.79C730.532 1260.43 730.196 1259.94 730.031 1259.63C729.862 1259.32 729.706 1258.89 729.681 1258.38L735.674 1258.09C735.649 1257.56 735.488 1257.11 735.31 1256.78C735.136 1256.46 734.789 1255.96 734.155 1255.59C733.401 1255.16 732.387 1255.02 731.42 1255.44C730.616 1255.79 730.201 1256.39 730.033 1256.66L735.164 1259.77ZM729.682 1258.4C729.705 1258.81 729.802 1259.81 730.373 1260.71L735.443 1257.5C735.535 1257.65 735.587 1257.77 735.613 1257.84C735.641 1257.91 735.655 1257.96 735.661 1257.99C735.672 1258.03 735.673 1258.05 735.673 1258.07L729.682 1258.4ZM730.352 1260.68C731.171 1262.01 732.523 1262.74 733.982 1262.75L734.016 1256.75C734.251 1256.75 734.556 1256.8 734.863 1256.98C735.172 1257.15 735.363 1257.37 735.464 1257.54L730.352 1260.68ZM733.961 1262.75C734.87 1262.76 735.465 1262.54 735.973 1262.35L733.794 1256.76C733.71 1256.79 733.676 1256.8 733.662 1256.81C733.654 1256.81 733.687 1256.8 733.745 1256.78C733.809 1256.77 733.877 1256.76 733.943 1256.75C734.004 1256.75 734.041 1256.75 734.038 1256.75L733.961 1262.75ZM735.966 1262.35C736.587 1262.11 737.068 1261.8 737.406 1261.55L733.813 1256.74C733.782 1256.77 733.78 1256.76 733.801 1256.75L735.966 1262.35ZM737.37 1261.57C737.095 1261.77 736.39 1262.2 735.39 1262.11C734.285 1262 733.589 1261.34 733.257 1260.87C732.956 1260.44 732.846 1260.03 732.802 1259.83C732.773 1259.7 732.693 1259.32 732.762 1258.81L738.706 1259.62C738.777 1259.11 738.695 1258.7 738.66 1258.54C738.61 1258.31 738.489 1257.88 738.171 1257.42C737.82 1256.92 737.099 1256.24 735.961 1256.13C734.926 1256.03 734.179 1256.48 733.85 1256.72L737.37 1261.57ZM732.781 1258.69C732.532 1260.08 732.62 1263 735.284 1264.38L738.034 1259.04C738.22 1259.14 738.375 1259.27 738.489 1259.42C738.596 1259.56 738.644 1259.68 738.664 1259.74C738.696 1259.84 738.671 1259.84 738.687 1259.74L732.781 1258.69ZM735.286 1264.38C736.833 1265.17 738.356 1264.92 739.402 1264.49C740.406 1264.07 741.194 1263.42 741.71 1262.88L737.4 1258.71C737.338 1258.77 737.267 1258.84 737.199 1258.88C737.129 1258.94 737.095 1258.95 737.106 1258.95C737.117 1258.94 737.219 1258.9 737.398 1258.9C737.596 1258.89 737.824 1258.93 738.032 1259.04L735.286 1264.38ZM741.707 1262.89C741.543 1263.06 741.23 1263.33 740.749 1263.53C740.242 1263.74 739.393 1263.91 738.47 1263.52C737.562 1263.13 737.116 1262.42 736.926 1261.98C736.741 1261.55 736.709 1261.19 736.701 1261.01L742.695 1260.74C742.684 1260.5 742.64 1260.08 742.438 1259.61C742.231 1259.13 741.762 1258.4 740.828 1258C739.878 1257.59 738.998 1257.76 738.46 1257.99C737.947 1258.2 737.601 1258.5 737.404 1258.71L741.707 1262.89ZM736.702 1261.04C736.75 1261.93 737.101 1262.95 737.867 1263.75L742.205 1259.6C742.399 1259.81 742.509 1260.01 742.572 1260.16C742.635 1260.32 742.681 1260.5 742.693 1260.72L736.702 1261.04ZM737.865 1263.75C739.09 1265.03 740.706 1265.13 741.828 1264.9C742.938 1264.68 743.939 1264.11 744.755 1263.45L740.984 1258.78C740.662 1259.04 740.528 1259.04 740.646 1259.02C740.718 1259.01 740.928 1258.97 741.227 1259.04C741.55 1259.12 741.91 1259.29 742.207 1259.61L737.865 1263.75ZM744.753 1263.45C745.725 1262.66 746.648 1261.64 747.416 1260.66L742.694 1256.96C742.08 1257.74 741.474 1258.38 740.986 1258.78L744.753 1263.45ZM747.451 1260.62C747.688 1260.3 748.016 1259.74 748.073 1258.96C748.137 1258.08 747.819 1257.26 747.282 1256.66L742.818 1260.67C742.33 1260.13 742.028 1259.37 742.088 1258.53C742.141 1257.81 742.447 1257.29 742.658 1257.01L747.451 1260.62ZM747.265 1256.64C747.125 1256.49 746.985 1256.36 746.915 1256.29C746.883 1256.27 746.829 1256.21 746.815 1256.2C746.789 1256.18 746.781 1256.17 746.782 1256.17L742.595 1260.47C742.648 1260.52 742.698 1260.57 742.733 1260.6C742.751 1260.62 742.769 1260.63 742.783 1260.65C742.799 1260.66 742.811 1260.67 742.823 1260.68C742.847 1260.7 742.858 1260.72 742.864 1260.72C742.87 1260.73 742.857 1260.72 742.835 1260.69L747.265 1256.64ZM746.671 1256.07C745.204 1254.78 743.468 1255.35 742.685 1255.96L746.377 1260.69C745.926 1261.04 745.376 1261.25 744.793 1261.29C744.171 1261.33 743.377 1261.16 742.706 1260.57L746.671 1256.07ZM742.418 1256.19C741.397 1257.21 741.182 1257.57 740.513 1258.05L744.018 1262.92C745.191 1262.08 746.25 1260.84 746.645 1260.45L742.418 1256.19ZM740.502 1258.06C740.585 1258 740.797 1257.86 741.181 1257.79C741.39 1257.75 741.786 1257.71 742.271 1257.85C742.811 1258 743.327 1258.34 743.687 1258.85L738.789 1262.32C739.848 1263.81 741.474 1263.83 742.257 1263.69C743.021 1263.55 743.636 1263.2 744.029 1262.92L740.502 1258.06ZM743.681 1258.84C744.086 1259.41 744.188 1260.01 744.177 1260.44C744.167 1260.83 744.07 1261.09 744.046 1261.15L738.447 1258.99C738.283 1259.42 737.781 1260.9 738.795 1262.32L743.681 1258.84ZM744.047 1261.15C743.986 1261.31 743.958 1261.33 744.131 1261.02C744.257 1260.8 744.431 1260.5 744.646 1260.14C745.075 1259.42 745.629 1258.51 746.189 1257.6C747.253 1255.87 748.456 1253.95 748.61 1253.67L743.362 1250.76C743.376 1250.74 743.333 1250.81 743.174 1251.07C743.039 1251.29 742.857 1251.58 742.639 1251.93C742.207 1252.63 741.644 1253.54 741.079 1254.46C740.515 1255.38 739.943 1256.31 739.492 1257.07C739.267 1257.45 739.064 1257.79 738.905 1258.08C738.794 1258.27 738.574 1258.66 738.446 1259L744.047 1261.15ZM748.627 1253.64C748.986 1252.97 749.336 1251.62 748.404 1250.35C747.592 1249.25 746.425 1249.1 745.9 1249.1V1255.1C745.458 1255.1 744.353 1254.97 743.573 1253.91C742.673 1252.69 743.023 1251.39 743.345 1250.79L748.627 1253.64ZM745.9 1249.1C745.679 1249.1 745.425 1249.1 745.17 1249.1C744.915 1249.1 744.659 1249.1 744.433 1249.1V1255.1C744.663 1255.1 744.922 1255.1 745.177 1255.1C745.432 1255.1 745.683 1255.1 745.9 1255.1V1249.1ZM739.123 1257.76C739.851 1258.16 740.147 1258.74 740.248 1259C740.36 1259.28 740.392 1259.54 740.388 1259.76L734.389 1259.65C734.381 1260.13 734.458 1260.67 734.67 1261.21C734.873 1261.72 735.325 1262.53 736.272 1263.04L739.123 1257.76ZM740.388 1259.75C740.387 1259.86 740.345 1259.73 740.646 1259.34L735.916 1255.65C735.072 1256.73 734.413 1258.1 734.389 1259.66L740.388 1259.75ZM740.649 1259.34C740.85 1259.08 740.937 1259.05 740.832 1259.12C740.772 1259.15 740.574 1259.25 740.253 1259.3C739.907 1259.35 739.416 1259.33 738.908 1259.07L741.602 1253.71C740.038 1252.92 738.571 1253.5 737.848 1253.91C737.057 1254.36 736.409 1255.02 735.913 1255.66L740.649 1259.34ZM738.915 1259.07C738.523 1258.88 738.129 1258.53 737.87 1258.04C737.629 1257.58 737.596 1257.16 737.601 1256.93C737.61 1256.54 737.729 1256.36 737.664 1256.5L743.09 1259.06C743.26 1258.7 743.58 1257.96 743.6 1257.06C743.611 1256.58 743.535 1255.92 743.187 1255.26C742.819 1254.55 742.249 1254.03 741.596 1253.71L738.915 1259.07ZM737.635 1256.56C737.355 1257.2 737.261 1257.96 737.494 1258.74L743.242 1257.02C743.335 1257.34 743.383 1257.69 743.353 1258.07C743.324 1258.44 743.226 1258.76 743.12 1259L737.635 1256.56ZM737.41 1258.39C737.581 1259.39 738.18 1259.99 738.443 1260.22C738.764 1260.5 739.114 1260.69 739.448 1260.82L741.561 1255.2C741.832 1255.3 742.118 1255.46 742.389 1255.7C742.601 1255.88 743.163 1256.43 743.325 1257.38L737.41 1258.39ZM739.391 1260.79C738.992 1260.64 737.915 1260.08 737.602 1258.7C737.373 1257.69 737.747 1256.93 737.79 1256.83L743.238 1259.35C743.307 1259.2 743.687 1258.4 743.452 1257.37C743.133 1255.96 742.039 1255.39 741.618 1255.22L739.391 1260.79ZM737.775 1256.87C737.711 1257.01 737.701 1257.01 737.419 1257.45L742.461 1260.7C742.633 1260.44 742.956 1259.98 743.253 1259.31L737.775 1256.87ZM737.413 1257.46C737.397 1257.49 737.384 1257.5 737.369 1257.52C737.353 1257.54 737.323 1257.57 737.262 1257.62L741.165 1262.18C741.628 1261.78 742.072 1261.31 742.467 1260.69L737.413 1257.46ZM737.251 1257.63C737.157 1257.71 737.139 1257.71 737.189 1257.69C737.219 1257.67 737.302 1257.63 737.431 1257.58C737.561 1257.54 737.773 1257.49 738.048 1257.49V1263.49C738.974 1263.49 739.706 1263.15 740.128 1262.92C740.577 1262.67 740.94 1262.37 741.176 1262.17L737.251 1257.63ZM738.048 1257.49C738.393 1257.49 738.781 1257.57 739.147 1257.78L736.247 1263.03C736.839 1263.35 737.463 1263.49 738.048 1263.49V1257.49ZM720.356 1245.06C718.596 1245.22 716.769 1245.81 715.303 1246.9C713.808 1248.01 712.522 1249.79 712.517 1252.14L718.517 1252.15C718.517 1252.12 718.52 1252.1 718.547 1252.06C718.582 1251.99 718.674 1251.87 718.878 1251.72C719.309 1251.4 720.031 1251.11 720.882 1251.04L720.356 1245.06ZM712.517 1252.14C712.512 1254.73 714.441 1257.35 717.668 1257.24L717.465 1251.25C717.553 1251.24 717.692 1251.26 717.854 1251.32C718.014 1251.39 718.155 1251.49 718.266 1251.61C718.486 1251.84 718.517 1252.07 718.517 1252.15L712.517 1252.14ZM717.672 1257.24C720.847 1257.13 722.809 1254.6 723.643 1252.55L718.086 1250.29C717.91 1250.72 717.69 1251.01 717.523 1251.16C717.368 1251.3 717.348 1251.25 717.461 1251.25L717.672 1257.24ZM723.642 1252.55C723.996 1251.69 724.295 1249.85 722.78 1248.55C722.023 1247.9 720.986 1247.62 719.965 1247.86C718.97 1248.09 718.289 1248.72 717.904 1249.34L722.997 1252.52C722.717 1252.97 722.171 1253.51 721.31 1253.71C720.424 1253.91 719.522 1253.66 718.872 1253.11C717.571 1251.99 717.973 1250.57 718.087 1250.29L723.642 1252.55ZM717.899 1249.35C717.815 1249.49 717.697 1249.59 717.606 1249.63L720.338 1254.97C721.392 1254.44 722.334 1253.59 723.002 1252.51L717.899 1249.35ZM717.607 1249.63C717.705 1249.58 718.011 1249.45 718.494 1249.54C718.752 1249.58 719.083 1249.7 719.406 1249.95C719.741 1250.2 719.986 1250.54 720.124 1250.91L714.519 1253.05C715.062 1254.47 716.274 1255.24 717.449 1255.45C718.529 1255.64 719.549 1255.38 720.336 1254.97L717.607 1249.63ZM720.125 1250.91C720.401 1251.63 720.127 1252.12 720.086 1252.18C720.016 1252.29 720.018 1252.22 720.24 1252.13L718.06 1246.54C716.793 1247.04 715.724 1247.87 715.033 1248.95C714.372 1249.98 713.928 1251.5 714.518 1253.04L720.125 1250.91ZM720.232 1252.13C721.399 1251.68 722.663 1251.94 725.144 1252.42L726.299 1246.54C724.447 1246.17 721.207 1245.32 718.069 1246.54L720.232 1252.13ZM725.722 1252.48C724.989 1252.48 724.475 1252.21 724.367 1252.15C724.154 1252.04 723.818 1251.83 723.505 1251.46C723.206 1251.11 722.603 1250.19 722.874 1248.93C723.135 1247.71 724.008 1247.14 724.324 1246.97L727.209 1252.23C727.575 1252.03 728.473 1251.43 728.74 1250.19C729.017 1248.9 728.402 1247.96 728.083 1247.58C727.75 1247.19 727.386 1246.96 727.146 1246.83C727.01 1246.76 726.47 1246.48 725.722 1246.48V1252.48ZM724.285 1246.99C723.956 1247.18 723.276 1247.52 722.396 1248.31L726.407 1252.77C726.583 1252.61 726.697 1252.53 726.775 1252.48C726.822 1252.45 726.873 1252.42 726.947 1252.38C726.985 1252.36 727.024 1252.34 727.076 1252.31C727.125 1252.28 727.185 1252.25 727.248 1252.21L724.285 1246.99ZM722.402 1248.3C721.987 1248.67 721.237 1249.34 720.619 1250.13L725.347 1253.83C725.594 1253.51 725.962 1253.17 726.4 1252.77L722.402 1248.3ZM720.625 1250.13C720.357 1250.47 720.134 1250.78 719.948 1251.05C719.752 1251.33 719.61 1251.53 719.444 1251.76L724.251 1255.35C724.488 1255.03 724.7 1254.72 724.864 1254.49C725.037 1254.24 725.181 1254.04 725.342 1253.83L720.625 1250.13ZM719.399 1251.82C719.752 1251.32 720.236 1250.98 720.736 1250.8C720.971 1250.71 721.191 1250.67 721.382 1250.65C721.477 1250.63 721.568 1250.63 721.654 1250.63C721.696 1250.63 721.74 1250.63 721.784 1250.63C721.805 1250.63 721.833 1250.63 721.865 1250.63C721.872 1250.63 721.913 1250.63 721.965 1250.64C721.978 1250.64 722.014 1250.64 722.059 1250.64C722.084 1250.65 722.147 1250.66 722.186 1250.66C722.259 1250.67 722.515 1250.73 722.695 1250.79C723.672 1251.34 724.534 1254.68 722.804 1256.42C722.485 1256.53 722.054 1256.61 721.951 1256.62C721.827 1256.63 721.727 1256.63 721.724 1256.63V1250.63C721.722 1250.63 721.621 1250.62 721.498 1250.63C721.394 1250.64 720.963 1250.72 720.644 1250.83C718.914 1252.58 719.776 1255.91 720.753 1256.46C720.933 1256.52 721.189 1256.58 721.262 1256.59C721.301 1256.6 721.364 1256.6 721.389 1256.61C721.434 1256.61 721.47 1256.62 721.483 1256.62C721.535 1256.62 721.576 1256.62 721.583 1256.62C721.616 1256.62 721.644 1256.62 721.665 1256.63C721.711 1256.63 721.755 1256.63 721.8 1256.62C721.889 1256.62 721.986 1256.62 722.089 1256.6C722.294 1256.58 722.534 1256.53 722.793 1256.44C723.342 1256.24 723.888 1255.86 724.296 1255.28L719.399 1251.82ZM721.203 1250.67C720.46 1250.8 718.702 1250.99 717.142 1252.12L720.668 1256.98C720.74 1256.93 720.845 1256.87 721.074 1256.81C721.368 1256.73 721.644 1256.69 722.245 1256.58L721.203 1250.67ZM717.15 1252.12C716.122 1252.86 715.009 1254.75 716.206 1256.68L721.303 1253.51C721.757 1254.24 721.779 1255.04 721.597 1255.66C721.423 1256.24 721.067 1256.69 720.66 1256.99L717.15 1252.12ZM716.21 1256.68C717.489 1258.73 719.886 1258.42 721.053 1257.54L717.422 1252.76C717.938 1252.37 718.596 1252.17 719.275 1252.24C719.978 1252.31 720.79 1252.69 721.299 1253.5L716.21 1256.68ZM721.083 1257.51C721.112 1257.49 721.128 1257.48 721.13 1257.48C721.131 1257.48 721.129 1257.48 721.125 1257.48C721.121 1257.49 721.115 1257.49 721.108 1257.49C721.101 1257.49 721.093 1257.5 721.086 1257.5C721.078 1257.5 721.072 1257.5 721.067 1257.5C721.063 1257.5 721.061 1257.5 721.062 1257.5C721.063 1257.5 721.067 1257.5 721.076 1257.5L720.904 1251.5C719.599 1251.54 718.425 1251.98 717.392 1252.78L721.083 1257.51ZM720.785 1257.5C720.755 1257.49 720.275 1257.48 719.735 1257.22C719.419 1257.07 719.103 1256.85 718.827 1256.55C718.559 1256.26 718.395 1255.97 718.294 1255.74L723.785 1253.32C723.538 1252.76 723.066 1252.16 722.31 1251.8C721.755 1251.54 721.254 1251.51 721.195 1251.51L720.785 1257.5ZM718.355 1255.87C718.132 1255.42 718.069 1255.01 718.05 1254.75C718.03 1254.48 718.051 1254.23 718.087 1254.03C718.156 1253.63 718.314 1253.21 718.596 1252.82L723.464 1256.33C723.758 1255.92 723.923 1255.48 723.995 1255.07C724.051 1254.76 724.134 1254.01 723.724 1253.19L718.355 1255.87ZM718.562 1252.87C717.631 1254.22 717.447 1254.46 716.796 1255.23L721.396 1259.08C722.199 1258.13 722.497 1257.73 723.499 1256.28L718.562 1252.87ZM716.792 1255.24C716.514 1255.57 716.232 1255.86 715.875 1256.21L720.027 1260.54C720.487 1260.1 720.936 1259.64 721.401 1259.08L716.792 1255.24ZM715.862 1256.22C715.409 1256.66 715.162 1256.65 715.264 1256.64C715.319 1256.64 715.492 1256.64 715.728 1256.74C715.976 1256.84 716.238 1257.04 716.425 1257.33L711.358 1260.55C712.417 1262.22 714.249 1262.76 715.819 1262.62C717.379 1262.47 718.844 1261.68 720.04 1260.52L715.862 1256.22ZM716.427 1257.34C716.536 1257.51 716.611 1257.74 716.615 1257.99C716.618 1258.22 716.56 1258.39 716.52 1258.47L711.102 1255.89C710.507 1257.14 710.315 1258.9 711.356 1260.54L716.427 1257.34ZM716.519 1258.47C716.487 1258.54 716.459 1258.58 716.449 1258.59C716.439 1258.6 716.441 1258.6 716.461 1258.58C716.481 1258.56 716.51 1258.54 716.549 1258.51C716.588 1258.48 716.628 1258.46 716.666 1258.44L713.84 1253.15C713.069 1253.56 711.805 1254.42 711.103 1255.89L716.519 1258.47ZM716.662 1258.44C717.61 1257.94 718.259 1257.01 718.399 1255.94C718.537 1254.87 718.156 1253.94 717.626 1253.3L712.99 1257.11C712.652 1256.7 712.338 1256.01 712.449 1255.16C712.562 1254.3 713.087 1253.55 713.843 1253.15L716.662 1258.44ZM717.645 1253.32C716.927 1252.43 715.982 1252.18 715.545 1252.11C715.032 1252.02 714.532 1252.04 714.099 1252.12L715.243 1258.01C715.029 1258.05 714.787 1258.07 714.507 1258.02C714.303 1257.98 713.567 1257.82 712.971 1257.08L717.645 1253.32ZM714.103 1252.12C712.578 1252.42 711.157 1253.44 710.308 1254.6L715.142 1258.15C715.14 1258.15 715.153 1258.13 715.185 1258.1C715.216 1258.08 715.252 1258.05 715.291 1258.02C715.329 1257.99 715.355 1257.98 715.36 1257.98C715.362 1257.98 715.354 1257.98 715.336 1257.99C715.318 1257.99 715.286 1258 715.238 1258.01L714.103 1252.12ZM710.311 1254.59C709.35 1255.89 708.873 1257.5 709.029 1259.22L715.005 1258.68C714.983 1258.44 715.037 1258.29 715.14 1258.15L710.311 1254.59ZM709.029 1259.22C709.349 1262.75 712.249 1264.75 715.181 1264.73L715.135 1258.73C714.988 1258.73 714.952 1258.68 714.981 1258.71C714.996 1258.72 715.01 1258.74 715.018 1258.75C715.026 1258.77 715.011 1258.75 715.005 1258.68L709.029 1259.22ZM715.182 1264.73C716.147 1264.72 717.193 1264.56 718.284 1264.06C719.353 1263.57 720.312 1262.83 721.219 1261.86L716.854 1257.75C716.332 1258.3 715.982 1258.51 715.784 1258.6C715.609 1258.68 715.43 1258.73 715.134 1258.73L715.182 1264.73ZM721.22 1261.86C722.842 1260.14 724.24 1257.68 725.314 1255.83L720.125 1252.82C718.926 1254.88 717.896 1256.64 716.854 1257.75L721.22 1261.86ZM725.324 1255.81C725.301 1255.85 724.992 1256.43 724.303 1256.84C724.022 1257 723.773 1257.08 723.624 1257.12C723.478 1257.16 723.371 1257.18 723.339 1257.18L722.567 1251.23C722.405 1251.25 721.847 1251.32 721.267 1251.66C720.513 1252.1 720.174 1252.73 720.115 1252.84L725.324 1255.81ZM723.342 1257.18C724 1257.09 724.982 1257 725.575 1256.96L725.213 1250.97C724.455 1251.02 723.331 1251.13 722.564 1251.23L723.342 1257.18ZM725.559 1256.96C725.611 1256.96 725.547 1256.96 725.462 1256.96C725.375 1256.96 725.105 1256.96 724.766 1256.86C724.372 1256.76 724.011 1256.57 723.706 1256.32C723.448 1256.12 723.293 1255.91 723.254 1255.86L728.014 1252.21C727.845 1251.99 727.316 1251.34 726.328 1251.07C725.956 1250.97 725.646 1250.96 725.51 1250.96C725.375 1250.96 725.251 1250.97 725.228 1250.97L725.559 1256.96ZM723.246 1255.85C723.746 1256.51 724.374 1256.95 724.815 1257.2L727.756 1251.97C727.793 1251.99 727.817 1252.01 727.84 1252.03C727.853 1252.04 727.875 1252.06 727.903 1252.08C727.931 1252.11 727.973 1252.16 728.022 1252.22L723.246 1255.85ZM724.796 1257.19C724.81 1257.2 724.869 1257.23 724.929 1257.26C724.993 1257.3 725.108 1257.36 725.253 1257.42C725.606 1257.57 726.006 1257.66 726.446 1257.67L726.59 1251.67C726.746 1251.68 726.92 1251.7 727.107 1251.74C727.293 1251.78 727.448 1251.83 727.567 1251.88C727.677 1251.93 727.755 1251.97 727.779 1251.98C727.798 1251.99 727.812 1252 727.774 1251.98L724.796 1257.19ZM726.46 1257.67C727.796 1257.7 728.659 1256.94 729.035 1256.5L724.458 1252.62C724.733 1252.3 725.44 1251.65 726.577 1251.67L726.46 1257.67ZM729.007 1256.53C729.599 1255.85 730.279 1254.38 729.417 1252.84L724.181 1255.77C723.773 1255.04 723.777 1254.32 723.871 1253.84C723.969 1253.35 724.195 1252.92 724.486 1252.59L729.007 1256.53ZM729.422 1252.84C729.323 1252.67 729.225 1252.53 729.156 1252.45C729.085 1252.35 729.019 1252.28 728.97 1252.23C728.874 1252.13 728.788 1252.05 728.737 1252C728.636 1251.92 728.544 1251.85 728.5 1251.81C728.449 1251.78 728.4 1251.74 728.37 1251.72C728.334 1251.69 728.316 1251.68 728.296 1251.67C728.278 1251.65 728.275 1251.65 728.281 1251.65C728.285 1251.66 728.318 1251.68 728.367 1251.73C728.392 1251.75 728.43 1251.79 728.475 1251.83C728.519 1251.88 728.584 1251.95 728.658 1252.04C728.728 1252.13 728.837 1252.28 728.943 1252.48C729.044 1252.68 729.196 1253.02 729.252 1253.48L723.296 1254.21C723.354 1254.68 723.511 1255.04 723.621 1255.25C723.735 1255.47 723.855 1255.64 723.94 1255.75C724.103 1255.96 724.262 1256.11 724.345 1256.18C724.517 1256.33 724.687 1256.46 724.757 1256.51C724.799 1256.54 724.844 1256.57 724.867 1256.59C724.897 1256.61 724.904 1256.62 724.903 1256.62C724.902 1256.62 724.892 1256.61 724.876 1256.6C724.862 1256.58 724.832 1256.56 724.794 1256.53C724.759 1256.5 724.688 1256.43 724.603 1256.34C724.54 1256.28 724.35 1256.07 724.176 1255.76L729.422 1252.84ZM729.241 1253.4C729.322 1253.95 729.252 1254.54 728.99 1255.09C728.743 1255.61 728.394 1255.95 728.124 1256.16C727.858 1256.36 727.61 1256.48 727.448 1256.55C727.361 1256.58 727.281 1256.61 727.213 1256.63C727.178 1256.64 727.145 1256.65 727.114 1256.66C727.098 1256.66 727.083 1256.67 727.068 1256.67C727.06 1256.67 727.053 1256.67 727.046 1256.68C727.042 1256.68 727.039 1256.68 727.035 1256.68C727.033 1256.68 727.031 1256.68 727.03 1256.68C727.029 1256.68 727.027 1256.68 727.027 1256.68C727.026 1256.68 727.024 1256.68 726.336 1253.76C725.647 1250.84 725.646 1250.84 725.645 1250.84C725.644 1250.84 725.643 1250.84 725.642 1250.84C725.64 1250.84 725.639 1250.84 725.637 1250.84C725.633 1250.84 725.63 1250.85 725.626 1250.85C725.619 1250.85 725.611 1250.85 725.604 1250.85C725.588 1250.86 725.573 1250.86 725.557 1250.86C725.524 1250.87 725.49 1250.88 725.453 1250.89C725.381 1250.92 725.296 1250.94 725.202 1250.98C725.026 1251.05 724.761 1251.18 724.478 1251.4C723.818 1251.9 723.103 1252.92 723.307 1254.29L729.241 1253.4ZM727.27 1256.61C728.192 1256.31 729.288 1255.63 729.943 1254.32L724.576 1251.64C724.673 1251.44 724.817 1251.27 724.985 1251.14C725.143 1251.01 725.294 1250.95 725.402 1250.91L727.27 1256.61ZM729.945 1254.32C730.396 1253.41 731.046 1250.99 729.01 1249.33L725.223 1253.98C724.635 1253.51 724.444 1252.87 724.42 1252.45C724.399 1252.07 724.492 1251.81 724.575 1251.64L729.945 1254.32ZM729.012 1249.33C727.209 1247.86 724.996 1248.49 723.787 1249.62L727.889 1254C727.685 1254.19 727.332 1254.41 726.831 1254.47C726.313 1254.52 725.715 1254.39 725.221 1253.98L729.012 1249.33ZM723.794 1249.61C722.543 1250.78 722.235 1252.35 722.372 1253.56L728.334 1252.88C728.362 1253.12 728.322 1253.6 727.882 1254.01L723.794 1249.61ZM722.372 1253.55C722.371 1253.55 722.366 1253.5 722.362 1253.44C722.358 1253.38 722.352 1253.26 722.36 1253.11C722.376 1252.82 722.455 1252.19 722.912 1251.55C723.381 1250.9 723.982 1250.61 724.341 1250.49C724.664 1250.38 724.923 1250.36 724.982 1250.35L725.518 1256.33C725.631 1256.32 725.931 1256.29 726.285 1256.17C726.675 1256.03 727.297 1255.73 727.78 1255.06C728.25 1254.41 728.335 1253.75 728.352 1253.43C728.367 1253.14 728.336 1252.9 728.335 1252.88L722.372 1253.55ZM725.003 1250.35C724.429 1250.4 723.957 1250.41 723.192 1250.45L723.523 1256.44C724.093 1256.41 724.822 1256.38 725.497 1256.33L725.003 1250.35ZM723.126 1250.45C723.659 1250.41 725.184 1250.51 725.979 1252.05C726.755 1253.55 726.008 1254.84 725.654 1255.28L720.995 1251.5C720.615 1251.96 719.862 1253.28 720.649 1254.81C721.456 1256.37 723.011 1256.48 723.589 1256.44L723.126 1250.45ZM725.952 1254.83C726.403 1254.01 727.12 1253.34 728.344 1252.39L724.682 1247.64C723.365 1248.66 721.784 1249.96 720.697 1251.94L725.952 1254.83ZM728.357 1252.38C729.371 1251.59 729.537 1250.52 729.566 1250.09C729.582 1249.87 729.571 1249.69 729.568 1249.63C729.56 1249.5 729.566 1249.61 729.567 1249.63L723.57 1249.81C723.572 1249.89 723.582 1250.05 723.578 1249.97C723.578 1249.97 723.569 1249.85 723.58 1249.68C723.603 1249.35 723.739 1248.37 724.67 1247.65L728.357 1252.38ZM725.905 1252.65C727.015 1252.9 727.807 1253.18 729.207 1253.56C730.437 1253.89 731.894 1254.2 733.487 1254.19L733.434 1248.19C732.647 1248.2 731.804 1248.04 730.757 1247.76C729.879 1247.53 728.416 1247.06 727.232 1246.8L725.905 1252.65ZM733.486 1254.19C734.778 1254.18 736.282 1253.97 737.778 1253.11L734.797 1247.91C734.493 1248.08 734.111 1248.18 733.435 1248.19L733.486 1254.19ZM737.773 1253.12C738.779 1252.54 740.309 1251.41 740.421 1249.37L734.43 1249.04C734.443 1248.8 734.5 1248.56 734.591 1248.35C734.679 1248.14 734.783 1248 734.857 1247.91C734.986 1247.76 735.034 1247.77 734.802 1247.9L737.773 1253.12ZM740.42 1249.39C740.47 1248.56 740.23 1247.48 739.342 1246.65C738.417 1245.8 737.238 1245.64 736.3 1245.86L737.62 1251.71C736.966 1251.86 736.029 1251.76 735.27 1251.06C734.548 1250.39 734.398 1249.56 734.431 1249.03L740.42 1249.39ZM736.26 1245.86C734.305 1246.33 732.394 1246.35 730.244 1246.07L729.492 1252.03C732.127 1252.36 734.804 1252.38 737.66 1251.7L736.26 1245.86ZM730.245 1246.07C728.958 1245.91 727.794 1245.68 726.339 1245.44C724.963 1245.21 723.443 1245 721.843 1245V1251C722.945 1251 724.079 1251.14 725.361 1251.36C726.564 1251.55 728.062 1251.85 729.49 1252.03L730.245 1246.07ZM721.843 1245C721.361 1245 720.866 1245.02 720.361 1245.06L720.878 1251.04C721.193 1251.01 721.514 1251 721.843 1251V1245ZM728.964 1252.64C729.006 1252.96 728.973 1253.26 728.886 1253.52C728.794 1253.8 728.623 1254.11 728.344 1254.36L724.275 1249.95C723.187 1250.96 722.872 1252.33 723.015 1253.42L728.964 1252.64ZM728.345 1254.36C728.019 1254.66 727.543 1254.94 726.93 1255.02C726.291 1255.11 725.442 1254.97 724.739 1254.34L728.748 1249.87C727.015 1248.32 725.019 1249.27 724.274 1249.96L728.345 1254.36ZM724.748 1254.35C724.207 1253.86 723.972 1253.29 723.879 1252.88C723.789 1252.48 723.81 1252.15 723.837 1251.96C723.889 1251.58 724.021 1251.29 724.171 1251.06L729.194 1254.34C729.472 1253.91 729.698 1253.38 729.78 1252.78C729.842 1252.34 729.937 1250.93 728.74 1249.87L724.748 1254.35ZM724.168 1251.06C724.293 1250.87 724.439 1250.72 724.596 1250.6C724.738 1250.49 725.029 1250.3 725.476 1250.21L726.703 1256.08C727.904 1255.83 728.75 1255.02 729.197 1254.33L724.168 1251.06ZM725.522 1250.2C725.753 1250.15 725.946 1250.14 726.072 1250.14V1256.14C726.208 1256.14 726.413 1256.14 726.657 1256.09L725.522 1250.2ZM726.072 1250.14C726.434 1250.14 726.871 1250.21 727.32 1250.42C727.771 1250.64 728.116 1250.94 728.363 1251.24C728.805 1251.79 728.913 1252.34 728.941 1252.49L723.039 1253.57C723.083 1253.81 723.213 1254.41 723.683 1255C724.29 1255.75 725.182 1256.14 726.072 1256.14V1250.14Z" fill="black" mask="url(#path-86-outside-49_0_1)"/>
    </g>
  </g>
</svg>