<?xml version="1.0" encoding="UTF-8" standalone="yes"?>
<svg width="119" height="119" viewBox="0 0 119 119" fill="none" xmlns="http://www.w3.org/2000/svg">
  <g id="Ford Fiesta" transform="translate(-776.5 -944.5)">
    <g id="Vector_23">
      <mask id="path-69-outside-39_0_1" maskUnits="userSpaceOnUse" x="809" y="985" width="55" height="26" fill="black">
        <rect fill="white" x="809" y="985" width="55" height="26"/>
        <path d="M857.788 993.854C857.635 993.854 857.556 993.874 857.484 994.024C857.246 994.505 854.353 999.086 853.815 999.976C853.724 1000.11 853.613 1000.09 853.6 999.939C853.546 999.41 853.114 998.803 852.433 998.512C851.915 998.289 851.408 998.249 850.881 998.323C849.929 998.459 849.081 998.989 848.336 999.587C847.212 1000.49 846.243 1001.66 844.992 1002.52C844.309 1002.99 843.373 1003.4 842.748 1002.79C842.181 1002.24 842.245 1001 843.112 1000.05C843.203 999.951 843.313 1000.03 843.296 1000.12C843.214 1000.56 843.314 1000.98 843.624 1001.28C844.002 1001.64 844.543 1001.68 845.006 1001.44C845.552 1001.16 845.874 1000.61 845.968 999.979C846.112 999.006 845.403 998.148 844.516 998.079C843.796 998.025 843.106 998.291 842.433 998.878C842.096 999.173 841.903 999.392 841.611 999.83C841.54 999.939 841.431 999.95 841.434 999.79C841.469 998.545 840.981 997.844 840.006 997.821C839.25 997.802 838.442 998.235 837.812 998.766C837.121 999.352 836.518 1000.13 835.87 1000.86C835.79 1000.95 835.72 1000.94 835.698 1000.77C835.678 999.944 835.482 999.145 835.12 998.577C834.992 998.38 834.723 998.282 834.497 998.416C834.392 998.476 834.029 998.653 833.765 998.878C833.634 998.992 833.582 999.157 833.64 999.369C833.99 1000.6 833.913 1002 833.439 1003.19C833.004 1004.27 832.16 1005.25 831.167 1005.58C830.513 1005.8 829.833 1005.69 829.413 1005.08C828.835 1004.23 829.068 1002.76 829.929 1001.54C830.689 1000.47 831.789 999.784 832.885 999.344C833.015 999.292 833.041 999.204 833.004 999.088C832.944 998.897 832.85 998.638 832.811 998.52C832.711 998.237 832.429 998.191 832.085 998.23C831.288 998.329 830.569 998.617 829.859 999.019C828 1000.07 827.068 1002.11 826.659 1003.2C826.463 1003.72 826.294 1004.05 826.077 1004.34C825.784 1004.73 825.416 1005.08 824.743 1005.7C824.682 1005.76 824.637 1005.88 824.688 1005.99C824.756 1006.14 825.107 1006.66 825.205 1006.71C825.315 1006.77 825.442 1006.69 825.493 1006.65C825.963 1006.31 826.527 1005.78 826.802 1005.41C826.899 1005.29 826.999 1005.34 827.049 1005.53C827.307 1006.5 827.981 1007.29 828.912 1007.62C830.617 1008.23 832.386 1007.35 833.72 1005.82C834.569 1004.85 834.875 1004.22 835.2 1003.8C835.751 1003.08 836.838 1001.46 838.132 1000.43C838.607 1000.04 839.17 999.753 839.452 999.946C839.678 1000.1 839.752 1000.46 839.388 1001.16C838.068 1003.71 836.125 1006.7 835.77 1007.43C835.705 1007.55 835.761 1007.65 835.886 1007.65C836.577 1007.65 837.261 1007.65 837.889 1007.65C837.993 1007.64 838.04 1007.59 838.092 1007.52C839.105 1005.84 840.058 1004.25 841.08 1002.6C841.138 1002.5 841.19 1002.58 841.192 1002.62C841.213 1003 841.303 1003.52 841.517 1003.87C841.903 1004.5 842.451 1004.78 843.058 1004.78C843.541 1004.79 843.785 1004.71 844.306 1004.5C844.73 1004.34 845.07 1004.12 845.332 1003.92C845.484 1003.81 845.511 1004 845.507 1004.03C845.272 1005.36 845.562 1006.93 846.813 1007.58C848.311 1008.37 849.955 1007.27 850.902 1006.28C850.994 1006.18 851.094 1006.19 851.103 1006.4C851.123 1006.78 851.285 1007.23 851.58 1007.54C852.374 1008.38 853.974 1008.05 855.58 1006.73C856.611 1005.89 857.69 1004.7 858.665 1003.45C858.702 1003.4 858.728 1003.32 858.659 1003.24C858.51 1003.08 858.296 1002.89 858.148 1002.74C858.081 1002.68 857.983 1002.7 857.926 1002.75C856.927 1003.75 856.028 1004.89 854.728 1005.84C854.29 1006.16 853.591 1006.42 853.277 1005.98C853.155 1005.8 853.169 1005.56 853.289 1005.24C853.668 1004.25 859.668 994.593 859.98 994.025C860.033 993.925 859.977 993.853 859.858 993.853C859.241 993.853 858.431 993.854 857.788 993.854M848.279 1005.72C847.97 1005.55 847.836 1005.09 847.843 1004.72C847.859 1003.68 848.294 1002.62 849.102 1001.57C850.087 1000.29 851.176 999.623 851.89 999.986C852.629 1000.36 852.393 1001.26 852.062 1001.97C852.038 1002.03 852.036 1002.07 852.049 1002.12C852.061 1002.19 852.153 1002.26 852.242 1002.3C852.273 1002.31 852.29 1002.33 852.255 1002.41C852 1002.99 851.765 1003.32 851.445 1003.83C851.151 1004.29 850.82 1004.65 850.419 1005C849.952 1005.41 849.345 1005.84 848.773 1005.84C848.604 1005.84 848.438 1005.81 848.279 1005.72Z"/>
        <path d="M824.169 988.073C820.481 988.401 816.972 990.594 816.965 993.925C816.962 995.613 818.098 996.982 819.858 996.922C821.927 996.848 823.626 995.097 824.515 992.888C824.852 992.05 824.227 991.703 823.93 992.185C823.399 993.054 822.651 993.729 821.842 994.147C820.869 994.651 819.828 994.515 819.513 993.68C819.069 992.502 819.991 990.738 822.095 989.908C825.134 988.72 828.313 989.506 831.372 990.114C831.416 990.114 831.579 990.209 831.435 990.289C830.886 990.604 830.348 990.861 829.507 991.625C828.905 992.17 828.116 992.896 827.506 993.686C826.901 994.465 826.471 995.161 825.903 995.931C825.825 996.042 825.727 996.037 825.728 996.037C824.344 996.284 822.989 996.449 821.748 997.361C821.492 997.548 821.38 997.88 821.536 998.135C821.675 998.36 821.995 998.384 822.217 998.213C822.989 997.604 823.782 997.317 824.692 997.29C824.732 997.293 824.751 997.3 824.762 997.326C824.769 997.34 824.765 997.371 824.749 997.394C823.385 999.392 823.044 999.843 822.018 1001.08C821.494 1001.72 820.978 1002.26 820.402 1002.82C818.073 1005.1 815.569 1005.06 814.67 1003.63C814.133 1002.77 814.204 1001.87 814.556 1001.12C814.989 1000.2 815.865 999.528 816.592 999.135C816.863 998.989 816.94 998.624 816.67 998.291C816.498 998.074 816.081 998.035 815.77 998.096C814.816 998.282 813.689 999.044 813.024 999.96C812.273 1000.99 811.898 1002.24 812.024 1003.64C812.25 1006.17 814.221 1007.63 816.458 1007.61C818.239 1007.6 819.916 1007.03 821.934 1004.86C823.815 1002.84 825.529 999.83 827.133 997.034C827.184 996.944 827.22 996.896 827.463 996.864C828.469 996.731 829.955 996.58 830.909 996.521C831.12 996.509 831.163 996.512 831.248 996.623C831.496 996.954 831.868 997.236 832.167 997.406C832.313 997.49 832.382 997.531 832.496 997.533C832.637 997.536 832.747 997.456 832.818 997.371C832.92 997.254 832.947 997.101 832.893 997.002C832.835 996.898 832.171 996.509 832.152 996.352C832.137 996.254 832.239 996.23 832.239 996.23C832.727 996.068 833.235 995.736 833.543 995.112C833.845 994.499 833.894 993.681 833.341 993.225C832.856 992.825 832.122 992.888 831.536 993.443C830.963 993.983 830.774 994.766 830.852 995.454C830.865 995.573 830.859 995.613 830.706 995.627C829.825 995.701 828.977 995.727 828.034 995.78C827.97 995.785 827.95 995.74 827.987 995.695C829.073 993.7 830.695 992.28 832.489 990.881C832.608 990.788 832.571 990.608 832.567 990.459C835.806 991.202 838.936 992.586 842.297 992.556C843.687 992.545 845.018 992.321 846.289 991.585C847.407 990.94 847.861 990.343 847.894 989.724C847.92 989.295 847.639 989.025 847.237 989.117C843.842 989.942 840.603 989.932 837.225 989.501C833.391 989.009 829.71 988 825.896 988C825.323 988 824.748 988.022 824.169 988.073ZM831.75 995.189C831.701 994.809 831.818 994.3 832.201 993.942C832.395 993.761 832.655 993.72 832.814 993.865C832.994 994.027 832.909 994.43 832.728 994.71C832.531 995.017 832.196 995.283 831.891 995.347C831.882 995.349 831.874 995.35 831.866 995.35C831.815 995.35 831.772 995.312 831.75 995.189Z"/>
      </mask>
      <path d="M857.788 993.854C857.635 993.854 857.556 993.874 857.484 994.024C857.246 994.505 854.353 999.086 853.815 999.976C853.724 1000.11 853.613 1000.09 853.6 999.939C853.546 999.41 853.114 998.803 852.433 998.512C851.915 998.289 851.408 998.249 850.881 998.323C849.929 998.459 849.081 998.989 848.336 999.587C847.212 1000.49 846.243 1001.66 844.992 1002.52C844.309 1002.99 843.373 1003.4 842.748 1002.79C842.181 1002.24 842.245 1001 843.112 1000.05C843.203 999.951 843.313 1000.03 843.296 1000.12C843.214 1000.56 843.314 1000.98 843.624 1001.28C844.002 1001.64 844.543 1001.68 845.006 1001.44C845.552 1001.16 845.874 1000.61 845.968 999.979C846.112 999.006 845.403 998.148 844.516 998.079C843.796 998.025 843.106 998.291 842.433 998.878C842.096 999.173 841.903 999.392 841.611 999.83C841.54 999.939 841.431 999.95 841.434 999.79C841.469 998.545 840.981 997.844 840.006 997.821C839.25 997.802 838.442 998.235 837.812 998.766C837.121 999.352 836.518 1000.13 835.87 1000.86C835.79 1000.95 835.72 1000.94 835.698 1000.77C835.678 999.944 835.482 999.145 835.12 998.577C834.992 998.38 834.723 998.282 834.497 998.416C834.392 998.476 834.029 998.653 833.765 998.878C833.634 998.992 833.582 999.157 833.64 999.369C833.99 1000.6 833.913 1002 833.439 1003.19C833.004 1004.27 832.16 1005.25 831.167 1005.58C830.513 1005.8 829.833 1005.69 829.413 1005.08C828.835 1004.23 829.068 1002.76 829.929 1001.54C830.689 1000.47 831.789 999.784 832.885 999.344C833.015 999.292 833.041 999.204 833.004 999.088C832.944 998.897 832.85 998.638 832.811 998.52C832.711 998.237 832.429 998.191 832.085 998.23C831.288 998.329 830.569 998.617 829.859 999.019C828 1000.07 827.068 1002.11 826.659 1003.2C826.463 1003.72 826.294 1004.05 826.077 1004.34C825.784 1004.73 825.416 1005.08 824.743 1005.7C824.682 1005.76 824.637 1005.88 824.688 1005.99C824.756 1006.14 825.107 1006.66 825.205 1006.71C825.315 1006.77 825.442 1006.69 825.493 1006.65C825.963 1006.31 826.527 1005.78 826.802 1005.41C826.899 1005.29 826.999 1005.34 827.049 1005.53C827.307 1006.5 827.981 1007.29 828.912 1007.62C830.617 1008.23 832.386 1007.35 833.72 1005.82C834.569 1004.85 834.875 1004.22 835.2 1003.8C835.751 1003.08 836.838 1001.46 838.132 1000.43C838.607 1000.04 839.17 999.753 839.452 999.946C839.678 1000.1 839.752 1000.46 839.388 1001.16C838.068 1003.71 836.125 1006.7 835.77 1007.43C835.705 1007.55 835.761 1007.65 835.886 1007.65C836.577 1007.65 837.261 1007.65 837.889 1007.65C837.993 1007.64 838.04 1007.59 838.092 1007.52C839.105 1005.84 840.058 1004.25 841.08 1002.6C841.138 1002.5 841.19 1002.58 841.192 1002.62C841.213 1003 841.303 1003.52 841.517 1003.87C841.903 1004.5 842.451 1004.78 843.058 1004.78C843.541 1004.79 843.785 1004.71 844.306 1004.5C844.73 1004.34 845.07 1004.12 845.332 1003.92C845.484 1003.81 845.511 1004 845.507 1004.03C845.272 1005.36 845.562 1006.93 846.813 1007.58C848.311 1008.37 849.955 1007.27 850.902 1006.28C850.994 1006.18 851.094 1006.19 851.103 1006.4C851.123 1006.78 851.285 1007.23 851.58 1007.54C852.374 1008.38 853.974 1008.05 855.58 1006.73C856.611 1005.89 857.69 1004.7 858.665 1003.45C858.702 1003.4 858.728 1003.32 858.659 1003.24C858.51 1003.08 858.296 1002.89 858.148 1002.74C858.081 1002.68 857.983 1002.7 857.926 1002.75C856.927 1003.75 856.028 1004.89 854.728 1005.84C854.29 1006.16 853.591 1006.42 853.277 1005.98C853.155 1005.8 853.169 1005.56 853.289 1005.24C853.668 1004.25 859.668 994.593 859.98 994.025C860.033 993.925 859.977 993.853 859.858 993.853C859.241 993.853 858.431 993.854 857.788 993.854M848.279 1005.72C847.97 1005.55 847.836 1005.09 847.843 1004.72C847.859 1003.68 848.294 1002.62 849.102 1001.57C850.087 1000.29 851.176 999.623 851.89 999.986C852.629 1000.36 852.393 1001.26 852.062 1001.97C852.038 1002.03 852.036 1002.07 852.049 1002.12C852.061 1002.19 852.153 1002.26 852.242 1002.3C852.273 1002.31 852.29 1002.33 852.255 1002.41C852 1002.99 851.765 1003.32 851.445 1003.83C851.151 1004.29 850.82 1004.65 850.419 1005C849.952 1005.41 849.345 1005.84 848.773 1005.84C848.604 1005.84 848.438 1005.81 848.279 1005.72Z" fill="white"/>
      <path d="M824.169 988.073C820.481 988.401 816.972 990.594 816.965 993.925C816.962 995.613 818.098 996.982 819.858 996.922C821.927 996.848 823.626 995.097 824.515 992.888C824.852 992.05 824.227 991.703 823.93 992.185C823.399 993.054 822.651 993.729 821.842 994.147C820.869 994.651 819.828 994.515 819.513 993.68C819.069 992.502 819.991 990.738 822.095 989.908C825.134 988.72 828.313 989.506 831.372 990.114C831.416 990.114 831.579 990.209 831.435 990.289C830.886 990.604 830.348 990.861 829.507 991.625C828.905 992.17 828.116 992.896 827.506 993.686C826.901 994.465 826.471 995.161 825.903 995.931C825.825 996.042 825.727 996.037 825.728 996.037C824.344 996.284 822.989 996.449 821.748 997.361C821.492 997.548 821.38 997.88 821.536 998.135C821.675 998.36 821.995 998.384 822.217 998.213C822.989 997.604 823.782 997.317 824.692 997.29C824.732 997.293 824.751 997.3 824.762 997.326C824.769 997.34 824.765 997.371 824.749 997.394C823.385 999.392 823.044 999.843 822.018 1001.08C821.494 1001.72 820.978 1002.26 820.402 1002.82C818.073 1005.1 815.569 1005.06 814.67 1003.63C814.133 1002.77 814.204 1001.87 814.556 1001.12C814.989 1000.2 815.865 999.528 816.592 999.135C816.863 998.989 816.94 998.624 816.67 998.291C816.498 998.074 816.081 998.035 815.77 998.096C814.816 998.282 813.689 999.044 813.024 999.96C812.273 1000.99 811.898 1002.24 812.024 1003.64C812.25 1006.17 814.221 1007.63 816.458 1007.61C818.239 1007.6 819.916 1007.03 821.934 1004.86C823.815 1002.84 825.529 999.83 827.133 997.034C827.184 996.944 827.22 996.896 827.463 996.864C828.469 996.731 829.955 996.58 830.909 996.521C831.12 996.509 831.163 996.512 831.248 996.623C831.496 996.954 831.868 997.236 832.167 997.406C832.313 997.49 832.382 997.531 832.496 997.533C832.637 997.536 832.747 997.456 832.818 997.371C832.92 997.254 832.947 997.101 832.893 997.002C832.835 996.898 832.171 996.509 832.152 996.352C832.137 996.254 832.239 996.23 832.239 996.23C832.727 996.068 833.235 995.736 833.543 995.112C833.845 994.499 833.894 993.681 833.341 993.225C832.856 992.825 832.122 992.888 831.536 993.443C830.963 993.983 830.774 994.766 830.852 995.454C830.865 995.573 830.859 995.613 830.706 995.627C829.825 995.701 828.977 995.727 828.034 995.78C827.97 995.785 827.95 995.74 827.987 995.695C829.073 993.7 830.695 992.28 832.489 990.881C832.608 990.788 832.571 990.608 832.567 990.459C835.806 991.202 838.936 992.586 842.297 992.556C843.687 992.545 845.018 992.321 846.289 991.585C847.407 990.94 847.861 990.343 847.894 989.724C847.92 989.295 847.639 989.025 847.237 989.117C843.842 989.942 840.603 989.932 837.225 989.501C833.391 989.009 829.71 988 825.896 988C825.323 988 824.748 988.022 824.169 988.073ZM831.75 995.189C831.701 994.809 831.818 994.3 832.201 993.942C832.395 993.761 832.655 993.72 832.814 993.865C832.994 994.027 832.909 994.43 832.728 994.71C832.531 995.017 832.196 995.283 831.891 995.347C831.882 995.349 831.874 995.35 831.866 995.35C831.815 995.35 831.772 995.312 831.75 995.189Z" fill="white"/>
      <path d="M857.484 994.024L860.174 995.353L860.181 995.337L860.188 995.322L857.484 994.024ZM853.815 999.976L856.307 1001.65L856.345 1001.59L856.381 1001.53L853.815 999.976ZM853.6 999.939L856.591 999.696L856.588 999.664L856.585 999.631L853.6 999.939ZM852.433 998.512L851.248 1001.27L851.254 1001.27L852.433 998.512ZM850.881 998.323L850.466 995.351L850.456 995.353L850.881 998.323ZM848.336 999.587L846.459 997.246L846.456 997.249L848.336 999.587ZM844.992 1002.52L846.694 1004.99L846.698 1004.99L844.992 1002.52ZM842.748 1002.79L844.848 1000.65L844.846 1000.65L842.748 1002.79ZM843.112 1000.05L840.897 998.028L840.892 998.033L843.112 1000.05ZM843.296 1000.12L840.348 999.567L840.348 999.568L843.296 1000.12ZM843.624 1001.28L841.533 1003.44L841.547 1003.45L841.561 1003.46L843.624 1001.28ZM845.006 1001.44L846.381 1004.11L846.39 1004.11L846.399 1004.1L845.006 1001.44ZM845.968 999.979L848.934 1000.42L848.935 1000.42L845.968 999.979ZM844.516 998.079L844.748 995.088L844.739 995.087L844.516 998.079ZM842.433 998.878L840.461 996.617L840.457 996.621L842.433 998.878ZM841.611 999.83L839.113 998.169L839.108 998.178L839.102 998.186L841.611 999.83ZM841.434 999.79L838.435 999.706L838.435 999.723L838.434 999.741L841.434 999.79ZM840.006 997.821L839.932 1000.82L839.935 1000.82L840.006 997.821ZM837.812 998.766L835.878 996.472L835.871 996.479L837.812 998.766ZM835.87 1000.86L838.106 1002.86L838.111 1002.85L838.116 1002.85L835.87 1000.86ZM835.698 1000.77L832.699 1000.84L832.702 1001L832.722 1001.15L835.698 1000.77ZM835.12 998.577L837.649 996.965L837.645 996.959L837.642 996.953L835.12 998.577ZM834.497 998.416L835.992 1001.02L836.007 1001.01L836.021 1001L834.497 998.416ZM833.765 998.878L831.82 996.594L831.81 996.602L831.801 996.611L833.765 998.878ZM833.64 999.369L830.745 1000.16L830.75 1000.17L830.754 1000.19L833.64 999.369ZM833.439 1003.19L836.223 1004.31L836.225 1004.3L833.439 1003.19ZM831.167 1005.58L830.218 1002.73L830.214 1002.74L831.167 1005.58ZM829.413 1005.08L826.935 1006.77L826.94 1006.78L829.413 1005.08ZM829.929 1001.54L827.48 999.809L827.476 999.814L829.929 1001.54ZM832.885 999.344L834.003 1002.13L834.01 1002.13L834.018 1002.12L832.885 999.344ZM833.004 999.088L830.141 999.985L830.145 999.996L833.004 999.088ZM832.811 998.52L835.663 997.589L835.651 997.551L835.638 997.514L832.811 998.52ZM832.085 998.23L831.748 995.249L831.732 995.251L831.717 995.253L832.085 998.23ZM829.859 999.019L828.381 996.408L828.381 996.408L829.859 999.019ZM826.659 1003.2L829.467 1004.25L829.468 1004.25L826.659 1003.2ZM826.077 1004.34L828.474 1006.14L828.478 1006.13L826.077 1004.34ZM824.743 1005.7L822.704 1003.5L822.688 1003.52L822.673 1003.53L824.743 1005.7ZM824.688 1005.99L821.957 1007.23L821.96 1007.24L824.688 1005.99ZM825.205 1006.71L826.587 1004.05L826.544 1004.03L826.501 1004.01L825.205 1006.71ZM825.493 1006.65L823.744 1004.21L823.723 1004.23L823.701 1004.24L825.493 1006.65ZM826.802 1005.41L824.445 1003.56L824.428 1003.58L824.412 1003.6L826.802 1005.41ZM827.049 1005.53L829.948 1004.76L829.946 1004.75L827.049 1005.53ZM828.912 1007.62L829.919 1004.8L829.915 1004.8L828.912 1007.62ZM833.72 1005.82L831.46 1003.85L831.459 1003.85L833.72 1005.82ZM835.2 1003.8L832.816 1001.98L832.814 1001.98L835.2 1003.8ZM838.132 1000.43L840.008 1002.77L840.012 1002.76L838.132 1000.43ZM839.452 999.946L837.756 1002.42L837.757 1002.42L839.452 999.946ZM839.388 1001.16L836.726 999.777L836.725 999.78L839.388 1001.16ZM835.77 1007.43L838.434 1008.81L838.45 1008.78L838.464 1008.75L835.77 1007.43ZM835.886 1007.65V1010.65H835.893L835.901 1010.65L835.886 1007.65ZM837.889 1007.65V1010.65H837.968L838.048 1010.65L837.889 1007.65ZM838.092 1007.52L840.571 1009.21L840.617 1009.14L840.66 1009.07L838.092 1007.52ZM841.08 1002.6L843.63 1004.18L843.642 1004.16L843.653 1004.14L841.08 1002.6ZM841.192 1002.62L838.196 1002.76L838.196 1002.77L838.197 1002.78L841.192 1002.62ZM841.517 1003.87L844.082 1002.31L844.072 1002.29L844.061 1002.28L841.517 1003.87ZM843.058 1004.78L843.097 1001.78L843.086 1001.78L843.075 1001.78L843.058 1004.78ZM844.306 1004.5L843.212 1001.71L843.205 1001.71L844.306 1004.5ZM845.332 1003.92L843.558 1001.5L843.539 1001.51L843.521 1001.53L845.332 1003.92ZM845.507 1004.03L848.461 1004.55L848.472 1004.49L848.48 1004.43L845.507 1004.03ZM846.813 1007.58L845.425 1010.24L845.427 1010.25L846.813 1007.58ZM850.902 1006.28L848.738 1004.2L848.734 1004.2L850.902 1006.28ZM851.103 1006.4L848.106 1006.53L848.106 1006.55L848.107 1006.56L851.103 1006.4ZM851.58 1007.54L853.764 1005.48L853.762 1005.48L851.58 1007.54ZM855.58 1006.73L853.683 1004.41L853.681 1004.41L855.58 1006.73ZM858.665 1003.45L861.037 1005.28L861.055 1005.26L861.072 1005.24L858.665 1003.45ZM858.659 1003.24L860.902 1001.25L860.894 1001.24L860.886 1001.23L858.659 1003.24ZM858.148 1002.74L860.255 1000.61L860.201 1000.55L860.144 1000.5L858.148 1002.74ZM857.926 1002.75L856.067 1000.39L855.926 1000.5L855.8 1000.63L857.926 1002.75ZM854.728 1005.84L852.962 1003.42L852.951 1003.42L854.728 1005.84ZM853.277 1005.98L855.736 1004.26L855.73 1004.25L853.277 1005.98ZM853.289 1005.24L856.093 1006.31L856.094 1006.31L853.289 1005.24ZM859.98 994.025L862.611 995.466L862.62 995.45L862.628 995.435L859.98 994.025ZM848.279 1005.72L849.742 1003.1L849.729 1003.09L849.717 1003.08L848.279 1005.72ZM847.843 1004.72L850.843 1004.77L850.843 1004.77L847.843 1004.72ZM849.102 1001.57L851.478 1003.4L851.481 1003.4L849.102 1001.57ZM851.89 999.986L850.53 1002.66L850.537 1002.66L851.89 999.986ZM852.062 1001.97L849.343 1000.7L849.328 1000.74L849.314 1000.77L852.062 1001.97ZM852.049 1002.12L855.007 1001.62L854.977 1001.44L854.926 1001.27L852.049 1002.12ZM852.242 1002.3L853.367 999.518L853.338 999.506L853.309 999.495L852.242 1002.3ZM852.255 1002.41L849.526 1001.17L849.518 1001.18L849.51 1001.2L852.255 1002.41ZM851.445 1003.83L848.915 1002.21L848.909 1002.22L851.445 1003.83ZM850.419 1005L848.454 1002.73L848.449 1002.74L848.443 1002.74L850.419 1005ZM824.169 988.073L823.907 985.084L823.902 985.085L824.169 988.073ZM816.965 993.925L813.965 993.919L813.965 993.919L816.965 993.925ZM819.858 996.922L819.961 999.92L819.965 999.92L819.858 996.922ZM824.515 992.888L821.732 991.767L821.732 991.768L824.515 992.888ZM823.93 992.185L821.375 990.612L821.37 990.621L823.93 992.185ZM821.842 994.147L823.22 996.812L823.221 996.812L821.842 994.147ZM819.513 993.68L816.705 994.736L816.706 994.739L819.513 993.68ZM822.095 989.908L821.002 987.114L820.993 987.118L822.095 989.908ZM831.372 990.114L830.787 993.056L831.077 993.114H831.372V990.114ZM831.435 990.289L829.979 987.665L829.96 987.676L829.94 987.687L831.435 990.289ZM829.507 991.625L831.52 993.85L831.526 993.844L829.507 991.625ZM827.506 993.686L829.875 995.527L829.881 995.52L827.506 993.686ZM825.903 995.931L823.489 994.149L823.466 994.18L823.445 994.211L825.903 995.931ZM825.728 996.037L826.255 998.99L825.728 993.037V996.037ZM821.748 997.361L823.517 999.784L823.525 999.778L821.748 997.361ZM821.536 998.135L818.979 999.704L818.983 999.71L821.536 998.135ZM822.217 998.213L824.046 1000.59L824.061 1000.58L824.076 1000.57L822.217 998.213ZM824.692 997.29L824.9 994.298L824.753 994.287L824.605 994.292L824.692 997.29ZM824.762 997.326L822.011 998.523L822.04 998.589L822.071 998.653L824.762 997.326ZM824.749 997.394L822.305 995.654L822.288 995.678L822.271 995.702L824.749 997.394ZM822.018 1001.08L819.707 999.17L819.703 999.175L822.018 1001.08ZM820.402 1002.82L818.313 1000.66L818.307 1000.67L818.3 1000.67L820.402 1002.82ZM814.67 1003.63L812.126 1005.22L812.128 1005.22L814.67 1003.63ZM814.556 1001.12L811.842 999.839L811.841 999.841L814.556 1001.12ZM816.592 999.135L815.17 996.493L815.166 996.495L816.592 999.135ZM816.67 998.291L814.322 1000.16L814.332 1000.17L814.341 1000.18L816.67 998.291ZM815.77 998.096L816.345 1001.04L816.349 1001.04L815.77 998.096ZM813.024 999.96L815.448 1001.73L815.451 1001.72L813.024 999.96ZM812.024 1003.64L809.036 1003.91L809.036 1003.91L812.024 1003.64ZM816.458 1007.61L816.481 1010.61L816.483 1010.61L816.458 1007.61ZM821.934 1004.86L824.129 1006.91L824.13 1006.91L821.934 1004.86ZM827.133 997.034L829.735 998.527L829.741 998.518L829.746 998.509L827.133 997.034ZM827.463 996.864L827.854 999.839L827.857 999.838L827.463 996.864ZM830.909 996.521L830.741 993.526L830.733 993.526L830.725 993.527L830.909 996.521ZM831.248 996.623L833.646 994.821L833.638 994.811L831.248 996.623ZM832.167 997.406L833.67 994.809L833.66 994.803L833.651 994.798L832.167 997.406ZM832.496 997.533L832.424 1000.53L832.437 1000.53L832.496 997.533ZM832.818 997.371L830.546 995.412L830.533 995.428L830.519 995.444L832.818 997.371ZM832.893 997.002L830.263 998.446L830.267 998.454L832.893 997.002ZM832.152 996.352L835.13 995.992L835.125 995.953L835.119 995.914L832.152 996.352ZM832.239 996.23L832.935 999.148L833.06 999.118L833.183 999.077L832.239 996.23ZM833.543 995.112L836.232 996.441L836.234 996.438L833.543 995.112ZM833.341 993.225L831.432 995.539L831.434 995.541L833.341 993.225ZM831.536 993.443L833.593 995.628L833.6 995.621L831.536 993.443ZM830.852 995.454L833.833 995.124L833.833 995.118L830.852 995.454ZM830.706 995.627L830.955 998.617L830.966 998.616L830.977 998.615L830.706 995.627ZM828.034 995.78L827.866 992.785L827.833 992.787L827.799 992.789L828.034 995.78ZM827.987 995.695L830.328 997.571L830.495 997.363L830.622 997.129L827.987 995.695ZM832.489 990.881L834.334 993.247L834.34 993.242L834.346 993.238L832.489 990.881ZM832.567 990.459L833.238 987.535L829.448 986.665L829.568 990.551L832.567 990.459ZM842.297 992.556L842.272 989.556L842.271 989.556L842.297 992.556ZM846.289 991.585L844.79 988.986L844.785 988.989L846.289 991.585ZM847.894 989.724L844.9 989.545L844.899 989.554L844.899 989.562L847.894 989.724ZM847.237 989.117L846.57 986.192L846.549 986.197L846.529 986.202L847.237 989.117ZM837.225 989.501L836.843 992.476L836.845 992.477L837.225 989.501ZM831.75 995.189L828.775 995.574L828.785 995.649L828.798 995.722L831.75 995.189ZM832.201 993.942L834.249 996.135L834.25 996.134L832.201 993.942ZM832.814 993.865L830.797 996.086L830.805 996.093L832.814 993.865ZM832.728 994.71L830.208 993.082L830.205 993.087L832.728 994.71ZM831.891 995.347L832.465 998.292L832.488 998.288L832.511 998.283L831.891 995.347ZM857.788 990.854C857.694 990.854 857.002 990.832 856.269 991.197C855.4 991.629 854.973 992.321 854.779 992.727L860.188 995.322C860.066 995.577 859.715 996.184 858.942 996.569C858.601 996.738 858.297 996.803 858.104 996.83C857.927 996.855 857.797 996.854 857.788 996.854V990.854ZM854.794 992.696C854.811 992.66 854.685 992.882 854.328 993.465C854.021 993.966 853.625 994.603 853.216 995.26C852.412 996.551 851.531 997.956 851.248 998.423L856.381 1001.53C856.637 1001.11 857.472 999.776 858.308 998.433C858.719 997.774 859.125 997.12 859.444 996.599C859.713 996.16 860.037 995.629 860.174 995.353L854.794 992.696ZM851.322 998.307C851.453 998.11 852.398 996.8 854.189 997.11C856.259 997.468 856.564 999.374 856.591 999.696L850.61 1000.18C850.649 1000.66 851.016 1002.65 853.167 1003.02C855.039 1003.35 856.085 1001.98 856.307 1001.65L851.322 998.307ZM856.585 999.631C856.404 997.875 855.156 996.413 853.612 995.753L851.254 1001.27C851.115 1001.21 850.993 1001.12 850.894 1000.99C850.807 1000.88 850.657 1000.64 850.616 1000.25L856.585 999.631ZM853.618 995.756C852.514 995.281 851.439 995.216 850.466 995.351L851.296 1001.29C851.325 1001.29 851.34 1001.29 851.344 1001.29C851.347 1001.29 851.341 1001.29 851.327 1001.29C851.313 1001.29 851.297 1001.28 851.28 1001.28C851.264 1001.27 851.252 1001.27 851.248 1001.27L853.618 995.756ZM850.456 995.353C848.7 995.604 847.338 996.542 846.459 997.246L850.212 1001.93C850.825 1001.44 851.159 1001.31 851.305 1001.29L850.456 995.353ZM846.456 997.249C845.768 997.802 845.119 998.444 844.643 998.897C844.117 999.397 843.706 999.766 843.286 1000.06L846.698 1004.99C847.53 1004.42 848.228 1003.77 848.78 1003.24C849.383 1002.67 849.78 1002.27 850.215 1001.92L846.456 997.249ZM843.29 1000.05C843.21 1000.11 843.151 1000.14 843.118 1000.16C843.08 1000.18 843.117 1000.15 843.222 1000.13C843.329 1000.11 843.575 1000.07 843.902 1000.14C844.259 1000.22 844.594 1000.4 844.848 1000.65L840.648 1004.93C841.889 1006.15 843.42 1006.22 844.474 1006C845.431 1005.79 846.216 1005.32 846.694 1004.99L843.29 1000.05ZM844.846 1000.65C845.408 1001.2 845.388 1001.77 845.375 1001.89C845.356 1002.07 845.299 1002.1 845.332 1002.07L840.892 998.033C840.058 998.951 839.535 1000.08 839.41 1001.25C839.29 1002.36 839.521 1003.83 840.65 1004.94L844.846 1000.65ZM845.327 1002.07C845.005 1002.43 844.497 1002.8 843.803 1002.94C843.103 1003.09 842.406 1002.97 841.831 1002.66C840.757 1002.09 840.103 1000.86 840.348 999.567L846.243 1000.68C846.505 999.299 845.806 997.984 844.658 997.37C843.244 996.615 841.733 997.113 840.897 998.028L845.327 1002.07ZM840.348 999.568C840.118 1000.79 840.365 1002.3 841.533 1003.44L845.714 999.133C846.263 999.666 846.311 1000.33 846.244 1000.68L840.348 999.568ZM841.561 1003.46C842.993 1004.82 844.948 1004.85 846.381 1004.11L843.631 998.778C844.137 998.518 845.011 998.467 845.686 999.106L841.561 1003.46ZM846.399 1004.1C847.989 1003.27 848.735 1001.75 848.934 1000.42L843.001 999.534C843.012 999.458 843.116 999.049 843.612 998.788L846.399 1004.1ZM848.935 1000.42C849.328 997.776 847.419 995.295 844.748 995.088L844.285 1001.07C843.387 1001 842.896 1000.24 843 999.538L848.935 1000.42ZM844.739 995.087C843.036 994.961 841.584 995.637 840.461 996.617L844.404 1001.14C844.529 1001.03 844.573 1001.02 844.531 1001.04C844.51 1001.05 844.474 1001.06 844.427 1001.07C844.38 1001.07 844.334 1001.07 844.294 1001.07L844.739 995.087ZM840.457 996.621C839.903 997.105 839.539 997.529 839.113 998.169L844.11 1001.49C844.215 1001.33 844.259 1001.28 844.273 1001.26C844.283 1001.25 844.308 1001.22 844.409 1001.14L840.457 996.621ZM839.102 998.186C839.254 997.955 839.494 997.666 839.861 997.415C840.197 997.186 840.879 996.832 841.799 996.926C842.875 997.036 843.668 997.693 844.073 998.421C844.415 999.036 844.438 999.596 844.434 999.839L838.434 999.741C838.429 1000.06 838.465 1000.68 838.829 1001.34C839.256 1002.1 840.079 1002.78 841.191 1002.9C842.147 1002.99 842.87 1002.63 843.246 1002.37C843.653 1002.09 843.934 1001.76 844.121 1001.47L839.102 998.186ZM844.433 999.874C844.46 998.915 844.31 997.676 843.536 996.598C842.661 995.378 841.346 994.851 840.076 994.822L839.935 1000.82C839.826 1000.82 839.604 1000.79 839.336 1000.66C839.057 1000.53 838.825 1000.32 838.661 1000.1C838.366 999.685 838.443 999.42 838.435 999.706L844.433 999.874ZM840.08 994.822C838.244 994.776 836.729 995.755 835.878 996.472L839.745 1001.06C839.816 1001 839.887 1000.95 839.954 1000.9C840.021 1000.86 840.076 1000.83 840.113 1000.81C840.152 1000.8 840.159 1000.8 840.136 1000.8C840.112 1000.81 840.041 1000.82 839.932 1000.82L840.08 994.822ZM835.871 996.479C834.963 997.249 834.087 998.348 833.625 998.869L838.116 1002.85C838.948 1001.91 839.279 1001.46 839.753 1001.05L835.871 996.479ZM833.635 998.858C833.737 998.743 833.998 998.469 834.428 998.246C834.884 998.008 835.789 997.711 836.835 998.111C837.824 998.49 838.275 999.245 838.441 999.599C838.613 999.967 838.659 1000.27 838.673 1000.39L832.722 1001.15C832.748 1001.35 832.811 1001.72 833.005 1002.14C833.193 1002.54 833.67 1003.32 834.69 1003.71C835.766 1004.13 836.705 1003.82 837.198 1003.57C837.664 1003.32 837.964 1003.02 838.106 1002.86L833.635 998.858ZM838.697 1000.7C838.669 999.515 838.393 998.131 837.649 996.965L832.59 1000.19C832.567 1000.15 832.597 1000.19 832.633 1000.33C832.667 1000.46 832.694 1000.64 832.699 1000.84L838.697 1000.7ZM837.642 996.953C836.796 995.64 834.82 994.743 832.974 995.832L836.021 1001C834.627 1001.82 833.188 1001.12 832.598 1000.2L837.642 996.953ZM833.003 995.814C833.022 995.803 833.054 995.786 832.95 995.842C832.885 995.878 832.788 995.93 832.679 995.994C832.479 996.11 832.148 996.314 831.82 996.594L835.71 1001.16C835.67 1001.2 835.648 1001.21 835.654 1001.21C835.659 1001.2 835.675 1001.19 835.703 1001.18C835.73 1001.16 835.761 1001.14 835.801 1001.12C835.811 1001.12 835.821 1001.11 835.833 1001.1C835.843 1001.1 835.857 1001.09 835.871 1001.08C835.89 1001.07 835.94 1001.05 835.992 1001.02L833.003 995.814ZM831.801 996.611C830.681 997.581 830.428 998.99 830.745 1000.16L836.535 998.582C836.617 998.882 836.67 999.337 836.529 999.864C836.384 1000.41 836.079 1000.84 835.73 1001.15L831.801 996.611ZM830.754 1000.19C830.921 1000.78 830.883 1001.5 830.653 1002.07L836.225 1004.3C836.943 1002.51 837.058 1000.43 836.526 998.551L830.754 1000.19ZM830.655 1002.07C830.566 1002.29 830.437 1002.49 830.309 1002.63C830.176 1002.77 830.127 1002.77 830.218 1002.73L832.117 1008.43C834.212 1007.73 835.582 1005.9 836.223 1004.31L830.655 1002.07ZM830.214 1002.74C830.307 1002.71 830.566 1002.64 830.929 1002.73C831.343 1002.83 831.686 1003.09 831.886 1003.38L826.94 1006.78C828.328 1008.8 830.586 1008.94 832.121 1008.42L830.214 1002.74ZM831.891 1003.39C832.029 1003.59 832.074 1003.77 832.088 1003.85C832.101 1003.93 832.09 1003.95 832.098 1003.9C832.106 1003.85 832.126 1003.76 832.175 1003.64C832.223 1003.52 832.291 1003.4 832.381 1003.27L827.476 999.814C826.806 1000.77 826.334 1001.87 826.164 1003.01C826 1004.11 826.085 1005.53 826.935 1006.77L831.891 1003.39ZM832.377 1003.28C832.693 1002.83 833.229 1002.44 834.003 1002.13L831.768 996.56C830.349 997.13 828.686 998.105 827.48 999.809L832.377 1003.28ZM834.018 1002.12C834.54 1001.91 835.343 1001.42 835.771 1000.41C836.176 999.447 835.994 998.592 835.864 998.181L830.145 999.996C830.051 999.7 829.874 998.947 830.244 998.072C830.635 997.147 831.36 996.726 831.753 996.566L834.018 1002.12ZM835.867 998.192C835.822 998.047 835.769 997.895 835.733 997.792C835.71 997.724 835.701 997.698 835.683 997.648C835.677 997.629 835.672 997.614 835.668 997.602C835.664 997.59 835.662 997.587 835.663 997.589L829.959 999.451C829.978 999.509 830 999.571 830.015 999.615C830.028 999.654 830.054 999.726 830.066 999.762C830.102 999.866 830.127 999.939 830.141 999.985L835.867 998.192ZM835.638 997.514C835.252 996.43 834.413 995.716 833.486 995.408C832.741 995.16 832.066 995.213 831.748 995.249L832.422 1001.21C832.405 1001.21 832.325 1001.22 832.202 1001.22C832.082 1001.21 831.863 1001.19 831.592 1001.1C831.309 1001.01 830.964 1000.83 830.643 1000.53C830.315 1000.22 830.105 999.862 829.985 999.525L835.638 997.514ZM831.717 995.253C830.413 995.414 829.313 995.88 828.381 996.408L831.337 1001.63C831.825 1001.35 832.164 1001.24 832.454 1001.21L831.717 995.253ZM828.381 996.408C825.539 998.017 824.297 1000.95 823.85 1002.14L829.468 1004.25C829.628 1003.82 829.87 1003.27 830.213 1002.76C830.56 1002.23 830.939 1001.85 831.337 1001.63L828.381 996.408ZM823.851 1002.14C823.778 1002.33 823.731 1002.44 823.705 1002.49C823.684 1002.53 823.677 1002.54 823.676 1002.54L828.478 1006.13C828.926 1005.54 829.214 1004.93 829.467 1004.25L823.851 1002.14ZM823.68 1002.53C823.575 1002.67 823.412 1002.85 822.704 1003.5L826.782 1007.9C827.42 1007.31 827.992 1006.78 828.474 1006.14L823.68 1002.53ZM822.673 1003.53C821.878 1004.29 821.276 1005.74 821.957 1007.23L827.418 1004.75C827.712 1005.39 827.711 1006.04 827.586 1006.55C827.469 1007.02 827.218 1007.49 826.813 1007.88L822.673 1003.53ZM821.96 1007.24C822.119 1007.59 822.367 1007.95 822.477 1008.11C822.556 1008.22 822.662 1008.37 822.779 1008.51C822.835 1008.58 822.926 1008.68 823.04 1008.8C823.082 1008.84 823.403 1009.17 823.909 1009.42L826.501 1004.01C826.789 1004.14 826.986 1004.3 827.067 1004.36C827.165 1004.44 827.236 1004.51 827.275 1004.55C827.351 1004.62 827.397 1004.68 827.406 1004.69C827.428 1004.72 827.423 1004.71 827.393 1004.67C827.368 1004.63 827.345 1004.6 827.331 1004.58C827.324 1004.56 827.325 1004.57 827.333 1004.58C827.334 1004.58 827.37 1004.64 827.415 1004.74L821.96 1007.24ZM823.824 1009.37C824.878 1009.92 825.862 1009.72 826.337 1009.56C826.813 1009.39 827.146 1009.16 827.284 1009.06L823.701 1004.24C823.789 1004.18 824.033 1004 824.405 1003.88C824.776 1003.75 825.642 1003.56 826.587 1004.05L823.824 1009.37ZM827.241 1009.09C827.904 1008.61 828.701 1007.88 829.193 1007.23L824.412 1003.6C824.42 1003.59 824.403 1003.61 824.35 1003.67C824.301 1003.72 824.236 1003.79 824.161 1003.86C824.002 1004.01 823.847 1004.14 823.744 1004.21L827.241 1009.09ZM829.16 1007.27C828.994 1007.48 828.623 1007.89 827.987 1008.14C827.249 1008.44 826.386 1008.43 825.62 1008.05C824.956 1007.72 824.6 1007.24 824.44 1006.98C824.269 1006.69 824.189 1006.45 824.152 1006.31L829.946 1004.75C829.884 1004.52 829.773 1004.2 829.566 1003.86C829.37 1003.54 828.973 1003.01 828.266 1002.66C827.457 1002.27 826.548 1002.25 825.762 1002.57C825.078 1002.84 824.659 1003.29 824.445 1003.56L829.16 1007.27ZM824.15 1006.3C824.635 1008.12 825.947 1009.76 827.909 1010.45L829.915 1004.8C829.932 1004.8 829.948 1004.81 829.961 1004.82C829.974 1004.83 829.98 1004.84 829.981 1004.84C829.983 1004.84 829.963 1004.82 829.948 1004.76L824.15 1006.3ZM827.905 1010.45C831.311 1011.66 834.294 1009.73 835.982 1007.79L831.459 1003.85C831.019 1004.35 830.61 1004.63 830.322 1004.75C830.074 1004.85 829.973 1004.82 829.919 1004.8L827.905 1010.45ZM835.981 1007.79C836.504 1007.19 836.868 1006.69 837.145 1006.28C837.498 1005.76 837.487 1005.75 837.585 1005.62L832.814 1001.98C832.663 1002.18 832.534 1002.37 832.441 1002.51C832.334 1002.68 832.266 1002.78 832.169 1002.93C831.999 1003.18 831.785 1003.48 831.46 1003.85L835.981 1007.79ZM837.583 1005.62C837.976 1005.11 838.234 1004.72 838.723 1004.11C839.169 1003.56 839.606 1003.09 840.008 1002.77L836.257 998.084C834.59 999.419 833.191 1001.49 832.816 1001.98L837.583 1005.62ZM840.012 1002.76C840.124 1002.67 840.131 1002.69 840.002 1002.75C839.937 1002.77 839.714 1002.86 839.375 1002.88C839.023 1002.9 838.39 1002.86 837.756 1002.42L841.148 997.472C839.648 996.443 838.091 997.045 837.727 997.194C837.128 997.44 836.616 997.796 836.253 998.088L840.012 1002.76ZM837.757 1002.42C837.413 1002.19 837.107 1001.85 836.901 1001.44C836.699 1001.03 836.643 1000.65 836.641 1000.37C836.638 999.87 836.804 999.629 836.726 999.777L842.05 1002.54C842.336 1001.99 842.647 1001.22 842.641 1000.33C842.635 999.279 842.172 998.173 841.147 997.471L837.757 1002.42ZM836.725 999.78C836.111 1000.96 835.337 1002.28 834.646 1003.43C834.031 1004.45 833.328 1005.59 833.075 1006.11L838.464 1008.75C838.463 1008.75 838.491 1008.69 838.575 1008.55C838.651 1008.41 838.751 1008.25 838.874 1008.04C839.132 1007.61 839.422 1007.13 839.789 1006.52C840.488 1005.36 841.345 1003.9 842.052 1002.54L836.725 999.78ZM833.106 1006.05C832.79 1006.66 832.474 1007.8 833.109 1009C833.785 1010.27 835.03 1010.65 835.886 1010.65V1004.65C836.617 1004.65 837.772 1004.99 838.404 1006.17C838.997 1007.29 838.685 1008.32 838.434 1008.81L833.106 1006.05ZM835.901 1010.65C836.582 1010.65 837.248 1010.65 837.889 1010.65V1004.65C837.275 1004.65 836.572 1004.65 835.872 1004.65L835.901 1010.65ZM838.048 1010.65C838.612 1010.62 839.229 1010.44 839.786 1010.03C840.254 1009.68 840.516 1009.29 840.571 1009.21L835.614 1005.83C835.616 1005.82 835.828 1005.49 836.233 1005.19C836.728 1004.83 837.27 1004.68 837.729 1004.65L838.048 1010.65ZM840.66 1009.07C841.683 1007.38 842.62 1005.81 843.63 1004.18L838.53 1001.02C837.497 1002.68 836.527 1004.31 835.525 1005.96L840.66 1009.07ZM843.653 1004.14C843.514 1004.37 843.126 1004.95 842.341 1005.29C841.387 1005.72 840.382 1005.58 839.642 1005.14C839.025 1004.78 838.695 1004.3 838.535 1004C838.371 1003.69 838.22 1003.27 838.196 1002.76L844.189 1002.48C844.164 1001.95 844.005 1001.5 843.829 1001.17C843.656 1000.85 843.31 1000.34 842.672 999.966C841.911 999.521 840.882 999.376 839.902 999.813C839.091 1000.17 838.675 1000.77 838.507 1001.05L843.653 1004.14ZM838.197 1002.78C838.226 1003.31 838.347 1004.46 838.974 1005.46L844.061 1002.28C844.136 1002.4 844.172 1002.49 844.186 1002.52C844.202 1002.56 844.205 1002.58 844.203 1002.57C844.202 1002.57 844.198 1002.55 844.195 1002.52C844.191 1002.5 844.189 1002.47 844.188 1002.45L838.197 1002.78ZM838.953 1005.42C839.877 1006.95 841.388 1007.77 843.041 1007.78L843.075 1001.78C843.227 1001.78 843.453 1001.82 843.686 1001.95C843.92 1002.08 844.041 1002.24 844.082 1002.31L838.953 1005.42ZM843.019 1007.78C844.076 1007.79 844.746 1007.55 845.407 1007.29L843.205 1001.71C843.147 1001.73 843.1 1001.75 843.06 1001.77C843.02 1001.78 842.993 1001.79 842.973 1001.8C842.935 1001.81 842.942 1001.81 842.974 1001.8C842.991 1001.8 843.011 1001.79 843.033 1001.79C843.056 1001.79 843.076 1001.78 843.093 1001.78C843.127 1001.78 843.134 1001.78 843.097 1001.78L843.019 1007.78ZM845.4 1007.3C846.147 1007 846.727 1006.63 847.142 1006.31L843.521 1001.53C843.413 1001.61 843.313 1001.67 843.212 1001.71L845.4 1007.3ZM847.106 1006.34C846.843 1006.53 846.141 1006.97 845.135 1006.87C844.024 1006.76 843.334 1006.09 843.011 1005.63C842.719 1005.21 842.614 1004.81 842.572 1004.62C842.545 1004.5 842.467 1004.12 842.534 1003.62L848.48 1004.43C848.549 1003.92 848.469 1003.5 848.434 1003.34C848.383 1003.11 848.262 1002.67 847.944 1002.21C847.597 1001.71 846.871 1001.01 845.712 1000.9C844.659 1000.8 843.896 1001.25 843.558 1001.5L847.106 1006.34ZM842.553 1003.5C842.239 1005.28 842.402 1008.67 845.425 1010.24L848.201 1004.93C848.297 1004.98 848.377 1005.05 848.43 1005.12C848.476 1005.18 848.479 1005.21 848.468 1005.17C848.456 1005.13 848.439 1005.05 848.434 1004.93C848.429 1004.81 848.438 1004.68 848.461 1004.55L842.553 1003.5ZM845.427 1010.25C847.201 1011.17 848.964 1010.89 850.224 1010.36C851.44 1009.85 852.417 1009.03 853.069 1008.35L848.734 1004.2C848.602 1004.34 848.449 1004.48 848.29 1004.6C848.129 1004.72 847.997 1004.79 847.905 1004.83C847.813 1004.87 847.81 1004.85 847.883 1004.85C847.976 1004.85 848.097 1004.87 848.199 1004.92L845.427 1010.25ZM853.066 1008.36C852.91 1008.52 852.604 1008.8 852.127 1009C851.623 1009.21 850.77 1009.38 849.843 1008.98C848.937 1008.59 848.501 1007.88 848.319 1007.45C848.142 1007.03 848.113 1006.69 848.106 1006.53L854.1 1006.26C854.088 1006.01 854.043 1005.58 853.842 1005.11C853.636 1004.62 853.167 1003.88 852.224 1003.47C851.26 1003.06 850.364 1003.23 849.815 1003.46C849.293 1003.68 848.94 1003.99 848.738 1004.2L853.066 1008.36ZM848.107 1006.56C848.16 1007.55 848.552 1008.7 849.399 1009.6L853.762 1005.48C853.911 1005.64 853.984 1005.78 854.021 1005.87C854.058 1005.96 854.09 1006.08 854.098 1006.24L848.107 1006.56ZM849.397 1009.6C850.736 1011.02 852.535 1011.16 853.874 1010.88C855.194 1010.62 856.431 1009.91 857.479 1009.06L853.681 1004.41C853.418 1004.63 853.186 1004.78 853 1004.87C852.811 1004.97 852.702 1005 852.678 1005C852.651 1005.01 852.772 1004.98 852.993 1005.03C853.238 1005.09 853.527 1005.23 853.764 1005.48L849.397 1009.6ZM857.477 1009.06C858.75 1008.02 859.986 1006.64 861.037 1005.28L856.294 1001.61C855.395 1002.77 854.473 1003.76 853.683 1004.41L857.477 1009.06ZM861.072 1005.24C861.313 1004.91 861.638 1004.34 861.694 1003.57C861.757 1002.68 861.446 1001.86 860.902 1001.25L856.415 1005.23C855.942 1004.7 855.651 1003.95 855.709 1003.14C855.76 1002.43 856.054 1001.93 856.259 1001.65L861.072 1005.24ZM860.886 1001.23C860.725 1001.05 860.559 1000.89 860.462 1000.8C860.326 1000.67 860.298 1000.65 860.255 1000.61L856.042 1004.88C856.106 1004.94 856.168 1005 856.215 1005.04C856.275 1005.1 856.298 1005.12 856.344 1005.17C856.429 1005.25 856.444 1005.26 856.432 1005.25L860.886 1001.23ZM860.144 1000.5C858.65 999.172 856.868 999.758 856.067 1000.39L859.786 1005.1C859.343 1005.45 858.801 1005.66 858.222 1005.7C857.601 1005.74 856.813 1005.57 856.153 1004.98L860.144 1000.5ZM855.8 1000.63C854.489 1001.95 854.01 1002.65 852.962 1003.42L856.494 1008.27C858.046 1007.14 859.365 1005.55 860.052 1004.86L855.8 1000.63ZM852.951 1003.42C852.969 1003.41 853.101 1003.3 853.412 1003.25C853.585 1003.22 853.949 1003.18 854.406 1003.31C854.919 1003.45 855.403 1003.78 855.736 1004.26L850.819 1007.69C851.919 1009.27 853.624 1009.31 854.5 1009.15C855.348 1008.99 856.048 1008.59 856.505 1008.26L852.951 1003.42ZM855.73 1004.25C856.111 1004.79 856.201 1005.35 856.191 1005.74C856.182 1006.08 856.098 1006.3 856.093 1006.31L850.485 1004.18C850.288 1004.7 849.791 1006.24 850.824 1007.7L855.73 1004.25ZM856.094 1006.31C856.048 1006.43 856.062 1006.38 856.293 1005.96C856.477 1005.63 856.73 1005.19 857.036 1004.67C857.645 1003.64 858.432 1002.33 859.223 1001.03C860.75 998.52 862.412 995.829 862.611 995.466L857.349 992.584C857.351 992.579 857.27 992.717 857.055 993.071C856.863 993.387 856.604 993.811 856.298 994.311C855.686 995.31 854.893 996.605 854.096 997.915C853.302 999.222 852.497 1000.55 851.865 1001.63C851.55 1002.16 851.27 1002.65 851.052 1003.04C850.882 1003.34 850.625 1003.81 850.484 1004.18L856.094 1006.31ZM862.628 995.435C862.989 994.757 863.331 993.402 862.409 992.136C861.595 991.018 860.413 990.853 859.858 990.853V996.853C859.422 996.853 858.327 996.723 857.558 995.667C856.68 994.461 857.024 993.193 857.332 992.615L862.628 995.435ZM859.858 990.853C859.548 990.853 859.189 990.853 858.83 990.854C858.469 990.854 858.108 990.854 857.788 990.854V996.854C858.112 996.854 858.477 996.854 858.837 996.853C859.197 996.853 859.552 996.853 859.858 996.853V990.853ZM849.717 1003.08C850.401 1003.46 850.659 1004 850.736 1004.2C850.824 1004.42 850.845 1004.61 850.843 1004.77L844.844 1004.67C844.834 1005.2 844.919 1005.8 845.149 1006.39C845.368 1006.95 845.847 1007.81 846.84 1008.35L849.717 1003.08ZM850.843 1004.77C850.846 1004.56 850.939 1004.1 851.478 1003.4L846.727 999.736C845.649 1001.13 844.872 1002.81 844.843 1004.68L850.843 1004.77ZM851.481 1003.4C851.643 1003.19 851.789 1003.03 851.909 1002.91C851.967 1002.86 852.015 1002.82 852.051 1002.79C852.087 1002.76 852.104 1002.75 852.103 1002.76C852.101 1002.76 852.071 1002.77 852.013 1002.8C851.954 1002.82 851.855 1002.85 851.718 1002.87C851.429 1002.91 850.989 1002.89 850.53 1002.66L853.249 997.311C851.569 996.457 849.956 997.064 849.093 997.565C848.159 998.107 847.362 998.91 846.724 999.74L851.481 1003.4ZM850.537 1002.66C850.195 1002.49 849.841 1002.18 849.61 1001.73C849.397 1001.32 849.374 1000.96 849.378 1000.79C849.382 1000.62 849.412 1000.53 849.405 1000.55C849.401 1000.57 849.384 1000.62 849.343 1000.7L854.78 1003.24C854.999 1002.77 855.354 1001.91 855.376 1000.92C855.388 1000.38 855.306 999.685 854.94 998.977C854.555 998.232 853.954 997.667 853.243 997.308L850.537 1002.66ZM849.314 1000.77C849.032 1001.41 848.94 1002.19 849.172 1002.97L854.926 1001.27C855.015 1001.57 855.061 1001.92 855.032 1002.28C855.004 1002.64 854.911 1002.95 854.81 1003.18L849.314 1000.77ZM849.09 1002.62C849.26 1003.62 849.855 1004.23 850.13 1004.47C850.461 1004.76 850.825 1004.97 851.175 1005.1L853.309 999.495C853.57 999.594 853.843 999.746 854.103 999.976C854.306 1000.16 854.85 1000.69 855.007 1001.62L849.09 1002.62ZM851.117 1005.08C850.935 1005.01 850.564 1004.84 850.195 1004.48C849.783 1004.09 849.478 1003.58 849.346 1002.99C849.124 1002 849.487 1001.25 849.526 1001.17L854.984 1003.66C855.058 1003.5 855.43 1002.7 855.2 1001.67C854.886 1000.27 853.803 999.694 853.367 999.518L851.117 1005.08ZM849.51 1001.2C849.37 1001.52 849.289 1001.63 848.915 1002.21L853.975 1005.44C854.241 1005.02 854.63 1004.46 855 1003.62L849.51 1001.2ZM848.909 1002.22C848.801 1002.39 848.677 1002.54 848.454 1002.73L852.383 1007.27C852.963 1006.76 853.502 1006.18 853.981 1005.43L848.909 1002.22ZM848.443 1002.74C848.369 1002.81 848.304 1002.86 848.249 1002.9C848.192 1002.94 848.16 1002.96 848.152 1002.97C848.142 1002.97 848.184 1002.95 848.273 1002.92C848.363 1002.89 848.536 1002.84 848.773 1002.84V1008.84C849.791 1008.84 850.615 1008.47 851.119 1008.18C851.65 1007.88 852.091 1007.52 852.395 1007.26L848.443 1002.74ZM848.773 1002.84C849.075 1002.84 849.419 1002.92 849.742 1003.1L846.815 1008.34C847.456 1008.69 848.133 1008.84 848.773 1008.84V1002.84ZM823.902 985.085C821.598 985.29 819.242 986.079 817.385 987.474C815.498 988.891 813.971 991.083 813.965 993.919L819.965 993.93C819.966 993.436 820.198 992.865 820.988 992.272C821.809 991.655 823.052 991.184 824.435 991.061L823.902 985.085ZM813.965 993.919C813.96 996.974 816.187 1000.05 819.961 999.92L819.756 993.924C819.721 993.925 819.747 993.918 819.808 993.944C819.869 993.969 819.92 994.007 819.955 994.045C820.023 994.119 819.965 994.111 819.965 993.93L813.965 993.919ZM819.965 999.92C823.762 999.785 826.213 996.704 827.298 994.008L821.732 991.768C821.423 992.535 821.011 993.122 820.61 993.487C820.221 993.841 819.93 993.917 819.752 993.924L819.965 999.92ZM827.297 994.01C827.693 993.028 827.971 991.117 826.428 989.776C825.649 989.101 824.576 988.804 823.514 989.052C822.482 989.292 821.776 989.961 821.375 990.613L826.485 993.758C826.232 994.168 825.716 994.699 824.875 994.895C824.003 995.098 823.12 994.851 822.493 994.307C821.253 993.229 821.674 991.91 821.732 991.767L827.297 994.01ZM821.37 990.621C821.127 991.019 820.789 991.315 820.463 991.483L823.221 996.812C824.513 996.143 825.672 995.089 826.49 993.749L821.37 990.621ZM820.465 991.482C820.423 991.504 820.589 991.396 820.959 991.462C821.161 991.499 821.439 991.593 821.716 991.809C822.005 992.034 822.208 992.325 822.32 992.62L816.706 994.739C817.287 996.278 818.589 997.134 819.902 997.369C821.115 997.586 822.289 997.294 823.22 996.812L820.465 991.482ZM822.321 992.623C822.42 992.887 822.41 993.097 822.393 993.2C822.377 993.3 822.352 993.318 822.383 993.268C822.446 993.169 822.671 992.906 823.196 992.699L820.993 987.118C819.415 987.741 818.127 988.774 817.314 990.059C816.529 991.298 816.061 993.024 816.705 994.736L822.321 992.623ZM823.187 992.702C825.231 991.903 827.411 992.386 830.787 993.056L831.956 987.171C829.215 986.627 825.036 985.537 821.002 987.114L823.187 992.702ZM831.372 993.114C830.921 993.114 830.583 993.01 830.457 992.968C830.284 992.911 830.138 992.845 830.018 992.782C829.809 992.671 829.48 992.464 829.173 992.097C828.879 991.745 828.294 990.844 828.557 989.605C828.812 988.404 829.667 987.839 829.979 987.665L832.89 992.912C833.274 992.699 834.163 992.091 834.427 990.85C834.698 989.57 834.097 988.631 833.775 988.246C833.439 987.845 833.071 987.609 832.823 987.478C832.682 987.403 832.132 987.114 831.372 987.114V993.114ZM829.94 987.687C829.451 987.969 828.613 988.383 827.489 989.406L831.526 993.844C831.826 993.572 832.04 993.417 832.208 993.308C832.43 993.165 832.544 993.111 832.929 992.89L829.94 987.687ZM827.495 989.4C826.904 989.934 825.926 990.824 825.131 991.853L829.881 995.52C830.306 994.968 830.906 994.405 831.52 993.85L827.495 989.4ZM825.137 991.846C824.781 992.304 824.483 992.729 824.223 993.106C823.953 993.496 823.738 993.812 823.489 994.149L828.316 997.712C828.636 997.28 828.919 996.863 829.158 996.518C829.406 996.16 829.626 995.848 829.875 995.527L825.137 991.846ZM823.445 994.211C823.782 993.729 824.251 993.394 824.747 993.211C824.979 993.126 825.197 993.08 825.386 993.057C825.481 993.046 825.572 993.04 825.658 993.038C825.701 993.037 825.744 993.037 825.789 993.037C825.81 993.038 825.838 993.039 825.871 993.04C825.878 993.041 825.919 993.042 825.972 993.047C825.985 993.048 826.021 993.051 826.067 993.056C826.092 993.059 826.156 993.068 826.196 993.073C826.27 993.086 826.528 993.145 826.709 993.202C827.686 993.764 828.538 997.089 826.819 998.831C826.497 998.936 826.062 999.018 825.957 999.028C825.832 999.038 825.731 999.037 825.728 999.037V993.037C825.726 993.037 825.624 993.036 825.499 993.046C825.394 993.055 824.959 993.137 824.637 993.242C822.919 994.985 823.77 998.31 824.747 998.872C824.928 998.928 825.187 998.988 825.26 999C825.3 999.006 825.364 999.015 825.389 999.018C825.435 999.023 825.471 999.026 825.484 999.027C825.537 999.031 825.578 999.033 825.586 999.033C825.619 999.035 825.647 999.036 825.669 999.036C825.715 999.037 825.761 999.037 825.806 999.036C825.897 999.034 825.996 999.027 826.101 999.015C826.312 998.989 826.559 998.938 826.825 998.84C827.389 998.632 827.946 998.244 828.361 997.65L823.445 994.211ZM825.201 993.084C824.055 993.288 821.895 993.53 819.972 994.943L823.525 999.778C824.082 999.369 824.633 999.28 826.255 998.99L825.201 993.084ZM819.98 994.937C818.874 995.744 817.762 997.72 818.979 999.704L824.093 996.565C824.516 997.254 824.532 998.002 824.366 998.566C824.209 999.103 823.887 999.514 823.517 999.784L819.98 994.937ZM818.983 999.71C820.297 1001.84 822.804 1001.55 824.046 1000.59L820.389 995.835C820.872 995.463 821.497 995.271 822.15 995.338C822.829 995.407 823.607 995.778 824.089 996.559L818.983 999.71ZM824.076 1000.57C824.361 1000.34 824.539 1000.3 824.779 1000.29L824.605 994.292C823.026 994.337 821.616 994.866 820.359 995.858L824.076 1000.57ZM824.485 1000.28C824.459 1000.28 823.978 1000.26 823.438 1000C823.121 999.851 822.808 999.63 822.534 999.33C822.27 999.04 822.109 998.748 822.011 998.523L827.512 996.128C827.268 995.568 826.8 994.962 826.038 994.596C825.475 994.325 824.965 994.302 824.9 994.298L824.485 1000.28ZM822.071 998.653C821.853 998.21 821.791 997.807 821.773 997.554C821.753 997.282 821.774 997.04 821.809 996.841C821.876 996.456 822.029 996.041 822.305 995.654L827.192 999.134C827.485 998.723 827.648 998.282 827.719 997.872C827.774 997.56 827.855 996.816 827.452 995.998L822.071 998.653ZM822.271 995.702C820.942 997.649 820.657 998.022 819.707 999.17L824.33 1003C825.43 1001.67 825.827 1001.13 827.226 999.085L822.271 995.702ZM819.703 999.175C819.271 999.699 818.838 1000.15 818.313 1000.66L822.49 1004.97C823.118 1004.36 823.717 1003.74 824.334 1002.99L819.703 999.175ZM818.3 1000.67C817.504 1001.46 816.907 1001.61 816.719 1001.63C816.63 1001.64 816.67 1001.62 816.794 1001.67C816.931 1001.73 817.095 1001.85 817.212 1002.04L812.128 1005.22C813.311 1007.11 815.393 1007.78 817.28 1007.6C819.151 1007.43 820.971 1006.46 822.503 1004.96L818.3 1000.67ZM817.214 1002.04C817.222 1002.05 817.241 1002.09 817.256 1002.14C817.272 1002.19 817.279 1002.25 817.28 1002.29C817.281 1002.39 817.257 1002.42 817.271 1002.39L811.841 999.841C811.151 1001.31 810.94 1003.32 812.126 1005.22L817.214 1002.04ZM817.27 1002.4C817.277 1002.38 817.329 1002.29 817.485 1002.15C817.637 1002.01 817.829 1001.88 818.018 1001.77L815.166 996.495C814.179 997.028 812.665 998.092 811.842 999.839L817.27 1002.4ZM818.015 1001.78C819.006 1001.24 819.667 1000.27 819.809 999.166C819.95 998.072 819.564 997.096 818.999 996.4L814.341 1000.18C814.046 999.819 813.757 999.192 813.859 998.4C813.962 997.597 814.449 996.881 815.17 996.493L818.015 1001.78ZM819.018 996.424C818.279 995.494 817.289 995.223 816.797 995.136C816.232 995.035 815.674 995.058 815.192 995.153L816.349 1001.04C816.177 1001.07 815.983 1001.09 815.747 1001.04C815.621 1001.02 815.421 1000.97 815.186 1000.86C814.95 1000.74 814.618 1000.53 814.322 1000.16L819.018 996.424ZM815.196 995.152C813.384 995.505 811.635 996.767 810.596 998.197L815.451 1001.72C815.556 1001.58 815.741 1001.39 815.972 1001.24C816.216 1001.07 816.363 1001.04 816.345 1001.04L815.196 995.152ZM810.599 998.193C809.425 999.804 808.845 1001.77 809.036 1003.91L815.012 1003.37C814.952 1002.7 815.122 1002.18 815.448 1001.73L810.599 998.193ZM809.036 1003.91C809.418 1008.17 812.866 1010.64 816.481 1010.61L816.435 1004.61C815.971 1004.62 815.633 1004.47 815.428 1004.29C815.248 1004.14 815.057 1003.88 815.012 1003.37L809.036 1003.91ZM816.483 1010.61C817.712 1010.6 819.014 1010.4 820.37 1009.77C821.701 1009.15 822.929 1008.2 824.129 1006.91L819.74 1002.82C818.922 1003.7 818.302 1004.11 817.845 1004.32C817.412 1004.52 816.985 1004.61 816.434 1004.61L816.483 1010.61ZM824.13 1006.91C826.298 1004.58 828.193 1001.21 829.735 998.527L824.531 995.541C822.865 998.445 821.332 1001.11 819.739 1002.82L824.13 1006.91ZM829.746 998.509C829.732 998.533 829.432 999.106 828.758 999.507C828.482 999.671 828.24 999.75 828.1 999.787C827.963 999.824 827.868 999.837 827.854 999.839L827.072 993.89C826.873 993.916 826.291 993.993 825.694 994.348C824.928 994.803 824.585 995.445 824.521 995.559L829.746 998.509ZM827.857 999.838C828.808 999.712 830.222 999.569 831.092 999.516L830.725 993.527C829.689 993.59 828.131 993.75 827.069 993.89L827.857 999.838ZM831.076 999.517C831.144 999.513 831.091 999.517 831.015 999.516C830.937 999.516 830.671 999.512 830.336 999.42C829.944 999.313 829.588 999.125 829.289 998.881C829.038 998.675 828.889 998.478 828.857 998.436L833.638 994.811C833.461 994.577 832.924 993.907 831.915 993.632C831.532 993.527 831.211 993.518 831.063 993.517C830.916 993.515 830.779 993.524 830.741 993.526L831.076 999.517ZM828.849 998.426C829.419 999.183 830.154 999.712 830.684 1000.01L833.651 994.798C833.652 994.799 833.65 994.798 833.646 994.795C833.642 994.793 833.637 994.789 833.631 994.785C833.624 994.781 833.618 994.776 833.612 994.772C833.606 994.767 833.6 994.763 833.596 994.759C833.591 994.755 833.588 994.752 833.587 994.751C833.586 994.75 833.587 994.751 833.59 994.754C833.593 994.758 833.6 994.764 833.609 994.775C833.618 994.785 833.63 994.8 833.646 994.821L828.849 998.426ZM830.665 1000C830.687 1000.01 831.416 1000.51 832.424 1000.53L832.569 994.534C832.718 994.538 832.888 994.555 833.07 994.596C833.25 994.636 833.4 994.689 833.512 994.737C833.616 994.781 833.687 994.82 833.702 994.828C833.713 994.834 833.718 994.837 833.67 994.809L830.665 1000ZM832.437 1000.53C833.83 1000.56 834.728 999.763 835.118 999.298L830.519 995.444C830.767 995.148 831.444 994.512 832.556 994.534L832.437 1000.53ZM835.09 999.33C835.708 998.614 836.378 997.105 835.518 995.55L830.267 998.454C829.875 997.745 829.882 997.055 829.97 996.604C830.062 996.133 830.273 995.729 830.546 995.412L835.09 999.33ZM835.522 995.559C835.425 995.381 835.327 995.245 835.258 995.156C835.187 995.064 835.121 994.989 835.071 994.935C834.973 994.83 834.885 994.75 834.83 994.702C834.722 994.606 834.621 994.529 834.567 994.488C834.506 994.442 834.445 994.397 834.404 994.367C834.355 994.331 834.323 994.309 834.291 994.285C834.26 994.262 834.245 994.25 834.239 994.245C834.231 994.239 834.253 994.256 834.291 994.291C834.312 994.31 834.345 994.341 834.386 994.384C834.425 994.425 834.487 994.491 834.556 994.581C834.623 994.667 834.728 994.812 834.83 995.012C834.928 995.202 835.075 995.54 835.13 995.992L829.173 996.712C829.23 997.184 829.385 997.543 829.495 997.756C829.609 997.979 829.73 998.149 829.817 998.26C829.985 998.477 830.151 998.635 830.243 998.72C830.434 998.894 830.63 999.039 830.725 999.11C830.893 999.234 830.878 999.22 830.943 999.27C830.96 999.283 830.921 999.254 830.86 999.2C830.829 999.173 830.761 999.112 830.68 999.024C830.619 998.959 830.433 998.757 830.263 998.446L835.522 995.559ZM835.119 995.914C835.198 996.443 835.13 997.021 834.876 997.564C834.635 998.079 834.293 998.42 834.026 998.626C833.764 998.829 833.519 998.947 833.358 999.012C833.271 999.048 833.192 999.075 833.124 999.096C833.089 999.107 833.056 999.116 833.025 999.125C833.009 999.129 832.994 999.133 832.979 999.137C832.972 999.139 832.964 999.141 832.957 999.143C832.953 999.143 832.95 999.144 832.946 999.145C832.944 999.146 832.942 999.146 832.941 999.147C832.94 999.147 832.938 999.147 832.938 999.147C832.937 999.148 832.935 999.148 832.239 996.23C831.543 993.312 831.541 993.312 831.54 993.312C831.54 993.312 831.538 993.313 831.537 993.313C831.536 993.313 831.534 993.314 831.532 993.314C831.528 993.315 831.525 993.316 831.521 993.317C831.513 993.319 831.506 993.321 831.498 993.323C831.483 993.327 831.467 993.331 831.451 993.335C831.418 993.344 831.383 993.354 831.345 993.366C831.271 993.389 831.185 993.419 831.089 993.458C830.909 993.531 830.639 993.661 830.353 993.882C829.685 994.399 828.982 995.427 829.184 996.79L835.119 995.914ZM833.183 999.077C834.256 998.722 835.494 997.935 836.232 996.441L830.854 993.783C830.902 993.684 830.983 993.583 831.084 993.502C831.176 993.428 831.255 993.395 831.295 993.382L833.183 999.077ZM836.234 996.438C836.768 995.355 837.426 992.703 835.248 990.909L831.434 995.541C830.931 995.127 830.785 994.587 830.768 994.279C830.753 994.014 830.816 993.859 830.852 993.787L836.234 996.438ZM835.249 990.91C833.296 989.299 830.851 989.96 829.472 991.266L833.6 995.621C833.484 995.73 833.225 995.911 832.807 995.958C832.371 996.006 831.855 995.888 831.432 995.539L835.249 990.91ZM829.48 991.259C828.068 992.588 827.713 994.39 827.87 995.79L833.833 995.118C833.837 995.159 833.837 995.212 833.813 995.288C833.786 995.374 833.722 995.505 833.593 995.628L829.48 991.259ZM827.87 995.784C827.87 995.784 827.865 995.744 827.861 995.687C827.858 995.631 827.852 995.517 827.86 995.371C827.875 995.089 827.95 994.468 828.397 993.84C828.859 993.191 829.455 992.9 829.813 992.776C830.132 992.666 830.386 992.644 830.435 992.639L830.977 998.615C831.102 998.604 831.414 998.572 831.777 998.446C832.179 998.306 832.804 997.996 833.285 997.32C833.751 996.665 833.834 996.012 833.852 995.688C833.867 995.394 833.836 995.146 833.833 995.124L827.87 995.784ZM830.456 992.638C829.626 992.707 828.908 992.726 827.866 992.785L828.202 998.775C829.045 998.728 830.023 998.695 830.955 998.617L830.456 992.638ZM827.799 992.789C828.341 992.747 829.86 992.856 830.644 994.391C831.401 995.871 830.674 997.139 830.328 997.571L825.647 993.818C825.263 994.296 824.529 995.609 825.301 997.121C826.102 998.689 827.663 998.818 828.269 998.771L827.799 992.789ZM830.622 997.129C831.394 995.711 832.588 994.609 834.334 993.247L830.645 988.515C828.803 989.952 826.753 991.688 825.352 994.26L830.622 997.129ZM834.346 993.238C835.371 992.43 835.537 991.34 835.567 990.893C835.583 990.664 835.572 990.474 835.568 990.404C835.56 990.262 835.565 990.356 835.565 990.366L829.568 990.551C829.571 990.636 829.582 990.808 829.578 990.745C829.578 990.744 829.576 990.717 829.576 990.678C829.575 990.638 829.575 990.572 829.581 990.489C829.601 990.193 829.726 989.239 830.632 988.525L834.346 993.238ZM831.896 993.383C833.478 993.746 834.732 994.187 836.602 994.693C838.302 995.153 840.236 995.575 842.324 995.556L842.271 989.556C840.998 989.568 839.686 989.312 838.17 988.902C836.826 988.538 834.895 987.915 833.238 987.535L831.896 993.383ZM842.323 995.556C844.025 995.542 845.922 995.264 847.793 994.18L844.785 988.989C844.113 989.378 843.348 989.547 842.272 989.556L842.323 995.556ZM847.788 994.183C849.13 993.409 850.77 992.093 850.89 989.886L844.899 989.562C844.909 989.368 844.954 989.181 845.024 989.017C845.091 988.858 845.164 988.759 845.199 988.717C845.232 988.679 845.23 988.69 845.161 988.743C845.093 988.797 844.975 988.879 844.79 988.986L847.788 994.183ZM850.889 989.903C850.942 989.018 850.69 987.89 849.775 987.034C848.816 986.138 847.579 985.962 846.57 986.192L847.905 992.042C847.297 992.18 846.401 992.094 845.677 991.416C844.996 990.78 844.872 990.001 844.9 989.545L850.889 989.903ZM846.529 986.202C843.59 986.916 840.738 986.925 837.605 986.525L836.845 992.477C840.468 992.94 844.094 992.967 847.945 992.032L846.529 986.202ZM837.607 986.525C835.761 986.288 834.051 985.942 832.048 985.607C830.124 985.285 828.055 985 825.896 985V991C827.551 991 829.23 991.219 831.058 991.525C832.807 991.817 834.854 992.221 836.843 992.476L837.607 986.525ZM825.896 985C825.246 985 824.583 985.025 823.907 985.084L824.43 991.062C824.913 991.019 825.401 991 825.896 991V985ZM834.725 994.803C834.759 995.06 834.731 995.285 834.668 995.481C834.6 995.691 834.47 995.928 834.249 996.135L830.154 991.749C828.961 992.863 828.621 994.385 828.775 995.574L834.725 994.803ZM834.25 996.134C833.955 996.41 833.509 996.676 832.92 996.755C832.302 996.838 831.476 996.703 830.797 996.086L834.832 991.645C833.043 990.019 830.951 991.004 830.153 991.75L834.25 996.134ZM830.805 996.093C830.282 995.621 830.06 995.066 829.974 994.679C829.891 994.305 829.911 994.005 829.934 993.836C829.979 993.511 830.087 993.27 830.208 993.082L835.248 996.337C835.551 995.869 835.791 995.287 835.879 994.65C835.944 994.17 836.035 992.731 834.824 991.638L830.805 996.093ZM830.205 993.087C830.299 992.941 830.403 992.832 830.518 992.744C830.616 992.668 830.862 992.499 831.27 992.412L832.511 998.283C833.812 998.008 834.753 997.108 835.252 996.332L830.205 993.087ZM831.317 992.403C831.548 992.358 831.741 992.35 831.866 992.35V998.35C832.006 998.35 832.216 998.341 832.465 998.292L831.317 992.403ZM831.866 992.35C832.229 992.35 832.667 992.419 833.116 992.632C833.566 992.846 833.907 993.147 834.148 993.451C834.578 993.994 834.679 994.523 834.702 994.655L828.798 995.722C828.844 995.977 828.977 996.587 829.447 997.18C830.054 997.946 830.955 998.35 831.866 998.35V992.35Z" fill="black" mask="url(#path-69-outside-39_0_1)"/>
    </g>
    <g id="F">
      <mask id="path-71-outside-40_0_1" maskUnits="userSpaceOnUse" x="838.011" y="1001.37" width="25" height="32" fill="black">
        <rect fill="white" x="838.011" y="1001.37" width="25" height="32"/>
        <path d="M841.011 1030V1004.37H848.211V1030H841.011ZM846.843 1020.89V1014.92H859.443V1020.89H846.843ZM846.843 1010.34V1004.37H859.983V1010.34H846.843Z"/>
      </mask>
      <path d="M841.011 1030V1004.37H848.211V1030H841.011ZM846.843 1020.89V1014.92H859.443V1020.89H846.843ZM846.843 1010.34V1004.37H859.983V1010.34H846.843Z" fill="white"/>
      <path d="M841.011 1030V1004.37H848.211V1030H841.011ZM846.843 1020.89V1014.92H859.443V1020.89H846.843ZM846.843 1010.34V1004.37H859.983V1010.34H846.843Z" stroke="black" stroke-width="6" mask="url(#path-71-outside-40_0_1)"/>
    </g>
  </g>
</svg>