<?xml version="1.0" encoding="UTF-8" standalone="yes"?>
<svg width="120" height="120" viewBox="0 0 120 120" fill="none" xmlns="http://www.w3.org/2000/svg">
  <g id="Ford">
    <g id="Frame 13">
      <g id="Vector_13">
        <path d="M737.788 639.854C737.635 639.854 737.556 639.874 737.484 640.024C737.246 640.505 734.353 645.086 733.815 645.976C733.724 646.111 733.613 646.093 733.6 645.939C733.546 645.41 733.114 644.803 732.433 644.512C731.915 644.289 731.408 644.249 730.881 644.323C729.929 644.459 729.081 644.989 728.336 645.587C727.212 646.49 726.243 647.659 724.992 648.524C724.309 648.994 723.373 649.404 722.748 648.792C722.181 648.237 722.245 647.004 723.112 646.051C723.203 645.951 723.313 646.034 723.296 646.125C723.214 646.556 723.314 646.984 723.624 647.285C724.002 647.643 724.543 647.684 725.006 647.445C725.552 647.158 725.874 646.606 725.968 645.979C726.112 645.006 725.403 644.148 724.516 644.079C723.796 644.025 723.106 644.291 722.433 644.878C722.096 645.173 721.903 645.392 721.611 645.83C721.54 645.939 721.431 645.95 721.434 645.79C721.469 644.545 720.981 643.844 720.006 643.821C719.25 643.802 718.442 644.235 717.812 644.766C717.121 645.352 716.518 646.128 715.87 646.858C715.79 646.948 715.72 646.944 715.698 646.769C715.678 645.944 715.482 645.145 715.12 644.577C714.992 644.38 714.723 644.282 714.497 644.416C714.392 644.476 714.029 644.653 713.765 644.878C713.634 644.992 713.582 645.157 713.64 645.369C713.99 646.602 713.913 648.003 713.439 649.188C713.004 650.271 712.16 651.249 711.167 651.581C710.513 651.8 709.833 651.692 709.413 651.08C708.835 650.233 709.068 648.764 709.929 647.542C710.689 646.468 711.789 645.784 712.885 645.344C713.015 645.292 713.041 645.204 713.004 645.088C712.944 644.897 712.85 644.638 712.811 644.52C712.711 644.237 712.429 644.191 712.085 644.23C711.288 644.329 710.569 644.617 709.859 645.019C708 646.071 707.068 648.108 706.659 649.197C706.463 649.72 706.294 650.047 706.077 650.336C705.784 650.725 705.416 651.08 704.743 651.704C704.682 651.762 704.637 651.88 704.688 651.992C704.756 652.142 705.107 652.663 705.205 652.711C705.315 652.768 705.442 652.688 705.493 652.65C705.963 652.312 706.527 651.778 706.802 651.415C706.899 651.291 706.999 651.344 707.049 651.532C707.307 652.502 707.981 653.294 708.912 653.624C710.617 654.231 712.386 653.352 713.72 651.821C714.569 650.849 714.875 650.223 715.2 649.797C715.751 649.076 716.838 647.462 718.132 646.426C718.607 646.044 719.17 645.753 719.452 645.946C719.678 646.101 719.752 646.462 719.388 647.161C718.068 649.708 716.125 652.7 715.77 653.426C715.705 653.552 715.761 653.651 715.886 653.651C716.577 653.648 717.261 653.65 717.889 653.65C717.993 653.645 718.04 653.594 718.092 653.517C719.105 651.841 720.058 650.245 721.08 648.597C721.138 648.5 721.19 648.576 721.192 648.618C721.213 649.001 721.303 649.523 721.517 649.867C721.903 650.502 722.451 650.776 723.058 650.779C723.541 650.785 723.785 650.708 724.306 650.502C724.73 650.336 725.07 650.118 725.332 649.921C725.484 649.809 725.511 649.996 725.507 650.025C725.272 651.355 725.562 652.932 726.813 653.585C728.311 654.365 729.955 653.268 730.902 652.279C730.994 652.183 731.094 652.193 731.103 652.399C731.123 652.777 731.285 653.225 731.58 653.538C732.374 654.38 733.974 654.046 735.58 652.733C736.611 651.892 737.69 650.703 738.665 649.445C738.702 649.396 738.728 649.318 738.659 649.24C738.51 649.075 738.296 648.888 738.148 648.743C738.081 648.683 737.983 648.7 737.926 648.745C736.927 649.749 736.028 650.894 734.728 651.841C734.29 652.163 733.591 652.425 733.277 651.976C733.155 651.802 733.169 651.561 733.289 651.245C733.668 650.245 739.668 640.593 739.98 640.025C740.033 639.925 739.977 639.853 739.858 639.853C739.241 639.853 738.431 639.854 737.788 639.854M728.279 651.717C727.97 651.548 727.836 651.091 727.843 650.721C727.859 649.683 728.294 648.616 729.102 647.568C730.087 646.288 731.176 645.623 731.89 645.986C732.629 646.359 732.393 647.263 732.062 647.972C732.038 648.028 732.036 648.074 732.049 648.119C732.061 648.193 732.153 648.265 732.242 648.299C732.273 648.311 732.29 648.335 732.255 648.412C732 648.99 731.765 649.323 731.445 649.825C731.151 650.289 730.82 650.651 730.419 650.999C729.952 651.407 729.345 651.844 728.773 651.844C728.604 651.844 728.438 651.805 728.279 651.717Z" fill="white"/>
        <path d="M704.169 634.073C700.481 634.401 696.972 636.594 696.965 639.925C696.962 641.613 698.098 642.982 699.858 642.922C701.927 642.848 703.626 641.097 704.515 638.888C704.852 638.05 704.227 637.703 703.93 638.185C703.399 639.054 702.651 639.729 701.842 640.147C700.869 640.651 699.828 640.515 699.513 639.68C699.069 638.502 699.991 636.738 702.095 635.908C705.134 634.72 708.313 635.506 711.372 636.114C711.416 636.114 711.579 636.209 711.435 636.289C710.886 636.604 710.348 636.861 709.507 637.625C708.905 638.17 708.116 638.896 707.506 639.686C706.901 640.465 706.471 641.161 705.903 641.931C705.825 642.042 705.727 642.037 705.728 642.037C704.344 642.284 702.989 642.449 701.748 643.361C701.492 643.548 701.38 643.88 701.536 644.135C701.675 644.36 701.995 644.384 702.217 644.213C702.989 643.604 703.782 643.317 704.692 643.29C704.732 643.293 704.751 643.3 704.762 643.326C704.769 643.34 704.765 643.371 704.749 643.394C703.385 645.392 703.044 645.843 702.018 647.082C701.494 647.719 700.978 648.257 700.402 648.816C698.073 651.102 695.569 651.063 694.67 649.629C694.133 648.77 694.204 647.866 694.556 647.117C694.989 646.2 695.865 645.528 696.592 645.135C696.863 644.989 696.94 644.624 696.67 644.291C696.498 644.074 696.081 644.035 695.77 644.096C694.816 644.282 693.689 645.044 693.024 645.96C692.273 646.989 691.898 648.239 692.024 649.64C692.25 652.169 694.221 653.63 696.458 653.613C698.239 653.598 699.916 653.029 701.934 650.864C703.815 648.845 705.529 645.83 707.133 643.034C707.184 642.944 707.22 642.896 707.463 642.864C708.469 642.731 709.955 642.58 710.909 642.521C711.12 642.509 711.163 642.512 711.248 642.623C711.496 642.954 711.868 643.236 712.167 643.406C712.313 643.49 712.382 643.531 712.496 643.533C712.637 643.536 712.747 643.456 712.818 643.371C712.92 643.254 712.947 643.101 712.893 643.002C712.835 642.898 712.171 642.509 712.152 642.352C712.137 642.254 712.239 642.23 712.239 642.23C712.727 642.068 713.235 641.736 713.543 641.112C713.845 640.499 713.894 639.681 713.341 639.225C712.856 638.825 712.122 638.888 711.536 639.443C710.963 639.983 710.774 640.766 710.852 641.454C710.865 641.573 710.859 641.613 710.706 641.627C709.825 641.701 708.977 641.727 708.034 641.78C707.97 641.785 707.95 641.74 707.987 641.695C709.073 639.7 710.695 638.28 712.489 636.881C712.608 636.788 712.571 636.608 712.567 636.459C715.806 637.202 718.936 638.586 722.297 638.556C723.687 638.545 725.018 638.321 726.289 637.585C727.407 636.94 727.861 636.343 727.894 635.724C727.92 635.295 727.639 635.025 727.237 635.117C723.842 635.942 720.603 635.932 717.225 635.501C713.391 635.009 709.71 634 705.896 634C705.323 634 704.748 634.022 704.169 634.073ZM711.75 641.189C711.701 640.809 711.818 640.3 712.201 639.942C712.395 639.761 712.655 639.72 712.814 639.865C712.994 640.027 712.909 640.43 712.728 640.71C712.531 641.017 712.196 641.283 711.891 641.347C711.882 641.349 711.874 641.35 711.866 641.35C711.815 641.35 711.772 641.312 711.75 641.189Z" fill="white"/>
      </g>
    </g>
  </g>
</svg>