<?xml version="1.0" encoding="UTF-8" standalone="yes"?>
<svg width="119" height="119" viewBox="0 0 119 119" fill="none" xmlns="http://www.w3.org/2000/svg">
  <g id="Ford Transit" transform="translate(-896.5 -1064.5)">
    <g id="Vector_29">
      <mask id="path-81-outside-46_0_1" maskUnits="userSpaceOnUse" x="930" y="1106" width="52" height="36" fill="black">
        <rect fill="white" x="930" y="1106" width="52" height="36"/>
        <path d="M978.008 1123.81L975.385 1120.53L970.724 1111.48C969.933 1109.95 968.363 1109 966.623 1109H936.68C934.65 1109 933 1110.63 933 1112.64V1131.73C933 1133.73 934.65 1135.36 936.68 1135.36H939.533C939.961 1137.43 941.819 1139 944.04 1139C946.261 1139 948.119 1137.43 948.547 1135.36H966.213C966.641 1137.43 968.499 1139 970.72 1139C972.941 1139 974.799 1137.43 975.227 1135.36H976.24C977.76 1135.36 979 1134.14 979 1132.64V1126.63C979 1125.61 978.648 1124.6 978.008 1123.81ZM969.085 1112.31L973.361 1120.61L965.671 1120.02C965.279 1119.98 964.948 1119.71 964.851 1119.33L962.699 1110.82H966.623C967.669 1110.82 968.61 1111.39 969.085 1112.31ZM944.04 1137.18C942.52 1137.18 941.28 1135.96 941.28 1134.45C941.28 1132.95 942.52 1131.73 944.04 1131.73C945.56 1131.73 946.8 1132.95 946.8 1134.45C946.8 1135.96 945.56 1137.18 944.04 1137.18ZM970.72 1137.18C969.2 1137.18 967.96 1135.96 967.96 1134.45C967.96 1132.95 969.2 1131.73 970.72 1131.73C972.24 1131.73 973.48 1132.95 973.48 1134.45C973.48 1135.96 972.24 1137.18 970.72 1137.18Z"/>
      </mask>
      <path d="M978.008 1123.81L975.385 1120.53L970.724 1111.48C969.933 1109.95 968.363 1109 966.623 1109H936.68C934.65 1109 933 1110.63 933 1112.64V1131.73C933 1133.73 934.65 1135.36 936.68 1135.36H939.533C939.961 1137.43 941.819 1139 944.04 1139C946.261 1139 948.119 1137.43 948.547 1135.36H966.213C966.641 1137.43 968.499 1139 970.72 1139C972.941 1139 974.799 1137.43 975.227 1135.36H976.24C977.76 1135.36 979 1134.14 979 1132.64V1126.63C979 1125.61 978.648 1124.6 978.008 1123.81ZM969.085 1112.31L973.361 1120.61L965.671 1120.02C965.279 1119.98 964.948 1119.71 964.851 1119.33L962.699 1110.82H966.623C967.669 1110.82 968.61 1111.39 969.085 1112.31ZM944.04 1137.18C942.52 1137.18 941.28 1135.96 941.28 1134.45C941.28 1132.95 942.52 1131.73 944.04 1131.73C945.56 1131.73 946.8 1132.95 946.8 1134.45C946.8 1135.96 945.56 1137.18 944.04 1137.18ZM970.72 1137.18C969.2 1137.18 967.96 1135.96 967.96 1134.45C967.96 1132.95 969.2 1131.73 970.72 1131.73C972.24 1131.73 973.48 1132.95 973.48 1134.45C973.48 1135.96 972.24 1137.18 970.72 1137.18Z" fill="white"/>
      <path d="M978.008 1123.81L975.385 1120.53L970.724 1111.48C969.933 1109.95 968.363 1109 966.623 1109H936.68C934.65 1109 933 1110.63 933 1112.64V1131.73C933 1133.73 934.65 1135.36 936.68 1135.36H939.533C939.961 1137.43 941.819 1139 944.04 1139C946.261 1139 948.119 1137.43 948.547 1135.36H966.213C966.641 1137.43 968.499 1139 970.72 1139C972.941 1139 974.799 1137.43 975.227 1135.36H976.24C977.76 1135.36 979 1134.14 979 1132.64V1126.63C979 1125.61 978.648 1124.6 978.008 1123.81ZM969.085 1112.31L973.361 1120.61L965.671 1120.02C965.279 1119.98 964.948 1119.71 964.851 1119.33L962.699 1110.82H966.623C967.669 1110.82 968.61 1111.39 969.085 1112.31ZM944.04 1137.18C942.52 1137.18 941.28 1135.96 941.28 1134.45C941.28 1132.95 942.52 1131.73 944.04 1131.73C945.56 1131.73 946.8 1132.95 946.8 1134.45C946.8 1135.96 945.56 1137.18 944.04 1137.18ZM970.72 1137.18C969.2 1137.18 967.96 1135.96 967.96 1134.45C967.96 1132.95 969.2 1131.73 970.72 1131.73C972.24 1131.73 973.48 1132.95 973.48 1134.45C973.48 1135.96 972.24 1137.18 970.72 1137.18Z" stroke="black" stroke-width="6" mask="url(#path-81-outside-46_0_1)"/>
    </g>
    <g id="Vector_30">
      <mask id="path-82-outside-47_0_1" maskUnits="userSpaceOnUse" x="948" y="1125" width="42" height="20" fill="black">
        <rect fill="white" x="948" y="1125" width="42" height="20"/>
        <path d="M984.387 1132.1C984.275 1132.1 984.218 1132.11 984.165 1132.22C983.992 1132.55 981.883 1135.76 981.49 1136.38C981.424 1136.48 981.343 1136.46 981.334 1136.36C981.294 1135.99 980.979 1135.56 980.482 1135.36C980.104 1135.2 979.735 1135.17 979.351 1135.23C978.657 1135.32 978.039 1135.69 977.495 1136.11C976.676 1136.74 975.969 1137.56 975.057 1138.17C974.558 1138.5 973.876 1138.78 973.42 1138.35C973.007 1137.97 973.054 1137.1 973.686 1136.44C973.752 1136.37 973.832 1136.42 973.82 1136.49C973.76 1136.79 973.833 1137.09 974.059 1137.3C974.335 1137.55 974.729 1137.58 975.067 1137.41C975.465 1137.21 975.699 1136.82 975.768 1136.39C975.873 1135.7 975.357 1135.1 974.71 1135.06C974.185 1135.02 973.681 1135.2 973.19 1135.61C972.945 1135.82 972.804 1135.97 972.592 1136.28C972.54 1136.36 972.46 1136.36 972.462 1136.25C972.488 1135.38 972.132 1134.89 971.421 1134.87C970.87 1134.86 970.28 1135.16 969.821 1135.54C969.318 1135.95 968.877 1136.49 968.406 1137C968.347 1137.06 968.296 1137.06 968.28 1136.94C968.265 1136.36 968.122 1135.8 967.858 1135.4C967.765 1135.27 967.569 1135.2 967.404 1135.29C967.328 1135.33 967.063 1135.46 966.87 1135.61C966.775 1135.69 966.737 1135.81 966.779 1135.96C967.034 1136.82 966.978 1137.8 966.633 1138.63C966.316 1139.39 965.7 1140.07 964.976 1140.31C964.499 1140.46 964.003 1140.38 963.697 1139.96C963.275 1139.36 963.445 1138.33 964.073 1137.48C964.628 1136.73 965.429 1136.25 966.229 1135.94C966.323 1135.9 966.342 1135.84 966.316 1135.76C966.272 1135.63 966.203 1135.45 966.175 1135.36C966.102 1135.17 965.896 1135.13 965.645 1135.16C965.064 1135.23 964.54 1135.43 964.022 1135.71C962.667 1136.45 961.987 1137.88 961.689 1138.64C961.546 1139 961.423 1139.23 961.264 1139.44C961.051 1139.71 960.783 1139.96 960.292 1140.39C960.247 1140.43 960.214 1140.52 960.251 1140.59C960.302 1140.7 960.557 1141.06 960.629 1141.1C960.709 1141.14 960.801 1141.08 960.839 1141.05C961.182 1140.82 961.593 1140.44 961.793 1140.19C961.864 1140.1 961.936 1140.14 961.973 1140.27C962.162 1140.95 962.653 1141.51 963.332 1141.74C964.575 1142.16 965.865 1141.55 966.838 1140.48C967.457 1139.79 967.68 1139.36 967.916 1139.06C968.318 1138.55 969.111 1137.42 970.055 1136.7C970.401 1136.43 970.811 1136.23 971.017 1136.36C971.182 1136.47 971.236 1136.72 970.971 1137.21C970.008 1139 968.591 1141.09 968.332 1141.6C968.285 1141.69 968.326 1141.76 968.417 1141.76C968.92 1141.75 969.42 1141.76 969.877 1141.76C969.953 1141.75 969.987 1141.72 970.026 1141.66C970.764 1140.49 971.459 1139.37 972.204 1138.22C972.246 1138.15 972.285 1138.2 972.286 1138.23C972.301 1138.5 972.367 1138.87 972.523 1139.11C972.804 1139.55 973.204 1139.74 973.646 1139.75C973.999 1139.75 974.177 1139.7 974.557 1139.55C974.866 1139.44 975.114 1139.28 975.304 1139.14C975.415 1139.07 975.435 1139.2 975.432 1139.22C975.261 1140.15 975.472 1141.25 976.384 1141.71C977.477 1142.26 978.676 1141.49 979.366 1140.8C979.433 1140.73 979.506 1140.74 979.512 1140.88C979.527 1141.14 979.645 1141.46 979.861 1141.68C980.439 1142.27 981.606 1142.03 982.777 1141.11C983.529 1140.52 984.316 1139.69 985.027 1138.81C985.053 1138.78 985.073 1138.72 985.022 1138.67C984.914 1138.55 984.757 1138.42 984.65 1138.32C984.601 1138.28 984.53 1138.29 984.488 1138.32C983.759 1139.02 983.104 1139.83 982.156 1140.49C981.836 1140.71 981.327 1140.9 981.098 1140.58C981.009 1140.46 981.019 1140.29 981.107 1140.07C981.383 1139.37 985.758 1132.62 985.985 1132.22C986.024 1132.15 985.983 1132.1 985.897 1132.1C985.447 1132.1 984.856 1132.1 984.387 1132.1M977.453 1140.4C977.228 1140.28 977.131 1139.96 977.136 1139.7C977.147 1138.98 977.465 1138.23 978.054 1137.5C978.772 1136.6 979.566 1136.14 980.086 1136.39C980.625 1136.65 980.453 1137.28 980.212 1137.78C980.194 1137.82 980.193 1137.85 980.202 1137.88C980.211 1137.94 980.278 1137.99 980.343 1138.01C980.366 1138.02 980.378 1138.03 980.353 1138.09C980.167 1138.49 979.995 1138.73 979.762 1139.08C979.548 1139.4 979.306 1139.66 979.014 1139.9C978.674 1140.18 978.231 1140.49 977.814 1140.49C977.69 1140.49 977.569 1140.46 977.453 1140.4Z"/>
        <path d="M959.873 1128.05C957.184 1128.28 954.625 1129.82 954.621 1132.15C954.618 1133.33 955.446 1134.29 956.73 1134.25C958.239 1134.19 959.477 1132.97 960.125 1131.42C960.372 1130.84 959.916 1130.59 959.699 1130.93C959.312 1131.54 958.766 1132.01 958.177 1132.3C957.467 1132.66 956.708 1132.56 956.478 1131.98C956.155 1131.15 956.827 1129.92 958.361 1129.34C960.577 1128.5 962.895 1129.05 965.125 1129.48C965.157 1129.48 965.276 1129.55 965.171 1129.6C964.771 1129.82 964.378 1130 963.766 1130.54C963.327 1130.92 962.751 1131.43 962.306 1131.98C961.865 1132.53 961.552 1133.01 961.137 1133.55C961.08 1133.63 961.009 1133.63 961.01 1133.63C960.001 1133.8 959.013 1133.91 958.108 1134.55C957.921 1134.68 957.839 1134.92 957.953 1135.09C958.055 1135.25 958.288 1135.27 958.45 1135.15C959.013 1134.72 959.591 1134.52 960.255 1134.5C960.284 1134.51 960.297 1134.51 960.305 1134.53C960.311 1134.54 960.308 1134.56 960.296 1134.58C959.301 1135.97 959.053 1136.29 958.305 1137.16C957.923 1137.6 957.546 1137.98 957.126 1138.37C955.428 1139.97 953.602 1139.94 952.947 1138.94C952.555 1138.34 952.607 1137.71 952.864 1137.18C953.179 1136.54 953.818 1136.07 954.348 1135.79C954.546 1135.69 954.602 1135.44 954.405 1135.2C954.279 1135.05 953.976 1135.02 953.749 1135.07C953.054 1135.2 952.232 1135.73 951.746 1136.37C951.199 1137.09 950.926 1137.97 951.017 1138.95C951.183 1140.72 952.619 1141.74 954.251 1141.73C955.549 1141.72 956.772 1141.32 958.244 1139.8C959.615 1138.39 960.865 1136.28 962.035 1134.32C962.072 1134.26 962.098 1134.23 962.275 1134.2C963.009 1134.11 964.093 1134.01 964.788 1133.96C964.942 1133.96 964.973 1133.96 965.035 1134.04C965.216 1134.27 965.487 1134.46 965.705 1134.58C965.811 1134.64 965.862 1134.67 965.945 1134.67C966.048 1134.68 966.128 1134.62 966.18 1134.56C966.254 1134.48 966.274 1134.37 966.234 1134.3C966.193 1134.23 965.708 1133.96 965.694 1133.85C965.683 1133.78 965.758 1133.76 965.758 1133.76C966.113 1133.65 966.484 1133.41 966.708 1132.98C966.929 1132.55 966.965 1131.98 966.561 1131.66C966.207 1131.38 965.672 1131.42 965.245 1131.81C964.827 1132.19 964.689 1132.74 964.746 1133.22C964.755 1133.3 964.751 1133.33 964.64 1133.34C963.997 1133.39 963.379 1133.41 962.691 1133.45C962.645 1133.45 962.631 1133.42 962.657 1133.39C963.449 1131.99 964.632 1131 965.94 1130.02C966.027 1129.95 966 1129.83 965.997 1129.72C968.359 1130.24 970.641 1131.21 973.092 1131.19C974.105 1131.18 975.075 1131.02 976.002 1130.51C976.817 1130.06 977.148 1129.64 977.173 1129.21C977.192 1128.91 976.987 1128.72 976.694 1128.78C974.218 1129.36 971.856 1129.35 969.393 1129.05C966.597 1128.71 963.914 1128 961.133 1128C960.715 1128 960.295 1128.02 959.873 1128.05ZM965.401 1133.03C965.365 1132.77 965.45 1132.41 965.73 1132.16C965.871 1132.03 966.061 1132 966.177 1132.11C966.308 1132.22 966.246 1132.5 966.114 1132.7C965.97 1132.91 965.726 1133.1 965.504 1133.14C965.497 1133.14 965.491 1133.14 965.485 1133.14C965.448 1133.14 965.417 1133.12 965.401 1133.03Z"/>
      </mask>
      <path d="M984.387 1132.1C984.275 1132.1 984.218 1132.11 984.165 1132.22C983.992 1132.55 981.883 1135.76 981.49 1136.38C981.424 1136.48 981.343 1136.46 981.334 1136.36C981.294 1135.99 980.979 1135.56 980.482 1135.36C980.104 1135.2 979.735 1135.17 979.351 1135.23C978.657 1135.32 978.039 1135.69 977.495 1136.11C976.676 1136.74 975.969 1137.56 975.057 1138.17C974.558 1138.5 973.876 1138.78 973.42 1138.35C973.007 1137.97 973.054 1137.1 973.686 1136.44C973.752 1136.37 973.832 1136.42 973.82 1136.49C973.76 1136.79 973.833 1137.09 974.059 1137.3C974.335 1137.55 974.729 1137.58 975.067 1137.41C975.465 1137.21 975.699 1136.82 975.768 1136.39C975.873 1135.7 975.357 1135.1 974.71 1135.06C974.185 1135.02 973.681 1135.2 973.19 1135.61C972.945 1135.82 972.804 1135.97 972.592 1136.28C972.54 1136.36 972.46 1136.36 972.462 1136.25C972.488 1135.38 972.132 1134.89 971.421 1134.87C970.87 1134.86 970.28 1135.16 969.821 1135.54C969.318 1135.95 968.877 1136.49 968.406 1137C968.347 1137.06 968.296 1137.06 968.28 1136.94C968.265 1136.36 968.122 1135.8 967.858 1135.4C967.765 1135.27 967.569 1135.2 967.404 1135.29C967.328 1135.33 967.063 1135.46 966.87 1135.61C966.775 1135.69 966.737 1135.81 966.779 1135.96C967.034 1136.82 966.978 1137.8 966.633 1138.63C966.316 1139.39 965.7 1140.07 964.976 1140.31C964.499 1140.46 964.003 1140.38 963.697 1139.96C963.275 1139.36 963.445 1138.33 964.073 1137.48C964.628 1136.73 965.429 1136.25 966.229 1135.94C966.323 1135.9 966.342 1135.84 966.316 1135.76C966.272 1135.63 966.203 1135.45 966.175 1135.36C966.102 1135.17 965.896 1135.13 965.645 1135.16C965.064 1135.23 964.54 1135.43 964.022 1135.71C962.667 1136.45 961.987 1137.88 961.689 1138.64C961.546 1139 961.423 1139.23 961.264 1139.44C961.051 1139.71 960.783 1139.96 960.292 1140.39C960.247 1140.43 960.214 1140.52 960.251 1140.59C960.302 1140.7 960.557 1141.06 960.629 1141.1C960.709 1141.14 960.801 1141.08 960.839 1141.05C961.182 1140.82 961.593 1140.44 961.793 1140.19C961.864 1140.1 961.936 1140.14 961.973 1140.27C962.162 1140.95 962.653 1141.51 963.332 1141.74C964.575 1142.16 965.865 1141.55 966.838 1140.48C967.457 1139.79 967.68 1139.36 967.916 1139.06C968.318 1138.55 969.111 1137.42 970.055 1136.7C970.401 1136.43 970.811 1136.23 971.017 1136.36C971.182 1136.47 971.236 1136.72 970.971 1137.21C970.008 1139 968.591 1141.09 968.332 1141.6C968.285 1141.69 968.326 1141.76 968.417 1141.76C968.92 1141.75 969.42 1141.76 969.877 1141.76C969.953 1141.75 969.987 1141.72 970.026 1141.66C970.764 1140.49 971.459 1139.37 972.204 1138.22C972.246 1138.15 972.285 1138.2 972.286 1138.23C972.301 1138.5 972.367 1138.87 972.523 1139.11C972.804 1139.55 973.204 1139.74 973.646 1139.75C973.999 1139.75 974.177 1139.7 974.557 1139.55C974.866 1139.44 975.114 1139.28 975.304 1139.14C975.415 1139.07 975.435 1139.2 975.432 1139.22C975.261 1140.15 975.472 1141.25 976.384 1141.71C977.477 1142.26 978.676 1141.49 979.366 1140.8C979.433 1140.73 979.506 1140.74 979.512 1140.88C979.527 1141.14 979.645 1141.46 979.861 1141.68C980.439 1142.27 981.606 1142.03 982.777 1141.11C983.529 1140.52 984.316 1139.69 985.027 1138.81C985.053 1138.78 985.073 1138.72 985.022 1138.67C984.914 1138.55 984.757 1138.42 984.65 1138.32C984.601 1138.28 984.53 1138.29 984.488 1138.32C983.759 1139.02 983.104 1139.83 982.156 1140.49C981.836 1140.71 981.327 1140.9 981.098 1140.58C981.009 1140.46 981.019 1140.29 981.107 1140.07C981.383 1139.37 985.758 1132.62 985.985 1132.22C986.024 1132.15 985.983 1132.1 985.897 1132.1C985.447 1132.1 984.856 1132.1 984.387 1132.1M977.453 1140.4C977.228 1140.28 977.131 1139.96 977.136 1139.7C977.147 1138.98 977.465 1138.23 978.054 1137.5C978.772 1136.6 979.566 1136.14 980.086 1136.39C980.625 1136.65 980.453 1137.28 980.212 1137.78C980.194 1137.82 980.193 1137.85 980.202 1137.88C980.211 1137.94 980.278 1137.99 980.343 1138.01C980.366 1138.02 980.378 1138.03 980.353 1138.09C980.167 1138.49 979.995 1138.73 979.762 1139.08C979.548 1139.4 979.306 1139.66 979.014 1139.9C978.674 1140.18 978.231 1140.49 977.814 1140.49C977.69 1140.49 977.569 1140.46 977.453 1140.4Z" fill="white"/>
      <path d="M959.873 1128.05C957.184 1128.28 954.625 1129.82 954.621 1132.15C954.618 1133.33 955.446 1134.29 956.73 1134.25C958.239 1134.19 959.477 1132.97 960.125 1131.42C960.372 1130.84 959.916 1130.59 959.699 1130.93C959.312 1131.54 958.766 1132.01 958.177 1132.3C957.467 1132.66 956.708 1132.56 956.478 1131.98C956.155 1131.15 956.827 1129.92 958.361 1129.34C960.577 1128.5 962.895 1129.05 965.125 1129.48C965.157 1129.48 965.276 1129.55 965.171 1129.6C964.771 1129.82 964.378 1130 963.766 1130.54C963.327 1130.92 962.751 1131.43 962.306 1131.98C961.865 1132.53 961.552 1133.01 961.137 1133.55C961.08 1133.63 961.009 1133.63 961.01 1133.63C960.001 1133.8 959.013 1133.91 958.108 1134.55C957.921 1134.68 957.839 1134.92 957.953 1135.09C958.055 1135.25 958.288 1135.27 958.45 1135.15C959.013 1134.72 959.591 1134.52 960.255 1134.5C960.284 1134.51 960.297 1134.51 960.305 1134.53C960.311 1134.54 960.308 1134.56 960.296 1134.58C959.301 1135.97 959.053 1136.29 958.305 1137.16C957.923 1137.6 957.546 1137.98 957.126 1138.37C955.428 1139.97 953.602 1139.94 952.947 1138.94C952.555 1138.34 952.607 1137.71 952.864 1137.18C953.179 1136.54 953.818 1136.07 954.348 1135.79C954.546 1135.69 954.602 1135.44 954.405 1135.2C954.279 1135.05 953.976 1135.02 953.749 1135.07C953.054 1135.2 952.232 1135.73 951.746 1136.37C951.199 1137.09 950.926 1137.97 951.017 1138.95C951.183 1140.72 952.619 1141.74 954.251 1141.73C955.549 1141.72 956.772 1141.32 958.244 1139.8C959.615 1138.39 960.865 1136.28 962.035 1134.32C962.072 1134.26 962.098 1134.23 962.275 1134.2C963.009 1134.11 964.093 1134.01 964.788 1133.96C964.942 1133.96 964.973 1133.96 965.035 1134.04C965.216 1134.27 965.487 1134.46 965.705 1134.58C965.811 1134.64 965.862 1134.67 965.945 1134.67C966.048 1134.68 966.128 1134.62 966.18 1134.56C966.254 1134.48 966.274 1134.37 966.234 1134.3C966.193 1134.23 965.708 1133.96 965.694 1133.85C965.683 1133.78 965.758 1133.76 965.758 1133.76C966.113 1133.65 966.484 1133.41 966.708 1132.98C966.929 1132.55 966.965 1131.98 966.561 1131.66C966.207 1131.38 965.672 1131.42 965.245 1131.81C964.827 1132.19 964.689 1132.74 964.746 1133.22C964.755 1133.3 964.751 1133.33 964.64 1133.34C963.997 1133.39 963.379 1133.41 962.691 1133.45C962.645 1133.45 962.631 1133.42 962.657 1133.39C963.449 1131.99 964.632 1131 965.94 1130.02C966.027 1129.95 966 1129.83 965.997 1129.72C968.359 1130.24 970.641 1131.21 973.092 1131.19C974.105 1131.18 975.075 1131.02 976.002 1130.51C976.817 1130.06 977.148 1129.64 977.173 1129.21C977.192 1128.91 976.987 1128.72 976.694 1128.78C974.218 1129.36 971.856 1129.35 969.393 1129.05C966.597 1128.71 963.914 1128 961.133 1128C960.715 1128 960.295 1128.02 959.873 1128.05ZM965.401 1133.03C965.365 1132.77 965.45 1132.41 965.73 1132.16C965.871 1132.03 966.061 1132 966.177 1132.11C966.308 1132.22 966.246 1132.5 966.114 1132.7C965.97 1132.91 965.726 1133.1 965.504 1133.14C965.497 1133.14 965.491 1133.14 965.485 1133.14C965.448 1133.14 965.417 1133.12 965.401 1133.03Z" fill="white"/>
      <path d="M984.165 1132.22L986.833 1133.59L986.841 1133.57L986.849 1133.56L984.165 1132.22ZM981.49 1136.38L983.95 1138.1L983.99 1138.04L984.027 1137.98L981.49 1136.38ZM981.334 1136.36L984.323 1136.1L984.32 1136.07L984.316 1136.04L981.334 1136.36ZM980.482 1135.36L979.338 1138.13L979.344 1138.13L980.482 1135.36ZM979.351 1135.23L978.952 1132.25L978.942 1132.25L979.351 1135.23ZM977.495 1136.11L975.665 1133.73L975.662 1133.74L977.495 1136.11ZM975.057 1138.17L976.711 1140.67L976.715 1140.67L975.057 1138.17ZM973.42 1138.35L975.476 1136.17L975.474 1136.17L973.42 1138.35ZM973.686 1136.44L971.512 1134.37L971.508 1134.37L973.686 1136.44ZM973.82 1136.49L970.877 1135.91L970.876 1135.91L973.82 1136.49ZM974.059 1137.3L972.013 1139.49L972.027 1139.51L972.041 1139.52L974.059 1137.3ZM975.067 1137.41L976.397 1140.1L976.407 1140.1L976.416 1140.09L975.067 1137.41ZM975.768 1136.39L978.732 1136.85L978.733 1136.84L975.768 1136.39ZM974.71 1135.06L974.932 1132.06L974.923 1132.06L974.71 1135.06ZM973.19 1135.61L971.265 1133.31L971.26 1133.32L973.19 1135.61ZM972.592 1136.28L970.125 1134.57L970.12 1134.58L970.114 1134.59L972.592 1136.28ZM972.462 1136.25L969.464 1136.17L969.463 1136.18L969.463 1136.2L972.462 1136.25ZM971.421 1134.87L971.35 1137.87L971.353 1137.87L971.421 1134.87ZM969.821 1135.54L967.934 1133.2L967.926 1133.21L969.821 1135.54ZM968.406 1137L970.6 1139.05L970.605 1139.04L970.61 1139.04L968.406 1137ZM968.28 1136.94L965.281 1137.01L965.285 1137.18L965.306 1137.34L968.28 1136.94ZM967.858 1135.4L970.357 1133.74L970.353 1133.74L970.349 1133.73L967.858 1135.4ZM967.404 1135.29L968.853 1137.92L968.868 1137.91L968.882 1137.9L967.404 1135.29ZM966.87 1135.61L964.971 1133.29L964.962 1133.3L964.952 1133.31L966.87 1135.61ZM966.779 1135.96L963.893 1136.78L963.898 1136.79L963.902 1136.81L966.779 1135.96ZM966.633 1138.63L969.401 1139.79L969.402 1139.78L966.633 1138.63ZM964.976 1140.31L964.061 1137.45L964.057 1137.45L964.976 1140.31ZM963.697 1139.96L961.252 1141.69L961.257 1141.7L963.697 1139.96ZM964.073 1137.48L961.658 1135.7L961.654 1135.7L964.073 1137.48ZM966.229 1135.94L967.308 1138.74L967.315 1138.74L967.322 1138.73L966.229 1135.94ZM966.316 1135.76L963.464 1136.69L963.467 1136.7L966.316 1135.76ZM966.175 1135.36L969.015 1134.4L969.002 1134.36L968.988 1134.32L966.175 1135.36ZM965.645 1135.16L965.322 1132.18L965.307 1132.18L965.292 1132.18L965.645 1135.16ZM964.022 1135.71L962.59 1133.08L962.589 1133.08L964.022 1135.71ZM961.689 1138.64L964.482 1139.73L964.483 1139.73L961.689 1138.64ZM961.264 1139.44L963.626 1141.29L963.63 1141.28L961.264 1139.44ZM960.292 1140.39L958.297 1138.15L958.282 1138.17L958.266 1138.18L960.292 1140.39ZM960.251 1140.59L957.541 1141.88L957.544 1141.89L960.251 1140.59ZM960.629 1141.1L961.966 1138.41L961.925 1138.39L961.882 1138.37L960.629 1141.1ZM960.839 1141.05L959.137 1138.58L959.116 1138.6L959.094 1138.61L960.839 1141.05ZM961.793 1140.19L959.473 1138.29L959.456 1138.31L959.439 1138.33L961.793 1140.19ZM961.973 1140.27L964.864 1139.47L964.862 1139.46L961.973 1140.27ZM963.332 1141.74L964.303 1138.9L964.299 1138.9L963.332 1141.74ZM966.838 1140.48L964.618 1138.46L964.617 1138.46L966.838 1140.48ZM967.916 1139.06L965.569 1137.19L965.568 1137.19L967.916 1139.06ZM970.055 1136.7L971.883 1139.08L971.888 1139.07L970.055 1136.7ZM971.017 1136.36L969.368 1138.87L969.369 1138.87L971.017 1136.36ZM970.971 1137.21L968.332 1135.78L968.331 1135.79L970.971 1137.21ZM968.332 1141.6L970.973 1143.02L970.989 1142.99L971.005 1142.96L968.332 1141.6ZM968.417 1141.76V1144.76L968.431 1144.76L968.417 1141.76ZM969.877 1141.76V1144.76H969.954L970.03 1144.75L969.877 1141.76ZM970.026 1141.66L972.471 1143.4L972.52 1143.33L972.564 1143.26L970.026 1141.66ZM972.204 1138.22L974.725 1139.84L974.737 1139.83L974.749 1139.81L972.204 1138.22ZM972.286 1138.23L969.29 1138.38L969.29 1138.39L969.291 1138.4L972.286 1138.23ZM972.523 1139.11L975.059 1137.5L975.048 1137.49L975.037 1137.47L972.523 1139.11ZM973.646 1139.75L973.684 1136.75L973.673 1136.75L973.663 1136.75L973.646 1139.75ZM974.557 1139.55L973.501 1136.74L973.494 1136.75L974.557 1139.55ZM975.304 1139.14L973.577 1136.69L973.559 1136.7L973.541 1136.72L975.304 1139.14ZM975.432 1139.22L978.383 1139.76L978.394 1139.7L978.403 1139.64L975.432 1139.22ZM976.384 1141.71L975.041 1144.39L975.043 1144.39L976.384 1141.71ZM979.366 1140.8L977.245 1138.67L977.241 1138.68L979.366 1140.8ZM979.512 1140.88L976.516 1141.02L976.516 1141.03L976.517 1141.05L979.512 1140.88ZM979.861 1141.68L982.001 1139.58L981.999 1139.57L979.861 1141.68ZM982.777 1141.11L980.927 1138.75L980.925 1138.75L982.777 1141.11ZM985.027 1138.81L987.362 1140.7L987.38 1140.67L987.398 1140.65L985.027 1138.81ZM985.022 1138.67L987.225 1136.63L987.216 1136.62L987.208 1136.61L985.022 1138.67ZM984.65 1138.32L986.712 1136.14L986.657 1136.09L986.6 1136.04L984.65 1138.32ZM984.488 1138.32L982.675 1135.93L982.533 1136.04L982.405 1136.16L984.488 1138.32ZM982.156 1140.49L980.437 1138.03L980.426 1138.04L982.156 1140.49ZM981.098 1140.58L983.523 1138.82L983.517 1138.81L981.098 1140.58ZM981.107 1140.07L983.895 1141.18L983.897 1141.17L981.107 1140.07ZM985.985 1132.22L988.591 1133.7L988.6 1133.69L988.609 1133.67L985.985 1132.22ZM977.453 1140.4L978.871 1137.76L978.859 1137.75L978.847 1137.74L977.453 1140.4ZM977.136 1139.7L980.135 1139.76L980.135 1139.75L977.136 1139.7ZM978.054 1137.5L980.392 1139.38L980.395 1139.37L978.054 1137.5ZM980.086 1136.39L978.77 1139.09L978.777 1139.09L980.086 1136.39ZM980.212 1137.78L977.514 1136.47L977.498 1136.5L977.483 1136.53L980.212 1137.78ZM980.202 1137.88L983.157 1137.36L983.125 1137.18L983.069 1137L980.202 1137.88ZM980.343 1138.01L981.429 1135.21L981.401 1135.2L981.373 1135.19L980.343 1138.01ZM980.353 1138.09L977.643 1136.8L977.635 1136.82L977.627 1136.84L980.353 1138.09ZM979.762 1139.08L977.263 1137.42L977.257 1137.43L979.762 1139.08ZM979.014 1139.9L977.095 1137.59L977.09 1137.6L977.084 1137.6L979.014 1139.9ZM959.873 1128.05L959.622 1125.06L959.617 1125.06L959.873 1128.05ZM954.621 1132.15L951.621 1132.14L951.621 1132.14L954.621 1132.15ZM956.73 1134.25L956.829 1137.24L956.832 1137.24L956.73 1134.25ZM960.125 1131.42L957.359 1130.26L957.359 1130.26L960.125 1131.42ZM959.699 1130.93L957.173 1129.31L957.168 1129.32L959.699 1130.93ZM958.177 1132.3L959.51 1134.99L959.512 1134.99L958.177 1132.3ZM956.478 1131.98L953.685 1133.07L953.686 1133.07L956.478 1131.98ZM958.361 1129.34L957.306 1126.53L957.298 1126.53L958.361 1129.34ZM965.125 1129.48L964.563 1132.43L964.842 1132.48H965.125V1129.48ZM965.171 1129.6L963.761 1126.95L963.742 1126.96L963.722 1126.98L965.171 1129.6ZM963.766 1130.54L965.733 1132.8L965.739 1132.8L963.766 1130.54ZM962.306 1131.98L964.638 1133.87L964.644 1133.86L962.306 1131.98ZM961.137 1133.55L958.759 1131.72L958.736 1131.75L958.713 1131.78L961.137 1133.55ZM961.01 1133.63L961.517 1136.58L961.01 1130.63V1133.63ZM958.108 1134.55L959.829 1137.01L959.838 1137L958.108 1134.55ZM957.953 1135.09L955.426 1136.71L955.43 1136.72L957.953 1135.09ZM958.45 1135.15L960.232 1137.56L960.247 1137.55L960.262 1137.54L958.45 1135.15ZM960.255 1134.5L960.454 1131.51L960.313 1131.5L960.171 1131.5L960.255 1134.5ZM960.305 1134.53L957.573 1135.77L957.604 1135.83L957.637 1135.9L960.305 1134.53ZM960.296 1134.58L957.886 1132.79L957.868 1132.81L957.851 1132.84L960.296 1134.58ZM958.305 1137.16L956.033 1135.2L956.028 1135.2L958.305 1137.16ZM957.126 1138.37L955.082 1136.18L955.075 1136.18L955.069 1136.19L957.126 1138.37ZM952.947 1138.94L950.433 1140.58L950.435 1140.58L952.947 1138.94ZM952.864 1137.18L950.171 1135.86L950.17 1135.86L952.864 1137.18ZM954.348 1135.79L952.971 1133.13L952.967 1133.13L954.348 1135.79ZM954.405 1135.2L952.095 1137.12L952.105 1137.13L952.115 1137.14L954.405 1135.2ZM953.749 1135.07L954.301 1138.02L954.306 1138.02L953.749 1135.07ZM951.746 1136.37L954.136 1138.19L954.139 1138.18L951.746 1136.37ZM951.017 1138.95L948.03 1139.23L948.03 1139.23L951.017 1138.95ZM954.251 1141.73L954.273 1144.73L954.274 1144.73L954.251 1141.73ZM958.244 1139.8L960.396 1141.89L960.397 1141.89L958.244 1139.8ZM962.035 1134.32L964.61 1135.86L964.615 1135.85L964.621 1135.84L962.035 1134.32ZM962.275 1134.2L962.651 1137.18L962.653 1137.18L962.275 1134.2ZM964.788 1133.96L964.627 1130.97L964.619 1130.97L964.612 1130.97L964.788 1133.96ZM965.035 1134.04L967.397 1132.19L967.389 1132.18L965.035 1134.04ZM965.705 1134.58L967.162 1131.96L967.153 1131.96L967.143 1131.95L965.705 1134.58ZM965.945 1134.67L965.875 1137.67L965.888 1137.67L965.945 1134.67ZM966.18 1134.56L963.948 1132.55L963.934 1132.57L963.92 1132.59L966.18 1134.56ZM966.234 1134.3L963.63 1135.79L963.635 1135.8L966.234 1134.3ZM965.694 1133.85L968.67 1133.47L968.665 1133.43L968.659 1133.39L965.694 1133.85ZM965.758 1133.76L966.427 1136.69L966.549 1136.66L966.667 1136.62L965.758 1133.76ZM966.708 1132.98L969.376 1134.35L969.378 1134.35L966.708 1132.98ZM966.561 1131.66L964.699 1134.01L964.7 1134.01L966.561 1131.66ZM965.245 1131.81L967.257 1134.04L967.264 1134.03L965.245 1131.81ZM964.746 1133.22L967.726 1132.87L967.725 1132.87L964.746 1133.22ZM964.64 1133.34L964.879 1136.33L964.89 1136.33L964.9 1136.33L964.64 1133.34ZM962.691 1133.45L962.53 1130.45L962.498 1130.45L962.466 1130.45L962.691 1133.45ZM962.657 1133.39L964.96 1135.31L965.133 1135.1L965.267 1134.87L962.657 1133.39ZM965.94 1130.02L967.738 1132.42L967.744 1132.41L967.75 1132.41L965.94 1130.02ZM965.997 1129.72L966.642 1126.79L962.874 1125.96L962.998 1129.82L965.997 1129.72ZM973.092 1131.19L973.067 1128.19L973.066 1128.19L973.092 1131.19ZM976.002 1130.51L974.549 1127.88L974.544 1127.89L976.002 1130.51ZM977.173 1129.21L974.179 1129.02L974.178 1129.03L974.178 1129.04L977.173 1129.21ZM976.694 1128.78L976.052 1125.85L976.032 1125.86L976.013 1125.86L976.694 1128.78ZM969.393 1129.05L969.026 1132.03L969.028 1132.03L969.393 1129.05ZM965.401 1133.03L962.428 1133.43L962.439 1133.51L962.453 1133.59L965.401 1133.03ZM965.73 1132.16L967.733 1134.39L967.734 1134.39L965.73 1132.16ZM966.177 1132.11L964.205 1134.37L964.214 1134.37L966.177 1132.11ZM966.114 1132.7L963.625 1131.02L963.622 1131.03L966.114 1132.7ZM965.504 1133.14L966.056 1136.09L966.078 1136.09L966.1 1136.08L965.504 1133.14ZM984.387 1129.1C984.318 1129.1 983.663 1129.08 982.961 1129.41C982.111 1129.82 981.681 1130.48 981.481 1130.88L986.849 1133.56C986.702 1133.85 986.326 1134.45 985.547 1134.82C985.207 1134.99 984.906 1135.05 984.714 1135.07C984.537 1135.1 984.404 1135.1 984.387 1135.1V1129.1ZM981.497 1130.85C981.536 1130.77 981.475 1130.88 981.2 1131.31C980.979 1131.66 980.692 1132.1 980.393 1132.56C979.812 1133.46 979.162 1134.45 978.952 1134.78L984.027 1137.98C984.21 1137.69 984.811 1136.77 985.426 1135.83C985.726 1135.36 986.024 1134.9 986.258 1134.54C986.44 1134.25 986.708 1133.83 986.833 1133.59L981.497 1130.85ZM979.029 1134.67C979.205 1134.41 980.155 1133.2 981.882 1133.49C983.917 1133.82 984.287 1135.67 984.323 1136.1L978.344 1136.61C978.39 1137.15 978.804 1139.06 980.899 1139.41C982.685 1139.7 983.708 1138.45 983.95 1138.1L979.029 1134.67ZM984.316 1136.04C984.139 1134.38 982.947 1133.13 981.621 1132.58L979.344 1138.13C979.124 1138.04 978.923 1137.9 978.759 1137.7C978.61 1137.51 978.405 1137.18 978.351 1136.68L984.316 1136.04ZM981.627 1132.59C980.679 1132.19 979.763 1132.14 978.952 1132.25L979.749 1138.2C979.743 1138.2 979.687 1138.21 979.599 1138.2C979.507 1138.19 979.416 1138.16 979.338 1138.13L981.627 1132.59ZM978.942 1132.25C977.472 1132.46 976.348 1133.21 975.665 1133.73L979.324 1138.49C979.507 1138.35 979.636 1138.27 979.724 1138.22C979.808 1138.18 979.815 1138.19 979.759 1138.2L978.942 1132.25ZM975.662 1133.74C975.125 1134.15 974.616 1134.63 974.287 1134.93C973.908 1135.28 973.648 1135.5 973.398 1135.67L976.715 1140.67C977.378 1140.23 977.927 1139.74 978.335 1139.36C978.792 1138.95 979.046 1138.7 979.328 1138.49L975.662 1133.74ZM973.402 1135.66C973.292 1135.74 973.369 1135.66 973.621 1135.61C973.77 1135.58 974.051 1135.54 974.409 1135.61C974.796 1135.7 975.173 1135.88 975.476 1136.17L971.365 1140.54C972.521 1141.63 973.915 1141.67 974.824 1141.48C975.656 1141.31 976.324 1140.93 976.711 1140.67L973.402 1135.66ZM975.474 1136.17C976.142 1136.79 976.177 1137.53 976.142 1137.83C976.103 1138.19 975.959 1138.4 975.864 1138.5L971.508 1134.37C970.78 1135.14 970.297 1136.12 970.18 1137.16C970.067 1138.17 970.285 1139.53 971.367 1140.54L975.474 1136.17ZM975.859 1138.5C975.089 1139.31 973.71 1139.75 972.413 1139.08C971.349 1138.54 970.603 1137.3 970.877 1135.91L976.763 1137.07C977.049 1135.62 976.269 1134.32 975.151 1133.74C973.801 1133.05 972.349 1133.49 971.512 1134.37L975.859 1138.5ZM970.876 1135.91C970.653 1137.04 970.901 1138.46 972.013 1139.49L976.105 1135.11C976.765 1135.72 976.868 1136.53 976.763 1137.07L970.876 1135.91ZM972.041 1139.52C973.366 1140.72 975.127 1140.73 976.397 1140.1L973.736 1134.72C974.331 1134.43 975.304 1134.38 976.076 1135.08L972.041 1139.52ZM976.416 1140.09C977.851 1139.37 978.547 1138.04 978.732 1136.85L972.804 1135.92C972.852 1135.61 973.08 1135.05 973.718 1134.73L976.416 1140.09ZM978.733 1136.84C979.117 1134.36 977.249 1132.24 974.932 1132.06L974.487 1138.05C973.464 1137.97 972.63 1137.05 972.803 1135.93L978.733 1136.84ZM974.923 1132.06C973.459 1131.96 972.213 1132.52 971.265 1133.31L975.116 1137.91C975.147 1137.89 975.1 1137.94 974.974 1137.98C974.837 1138.03 974.668 1138.06 974.496 1138.05L974.923 1132.06ZM971.26 1133.32C970.795 1133.71 970.478 1134.06 970.125 1134.57L975.058 1137.99C975.122 1137.9 975.13 1137.89 975.107 1137.92C975.095 1137.93 975.086 1137.94 975.083 1137.94C975.081 1137.95 975.091 1137.94 975.12 1137.91L971.26 1133.32ZM970.114 1134.59C970.279 1134.35 970.532 1134.06 970.904 1133.82C971.248 1133.59 971.913 1133.27 972.799 1133.35C973.83 1133.45 974.637 1134.06 975.071 1134.81C975.438 1135.45 975.467 1136.03 975.462 1136.3L969.463 1136.2C969.457 1136.53 969.495 1137.16 969.878 1137.82C970.328 1138.59 971.158 1139.22 972.215 1139.32C973.127 1139.41 973.822 1139.08 974.195 1138.83C974.596 1138.57 974.879 1138.25 975.07 1137.97L970.114 1134.59ZM975.461 1136.34C975.484 1135.55 975.358 1134.43 974.621 1133.45C973.792 1132.34 972.581 1131.9 971.489 1131.88L971.353 1137.87C971.193 1137.87 970.928 1137.84 970.621 1137.69C970.301 1137.54 970.022 1137.32 969.815 1137.04C969.427 1136.52 969.466 1136.09 969.464 1136.17L975.461 1136.34ZM971.492 1131.88C969.904 1131.84 968.625 1132.65 967.934 1133.2L971.708 1137.87C971.771 1137.82 971.808 1137.8 971.797 1137.81C971.787 1137.81 971.748 1137.83 971.679 1137.84C971.611 1137.86 971.498 1137.88 971.35 1137.87L971.492 1131.88ZM967.926 1133.21C967.203 1133.8 966.484 1134.66 966.201 1134.97L970.61 1139.04C971.271 1138.32 971.433 1138.09 971.716 1137.86L967.926 1133.21ZM966.211 1134.96C966.324 1134.83 966.592 1134.57 967.022 1134.35C967.476 1134.12 968.35 1133.85 969.361 1134.22C970.339 1134.58 970.809 1135.31 970.995 1135.7C971.182 1136.08 971.235 1136.41 971.253 1136.54L965.306 1137.34C965.332 1137.53 965.397 1137.9 965.601 1138.32C965.803 1138.74 966.293 1139.49 967.292 1139.85C968.326 1140.23 969.224 1139.96 969.705 1139.72C970.162 1139.49 970.458 1139.2 970.6 1139.05L966.211 1134.96ZM971.279 1136.86C971.255 1135.91 971.023 1134.75 970.357 1133.74L965.359 1137.06C965.316 1137 965.292 1136.95 965.28 1136.92C965.268 1136.89 965.265 1136.88 965.266 1136.89C965.267 1136.89 965.27 1136.9 965.274 1136.93C965.277 1136.95 965.28 1136.98 965.281 1137.01L971.279 1136.86ZM970.349 1133.73C969.506 1132.48 967.641 1131.71 965.926 1132.68L968.882 1137.9C967.497 1138.69 966.025 1138.06 965.367 1137.08L970.349 1133.73ZM965.955 1132.66C965.984 1132.65 966.004 1132.64 965.988 1132.65C965.983 1132.65 965.978 1132.65 965.968 1132.66C965.959 1132.66 965.948 1132.67 965.935 1132.67C965.884 1132.7 965.805 1132.74 965.715 1132.79C965.553 1132.88 965.265 1133.05 964.971 1133.29L968.769 1137.94C968.738 1137.96 968.713 1137.98 968.695 1137.99C968.677 1138.01 968.664 1138.02 968.656 1138.02C968.641 1138.03 968.637 1138.03 968.647 1138.03C968.656 1138.02 968.67 1138.01 968.696 1138C968.703 1138 968.71 1137.99 968.718 1137.99C968.725 1137.99 968.736 1137.98 968.747 1137.97C968.757 1137.97 968.771 1137.96 968.787 1137.95C968.802 1137.95 968.826 1137.93 968.853 1137.92L965.955 1132.66ZM964.952 1133.31C964.486 1133.7 964.08 1134.25 963.884 1134.95C963.691 1135.64 963.752 1136.28 963.893 1136.78L969.666 1135.14C969.764 1135.49 969.823 1135.99 969.663 1136.57C969.498 1137.16 969.159 1137.61 968.789 1137.92L964.952 1133.31ZM963.902 1136.81C963.96 1137 963.947 1137.28 963.863 1137.48L969.402 1139.78C970.009 1138.33 970.108 1136.64 969.656 1135.11L963.902 1136.81ZM963.865 1137.47C963.856 1137.5 963.843 1137.52 963.828 1137.54C963.812 1137.57 963.8 1137.58 963.796 1137.59C963.792 1137.59 963.805 1137.58 963.842 1137.55C963.88 1137.53 963.952 1137.48 964.061 1137.45L965.891 1143.16C967.694 1142.59 968.857 1141.09 969.401 1139.79L963.865 1137.47ZM964.057 1137.45C964.226 1137.4 964.551 1137.33 964.972 1137.43C965.44 1137.54 965.863 1137.83 966.137 1138.21L961.257 1141.7C962.55 1143.51 964.594 1143.58 965.895 1143.16L964.057 1137.45ZM966.142 1138.22C966.523 1138.75 966.465 1139.22 966.456 1139.28C966.441 1139.37 966.427 1139.34 966.492 1139.25L961.654 1135.7C961.091 1136.47 960.678 1137.39 960.527 1138.35C960.381 1139.29 960.449 1140.57 961.252 1141.69L966.142 1138.22ZM966.487 1139.26C966.583 1139.13 966.816 1138.93 967.308 1138.74L965.15 1133.14C964.043 1133.57 962.672 1134.32 961.658 1135.7L966.487 1139.26ZM967.322 1138.73C967.802 1138.55 968.619 1138.09 969.064 1137.08C969.494 1136.1 969.298 1135.23 969.164 1134.82L963.467 1136.7C963.36 1136.38 963.168 1135.58 963.572 1134.66C963.99 1133.71 964.75 1133.3 965.136 1133.15L967.322 1138.73ZM969.168 1134.83C969.129 1134.71 969.086 1134.59 969.06 1134.52C969.041 1134.47 969.037 1134.46 969.024 1134.42C969.013 1134.39 969.012 1134.39 969.015 1134.4L963.335 1136.33C963.352 1136.38 963.37 1136.43 963.381 1136.46C963.39 1136.49 963.412 1136.55 963.419 1136.57C963.445 1136.64 963.458 1136.68 963.464 1136.69L969.168 1134.83ZM968.988 1134.32C968.592 1133.25 967.749 1132.59 966.889 1132.32C966.199 1132.1 965.587 1132.15 965.322 1132.18L965.969 1138.14C965.955 1138.15 965.571 1138.2 965.064 1138.04C964.776 1137.94 964.418 1137.77 964.08 1137.47C963.734 1137.15 963.499 1136.78 963.362 1136.41L968.988 1134.32ZM965.292 1132.18C964.223 1132.31 963.328 1132.68 962.59 1133.08L965.454 1138.35C965.751 1138.19 965.906 1138.15 965.999 1138.14L965.292 1132.18ZM962.589 1133.08C960.246 1134.35 959.24 1136.66 958.895 1137.55L964.483 1139.73C964.585 1139.47 964.73 1139.16 964.925 1138.87C965.122 1138.59 965.305 1138.43 965.455 1138.35L962.589 1133.08ZM958.895 1137.54C958.874 1137.6 958.858 1137.64 958.847 1137.66C958.837 1137.68 958.833 1137.69 958.835 1137.69C958.838 1137.68 958.846 1137.67 958.858 1137.65C958.871 1137.63 958.885 1137.61 958.899 1137.59L963.63 1141.28C964.029 1140.77 964.278 1140.25 964.482 1139.73L958.895 1137.54ZM958.903 1137.58C958.884 1137.61 958.826 1137.68 958.297 1138.15L962.286 1142.63C962.739 1142.23 963.217 1141.81 963.626 1141.29L958.903 1137.58ZM958.266 1138.18C957.475 1138.9 956.819 1140.36 957.541 1141.88L962.962 1139.31C963.285 1139.99 963.287 1140.68 963.146 1141.23C963.015 1141.74 962.739 1142.22 962.317 1142.61L958.266 1138.18ZM957.544 1141.89C957.7 1142.21 957.927 1142.53 958.007 1142.64C958.073 1142.73 958.165 1142.85 958.272 1142.98C958.323 1143.04 958.409 1143.13 958.521 1143.24C958.561 1143.28 958.878 1143.59 959.375 1143.82L961.882 1138.37C962.168 1138.5 962.365 1138.65 962.45 1138.72C962.551 1138.79 962.625 1138.86 962.667 1138.9C962.751 1138.98 962.805 1139.04 962.821 1139.06C962.858 1139.11 962.87 1139.12 962.856 1139.11C962.853 1139.1 962.849 1139.09 962.844 1139.09C962.84 1139.08 962.838 1139.08 962.839 1139.08C962.839 1139.08 962.841 1139.08 962.844 1139.09C962.847 1139.09 962.852 1139.1 962.86 1139.11C962.866 1139.13 962.909 1139.2 962.959 1139.3L957.544 1141.89ZM959.291 1143.78C960.303 1144.29 961.235 1144.1 961.681 1143.95C962.132 1143.81 962.449 1143.59 962.583 1143.5L959.094 1138.61C959.191 1138.55 959.443 1138.37 959.819 1138.25C960.189 1138.13 961.035 1137.95 961.966 1138.41L959.291 1143.78ZM962.54 1143.53C963.074 1143.16 963.723 1142.59 964.148 1142.05L959.439 1138.33C959.469 1138.29 959.477 1138.29 959.452 1138.31C959.431 1138.34 959.397 1138.37 959.354 1138.41C959.311 1138.45 959.267 1138.48 959.225 1138.52C959.182 1138.55 959.152 1138.57 959.137 1138.58L962.54 1143.53ZM964.113 1142.09C963.931 1142.31 963.55 1142.71 962.92 1142.95C962.201 1143.22 961.367 1143.22 960.616 1142.86C959.954 1142.55 959.583 1142.08 959.406 1141.8C959.219 1141.5 959.129 1141.24 959.085 1141.08L964.862 1139.46C964.795 1139.22 964.455 1138.04 963.176 1137.44C962.394 1137.07 961.526 1137.06 960.772 1137.35C960.107 1137.6 959.691 1138.02 959.473 1138.29L964.113 1142.09ZM959.082 1141.07C959.517 1142.64 960.684 1144 962.365 1144.58L964.299 1138.9C964.621 1139.01 964.806 1139.26 964.864 1139.47L959.082 1141.07ZM962.361 1144.58C965.234 1145.56 967.706 1143.98 969.059 1142.49L964.617 1138.46C964.366 1138.73 964.168 1138.84 964.092 1138.87C964.062 1138.89 964.075 1138.88 964.126 1138.87C964.181 1138.87 964.246 1138.88 964.303 1138.9L962.361 1144.58ZM969.058 1142.49C969.469 1142.04 969.757 1141.66 969.976 1141.35C970.072 1141.21 970.17 1141.06 970.213 1141C970.272 1140.91 970.279 1140.91 970.265 1140.92L965.568 1137.19C965.436 1137.36 965.326 1137.52 965.257 1137.62C965.172 1137.74 965.131 1137.8 965.065 1137.9C964.958 1138.05 964.825 1138.23 964.618 1138.46L969.058 1142.49ZM970.264 1140.93C970.586 1140.52 970.728 1140.31 971.08 1139.89C971.387 1139.52 971.66 1139.25 971.883 1139.08L968.226 1134.32C966.904 1135.34 965.791 1136.91 965.569 1137.19L970.264 1140.93ZM971.888 1139.07C971.933 1139.04 971.872 1139.1 971.687 1139.17C971.594 1139.21 971.351 1139.29 971.003 1139.31C970.647 1139.34 970.012 1139.29 969.368 1138.87L972.666 1133.86C971.237 1132.92 969.788 1133.47 969.49 1133.59C968.962 1133.8 968.523 1134.09 968.222 1134.32L971.888 1139.07ZM969.369 1138.87C969.012 1138.63 968.681 1138.29 968.451 1137.85C968.226 1137.41 968.157 1136.99 968.155 1136.66C968.153 1136.35 968.212 1136.11 968.251 1135.99C968.292 1135.86 968.33 1135.79 968.332 1135.78L973.609 1138.64C973.85 1138.2 974.161 1137.49 974.155 1136.63C974.148 1135.58 973.663 1134.51 972.665 1133.86L969.369 1138.87ZM968.331 1135.79C967.899 1136.59 967.348 1137.49 966.844 1138.29C966.423 1138.97 965.869 1139.83 965.66 1140.24L971.005 1142.96C970.999 1142.97 971.059 1142.87 971.265 1142.54C971.455 1142.23 971.657 1141.91 971.931 1141.47C972.441 1140.66 973.08 1139.62 973.61 1138.64L968.331 1135.79ZM965.692 1140.17C965.367 1140.78 965.025 1141.95 965.7 1143.17C966.397 1144.42 967.636 1144.76 968.417 1144.76V1138.76C969.107 1138.76 970.28 1139.06 970.946 1140.25C971.589 1141.41 971.25 1142.51 970.973 1143.02L965.692 1140.17ZM968.431 1144.76C968.925 1144.75 969.407 1144.76 969.877 1144.76V1138.76C969.432 1138.76 968.916 1138.75 968.403 1138.76L968.431 1144.76ZM970.03 1144.75C970.556 1144.72 971.148 1144.56 971.695 1144.18C972.158 1143.85 972.42 1143.47 972.471 1143.4L967.58 1139.92C967.593 1139.91 967.818 1139.57 968.236 1139.28C968.737 1138.92 969.274 1138.78 969.724 1138.76L970.03 1144.75ZM972.564 1143.26C973.314 1142.07 973.992 1140.98 974.725 1139.84L969.684 1136.59C968.927 1137.76 968.215 1138.91 967.487 1140.06L972.564 1143.26ZM974.749 1139.81C974.593 1140.06 974.191 1140.61 973.413 1140.95C972.488 1141.34 971.52 1141.21 970.791 1140.8C970.174 1140.46 969.831 1139.98 969.657 1139.67C969.481 1139.35 969.316 1138.91 969.29 1138.38L975.282 1138.08C975.255 1137.54 975.085 1137.08 974.901 1136.75C974.718 1136.42 974.362 1135.93 973.73 1135.57C972.986 1135.16 972 1135.03 971.056 1135.43C970.259 1135.77 969.837 1136.34 969.659 1136.63L974.749 1139.81ZM969.291 1138.4C969.315 1138.82 969.417 1139.83 970.009 1140.74L975.037 1137.47C975.132 1137.62 975.186 1137.74 975.215 1137.81C975.244 1137.89 975.259 1137.94 975.266 1137.97C975.279 1138.02 975.28 1138.05 975.281 1138.06L969.291 1138.4ZM969.988 1140.71C970.833 1142.05 972.197 1142.74 973.63 1142.75L973.663 1136.75C973.877 1136.75 974.164 1136.8 974.46 1136.96C974.76 1137.12 974.953 1137.34 975.059 1137.5L969.988 1140.71ZM973.609 1142.75C974.512 1142.76 975.101 1142.55 975.619 1142.36L973.494 1136.75C973.407 1136.78 973.37 1136.79 973.353 1136.8C973.341 1136.8 973.37 1136.79 973.424 1136.78C973.482 1136.77 973.545 1136.76 973.605 1136.75C973.66 1136.74 973.692 1136.75 973.684 1136.75L973.609 1142.75ZM975.612 1142.36C976.237 1142.12 976.722 1141.82 977.067 1141.57L973.541 1136.72C973.505 1136.74 973.494 1136.75 973.501 1136.74L975.612 1142.36ZM977.031 1141.6C976.752 1141.79 976.064 1142.2 975.094 1142.11C974.022 1142.01 973.325 1141.38 972.978 1140.9C972.667 1140.47 972.551 1140.06 972.504 1139.85C972.474 1139.72 972.388 1139.32 972.461 1138.8L978.403 1139.64C978.478 1139.11 978.391 1138.68 978.354 1138.52C978.301 1138.28 978.173 1137.85 977.844 1137.39C977.479 1136.88 976.756 1136.24 975.649 1136.13C974.644 1136.04 973.912 1136.46 973.577 1136.69L977.031 1141.6ZM972.482 1138.68C972.217 1140.11 972.336 1143.04 975.041 1144.39L977.728 1139.03C977.903 1139.11 978.056 1139.24 978.172 1139.39C978.282 1139.53 978.334 1139.65 978.356 1139.72C978.393 1139.83 978.368 1139.84 978.383 1139.76L972.482 1138.68ZM975.043 1144.39C976.584 1145.16 978.097 1144.92 979.146 1144.5C980.158 1144.09 980.96 1143.45 981.49 1142.91L977.241 1138.68C977.176 1138.74 977.1 1138.81 977.026 1138.86C976.99 1138.89 976.96 1138.9 976.938 1138.92C976.915 1138.93 976.904 1138.93 976.906 1138.93C976.908 1138.93 976.929 1138.92 976.968 1138.92C977.008 1138.91 977.069 1138.9 977.149 1138.9C977.324 1138.89 977.532 1138.93 977.726 1139.03L975.043 1144.39ZM981.487 1142.92C981.319 1143.09 981.006 1143.35 980.532 1143.54C980.037 1143.74 979.213 1143.9 978.312 1143.53C977.414 1143.16 976.955 1142.47 976.752 1142.01C976.559 1141.57 976.524 1141.2 976.516 1141.02L982.509 1140.74C982.497 1140.49 982.451 1140.06 982.24 1139.58C982.02 1139.08 981.537 1138.37 980.612 1137.99C979.684 1137.6 978.828 1137.76 978.3 1137.98C977.794 1138.18 977.447 1138.47 977.245 1138.67L981.487 1142.92ZM976.517 1141.05C976.568 1141.95 976.938 1142.98 977.722 1143.78L981.999 1139.57C982.196 1139.77 982.311 1139.97 982.378 1140.14C982.444 1140.29 982.495 1140.48 982.508 1140.71L976.517 1141.05ZM977.72 1143.78C978.955 1145.04 980.563 1145.12 981.672 1144.91C982.782 1144.69 983.794 1144.13 984.63 1143.47L980.925 1138.75C980.589 1139.02 980.433 1139.03 980.522 1139.02C980.578 1139.01 980.769 1138.98 981.049 1139.04C981.35 1139.11 981.703 1139.27 982.001 1139.58L977.72 1143.78ZM984.628 1143.47C985.624 1142.69 986.572 1141.67 987.362 1140.7L982.692 1136.93C982.06 1137.71 981.434 1138.35 980.927 1138.75L984.628 1143.47ZM987.398 1140.65C987.639 1140.34 987.986 1139.77 988.045 1138.97C988.113 1138.06 987.773 1137.22 987.225 1136.63L982.819 1140.7C982.321 1140.17 981.997 1139.39 982.062 1138.52C982.117 1137.78 982.441 1137.25 982.656 1136.97L987.398 1140.65ZM987.208 1136.61C987.065 1136.46 986.922 1136.33 986.85 1136.27C986.817 1136.24 986.762 1136.19 986.747 1136.17C986.72 1136.15 986.712 1136.14 986.712 1136.14L982.588 1140.5C982.642 1140.55 982.693 1140.6 982.729 1140.63C982.747 1140.64 982.766 1140.66 982.781 1140.68C982.796 1140.69 982.809 1140.7 982.821 1140.71C982.846 1140.73 982.859 1140.75 982.864 1140.75C982.871 1140.76 982.859 1140.75 982.836 1140.72L987.208 1136.61ZM986.6 1136.04C985.149 1134.8 983.454 1135.34 982.675 1135.93L986.301 1140.71C985.849 1141.05 985.309 1141.25 984.747 1141.29C984.15 1141.32 983.371 1141.17 982.7 1140.6L986.6 1136.04ZM982.405 1136.16C981.36 1137.17 981.131 1137.54 980.437 1138.03L983.875 1142.95C985.076 1142.11 986.158 1140.88 986.57 1140.48L982.405 1136.16ZM980.426 1138.04C980.505 1137.98 980.706 1137.85 981.07 1137.78C981.267 1137.75 981.647 1137.71 982.115 1137.84C982.636 1137.99 983.153 1138.31 983.523 1138.82L978.673 1142.35C979.747 1143.82 981.362 1143.83 982.116 1143.69C982.872 1143.56 983.486 1143.22 983.885 1142.94L980.426 1138.04ZM983.517 1138.81C983.936 1139.38 984.047 1139.99 984.035 1140.45C984.024 1140.84 983.921 1141.11 983.895 1141.18L978.318 1138.97C978.146 1139.4 977.62 1140.91 978.679 1142.36L983.517 1138.81ZM983.897 1141.17C983.832 1141.34 983.802 1141.36 983.981 1141.06C984.11 1140.83 984.29 1140.53 984.511 1140.17C984.952 1139.45 985.522 1138.55 986.099 1137.64C987.193 1135.91 988.432 1133.98 988.591 1133.7L983.38 1130.73C983.395 1130.7 983.351 1130.78 983.187 1131.04C983.048 1131.26 982.86 1131.55 982.636 1131.9C982.191 1132.6 981.611 1133.51 981.03 1134.43C980.45 1135.34 979.861 1136.28 979.396 1137.04C979.165 1137.41 978.956 1137.76 978.792 1138.04C978.678 1138.24 978.45 1138.63 978.316 1138.97L983.897 1141.17ZM988.609 1133.67C988.986 1132.99 989.351 1131.6 988.378 1130.32C987.555 1129.23 986.395 1129.1 985.897 1129.1V1135.1C985.485 1135.1 984.388 1134.99 983.598 1133.94C982.657 1132.7 983.024 1131.37 983.362 1130.76L988.609 1133.67ZM985.897 1129.1C985.67 1129.1 985.408 1129.1 985.146 1129.1C984.883 1129.1 984.62 1129.1 984.387 1129.1V1135.1C984.624 1135.1 984.89 1135.1 985.153 1135.1C985.416 1135.1 985.674 1135.1 985.897 1135.1V1129.1ZM978.847 1137.74C979.57 1138.12 979.876 1138.7 979.986 1138.97C980.104 1139.26 980.139 1139.53 980.135 1139.76L974.136 1139.65C974.127 1140.14 974.208 1140.69 974.431 1141.24C974.644 1141.76 975.112 1142.56 976.06 1143.06L978.847 1137.74ZM980.135 1139.75C980.133 1139.89 980.08 1139.77 980.392 1139.38L975.715 1135.62C974.85 1136.7 974.161 1138.07 974.136 1139.66L980.135 1139.75ZM980.395 1139.37C980.602 1139.12 980.697 1139.08 980.603 1139.13C980.55 1139.16 980.364 1139.26 980.06 1139.3C979.734 1139.35 979.263 1139.33 978.77 1139.09L981.402 1133.69C979.862 1132.94 978.416 1133.48 977.685 1133.89C976.885 1134.34 976.224 1134.98 975.712 1135.62L980.395 1139.37ZM978.777 1139.09C978.397 1138.9 977.995 1138.57 977.726 1138.07C977.474 1137.6 977.437 1137.17 977.442 1136.93C977.452 1136.52 977.58 1136.33 977.514 1136.47L982.91 1139.09C983.085 1138.73 983.42 1137.98 983.441 1137.07C983.452 1136.57 983.372 1135.9 983.009 1135.23C982.628 1134.52 982.045 1134.01 981.396 1133.69L978.777 1139.09ZM977.483 1136.53C977.19 1137.18 977.089 1137.97 977.335 1138.77L983.069 1137C983.168 1137.32 983.219 1137.69 983.187 1138.08C983.156 1138.46 983.052 1138.78 982.941 1139.03L977.483 1136.53ZM977.247 1138.4C977.427 1139.43 978.053 1140.03 978.311 1140.24C978.635 1140.52 978.984 1140.71 979.313 1140.83L981.373 1135.19C981.637 1135.29 981.92 1135.44 982.192 1135.67C982.399 1135.84 982.986 1136.39 983.157 1137.36L977.247 1138.4ZM979.257 1140.81C978.886 1140.66 977.773 1140.12 977.445 1138.71C977.202 1137.68 977.599 1136.89 977.643 1136.8L983.062 1139.38C983.132 1139.23 983.535 1138.41 983.287 1137.35C982.953 1135.92 981.823 1135.37 981.429 1135.21L979.257 1140.81ZM977.627 1136.84C977.562 1136.98 977.553 1136.98 977.263 1137.42L982.261 1140.74C982.437 1140.47 982.771 1140.01 983.078 1139.34L977.627 1136.84ZM977.257 1137.43C977.24 1137.45 977.226 1137.47 977.21 1137.49C977.193 1137.51 977.16 1137.54 977.095 1137.59L980.932 1142.21C981.405 1141.81 981.86 1141.35 982.267 1140.73L977.257 1137.43ZM977.084 1137.6C976.986 1137.68 976.963 1137.69 977.005 1137.67C977.032 1137.65 977.109 1137.61 977.23 1137.58C977.353 1137.54 977.553 1137.49 977.814 1137.49V1143.49C978.725 1143.49 979.452 1143.17 979.88 1142.94C980.333 1142.69 980.702 1142.4 980.943 1142.2L977.084 1137.6ZM977.814 1137.49C978.14 1137.49 978.513 1137.57 978.871 1137.76L976.035 1143.05C976.625 1143.36 977.24 1143.49 977.814 1143.49V1137.49ZM959.617 1125.06C957.834 1125.21 955.978 1125.8 954.486 1126.88C952.969 1127.97 951.625 1129.75 951.621 1132.14L957.621 1132.15C957.621 1132.14 957.618 1132.13 957.644 1132.09C957.679 1132.03 957.776 1131.9 957.995 1131.74C958.455 1131.41 959.223 1131.12 960.128 1131.04L959.617 1125.06ZM951.621 1132.14C951.615 1134.81 953.649 1137.35 956.829 1137.24L956.631 1131.25C956.802 1131.24 957.108 1131.32 957.356 1131.58C957.579 1131.81 957.621 1132.04 957.621 1132.15L951.621 1132.14ZM956.832 1137.24C960.005 1137.14 962.019 1134.66 962.892 1132.58L957.359 1130.26C957.18 1130.69 956.955 1130.98 956.776 1131.13C956.61 1131.28 956.562 1131.25 956.628 1131.25L956.832 1137.24ZM962.891 1132.58C963.265 1131.69 963.564 1129.82 962.007 1128.52C961.247 1127.89 960.228 1127.63 959.237 1127.85C958.263 1128.07 957.575 1128.68 957.174 1129.31L962.225 1132.55C961.932 1133.01 961.382 1133.52 960.546 1133.71C959.694 1133.9 958.814 1133.68 958.165 1133.13C956.828 1132.02 957.232 1130.56 957.359 1130.26L962.891 1132.58ZM957.168 1129.32C957.083 1129.45 956.957 1129.56 956.842 1129.62L959.512 1134.99C960.576 1134.46 961.541 1133.62 962.23 1132.54L957.168 1129.32ZM956.843 1129.62C956.926 1129.57 957.204 1129.46 957.655 1129.53C957.897 1129.58 958.217 1129.68 958.537 1129.92C958.87 1130.17 959.124 1130.51 959.27 1130.88L953.686 1133.07C954.252 1134.51 955.492 1135.25 956.639 1135.45C957.705 1135.63 958.718 1135.38 959.51 1134.99L956.843 1129.62ZM959.271 1130.88C959.567 1131.64 959.271 1132.15 959.227 1132.22C959.155 1132.33 959.167 1132.24 959.424 1132.14L957.298 1126.53C956.021 1127.01 954.929 1127.83 954.218 1128.91C953.536 1129.95 953.066 1131.49 953.685 1133.07L959.271 1130.88ZM959.415 1132.14C960.67 1131.67 962.028 1131.94 964.563 1132.43L965.687 1126.53C963.762 1126.17 960.483 1125.33 957.306 1126.53L959.415 1132.14ZM965.125 1132.48C964.414 1132.48 963.912 1132.22 963.803 1132.17C963.594 1132.06 963.257 1131.86 962.938 1131.49C962.639 1131.15 961.996 1130.21 962.283 1128.91C962.558 1127.67 963.464 1127.11 963.761 1126.95L966.582 1132.25C966.931 1132.06 967.862 1131.48 968.142 1130.21C968.436 1128.88 967.781 1127.92 967.461 1127.55C967.122 1127.16 966.755 1126.94 966.519 1126.82C966.381 1126.75 965.853 1126.48 965.125 1126.48V1132.48ZM963.722 1126.98C963.383 1127.16 962.692 1127.49 961.793 1128.28L965.739 1132.8C965.923 1132.64 966.043 1132.55 966.129 1132.5C966.179 1132.47 966.234 1132.44 966.311 1132.4C966.351 1132.37 966.391 1132.35 966.445 1132.32C966.495 1132.3 966.556 1132.26 966.62 1132.23L963.722 1126.98ZM961.799 1128.27C961.372 1128.64 960.603 1129.31 959.968 1130.1L964.644 1133.86C964.899 1133.54 965.281 1133.2 965.733 1132.8L961.799 1128.27ZM959.974 1130.09C959.698 1130.43 959.469 1130.75 959.277 1131.02C959.076 1131.29 958.93 1131.5 958.759 1131.72L963.516 1135.38C963.759 1135.06 963.977 1134.76 964.146 1134.52C964.325 1134.27 964.473 1134.07 964.638 1133.87L959.974 1130.09ZM958.713 1131.78C959.075 1131.29 959.562 1130.96 960.05 1130.79C960.279 1130.71 960.494 1130.67 960.678 1130.64C960.771 1130.63 960.859 1130.63 960.942 1130.63C960.983 1130.63 961.025 1130.63 961.069 1130.63C961.089 1130.63 961.115 1130.63 961.147 1130.63C961.154 1130.63 961.194 1130.63 961.244 1130.63C961.257 1130.64 961.292 1130.64 961.336 1130.64C961.36 1130.65 961.422 1130.65 961.459 1130.66C961.531 1130.67 961.78 1130.73 961.956 1130.78C962.934 1131.32 963.821 1134.67 962.063 1136.43C961.751 1136.53 961.331 1136.61 961.23 1136.62C961.11 1136.63 961.012 1136.63 961.01 1136.63V1130.63C961.008 1130.63 960.91 1130.62 960.79 1130.63C960.69 1130.64 960.269 1130.72 959.957 1130.82C958.199 1132.58 959.086 1135.93 960.064 1136.47C960.24 1136.53 960.49 1136.58 960.561 1136.59C960.599 1136.6 960.66 1136.61 960.685 1136.61C960.729 1136.61 960.763 1136.62 960.776 1136.62C960.826 1136.62 960.866 1136.62 960.874 1136.62C960.905 1136.62 960.932 1136.62 960.953 1136.63C960.997 1136.63 961.041 1136.63 961.084 1136.62C961.171 1136.62 961.265 1136.62 961.365 1136.61C961.564 1136.58 961.8 1136.54 962.054 1136.45C962.592 1136.25 963.143 1135.89 963.562 1135.32L958.713 1131.78ZM960.503 1130.67C959.731 1130.8 957.958 1130.99 956.379 1132.1L959.838 1137C959.924 1136.94 960.046 1136.88 960.296 1136.81C960.609 1136.73 960.904 1136.69 961.517 1136.58L960.503 1130.67ZM956.387 1132.1C955.363 1132.81 954.162 1134.73 955.426 1136.71L960.481 1133.48C960.955 1134.22 960.981 1135.05 960.787 1135.68C960.604 1136.28 960.233 1136.73 959.829 1137.01L956.387 1132.1ZM955.43 1136.72C956.724 1138.73 959.087 1138.41 960.232 1137.56L956.668 1132.74C957.182 1132.36 957.821 1132.18 958.471 1132.24C959.14 1132.31 959.954 1132.66 960.477 1133.47L955.43 1136.72ZM960.262 1137.54C960.296 1137.51 960.315 1137.5 960.322 1137.5C960.329 1137.5 960.327 1137.5 960.319 1137.5C960.311 1137.5 960.305 1137.5 960.303 1137.5C960.302 1137.5 960.312 1137.5 960.338 1137.5L960.171 1131.5C958.868 1131.54 957.688 1131.96 956.638 1132.76L960.262 1137.54ZM960.055 1137.5C960.029 1137.49 959.56 1137.48 959.031 1137.23C958.72 1137.09 958.403 1136.88 958.122 1136.58C957.849 1136.29 957.679 1136 957.573 1135.77L963.038 1133.29C962.777 1132.72 962.293 1132.13 961.545 1131.79C961 1131.53 960.51 1131.51 960.454 1131.51L960.055 1137.5ZM957.637 1135.9C957.404 1135.45 957.336 1135.03 957.316 1134.76C957.295 1134.48 957.317 1134.22 957.355 1134.01C957.429 1133.61 957.596 1133.18 957.886 1132.79L962.705 1136.36C963.008 1135.95 963.182 1135.51 963.259 1135.09C963.317 1134.76 963.404 1133.99 962.974 1133.16L957.637 1135.9ZM957.851 1132.84C956.893 1134.18 956.703 1134.42 956.033 1135.2L960.577 1139.12C961.403 1138.16 961.71 1137.76 962.741 1136.31L957.851 1132.84ZM956.028 1135.2C955.741 1135.54 955.45 1135.83 955.082 1136.18L959.171 1140.57C959.643 1140.13 960.104 1139.67 960.582 1139.11L956.028 1135.2ZM955.069 1136.19C954.597 1136.63 954.319 1136.65 954.376 1136.64C954.408 1136.64 954.557 1136.63 954.775 1136.72C955.004 1136.82 955.265 1137 955.459 1137.3L950.435 1140.58C951.52 1142.24 953.365 1142.76 954.915 1142.62C956.473 1142.48 957.957 1141.71 959.184 1140.55L955.069 1136.19ZM955.461 1137.3C955.576 1137.48 955.659 1137.73 955.662 1137.99C955.665 1138.24 955.602 1138.41 955.558 1138.5L950.17 1135.86C949.549 1137.13 949.35 1138.91 950.433 1140.58L955.461 1137.3ZM955.557 1138.5C955.524 1138.57 955.494 1138.61 955.484 1138.62C955.475 1138.63 955.478 1138.63 955.501 1138.61C955.524 1138.59 955.557 1138.56 955.6 1138.53C955.642 1138.51 955.687 1138.48 955.73 1138.46L952.967 1133.13C952.192 1133.53 950.896 1134.38 950.171 1135.86L955.557 1138.5ZM955.726 1138.46C956.667 1137.97 957.35 1137.05 957.498 1135.95C957.645 1134.85 957.238 1133.91 956.696 1133.27L952.115 1137.14C951.77 1136.73 951.433 1136.03 951.551 1135.15C951.672 1134.25 952.228 1133.51 952.971 1133.13L955.726 1138.46ZM956.716 1133.29C955.988 1132.41 955.042 1132.18 954.619 1132.11C954.114 1132.02 953.621 1132.04 953.193 1132.12L954.306 1138.02C954.104 1138.05 953.876 1138.07 953.611 1138.02C953.47 1138 953.257 1137.95 953.01 1137.83C952.764 1137.71 952.412 1137.5 952.095 1137.12L956.716 1133.29ZM953.197 1132.12C951.675 1132.4 950.229 1133.41 949.354 1134.56L954.139 1138.18C954.137 1138.18 954.151 1138.17 954.186 1138.13C954.22 1138.1 954.261 1138.07 954.305 1138.04C954.349 1138.01 954.381 1138 954.394 1137.99C954.41 1137.99 954.38 1138 954.301 1138.02L953.197 1132.12ZM949.357 1134.56C948.368 1135.86 947.867 1137.48 948.03 1139.23L954.004 1138.67C953.993 1138.54 954.006 1138.46 954.023 1138.4C954.041 1138.34 954.073 1138.27 954.136 1138.19L949.357 1134.56ZM948.03 1139.23C948.366 1142.82 951.372 1144.75 954.273 1144.73L954.228 1138.73C954.035 1138.73 953.966 1138.67 953.979 1138.68C953.987 1138.69 954.001 1138.7 954.011 1138.72C954.022 1138.74 954.01 1138.73 954.004 1138.67L948.03 1139.23ZM954.274 1144.73C955.247 1144.72 956.3 1144.56 957.403 1144.07C958.485 1143.59 959.463 1142.86 960.396 1141.89L956.091 1137.72C955.553 1138.27 955.184 1138.49 954.962 1138.59C954.761 1138.68 954.553 1138.73 954.227 1138.73L954.274 1144.73ZM960.397 1141.89C962.065 1140.17 963.504 1137.71 964.61 1135.86L959.46 1132.78C958.226 1134.85 957.165 1136.61 956.091 1137.72L960.397 1141.89ZM964.621 1135.84C964.618 1135.85 964.591 1135.89 964.552 1135.95C964.51 1136.02 964.443 1136.11 964.352 1136.22C964.149 1136.46 963.893 1136.68 963.588 1136.86C963.31 1137.01 963.066 1137.09 962.922 1137.13C962.781 1137.16 962.679 1137.18 962.651 1137.18L961.9 1131.23C961.74 1131.25 961.191 1131.32 960.617 1131.64C959.861 1132.07 959.514 1132.69 959.449 1132.8L964.621 1135.84ZM962.653 1137.18C963.334 1137.09 964.349 1137 964.963 1136.96L964.612 1130.97C963.836 1131.02 962.684 1131.13 961.897 1131.23L962.653 1137.18ZM964.948 1136.96C965.001 1136.96 964.941 1136.96 964.86 1136.96C964.777 1136.96 964.515 1136.96 964.186 1136.87C963.801 1136.77 963.445 1136.59 963.139 1136.35C962.879 1136.15 962.722 1135.95 962.681 1135.9L967.389 1132.18C967.209 1131.95 966.678 1131.32 965.706 1131.07C965.342 1130.97 965.039 1130.96 964.905 1130.96C964.773 1130.96 964.651 1130.97 964.627 1130.97L964.948 1136.96ZM962.673 1135.89C963.184 1136.54 963.824 1136.97 964.267 1137.22L967.143 1131.95C967.177 1131.97 967.197 1131.98 967.217 1132C967.229 1132.01 967.25 1132.03 967.278 1132.05C967.305 1132.08 967.347 1132.12 967.397 1132.19L962.673 1135.89ZM964.249 1137.21C964.264 1137.21 964.323 1137.25 964.383 1137.28C964.447 1137.31 964.561 1137.37 964.705 1137.43C965.054 1137.57 965.446 1137.66 965.875 1137.67L966.015 1131.67C966.165 1131.68 966.334 1131.69 966.515 1131.73C966.695 1131.77 966.846 1131.82 966.963 1131.87C967.07 1131.91 967.146 1131.95 967.169 1131.97C967.187 1131.98 967.2 1131.98 967.162 1131.96L964.249 1137.21ZM965.888 1137.67C967.191 1137.7 968.05 1136.98 968.44 1136.53L963.92 1132.59C964.207 1132.26 964.905 1131.65 966.002 1131.67L965.888 1137.67ZM968.412 1136.56C969.015 1135.89 969.742 1134.38 968.834 1132.8L963.635 1135.8C963.208 1135.06 963.209 1134.32 963.31 1133.83C963.414 1133.32 963.652 1132.88 963.948 1132.55L968.412 1136.56ZM968.839 1132.81C968.737 1132.63 968.635 1132.5 968.565 1132.41C968.492 1132.32 968.425 1132.25 968.375 1132.2C968.277 1132.1 968.19 1132.02 968.139 1131.98C968.036 1131.89 967.943 1131.82 967.899 1131.79C967.848 1131.75 967.797 1131.72 967.767 1131.7C967.729 1131.67 967.71 1131.66 967.69 1131.64C967.671 1131.63 967.667 1131.63 967.673 1131.63C967.676 1131.63 967.708 1131.66 967.757 1131.7C967.782 1131.72 967.82 1131.76 967.866 1131.8C967.91 1131.85 967.977 1131.92 968.052 1132.01C968.123 1132.1 968.236 1132.25 968.346 1132.45C968.451 1132.65 968.611 1133 968.67 1133.47L962.717 1134.22C962.779 1134.71 962.944 1135.07 963.057 1135.29C963.176 1135.51 963.301 1135.67 963.387 1135.78C963.554 1135.99 963.716 1136.14 963.8 1136.21C963.973 1136.36 964.147 1136.48 964.218 1136.53C964.261 1136.57 964.306 1136.6 964.33 1136.61C964.344 1136.62 964.354 1136.63 964.361 1136.64C964.369 1136.64 964.371 1136.64 964.369 1136.64C964.368 1136.64 964.358 1136.63 964.343 1136.62C964.329 1136.61 964.299 1136.59 964.26 1136.55C964.226 1136.53 964.154 1136.46 964.068 1136.37C964.005 1136.31 963.81 1136.11 963.63 1135.79L968.839 1132.81ZM968.659 1133.39C968.745 1133.95 968.669 1134.56 968.396 1135.12C968.138 1135.65 967.78 1135.99 967.511 1136.19C967.246 1136.38 967 1136.5 966.841 1136.56C966.756 1136.59 966.678 1136.62 966.611 1136.64C966.577 1136.65 966.545 1136.66 966.514 1136.66C966.499 1136.67 966.484 1136.67 966.47 1136.68C966.463 1136.68 966.455 1136.68 966.448 1136.68C966.445 1136.68 966.441 1136.68 966.438 1136.68C966.436 1136.68 966.434 1136.68 966.433 1136.68C966.432 1136.68 966.43 1136.68 966.43 1136.68C966.429 1136.68 966.427 1136.69 965.758 1133.76C965.088 1130.84 965.086 1130.84 965.085 1130.84C965.085 1130.84 965.083 1130.84 965.083 1130.84C965.081 1130.84 965.079 1130.84 965.077 1130.84C965.074 1130.84 965.07 1130.84 965.067 1130.84C965.06 1130.84 965.052 1130.84 965.045 1130.85C965.03 1130.85 965.015 1130.85 964.999 1130.86C964.968 1130.87 964.934 1130.88 964.898 1130.89C964.827 1130.91 964.743 1130.94 964.651 1130.97C964.479 1131.04 964.215 1131.16 963.932 1131.37C963.277 1131.86 962.511 1132.89 962.729 1134.3L968.659 1133.39ZM966.667 1136.62C967.58 1136.33 968.699 1135.67 969.376 1134.35L964.041 1131.61C964.143 1131.41 964.291 1131.24 964.454 1131.11C964.609 1130.99 964.751 1130.93 964.848 1130.9L966.667 1136.62ZM969.378 1134.35C969.853 1133.42 970.517 1130.96 968.421 1129.3L964.7 1134.01C964.109 1133.54 963.9 1132.9 963.874 1132.45C963.851 1132.06 963.952 1131.78 964.039 1131.61L969.378 1134.35ZM968.423 1129.31C966.635 1127.89 964.449 1128.48 963.226 1129.59L967.264 1134.03C966.895 1134.36 965.78 1134.87 964.699 1134.01L968.423 1129.31ZM963.233 1129.58C961.953 1130.74 961.621 1132.33 961.766 1133.57L967.725 1132.87C967.758 1133.14 967.702 1133.63 967.257 1134.04L963.233 1129.58ZM961.766 1133.56C961.765 1133.56 961.76 1133.51 961.755 1133.45C961.751 1133.38 961.745 1133.26 961.754 1133.11C961.77 1132.8 961.855 1132.16 962.328 1131.52C962.808 1130.87 963.412 1130.6 963.758 1130.48C964.072 1130.38 964.324 1130.36 964.379 1130.35L964.9 1136.33C965.011 1136.32 965.305 1136.29 965.652 1136.17C966.029 1136.05 966.655 1135.76 967.148 1135.09C967.635 1134.44 967.726 1133.77 967.744 1133.44C967.761 1133.14 967.728 1132.89 967.726 1132.87L961.766 1133.56ZM964.4 1130.35C963.806 1130.4 963.313 1130.41 962.53 1130.45L962.852 1136.44C963.445 1136.41 964.188 1136.38 964.879 1136.33L964.4 1130.35ZM962.466 1130.45C962.957 1130.42 964.482 1130.49 965.295 1132.02C966.114 1133.56 965.317 1134.88 964.96 1135.31L960.355 1131.46C959.971 1131.92 959.167 1133.28 959.999 1134.84C960.824 1136.39 962.379 1136.48 962.917 1136.44L962.466 1130.45ZM965.267 1134.87C965.731 1134.05 966.472 1133.37 967.738 1132.42L964.142 1127.62C962.792 1128.63 961.168 1129.93 960.048 1131.91L965.267 1134.87ZM967.75 1132.41C968.781 1131.63 968.962 1130.55 968.995 1130.09C969.011 1129.87 969 1129.68 968.996 1129.62C968.988 1129.49 968.994 1129.6 968.995 1129.62L962.998 1129.82C963.001 1129.89 963.011 1130.06 963.007 1129.98C963.006 1129.98 962.997 1129.85 963.009 1129.67C963.034 1129.32 963.185 1128.34 964.13 1127.62L967.75 1132.41ZM965.351 1132.65C966.496 1132.9 967.329 1133.19 968.756 1133.56C970.019 1133.89 971.5 1134.2 973.117 1134.19L973.066 1128.19C972.232 1128.2 971.348 1128.04 970.266 1127.75C969.348 1127.52 967.859 1127.06 966.642 1126.79L965.351 1132.65ZM973.116 1134.19C974.427 1134.18 975.945 1133.97 977.46 1133.13L974.544 1127.89C974.205 1128.08 973.783 1128.18 973.067 1128.19L973.116 1134.19ZM977.455 1133.13C978.458 1132.58 980.051 1131.45 980.168 1129.38L974.178 1129.04C974.192 1128.78 974.253 1128.54 974.349 1128.32C974.442 1128.11 974.55 1127.96 974.624 1127.88C974.753 1127.73 974.795 1127.75 974.549 1127.88L977.455 1133.13ZM980.167 1129.39C980.221 1128.53 979.96 1127.44 979.054 1126.63C978.126 1125.79 976.965 1125.65 976.052 1125.85L977.336 1131.71C976.715 1131.85 975.803 1131.77 975.046 1131.09C974.311 1130.43 974.144 1129.58 974.179 1129.02L980.167 1129.39ZM976.013 1125.86C973.976 1126.34 971.986 1126.35 969.759 1126.07L969.028 1132.03C971.726 1132.36 974.46 1132.38 977.375 1131.7L976.013 1125.86ZM969.76 1126.07C968.431 1125.91 967.223 1125.67 965.733 1125.43C964.319 1125.21 962.765 1125 961.133 1125V1131C962.281 1131 963.46 1131.15 964.782 1131.36C966.027 1131.56 967.56 1131.85 969.026 1132.03L969.76 1126.07ZM961.133 1125C960.64 1125 960.137 1125.02 959.622 1125.06L960.124 1131.04C960.454 1131.01 960.79 1131 961.133 1131V1125ZM968.374 1132.63C968.454 1133.22 968.284 1133.9 967.733 1134.39L963.728 1129.93C962.617 1130.92 962.276 1132.31 962.428 1133.43L968.374 1132.63ZM967.734 1134.39C967.405 1134.69 966.937 1134.95 966.347 1135.02C965.737 1135.1 964.907 1134.98 964.205 1134.37L968.149 1129.85C966.437 1128.35 964.481 1129.25 963.727 1129.93L967.734 1134.39ZM964.214 1134.37C963.115 1133.42 963.239 1132.19 963.274 1131.95C963.33 1131.56 963.47 1131.25 963.625 1131.02L968.604 1134.37C968.891 1133.94 969.127 1133.4 969.214 1132.79C969.281 1132.33 969.37 1130.9 968.141 1129.84L964.214 1134.37ZM963.622 1131.03C963.751 1130.83 963.899 1130.69 964.053 1130.57C964.194 1130.47 964.476 1130.29 964.907 1130.2L966.1 1136.08C967.285 1135.84 968.142 1135.06 968.607 1134.37L963.622 1131.03ZM964.952 1130.19C965.177 1130.15 965.364 1130.14 965.485 1130.14V1136.14C965.618 1136.14 965.818 1136.14 966.056 1136.09L964.952 1130.19ZM965.485 1130.14C965.836 1130.14 966.262 1130.21 966.703 1130.41C967.148 1130.61 967.495 1130.9 967.748 1131.21C968.204 1131.76 968.319 1132.31 968.349 1132.48L962.453 1133.59C962.5 1133.84 962.638 1134.44 963.123 1135.03C963.742 1135.78 964.628 1136.14 965.485 1136.14V1130.14Z" fill="black" mask="url(#path-82-outside-47_0_1)"/>
    </g>
  </g>
</svg>