<?xml version="1.0" encoding="UTF-8" standalone="yes"?>
<svg width="119" height="119" viewBox="0 0 119 119" fill="none" xmlns="http://www.w3.org/2000/svg">
  <g id="Generic_S" transform="translate(-656.5 -1424.5)">
    <g id="Frame 13_2">
      <g id="Vector_41">
        <mask id="path-103-outside-58_0_1" maskUnits="userSpaceOnUse" x="691" y="1469.3" width="51" height="29" fill="black">
          <rect fill="white" x="691" y="1469.3" width="51" height="29"/>
          <path d="M720.89 1472.3C720.667 1472.3 720.429 1472.4 720.257 1472.57L715.408 1477.35C715.063 1477.69 715.063 1478.23 715.408 1478.57C715.58 1478.74 715.814 1478.81 716.041 1478.81C716.269 1478.81 716.503 1478.74 716.675 1478.57L718.466 1476.81L721.662 1479.95C720.264 1480.82 717.908 1481.8 714.278 1481.8C708.671 1481.8 706.112 1479.53 705.461 1478.84V1478.03C705.461 1476.9 705.141 1475.87 704.525 1474.96L703.56 1473.49C703.295 1473.09 702.758 1472.96 702.348 1473.22C701.938 1473.48 701.807 1474.01 702.073 1474.42L703.064 1475.91C703.498 1476.55 703.698 1477.24 703.698 1478.03V1478.33H698.684C697.062 1478.33 695.791 1479.57 695.791 1481.18V1485.35C696.101 1485.28 696.4 1485.25 696.728 1485.25H697.885C699.101 1484.14 700.698 1483.51 702.376 1483.51C704.053 1483.51 705.651 1484.14 706.867 1485.25H725.216C726.432 1484.14 728.03 1483.51 729.707 1483.51C731.384 1483.51 732.982 1484.14 734.198 1485.25H735.272C735.479 1485.25 735.679 1485.27 735.879 1485.3C733.847 1481.37 725.312 1478.68 724.224 1478.35C723.883 1478.25 723.508 1478.37 723.287 1478.65C723.284 1478.65 723.194 1478.74 723.067 1478.87L719.733 1475.58L721.524 1473.79C721.869 1473.45 721.869 1472.91 721.524 1472.57C721.352 1472.4 721.114 1472.3 720.89 1472.3ZM702.376 1485.25C700.874 1485.25 699.521 1485.92 698.629 1486.98H696.728C695.247 1486.98 694 1488.25 694 1489.75V1490.38C694 1491.81 695.271 1493.06 696.728 1493.06H698.629C699.521 1494.12 700.874 1494.8 702.376 1494.8C703.877 1494.8 705.231 1494.12 706.123 1493.06H725.96C726.852 1494.12 728.205 1494.8 729.707 1494.8C731.209 1494.8 732.562 1494.12 733.454 1493.06H733.867C734.002 1493.06 734.139 1493.04 734.253 1492.98H735.272C736.781 1492.98 738 1491.78 738 1490.29V1489.67C738 1488.19 736.781 1486.98 735.272 1486.98H733.454C732.562 1485.92 731.209 1485.25 729.707 1485.25C728.205 1485.25 726.852 1485.92 725.96 1486.98H706.123C705.231 1485.92 703.877 1485.25 702.376 1485.25ZM702.376 1486.98C704.077 1486.98 705.461 1488.35 705.461 1490.02C705.461 1491.7 704.077 1493.06 702.376 1493.06C700.674 1493.06 699.29 1491.7 699.29 1490.02C699.29 1488.35 700.674 1486.98 702.376 1486.98ZM729.707 1486.98C731.408 1486.98 732.793 1488.35 732.793 1490.02C732.793 1491.7 731.408 1493.06 729.707 1493.06C728.006 1493.06 726.621 1491.7 726.621 1490.02C726.621 1488.35 728.006 1486.98 729.707 1486.98Z"/>
        </mask>
        <path d="M720.89 1472.3C720.667 1472.3 720.429 1472.4 720.257 1472.57L715.408 1477.35C715.063 1477.69 715.063 1478.23 715.408 1478.57C715.58 1478.74 715.814 1478.81 716.041 1478.81C716.269 1478.81 716.503 1478.74 716.675 1478.57L718.466 1476.81L721.662 1479.95C720.264 1480.82 717.908 1481.8 714.278 1481.8C708.671 1481.8 706.112 1479.53 705.461 1478.84V1478.03C705.461 1476.9 705.141 1475.87 704.525 1474.96L703.56 1473.49C703.295 1473.09 702.758 1472.96 702.348 1473.22C701.938 1473.48 701.807 1474.01 702.073 1474.42L703.064 1475.91C703.498 1476.55 703.698 1477.24 703.698 1478.03V1478.33H698.684C697.062 1478.33 695.791 1479.57 695.791 1481.18V1485.35C696.101 1485.28 696.4 1485.25 696.728 1485.25H697.885C699.101 1484.14 700.698 1483.51 702.376 1483.51C704.053 1483.51 705.651 1484.14 706.867 1485.25H725.216C726.432 1484.14 728.03 1483.51 729.707 1483.51C731.384 1483.51 732.982 1484.14 734.198 1485.25H735.272C735.479 1485.25 735.679 1485.27 735.879 1485.3C733.847 1481.37 725.312 1478.68 724.224 1478.35C723.883 1478.25 723.508 1478.37 723.287 1478.65C723.284 1478.65 723.194 1478.74 723.067 1478.87L719.733 1475.58L721.524 1473.79C721.869 1473.45 721.869 1472.91 721.524 1472.57C721.352 1472.4 721.114 1472.3 720.89 1472.3ZM702.376 1485.25C700.874 1485.25 699.521 1485.92 698.629 1486.98H696.728C695.247 1486.98 694 1488.25 694 1489.75V1490.38C694 1491.81 695.271 1493.06 696.728 1493.06H698.629C699.521 1494.12 700.874 1494.8 702.376 1494.8C703.877 1494.8 705.231 1494.12 706.123 1493.06H725.96C726.852 1494.12 728.205 1494.8 729.707 1494.8C731.209 1494.8 732.562 1494.12 733.454 1493.06H733.867C734.002 1493.06 734.139 1493.04 734.253 1492.98H735.272C736.781 1492.98 738 1491.78 738 1490.29V1489.67C738 1488.19 736.781 1486.98 735.272 1486.98H733.454C732.562 1485.92 731.209 1485.25 729.707 1485.25C728.205 1485.25 726.852 1485.92 725.96 1486.98H706.123C705.231 1485.92 703.877 1485.25 702.376 1485.25ZM702.376 1486.98C704.077 1486.98 705.461 1488.35 705.461 1490.02C705.461 1491.7 704.077 1493.06 702.376 1493.06C700.674 1493.06 699.29 1491.7 699.29 1490.02C699.29 1488.35 700.674 1486.98 702.376 1486.98ZM729.707 1486.98C731.408 1486.98 732.793 1488.35 732.793 1490.02C732.793 1491.7 731.408 1493.06 729.707 1493.06C728.006 1493.06 726.621 1491.7 726.621 1490.02C726.621 1488.35 728.006 1486.98 729.707 1486.98Z" fill="white"/>
        <path d="M720.89 1472.3C720.667 1472.3 720.429 1472.4 720.257 1472.57L715.408 1477.35C715.063 1477.69 715.063 1478.23 715.408 1478.57C715.58 1478.74 715.814 1478.81 716.041 1478.81C716.269 1478.81 716.503 1478.74 716.675 1478.57L718.466 1476.81L721.662 1479.95C720.264 1480.82 717.908 1481.8 714.278 1481.8C708.671 1481.8 706.112 1479.53 705.461 1478.84V1478.03C705.461 1476.9 705.141 1475.87 704.525 1474.96L703.56 1473.49C703.295 1473.09 702.758 1472.96 702.348 1473.22C701.938 1473.48 701.807 1474.01 702.073 1474.42L703.064 1475.91C703.498 1476.55 703.698 1477.24 703.698 1478.03V1478.33H698.684C697.062 1478.33 695.791 1479.57 695.791 1481.18V1485.35C696.101 1485.28 696.4 1485.25 696.728 1485.25H697.885C699.101 1484.14 700.698 1483.51 702.376 1483.51C704.053 1483.51 705.651 1484.14 706.867 1485.25H725.216C726.432 1484.14 728.03 1483.51 729.707 1483.51C731.384 1483.51 732.982 1484.14 734.198 1485.25H735.272C735.479 1485.25 735.679 1485.27 735.879 1485.3C733.847 1481.37 725.312 1478.68 724.224 1478.35C723.883 1478.25 723.508 1478.37 723.287 1478.65C723.284 1478.65 723.194 1478.74 723.067 1478.87L719.733 1475.58L721.524 1473.79C721.869 1473.45 721.869 1472.91 721.524 1472.57C721.352 1472.4 721.114 1472.3 720.89 1472.3ZM702.376 1485.25C700.874 1485.25 699.521 1485.92 698.629 1486.98H696.728C695.247 1486.98 694 1488.25 694 1489.75V1490.38C694 1491.81 695.271 1493.06 696.728 1493.06H698.629C699.521 1494.12 700.874 1494.8 702.376 1494.8C703.877 1494.8 705.231 1494.12 706.123 1493.06H725.96C726.852 1494.12 728.205 1494.8 729.707 1494.8C731.209 1494.8 732.562 1494.12 733.454 1493.06H733.867C734.002 1493.06 734.139 1493.04 734.253 1492.98H735.272C736.781 1492.98 738 1491.78 738 1490.29V1489.67C738 1488.19 736.781 1486.98 735.272 1486.98H733.454C732.562 1485.92 731.209 1485.25 729.707 1485.25C728.205 1485.25 726.852 1485.92 725.96 1486.98H706.123C705.231 1485.92 703.877 1485.25 702.376 1485.25ZM702.376 1486.98C704.077 1486.98 705.461 1488.35 705.461 1490.02C705.461 1491.7 704.077 1493.06 702.376 1493.06C700.674 1493.06 699.29 1491.7 699.29 1490.02C699.29 1488.35 700.674 1486.98 702.376 1486.98ZM729.707 1486.98C731.408 1486.98 732.793 1488.35 732.793 1490.02C732.793 1491.7 731.408 1493.06 729.707 1493.06C728.006 1493.06 726.621 1491.7 726.621 1490.02C726.621 1488.35 728.006 1486.98 729.707 1486.98Z" stroke="black" stroke-width="6" mask="url(#path-103-outside-58_0_1)"/>
      </g>
    </g>
  </g>
</svg>