<?xml version="1.0" encoding="UTF-8" standalone="yes"?>
<svg width="120" height="120" viewBox="0 0 120 120" fill="none" xmlns="http://www.w3.org/2000/svg">
  <g id="Generic">
    <g id="Frame 13_2">
      <path id="Vector_14" d="M841.335 631C841.091 631 840.832 631.113 840.644 631.302L835.354 636.609C834.978 636.986 834.978 637.589 835.354 637.966C835.542 638.155 835.797 638.238 836.045 638.238C836.293 638.238 836.549 638.155 836.736 637.966L838.69 636.006L842.177 639.504C840.651 640.465 838.081 641.555 834.121 641.555C828.005 641.555 825.214 639.029 824.503 638.268V637.363C824.503 636.112 824.154 634.969 823.482 633.955L822.43 632.327C822.14 631.882 821.554 631.735 821.107 632.025C820.66 632.316 820.517 632.904 820.807 633.352L821.889 635.011C822.362 635.723 822.58 636.489 822.58 637.363V637.695H817.11C815.34 637.695 813.954 639.082 813.954 640.861V645.505C814.292 645.426 814.619 645.385 814.976 645.385H816.238C817.564 644.152 819.307 643.455 821.137 643.455C822.967 643.455 824.71 644.152 826.036 645.385H846.054C847.38 644.152 849.123 643.455 850.953 643.455C852.783 643.455 854.526 644.152 855.852 645.385H857.024C857.25 645.385 857.468 645.415 857.686 645.445C855.469 641.072 846.159 638.091 844.972 637.725C844.6 637.608 844.19 637.744 843.95 638.057C843.946 638.06 843.848 638.155 843.709 638.298L840.073 634.649L842.026 632.659C842.402 632.282 842.402 631.679 842.026 631.302C841.838 631.113 841.579 631 841.335 631ZM821.137 645.385C819.499 645.385 818.023 646.135 817.049 647.315H814.976C813.36 647.315 812 648.717 812 650.391V651.084C812 652.679 813.386 654.07 814.976 654.07H817.049C818.023 655.25 819.499 656 821.137 656C822.775 656 824.252 655.25 825.225 654.07H846.865C847.838 655.25 849.315 656 850.953 656C852.591 656 854.068 655.25 855.041 654.07H855.492C855.638 654.07 855.788 654.04 855.912 653.979H857.024C858.67 653.979 860 652.645 860 650.994V650.3C860 648.653 858.67 647.315 857.024 647.315H855.041C854.068 646.135 852.591 645.385 850.953 645.385C849.315 645.385 847.838 646.135 846.865 647.315H825.225C824.252 646.135 822.775 645.385 821.137 645.385ZM821.137 647.315C822.993 647.315 824.503 648.83 824.503 650.692C824.503 652.555 822.993 654.07 821.137 654.07C819.281 654.07 817.771 652.555 817.771 650.692C817.771 648.83 819.281 647.315 821.137 647.315ZM850.953 647.315C852.809 647.315 854.319 648.83 854.319 650.692C854.319 652.555 852.809 654.07 850.953 654.07C849.097 654.07 847.587 652.555 847.587 650.692C847.587 648.83 849.097 647.315 850.953 647.315Z" fill="white"/>
    </g>
  </g>
</svg>