<?xml version="1.0" encoding="UTF-8" standalone="yes"?>
<svg width="119" height="119" viewBox="0 0 119 119" fill="none" xmlns="http://www.w3.org/2000/svg">
  <g id="Generic_XL" transform="translate(-776.5 -1304.5)">
    <g id="Vector_39">
      <mask id="path-99-outside-56_0_1" maskUnits="userSpaceOnUse" x="812" y="1345" width="48" height="38" fill="black">
        <rect fill="white" x="812" y="1345" width="48" height="38"/>
        <path d="M817.389 1348C816.07 1348 815 1349.1 815 1350.46V1373.08C815 1374.44 816.201 1375.68 817.52 1375.68H820.959C821.359 1378.13 823.426 1380 825.92 1380C828.414 1380 830.481 1378.13 830.881 1375.68H838.651C839.967 1375.68 841.04 1374.57 841.04 1373.22V1350.51C841.04 1349.13 839.98 1348 838.677 1348H817.389ZM842.72 1354.05V1375.68C843.124 1378.13 845.266 1380 847.76 1380C850.254 1380 852.321 1378.13 852.721 1375.68H854.48C855.799 1375.68 857 1374.44 857 1373.08V1364.76C857 1363.02 855.783 1361.24 855.635 1361.03L852.144 1356.22C851.343 1355.22 850.086 1354.05 848.6 1354.05H842.72ZM846.92 1358.38H851.619L854.296 1362.05C854.582 1362.47 855.32 1363.74 855.32 1364.76V1365.3H846.92C846.08 1365.3 845.24 1364.43 845.24 1363.57V1360.11C845.24 1359.15 846.08 1358.38 846.92 1358.38ZM825.92 1371.35C827.774 1371.35 829.28 1372.9 829.28 1374.81C829.28 1376.72 827.774 1378.27 825.92 1378.27C824.066 1378.27 822.56 1376.72 822.56 1374.81C822.56 1372.9 824.066 1371.35 825.92 1371.35ZM847.76 1371.35C849.614 1371.35 851.12 1372.9 851.12 1374.81C851.12 1376.72 849.614 1378.27 847.76 1378.27C845.906 1378.27 844.4 1376.72 844.4 1374.81C844.4 1372.9 845.906 1371.35 847.76 1371.35Z"/>
      </mask>
      <path d="M817.389 1348C816.07 1348 815 1349.1 815 1350.46V1373.08C815 1374.44 816.201 1375.68 817.52 1375.68H820.959C821.359 1378.13 823.426 1380 825.92 1380C828.414 1380 830.481 1378.13 830.881 1375.68H838.651C839.967 1375.68 841.04 1374.57 841.04 1373.22V1350.51C841.04 1349.13 839.98 1348 838.677 1348H817.389ZM842.72 1354.05V1375.68C843.124 1378.13 845.266 1380 847.76 1380C850.254 1380 852.321 1378.13 852.721 1375.68H854.48C855.799 1375.68 857 1374.44 857 1373.08V1364.76C857 1363.02 855.783 1361.24 855.635 1361.03L852.144 1356.22C851.343 1355.22 850.086 1354.05 848.6 1354.05H842.72ZM846.92 1358.38H851.619L854.296 1362.05C854.582 1362.47 855.32 1363.74 855.32 1364.76V1365.3H846.92C846.08 1365.3 845.24 1364.43 845.24 1363.57V1360.11C845.24 1359.15 846.08 1358.38 846.92 1358.38ZM825.92 1371.35C827.774 1371.35 829.28 1372.9 829.28 1374.81C829.28 1376.72 827.774 1378.27 825.92 1378.27C824.066 1378.27 822.56 1376.72 822.56 1374.81C822.56 1372.9 824.066 1371.35 825.92 1371.35ZM847.76 1371.35C849.614 1371.35 851.12 1372.9 851.12 1374.81C851.12 1376.72 849.614 1378.27 847.76 1378.27C845.906 1378.27 844.4 1376.72 844.4 1374.81C844.4 1372.9 845.906 1371.35 847.76 1371.35Z" fill="white"/>
      <path d="M817.389 1348C816.07 1348 815 1349.1 815 1350.46V1373.08C815 1374.44 816.201 1375.68 817.52 1375.68H820.959C821.359 1378.13 823.426 1380 825.92 1380C828.414 1380 830.481 1378.13 830.881 1375.68H838.651C839.967 1375.68 841.04 1374.57 841.04 1373.22V1350.51C841.04 1349.13 839.98 1348 838.677 1348H817.389ZM842.72 1354.05V1375.68C843.124 1378.13 845.266 1380 847.76 1380C850.254 1380 852.321 1378.13 852.721 1375.68H854.48C855.799 1375.68 857 1374.44 857 1373.08V1364.76C857 1363.02 855.783 1361.24 855.635 1361.03L852.144 1356.22C851.343 1355.22 850.086 1354.05 848.6 1354.05H842.72ZM846.92 1358.38H851.619L854.296 1362.05C854.582 1362.47 855.32 1363.74 855.32 1364.76V1365.3H846.92C846.08 1365.3 845.24 1364.43 845.24 1363.57V1360.11C845.24 1359.15 846.08 1358.38 846.92 1358.38ZM825.92 1371.35C827.774 1371.35 829.28 1372.9 829.28 1374.81C829.28 1376.72 827.774 1378.27 825.92 1378.27C824.066 1378.27 822.56 1376.72 822.56 1374.81C822.56 1372.9 824.066 1371.35 825.92 1371.35ZM847.76 1371.35C849.614 1371.35 851.12 1372.9 851.12 1374.81C851.12 1376.72 849.614 1378.27 847.76 1378.27C845.906 1378.27 844.4 1376.72 844.4 1374.81C844.4 1372.9 845.906 1371.35 847.76 1371.35Z" stroke="black" stroke-width="6" mask="url(#path-99-outside-56_0_1)"/>
    </g>
  </g>
</svg>