<?xml version="1.0" encoding="UTF-8" standalone="yes"?>
<svg width="119" height="119" viewBox="0 0 119 119" fill="none" xmlns="http://www.w3.org/2000/svg">
  <g id="General_Audi" transform="translate(-776.5 -584.5)">
    <g id="Frame 10">
      <g id="Vector_14">
        <mask id="path-42-outside-24_0_1" maskUnits="userSpaceOnUse" x="808" y="622" width="56" height="23" fill="black">
          <rect fill="white" x="808" y="622" width="56" height="23"/>
          <path d="M819.5 625C814.817 625 811 628.817 811 633.5C811 638.183 814.817 642 819.5 642C821.596 642 823.516 641.231 825 639.967C826.484 641.231 828.404 642 830.5 642C832.596 642 834.516 641.231 836 639.967C837.484 641.231 839.404 642 841.5 642C843.596 642 845.516 641.231 847 639.967C848.484 641.231 850.404 642 852.5 642C857.183 642 861 638.183 861 633.5C861 628.817 857.183 625 852.5 625C850.404 625 848.484 625.769 847 627.033C845.516 625.769 843.596 625 841.5 625C839.404 625 837.484 625.769 836 627.033C834.516 625.769 832.596 625 830.5 625C828.404 625 826.484 625.769 825 627.033C823.516 625.769 821.596 625 819.5 625ZM819.5 627C821.081 627 822.526 627.559 823.65 628.49C822.618 629.897 822 631.627 822 633.5C822 635.373 822.618 637.103 823.65 638.51C822.526 639.441 821.081 640 819.5 640C815.898 640 813 637.102 813 633.5C813 629.898 815.898 627 819.5 627ZM830.5 627C832.081 627 833.526 627.559 834.65 628.49C833.618 629.897 833 631.627 833 633.5C833 635.373 833.618 637.103 834.65 638.51C833.526 639.441 832.081 640 830.5 640C828.919 640 827.474 639.441 826.35 638.51C827.382 637.103 828 635.373 828 633.5C828 631.627 827.382 629.897 826.35 628.49C827.474 627.559 828.919 627 830.5 627ZM841.5 627C843.081 627 844.526 627.559 845.65 628.49C844.618 629.897 844 631.627 844 633.5C844 635.373 844.618 637.103 845.65 638.51C844.526 639.441 843.081 640 841.5 640C839.919 640 838.474 639.441 837.35 638.51C838.382 637.103 839 635.373 839 633.5C839 631.627 838.382 629.897 837.35 628.49C838.474 627.559 839.919 627 841.5 627ZM852.5 627C856.102 627 859 629.898 859 633.5C859 637.102 856.102 640 852.5 640C850.919 640 849.474 639.441 848.35 638.51C849.382 637.103 850 635.373 850 633.5C850 631.627 849.382 629.897 848.35 628.49C849.474 627.559 850.919 627 852.5 627ZM825 630.037C825.631 631.039 826 632.223 826 633.5C826 634.777 825.631 635.961 825 636.963C824.369 635.961 824 634.777 824 633.5C824 632.223 824.369 631.039 825 630.037ZM836 630.037C836.631 631.039 837 632.223 837 633.5C837 634.777 836.631 635.961 836 636.963C835.369 635.961 835 634.777 835 633.5C835 632.223 835.369 631.039 836 630.037ZM847 630.037C847.631 631.039 848 632.223 848 633.5C848 634.777 847.631 635.961 847 636.963C846.369 635.961 846 634.777 846 633.5C846 632.223 846.369 631.039 847 630.037Z"/>
        </mask>
        <path d="M819.5 625C814.817 625 811 628.817 811 633.5C811 638.183 814.817 642 819.5 642C821.596 642 823.516 641.231 825 639.967C826.484 641.231 828.404 642 830.5 642C832.596 642 834.516 641.231 836 639.967C837.484 641.231 839.404 642 841.5 642C843.596 642 845.516 641.231 847 639.967C848.484 641.231 850.404 642 852.5 642C857.183 642 861 638.183 861 633.5C861 628.817 857.183 625 852.5 625C850.404 625 848.484 625.769 847 627.033C845.516 625.769 843.596 625 841.5 625C839.404 625 837.484 625.769 836 627.033C834.516 625.769 832.596 625 830.5 625C828.404 625 826.484 625.769 825 627.033C823.516 625.769 821.596 625 819.5 625ZM819.5 627C821.081 627 822.526 627.559 823.65 628.49C822.618 629.897 822 631.627 822 633.5C822 635.373 822.618 637.103 823.65 638.51C822.526 639.441 821.081 640 819.5 640C815.898 640 813 637.102 813 633.5C813 629.898 815.898 627 819.5 627ZM830.5 627C832.081 627 833.526 627.559 834.65 628.49C833.618 629.897 833 631.627 833 633.5C833 635.373 833.618 637.103 834.65 638.51C833.526 639.441 832.081 640 830.5 640C828.919 640 827.474 639.441 826.35 638.51C827.382 637.103 828 635.373 828 633.5C828 631.627 827.382 629.897 826.35 628.49C827.474 627.559 828.919 627 830.5 627ZM841.5 627C843.081 627 844.526 627.559 845.65 628.49C844.618 629.897 844 631.627 844 633.5C844 635.373 844.618 637.103 845.65 638.51C844.526 639.441 843.081 640 841.5 640C839.919 640 838.474 639.441 837.35 638.51C838.382 637.103 839 635.373 839 633.5C839 631.627 838.382 629.897 837.35 628.49C838.474 627.559 839.919 627 841.5 627ZM852.5 627C856.102 627 859 629.898 859 633.5C859 637.102 856.102 640 852.5 640C850.919 640 849.474 639.441 848.35 638.51C849.382 637.103 850 635.373 850 633.5C850 631.627 849.382 629.897 848.35 628.49C849.474 627.559 850.919 627 852.5 627ZM825 630.037C825.631 631.039 826 632.223 826 633.5C826 634.777 825.631 635.961 825 636.963C824.369 635.961 824 634.777 824 633.5C824 632.223 824.369 631.039 825 630.037ZM836 630.037C836.631 631.039 837 632.223 837 633.5C837 634.777 836.631 635.961 836 636.963C835.369 635.961 835 634.777 835 633.5C835 632.223 835.369 631.039 836 630.037ZM847 630.037C847.631 631.039 848 632.223 848 633.5C848 634.777 847.631 635.961 847 636.963C846.369 635.961 846 634.777 846 633.5C846 632.223 846.369 631.039 847 630.037Z" fill="white"/>
        <path d="M819.5 625C814.817 625 811 628.817 811 633.5C811 638.183 814.817 642 819.5 642C821.596 642 823.516 641.231 825 639.967C826.484 641.231 828.404 642 830.5 642C832.596 642 834.516 641.231 836 639.967C837.484 641.231 839.404 642 841.5 642C843.596 642 845.516 641.231 847 639.967C848.484 641.231 850.404 642 852.5 642C857.183 642 861 638.183 861 633.5C861 628.817 857.183 625 852.5 625C850.404 625 848.484 625.769 847 627.033C845.516 625.769 843.596 625 841.5 625C839.404 625 837.484 625.769 836 627.033C834.516 625.769 832.596 625 830.5 625C828.404 625 826.484 625.769 825 627.033C823.516 625.769 821.596 625 819.5 625ZM819.5 627C821.081 627 822.526 627.559 823.65 628.49C822.618 629.897 822 631.627 822 633.5C822 635.373 822.618 637.103 823.65 638.51C822.526 639.441 821.081 640 819.5 640C815.898 640 813 637.102 813 633.5C813 629.898 815.898 627 819.5 627ZM830.5 627C832.081 627 833.526 627.559 834.65 628.49C833.618 629.897 833 631.627 833 633.5C833 635.373 833.618 637.103 834.65 638.51C833.526 639.441 832.081 640 830.5 640C828.919 640 827.474 639.441 826.35 638.51C827.382 637.103 828 635.373 828 633.5C828 631.627 827.382 629.897 826.35 628.49C827.474 627.559 828.919 627 830.5 627ZM841.5 627C843.081 627 844.526 627.559 845.65 628.49C844.618 629.897 844 631.627 844 633.5C844 635.373 844.618 637.103 845.65 638.51C844.526 639.441 843.081 640 841.5 640C839.919 640 838.474 639.441 837.35 638.51C838.382 637.103 839 635.373 839 633.5C839 631.627 838.382 629.897 837.35 628.49C838.474 627.559 839.919 627 841.5 627ZM852.5 627C856.102 627 859 629.898 859 633.5C859 637.102 856.102 640 852.5 640C850.919 640 849.474 639.441 848.35 638.51C849.382 637.103 850 635.373 850 633.5C850 631.627 849.382 629.897 848.35 628.49C849.474 627.559 850.919 627 852.5 627ZM825 630.037C825.631 631.039 826 632.223 826 633.5C826 634.777 825.631 635.961 825 636.963C824.369 635.961 824 634.777 824 633.5C824 632.223 824.369 631.039 825 630.037ZM836 630.037C836.631 631.039 837 632.223 837 633.5C837 634.777 836.631 635.961 836 636.963C835.369 635.961 835 634.777 835 633.5C835 632.223 835.369 631.039 836 630.037ZM847 630.037C847.631 631.039 848 632.223 848 633.5C848 634.777 847.631 635.961 847 636.963C846.369 635.961 846 634.777 846 633.5C846 632.223 846.369 631.039 847 630.037Z" stroke="black" stroke-width="6" mask="url(#path-42-outside-24_0_1)"/>
      </g>
    </g>
  </g>
</svg>