<?xml version="1.0" encoding="UTF-8" standalone="yes"?>
<svg width="119" height="119" viewBox="0 0 119 119" fill="none" xmlns="http://www.w3.org/2000/svg">
  <g id="General_Opel" transform="translate(-656.5 -824.5)">
    <g id="Frame 12">
      <g id="Vector_19">
        <mask id="path-58-outside-33_0_1" maskUnits="userSpaceOnUse" x="689" y="862" width="54" height="43" fill="black">
          <rect fill="white" x="689" y="862" width="54" height="43"/>
          <path d="M716 899.857C706.908 899.857 699.511 892.518 699.511 883.499C699.511 883.034 699.535 882.574 699.575 882.119L713.36 882.973L707.394 887.063C707.313 887.119 707.26 887.212 707.26 887.316C707.26 887.486 707.399 887.627 707.571 887.627H731.959C730.109 894.654 723.655 899.857 716 899.857ZM716 867.142C725.095 867.142 732.49 874.48 732.49 883.499C732.49 883.962 732.466 884.419 732.428 884.871H732.42L718.636 884.001L724.618 879.935C724.701 879.879 724.752 879.786 724.752 879.682C724.752 879.509 724.612 879.371 724.441 879.371H700.044C701.891 872.344 708.346 867.142 716 867.142ZM739.641 885.326L734.584 885.007C734.624 884.509 734.651 884.007 734.651 883.499C734.651 873.299 726.285 865 716 865C707.147 865 699.722 871.152 697.824 879.37H693.703C693.469 879.37 693.263 879.48 693.132 879.65L692.078 881.094C692.03 881.155 692 881.232 692 881.315C692 881.512 692.161 881.671 692.362 881.671L696.856 881.948L697.419 881.985C697.379 882.485 697.352 882.988 697.352 883.498C697.352 893.698 705.718 902 716 902C724.853 902 732.281 895.845 734.176 887.627H738.3C738.533 887.627 738.74 887.518 738.871 887.348L739.925 885.903C739.973 885.842 740 885.765 740 885.682C740 885.486 739.839 885.326 739.641 885.326Z"/>
        </mask>
        <path d="M716 899.857C706.908 899.857 699.511 892.518 699.511 883.499C699.511 883.034 699.535 882.574 699.575 882.119L713.36 882.973L707.394 887.063C707.313 887.119 707.26 887.212 707.26 887.316C707.26 887.486 707.399 887.627 707.571 887.627H731.959C730.109 894.654 723.655 899.857 716 899.857ZM716 867.142C725.095 867.142 732.49 874.48 732.49 883.499C732.49 883.962 732.466 884.419 732.428 884.871H732.42L718.636 884.001L724.618 879.935C724.701 879.879 724.752 879.786 724.752 879.682C724.752 879.509 724.612 879.371 724.441 879.371H700.044C701.891 872.344 708.346 867.142 716 867.142ZM739.641 885.326L734.584 885.007C734.624 884.509 734.651 884.007 734.651 883.499C734.651 873.299 726.285 865 716 865C707.147 865 699.722 871.152 697.824 879.37H693.703C693.469 879.37 693.263 879.48 693.132 879.65L692.078 881.094C692.03 881.155 692 881.232 692 881.315C692 881.512 692.161 881.671 692.362 881.671L696.856 881.948L697.419 881.985C697.379 882.485 697.352 882.988 697.352 883.498C697.352 893.698 705.718 902 716 902C724.853 902 732.281 895.845 734.176 887.627H738.3C738.533 887.627 738.74 887.518 738.871 887.348L739.925 885.903C739.973 885.842 740 885.765 740 885.682C740 885.486 739.839 885.326 739.641 885.326Z" fill="white"/>
        <path d="M716 899.857C706.908 899.857 699.511 892.518 699.511 883.499C699.511 883.034 699.535 882.574 699.575 882.119L713.36 882.973L707.394 887.063C707.313 887.119 707.26 887.212 707.26 887.316C707.26 887.486 707.399 887.627 707.571 887.627H731.959C730.109 894.654 723.655 899.857 716 899.857ZM716 867.142C725.095 867.142 732.49 874.48 732.49 883.499C732.49 883.962 732.466 884.419 732.428 884.871H732.42L718.636 884.001L724.618 879.935C724.701 879.879 724.752 879.786 724.752 879.682C724.752 879.509 724.612 879.371 724.441 879.371H700.044C701.891 872.344 708.346 867.142 716 867.142ZM739.641 885.326L734.584 885.007C734.624 884.509 734.651 884.007 734.651 883.499C734.651 873.299 726.285 865 716 865C707.147 865 699.722 871.152 697.824 879.37H693.703C693.469 879.37 693.263 879.48 693.132 879.65L692.078 881.094C692.03 881.155 692 881.232 692 881.315C692 881.512 692.161 881.671 692.362 881.671L696.856 881.948L697.419 881.985C697.379 882.485 697.352 882.988 697.352 883.498C697.352 893.698 705.718 902 716 902C724.853 902 732.281 895.845 734.176 887.627H738.3C738.533 887.627 738.74 887.518 738.871 887.348L739.925 885.903C739.973 885.842 740 885.765 740 885.682C740 885.486 739.839 885.326 739.641 885.326Z" stroke="black" stroke-width="6" mask="url(#path-58-outside-33_0_1)"/>
      </g>
    </g>
  </g>
</svg>