<?xml version="1.0" encoding="UTF-8" standalone="yes"?>
<svg width="120" height="120" viewBox="0 0 120 120" fill="none" xmlns="http://www.w3.org/2000/svg">
  <g id="Generic_Truck">
    <g id="Frame 13_3">
      <path id="Vector_15" d="M934.73 626C933.223 626 932 627.243 932 628.767V654.216C932 655.74 933.373 657.135 934.88 657.135H938.81C939.268 659.894 941.63 662 944.48 662C947.33 662 949.692 659.894 950.15 657.135H959.03C960.534 657.135 961.76 655.892 961.76 654.368V628.828C961.76 627.269 960.549 626 959.06 626H934.73ZM963.68 632.811V657.135C964.141 659.891 966.59 662 969.44 662C972.29 662 974.653 659.891 975.11 657.135H977.12C978.627 657.135 980 655.744 980 654.216V644.851C980 642.894 978.609 640.895 978.44 640.655L974.45 635.243C973.535 634.126 972.099 632.811 970.4 632.811H963.68ZM968.48 637.676H973.85L976.91 641.811C977.236 642.278 978.08 643.711 978.08 644.851V645.459H968.48C967.52 645.459 966.56 644.486 966.56 643.514V639.622C966.56 638.546 967.52 637.676 968.48 637.676ZM944.48 652.27C946.599 652.27 948.32 654.015 948.32 656.162C948.32 658.31 946.599 660.054 944.48 660.054C942.361 660.054 940.64 658.31 940.64 656.162C940.64 654.015 942.361 652.27 944.48 652.27ZM969.44 652.27C971.559 652.27 973.28 654.015 973.28 656.162C973.28 658.31 971.559 660.054 969.44 660.054C967.321 660.054 965.6 658.31 965.6 656.162C965.6 654.015 967.321 652.27 969.44 652.27Z" fill="white"/>
    </g>
  </g>
</svg>