<?xml version="1.0" encoding="UTF-8" standalone="yes"?>
<svg width="119" height="119" viewBox="0 0 119 119" fill="none" xmlns="http://www.w3.org/2000/svg">
  <g id="Generic_L" transform="translate(-896.5 -1304.5)">
    <g id="Vector_40">
      <mask id="path-101-outside-57_0_1" maskUnits="userSpaceOnUse" x="930" y="1346" width="52" height="36" fill="black">
        <rect fill="white" x="930" y="1346" width="52" height="36"/>
        <path d="M978.008 1363.81L975.385 1360.53L970.724 1351.48C969.933 1349.95 968.363 1349 966.623 1349H936.68C934.65 1349 933 1350.63 933 1352.64V1371.73C933 1373.73 934.65 1375.36 936.68 1375.36H939.533C939.961 1377.43 941.819 1379 944.04 1379C946.261 1379 948.119 1377.43 948.547 1375.36H966.213C966.641 1377.43 968.499 1379 970.72 1379C972.941 1379 974.799 1377.43 975.227 1375.36H976.24C977.76 1375.36 979 1374.14 979 1372.64V1366.63C979 1365.61 978.648 1364.6 978.008 1363.81ZM969.085 1352.31L973.361 1360.61L965.671 1360.02C965.279 1359.98 964.948 1359.71 964.851 1359.33L962.699 1350.82H966.623C967.669 1350.82 968.61 1351.39 969.085 1352.31ZM944.04 1377.18C942.52 1377.18 941.28 1375.96 941.28 1374.45C941.28 1372.95 942.52 1371.73 944.04 1371.73C945.56 1371.73 946.8 1372.95 946.8 1374.45C946.8 1375.96 945.56 1377.18 944.04 1377.18ZM970.72 1377.18C969.2 1377.18 967.96 1375.96 967.96 1374.45C967.96 1372.95 969.2 1371.73 970.72 1371.73C972.24 1371.73 973.48 1372.95 973.48 1374.45C973.48 1375.96 972.24 1377.18 970.72 1377.18Z"/>
      </mask>
      <path d="M978.008 1363.81L975.385 1360.53L970.724 1351.48C969.933 1349.95 968.363 1349 966.623 1349H936.68C934.65 1349 933 1350.63 933 1352.64V1371.73C933 1373.73 934.65 1375.36 936.68 1375.36H939.533C939.961 1377.43 941.819 1379 944.04 1379C946.261 1379 948.119 1377.43 948.547 1375.36H966.213C966.641 1377.43 968.499 1379 970.72 1379C972.941 1379 974.799 1377.43 975.227 1375.36H976.24C977.76 1375.36 979 1374.14 979 1372.64V1366.63C979 1365.61 978.648 1364.6 978.008 1363.81ZM969.085 1352.31L973.361 1360.61L965.671 1360.02C965.279 1359.98 964.948 1359.71 964.851 1359.33L962.699 1350.82H966.623C967.669 1350.82 968.61 1351.39 969.085 1352.31ZM944.04 1377.18C942.52 1377.18 941.28 1375.96 941.28 1374.45C941.28 1372.95 942.52 1371.73 944.04 1371.73C945.56 1371.73 946.8 1372.95 946.8 1374.45C946.8 1375.96 945.56 1377.18 944.04 1377.18ZM970.72 1377.18C969.2 1377.18 967.96 1375.96 967.96 1374.45C967.96 1372.95 969.2 1371.73 970.72 1371.73C972.24 1371.73 973.48 1372.95 973.48 1374.45C973.48 1375.96 972.24 1377.18 970.72 1377.18Z" fill="white"/>
      <path d="M978.008 1363.81L975.385 1360.53L970.724 1351.48C969.933 1349.95 968.363 1349 966.623 1349H936.68C934.65 1349 933 1350.63 933 1352.64V1371.73C933 1373.73 934.65 1375.36 936.68 1375.36H939.533C939.961 1377.43 941.819 1379 944.04 1379C946.261 1379 948.119 1377.43 948.547 1375.36H966.213C966.641 1377.43 968.499 1379 970.72 1379C972.941 1379 974.799 1377.43 975.227 1375.36H976.24C977.76 1375.36 979 1374.14 979 1372.64V1366.63C979 1365.61 978.648 1364.6 978.008 1363.81ZM969.085 1352.31L973.361 1360.61L965.671 1360.02C965.279 1359.98 964.948 1359.71 964.851 1359.33L962.699 1350.82H966.623C967.669 1350.82 968.61 1351.39 969.085 1352.31ZM944.04 1377.18C942.52 1377.18 941.28 1375.96 941.28 1374.45C941.28 1372.95 942.52 1371.73 944.04 1371.73C945.56 1371.73 946.8 1372.95 946.8 1374.45C946.8 1375.96 945.56 1377.18 944.04 1377.18ZM970.72 1377.18C969.2 1377.18 967.96 1375.96 967.96 1374.45C967.96 1372.95 969.2 1371.73 970.72 1371.73C972.24 1371.73 973.48 1372.95 973.48 1374.45C973.48 1375.96 972.24 1377.18 970.72 1377.18Z" stroke="black" stroke-width="6" mask="url(#path-101-outside-57_0_1)"/>
    </g>
  </g>
</svg>