<?xml version="1.0" encoding="UTF-8" standalone="yes"?>
<svg width="119" height="119" viewBox="0 0 119 119" fill="none" xmlns="http://www.w3.org/2000/svg">
  <g id="General_VW" transform="translate(-656.5 -104.5)">
    <g id="Frame 4">
      <g id="Vector">
        <mask id="path-2-outside-1_0_1" maskUnits="userSpaceOnUse" x="689" y="135" width="52" height="52" fill="black">
          <rect fill="white" x="689" y="135" width="52" height="52"/>
          <path d="M715 138C702.317 138 692 148.318 692 161C692 173.682 702.317 184 715 184C727.683 184 738 173.682 738 161C738 148.318 727.683 138 715 138ZM720.873 142.94L715 156L709.127 142.94C710.978 142.336 712.95 142 715 142C717.05 142 719.022 142.336 720.873 142.94ZM705.241 144.728L712.398 160H717.601L724.758 144.728C726.888 146.011 728.743 147.694 730.224 149.681L721.353 169L717.66 162H712.34L708.647 169L699.775 149.681C701.256 147.695 703.111 146.011 705.241 144.728ZM696 161C696 158.652 696.448 156.413 697.23 154.335L708.144 178.7C708.151 178.703 708.158 178.705 708.165 178.708C701.06 175.955 696 169.065 696 161ZM708.185 178.715L715 166L721.815 178.715C719.696 179.533 717.404 180 715 180C712.596 180 710.304 179.533 708.185 178.715ZM721.834 178.708C721.841 178.705 721.848 178.703 721.855 178.7L732.77 154.335C733.552 156.413 734 158.652 734 161C734 169.065 728.94 175.955 721.834 178.708Z"/>
        </mask>
        <path d="M715 138C702.317 138 692 148.318 692 161C692 173.682 702.317 184 715 184C727.683 184 738 173.682 738 161C738 148.318 727.683 138 715 138ZM720.873 142.94L715 156L709.127 142.94C710.978 142.336 712.95 142 715 142C717.05 142 719.022 142.336 720.873 142.94ZM705.241 144.728L712.398 160H717.601L724.758 144.728C726.888 146.011 728.743 147.694 730.224 149.681L721.353 169L717.66 162H712.34L708.647 169L699.775 149.681C701.256 147.695 703.111 146.011 705.241 144.728ZM696 161C696 158.652 696.448 156.413 697.23 154.335L708.144 178.7C708.151 178.703 708.158 178.705 708.165 178.708C701.06 175.955 696 169.065 696 161ZM708.185 178.715L715 166L721.815 178.715C719.696 179.533 717.404 180 715 180C712.596 180 710.304 179.533 708.185 178.715ZM721.834 178.708C721.841 178.705 721.848 178.703 721.855 178.7L732.77 154.335C733.552 156.413 734 158.652 734 161C734 169.065 728.94 175.955 721.834 178.708Z" fill="white"/>
        <path d="M715 138C702.317 138 692 148.318 692 161C692 173.682 702.317 184 715 184C727.683 184 738 173.682 738 161C738 148.318 727.683 138 715 138ZM720.873 142.94L715 156L709.127 142.94C710.978 142.336 712.95 142 715 142C717.05 142 719.022 142.336 720.873 142.94ZM705.241 144.728L712.398 160H717.601L724.758 144.728C726.888 146.011 728.743 147.694 730.224 149.681L721.353 169L717.66 162H712.34L708.647 169L699.775 149.681C701.256 147.695 703.111 146.011 705.241 144.728ZM696 161C696 158.652 696.448 156.413 697.23 154.335L708.144 178.7C708.151 178.703 708.158 178.705 708.165 178.708C701.06 175.955 696 169.065 696 161ZM708.185 178.715L715 166L721.815 178.715C719.696 179.533 717.404 180 715 180C712.596 180 710.304 179.533 708.185 178.715ZM721.834 178.708C721.841 178.705 721.848 178.703 721.855 178.7L732.77 154.335C733.552 156.413 734 158.652 734 161C734 169.065 728.94 175.955 721.834 178.708Z" stroke="black" stroke-width="6" mask="url(#path-2-outside-1_0_1)"/>
      </g>
    </g>
  </g>
</svg>