<?xml version="1.0" encoding="UTF-8" standalone="yes"?>
<svg width="119" height="119" viewBox="0 0 119 119" fill="none" xmlns="http://www.w3.org/2000/svg">
  <g id="Generic_M" transform="translate(-776.5 -1424.5)">
    <g id="Vector_42">
      <mask id="path-105-outside-59_0_1" maskUnits="userSpaceOnUse" x="810" y="1468" width="52" height="32" fill="black">
        <rect fill="white" x="810" y="1468" width="52" height="32"/>
        <path d="M825.042 1471C823.589 1471 822.205 1471.63 821.24 1472.73L815.216 1479.57C813.922 1480.35 813.055 1481.76 813.043 1483.36L813 1489.52C812.989 1491.04 814.223 1492.3 815.727 1492.3L817.73 1492.3C817.881 1493.37 818.304 1494.4 819.038 1495.24C819.972 1496.3 821.41 1497 823.17 1497C825.892 1497 828.067 1494.95 828.505 1492.32L843.535 1492.34C843.692 1493.39 844.038 1494.41 844.762 1495.24C845.696 1496.3 847.133 1497 848.894 1497C851.615 1497 853.884 1494.98 854.324 1492.35L856.31 1492.36C857.784 1492.36 859 1491.13 859 1489.64V1484.38C859 1482.11 857.361 1480.15 855.14 1479.78L847.172 1478.44L843.255 1472.78C842.483 1471.66 841.221 1471 839.876 1471H825.042ZM825.042 1472.86H832.358V1478.43H821.276L818.358 1478.8L822.612 1473.96C823.229 1473.26 824.113 1472.86 825.042 1472.86ZM834.195 1472.86H839.876C840.624 1472.86 841.321 1473.22 841.749 1473.84L844.925 1478.43H834.195V1472.86ZM823.17 1487.71C825.211 1487.71 826.845 1489.37 826.845 1491.43C826.845 1493.49 825.211 1495.14 823.17 1495.14C821.869 1495.14 821.01 1494.68 820.413 1494C819.815 1493.32 819.496 1492.38 819.496 1491.43C819.496 1490.47 819.815 1489.53 820.413 1488.85C821.01 1488.17 821.869 1487.71 823.17 1487.71ZM848.894 1487.71C850.935 1487.71 852.569 1489.37 852.569 1491.43C852.569 1493.49 850.935 1495.14 848.894 1495.14C847.593 1495.14 846.734 1494.68 846.136 1494C845.539 1493.32 845.219 1492.38 845.219 1491.43C845.219 1490.47 845.539 1489.53 846.136 1488.85C846.734 1488.17 847.593 1487.71 848.894 1487.71Z"/>
      </mask>
      <path d="M825.042 1471C823.589 1471 822.205 1471.63 821.24 1472.73L815.216 1479.57C813.922 1480.35 813.055 1481.76 813.043 1483.36L813 1489.52C812.989 1491.04 814.223 1492.3 815.727 1492.3L817.73 1492.3C817.881 1493.37 818.304 1494.4 819.038 1495.24C819.972 1496.3 821.41 1497 823.17 1497C825.892 1497 828.067 1494.95 828.505 1492.32L843.535 1492.34C843.692 1493.39 844.038 1494.41 844.762 1495.24C845.696 1496.3 847.133 1497 848.894 1497C851.615 1497 853.884 1494.98 854.324 1492.35L856.31 1492.36C857.784 1492.36 859 1491.13 859 1489.64V1484.38C859 1482.11 857.361 1480.15 855.14 1479.78L847.172 1478.44L843.255 1472.78C842.483 1471.66 841.221 1471 839.876 1471H825.042ZM825.042 1472.86H832.358V1478.43H821.276L818.358 1478.8L822.612 1473.96C823.229 1473.26 824.113 1472.86 825.042 1472.86ZM834.195 1472.86H839.876C840.624 1472.86 841.321 1473.22 841.749 1473.84L844.925 1478.43H834.195V1472.86ZM823.17 1487.71C825.211 1487.71 826.845 1489.37 826.845 1491.43C826.845 1493.49 825.211 1495.14 823.17 1495.14C821.869 1495.14 821.01 1494.68 820.413 1494C819.815 1493.32 819.496 1492.38 819.496 1491.43C819.496 1490.47 819.815 1489.53 820.413 1488.85C821.01 1488.17 821.869 1487.71 823.17 1487.71ZM848.894 1487.71C850.935 1487.71 852.569 1489.37 852.569 1491.43C852.569 1493.49 850.935 1495.14 848.894 1495.14C847.593 1495.14 846.734 1494.68 846.136 1494C845.539 1493.32 845.219 1492.38 845.219 1491.43C845.219 1490.47 845.539 1489.53 846.136 1488.85C846.734 1488.17 847.593 1487.71 848.894 1487.71Z" fill="white"/>
      <path d="M825.042 1471C823.589 1471 822.205 1471.63 821.24 1472.73L815.216 1479.57C813.922 1480.35 813.055 1481.76 813.043 1483.36L813 1489.52C812.989 1491.04 814.223 1492.3 815.727 1492.3L817.73 1492.3C817.881 1493.37 818.304 1494.4 819.038 1495.24C819.972 1496.3 821.41 1497 823.17 1497C825.892 1497 828.067 1494.95 828.505 1492.32L843.535 1492.34C843.692 1493.39 844.038 1494.41 844.762 1495.24C845.696 1496.3 847.133 1497 848.894 1497C851.615 1497 853.884 1494.98 854.324 1492.35L856.31 1492.36C857.784 1492.36 859 1491.13 859 1489.64V1484.38C859 1482.11 857.361 1480.15 855.14 1479.78L847.172 1478.44L843.255 1472.78C842.483 1471.66 841.221 1471 839.876 1471H825.042ZM825.042 1472.86H832.358V1478.43H821.276L818.358 1478.8L822.612 1473.96C823.229 1473.26 824.113 1472.86 825.042 1472.86ZM834.195 1472.86H839.876C840.624 1472.86 841.321 1473.22 841.749 1473.84L844.925 1478.43H834.195V1472.86ZM823.17 1487.71C825.211 1487.71 826.845 1489.37 826.845 1491.43C826.845 1493.49 825.211 1495.14 823.17 1495.14C821.869 1495.14 821.01 1494.68 820.413 1494C819.815 1493.32 819.496 1492.38 819.496 1491.43C819.496 1490.47 819.815 1489.53 820.413 1488.85C821.01 1488.17 821.869 1487.71 823.17 1487.71ZM848.894 1487.71C850.935 1487.71 852.569 1489.37 852.569 1491.43C852.569 1493.49 850.935 1495.14 848.894 1495.14C847.593 1495.14 846.734 1494.68 846.136 1494C845.539 1493.32 845.219 1492.38 845.219 1491.43C845.219 1490.47 845.539 1489.53 846.136 1488.85C846.734 1488.17 847.593 1487.71 848.894 1487.71Z" stroke="black" stroke-width="6" mask="url(#path-105-outside-59_0_1)"/>
    </g>
  </g>
</svg>