<?xml version="1.0" encoding="UTF-8" standalone="yes"?>
<svg width="119" height="119" viewBox="0 0 119 119" fill="none" xmlns="http://www.w3.org/2000/svg">
  <g id="General_Tesla" transform="translate(-656.5 -464.5)">
    <g id="Frame 7">
      <g id="Vector_10">
        <mask id="path-30-outside-18_0_1" maskUnits="userSpaceOnUse" x="689" y="497" width="53" height="46" fill="black">
          <rect fill="white" x="689" y="497" width="53" height="46"/>
          <path d="M694 502.778C699.746 500.832 705.841 500.201 711.936 500.045C714.29 499.985 716.703 499.985 719.064 500.045C725.159 500.201 731.254 500.832 737 502.778L735.693 504.68C730.831 502.971 725.092 502.132 719.004 501.946C716.703 501.879 714.305 501.879 711.996 501.946C705.908 502.132 700.169 502.971 695.307 504.68L694 502.778Z"/>
          <path d="M696.316 506.284C700.073 504.762 705.663 504.256 709.739 504.145C711.098 504.108 712.285 504.108 713.184 504.145L715.5 507.116L717.816 504.145C721.41 504.011 729.672 504.256 734.684 506.284C733.993 507.599 730.994 509.493 729.338 509.909C729.242 507.324 725.597 506.76 722.093 506.76L715.5 542L708.907 506.76C705.403 506.76 701.758 507.324 701.662 509.909C700.013 509.493 697.007 507.599 696.316 506.284Z"/>
        </mask>
        <path d="M694 502.778C699.746 500.832 705.841 500.201 711.936 500.045C714.29 499.985 716.703 499.985 719.064 500.045C725.159 500.201 731.254 500.832 737 502.778L735.693 504.68C730.831 502.971 725.092 502.132 719.004 501.946C716.703 501.879 714.305 501.879 711.996 501.946C705.908 502.132 700.169 502.971 695.307 504.68L694 502.778Z" fill="white"/>
        <path d="M696.316 506.284C700.073 504.762 705.663 504.256 709.739 504.145C711.098 504.108 712.285 504.108 713.184 504.145L715.5 507.116L717.816 504.145C721.41 504.011 729.672 504.256 734.684 506.284C733.993 507.599 730.994 509.493 729.338 509.909C729.242 507.324 725.597 506.76 722.093 506.76L715.5 542L708.907 506.76C705.403 506.76 701.758 507.324 701.662 509.909C700.013 509.493 697.007 507.599 696.316 506.284Z" fill="white"/>
        <path d="M694 502.778C699.746 500.832 705.841 500.201 711.936 500.045C714.29 499.985 716.703 499.985 719.064 500.045C725.159 500.201 731.254 500.832 737 502.778L735.693 504.68C730.831 502.971 725.092 502.132 719.004 501.946C716.703 501.879 714.305 501.879 711.996 501.946C705.908 502.132 700.169 502.971 695.307 504.68L694 502.778Z" stroke="black" stroke-width="6" mask="url(#path-30-outside-18_0_1)"/>
        <path d="M696.316 506.284C700.073 504.762 705.663 504.256 709.739 504.145C711.098 504.108 712.285 504.108 713.184 504.145L715.5 507.116L717.816 504.145C721.41 504.011 729.672 504.256 734.684 506.284C733.993 507.599 730.994 509.493 729.338 509.909C729.242 507.324 725.597 506.76 722.093 506.76L715.5 542L708.907 506.76C705.403 506.76 701.758 507.324 701.662 509.909C700.013 509.493 697.007 507.599 696.316 506.284Z" stroke="black" stroke-width="6" mask="url(#path-30-outside-18_0_1)"/>
      </g>
    </g>
  </g>
</svg>