<?xml version="1.0" encoding="UTF-8" standalone="yes"?>
<svg width="119" height="119" viewBox="0 0 119 119" fill="none" xmlns="http://www.w3.org/2000/svg">
  <g id="General_Ford" transform="translate(-656.5 -944.5)">
    <g id="Frame 13">
      <g id="Vector_22">
        <mask id="path-66-outside-38_0_1" maskUnits="userSpaceOnUse" x="689" y="991" width="55" height="26" fill="black">
          <rect fill="white" x="689" y="991" width="55" height="26"/>
          <path d="M737.788 999.854C737.635 999.854 737.556 999.874 737.484 1000.02C737.246 1000.5 734.353 1005.09 733.815 1005.98C733.724 1006.11 733.613 1006.09 733.6 1005.94C733.546 1005.41 733.114 1004.8 732.433 1004.51C731.915 1004.29 731.408 1004.25 730.881 1004.32C729.929 1004.46 729.081 1004.99 728.336 1005.59C727.212 1006.49 726.243 1007.66 724.992 1008.52C724.309 1008.99 723.373 1009.4 722.748 1008.79C722.181 1008.24 722.245 1007 723.112 1006.05C723.203 1005.95 723.313 1006.03 723.296 1006.12C723.214 1006.56 723.314 1006.98 723.624 1007.28C724.002 1007.64 724.543 1007.68 725.006 1007.44C725.552 1007.16 725.874 1006.61 725.968 1005.98C726.112 1005.01 725.403 1004.15 724.516 1004.08C723.796 1004.03 723.106 1004.29 722.433 1004.88C722.096 1005.17 721.903 1005.39 721.611 1005.83C721.54 1005.94 721.431 1005.95 721.434 1005.79C721.469 1004.54 720.981 1003.84 720.006 1003.82C719.25 1003.8 718.442 1004.24 717.812 1004.77C717.121 1005.35 716.518 1006.13 715.87 1006.86C715.79 1006.95 715.72 1006.94 715.698 1006.77C715.678 1005.94 715.482 1005.15 715.12 1004.58C714.992 1004.38 714.723 1004.28 714.497 1004.42C714.392 1004.48 714.029 1004.65 713.765 1004.88C713.634 1004.99 713.582 1005.16 713.64 1005.37C713.99 1006.6 713.913 1008 713.439 1009.19C713.004 1010.27 712.16 1011.25 711.167 1011.58C710.513 1011.8 709.833 1011.69 709.413 1011.08C708.835 1010.23 709.068 1008.76 709.929 1007.54C710.689 1006.47 711.789 1005.78 712.885 1005.34C713.015 1005.29 713.041 1005.2 713.004 1005.09C712.944 1004.9 712.85 1004.64 712.811 1004.52C712.711 1004.24 712.429 1004.19 712.085 1004.23C711.288 1004.33 710.569 1004.62 709.859 1005.02C708 1006.07 707.068 1008.11 706.659 1009.2C706.463 1009.72 706.294 1010.05 706.077 1010.34C705.784 1010.73 705.416 1011.08 704.743 1011.7C704.682 1011.76 704.637 1011.88 704.688 1011.99C704.756 1012.14 705.107 1012.66 705.205 1012.71C705.315 1012.77 705.442 1012.69 705.493 1012.65C705.963 1012.31 706.527 1011.78 706.802 1011.41C706.899 1011.29 706.999 1011.34 707.049 1011.53C707.307 1012.5 707.981 1013.29 708.912 1013.62C710.617 1014.23 712.386 1013.35 713.72 1011.82C714.569 1010.85 714.875 1010.22 715.2 1009.8C715.751 1009.08 716.838 1007.46 718.132 1006.43C718.607 1006.04 719.17 1005.75 719.452 1005.95C719.678 1006.1 719.752 1006.46 719.388 1007.16C718.068 1009.71 716.125 1012.7 715.77 1013.43C715.705 1013.55 715.761 1013.65 715.886 1013.65C716.577 1013.65 717.261 1013.65 717.889 1013.65C717.993 1013.64 718.04 1013.59 718.092 1013.52C719.105 1011.84 720.058 1010.25 721.08 1008.6C721.138 1008.5 721.19 1008.58 721.192 1008.62C721.213 1009 721.303 1009.52 721.517 1009.87C721.903 1010.5 722.451 1010.78 723.058 1010.78C723.541 1010.79 723.785 1010.71 724.306 1010.5C724.73 1010.34 725.07 1010.12 725.332 1009.92C725.484 1009.81 725.511 1010 725.507 1010.03C725.272 1011.36 725.562 1012.93 726.813 1013.58C728.311 1014.37 729.955 1013.27 730.902 1012.28C730.994 1012.18 731.094 1012.19 731.103 1012.4C731.123 1012.78 731.285 1013.23 731.58 1013.54C732.374 1014.38 733.974 1014.05 735.58 1012.73C736.611 1011.89 737.69 1010.7 738.665 1009.45C738.702 1009.4 738.728 1009.32 738.659 1009.24C738.51 1009.08 738.296 1008.89 738.148 1008.74C738.081 1008.68 737.983 1008.7 737.926 1008.75C736.927 1009.75 736.028 1010.89 734.728 1011.84C734.29 1012.16 733.591 1012.42 733.277 1011.98C733.155 1011.8 733.169 1011.56 733.289 1011.24C733.668 1010.25 739.668 1000.59 739.98 1000.02C740.033 999.925 739.977 999.853 739.858 999.853C739.241 999.853 738.431 999.854 737.788 999.854M728.279 1011.72C727.97 1011.55 727.836 1011.09 727.843 1010.72C727.859 1009.68 728.294 1008.62 729.102 1007.57C730.087 1006.29 731.176 1005.62 731.89 1005.99C732.629 1006.36 732.393 1007.26 732.062 1007.97C732.038 1008.03 732.036 1008.07 732.049 1008.12C732.061 1008.19 732.153 1008.26 732.242 1008.3C732.273 1008.31 732.29 1008.33 732.255 1008.41C732 1008.99 731.765 1009.32 731.445 1009.83C731.151 1010.29 730.82 1010.65 730.419 1011C729.952 1011.41 729.345 1011.84 728.773 1011.84C728.604 1011.84 728.438 1011.81 728.279 1011.72Z"/>
          <path d="M704.169 994.073C700.481 994.401 696.972 996.594 696.965 999.925C696.962 1001.61 698.098 1002.98 699.858 1002.92C701.927 1002.85 703.626 1001.1 704.515 998.888C704.852 998.05 704.227 997.703 703.93 998.185C703.399 999.054 702.651 999.729 701.842 1000.15C700.869 1000.65 699.828 1000.52 699.513 999.68C699.069 998.502 699.991 996.738 702.095 995.908C705.134 994.72 708.313 995.506 711.372 996.114C711.416 996.114 711.579 996.209 711.435 996.289C710.886 996.604 710.348 996.861 709.507 997.625C708.905 998.17 708.116 998.896 707.506 999.686C706.901 1000.47 706.471 1001.16 705.903 1001.93C705.825 1002.04 705.727 1002.04 705.728 1002.04C704.344 1002.28 702.989 1002.45 701.748 1003.36C701.492 1003.55 701.38 1003.88 701.536 1004.13C701.675 1004.36 701.995 1004.38 702.217 1004.21C702.989 1003.6 703.782 1003.32 704.692 1003.29C704.732 1003.29 704.751 1003.3 704.762 1003.33C704.769 1003.34 704.765 1003.37 704.749 1003.39C703.385 1005.39 703.044 1005.84 702.018 1007.08C701.494 1007.72 700.978 1008.26 700.402 1008.82C698.073 1011.1 695.569 1011.06 694.67 1009.63C694.133 1008.77 694.204 1007.87 694.556 1007.12C694.989 1006.2 695.865 1005.53 696.592 1005.13C696.863 1004.99 696.94 1004.62 696.67 1004.29C696.498 1004.07 696.081 1004.04 695.77 1004.1C694.816 1004.28 693.689 1005.04 693.024 1005.96C692.273 1006.99 691.898 1008.24 692.024 1009.64C692.25 1012.17 694.221 1013.63 696.458 1013.61C698.239 1013.6 699.916 1013.03 701.934 1010.86C703.815 1008.84 705.529 1005.83 707.133 1003.03C707.184 1002.94 707.22 1002.9 707.463 1002.86C708.469 1002.73 709.955 1002.58 710.909 1002.52C711.12 1002.51 711.163 1002.51 711.248 1002.62C711.496 1002.95 711.868 1003.24 712.167 1003.41C712.313 1003.49 712.382 1003.53 712.496 1003.53C712.637 1003.54 712.747 1003.46 712.818 1003.37C712.92 1003.25 712.947 1003.1 712.893 1003C712.835 1002.9 712.171 1002.51 712.152 1002.35C712.137 1002.25 712.239 1002.23 712.239 1002.23C712.727 1002.07 713.235 1001.74 713.543 1001.11C713.845 1000.5 713.894 999.681 713.341 999.225C712.856 998.825 712.122 998.888 711.536 999.443C710.963 999.983 710.774 1000.77 710.852 1001.45C710.865 1001.57 710.859 1001.61 710.706 1001.63C709.825 1001.7 708.977 1001.73 708.034 1001.78C707.97 1001.78 707.95 1001.74 707.987 1001.69C709.073 999.7 710.695 998.28 712.489 996.881C712.608 996.788 712.571 996.608 712.567 996.459C715.806 997.202 718.936 998.586 722.297 998.556C723.687 998.545 725.018 998.321 726.289 997.585C727.407 996.94 727.861 996.343 727.894 995.724C727.92 995.295 727.639 995.025 727.237 995.117C723.842 995.942 720.603 995.932 717.225 995.501C713.391 995.009 709.71 994 705.896 994C705.323 994 704.748 994.022 704.169 994.073ZM711.75 1001.19C711.701 1000.81 711.818 1000.3 712.201 999.942C712.395 999.761 712.655 999.72 712.814 999.865C712.994 1000.03 712.909 1000.43 712.728 1000.71C712.531 1001.02 712.196 1001.28 711.891 1001.35C711.882 1001.35 711.874 1001.35 711.866 1001.35C711.815 1001.35 711.772 1001.31 711.75 1001.19Z"/>
        </mask>
        <path d="M737.788 999.854C737.635 999.854 737.556 999.874 737.484 1000.02C737.246 1000.5 734.353 1005.09 733.815 1005.98C733.724 1006.11 733.613 1006.09 733.6 1005.94C733.546 1005.41 733.114 1004.8 732.433 1004.51C731.915 1004.29 731.408 1004.25 730.881 1004.32C729.929 1004.46 729.081 1004.99 728.336 1005.59C727.212 1006.49 726.243 1007.66 724.992 1008.52C724.309 1008.99 723.373 1009.4 722.748 1008.79C722.181 1008.24 722.245 1007 723.112 1006.05C723.203 1005.95 723.313 1006.03 723.296 1006.12C723.214 1006.56 723.314 1006.98 723.624 1007.28C724.002 1007.64 724.543 1007.68 725.006 1007.44C725.552 1007.16 725.874 1006.61 725.968 1005.98C726.112 1005.01 725.403 1004.15 724.516 1004.08C723.796 1004.03 723.106 1004.29 722.433 1004.88C722.096 1005.17 721.903 1005.39 721.611 1005.83C721.54 1005.94 721.431 1005.95 721.434 1005.79C721.469 1004.54 720.981 1003.84 720.006 1003.82C719.25 1003.8 718.442 1004.24 717.812 1004.77C717.121 1005.35 716.518 1006.13 715.87 1006.86C715.79 1006.95 715.72 1006.94 715.698 1006.77C715.678 1005.94 715.482 1005.15 715.12 1004.58C714.992 1004.38 714.723 1004.28 714.497 1004.42C714.392 1004.48 714.029 1004.65 713.765 1004.88C713.634 1004.99 713.582 1005.16 713.64 1005.37C713.99 1006.6 713.913 1008 713.439 1009.19C713.004 1010.27 712.16 1011.25 711.167 1011.58C710.513 1011.8 709.833 1011.69 709.413 1011.08C708.835 1010.23 709.068 1008.76 709.929 1007.54C710.689 1006.47 711.789 1005.78 712.885 1005.34C713.015 1005.29 713.041 1005.2 713.004 1005.09C712.944 1004.9 712.85 1004.64 712.811 1004.52C712.711 1004.24 712.429 1004.19 712.085 1004.23C711.288 1004.33 710.569 1004.62 709.859 1005.02C708 1006.07 707.068 1008.11 706.659 1009.2C706.463 1009.72 706.294 1010.05 706.077 1010.34C705.784 1010.73 705.416 1011.08 704.743 1011.7C704.682 1011.76 704.637 1011.88 704.688 1011.99C704.756 1012.14 705.107 1012.66 705.205 1012.71C705.315 1012.77 705.442 1012.69 705.493 1012.65C705.963 1012.31 706.527 1011.78 706.802 1011.41C706.899 1011.29 706.999 1011.34 707.049 1011.53C707.307 1012.5 707.981 1013.29 708.912 1013.62C710.617 1014.23 712.386 1013.35 713.72 1011.82C714.569 1010.85 714.875 1010.22 715.2 1009.8C715.751 1009.08 716.838 1007.46 718.132 1006.43C718.607 1006.04 719.17 1005.75 719.452 1005.95C719.678 1006.1 719.752 1006.46 719.388 1007.16C718.068 1009.71 716.125 1012.7 715.77 1013.43C715.705 1013.55 715.761 1013.65 715.886 1013.65C716.577 1013.65 717.261 1013.65 717.889 1013.65C717.993 1013.64 718.04 1013.59 718.092 1013.52C719.105 1011.84 720.058 1010.25 721.08 1008.6C721.138 1008.5 721.19 1008.58 721.192 1008.62C721.213 1009 721.303 1009.52 721.517 1009.87C721.903 1010.5 722.451 1010.78 723.058 1010.78C723.541 1010.79 723.785 1010.71 724.306 1010.5C724.73 1010.34 725.07 1010.12 725.332 1009.92C725.484 1009.81 725.511 1010 725.507 1010.03C725.272 1011.36 725.562 1012.93 726.813 1013.58C728.311 1014.37 729.955 1013.27 730.902 1012.28C730.994 1012.18 731.094 1012.19 731.103 1012.4C731.123 1012.78 731.285 1013.23 731.58 1013.54C732.374 1014.38 733.974 1014.05 735.58 1012.73C736.611 1011.89 737.69 1010.7 738.665 1009.45C738.702 1009.4 738.728 1009.32 738.659 1009.24C738.51 1009.08 738.296 1008.89 738.148 1008.74C738.081 1008.68 737.983 1008.7 737.926 1008.75C736.927 1009.75 736.028 1010.89 734.728 1011.84C734.29 1012.16 733.591 1012.42 733.277 1011.98C733.155 1011.8 733.169 1011.56 733.289 1011.24C733.668 1010.25 739.668 1000.59 739.98 1000.02C740.033 999.925 739.977 999.853 739.858 999.853C739.241 999.853 738.431 999.854 737.788 999.854M728.279 1011.72C727.97 1011.55 727.836 1011.09 727.843 1010.72C727.859 1009.68 728.294 1008.62 729.102 1007.57C730.087 1006.29 731.176 1005.62 731.89 1005.99C732.629 1006.36 732.393 1007.26 732.062 1007.97C732.038 1008.03 732.036 1008.07 732.049 1008.12C732.061 1008.19 732.153 1008.26 732.242 1008.3C732.273 1008.31 732.29 1008.33 732.255 1008.41C732 1008.99 731.765 1009.32 731.445 1009.83C731.151 1010.29 730.82 1010.65 730.419 1011C729.952 1011.41 729.345 1011.84 728.773 1011.84C728.604 1011.84 728.438 1011.81 728.279 1011.72Z" fill="white"/>
        <path d="M704.169 994.073C700.481 994.401 696.972 996.594 696.965 999.925C696.962 1001.61 698.098 1002.98 699.858 1002.92C701.927 1002.85 703.626 1001.1 704.515 998.888C704.852 998.05 704.227 997.703 703.93 998.185C703.399 999.054 702.651 999.729 701.842 1000.15C700.869 1000.65 699.828 1000.52 699.513 999.68C699.069 998.502 699.991 996.738 702.095 995.908C705.134 994.72 708.313 995.506 711.372 996.114C711.416 996.114 711.579 996.209 711.435 996.289C710.886 996.604 710.348 996.861 709.507 997.625C708.905 998.17 708.116 998.896 707.506 999.686C706.901 1000.47 706.471 1001.16 705.903 1001.93C705.825 1002.04 705.727 1002.04 705.728 1002.04C704.344 1002.28 702.989 1002.45 701.748 1003.36C701.492 1003.55 701.38 1003.88 701.536 1004.13C701.675 1004.36 701.995 1004.38 702.217 1004.21C702.989 1003.6 703.782 1003.32 704.692 1003.29C704.732 1003.29 704.751 1003.3 704.762 1003.33C704.769 1003.34 704.765 1003.37 704.749 1003.39C703.385 1005.39 703.044 1005.84 702.018 1007.08C701.494 1007.72 700.978 1008.26 700.402 1008.82C698.073 1011.1 695.569 1011.06 694.67 1009.63C694.133 1008.77 694.204 1007.87 694.556 1007.12C694.989 1006.2 695.865 1005.53 696.592 1005.13C696.863 1004.99 696.94 1004.62 696.67 1004.29C696.498 1004.07 696.081 1004.04 695.77 1004.1C694.816 1004.28 693.689 1005.04 693.024 1005.96C692.273 1006.99 691.898 1008.24 692.024 1009.64C692.25 1012.17 694.221 1013.63 696.458 1013.61C698.239 1013.6 699.916 1013.03 701.934 1010.86C703.815 1008.84 705.529 1005.83 707.133 1003.03C707.184 1002.94 707.22 1002.9 707.463 1002.86C708.469 1002.73 709.955 1002.58 710.909 1002.52C711.12 1002.51 711.163 1002.51 711.248 1002.62C711.496 1002.95 711.868 1003.24 712.167 1003.41C712.313 1003.49 712.382 1003.53 712.496 1003.53C712.637 1003.54 712.747 1003.46 712.818 1003.37C712.92 1003.25 712.947 1003.1 712.893 1003C712.835 1002.9 712.171 1002.51 712.152 1002.35C712.137 1002.25 712.239 1002.23 712.239 1002.23C712.727 1002.07 713.235 1001.74 713.543 1001.11C713.845 1000.5 713.894 999.681 713.341 999.225C712.856 998.825 712.122 998.888 711.536 999.443C710.963 999.983 710.774 1000.77 710.852 1001.45C710.865 1001.57 710.859 1001.61 710.706 1001.63C709.825 1001.7 708.977 1001.73 708.034 1001.78C707.97 1001.78 707.95 1001.74 707.987 1001.69C709.073 999.7 710.695 998.28 712.489 996.881C712.608 996.788 712.571 996.608 712.567 996.459C715.806 997.202 718.936 998.586 722.297 998.556C723.687 998.545 725.018 998.321 726.289 997.585C727.407 996.94 727.861 996.343 727.894 995.724C727.92 995.295 727.639 995.025 727.237 995.117C723.842 995.942 720.603 995.932 717.225 995.501C713.391 995.009 709.71 994 705.896 994C705.323 994 704.748 994.022 704.169 994.073ZM711.75 1001.19C711.701 1000.81 711.818 1000.3 712.201 999.942C712.395 999.761 712.655 999.72 712.814 999.865C712.994 1000.03 712.909 1000.43 712.728 1000.71C712.531 1001.02 712.196 1001.28 711.891 1001.35C711.882 1001.35 711.874 1001.35 711.866 1001.35C711.815 1001.35 711.772 1001.31 711.75 1001.19Z" fill="white"/>
        <path d="M737.484 1000.02L740.174 1001.35L740.181 1001.34L740.188 1001.32L737.484 1000.02ZM733.815 1005.98L736.307 1007.65L736.345 1007.59L736.381 1007.53L733.815 1005.98ZM733.6 1005.94L736.591 1005.7L736.588 1005.66L736.585 1005.63L733.6 1005.94ZM732.433 1004.51L731.248 1007.27L731.254 1007.27L732.433 1004.51ZM730.881 1004.32L730.466 1001.35L730.456 1001.35L730.881 1004.32ZM728.336 1005.59L726.459 1003.25L726.456 1003.25L728.336 1005.59ZM724.992 1008.52L726.694 1010.99L726.698 1010.99L724.992 1008.52ZM722.748 1008.79L724.848 1006.65L724.846 1006.65L722.748 1008.79ZM723.112 1006.05L720.897 1004.03L720.892 1004.03L723.112 1006.05ZM723.296 1006.12L720.348 1005.57L720.348 1005.57L723.296 1006.12ZM723.624 1007.28L721.533 1009.44L721.547 1009.45L721.561 1009.46L723.624 1007.28ZM725.006 1007.44L726.381 1010.11L726.39 1010.11L726.399 1010.1L725.006 1007.44ZM725.968 1005.98L728.934 1006.42L728.935 1006.42L725.968 1005.98ZM724.516 1004.08L724.748 1001.09L724.739 1001.09L724.516 1004.08ZM722.433 1004.88L720.461 1002.62L720.457 1002.62L722.433 1004.88ZM721.611 1005.83L719.113 1004.17L719.108 1004.18L719.102 1004.19L721.611 1005.83ZM721.434 1005.79L718.435 1005.71L718.435 1005.72L718.434 1005.74L721.434 1005.79ZM720.006 1003.82L719.932 1006.82L719.935 1006.82L720.006 1003.82ZM717.812 1004.77L715.878 1002.47L715.871 1002.48L717.812 1004.77ZM715.87 1006.86L718.106 1008.86L718.111 1008.85L718.116 1008.85L715.87 1006.86ZM715.698 1006.77L712.699 1006.84L712.702 1007L712.722 1007.15L715.698 1006.77ZM715.12 1004.58L717.649 1002.96L717.645 1002.96L717.642 1002.95L715.12 1004.58ZM714.497 1004.42L715.992 1007.02L716.007 1007.01L716.021 1007L714.497 1004.42ZM713.765 1004.88L711.82 1002.59L711.81 1002.6L711.801 1002.61L713.765 1004.88ZM713.64 1005.37L710.745 1006.16L710.75 1006.17L710.754 1006.19L713.64 1005.37ZM713.439 1009.19L716.223 1010.31L716.225 1010.3L713.439 1009.19ZM711.167 1011.58L710.218 1008.73L710.214 1008.74L711.167 1011.58ZM709.413 1011.08L706.935 1012.77L706.94 1012.78L709.413 1011.08ZM709.929 1007.54L707.48 1005.81L707.476 1005.81L709.929 1007.54ZM712.885 1005.34L714.003 1008.13L714.01 1008.13L714.018 1008.12L712.885 1005.34ZM713.004 1005.09L710.141 1005.98L710.145 1006L713.004 1005.09ZM712.811 1004.52L715.663 1003.59L715.651 1003.55L715.638 1003.51L712.811 1004.52ZM712.085 1004.23L711.748 1001.25L711.732 1001.25L711.717 1001.25L712.085 1004.23ZM709.859 1005.02L708.381 1002.41L708.381 1002.41L709.859 1005.02ZM706.659 1009.2L709.467 1010.25L709.468 1010.25L706.659 1009.2ZM706.077 1010.34L708.474 1012.14L708.478 1012.13L706.077 1010.34ZM704.743 1011.7L702.704 1009.5L702.688 1009.52L702.673 1009.53L704.743 1011.7ZM704.688 1011.99L701.957 1013.23L701.96 1013.24L704.688 1011.99ZM705.205 1012.71L706.587 1010.05L706.544 1010.03L706.501 1010.01L705.205 1012.71ZM705.493 1012.65L703.744 1010.21L703.723 1010.23L703.701 1010.24L705.493 1012.65ZM706.802 1011.41L704.445 1009.56L704.428 1009.58L704.412 1009.6L706.802 1011.41ZM707.049 1011.53L709.948 1010.76L709.946 1010.75L707.049 1011.53ZM708.912 1013.62L709.919 1010.8L709.915 1010.8L708.912 1013.62ZM713.72 1011.82L711.46 1009.85L711.459 1009.85L713.72 1011.82ZM715.2 1009.8L712.816 1007.98L712.814 1007.98L715.2 1009.8ZM718.132 1006.43L720.008 1008.77L720.012 1008.76L718.132 1006.43ZM719.452 1005.95L717.756 1008.42L717.757 1008.42L719.452 1005.95ZM719.388 1007.16L716.726 1005.78L716.725 1005.78L719.388 1007.16ZM715.77 1013.43L718.434 1014.81L718.45 1014.78L718.464 1014.75L715.77 1013.43ZM715.886 1013.65V1016.65H715.893L715.901 1016.65L715.886 1013.65ZM717.889 1013.65V1016.65H717.968L718.048 1016.65L717.889 1013.65ZM718.092 1013.52L720.571 1015.21L720.617 1015.14L720.66 1015.07L718.092 1013.52ZM721.08 1008.6L723.63 1010.18L723.642 1010.16L723.653 1010.14L721.08 1008.6ZM721.192 1008.62L718.196 1008.76L718.196 1008.77L718.197 1008.78L721.192 1008.62ZM721.517 1009.87L724.082 1008.31L724.072 1008.29L724.061 1008.28L721.517 1009.87ZM723.058 1010.78L723.097 1007.78L723.086 1007.78L723.075 1007.78L723.058 1010.78ZM724.306 1010.5L723.212 1007.71L723.205 1007.71L724.306 1010.5ZM725.332 1009.92L723.558 1007.5L723.539 1007.51L723.521 1007.53L725.332 1009.92ZM725.507 1010.03L728.461 1010.55L728.472 1010.49L728.48 1010.43L725.507 1010.03ZM726.813 1013.58L725.425 1016.24L725.427 1016.25L726.813 1013.58ZM730.902 1012.28L728.738 1010.2L728.734 1010.2L730.902 1012.28ZM731.103 1012.4L728.106 1012.53L728.106 1012.55L728.107 1012.56L731.103 1012.4ZM731.58 1013.54L733.764 1011.48L733.762 1011.48L731.58 1013.54ZM735.58 1012.73L733.683 1010.41L733.681 1010.41L735.58 1012.73ZM738.665 1009.45L741.037 1011.28L741.055 1011.26L741.072 1011.24L738.665 1009.45ZM738.659 1009.24L740.902 1007.25L740.894 1007.24L740.886 1007.23L738.659 1009.24ZM738.148 1008.74L740.255 1006.61L740.201 1006.55L740.144 1006.5L738.148 1008.74ZM737.926 1008.75L736.067 1006.39L735.926 1006.5L735.8 1006.63L737.926 1008.75ZM734.728 1011.84L732.962 1009.42L732.951 1009.42L734.728 1011.84ZM733.277 1011.98L735.736 1010.26L735.73 1010.25L733.277 1011.98ZM733.289 1011.24L736.093 1012.31L736.094 1012.31L733.289 1011.24ZM739.98 1000.02L742.611 1001.47L742.62 1001.45L742.628 1001.43L739.98 1000.02ZM728.279 1011.72L729.742 1009.1L729.729 1009.09L729.717 1009.08L728.279 1011.72ZM727.843 1010.72L730.843 1010.77L730.843 1010.77L727.843 1010.72ZM729.102 1007.57L731.478 1009.4L731.481 1009.4L729.102 1007.57ZM731.89 1005.99L730.53 1008.66L730.537 1008.66L731.89 1005.99ZM732.062 1007.97L729.343 1006.7L729.328 1006.74L729.314 1006.77L732.062 1007.97ZM732.049 1008.12L735.007 1007.62L734.977 1007.44L734.926 1007.27L732.049 1008.12ZM732.242 1008.3L733.367 1005.52L733.338 1005.51L733.309 1005.49L732.242 1008.3ZM732.255 1008.41L729.526 1007.17L729.518 1007.18L729.51 1007.2L732.255 1008.41ZM731.445 1009.83L728.915 1008.21L728.909 1008.22L731.445 1009.83ZM730.419 1011L728.454 1008.73L728.449 1008.74L728.443 1008.74L730.419 1011ZM704.169 994.073L703.907 991.084L703.902 991.085L704.169 994.073ZM696.965 999.925L693.965 999.919L693.965 999.919L696.965 999.925ZM699.858 1002.92L699.961 1005.92L699.965 1005.92L699.858 1002.92ZM704.515 998.888L701.732 997.767L701.732 997.768L704.515 998.888ZM703.93 998.185L701.375 996.612L701.37 996.621L703.93 998.185ZM701.842 1000.15L703.22 1002.81L703.221 1002.81L701.842 1000.15ZM699.513 999.68L696.705 1000.74L696.706 1000.74L699.513 999.68ZM702.095 995.908L701.002 993.114L700.993 993.118L702.095 995.908ZM711.372 996.114L710.787 999.056L711.077 999.114H711.372V996.114ZM711.435 996.289L709.979 993.665L709.96 993.676L709.94 993.687L711.435 996.289ZM709.507 997.625L711.52 999.85L711.526 999.844L709.507 997.625ZM707.506 999.686L709.875 1001.53L709.881 1001.52L707.506 999.686ZM705.903 1001.93L703.489 1000.15L703.466 1000.18L703.445 1000.21L705.903 1001.93ZM705.728 1002.04L706.255 1004.99L705.728 999.037V1002.04ZM701.748 1003.36L703.517 1005.78L703.525 1005.78L701.748 1003.36ZM701.536 1004.13L698.979 1005.7L698.983 1005.71L701.536 1004.13ZM702.217 1004.21L704.046 1006.59L704.061 1006.58L704.076 1006.57L702.217 1004.21ZM704.692 1003.29L704.9 1000.3L704.753 1000.29L704.605 1000.29L704.692 1003.29ZM704.762 1003.33L702.011 1004.52L702.04 1004.59L702.071 1004.65L704.762 1003.33ZM704.749 1003.39L702.305 1001.65L702.288 1001.68L702.271 1001.7L704.749 1003.39ZM702.018 1007.08L699.707 1005.17L699.703 1005.18L702.018 1007.08ZM700.402 1008.82L698.313 1006.66L698.307 1006.67L698.3 1006.67L700.402 1008.82ZM694.67 1009.63L692.126 1011.22L692.128 1011.22L694.67 1009.63ZM694.556 1007.12L691.842 1005.84L691.841 1005.84L694.556 1007.12ZM696.592 1005.13L695.17 1002.49L695.166 1002.5L696.592 1005.13ZM696.67 1004.29L694.322 1006.16L694.332 1006.17L694.341 1006.18L696.67 1004.29ZM695.77 1004.1L696.345 1007.04L696.349 1007.04L695.77 1004.1ZM693.024 1005.96L695.448 1007.73L695.451 1007.72L693.024 1005.96ZM692.024 1009.64L689.036 1009.91L689.036 1009.91L692.024 1009.64ZM696.458 1013.61L696.481 1016.61L696.483 1016.61L696.458 1013.61ZM701.934 1010.86L704.129 1012.91L704.13 1012.91L701.934 1010.86ZM707.133 1003.03L709.735 1004.53L709.741 1004.52L709.746 1004.51L707.133 1003.03ZM707.463 1002.86L707.854 1005.84L707.857 1005.84L707.463 1002.86ZM710.909 1002.52L710.741 999.526L710.733 999.526L710.725 999.527L710.909 1002.52ZM711.248 1002.62L713.646 1000.82L713.638 1000.81L711.248 1002.62ZM712.167 1003.41L713.67 1000.81L713.66 1000.8L713.651 1000.8L712.167 1003.41ZM712.496 1003.53L712.424 1006.53L712.437 1006.53L712.496 1003.53ZM712.818 1003.37L710.546 1001.41L710.533 1001.43L710.519 1001.44L712.818 1003.37ZM712.893 1003L710.263 1004.45L710.267 1004.45L712.893 1003ZM712.152 1002.35L715.13 1001.99L715.125 1001.95L715.119 1001.91L712.152 1002.35ZM712.239 1002.23L712.935 1005.15L713.06 1005.12L713.183 1005.08L712.239 1002.23ZM713.543 1001.11L716.232 1002.44L716.234 1002.44L713.543 1001.11ZM713.341 999.225L711.432 1001.54L711.434 1001.54L713.341 999.225ZM711.536 999.443L713.593 1001.63L713.6 1001.62L711.536 999.443ZM710.852 1001.45L713.833 1001.12L713.833 1001.12L710.852 1001.45ZM710.706 1001.63L710.955 1004.62L710.966 1004.62L710.977 1004.61L710.706 1001.63ZM708.034 1001.78L707.866 998.785L707.833 998.787L707.799 998.789L708.034 1001.78ZM707.987 1001.69L710.328 1003.57L710.495 1003.36L710.622 1003.13L707.987 1001.69ZM712.489 996.881L714.334 999.247L714.34 999.242L714.346 999.238L712.489 996.881ZM712.567 996.459L713.238 993.535L709.448 992.665L709.568 996.551L712.567 996.459ZM722.297 998.556L722.272 995.556L722.271 995.556L722.297 998.556ZM726.289 997.585L724.79 994.986L724.785 994.989L726.289 997.585ZM727.894 995.724L724.9 995.545L724.899 995.554L724.899 995.562L727.894 995.724ZM727.237 995.117L726.57 992.192L726.549 992.197L726.529 992.202L727.237 995.117ZM717.225 995.501L716.843 998.476L716.845 998.477L717.225 995.501ZM711.75 1001.19L708.775 1001.57L708.785 1001.65L708.798 1001.72L711.75 1001.19ZM712.201 999.942L714.249 1002.13L714.25 1002.13L712.201 999.942ZM712.814 999.865L710.797 1002.09L710.805 1002.09L712.814 999.865ZM712.728 1000.71L710.208 999.082L710.205 999.087L712.728 1000.71ZM711.891 1001.35L712.465 1004.29L712.488 1004.29L712.511 1004.28L711.891 1001.35ZM737.788 996.854C737.694 996.854 737.002 996.832 736.269 997.197C735.4 997.629 734.973 998.321 734.779 998.727L740.188 1001.32C740.066 1001.58 739.715 1002.18 738.942 1002.57C738.601 1002.74 738.297 1002.8 738.104 1002.83C737.927 1002.85 737.797 1002.85 737.788 1002.85V996.854ZM734.794 998.696C734.811 998.66 734.685 998.882 734.328 999.465C734.021 999.966 733.625 1000.6 733.216 1001.26C732.412 1002.55 731.531 1003.96 731.248 1004.42L736.381 1007.53C736.637 1007.11 737.472 1005.78 738.308 1004.43C738.719 1003.77 739.125 1003.12 739.444 1002.6C739.713 1002.16 740.037 1001.63 740.174 1001.35L734.794 998.696ZM731.322 1004.31C731.453 1004.11 732.398 1002.8 734.189 1003.11C736.259 1003.47 736.564 1005.37 736.591 1005.7L730.61 1006.18C730.649 1006.66 731.016 1008.65 733.167 1009.02C735.039 1009.35 736.085 1007.98 736.307 1007.65L731.322 1004.31ZM736.585 1005.63C736.404 1003.87 735.156 1002.41 733.612 1001.75L731.254 1007.27C731.115 1007.21 730.993 1007.12 730.894 1006.99C730.807 1006.88 730.657 1006.64 730.616 1006.25L736.585 1005.63ZM733.618 1001.76C732.514 1001.28 731.439 1001.22 730.466 1001.35L731.296 1007.29C731.325 1007.29 731.34 1007.29 731.344 1007.29C731.347 1007.29 731.341 1007.29 731.327 1007.29C731.313 1007.29 731.297 1007.28 731.28 1007.28C731.264 1007.27 731.252 1007.27 731.248 1007.27L733.618 1001.76ZM730.456 1001.35C728.7 1001.6 727.338 1002.54 726.459 1003.25L730.212 1007.93C730.825 1007.44 731.159 1007.31 731.305 1007.29L730.456 1001.35ZM726.456 1003.25C725.768 1003.8 725.119 1004.44 724.643 1004.9C724.117 1005.4 723.706 1005.77 723.286 1006.06L726.698 1010.99C727.53 1010.42 728.228 1009.77 728.78 1009.24C729.383 1008.67 729.78 1008.27 730.215 1007.92L726.456 1003.25ZM723.29 1006.05C723.21 1006.11 723.151 1006.14 723.118 1006.16C723.08 1006.18 723.117 1006.15 723.222 1006.13C723.329 1006.11 723.575 1006.07 723.902 1006.14C724.259 1006.22 724.594 1006.4 724.848 1006.65L720.648 1010.93C721.889 1012.15 723.42 1012.22 724.474 1012C725.431 1011.79 726.216 1011.32 726.694 1010.99L723.29 1006.05ZM724.846 1006.65C725.408 1007.2 725.388 1007.77 725.375 1007.89C725.356 1008.07 725.299 1008.1 725.332 1008.07L720.892 1004.03C720.058 1004.95 719.535 1006.08 719.41 1007.25C719.29 1008.36 719.521 1009.83 720.65 1010.94L724.846 1006.65ZM725.327 1008.07C725.005 1008.43 724.497 1008.8 723.803 1008.94C723.103 1009.09 722.406 1008.97 721.831 1008.66C720.757 1008.09 720.103 1006.86 720.348 1005.57L726.243 1006.68C726.505 1005.3 725.806 1003.98 724.658 1003.37C723.244 1002.61 721.733 1003.11 720.897 1004.03L725.327 1008.07ZM720.348 1005.57C720.118 1006.79 720.365 1008.3 721.533 1009.44L725.714 1005.13C726.263 1005.67 726.311 1006.33 726.244 1006.68L720.348 1005.57ZM721.561 1009.46C722.993 1010.82 724.948 1010.85 726.381 1010.11L723.631 1004.78C724.137 1004.52 725.011 1004.47 725.686 1005.11L721.561 1009.46ZM726.399 1010.1C727.989 1009.27 728.735 1007.75 728.934 1006.42L723.001 1005.53C723.012 1005.46 723.116 1005.05 723.612 1004.79L726.399 1010.1ZM728.935 1006.42C729.328 1003.78 727.419 1001.29 724.748 1001.09L724.285 1007.07C723.387 1007 722.896 1006.24 723 1005.54L728.935 1006.42ZM724.739 1001.09C723.036 1000.96 721.584 1001.64 720.461 1002.62L724.404 1007.14C724.529 1007.03 724.573 1007.02 724.531 1007.04C724.51 1007.05 724.474 1007.06 724.427 1007.07C724.38 1007.07 724.334 1007.07 724.294 1007.07L724.739 1001.09ZM720.457 1002.62C719.903 1003.11 719.539 1003.53 719.113 1004.17L724.11 1007.49C724.215 1007.33 724.259 1007.28 724.273 1007.26C724.283 1007.25 724.308 1007.22 724.409 1007.14L720.457 1002.62ZM719.102 1004.19C719.254 1003.95 719.494 1003.67 719.861 1003.42C720.197 1003.19 720.879 1002.83 721.799 1002.93C722.875 1003.04 723.668 1003.69 724.073 1004.42C724.415 1005.04 724.438 1005.6 724.434 1005.84L718.434 1005.74C718.429 1006.06 718.465 1006.68 718.829 1007.34C719.256 1008.1 720.079 1008.78 721.191 1008.9C722.147 1008.99 722.87 1008.63 723.246 1008.37C723.653 1008.09 723.934 1007.76 724.121 1007.47L719.102 1004.19ZM724.433 1005.87C724.46 1004.91 724.31 1003.68 723.536 1002.6C722.661 1001.38 721.346 1000.85 720.076 1000.82L719.935 1006.82C719.826 1006.82 719.604 1006.79 719.336 1006.66C719.057 1006.53 718.825 1006.32 718.661 1006.1C718.366 1005.69 718.443 1005.42 718.435 1005.71L724.433 1005.87ZM720.08 1000.82C718.244 1000.78 716.729 1001.76 715.878 1002.47L719.745 1007.06C719.816 1007 719.887 1006.95 719.954 1006.9C720.021 1006.86 720.076 1006.83 720.113 1006.81C720.152 1006.8 720.159 1006.8 720.136 1006.8C720.112 1006.81 720.041 1006.82 719.932 1006.82L720.08 1000.82ZM715.871 1002.48C714.963 1003.25 714.087 1004.35 713.625 1004.87L718.116 1008.85C718.948 1007.91 719.279 1007.46 719.753 1007.05L715.871 1002.48ZM713.635 1004.86C713.737 1004.74 713.998 1004.47 714.428 1004.25C714.884 1004.01 715.789 1003.71 716.835 1004.11C717.824 1004.49 718.275 1005.24 718.441 1005.6C718.613 1005.97 718.659 1006.27 718.673 1006.39L712.722 1007.15C712.748 1007.35 712.811 1007.72 713.005 1008.14C713.193 1008.54 713.67 1009.32 714.69 1009.71C715.766 1010.13 716.705 1009.82 717.198 1009.57C717.664 1009.32 717.964 1009.02 718.106 1008.86L713.635 1004.86ZM718.697 1006.7C718.669 1005.51 718.393 1004.13 717.649 1002.96L712.59 1006.19C712.567 1006.15 712.597 1006.19 712.633 1006.33C712.667 1006.46 712.694 1006.64 712.699 1006.84L718.697 1006.7ZM717.642 1002.95C716.796 1001.64 714.82 1000.74 712.974 1001.83L716.021 1007C714.627 1007.82 713.188 1007.12 712.598 1006.2L717.642 1002.95ZM713.003 1001.81C713.022 1001.8 713.054 1001.79 712.95 1001.84C712.885 1001.88 712.788 1001.93 712.679 1001.99C712.479 1002.11 712.148 1002.31 711.82 1002.59L715.71 1007.16C715.67 1007.2 715.648 1007.21 715.654 1007.21C715.659 1007.2 715.675 1007.19 715.703 1007.18C715.73 1007.16 715.761 1007.14 715.801 1007.12C715.811 1007.12 715.821 1007.11 715.833 1007.1C715.843 1007.1 715.857 1007.09 715.871 1007.08C715.89 1007.07 715.94 1007.05 715.992 1007.02L713.003 1001.81ZM711.801 1002.61C710.681 1003.58 710.428 1004.99 710.745 1006.16L716.535 1004.58C716.617 1004.88 716.67 1005.34 716.529 1005.86C716.384 1006.41 716.079 1006.84 715.73 1007.15L711.801 1002.61ZM710.754 1006.19C710.921 1006.78 710.883 1007.5 710.653 1008.07L716.225 1010.3C716.943 1008.51 717.058 1006.43 716.526 1004.55L710.754 1006.19ZM710.655 1008.07C710.566 1008.29 710.437 1008.49 710.309 1008.63C710.176 1008.77 710.127 1008.77 710.218 1008.73L712.117 1014.43C714.212 1013.73 715.582 1011.9 716.223 1010.31L710.655 1008.07ZM710.214 1008.74C710.307 1008.71 710.566 1008.64 710.929 1008.73C711.343 1008.83 711.686 1009.09 711.886 1009.38L706.94 1012.78C708.328 1014.8 710.586 1014.94 712.121 1014.42L710.214 1008.74ZM711.891 1009.39C712.029 1009.59 712.074 1009.77 712.088 1009.85C712.101 1009.93 712.09 1009.95 712.098 1009.9C712.106 1009.85 712.126 1009.76 712.175 1009.64C712.223 1009.52 712.291 1009.4 712.381 1009.27L707.476 1005.81C706.806 1006.77 706.334 1007.87 706.164 1009.01C706 1010.11 706.085 1011.53 706.935 1012.77L711.891 1009.39ZM712.377 1009.28C712.693 1008.83 713.229 1008.44 714.003 1008.13L711.768 1002.56C710.349 1003.13 708.686 1004.11 707.48 1005.81L712.377 1009.28ZM714.018 1008.12C714.54 1007.91 715.343 1007.42 715.771 1006.41C716.176 1005.45 715.994 1004.59 715.864 1004.18L710.145 1006C710.051 1005.7 709.874 1004.95 710.244 1004.07C710.635 1003.15 711.36 1002.73 711.753 1002.57L714.018 1008.12ZM715.867 1004.19C715.822 1004.05 715.769 1003.89 715.733 1003.79C715.71 1003.72 715.701 1003.7 715.683 1003.65C715.677 1003.63 715.672 1003.61 715.668 1003.6C715.664 1003.59 715.662 1003.59 715.663 1003.59L709.959 1005.45C709.978 1005.51 710 1005.57 710.015 1005.62C710.028 1005.65 710.054 1005.73 710.066 1005.76C710.102 1005.87 710.127 1005.94 710.141 1005.98L715.867 1004.19ZM715.638 1003.51C715.252 1002.43 714.413 1001.72 713.486 1001.41C712.741 1001.16 712.066 1001.21 711.748 1001.25L712.422 1007.21C712.405 1007.21 712.325 1007.22 712.202 1007.22C712.082 1007.21 711.863 1007.19 711.592 1007.1C711.309 1007.01 710.964 1006.83 710.643 1006.53C710.315 1006.22 710.105 1005.86 709.985 1005.53L715.638 1003.51ZM711.717 1001.25C710.413 1001.41 709.313 1001.88 708.381 1002.41L711.337 1007.63C711.825 1007.35 712.164 1007.24 712.454 1007.21L711.717 1001.25ZM708.381 1002.41C705.539 1004.02 704.297 1006.95 703.85 1008.14L709.468 1010.25C709.628 1009.82 709.87 1009.27 710.213 1008.76C710.56 1008.23 710.939 1007.85 711.337 1007.63L708.381 1002.41ZM703.851 1008.14C703.778 1008.33 703.731 1008.44 703.705 1008.49C703.684 1008.53 703.677 1008.54 703.676 1008.54L708.478 1012.13C708.926 1011.54 709.214 1010.93 709.467 1010.25L703.851 1008.14ZM703.68 1008.53C703.575 1008.67 703.412 1008.85 702.704 1009.5L706.782 1013.9C707.42 1013.31 707.992 1012.78 708.474 1012.14L703.68 1008.53ZM702.673 1009.53C701.878 1010.29 701.276 1011.74 701.957 1013.23L707.418 1010.75C707.712 1011.39 707.711 1012.04 707.586 1012.55C707.469 1013.02 707.218 1013.49 706.813 1013.88L702.673 1009.53ZM701.96 1013.24C702.119 1013.59 702.367 1013.95 702.477 1014.11C702.556 1014.22 702.662 1014.37 702.779 1014.51C702.835 1014.58 702.926 1014.68 703.04 1014.8C703.082 1014.84 703.403 1015.17 703.909 1015.42L706.501 1010.01C706.789 1010.14 706.986 1010.3 707.067 1010.36C707.165 1010.44 707.236 1010.51 707.275 1010.55C707.351 1010.62 707.397 1010.68 707.406 1010.69C707.428 1010.72 707.423 1010.71 707.393 1010.67C707.368 1010.63 707.345 1010.6 707.331 1010.58C707.324 1010.56 707.325 1010.57 707.333 1010.58C707.334 1010.58 707.37 1010.64 707.415 1010.74L701.96 1013.24ZM703.824 1015.37C704.878 1015.92 705.862 1015.72 706.337 1015.56C706.813 1015.39 707.146 1015.16 707.284 1015.06L703.701 1010.24C703.789 1010.18 704.033 1010 704.405 1009.88C704.776 1009.75 705.642 1009.56 706.587 1010.05L703.824 1015.37ZM707.241 1015.09C707.904 1014.61 708.701 1013.88 709.193 1013.23L704.412 1009.6C704.42 1009.59 704.403 1009.61 704.35 1009.67C704.301 1009.72 704.236 1009.79 704.161 1009.86C704.002 1010.01 703.847 1010.14 703.744 1010.21L707.241 1015.09ZM709.16 1013.27C708.994 1013.48 708.623 1013.89 707.987 1014.14C707.249 1014.44 706.386 1014.43 705.62 1014.05C704.956 1013.72 704.6 1013.24 704.44 1012.98C704.269 1012.69 704.189 1012.45 704.152 1012.31L709.946 1010.75C709.884 1010.52 709.773 1010.2 709.566 1009.86C709.37 1009.54 708.973 1009.01 708.266 1008.66C707.457 1008.27 706.548 1008.25 705.762 1008.57C705.078 1008.84 704.659 1009.29 704.445 1009.56L709.16 1013.27ZM704.15 1012.3C704.635 1014.12 705.947 1015.76 707.909 1016.45L709.915 1010.8C709.932 1010.8 709.948 1010.81 709.961 1010.82C709.974 1010.83 709.98 1010.84 709.981 1010.84C709.983 1010.84 709.963 1010.82 709.948 1010.76L704.15 1012.3ZM707.905 1016.45C711.311 1017.66 714.294 1015.73 715.982 1013.79L711.459 1009.85C711.019 1010.35 710.61 1010.63 710.322 1010.75C710.074 1010.85 709.973 1010.82 709.919 1010.8L707.905 1016.45ZM715.981 1013.79C716.504 1013.19 716.868 1012.69 717.145 1012.28C717.498 1011.76 717.487 1011.75 717.585 1011.62L712.814 1007.98C712.663 1008.18 712.534 1008.37 712.441 1008.51C712.334 1008.68 712.266 1008.78 712.169 1008.93C711.999 1009.18 711.785 1009.48 711.46 1009.85L715.981 1013.79ZM717.583 1011.62C717.976 1011.11 718.234 1010.72 718.723 1010.11C719.169 1009.56 719.606 1009.09 720.008 1008.77L716.257 1004.08C714.59 1005.42 713.191 1007.49 712.816 1007.98L717.583 1011.62ZM720.012 1008.76C720.124 1008.67 720.131 1008.69 720.002 1008.75C719.937 1008.77 719.714 1008.86 719.375 1008.88C719.023 1008.9 718.39 1008.86 717.756 1008.42L721.148 1003.47C719.648 1002.44 718.091 1003.04 717.727 1003.19C717.128 1003.44 716.616 1003.8 716.253 1004.09L720.012 1008.76ZM717.757 1008.42C717.413 1008.19 717.107 1007.85 716.901 1007.44C716.699 1007.03 716.643 1006.65 716.641 1006.37C716.638 1005.87 716.804 1005.63 716.726 1005.78L722.05 1008.54C722.336 1007.99 722.647 1007.22 722.641 1006.33C722.635 1005.28 722.172 1004.17 721.147 1003.47L717.757 1008.42ZM716.725 1005.78C716.111 1006.96 715.337 1008.28 714.646 1009.43C714.031 1010.45 713.328 1011.59 713.075 1012.11L718.464 1014.75C718.463 1014.75 718.491 1014.69 718.575 1014.55C718.651 1014.41 718.751 1014.25 718.874 1014.04C719.132 1013.61 719.422 1013.13 719.789 1012.52C720.488 1011.36 721.345 1009.9 722.052 1008.54L716.725 1005.78ZM713.106 1012.05C712.79 1012.66 712.474 1013.8 713.109 1015C713.785 1016.27 715.03 1016.65 715.886 1016.65V1010.65C716.617 1010.65 717.772 1010.99 718.404 1012.17C718.997 1013.29 718.685 1014.32 718.434 1014.81L713.106 1012.05ZM715.901 1016.65C716.582 1016.65 717.248 1016.65 717.889 1016.65V1010.65C717.275 1010.65 716.572 1010.65 715.872 1010.65L715.901 1016.65ZM718.048 1016.65C718.612 1016.62 719.229 1016.44 719.786 1016.03C720.254 1015.68 720.516 1015.29 720.571 1015.21L715.614 1011.83C715.616 1011.82 715.828 1011.49 716.233 1011.19C716.728 1010.83 717.27 1010.68 717.729 1010.65L718.048 1016.65ZM720.66 1015.07C721.683 1013.38 722.62 1011.81 723.63 1010.18L718.53 1007.02C717.497 1008.68 716.527 1010.31 715.525 1011.96L720.66 1015.07ZM723.653 1010.14C723.514 1010.37 723.126 1010.95 722.341 1011.29C721.387 1011.72 720.382 1011.58 719.642 1011.14C719.025 1010.78 718.695 1010.3 718.535 1010C718.371 1009.69 718.22 1009.27 718.196 1008.76L724.189 1008.48C724.164 1007.95 724.005 1007.5 723.829 1007.17C723.656 1006.85 723.31 1006.34 722.672 1005.97C721.911 1005.52 720.882 1005.38 719.902 1005.81C719.091 1006.17 718.675 1006.77 718.507 1007.05L723.653 1010.14ZM718.197 1008.78C718.226 1009.31 718.347 1010.46 718.974 1011.46L724.061 1008.28C724.136 1008.4 724.172 1008.49 724.186 1008.52C724.202 1008.56 724.205 1008.58 724.203 1008.57C724.202 1008.57 724.198 1008.55 724.195 1008.52C724.191 1008.5 724.189 1008.47 724.188 1008.45L718.197 1008.78ZM718.953 1011.42C719.877 1012.95 721.388 1013.77 723.041 1013.78L723.075 1007.78C723.227 1007.78 723.453 1007.82 723.686 1007.95C723.92 1008.08 724.041 1008.24 724.082 1008.31L718.953 1011.42ZM723.019 1013.78C724.076 1013.79 724.746 1013.55 725.407 1013.29L723.205 1007.71C723.147 1007.73 723.1 1007.75 723.06 1007.77C723.02 1007.78 722.993 1007.79 722.973 1007.8C722.935 1007.81 722.942 1007.81 722.974 1007.8C722.991 1007.8 723.011 1007.79 723.033 1007.79C723.056 1007.79 723.076 1007.78 723.093 1007.78C723.127 1007.78 723.134 1007.78 723.097 1007.78L723.019 1013.78ZM725.4 1013.3C726.147 1013 726.727 1012.63 727.142 1012.31L723.521 1007.53C723.413 1007.61 723.313 1007.67 723.212 1007.71L725.4 1013.3ZM727.106 1012.34C726.843 1012.53 726.141 1012.97 725.135 1012.87C724.024 1012.76 723.334 1012.09 723.011 1011.63C722.719 1011.21 722.614 1010.81 722.572 1010.62C722.545 1010.5 722.467 1010.12 722.534 1009.62L728.48 1010.43C728.549 1009.92 728.469 1009.5 728.434 1009.34C728.383 1009.11 728.262 1008.67 727.944 1008.21C727.597 1007.71 726.871 1007.01 725.712 1006.9C724.659 1006.8 723.896 1007.25 723.558 1007.5L727.106 1012.34ZM722.553 1009.5C722.239 1011.28 722.402 1014.67 725.425 1016.24L728.201 1010.93C728.297 1010.98 728.377 1011.05 728.43 1011.12C728.476 1011.18 728.479 1011.21 728.468 1011.17C728.456 1011.13 728.439 1011.05 728.434 1010.93C728.429 1010.81 728.438 1010.68 728.461 1010.55L722.553 1009.5ZM725.427 1016.25C727.201 1017.17 728.964 1016.89 730.224 1016.36C731.44 1015.85 732.417 1015.03 733.069 1014.35L728.734 1010.2C728.602 1010.34 728.449 1010.48 728.29 1010.6C728.129 1010.72 727.997 1010.79 727.905 1010.83C727.813 1010.87 727.81 1010.85 727.883 1010.85C727.976 1010.85 728.097 1010.87 728.199 1010.92L725.427 1016.25ZM733.066 1014.36C732.91 1014.52 732.604 1014.8 732.127 1015C731.623 1015.21 730.77 1015.38 729.843 1014.98C728.937 1014.59 728.501 1013.88 728.319 1013.45C728.142 1013.03 728.113 1012.69 728.106 1012.53L734.1 1012.26C734.088 1012.01 734.043 1011.58 733.842 1011.11C733.636 1010.62 733.167 1009.88 732.224 1009.47C731.26 1009.06 730.364 1009.23 729.815 1009.46C729.293 1009.68 728.94 1009.99 728.738 1010.2L733.066 1014.36ZM728.107 1012.56C728.16 1013.55 728.552 1014.7 729.399 1015.6L733.762 1011.48C733.911 1011.64 733.984 1011.78 734.021 1011.87C734.058 1011.96 734.09 1012.08 734.098 1012.24L728.107 1012.56ZM729.397 1015.6C730.736 1017.02 732.535 1017.16 733.874 1016.88C735.194 1016.62 736.431 1015.91 737.479 1015.06L733.681 1010.41C733.418 1010.63 733.186 1010.78 733 1010.87C732.811 1010.97 732.702 1011 732.678 1011C732.651 1011.01 732.772 1010.98 732.993 1011.03C733.238 1011.09 733.527 1011.23 733.764 1011.48L729.397 1015.6ZM737.477 1015.06C738.75 1014.02 739.986 1012.64 741.037 1011.28L736.294 1007.61C735.395 1008.77 734.473 1009.76 733.683 1010.41L737.477 1015.06ZM741.072 1011.24C741.313 1010.91 741.638 1010.34 741.694 1009.57C741.757 1008.68 741.446 1007.86 740.902 1007.25L736.415 1011.23C735.942 1010.7 735.651 1009.95 735.709 1009.14C735.76 1008.43 736.054 1007.93 736.259 1007.65L741.072 1011.24ZM740.886 1007.23C740.725 1007.05 740.559 1006.89 740.462 1006.8C740.326 1006.67 740.298 1006.65 740.255 1006.61L736.042 1010.88C736.106 1010.94 736.168 1011 736.215 1011.04C736.275 1011.1 736.298 1011.12 736.344 1011.17C736.429 1011.25 736.444 1011.26 736.432 1011.25L740.886 1007.23ZM740.144 1006.5C738.65 1005.17 736.868 1005.76 736.067 1006.39L739.786 1011.1C739.343 1011.45 738.801 1011.66 738.222 1011.7C737.601 1011.74 736.813 1011.57 736.153 1010.98L740.144 1006.5ZM735.8 1006.63C734.489 1007.95 734.01 1008.65 732.962 1009.42L736.494 1014.27C738.046 1013.14 739.365 1011.55 740.052 1010.86L735.8 1006.63ZM732.951 1009.42C732.969 1009.41 733.101 1009.3 733.412 1009.25C733.585 1009.22 733.949 1009.18 734.406 1009.31C734.919 1009.45 735.403 1009.78 735.736 1010.26L730.819 1013.69C731.919 1015.27 733.624 1015.31 734.5 1015.15C735.348 1014.99 736.048 1014.59 736.505 1014.26L732.951 1009.42ZM735.73 1010.25C736.111 1010.79 736.201 1011.35 736.191 1011.74C736.182 1012.08 736.098 1012.3 736.093 1012.31L730.485 1010.18C730.288 1010.7 729.791 1012.24 730.824 1013.7L735.73 1010.25ZM736.094 1012.31C736.048 1012.43 736.062 1012.38 736.293 1011.96C736.477 1011.63 736.73 1011.19 737.036 1010.67C737.645 1009.64 738.432 1008.33 739.223 1007.03C740.75 1004.52 742.412 1001.83 742.611 1001.47L737.349 998.584C737.351 998.579 737.27 998.717 737.055 999.071C736.863 999.387 736.604 999.811 736.298 1000.31C735.686 1001.31 734.893 1002.61 734.096 1003.91C733.302 1005.22 732.497 1006.55 731.865 1007.63C731.55 1008.16 731.27 1008.65 731.052 1009.04C730.882 1009.34 730.625 1009.81 730.484 1010.18L736.094 1012.31ZM742.628 1001.43C742.989 1000.76 743.331 999.402 742.409 998.136C741.595 997.018 740.413 996.853 739.858 996.853V1002.85C739.422 1002.85 738.327 1002.72 737.558 1001.67C736.68 1000.46 737.024 999.193 737.332 998.615L742.628 1001.43ZM739.858 996.853C739.548 996.853 739.189 996.853 738.83 996.854C738.469 996.854 738.108 996.854 737.788 996.854V1002.85C738.112 1002.85 738.477 1002.85 738.837 1002.85C739.197 1002.85 739.552 1002.85 739.858 1002.85V996.853ZM729.717 1009.08C730.401 1009.46 730.659 1010 730.736 1010.2C730.824 1010.42 730.845 1010.61 730.843 1010.77L724.844 1010.67C724.834 1011.2 724.919 1011.8 725.149 1012.39C725.368 1012.95 725.847 1013.81 726.84 1014.35L729.717 1009.08ZM730.843 1010.77C730.846 1010.56 730.939 1010.1 731.478 1009.4L726.727 1005.74C725.649 1007.13 724.872 1008.81 724.843 1010.68L730.843 1010.77ZM731.481 1009.4C731.643 1009.19 731.789 1009.03 731.909 1008.91C731.967 1008.86 732.015 1008.82 732.051 1008.79C732.087 1008.76 732.104 1008.75 732.103 1008.76C732.101 1008.76 732.071 1008.77 732.013 1008.8C731.954 1008.82 731.855 1008.85 731.718 1008.87C731.429 1008.91 730.989 1008.89 730.53 1008.66L733.249 1003.31C731.569 1002.46 729.956 1003.06 729.093 1003.57C728.159 1004.11 727.362 1004.91 726.724 1005.74L731.481 1009.4ZM730.537 1008.66C730.195 1008.49 729.841 1008.18 729.61 1007.73C729.397 1007.32 729.374 1006.96 729.378 1006.79C729.382 1006.62 729.412 1006.53 729.405 1006.55C729.401 1006.57 729.384 1006.62 729.343 1006.7L734.78 1009.24C734.999 1008.77 735.354 1007.91 735.376 1006.92C735.388 1006.38 735.306 1005.68 734.94 1004.98C734.555 1004.23 733.954 1003.67 733.243 1003.31L730.537 1008.66ZM729.314 1006.77C729.032 1007.41 728.94 1008.19 729.172 1008.97L734.926 1007.27C735.015 1007.57 735.061 1007.92 735.032 1008.28C735.004 1008.64 734.911 1008.95 734.81 1009.18L729.314 1006.77ZM729.09 1008.62C729.26 1009.62 729.855 1010.23 730.13 1010.47C730.461 1010.76 730.825 1010.97 731.175 1011.1L733.309 1005.49C733.57 1005.59 733.843 1005.75 734.103 1005.98C734.306 1006.16 734.85 1006.69 735.007 1007.62L729.09 1008.62ZM731.117 1011.08C730.935 1011.01 730.564 1010.84 730.195 1010.48C729.783 1010.09 729.478 1009.58 729.346 1008.99C729.124 1008 729.487 1007.25 729.526 1007.17L734.984 1009.66C735.058 1009.5 735.43 1008.7 735.2 1007.67C734.886 1006.27 733.803 1005.69 733.367 1005.52L731.117 1011.08ZM729.51 1007.2C729.37 1007.52 729.289 1007.63 728.915 1008.21L733.975 1011.44C734.241 1011.02 734.63 1010.46 735 1009.62L729.51 1007.2ZM728.909 1008.22C728.801 1008.39 728.677 1008.54 728.454 1008.73L732.383 1013.27C732.963 1012.76 733.502 1012.18 733.981 1011.43L728.909 1008.22ZM728.443 1008.74C728.369 1008.81 728.304 1008.86 728.249 1008.9C728.192 1008.94 728.16 1008.96 728.152 1008.97C728.142 1008.97 728.184 1008.95 728.273 1008.92C728.363 1008.89 728.536 1008.84 728.773 1008.84V1014.84C729.791 1014.84 730.615 1014.47 731.119 1014.18C731.65 1013.88 732.091 1013.52 732.395 1013.26L728.443 1008.74ZM728.773 1008.84C729.075 1008.84 729.419 1008.92 729.742 1009.1L726.815 1014.34C727.456 1014.69 728.133 1014.84 728.773 1014.84V1008.84ZM703.902 991.085C701.598 991.29 699.242 992.079 697.385 993.474C695.498 994.891 693.971 997.083 693.965 999.919L699.965 999.93C699.966 999.436 700.198 998.865 700.988 998.272C701.809 997.655 703.052 997.184 704.435 997.061L703.902 991.085ZM693.965 999.919C693.96 1002.97 696.187 1006.05 699.961 1005.92L699.756 999.924C699.721 999.925 699.747 999.918 699.808 999.944C699.869 999.969 699.92 1000.01 699.955 1000.04C700.023 1000.12 699.965 1000.11 699.965 999.93L693.965 999.919ZM699.965 1005.92C703.762 1005.78 706.213 1002.7 707.298 1000.01L701.732 997.768C701.423 998.535 701.011 999.122 700.61 999.487C700.221 999.841 699.93 999.917 699.752 999.924L699.965 1005.92ZM707.297 1000.01C707.693 999.028 707.971 997.117 706.428 995.776C705.649 995.101 704.576 994.804 703.514 995.052C702.482 995.292 701.776 995.961 701.375 996.613L706.485 999.758C706.232 1000.17 705.716 1000.7 704.875 1000.9C704.003 1001.1 703.12 1000.85 702.493 1000.31C701.253 999.229 701.674 997.91 701.732 997.767L707.297 1000.01ZM701.37 996.621C701.127 997.019 700.789 997.315 700.463 997.483L703.221 1002.81C704.513 1002.14 705.672 1001.09 706.49 999.749L701.37 996.621ZM700.465 997.482C700.423 997.504 700.589 997.396 700.959 997.462C701.161 997.499 701.439 997.593 701.716 997.809C702.005 998.034 702.208 998.325 702.32 998.62L696.706 1000.74C697.287 1002.28 698.589 1003.13 699.902 1003.37C701.115 1003.59 702.289 1003.29 703.22 1002.81L700.465 997.482ZM702.321 998.623C702.42 998.887 702.41 999.097 702.393 999.2C702.377 999.3 702.352 999.318 702.383 999.268C702.446 999.169 702.671 998.906 703.196 998.699L700.993 993.118C699.415 993.741 698.127 994.774 697.314 996.059C696.529 997.298 696.061 999.024 696.705 1000.74L702.321 998.623ZM703.187 998.702C705.231 997.903 707.411 998.386 710.787 999.056L711.956 993.171C709.215 992.627 705.036 991.537 701.002 993.114L703.187 998.702ZM711.372 999.114C710.921 999.114 710.583 999.01 710.457 998.968C710.284 998.911 710.138 998.845 710.018 998.782C709.809 998.671 709.48 998.464 709.173 998.097C708.879 997.745 708.294 996.844 708.557 995.605C708.812 994.404 709.667 993.839 709.979 993.665L712.89 998.912C713.274 998.699 714.163 998.091 714.427 996.85C714.698 995.57 714.097 994.631 713.775 994.246C713.439 993.845 713.071 993.609 712.823 993.478C712.682 993.403 712.132 993.114 711.372 993.114V999.114ZM709.94 993.687C709.451 993.969 708.613 994.383 707.489 995.406L711.526 999.844C711.826 999.572 712.04 999.417 712.208 999.308C712.43 999.165 712.544 999.111 712.929 998.89L709.94 993.687ZM707.495 995.4C706.904 995.934 705.926 996.824 705.131 997.853L709.881 1001.52C710.306 1000.97 710.906 1000.4 711.52 999.85L707.495 995.4ZM705.137 997.846C704.781 998.304 704.483 998.729 704.223 999.106C703.953 999.496 703.738 999.812 703.489 1000.15L708.316 1003.71C708.636 1003.28 708.919 1002.86 709.158 1002.52C709.406 1002.16 709.626 1001.85 709.875 1001.53L705.137 997.846ZM703.445 1000.21C703.782 999.729 704.251 999.394 704.747 999.211C704.979 999.126 705.197 999.08 705.386 999.057C705.481 999.046 705.572 999.04 705.658 999.038C705.701 999.037 705.744 999.037 705.789 999.037C705.81 999.038 705.838 999.039 705.871 999.04C705.878 999.041 705.919 999.042 705.972 999.047C705.985 999.048 706.021 999.051 706.067 999.056C706.092 999.059 706.156 999.068 706.196 999.073C706.27 999.086 706.528 999.145 706.709 999.202C707.686 999.764 708.538 1003.09 706.819 1004.83C706.497 1004.94 706.062 1005.02 705.957 1005.03C705.832 1005.04 705.731 1005.04 705.728 1005.04V999.037C705.726 999.037 705.624 999.036 705.499 999.046C705.394 999.055 704.959 999.137 704.637 999.242C702.919 1000.99 703.77 1004.31 704.747 1004.87C704.928 1004.93 705.187 1004.99 705.26 1005C705.3 1005.01 705.364 1005.01 705.389 1005.02C705.435 1005.02 705.471 1005.03 705.484 1005.03C705.537 1005.03 705.578 1005.03 705.586 1005.03C705.619 1005.04 705.647 1005.04 705.669 1005.04C705.715 1005.04 705.761 1005.04 705.806 1005.04C705.897 1005.03 705.996 1005.03 706.101 1005.01C706.312 1004.99 706.559 1004.94 706.825 1004.84C707.389 1004.63 707.946 1004.24 708.361 1003.65L703.445 1000.21ZM705.201 999.084C704.055 999.288 701.895 999.53 699.972 1000.94L703.525 1005.78C704.082 1005.37 704.633 1005.28 706.255 1004.99L705.201 999.084ZM699.98 1000.94C698.874 1001.74 697.762 1003.72 698.979 1005.7L704.093 1002.57C704.516 1003.25 704.532 1004 704.366 1004.57C704.209 1005.1 703.887 1005.51 703.517 1005.78L699.98 1000.94ZM698.983 1005.71C700.297 1007.84 702.804 1007.55 704.046 1006.59L700.389 1001.83C700.872 1001.46 701.497 1001.27 702.15 1001.34C702.829 1001.41 703.607 1001.78 704.089 1002.56L698.983 1005.71ZM704.076 1006.57C704.361 1006.34 704.539 1006.3 704.779 1006.29L704.605 1000.29C703.026 1000.34 701.616 1000.87 700.359 1001.86L704.076 1006.57ZM704.485 1006.28C704.459 1006.28 703.978 1006.26 703.438 1006C703.121 1005.85 702.808 1005.63 702.534 1005.33C702.27 1005.04 702.109 1004.75 702.011 1004.52L707.512 1002.13C707.268 1001.57 706.8 1000.96 706.038 1000.6C705.475 1000.33 704.965 1000.3 704.9 1000.3L704.485 1006.28ZM702.071 1004.65C701.853 1004.21 701.791 1003.81 701.773 1003.55C701.753 1003.28 701.774 1003.04 701.809 1002.84C701.876 1002.46 702.029 1002.04 702.305 1001.65L707.192 1005.13C707.485 1004.72 707.648 1004.28 707.719 1003.87C707.774 1003.56 707.855 1002.82 707.452 1002L702.071 1004.65ZM702.271 1001.7C700.942 1003.65 700.657 1004.02 699.707 1005.17L704.33 1009C705.43 1007.67 705.827 1007.13 707.226 1005.09L702.271 1001.7ZM699.703 1005.18C699.271 1005.7 698.838 1006.15 698.313 1006.66L702.49 1010.97C703.118 1010.36 703.717 1009.74 704.334 1008.99L699.703 1005.18ZM698.3 1006.67C697.504 1007.46 696.907 1007.61 696.719 1007.63C696.63 1007.64 696.67 1007.62 696.794 1007.67C696.931 1007.73 697.095 1007.85 697.212 1008.04L692.128 1011.22C693.311 1013.11 695.393 1013.78 697.28 1013.6C699.151 1013.43 700.971 1012.46 702.503 1010.96L698.3 1006.67ZM697.214 1008.04C697.222 1008.05 697.241 1008.09 697.256 1008.14C697.272 1008.19 697.279 1008.25 697.28 1008.29C697.281 1008.39 697.257 1008.42 697.271 1008.39L691.841 1005.84C691.151 1007.31 690.94 1009.32 692.126 1011.22L697.214 1008.04ZM697.27 1008.4C697.277 1008.38 697.329 1008.29 697.485 1008.15C697.637 1008.01 697.829 1007.88 698.018 1007.77L695.166 1002.5C694.179 1003.03 692.665 1004.09 691.842 1005.84L697.27 1008.4ZM698.015 1007.78C699.006 1007.24 699.667 1006.27 699.809 1005.17C699.95 1004.07 699.564 1003.1 698.999 1002.4L694.341 1006.18C694.046 1005.82 693.757 1005.19 693.859 1004.4C693.962 1003.6 694.449 1002.88 695.17 1002.49L698.015 1007.78ZM699.018 1002.42C698.279 1001.49 697.289 1001.22 696.797 1001.14C696.232 1001.04 695.674 1001.06 695.192 1001.15L696.349 1007.04C696.177 1007.07 695.983 1007.09 695.747 1007.04C695.621 1007.02 695.421 1006.97 695.186 1006.86C694.95 1006.74 694.618 1006.53 694.322 1006.16L699.018 1002.42ZM695.196 1001.15C693.384 1001.51 691.635 1002.77 690.596 1004.2L695.451 1007.72C695.556 1007.58 695.741 1007.39 695.972 1007.24C696.216 1007.07 696.363 1007.04 696.345 1007.04L695.196 1001.15ZM690.599 1004.19C689.425 1005.8 688.845 1007.77 689.036 1009.91L695.012 1009.37C694.952 1008.7 695.122 1008.18 695.448 1007.73L690.599 1004.19ZM689.036 1009.91C689.418 1014.17 692.866 1016.64 696.481 1016.61L696.435 1010.61C695.971 1010.62 695.633 1010.47 695.428 1010.29C695.248 1010.14 695.057 1009.88 695.012 1009.37L689.036 1009.91ZM696.483 1016.61C697.712 1016.6 699.014 1016.4 700.37 1015.77C701.701 1015.15 702.929 1014.2 704.129 1012.91L699.74 1008.82C698.922 1009.7 698.302 1010.11 697.845 1010.32C697.412 1010.52 696.985 1010.61 696.434 1010.61L696.483 1016.61ZM704.13 1012.91C706.298 1010.58 708.193 1007.21 709.735 1004.53L704.531 1001.54C702.865 1004.44 701.332 1007.11 699.739 1008.82L704.13 1012.91ZM709.746 1004.51C709.732 1004.53 709.432 1005.11 708.758 1005.51C708.482 1005.67 708.24 1005.75 708.1 1005.79C707.963 1005.82 707.868 1005.84 707.854 1005.84L707.072 999.89C706.873 999.916 706.291 999.993 705.694 1000.35C704.928 1000.8 704.585 1001.44 704.521 1001.56L709.746 1004.51ZM707.857 1005.84C708.808 1005.71 710.222 1005.57 711.092 1005.52L710.725 999.527C709.689 999.59 708.131 999.75 707.069 999.89L707.857 1005.84ZM711.076 1005.52C711.144 1005.51 711.091 1005.52 711.015 1005.52C710.937 1005.52 710.671 1005.51 710.336 1005.42C709.944 1005.31 709.588 1005.12 709.289 1004.88C709.038 1004.68 708.889 1004.48 708.857 1004.44L713.638 1000.81C713.461 1000.58 712.924 999.907 711.915 999.632C711.532 999.527 711.211 999.518 711.063 999.517C710.916 999.515 710.779 999.524 710.741 999.526L711.076 1005.52ZM708.849 1004.43C709.419 1005.18 710.154 1005.71 710.684 1006.01L713.651 1000.8C713.652 1000.8 713.65 1000.8 713.646 1000.8C713.642 1000.79 713.637 1000.79 713.631 1000.78C713.624 1000.78 713.618 1000.78 713.612 1000.77C713.606 1000.77 713.6 1000.76 713.596 1000.76C713.591 1000.76 713.588 1000.75 713.587 1000.75C713.586 1000.75 713.587 1000.75 713.59 1000.75C713.593 1000.76 713.6 1000.76 713.609 1000.77C713.618 1000.79 713.63 1000.8 713.646 1000.82L708.849 1004.43ZM710.665 1006C710.687 1006.01 711.416 1006.51 712.424 1006.53L712.569 1000.53C712.718 1000.54 712.888 1000.56 713.07 1000.6C713.25 1000.64 713.4 1000.69 713.512 1000.74C713.616 1000.78 713.687 1000.82 713.702 1000.83C713.713 1000.83 713.718 1000.84 713.67 1000.81L710.665 1006ZM712.437 1006.53C713.83 1006.56 714.728 1005.76 715.118 1005.3L710.519 1001.44C710.767 1001.15 711.444 1000.51 712.556 1000.53L712.437 1006.53ZM715.09 1005.33C715.708 1004.61 716.378 1003.11 715.518 1001.55L710.267 1004.45C709.875 1003.75 709.882 1003.05 709.97 1002.6C710.062 1002.13 710.273 1001.73 710.546 1001.41L715.09 1005.33ZM715.522 1001.56C715.425 1001.38 715.327 1001.25 715.258 1001.16C715.187 1001.06 715.121 1000.99 715.071 1000.94C714.973 1000.83 714.885 1000.75 714.83 1000.7C714.722 1000.61 714.621 1000.53 714.567 1000.49C714.506 1000.44 714.445 1000.4 714.404 1000.37C714.355 1000.33 714.323 1000.31 714.291 1000.28C714.26 1000.26 714.245 1000.25 714.239 1000.25C714.231 1000.24 714.253 1000.26 714.291 1000.29C714.312 1000.31 714.345 1000.34 714.386 1000.38C714.425 1000.42 714.487 1000.49 714.556 1000.58C714.623 1000.67 714.728 1000.81 714.83 1001.01C714.928 1001.2 715.075 1001.54 715.13 1001.99L709.173 1002.71C709.23 1003.18 709.385 1003.54 709.495 1003.76C709.609 1003.98 709.73 1004.15 709.817 1004.26C709.985 1004.48 710.151 1004.64 710.243 1004.72C710.434 1004.89 710.63 1005.04 710.725 1005.11C710.893 1005.23 710.878 1005.22 710.943 1005.27C710.96 1005.28 710.921 1005.25 710.86 1005.2C710.829 1005.17 710.761 1005.11 710.68 1005.02C710.619 1004.96 710.433 1004.76 710.263 1004.45L715.522 1001.56ZM715.119 1001.91C715.198 1002.44 715.13 1003.02 714.876 1003.56C714.635 1004.08 714.293 1004.42 714.026 1004.63C713.764 1004.83 713.519 1004.95 713.358 1005.01C713.271 1005.05 713.192 1005.07 713.124 1005.1C713.089 1005.11 713.056 1005.12 713.025 1005.12C713.009 1005.13 712.994 1005.13 712.979 1005.14C712.972 1005.14 712.964 1005.14 712.957 1005.14C712.953 1005.14 712.95 1005.14 712.946 1005.15C712.944 1005.15 712.942 1005.15 712.941 1005.15C712.94 1005.15 712.938 1005.15 712.938 1005.15C712.937 1005.15 712.935 1005.15 712.239 1002.23C711.543 999.312 711.541 999.312 711.54 999.312C711.54 999.312 711.538 999.313 711.537 999.313C711.536 999.313 711.534 999.314 711.532 999.314C711.528 999.315 711.525 999.316 711.521 999.317C711.513 999.319 711.506 999.321 711.498 999.323C711.483 999.327 711.467 999.331 711.451 999.335C711.418 999.344 711.383 999.354 711.345 999.366C711.271 999.389 711.185 999.419 711.089 999.458C710.909 999.531 710.639 999.661 710.353 999.882C709.685 1000.4 708.982 1001.43 709.184 1002.79L715.119 1001.91ZM713.183 1005.08C714.256 1004.72 715.494 1003.94 716.232 1002.44L710.854 999.783C710.902 999.684 710.983 999.583 711.084 999.502C711.176 999.428 711.255 999.395 711.295 999.382L713.183 1005.08ZM716.234 1002.44C716.768 1001.35 717.426 998.703 715.248 996.909L711.434 1001.54C710.931 1001.13 710.785 1000.59 710.768 1000.28C710.753 1000.01 710.816 999.859 710.852 999.787L716.234 1002.44ZM715.249 996.91C713.296 995.299 710.851 995.96 709.472 997.266L713.6 1001.62C713.484 1001.73 713.225 1001.91 712.807 1001.96C712.371 1002.01 711.855 1001.89 711.432 1001.54L715.249 996.91ZM709.48 997.259C708.068 998.588 707.713 1000.39 707.87 1001.79L713.833 1001.12C713.837 1001.16 713.837 1001.21 713.813 1001.29C713.786 1001.37 713.722 1001.51 713.593 1001.63L709.48 997.259ZM707.87 1001.78C707.87 1001.78 707.865 1001.74 707.861 1001.69C707.858 1001.63 707.852 1001.52 707.86 1001.37C707.875 1001.09 707.95 1000.47 708.397 999.84C708.859 999.191 709.455 998.9 709.813 998.776C710.132 998.666 710.386 998.644 710.435 998.639L710.977 1004.61C711.102 1004.6 711.414 1004.57 711.777 1004.45C712.179 1004.31 712.804 1004 713.285 1003.32C713.751 1002.67 713.834 1002.01 713.852 1001.69C713.867 1001.39 713.836 1001.15 713.833 1001.12L707.87 1001.78ZM710.456 998.638C709.626 998.707 708.908 998.726 707.866 998.785L708.202 1004.78C709.045 1004.73 710.023 1004.69 710.955 1004.62L710.456 998.638ZM707.799 998.789C708.341 998.747 709.86 998.856 710.644 1000.39C711.401 1001.87 710.674 1003.14 710.328 1003.57L705.647 999.818C705.263 1000.3 704.529 1001.61 705.301 1003.12C706.102 1004.69 707.663 1004.82 708.269 1004.77L707.799 998.789ZM710.622 1003.13C711.394 1001.71 712.588 1000.61 714.334 999.247L710.645 994.515C708.803 995.952 706.753 997.688 705.352 1000.26L710.622 1003.13ZM714.346 999.238C715.371 998.43 715.537 997.34 715.567 996.893C715.583 996.664 715.572 996.474 715.568 996.404C715.56 996.262 715.565 996.356 715.565 996.366L709.568 996.551C709.571 996.636 709.582 996.808 709.578 996.745C709.578 996.744 709.576 996.717 709.576 996.678C709.575 996.638 709.575 996.572 709.581 996.489C709.601 996.193 709.726 995.239 710.632 994.525L714.346 999.238ZM711.896 999.383C713.478 999.746 714.732 1000.19 716.602 1000.69C718.302 1001.15 720.236 1001.57 722.324 1001.56L722.271 995.556C720.998 995.568 719.686 995.312 718.17 994.902C716.826 994.538 714.895 993.915 713.238 993.535L711.896 999.383ZM722.323 1001.56C724.025 1001.54 725.922 1001.26 727.793 1000.18L724.785 994.989C724.113 995.378 723.348 995.547 722.272 995.556L722.323 1001.56ZM727.788 1000.18C729.13 999.409 730.77 998.093 730.89 995.886L724.899 995.562C724.909 995.368 724.954 995.181 725.024 995.017C725.091 994.858 725.164 994.759 725.199 994.717C725.232 994.679 725.23 994.69 725.161 994.743C725.093 994.797 724.975 994.879 724.79 994.986L727.788 1000.18ZM730.889 995.903C730.942 995.018 730.69 993.89 729.775 993.034C728.816 992.138 727.579 991.962 726.57 992.192L727.905 998.042C727.297 998.18 726.401 998.094 725.677 997.416C724.996 996.78 724.872 996.001 724.9 995.545L730.889 995.903ZM726.529 992.202C723.59 992.916 720.738 992.925 717.605 992.525L716.845 998.477C720.468 998.94 724.094 998.967 727.945 998.032L726.529 992.202ZM717.607 992.525C715.761 992.288 714.051 991.942 712.048 991.607C710.124 991.285 708.055 991 705.896 991V997C707.551 997 709.23 997.219 711.058 997.525C712.807 997.817 714.854 998.221 716.843 998.476L717.607 992.525ZM705.896 991C705.246 991 704.583 991.025 703.907 991.084L704.43 997.062C704.913 997.019 705.401 997 705.896 997V991ZM714.725 1000.8C714.759 1001.06 714.731 1001.28 714.668 1001.48C714.6 1001.69 714.47 1001.93 714.249 1002.13L710.154 997.749C708.961 998.863 708.621 1000.38 708.775 1001.57L714.725 1000.8ZM714.25 1002.13C713.955 1002.41 713.509 1002.68 712.92 1002.75C712.302 1002.84 711.476 1002.7 710.797 1002.09L714.832 997.645C713.043 996.019 710.951 997.004 710.153 997.75L714.25 1002.13ZM710.805 1002.09C710.282 1001.62 710.06 1001.07 709.974 1000.68C709.891 1000.3 709.911 1000.01 709.934 999.836C709.979 999.511 710.087 999.27 710.208 999.082L715.248 1002.34C715.551 1001.87 715.791 1001.29 715.879 1000.65C715.944 1000.17 716.035 998.731 714.824 997.638L710.805 1002.09ZM710.205 999.087C710.299 998.941 710.403 998.832 710.518 998.744C710.616 998.668 710.862 998.499 711.27 998.412L712.511 1004.28C713.812 1004.01 714.753 1003.11 715.252 1002.33L710.205 999.087ZM711.317 998.403C711.548 998.358 711.741 998.35 711.866 998.35V1004.35C712.006 1004.35 712.216 1004.34 712.465 1004.29L711.317 998.403ZM711.866 998.35C712.229 998.35 712.667 998.419 713.116 998.632C713.566 998.846 713.907 999.147 714.148 999.451C714.578 999.994 714.679 1000.52 714.702 1000.65L708.798 1001.72C708.844 1001.98 708.977 1002.59 709.447 1003.18C710.054 1003.95 710.955 1004.35 711.866 1004.35V998.35Z" fill="black" mask="url(#path-66-outside-38_0_1)"/>
      </g>
    </g>
  </g>
</svg>