<?xml version="1.0" encoding="UTF-8" standalone="yes"?>
<svg width="119" height="119" viewBox="0 0 119 119" fill="none" xmlns="http://www.w3.org/2000/svg">
  <g id="Mercedes Sprinter" transform="translate(-656.5 -1304.5)">
    <g id="Vector_38">
      <mask id="path-96-outside-54_0_1" maskUnits="userSpaceOnUse" x="689" y="1343" width="48" height="38" fill="black">
        <rect fill="white" x="689" y="1343" width="48" height="38"/>
        <path d="M694.389 1346C693.07 1346 692 1347.1 692 1348.46V1371.08C692 1372.44 693.201 1373.68 694.52 1373.68H697.959C698.359 1376.13 700.426 1378 702.92 1378C705.414 1378 707.481 1376.13 707.881 1373.68H715.651C716.967 1373.68 718.04 1372.57 718.04 1371.22V1348.51C718.04 1347.13 716.98 1346 715.677 1346H694.389ZM719.72 1352.05V1373.68C720.124 1376.12 722.266 1378 724.76 1378C727.254 1378 729.321 1376.12 729.721 1373.68H731.48C732.799 1373.68 734 1372.44 734 1371.08V1362.76C734 1361.02 732.783 1359.24 732.635 1359.03L729.144 1354.22C728.343 1353.22 727.086 1352.05 725.6 1352.05H719.72ZM723.92 1356.38H728.619L731.296 1360.05C731.582 1360.47 732.32 1361.74 732.32 1362.76V1363.3H723.92C723.08 1363.3 722.24 1362.43 722.24 1361.57V1358.11C722.24 1357.15 723.08 1356.38 723.92 1356.38ZM702.92 1369.35C704.774 1369.35 706.28 1370.9 706.28 1372.81C706.28 1374.72 704.774 1376.27 702.92 1376.27C701.066 1376.27 699.56 1374.72 699.56 1372.81C699.56 1370.9 701.066 1369.35 702.92 1369.35ZM724.76 1369.35C726.614 1369.35 728.12 1370.9 728.12 1372.81C728.12 1374.72 726.614 1376.27 724.76 1376.27C722.906 1376.27 721.4 1374.72 721.4 1372.81C721.4 1370.9 722.906 1369.35 724.76 1369.35Z"/>
      </mask>
      <path d="M694.389 1346C693.07 1346 692 1347.1 692 1348.46V1371.08C692 1372.44 693.201 1373.68 694.52 1373.68H697.959C698.359 1376.13 700.426 1378 702.92 1378C705.414 1378 707.481 1376.13 707.881 1373.68H715.651C716.967 1373.68 718.04 1372.57 718.04 1371.22V1348.51C718.04 1347.13 716.98 1346 715.677 1346H694.389ZM719.72 1352.05V1373.68C720.124 1376.12 722.266 1378 724.76 1378C727.254 1378 729.321 1376.12 729.721 1373.68H731.48C732.799 1373.68 734 1372.44 734 1371.08V1362.76C734 1361.02 732.783 1359.24 732.635 1359.03L729.144 1354.22C728.343 1353.22 727.086 1352.05 725.6 1352.05H719.72ZM723.92 1356.38H728.619L731.296 1360.05C731.582 1360.47 732.32 1361.74 732.32 1362.76V1363.3H723.92C723.08 1363.3 722.24 1362.43 722.24 1361.57V1358.11C722.24 1357.15 723.08 1356.38 723.92 1356.38ZM702.92 1369.35C704.774 1369.35 706.28 1370.9 706.28 1372.81C706.28 1374.72 704.774 1376.27 702.92 1376.27C701.066 1376.27 699.56 1374.72 699.56 1372.81C699.56 1370.9 701.066 1369.35 702.92 1369.35ZM724.76 1369.35C726.614 1369.35 728.12 1370.9 728.12 1372.81C728.12 1374.72 726.614 1376.27 724.76 1376.27C722.906 1376.27 721.4 1374.72 721.4 1372.81C721.4 1370.9 722.906 1369.35 724.76 1369.35Z" fill="white"/>
      <path d="M694.389 1346C693.07 1346 692 1347.1 692 1348.46V1371.08C692 1372.44 693.201 1373.68 694.52 1373.68H697.959C698.359 1376.13 700.426 1378 702.92 1378C705.414 1378 707.481 1376.13 707.881 1373.68H715.651C716.967 1373.68 718.04 1372.57 718.04 1371.22V1348.51C718.04 1347.13 716.98 1346 715.677 1346H694.389ZM719.72 1352.05V1373.68C720.124 1376.12 722.266 1378 724.76 1378C727.254 1378 729.321 1376.12 729.721 1373.68H731.48C732.799 1373.68 734 1372.44 734 1371.08V1362.76C734 1361.02 732.783 1359.24 732.635 1359.03L729.144 1354.22C728.343 1353.22 727.086 1352.05 725.6 1352.05H719.72ZM723.92 1356.38H728.619L731.296 1360.05C731.582 1360.47 732.32 1361.74 732.32 1362.76V1363.3H723.92C723.08 1363.3 722.24 1362.43 722.24 1361.57V1358.11C722.24 1357.15 723.08 1356.38 723.92 1356.38ZM702.92 1369.35C704.774 1369.35 706.28 1370.9 706.28 1372.81C706.28 1374.72 704.774 1376.27 702.92 1376.27C701.066 1376.27 699.56 1374.72 699.56 1372.81C699.56 1370.9 701.066 1369.35 702.92 1369.35ZM724.76 1369.35C726.614 1369.35 728.12 1370.9 728.12 1372.81C728.12 1374.72 726.614 1376.27 724.76 1376.27C722.906 1376.27 721.4 1374.72 721.4 1372.81C721.4 1370.9 722.906 1369.35 724.76 1369.35Z" stroke="black" stroke-width="6" mask="url(#path-96-outside-54_0_1)"/>
    </g>
    <g id="path9939">
      <mask id="path-97-outside-55_0_1" maskUnits="userSpaceOnUse" x="716" y="1361" width="28" height="28" fill="black">
        <rect fill="white" x="716" y="1361" width="28" height="28"/>
        <path fill-rule="evenodd" clip-rule="evenodd" d="M728.334 1374.04L729.832 1365.07C724.432 1365.17 720.072 1369.57 720.072 1375C720.072 1376.69 720.535 1378.31 721.302 1379.8L728.334 1374.04ZM729.989 1376.92L721.482 1380.12C723.25 1383.08 726.552 1384.92 730 1384.92C733.466 1384.92 736.724 1383.08 738.513 1380.12L729.989 1376.92ZM731.656 1374.04L738.698 1379.8C739.488 1378.33 739.941 1376.69 739.941 1375C739.941 1369.52 735.599 1365.23 730.181 1365.06L731.656 1374.04ZM741 1375C741 1381.05 736.044 1386 730 1386C723.96 1386 719 1381.05 719 1375C719 1368.95 723.956 1364 730 1364C736.048 1364 741 1368.95 741 1375Z"/>
      </mask>
      <path fill-rule="evenodd" clip-rule="evenodd" d="M728.334 1374.04L729.832 1365.07C724.432 1365.17 720.072 1369.57 720.072 1375C720.072 1376.69 720.535 1378.31 721.302 1379.8L728.334 1374.04ZM729.989 1376.92L721.482 1380.12C723.25 1383.08 726.552 1384.92 730 1384.92C733.466 1384.92 736.724 1383.08 738.513 1380.12L729.989 1376.92ZM731.656 1374.04L738.698 1379.8C739.488 1378.33 739.941 1376.69 739.941 1375C739.941 1369.52 735.599 1365.23 730.181 1365.06L731.656 1374.04ZM741 1375C741 1381.05 736.044 1386 730 1386C723.96 1386 719 1381.05 719 1375C719 1368.95 723.956 1364 730 1364C736.048 1364 741 1368.95 741 1375Z" fill="white"/>
      <path fill-rule="evenodd" clip-rule="evenodd" d="M728.334 1374.04L729.832 1365.07C724.432 1365.17 720.072 1369.57 720.072 1375C720.072 1376.69 720.535 1378.31 721.302 1379.8L728.334 1374.04ZM729.989 1376.92L721.482 1380.12C723.25 1383.08 726.552 1384.92 730 1384.92C733.466 1384.92 736.724 1383.08 738.513 1380.12L729.989 1376.92ZM731.656 1374.04L738.698 1379.8C739.488 1378.33 739.941 1376.69 739.941 1375C739.941 1369.52 735.599 1365.23 730.181 1365.06L731.656 1374.04ZM741 1375C741 1381.05 736.044 1386 730 1386C723.96 1386 719 1381.05 719 1375C719 1368.95 723.956 1364 730 1364C736.048 1364 741 1368.95 741 1375Z" stroke="black" stroke-width="6" mask="url(#path-97-outside-55_0_1)"/>
    </g>
  </g>
</svg>