<?xml version="1.0" encoding="UTF-8" standalone="yes"?>
<svg width="119" height="119" viewBox="0 0 119 119" fill="none" xmlns="http://www.w3.org/2000/svg">
  <g id="Opel Corsa Elegance" transform="translate(-776.5 -824.5)">
    <g id="Vector_20">
      <mask id="path-60-outside-34_0_1" maskUnits="userSpaceOnUse" x="809" y="862" width="54" height="43" fill="black">
        <rect fill="white" x="809" y="862" width="54" height="43"/>
        <path d="M836 899.857C826.908 899.857 819.511 892.518 819.511 883.499C819.511 883.034 819.535 882.574 819.575 882.119L833.36 882.973L827.394 887.063C827.313 887.119 827.26 887.212 827.26 887.316C827.26 887.486 827.399 887.627 827.571 887.627H851.959C850.109 894.654 843.655 899.857 836 899.857ZM836 867.142C845.095 867.142 852.49 874.48 852.49 883.499C852.49 883.962 852.466 884.419 852.428 884.871H852.42L838.636 884.001L844.618 879.935C844.701 879.879 844.752 879.786 844.752 879.682C844.752 879.509 844.612 879.371 844.441 879.371H820.044C821.891 872.344 828.346 867.142 836 867.142ZM859.641 885.326L854.584 885.007C854.624 884.509 854.651 884.007 854.651 883.499C854.651 873.299 846.285 865 836 865C827.147 865 819.722 871.152 817.824 879.37H813.703C813.469 879.37 813.263 879.48 813.132 879.65L812.078 881.094C812.03 881.155 812 881.232 812 881.315C812 881.512 812.161 881.671 812.362 881.671L816.856 881.948L817.419 881.985C817.379 882.485 817.352 882.988 817.352 883.498C817.352 893.698 825.718 902 836 902C844.853 902 852.281 895.845 854.176 887.627H858.3C858.533 887.627 858.74 887.518 858.871 887.348L859.925 885.903C859.973 885.842 860 885.765 860 885.682C860 885.486 859.839 885.326 859.641 885.326Z"/>
      </mask>
      <path d="M836 899.857C826.908 899.857 819.511 892.518 819.511 883.499C819.511 883.034 819.535 882.574 819.575 882.119L833.36 882.973L827.394 887.063C827.313 887.119 827.26 887.212 827.26 887.316C827.26 887.486 827.399 887.627 827.571 887.627H851.959C850.109 894.654 843.655 899.857 836 899.857ZM836 867.142C845.095 867.142 852.49 874.48 852.49 883.499C852.49 883.962 852.466 884.419 852.428 884.871H852.42L838.636 884.001L844.618 879.935C844.701 879.879 844.752 879.786 844.752 879.682C844.752 879.509 844.612 879.371 844.441 879.371H820.044C821.891 872.344 828.346 867.142 836 867.142ZM859.641 885.326L854.584 885.007C854.624 884.509 854.651 884.007 854.651 883.499C854.651 873.299 846.285 865 836 865C827.147 865 819.722 871.152 817.824 879.37H813.703C813.469 879.37 813.263 879.48 813.132 879.65L812.078 881.094C812.03 881.155 812 881.232 812 881.315C812 881.512 812.161 881.671 812.362 881.671L816.856 881.948L817.419 881.985C817.379 882.485 817.352 882.988 817.352 883.498C817.352 893.698 825.718 902 836 902C844.853 902 852.281 895.845 854.176 887.627H858.3C858.533 887.627 858.74 887.518 858.871 887.348L859.925 885.903C859.973 885.842 860 885.765 860 885.682C860 885.486 859.839 885.326 859.641 885.326Z" fill="white"/>
      <path d="M836 899.857C826.908 899.857 819.511 892.518 819.511 883.499C819.511 883.034 819.535 882.574 819.575 882.119L833.36 882.973L827.394 887.063C827.313 887.119 827.26 887.212 827.26 887.316C827.26 887.486 827.399 887.627 827.571 887.627H851.959C850.109 894.654 843.655 899.857 836 899.857ZM836 867.142C845.095 867.142 852.49 874.48 852.49 883.499C852.49 883.962 852.466 884.419 852.428 884.871H852.42L838.636 884.001L844.618 879.935C844.701 879.879 844.752 879.786 844.752 879.682C844.752 879.509 844.612 879.371 844.441 879.371H820.044C821.891 872.344 828.346 867.142 836 867.142ZM859.641 885.326L854.584 885.007C854.624 884.509 854.651 884.007 854.651 883.499C854.651 873.299 846.285 865 836 865C827.147 865 819.722 871.152 817.824 879.37H813.703C813.469 879.37 813.263 879.48 813.132 879.65L812.078 881.094C812.03 881.155 812 881.232 812 881.315C812 881.512 812.161 881.671 812.362 881.671L816.856 881.948L817.419 881.985C817.379 882.485 817.352 882.988 817.352 883.498C817.352 893.698 825.718 902 836 902C844.853 902 852.281 895.845 854.176 887.627H858.3C858.533 887.627 858.74 887.518 858.871 887.348L859.925 885.903C859.973 885.842 860 885.765 860 885.682C860 885.486 859.839 885.326 859.641 885.326Z" stroke="black" stroke-width="6" mask="url(#path-60-outside-34_0_1)"/>
    </g>
    <g id="C_2">
      <mask id="path-61-outside-35_0_1" maskUnits="userSpaceOnUse" x="833.797" y="880.936" width="32" height="33" fill="black">
        <rect fill="white" x="833.797" y="880.936" width="32" height="33"/>
        <path d="M850.765 910.432C848.797 910.432 846.961 910.108 845.257 909.46C843.577 908.788 842.101 907.852 840.829 906.652C839.557 905.452 838.561 904.048 837.841 902.44C837.145 900.808 836.797 899.044 836.797 897.148C836.797 895.228 837.145 893.464 837.841 891.856C838.561 890.248 839.545 888.856 840.793 887.68C842.065 886.504 843.541 885.592 845.221 884.944C846.901 884.272 848.725 883.936 850.693 883.936C852.685 883.936 854.509 884.248 856.165 884.872C857.821 885.496 859.261 886.36 860.485 887.464L855.697 892.288C855.121 891.664 854.413 891.172 853.573 890.812C852.757 890.452 851.797 890.272 850.693 890.272C849.733 890.272 848.845 890.428 848.029 890.74C847.237 891.052 846.553 891.508 845.977 892.108C845.401 892.708 844.945 893.44 844.609 894.304C844.297 895.144 844.141 896.092 844.141 897.148C844.141 898.228 844.297 899.2 844.609 900.064C844.945 900.904 845.401 901.624 845.977 902.224C846.553 902.824 847.237 903.292 848.029 903.628C848.845 903.94 849.733 904.096 850.693 904.096C851.773 904.096 852.733 903.928 853.573 903.592C854.437 903.256 855.181 902.764 855.805 902.116L860.629 906.94C859.357 908.044 857.929 908.908 856.345 909.532C854.761 910.132 852.901 910.432 850.765 910.432Z"/>
      </mask>
      <path d="M850.765 910.432C848.797 910.432 846.961 910.108 845.257 909.46C843.577 908.788 842.101 907.852 840.829 906.652C839.557 905.452 838.561 904.048 837.841 902.44C837.145 900.808 836.797 899.044 836.797 897.148C836.797 895.228 837.145 893.464 837.841 891.856C838.561 890.248 839.545 888.856 840.793 887.68C842.065 886.504 843.541 885.592 845.221 884.944C846.901 884.272 848.725 883.936 850.693 883.936C852.685 883.936 854.509 884.248 856.165 884.872C857.821 885.496 859.261 886.36 860.485 887.464L855.697 892.288C855.121 891.664 854.413 891.172 853.573 890.812C852.757 890.452 851.797 890.272 850.693 890.272C849.733 890.272 848.845 890.428 848.029 890.74C847.237 891.052 846.553 891.508 845.977 892.108C845.401 892.708 844.945 893.44 844.609 894.304C844.297 895.144 844.141 896.092 844.141 897.148C844.141 898.228 844.297 899.2 844.609 900.064C844.945 900.904 845.401 901.624 845.977 902.224C846.553 902.824 847.237 903.292 848.029 903.628C848.845 903.94 849.733 904.096 850.693 904.096C851.773 904.096 852.733 903.928 853.573 903.592C854.437 903.256 855.181 902.764 855.805 902.116L860.629 906.94C859.357 908.044 857.929 908.908 856.345 909.532C854.761 910.132 852.901 910.432 850.765 910.432Z" fill="white"/>
      <path d="M850.765 910.432C848.797 910.432 846.961 910.108 845.257 909.46C843.577 908.788 842.101 907.852 840.829 906.652C839.557 905.452 838.561 904.048 837.841 902.44C837.145 900.808 836.797 899.044 836.797 897.148C836.797 895.228 837.145 893.464 837.841 891.856C838.561 890.248 839.545 888.856 840.793 887.68C842.065 886.504 843.541 885.592 845.221 884.944C846.901 884.272 848.725 883.936 850.693 883.936C852.685 883.936 854.509 884.248 856.165 884.872C857.821 885.496 859.261 886.36 860.485 887.464L855.697 892.288C855.121 891.664 854.413 891.172 853.573 890.812C852.757 890.452 851.797 890.272 850.693 890.272C849.733 890.272 848.845 890.428 848.029 890.74C847.237 891.052 846.553 891.508 845.977 892.108C845.401 892.708 844.945 893.44 844.609 894.304C844.297 895.144 844.141 896.092 844.141 897.148C844.141 898.228 844.297 899.2 844.609 900.064C844.945 900.904 845.401 901.624 845.977 902.224C846.553 902.824 847.237 903.292 848.029 903.628C848.845 903.94 849.733 904.096 850.693 904.096C851.773 904.096 852.733 903.928 853.573 903.592C854.437 903.256 855.181 902.764 855.805 902.116L860.629 906.94C859.357 908.044 857.929 908.908 856.345 909.532C854.761 910.132 852.901 910.432 850.765 910.432Z" stroke="black" stroke-width="6" mask="url(#path-61-outside-35_0_1)"/>
    </g>
  </g>
</svg>