<?xml version="1.0" encoding="UTF-8" standalone="yes"?>
<svg width="119" height="119" viewBox="0 0 119 119" fill="none" xmlns="http://www.w3.org/2000/svg">
  <g id="Opel Corsa GS" transform="translate(-896.5 -824.5)">
    <g id="Vector_21">
      <mask id="path-63-outside-36_0_1" maskUnits="userSpaceOnUse" x="929" y="862" width="54" height="43" fill="black">
        <rect fill="white" x="929" y="862" width="54" height="43"/>
        <path d="M956 899.857C946.908 899.857 939.511 892.518 939.511 883.499C939.511 883.034 939.535 882.574 939.575 882.119L953.36 882.973L947.394 887.063C947.313 887.119 947.26 887.212 947.26 887.316C947.26 887.486 947.399 887.627 947.571 887.627H971.959C970.109 894.654 963.655 899.857 956 899.857ZM956 867.142C965.095 867.142 972.49 874.48 972.49 883.499C972.49 883.962 972.466 884.419 972.428 884.871H972.42L958.636 884.001L964.618 879.935C964.701 879.879 964.752 879.786 964.752 879.682C964.752 879.509 964.612 879.371 964.441 879.371H940.044C941.891 872.344 948.346 867.142 956 867.142ZM979.641 885.326L974.584 885.007C974.624 884.509 974.651 884.007 974.651 883.499C974.651 873.299 966.285 865 956 865C947.147 865 939.722 871.152 937.824 879.37H933.703C933.469 879.37 933.263 879.48 933.132 879.65L932.078 881.094C932.03 881.155 932 881.232 932 881.315C932 881.512 932.161 881.671 932.362 881.671L936.856 881.948L937.419 881.985C937.379 882.485 937.352 882.988 937.352 883.498C937.352 893.698 945.718 902 956 902C964.853 902 972.281 895.845 974.176 887.627H978.3C978.533 887.627 978.74 887.518 978.871 887.348L979.925 885.903C979.973 885.842 980 885.765 980 885.682C980 885.486 979.839 885.326 979.641 885.326Z"/>
      </mask>
      <path d="M956 899.857C946.908 899.857 939.511 892.518 939.511 883.499C939.511 883.034 939.535 882.574 939.575 882.119L953.36 882.973L947.394 887.063C947.313 887.119 947.26 887.212 947.26 887.316C947.26 887.486 947.399 887.627 947.571 887.627H971.959C970.109 894.654 963.655 899.857 956 899.857ZM956 867.142C965.095 867.142 972.49 874.48 972.49 883.499C972.49 883.962 972.466 884.419 972.428 884.871H972.42L958.636 884.001L964.618 879.935C964.701 879.879 964.752 879.786 964.752 879.682C964.752 879.509 964.612 879.371 964.441 879.371H940.044C941.891 872.344 948.346 867.142 956 867.142ZM979.641 885.326L974.584 885.007C974.624 884.509 974.651 884.007 974.651 883.499C974.651 873.299 966.285 865 956 865C947.147 865 939.722 871.152 937.824 879.37H933.703C933.469 879.37 933.263 879.48 933.132 879.65L932.078 881.094C932.03 881.155 932 881.232 932 881.315C932 881.512 932.161 881.671 932.362 881.671L936.856 881.948L937.419 881.985C937.379 882.485 937.352 882.988 937.352 883.498C937.352 893.698 945.718 902 956 902C964.853 902 972.281 895.845 974.176 887.627H978.3C978.533 887.627 978.74 887.518 978.871 887.348L979.925 885.903C979.973 885.842 980 885.765 980 885.682C980 885.486 979.839 885.326 979.641 885.326Z" fill="white"/>
      <path d="M956 899.857C946.908 899.857 939.511 892.518 939.511 883.499C939.511 883.034 939.535 882.574 939.575 882.119L953.36 882.973L947.394 887.063C947.313 887.119 947.26 887.212 947.26 887.316C947.26 887.486 947.399 887.627 947.571 887.627H971.959C970.109 894.654 963.655 899.857 956 899.857ZM956 867.142C965.095 867.142 972.49 874.48 972.49 883.499C972.49 883.962 972.466 884.419 972.428 884.871H972.42L958.636 884.001L964.618 879.935C964.701 879.879 964.752 879.786 964.752 879.682C964.752 879.509 964.612 879.371 964.441 879.371H940.044C941.891 872.344 948.346 867.142 956 867.142ZM979.641 885.326L974.584 885.007C974.624 884.509 974.651 884.007 974.651 883.499C974.651 873.299 966.285 865 956 865C947.147 865 939.722 871.152 937.824 879.37H933.703C933.469 879.37 933.263 879.48 933.132 879.65L932.078 881.094C932.03 881.155 932 881.232 932 881.315C932 881.512 932.161 881.671 932.362 881.671L936.856 881.948L937.419 881.985C937.379 882.485 937.352 882.988 937.352 883.498C937.352 893.698 945.718 902 956 902C964.853 902 972.281 895.845 974.176 887.627H978.3C978.533 887.627 978.74 887.518 978.871 887.348L979.925 885.903C979.973 885.842 980 885.765 980 885.682C980 885.486 979.839 885.326 979.641 885.326Z" stroke="black" stroke-width="6" mask="url(#path-63-outside-36_0_1)"/>
    </g>
    <g id="Cs">
      <mask id="path-64-outside-37_0_1" maskUnits="userSpaceOnUse" x="950.216" y="884.624" width="35" height="24" fill="black">
        <rect fill="white" x="950.216" y="884.624" width="35" height="24"/>
        <path d="M962.528 905.288C961.216 905.288 959.992 905.072 958.856 904.64C957.736 904.192 956.752 903.568 955.904 902.768C955.056 901.968 954.392 901.032 953.912 899.96C953.448 898.872 953.216 897.696 953.216 896.432C953.216 895.152 953.448 893.976 953.912 892.904C954.392 891.832 955.048 890.904 955.88 890.12C956.728 889.336 957.712 888.728 958.832 888.296C959.952 887.848 961.168 887.624 962.48 887.624C963.808 887.624 965.024 887.832 966.128 888.248C967.232 888.664 968.192 889.24 969.008 889.976L965.816 893.192C965.432 892.776 964.96 892.448 964.4 892.208C963.856 891.968 963.216 891.848 962.48 891.848C961.84 891.848 961.248 891.952 960.704 892.16C960.176 892.368 959.72 892.672 959.336 893.072C958.952 893.472 958.648 893.96 958.424 894.536C958.216 895.096 958.112 895.728 958.112 896.432C958.112 897.152 958.216 897.8 958.424 898.376C958.648 898.936 958.952 899.416 959.336 899.816C959.72 900.216 960.176 900.528 960.704 900.752C961.248 900.96 961.84 901.064 962.48 901.064C963.2 901.064 963.84 900.952 964.4 900.728C964.976 900.504 965.472 900.176 965.888 899.744L969.104 902.96C968.256 903.696 967.304 904.272 966.248 904.688C965.192 905.088 963.952 905.288 962.528 905.288Z"/>
        <path d="M975.184 905.36C974.448 905.36 973.712 905.264 972.976 905.072C972.24 904.88 971.552 904.616 970.912 904.28C970.288 903.944 969.76 903.56 969.328 903.128L971.8 900.584C972.184 900.968 972.64 901.272 973.168 901.496C973.712 901.72 974.28 901.832 974.872 901.832C975.144 901.832 975.352 901.8 975.496 901.736C975.656 901.656 975.736 901.552 975.736 901.424C975.736 901.2 975.6 901.032 975.328 900.92C975.072 900.808 974.736 900.704 974.32 900.608C973.92 900.512 973.488 900.392 973.024 900.248C972.576 900.088 972.144 899.88 971.728 899.624C971.312 899.352 970.976 898.984 970.72 898.52C970.464 898.04 970.336 897.432 970.336 896.696C970.336 895.944 970.544 895.28 970.96 894.704C971.392 894.112 971.992 893.648 972.76 893.312C973.544 892.96 974.448 892.784 975.472 892.784C976.512 892.784 977.52 892.96 978.496 893.312C979.472 893.664 980.248 894.192 980.824 894.896L978.328 897.44C977.928 896.992 977.488 896.696 977.008 896.552C976.528 896.392 976.128 896.312 975.808 896.312C975.504 896.312 975.288 896.36 975.16 896.456C975.048 896.536 974.992 896.64 974.992 896.768C974.992 896.944 975.12 897.088 975.376 897.2C975.632 897.312 975.96 897.416 976.36 897.512C976.776 897.608 977.208 897.736 977.656 897.896C978.104 898.056 978.528 898.28 978.928 898.568C979.344 898.856 979.68 899.24 979.936 899.72C980.192 900.184 980.32 900.792 980.32 901.544C980.32 902.712 979.856 903.64 978.928 904.328C978 905.016 976.752 905.36 975.184 905.36Z"/>
      </mask>
      <path d="M962.528 905.288C961.216 905.288 959.992 905.072 958.856 904.64C957.736 904.192 956.752 903.568 955.904 902.768C955.056 901.968 954.392 901.032 953.912 899.96C953.448 898.872 953.216 897.696 953.216 896.432C953.216 895.152 953.448 893.976 953.912 892.904C954.392 891.832 955.048 890.904 955.88 890.12C956.728 889.336 957.712 888.728 958.832 888.296C959.952 887.848 961.168 887.624 962.48 887.624C963.808 887.624 965.024 887.832 966.128 888.248C967.232 888.664 968.192 889.24 969.008 889.976L965.816 893.192C965.432 892.776 964.96 892.448 964.4 892.208C963.856 891.968 963.216 891.848 962.48 891.848C961.84 891.848 961.248 891.952 960.704 892.16C960.176 892.368 959.72 892.672 959.336 893.072C958.952 893.472 958.648 893.96 958.424 894.536C958.216 895.096 958.112 895.728 958.112 896.432C958.112 897.152 958.216 897.8 958.424 898.376C958.648 898.936 958.952 899.416 959.336 899.816C959.72 900.216 960.176 900.528 960.704 900.752C961.248 900.96 961.84 901.064 962.48 901.064C963.2 901.064 963.84 900.952 964.4 900.728C964.976 900.504 965.472 900.176 965.888 899.744L969.104 902.96C968.256 903.696 967.304 904.272 966.248 904.688C965.192 905.088 963.952 905.288 962.528 905.288Z" fill="white"/>
      <path d="M975.184 905.36C974.448 905.36 973.712 905.264 972.976 905.072C972.24 904.88 971.552 904.616 970.912 904.28C970.288 903.944 969.76 903.56 969.328 903.128L971.8 900.584C972.184 900.968 972.64 901.272 973.168 901.496C973.712 901.72 974.28 901.832 974.872 901.832C975.144 901.832 975.352 901.8 975.496 901.736C975.656 901.656 975.736 901.552 975.736 901.424C975.736 901.2 975.6 901.032 975.328 900.92C975.072 900.808 974.736 900.704 974.32 900.608C973.92 900.512 973.488 900.392 973.024 900.248C972.576 900.088 972.144 899.88 971.728 899.624C971.312 899.352 970.976 898.984 970.72 898.52C970.464 898.04 970.336 897.432 970.336 896.696C970.336 895.944 970.544 895.28 970.96 894.704C971.392 894.112 971.992 893.648 972.76 893.312C973.544 892.96 974.448 892.784 975.472 892.784C976.512 892.784 977.52 892.96 978.496 893.312C979.472 893.664 980.248 894.192 980.824 894.896L978.328 897.44C977.928 896.992 977.488 896.696 977.008 896.552C976.528 896.392 976.128 896.312 975.808 896.312C975.504 896.312 975.288 896.36 975.16 896.456C975.048 896.536 974.992 896.64 974.992 896.768C974.992 896.944 975.12 897.088 975.376 897.2C975.632 897.312 975.96 897.416 976.36 897.512C976.776 897.608 977.208 897.736 977.656 897.896C978.104 898.056 978.528 898.28 978.928 898.568C979.344 898.856 979.68 899.24 979.936 899.72C980.192 900.184 980.32 900.792 980.32 901.544C980.32 902.712 979.856 903.64 978.928 904.328C978 905.016 976.752 905.36 975.184 905.36Z" fill="white"/>
      <path d="M962.528 905.288C961.216 905.288 959.992 905.072 958.856 904.64C957.736 904.192 956.752 903.568 955.904 902.768C955.056 901.968 954.392 901.032 953.912 899.96C953.448 898.872 953.216 897.696 953.216 896.432C953.216 895.152 953.448 893.976 953.912 892.904C954.392 891.832 955.048 890.904 955.88 890.12C956.728 889.336 957.712 888.728 958.832 888.296C959.952 887.848 961.168 887.624 962.48 887.624C963.808 887.624 965.024 887.832 966.128 888.248C967.232 888.664 968.192 889.24 969.008 889.976L965.816 893.192C965.432 892.776 964.96 892.448 964.4 892.208C963.856 891.968 963.216 891.848 962.48 891.848C961.84 891.848 961.248 891.952 960.704 892.16C960.176 892.368 959.72 892.672 959.336 893.072C958.952 893.472 958.648 893.96 958.424 894.536C958.216 895.096 958.112 895.728 958.112 896.432C958.112 897.152 958.216 897.8 958.424 898.376C958.648 898.936 958.952 899.416 959.336 899.816C959.72 900.216 960.176 900.528 960.704 900.752C961.248 900.96 961.84 901.064 962.48 901.064C963.2 901.064 963.84 900.952 964.4 900.728C964.976 900.504 965.472 900.176 965.888 899.744L969.104 902.96C968.256 903.696 967.304 904.272 966.248 904.688C965.192 905.088 963.952 905.288 962.528 905.288Z" stroke="black" stroke-width="6" mask="url(#path-64-outside-37_0_1)"/>
      <path d="M975.184 905.36C974.448 905.36 973.712 905.264 972.976 905.072C972.24 904.88 971.552 904.616 970.912 904.28C970.288 903.944 969.76 903.56 969.328 903.128L971.8 900.584C972.184 900.968 972.64 901.272 973.168 901.496C973.712 901.72 974.28 901.832 974.872 901.832C975.144 901.832 975.352 901.8 975.496 901.736C975.656 901.656 975.736 901.552 975.736 901.424C975.736 901.2 975.6 901.032 975.328 900.92C975.072 900.808 974.736 900.704 974.32 900.608C973.92 900.512 973.488 900.392 973.024 900.248C972.576 900.088 972.144 899.88 971.728 899.624C971.312 899.352 970.976 898.984 970.72 898.52C970.464 898.04 970.336 897.432 970.336 896.696C970.336 895.944 970.544 895.28 970.96 894.704C971.392 894.112 971.992 893.648 972.76 893.312C973.544 892.96 974.448 892.784 975.472 892.784C976.512 892.784 977.52 892.96 978.496 893.312C979.472 893.664 980.248 894.192 980.824 894.896L978.328 897.44C977.928 896.992 977.488 896.696 977.008 896.552C976.528 896.392 976.128 896.312 975.808 896.312C975.504 896.312 975.288 896.36 975.16 896.456C975.048 896.536 974.992 896.64 974.992 896.768C974.992 896.944 975.12 897.088 975.376 897.2C975.632 897.312 975.96 897.416 976.36 897.512C976.776 897.608 977.208 897.736 977.656 897.896C978.104 898.056 978.528 898.28 978.928 898.568C979.344 898.856 979.68 899.24 979.936 899.72C980.192 900.184 980.32 900.792 980.32 901.544C980.32 902.712 979.856 903.64 978.928 904.328C978 905.016 976.752 905.36 975.184 905.36Z" stroke="black" stroke-width="6" mask="url(#path-64-outside-37_0_1)"/>
    </g>
  </g>
</svg>