<?xml version="1.0" encoding="UTF-8" standalone="yes"?>
<svg width="119" height="119" viewBox="0 0 119 119" fill="none" xmlns="http://www.w3.org/2000/svg">
  <g id="Opel Vivaro" transform="translate(-776.5 -1064.5)">
    <g id="Vector_27">
      <mask id="path-78-outside-44_0_1" maskUnits="userSpaceOnUse" x="810" y="1106" width="52" height="36" fill="black">
        <rect fill="white" x="810" y="1106" width="52" height="36"/>
        <path d="M858.008 1123.81L855.385 1120.53L850.724 1111.48C849.933 1109.95 848.362 1109 846.623 1109H816.68C814.65 1109 813 1110.63 813 1112.64V1131.73C813 1133.73 814.65 1135.36 816.68 1135.36H819.533C819.961 1137.43 821.819 1139 824.04 1139C826.261 1139 828.119 1137.43 828.547 1135.36H846.213C846.641 1137.43 848.499 1139 850.72 1139C852.941 1139 854.799 1137.43 855.227 1135.36H856.24C857.76 1135.36 859 1134.14 859 1132.64V1126.63C859 1125.61 858.648 1124.6 858.008 1123.81ZM849.085 1112.31L853.361 1120.61L845.671 1120.02C845.279 1119.98 844.948 1119.71 844.851 1119.33L842.699 1110.82H846.623C847.669 1110.82 848.61 1111.39 849.085 1112.31ZM824.04 1137.18C822.52 1137.18 821.28 1135.96 821.28 1134.45C821.28 1132.95 822.52 1131.73 824.04 1131.73C825.56 1131.73 826.8 1132.95 826.8 1134.45C826.8 1135.96 825.56 1137.18 824.04 1137.18ZM850.72 1137.18C849.2 1137.18 847.96 1135.96 847.96 1134.45C847.96 1132.95 849.2 1131.73 850.72 1131.73C852.24 1131.73 853.48 1132.95 853.48 1134.45C853.48 1135.96 852.24 1137.18 850.72 1137.18Z"/>
      </mask>
      <path d="M858.008 1123.81L855.385 1120.53L850.724 1111.48C849.933 1109.95 848.362 1109 846.623 1109H816.68C814.65 1109 813 1110.63 813 1112.64V1131.73C813 1133.73 814.65 1135.36 816.68 1135.36H819.533C819.961 1137.43 821.819 1139 824.04 1139C826.261 1139 828.119 1137.43 828.547 1135.36H846.213C846.641 1137.43 848.499 1139 850.72 1139C852.941 1139 854.799 1137.43 855.227 1135.36H856.24C857.76 1135.36 859 1134.14 859 1132.64V1126.63C859 1125.61 858.648 1124.6 858.008 1123.81ZM849.085 1112.31L853.361 1120.61L845.671 1120.02C845.279 1119.98 844.948 1119.71 844.851 1119.33L842.699 1110.82H846.623C847.669 1110.82 848.61 1111.39 849.085 1112.31ZM824.04 1137.18C822.52 1137.18 821.28 1135.96 821.28 1134.45C821.28 1132.95 822.52 1131.73 824.04 1131.73C825.56 1131.73 826.8 1132.95 826.8 1134.45C826.8 1135.96 825.56 1137.18 824.04 1137.18ZM850.72 1137.18C849.2 1137.18 847.96 1135.96 847.96 1134.45C847.96 1132.95 849.2 1131.73 850.72 1131.73C852.24 1131.73 853.48 1132.95 853.48 1134.45C853.48 1135.96 852.24 1137.18 850.72 1137.18Z" fill="white"/>
      <path d="M858.008 1123.81L855.385 1120.53L850.724 1111.48C849.933 1109.95 848.362 1109 846.623 1109H816.68C814.65 1109 813 1110.63 813 1112.64V1131.73C813 1133.73 814.65 1135.36 816.68 1135.36H819.533C819.961 1137.43 821.819 1139 824.04 1139C826.261 1139 828.119 1137.43 828.547 1135.36H846.213C846.641 1137.43 848.499 1139 850.72 1139C852.941 1139 854.799 1137.43 855.227 1135.36H856.24C857.76 1135.36 859 1134.14 859 1132.64V1126.63C859 1125.61 858.648 1124.6 858.008 1123.81ZM849.085 1112.31L853.361 1120.61L845.671 1120.02C845.279 1119.98 844.948 1119.71 844.851 1119.33L842.699 1110.82H846.623C847.669 1110.82 848.61 1111.39 849.085 1112.31ZM824.04 1137.18C822.52 1137.18 821.28 1135.96 821.28 1134.45C821.28 1132.95 822.52 1131.73 824.04 1131.73C825.56 1131.73 826.8 1132.95 826.8 1134.45C826.8 1135.96 825.56 1137.18 824.04 1137.18ZM850.72 1137.18C849.2 1137.18 847.96 1135.96 847.96 1134.45C847.96 1132.95 849.2 1131.73 850.72 1131.73C852.24 1131.73 853.48 1132.95 853.48 1134.45C853.48 1135.96 852.24 1137.18 850.72 1137.18Z" stroke="black" stroke-width="6" mask="url(#path-78-outside-44_0_1)"/>
    </g>
    <g id="Vector_28">
      <mask id="path-79-outside-45_0_1" maskUnits="userSpaceOnUse" x="833" y="1121" width="36" height="28" fill="black">
        <rect fill="white" x="833" y="1121" width="36" height="28"/>
        <path d="M851 1144.73C845.318 1144.73 840.694 1140.36 840.694 1135C840.694 1134.72 840.709 1134.45 840.734 1134.18L849.35 1134.69L845.621 1137.12C845.571 1137.15 845.537 1137.21 845.537 1137.27C845.537 1137.37 845.624 1137.45 845.732 1137.45H860.975C859.818 1141.63 855.785 1144.73 851 1144.73ZM851 1125.27C856.685 1125.27 861.306 1129.64 861.306 1135C861.306 1135.27 861.291 1135.55 861.268 1135.82H861.263L852.647 1135.3L856.386 1132.88C856.438 1132.85 856.47 1132.79 856.47 1132.73C856.47 1132.63 856.383 1132.54 856.276 1132.54H841.027C842.182 1128.37 846.216 1125.27 851 1125.27ZM865.775 1136.09L862.615 1135.9C862.64 1135.6 862.657 1135.3 862.657 1135C862.657 1128.93 857.428 1124 851 1124C845.467 1124 840.826 1127.66 839.64 1132.54H837.064C836.918 1132.54 836.789 1132.61 836.707 1132.71L836.049 1133.57C836.018 1133.61 836 1133.65 836 1133.7C836 1133.82 836.101 1133.91 836.226 1133.91L839.035 1134.08L839.387 1134.1C839.362 1134.4 839.345 1134.7 839.345 1135C839.345 1141.06 844.574 1146 851 1146C856.533 1146 861.176 1142.34 862.36 1137.45H864.938C865.083 1137.45 865.212 1137.39 865.294 1137.29L865.953 1136.43C865.983 1136.39 866 1136.35 866 1136.3C866 1136.18 865.899 1136.09 865.775 1136.09Z"/>
      </mask>
      <path d="M851 1144.73C845.318 1144.73 840.694 1140.36 840.694 1135C840.694 1134.72 840.709 1134.45 840.734 1134.18L849.35 1134.69L845.621 1137.12C845.571 1137.15 845.537 1137.21 845.537 1137.27C845.537 1137.37 845.624 1137.45 845.732 1137.45H860.975C859.818 1141.63 855.785 1144.73 851 1144.73ZM851 1125.27C856.685 1125.27 861.306 1129.64 861.306 1135C861.306 1135.27 861.291 1135.55 861.268 1135.82H861.263L852.647 1135.3L856.386 1132.88C856.438 1132.85 856.47 1132.79 856.47 1132.73C856.47 1132.63 856.383 1132.54 856.276 1132.54H841.027C842.182 1128.37 846.216 1125.27 851 1125.27ZM865.775 1136.09L862.615 1135.9C862.64 1135.6 862.657 1135.3 862.657 1135C862.657 1128.93 857.428 1124 851 1124C845.467 1124 840.826 1127.66 839.64 1132.54H837.064C836.918 1132.54 836.789 1132.61 836.707 1132.71L836.049 1133.57C836.018 1133.61 836 1133.65 836 1133.7C836 1133.82 836.101 1133.91 836.226 1133.91L839.035 1134.08L839.387 1134.1C839.362 1134.4 839.345 1134.7 839.345 1135C839.345 1141.06 844.574 1146 851 1146C856.533 1146 861.176 1142.34 862.36 1137.45H864.938C865.083 1137.45 865.212 1137.39 865.294 1137.29L865.953 1136.43C865.983 1136.39 866 1136.35 866 1136.3C866 1136.18 865.899 1136.09 865.775 1136.09Z" fill="white"/>
      <path d="M851 1144.73C845.318 1144.73 840.694 1140.36 840.694 1135C840.694 1134.72 840.709 1134.45 840.734 1134.18L849.35 1134.69L845.621 1137.12C845.571 1137.15 845.537 1137.21 845.537 1137.27C845.537 1137.37 845.624 1137.45 845.732 1137.45H860.975C859.818 1141.63 855.785 1144.73 851 1144.73ZM851 1125.27C856.685 1125.27 861.306 1129.64 861.306 1135C861.306 1135.27 861.291 1135.55 861.268 1135.82H861.263L852.647 1135.3L856.386 1132.88C856.438 1132.85 856.47 1132.79 856.47 1132.73C856.47 1132.63 856.383 1132.54 856.276 1132.54H841.027C842.182 1128.37 846.216 1125.27 851 1125.27ZM865.775 1136.09L862.615 1135.9C862.64 1135.6 862.657 1135.3 862.657 1135C862.657 1128.93 857.428 1124 851 1124C845.467 1124 840.826 1127.66 839.64 1132.54H837.064C836.918 1132.54 836.789 1132.61 836.707 1132.71L836.049 1133.57C836.018 1133.61 836 1133.65 836 1133.7C836 1133.82 836.101 1133.91 836.226 1133.91L839.035 1134.08L839.387 1134.1C839.362 1134.4 839.345 1134.7 839.345 1135C839.345 1141.06 844.574 1146 851 1146C856.533 1146 861.176 1142.34 862.36 1137.45H864.938C865.083 1137.45 865.212 1137.39 865.294 1137.29L865.953 1136.43C865.983 1136.39 866 1136.35 866 1136.3C866 1136.18 865.899 1136.09 865.775 1136.09Z" stroke="black" stroke-width="6" mask="url(#path-79-outside-45_0_1)"/>
    </g>
  </g>
</svg>