<?xml version="1.0" encoding="UTF-8" standalone="yes"?>
<svg width="120" height="120" viewBox="0 0 120 120" fill="none" xmlns="http://www.w3.org/2000/svg">
  <g id="Opel">
    <g id="Frame 12">
      <path id="Vector_12" d="M956 539.857C946.908 539.857 939.511 532.518 939.511 523.499C939.511 523.034 939.535 522.574 939.575 522.119L953.36 522.973L947.394 527.063C947.313 527.119 947.26 527.212 947.26 527.316C947.26 527.486 947.399 527.627 947.571 527.627H971.959C970.109 534.654 963.655 539.857 956 539.857ZM956 507.142C965.095 507.142 972.49 514.48 972.49 523.499C972.49 523.962 972.466 524.419 972.428 524.871H972.42L958.636 524.001L964.618 519.935C964.701 519.879 964.752 519.786 964.752 519.682C964.752 519.509 964.612 519.371 964.441 519.371H940.044C941.891 512.344 948.346 507.142 956 507.142ZM979.641 525.326L974.584 525.007C974.624 524.509 974.651 524.007 974.651 523.499C974.651 513.299 966.285 505 956 505C947.147 505 939.722 511.152 937.824 519.37H933.703C933.469 519.37 933.263 519.48 933.132 519.65L932.078 521.094C932.03 521.155 932 521.232 932 521.315C932 521.512 932.161 521.671 932.362 521.671L936.856 521.948L937.419 521.985C937.379 522.485 937.352 522.988 937.352 523.498C937.352 533.698 945.718 542 956 542C964.853 542 972.281 535.845 974.176 527.627H978.3C978.533 527.627 978.74 527.518 978.871 527.348L979.925 525.903C979.973 525.842 980 525.765 980 525.682C980 525.486 979.839 525.326 979.641 525.326Z" fill="white"/>
    </g>
  </g>
</svg>