<?xml version="1.0" encoding="UTF-8" standalone="yes"?>
<svg width="120" height="120" viewBox="0 0 120 120" fill="none" xmlns="http://www.w3.org/2000/svg">
  <g id="Seat">
    <g id="Frame 11">
      <path id="Vector_11" d="M828.897 508.112C836.792 507.83 844.695 508.11 852.576 508.624C853.406 508.697 854.246 508.691 855.063 508.868C855.505 508.976 855.983 509.148 856.241 509.555C856.477 509.999 856.482 510.516 856.543 511.005C856.731 513.405 856.786 515.816 856.963 518.216C856.621 518.258 856.28 518.205 855.938 518.194C849.86 517.875 843.776 517.609 837.688 517.601C834.535 517.61 831.378 517.579 828.227 517.734C827.464 517.848 826.6 518.108 826.159 518.799C828.542 519.228 830.921 519.692 833.304 520.13C841.2 521.63 849.103 523.097 857 524.595C856.993 526.115 856.996 527.635 856.999 529.155C852.558 528.409 848.125 527.604 843.688 526.834C834.14 525.163 824.596 523.47 815.045 521.816C815.064 520.129 815.135 518.442 815.17 516.754C815.23 515.417 815.192 514.062 815.49 512.749C815.691 511.823 816.062 510.892 816.753 510.23C817.947 509.03 819.674 508.693 821.281 508.524C823.813 508.285 826.357 508.207 828.897 508.112ZM815 524.036C828.678 526.597 842.352 529.202 856.028 531.779C856.327 531.853 856.647 531.859 856.934 531.97L856.968 532.05C856.893 534.327 856.85 536.606 856.769 538.883C856.717 540.288 856.571 541.758 855.858 542.996C855.095 544.276 853.672 544.984 852.264 545.251C850.189 545.647 848.07 545.673 845.969 545.79C836.926 546.206 827.865 545.976 818.838 545.345C818.117 545.294 817.383 545.281 816.682 545.078C816.319 544.962 815.944 544.774 815.739 544.434C815.519 543.987 815.505 543.478 815.451 542.991C815.258 540.334 815.155 537.673 815.018 535.013C819.675 535.313 824.339 535.482 829.005 535.587C833.51 535.661 838.015 535.66 842.52 535.705C843.491 535.746 844.542 535.558 845.279 534.865C845.387 534.74 845.561 534.623 845.543 534.436C843.513 534.127 841.494 533.742 839.468 533.404C831.315 531.989 823.157 530.587 815.005 529.164C814.995 527.455 815.007 525.745 815 524.036Z" fill="white"/>
    </g>
  </g>
</svg>