<?xml version="1.0" encoding="UTF-8" standalone="yes"?>
<svg width="119" height="119" viewBox="0 0 119 119" fill="none" xmlns="http://www.w3.org/2000/svg">
  <g id="SEAT Leon" transform="translate(-896.5 -944.5)">
    <g id="Frame 11">
      <g id="Vector_24">
        <mask id="path-73-outside-41_0_1" maskUnits="userSpaceOnUse" x="931" y="985" width="50" height="44" fill="black">
          <rect fill="white" x="931" y="985" width="50" height="44"/>
          <path d="M948.897 988.112C956.792 987.83 964.695 988.11 972.576 988.624C973.406 988.697 974.246 988.691 975.063 988.868C975.505 988.976 975.983 989.148 976.241 989.555C976.477 989.999 976.482 990.516 976.543 991.005C976.731 993.405 976.786 995.816 976.963 998.216C976.621 998.258 976.28 998.205 975.938 998.194C969.86 997.875 963.776 997.609 957.688 997.601C954.535 997.61 951.378 997.579 948.227 997.734C947.464 997.848 946.6 998.108 946.159 998.799C948.542 999.228 950.921 999.692 953.304 1000.13C961.2 1001.63 969.103 1003.1 977 1004.59C976.993 1006.11 976.996 1007.63 976.999 1009.15C972.558 1008.41 968.125 1007.6 963.688 1006.83C954.14 1005.16 944.596 1003.47 935.045 1001.82C935.064 1000.13 935.135 998.442 935.17 996.754C935.23 995.417 935.192 994.062 935.49 992.749C935.691 991.823 936.062 990.892 936.753 990.23C937.947 989.03 939.674 988.693 941.281 988.524C943.813 988.285 946.357 988.207 948.897 988.112ZM935 1004.04C948.678 1006.6 962.352 1009.2 976.028 1011.78C976.327 1011.85 976.647 1011.86 976.934 1011.97L976.968 1012.05C976.893 1014.33 976.85 1016.61 976.769 1018.88C976.717 1020.29 976.571 1021.76 975.858 1023C975.095 1024.28 973.672 1024.98 972.264 1025.25C970.189 1025.65 968.07 1025.67 965.969 1025.79C956.926 1026.21 947.865 1025.98 938.838 1025.35C938.117 1025.29 937.383 1025.28 936.682 1025.08C936.319 1024.96 935.944 1024.77 935.739 1024.43C935.519 1023.99 935.505 1023.48 935.451 1022.99C935.258 1020.33 935.155 1017.67 935.018 1015.01C939.675 1015.31 944.339 1015.48 949.005 1015.59C953.51 1015.66 958.015 1015.66 962.52 1015.7C963.491 1015.75 964.542 1015.56 965.279 1014.86C965.387 1014.74 965.561 1014.62 965.543 1014.44C963.513 1014.13 961.494 1013.74 959.468 1013.4C951.315 1011.99 943.157 1010.59 935.005 1009.16C934.995 1007.45 935.007 1005.75 935 1004.04Z"/>
        </mask>
        <path d="M948.897 988.112C956.792 987.83 964.695 988.11 972.576 988.624C973.406 988.697 974.246 988.691 975.063 988.868C975.505 988.976 975.983 989.148 976.241 989.555C976.477 989.999 976.482 990.516 976.543 991.005C976.731 993.405 976.786 995.816 976.963 998.216C976.621 998.258 976.28 998.205 975.938 998.194C969.86 997.875 963.776 997.609 957.688 997.601C954.535 997.61 951.378 997.579 948.227 997.734C947.464 997.848 946.6 998.108 946.159 998.799C948.542 999.228 950.921 999.692 953.304 1000.13C961.2 1001.63 969.103 1003.1 977 1004.59C976.993 1006.11 976.996 1007.63 976.999 1009.15C972.558 1008.41 968.125 1007.6 963.688 1006.83C954.14 1005.16 944.596 1003.47 935.045 1001.82C935.064 1000.13 935.135 998.442 935.17 996.754C935.23 995.417 935.192 994.062 935.49 992.749C935.691 991.823 936.062 990.892 936.753 990.23C937.947 989.03 939.674 988.693 941.281 988.524C943.813 988.285 946.357 988.207 948.897 988.112ZM935 1004.04C948.678 1006.6 962.352 1009.2 976.028 1011.78C976.327 1011.85 976.647 1011.86 976.934 1011.97L976.968 1012.05C976.893 1014.33 976.85 1016.61 976.769 1018.88C976.717 1020.29 976.571 1021.76 975.858 1023C975.095 1024.28 973.672 1024.98 972.264 1025.25C970.189 1025.65 968.07 1025.67 965.969 1025.79C956.926 1026.21 947.865 1025.98 938.838 1025.35C938.117 1025.29 937.383 1025.28 936.682 1025.08C936.319 1024.96 935.944 1024.77 935.739 1024.43C935.519 1023.99 935.505 1023.48 935.451 1022.99C935.258 1020.33 935.155 1017.67 935.018 1015.01C939.675 1015.31 944.339 1015.48 949.005 1015.59C953.51 1015.66 958.015 1015.66 962.52 1015.7C963.491 1015.75 964.542 1015.56 965.279 1014.86C965.387 1014.74 965.561 1014.62 965.543 1014.44C963.513 1014.13 961.494 1013.74 959.468 1013.4C951.315 1011.99 943.157 1010.59 935.005 1009.16C934.995 1007.45 935.007 1005.75 935 1004.04Z" fill="white"/>
        <path d="M948.897 988.112C956.792 987.83 964.695 988.11 972.576 988.624C973.406 988.697 974.246 988.691 975.063 988.868C975.505 988.976 975.983 989.148 976.241 989.555C976.477 989.999 976.482 990.516 976.543 991.005C976.731 993.405 976.786 995.816 976.963 998.216C976.621 998.258 976.28 998.205 975.938 998.194C969.86 997.875 963.776 997.609 957.688 997.601C954.535 997.61 951.378 997.579 948.227 997.734C947.464 997.848 946.6 998.108 946.159 998.799C948.542 999.228 950.921 999.692 953.304 1000.13C961.2 1001.63 969.103 1003.1 977 1004.59C976.993 1006.11 976.996 1007.63 976.999 1009.15C972.558 1008.41 968.125 1007.6 963.688 1006.83C954.14 1005.16 944.596 1003.47 935.045 1001.82C935.064 1000.13 935.135 998.442 935.17 996.754C935.23 995.417 935.192 994.062 935.49 992.749C935.691 991.823 936.062 990.892 936.753 990.23C937.947 989.03 939.674 988.693 941.281 988.524C943.813 988.285 946.357 988.207 948.897 988.112ZM935 1004.04C948.678 1006.6 962.352 1009.2 976.028 1011.78C976.327 1011.85 976.647 1011.86 976.934 1011.97L976.968 1012.05C976.893 1014.33 976.85 1016.61 976.769 1018.88C976.717 1020.29 976.571 1021.76 975.858 1023C975.095 1024.28 973.672 1024.98 972.264 1025.25C970.189 1025.65 968.07 1025.67 965.969 1025.79C956.926 1026.21 947.865 1025.98 938.838 1025.35C938.117 1025.29 937.383 1025.28 936.682 1025.08C936.319 1024.96 935.944 1024.77 935.739 1024.43C935.519 1023.99 935.505 1023.48 935.451 1022.99C935.258 1020.33 935.155 1017.67 935.018 1015.01C939.675 1015.31 944.339 1015.48 949.005 1015.59C953.51 1015.66 958.015 1015.66 962.52 1015.7C963.491 1015.75 964.542 1015.56 965.279 1014.86C965.387 1014.74 965.561 1014.62 965.543 1014.44C963.513 1014.13 961.494 1013.74 959.468 1013.4C951.315 1011.99 943.157 1010.59 935.005 1009.16C934.995 1007.45 935.007 1005.75 935 1004.04Z" stroke="black" stroke-width="6" mask="url(#path-73-outside-41_0_1)"/>
      </g>
    </g>
  </g>
</svg>