<?xml version="1.0" encoding="UTF-8" standalone="yes"?>
<svg width="119" height="119" viewBox="0 0 119 119" fill="none" xmlns="http://www.w3.org/2000/svg">
  <g id="Tesla Model 3" transform="translate(-776.5 -464.5)">
    <g id="Frame 7_2">
      <g id="Vector_11">
        <mask id="path-32-outside-19_0_1" maskUnits="userSpaceOnUse" x="809" y="497" width="53" height="46" fill="black">
          <rect fill="white" x="809" y="497" width="53" height="46"/>
          <path d="M814 502.778C819.746 500.832 825.841 500.201 831.936 500.045C834.29 499.985 836.703 499.985 839.064 500.045C845.159 500.201 851.254 500.832 857 502.778L855.693 504.68C850.831 502.971 845.092 502.132 839.004 501.946C836.703 501.879 834.305 501.879 831.996 501.946C825.908 502.132 820.169 502.971 815.307 504.68L814 502.778Z"/>
          <path d="M816.316 506.284C820.073 504.762 825.663 504.256 829.739 504.145C831.098 504.108 832.285 504.108 833.184 504.145L835.5 507.116L837.816 504.145C841.41 504.011 849.672 504.256 854.684 506.284C853.993 507.599 850.994 509.493 849.338 509.909C849.242 507.324 845.597 506.76 842.093 506.76L835.5 542L828.907 506.76C825.403 506.76 821.758 507.324 821.662 509.909C820.013 509.493 817.007 507.599 816.316 506.284Z"/>
        </mask>
        <path d="M814 502.778C819.746 500.832 825.841 500.201 831.936 500.045C834.29 499.985 836.703 499.985 839.064 500.045C845.159 500.201 851.254 500.832 857 502.778L855.693 504.68C850.831 502.971 845.092 502.132 839.004 501.946C836.703 501.879 834.305 501.879 831.996 501.946C825.908 502.132 820.169 502.971 815.307 504.68L814 502.778Z" fill="white"/>
        <path d="M816.316 506.284C820.073 504.762 825.663 504.256 829.739 504.145C831.098 504.108 832.285 504.108 833.184 504.145L835.5 507.116L837.816 504.145C841.41 504.011 849.672 504.256 854.684 506.284C853.993 507.599 850.994 509.493 849.338 509.909C849.242 507.324 845.597 506.76 842.093 506.76L835.5 542L828.907 506.76C825.403 506.76 821.758 507.324 821.662 509.909C820.013 509.493 817.007 507.599 816.316 506.284Z" fill="white"/>
        <path d="M814 502.778C819.746 500.832 825.841 500.201 831.936 500.045C834.29 499.985 836.703 499.985 839.064 500.045C845.159 500.201 851.254 500.832 857 502.778L855.693 504.68C850.831 502.971 845.092 502.132 839.004 501.946C836.703 501.879 834.305 501.879 831.996 501.946C825.908 502.132 820.169 502.971 815.307 504.68L814 502.778Z" stroke="black" stroke-width="6" mask="url(#path-32-outside-19_0_1)"/>
        <path d="M816.316 506.284C820.073 504.762 825.663 504.256 829.739 504.145C831.098 504.108 832.285 504.108 833.184 504.145L835.5 507.116L837.816 504.145C841.41 504.011 849.672 504.256 854.684 506.284C853.993 507.599 850.994 509.493 849.338 509.909C849.242 507.324 845.597 506.76 842.093 506.76L835.5 542L828.907 506.76C825.403 506.76 821.758 507.324 821.662 509.909C820.013 509.493 817.007 507.599 816.316 506.284Z" stroke="black" stroke-width="6" mask="url(#path-32-outside-19_0_1)"/>
      </g>
      <g id="3_2">
        <mask id="path-33-outside-20_0_1" maskUnits="userSpaceOnUse" x="832.44" y="517.368" width="28" height="33" fill="black">
          <rect fill="white" x="832.44" y="517.368" width="28" height="33"/>
          <path d="M846.512 546.432C844.688 546.432 842.984 546.132 841.4 545.532C839.84 544.908 838.52 544.032 837.44 542.904L841.94 538.476C842.348 539.052 842.972 539.532 843.812 539.916C844.652 540.276 845.516 540.456 846.404 540.456C847.124 540.456 847.76 540.336 848.312 540.096C848.888 539.856 849.332 539.508 849.644 539.052C849.98 538.596 850.148 538.044 850.148 537.396C850.148 536.748 849.98 536.196 849.644 535.74C849.308 535.284 848.828 534.936 848.204 534.696C847.58 534.456 846.836 534.336 845.972 534.336C845.492 534.336 844.976 534.372 844.424 534.444C843.896 534.492 843.488 534.576 843.2 534.696L846.332 530.808C847.172 530.616 847.916 530.46 848.564 530.34C849.236 530.196 849.824 530.124 850.328 530.124C851.624 530.124 852.788 530.424 853.82 531.024C854.852 531.624 855.668 532.488 856.268 533.616C856.868 534.72 857.168 536.04 857.168 537.576C857.168 539.328 856.724 540.876 855.836 542.22C854.972 543.54 853.736 544.572 852.128 545.316C850.544 546.06 848.672 546.432 846.512 546.432ZM843.2 534.696V530.844L848.852 524.184L856.52 524.22L850.688 530.808L843.2 534.696ZM839.348 526.272V520.368H856.52V524.22L851.228 526.272H839.348Z"/>
        </mask>
        <path d="M846.512 546.432C844.688 546.432 842.984 546.132 841.4 545.532C839.84 544.908 838.52 544.032 837.44 542.904L841.94 538.476C842.348 539.052 842.972 539.532 843.812 539.916C844.652 540.276 845.516 540.456 846.404 540.456C847.124 540.456 847.76 540.336 848.312 540.096C848.888 539.856 849.332 539.508 849.644 539.052C849.98 538.596 850.148 538.044 850.148 537.396C850.148 536.748 849.98 536.196 849.644 535.74C849.308 535.284 848.828 534.936 848.204 534.696C847.58 534.456 846.836 534.336 845.972 534.336C845.492 534.336 844.976 534.372 844.424 534.444C843.896 534.492 843.488 534.576 843.2 534.696L846.332 530.808C847.172 530.616 847.916 530.46 848.564 530.34C849.236 530.196 849.824 530.124 850.328 530.124C851.624 530.124 852.788 530.424 853.82 531.024C854.852 531.624 855.668 532.488 856.268 533.616C856.868 534.72 857.168 536.04 857.168 537.576C857.168 539.328 856.724 540.876 855.836 542.22C854.972 543.54 853.736 544.572 852.128 545.316C850.544 546.06 848.672 546.432 846.512 546.432ZM843.2 534.696V530.844L848.852 524.184L856.52 524.22L850.688 530.808L843.2 534.696ZM839.348 526.272V520.368H856.52V524.22L851.228 526.272H839.348Z" fill="white"/>
        <path d="M841.4 545.532L840.285 548.317L840.311 548.328L840.337 548.337L841.4 545.532ZM837.44 542.904L835.335 540.766L833.226 542.841L835.273 544.979L837.44 542.904ZM841.94 538.476L844.388 536.742L842.349 533.864L839.835 536.338L841.94 538.476ZM843.812 539.916L842.564 542.644L842.597 542.659L842.63 542.673L843.812 539.916ZM848.312 540.096L847.158 537.327L847.136 537.336L847.115 537.345L848.312 540.096ZM849.644 539.052L847.228 537.272L847.197 537.315L847.168 537.358L849.644 539.052ZM849.644 535.74L852.059 533.96L852.059 533.96L849.644 535.74ZM848.204 534.696L849.28 531.896L849.28 531.896L848.204 534.696ZM844.424 534.444L844.695 537.432L844.753 537.426L844.812 537.419L844.424 534.444ZM843.2 534.696H840.2V539.196L844.353 537.465L843.2 534.696ZM846.332 530.808L845.663 527.883L844.648 528.115L843.995 528.926L846.332 530.808ZM848.564 530.34L849.11 533.29L849.151 533.282L849.192 533.273L848.564 530.34ZM853.82 531.024L852.312 533.618L852.312 533.618L853.82 531.024ZM856.268 533.616L853.619 535.025L853.625 535.037L853.632 535.049L856.268 533.616ZM855.836 542.22L853.332 540.566L853.325 540.577L855.836 542.22ZM852.128 545.316L850.868 542.593L850.86 542.597L850.852 542.601L852.128 545.316ZM843.2 530.844L840.912 528.903L840.2 529.743V530.844H843.2ZM848.852 524.184L848.866 521.184L847.468 521.177L846.564 522.243L848.852 524.184ZM856.52 524.22L858.766 526.208L859.52 525.357V524.22H856.52ZM850.688 530.808L852.07 533.47L852.564 533.214L852.934 532.796L850.688 530.808ZM839.348 526.272H836.348V529.272H839.348V526.272ZM839.348 520.368V517.368H836.348V520.368H839.348ZM856.52 520.368H859.52V517.368H856.52V520.368ZM851.228 526.272V529.272H851.789L852.312 529.069L851.228 526.272ZM846.512 543.432C845.023 543.432 843.681 543.188 842.462 542.727L840.337 548.337C842.286 549.076 844.352 549.432 846.512 549.432V543.432ZM842.514 542.747C841.321 542.269 840.368 541.625 839.606 540.829L835.273 544.979C836.671 546.439 838.358 547.547 840.285 548.317L842.514 542.747ZM839.544 545.042L844.044 540.614L839.835 536.338L835.335 540.766L839.544 545.042ZM839.491 540.21C840.285 541.331 841.388 542.107 842.564 542.644L845.059 537.188C844.555 536.957 844.41 536.773 844.388 536.742L839.491 540.21ZM842.63 542.673C843.832 543.189 845.097 543.456 846.404 543.456V537.456C845.934 537.456 845.471 537.363 844.993 537.159L842.63 542.673ZM846.404 543.456C847.456 543.456 848.512 543.28 849.508 542.847L847.115 537.345C847.007 537.392 846.791 537.456 846.404 537.456V543.456ZM849.465 542.865C850.505 542.432 851.439 541.741 852.119 540.746L847.168 537.358C847.177 537.344 847.188 537.331 847.199 537.319C847.211 537.306 847.22 537.298 847.226 537.294C847.231 537.29 847.23 537.291 847.22 537.297C847.21 537.302 847.19 537.313 847.158 537.327L849.465 542.865ZM852.059 540.832C852.828 539.788 853.148 538.588 853.148 537.396H847.148C847.148 537.46 847.139 537.462 847.151 537.422C847.157 537.403 847.167 537.378 847.181 537.35C847.195 537.322 847.211 537.296 847.228 537.272L852.059 540.832ZM853.148 537.396C853.148 536.204 852.828 535.004 852.059 533.96L847.228 537.52C847.211 537.496 847.195 537.47 847.181 537.442C847.167 537.414 847.157 537.389 847.151 537.369C847.139 537.33 847.148 537.332 847.148 537.396H853.148ZM852.059 533.96C851.326 532.966 850.341 532.304 849.28 531.896L847.127 537.496C847.226 537.534 847.266 537.563 847.271 537.566C847.273 537.567 847.268 537.564 847.259 537.555C847.25 537.546 847.239 537.534 847.228 537.52L852.059 533.96ZM849.28 531.896C848.229 531.491 847.101 531.336 845.972 531.336V537.336C846.57 537.336 846.93 537.421 847.127 537.496L849.28 531.896ZM845.972 531.336C845.343 531.336 844.696 531.383 844.035 531.469L844.812 537.419C845.255 537.361 845.64 537.336 845.972 537.336V531.336ZM844.152 531.456C843.501 531.515 842.744 531.636 842.046 531.927L844.353 537.465C844.273 537.499 844.252 537.497 844.326 537.481C844.395 537.467 844.515 537.448 844.695 537.432L844.152 531.456ZM845.536 536.578L848.668 532.69L843.995 528.926L840.863 532.814L845.536 536.578ZM847 533.733C847.811 533.547 848.513 533.4 849.11 533.29L848.017 527.39C847.318 527.52 846.532 527.685 845.663 527.883L847 533.733ZM849.192 533.273C849.727 533.159 850.095 533.124 850.328 533.124V527.124C849.552 527.124 848.745 527.233 847.935 527.407L849.192 533.273ZM850.328 533.124C851.141 533.124 851.776 533.306 852.312 533.618L855.327 528.43C853.799 527.542 852.106 527.124 850.328 527.124V533.124ZM852.312 533.618C852.826 533.917 853.262 534.354 853.619 535.025L858.916 532.207C858.073 530.622 856.877 529.331 855.327 528.43L852.312 533.618ZM853.632 535.049C853.945 535.625 854.168 536.43 854.168 537.576H860.168C860.168 535.65 859.79 533.815 858.903 532.183L853.632 535.049ZM854.168 537.576C854.168 538.794 853.868 539.756 853.333 540.566L858.339 543.874C859.579 541.996 860.168 539.862 860.168 537.576H854.168ZM853.325 540.577C852.806 541.371 852.031 542.055 850.868 542.593L853.387 548.039C855.44 547.089 857.137 545.709 858.346 543.863L853.325 540.577ZM850.852 542.601C849.749 543.119 848.332 543.432 846.512 543.432V549.432C849.012 549.432 851.338 549.001 853.403 548.031L850.852 542.601ZM846.2 534.696V530.844H840.2V534.696H846.2ZM845.487 532.785L851.139 526.125L846.564 522.243L840.912 528.903L845.487 532.785ZM848.837 527.184L856.505 527.22L856.534 521.22L848.866 521.184L848.837 527.184ZM854.273 522.231L848.441 528.819L852.934 532.796L858.766 526.208L854.273 522.231ZM849.305 528.145L841.817 532.033L844.582 537.358L852.07 533.47L849.305 528.145ZM842.348 526.272V520.368H836.348V526.272H842.348ZM839.348 523.368H856.52V517.368H839.348V523.368ZM853.52 520.368V524.22H859.52V520.368H853.52ZM855.435 521.423L850.143 523.475L852.312 529.069L857.604 527.017L855.435 521.423ZM851.228 523.272H839.348V529.272H851.228V523.272Z" fill="black" mask="url(#path-33-outside-20_0_1)"/>
      </g>
    </g>
  </g>
</svg>