<?xml version="1.0" encoding="UTF-8" standalone="yes"?>
<svg width="120" height="120" viewBox="0 0 120 120" fill="none" xmlns="http://www.w3.org/2000/svg">
  <g id="Tesla_Model_Y">
    <g id="Frame 8">
      <g id="Vector_8">
        <path d="M814 382.778C819.746 380.832 825.841 380.201 831.936 380.045C834.29 379.985 836.703 379.985 839.064 380.045C845.159 380.201 851.254 380.832 857 382.778L855.693 384.68C850.831 382.971 845.092 382.132 839.004 381.946C836.703 381.879 834.305 381.879 831.996 381.946C825.908 382.132 820.169 382.971 815.307 384.68L814 382.778Z" fill="white"/>
        <path d="M816.316 386.284C820.073 384.762 825.663 384.256 829.739 384.145C831.098 384.108 832.285 384.108 833.184 384.145L835.5 387.116L837.816 384.145C841.41 384.011 849.672 384.256 854.684 386.284C853.993 387.599 850.994 389.493 849.338 389.909C849.242 387.324 845.597 386.76 842.093 386.76L835.5 422L828.907 386.76C825.403 386.76 821.758 387.324 821.662 389.909C820.013 389.493 817.007 387.599 816.316 386.284Z" fill="white"/>
      </g>
      <path id="Y" d="M840.83 416.022V426V427H841.83H849.03H850.03V426V415.727L858.713 400.873L859.593 399.368H857.85H849.75H849.152L848.869 399.894L845.466 406.219L842.062 399.894L841.779 399.368H841.182H832.902H831.165L832.037 400.87L840.83 416.022Z" fill="white" stroke="black" stroke-width="2"/>
    </g>
  </g>
</svg>