<?xml version="1.0" encoding="UTF-8" standalone="yes"?>
<svg width="120" height="120" viewBox="0 0 120 120" fill="none" xmlns="http://www.w3.org/2000/svg">
  <g id="Tesla_Model_3">
    <g id="Frame 7">
      <g id="Vector_7">
        <path d="M694 382.778C699.746 380.832 705.841 380.201 711.936 380.045C714.29 379.985 716.703 379.985 719.064 380.045C725.159 380.201 731.254 380.832 737 382.778L735.693 384.68C730.831 382.971 725.092 382.132 719.004 381.946C716.703 381.879 714.305 381.879 711.996 381.946C705.908 382.132 700.169 382.971 695.307 384.68L694 382.778Z" fill="white"/>
        <path d="M696.316 386.284C700.073 384.762 705.663 384.256 709.739 384.145C711.098 384.108 712.285 384.108 713.184 384.145L715.5 387.116L717.816 384.145C721.41 384.011 729.672 384.256 734.684 386.284C733.993 387.599 730.994 389.493 729.338 389.909C729.242 387.324 725.597 386.76 722.093 386.76L715.5 422L708.907 386.76C705.403 386.76 701.758 387.324 701.662 389.909C700.013 389.493 697.007 387.599 696.316 386.284Z" fill="white"/>
      </g>
      <path id="3_2" d="M721.028 426.46L721.037 426.464L721.045 426.467C722.751 427.113 724.576 427.432 726.512 427.432C728.784 427.432 730.806 427.041 732.55 426.222C734.304 425.41 735.693 424.263 736.671 422.77C737.676 421.248 738.168 419.505 738.168 417.576C738.168 415.912 737.842 414.421 737.148 413.142C736.467 411.864 735.525 410.859 734.322 410.159C733.93 409.932 733.523 409.742 733.101 409.59L737.107 405.065L737.52 404.905V404.599L738.731 403.23L737.52 403.225V400.368V399.368H736.52H719.348H718.348V400.368V406.272V407.272H719.348H724.919L722.437 410.197L722.2 410.477V410.844V414.696V416.342L723.616 415.606C723.775 415.547 724.06 415.481 724.514 415.44L724.533 415.438L724.553 415.436C725.069 415.368 725.541 415.336 725.972 415.336C726.747 415.336 727.363 415.444 727.845 415.629C728.323 415.813 728.635 416.057 728.838 416.333C729.03 416.593 729.148 416.929 729.148 417.396C729.148 417.863 729.03 418.199 728.838 418.459L728.828 418.473L728.818 418.487C728.629 418.764 728.348 418.997 727.927 419.173L727.92 419.176L727.913 419.179C727.509 419.355 727.013 419.456 726.404 419.456C725.659 419.456 724.932 419.307 724.216 419.002C723.495 418.67 723.034 418.29 722.756 417.898L722.076 416.939L721.238 417.763L716.738 422.191L716.035 422.883L716.717 423.596C717.903 424.834 719.346 425.788 721.028 426.46Z" fill="white" stroke="black" stroke-width="2"/>
    </g>
  </g>
</svg>