<?xml version="1.0" encoding="UTF-8" standalone="yes"?>
<svg width="119" height="119" viewBox="0 0 119 119" fill="none" xmlns="http://www.w3.org/2000/svg">
  <g id="Tesla Model Y" transform="translate(-896.5 -464.5)">
    <g id="Frame 8">
      <g id="Vector_12">
        <mask id="path-36-outside-21_0_1" maskUnits="userSpaceOnUse" x="929" y="497" width="53" height="46" fill="black">
          <rect fill="white" x="929" y="497" width="53" height="46"/>
          <path d="M934 502.778C939.746 500.832 945.841 500.201 951.936 500.045C954.29 499.985 956.703 499.985 959.064 500.045C965.159 500.201 971.254 500.832 977 502.778L975.693 504.68C970.831 502.971 965.092 502.132 959.004 501.946C956.703 501.879 954.305 501.879 951.996 501.946C945.908 502.132 940.169 502.971 935.307 504.68L934 502.778Z"/>
          <path d="M936.316 506.284C940.073 504.762 945.663 504.256 949.739 504.145C951.098 504.108 952.285 504.108 953.184 504.145L955.5 507.116L957.816 504.145C961.41 504.011 969.672 504.256 974.684 506.284C973.993 507.599 970.994 509.493 969.338 509.909C969.242 507.324 965.597 506.76 962.093 506.76L955.5 542L948.907 506.76C945.403 506.76 941.758 507.324 941.662 509.909C940.013 509.493 937.007 507.599 936.316 506.284Z"/>
        </mask>
        <path d="M934 502.778C939.746 500.832 945.841 500.201 951.936 500.045C954.29 499.985 956.703 499.985 959.064 500.045C965.159 500.201 971.254 500.832 977 502.778L975.693 504.68C970.831 502.971 965.092 502.132 959.004 501.946C956.703 501.879 954.305 501.879 951.996 501.946C945.908 502.132 940.169 502.971 935.307 504.68L934 502.778Z" fill="white"/>
        <path d="M936.316 506.284C940.073 504.762 945.663 504.256 949.739 504.145C951.098 504.108 952.285 504.108 953.184 504.145L955.5 507.116L957.816 504.145C961.41 504.011 969.672 504.256 974.684 506.284C973.993 507.599 970.994 509.493 969.338 509.909C969.242 507.324 965.597 506.76 962.093 506.76L955.5 542L948.907 506.76C945.403 506.76 941.758 507.324 941.662 509.909C940.013 509.493 937.007 507.599 936.316 506.284Z" fill="white"/>
        <path d="M934 502.778C939.746 500.832 945.841 500.201 951.936 500.045C954.29 499.985 956.703 499.985 959.064 500.045C965.159 500.201 971.254 500.832 977 502.778L975.693 504.68C970.831 502.971 965.092 502.132 959.004 501.946C956.703 501.879 954.305 501.879 951.996 501.946C945.908 502.132 940.169 502.971 935.307 504.68L934 502.778Z" stroke="black" stroke-width="6" mask="url(#path-36-outside-21_0_1)"/>
        <path d="M936.316 506.284C940.073 504.762 945.663 504.256 949.739 504.145C951.098 504.108 952.285 504.108 953.184 504.145L955.5 507.116L957.816 504.145C961.41 504.011 969.672 504.256 974.684 506.284C973.993 507.599 970.994 509.493 969.338 509.909C969.242 507.324 965.597 506.76 962.093 506.76L955.5 542L948.907 506.76C945.403 506.76 941.758 507.324 941.662 509.909C940.013 509.493 937.007 507.599 936.316 506.284Z" stroke="black" stroke-width="6" mask="url(#path-36-outside-21_0_1)"/>
      </g>
      <g id="Y">
        <mask id="path-37-outside-22_0_1" maskUnits="userSpaceOnUse" x="946.902" y="517.368" width="37" height="32" fill="black">
          <rect fill="white" x="946.902" y="517.368" width="37" height="32"/>
          <path d="M962.658 537.18L952.902 520.368H961.182L968.562 534.084H962.37L969.75 520.368H977.85L968.022 537.18H962.658ZM961.83 546V534.552H969.03V546H961.83Z"/>
        </mask>
        <path d="M962.658 537.18L952.902 520.368H961.182L968.562 534.084H962.37L969.75 520.368H977.85L968.022 537.18H962.658ZM961.83 546V534.552H969.03V546H961.83Z" fill="white"/>
        <path d="M962.658 537.18L952.902 520.368H961.182L968.562 534.084H962.37L969.75 520.368H977.85L968.022 537.18H962.658ZM961.83 546V534.552H969.03V546H961.83Z" stroke="black" stroke-width="6" mask="url(#path-37-outside-22_0_1)"/>
      </g>
    </g>
  </g>
</svg>