<?xml version="1.0" encoding="UTF-8" standalone="yes"?>
<svg width="119" height="119" viewBox="0 0 119 119" fill="none" xmlns="http://www.w3.org/2000/svg">
  <g id="VW Crafter" transform="translate(-896.5 -1184.5)">
    <g id="Vector_35">
      <mask id="path-92-outside-52_0_1" maskUnits="userSpaceOnUse" x="929" y="1223" width="48" height="38" fill="black">
        <rect fill="white" x="929" y="1223" width="48" height="38"/>
        <path d="M934.389 1226C933.07 1226 932 1227.1 932 1228.46V1251.08C932 1252.44 933.201 1253.68 934.52 1253.68H937.959C938.359 1256.13 940.426 1258 942.92 1258C945.414 1258 947.481 1256.13 947.881 1253.68H955.651C956.967 1253.68 958.04 1252.57 958.04 1251.22V1228.51C958.04 1227.13 956.98 1226 955.677 1226H934.389ZM959.72 1232.05V1253.68C960.124 1256.12 962.266 1258 964.76 1258C967.254 1258 969.321 1256.12 969.721 1253.68H971.48C972.799 1253.68 974 1252.44 974 1251.08V1242.76C974 1241.02 972.783 1239.24 972.635 1239.03L969.144 1234.22C968.343 1233.22 967.086 1232.05 965.6 1232.05H959.72ZM963.92 1236.38H968.619L971.296 1240.05C971.582 1240.47 972.32 1241.74 972.32 1242.76V1243.3H963.92C963.08 1243.3 962.24 1242.43 962.24 1241.57V1238.11C962.24 1237.15 963.08 1236.38 963.92 1236.38ZM942.92 1249.35C944.774 1249.35 946.28 1250.9 946.28 1252.81C946.28 1254.72 944.774 1256.27 942.92 1256.27C941.066 1256.27 939.56 1254.72 939.56 1252.81C939.56 1250.9 941.066 1249.35 942.92 1249.35ZM964.76 1249.35C966.614 1249.35 968.12 1250.9 968.12 1252.81C968.12 1254.72 966.614 1256.27 964.76 1256.27C962.906 1256.27 961.4 1254.72 961.4 1252.81C961.4 1250.9 962.906 1249.35 964.76 1249.35Z"/>
      </mask>
      <path d="M934.389 1226C933.07 1226 932 1227.1 932 1228.46V1251.08C932 1252.44 933.201 1253.68 934.52 1253.68H937.959C938.359 1256.13 940.426 1258 942.92 1258C945.414 1258 947.481 1256.13 947.881 1253.68H955.651C956.967 1253.68 958.04 1252.57 958.04 1251.22V1228.51C958.04 1227.13 956.98 1226 955.677 1226H934.389ZM959.72 1232.05V1253.68C960.124 1256.12 962.266 1258 964.76 1258C967.254 1258 969.321 1256.12 969.721 1253.68H971.48C972.799 1253.68 974 1252.44 974 1251.08V1242.76C974 1241.02 972.783 1239.24 972.635 1239.03L969.144 1234.22C968.343 1233.22 967.086 1232.05 965.6 1232.05H959.72ZM963.92 1236.38H968.619L971.296 1240.05C971.582 1240.47 972.32 1241.74 972.32 1242.76V1243.3H963.92C963.08 1243.3 962.24 1242.43 962.24 1241.57V1238.11C962.24 1237.15 963.08 1236.38 963.92 1236.38ZM942.92 1249.35C944.774 1249.35 946.28 1250.9 946.28 1252.81C946.28 1254.72 944.774 1256.27 942.92 1256.27C941.066 1256.27 939.56 1254.72 939.56 1252.81C939.56 1250.9 941.066 1249.35 942.92 1249.35ZM964.76 1249.35C966.614 1249.35 968.12 1250.9 968.12 1252.81C968.12 1254.72 966.614 1256.27 964.76 1256.27C962.906 1256.27 961.4 1254.72 961.4 1252.81C961.4 1250.9 962.906 1249.35 964.76 1249.35Z" fill="white"/>
      <path d="M934.389 1226C933.07 1226 932 1227.1 932 1228.46V1251.08C932 1252.44 933.201 1253.68 934.52 1253.68H937.959C938.359 1256.13 940.426 1258 942.92 1258C945.414 1258 947.481 1256.13 947.881 1253.68H955.651C956.967 1253.68 958.04 1252.57 958.04 1251.22V1228.51C958.04 1227.13 956.98 1226 955.677 1226H934.389ZM959.72 1232.05V1253.68C960.124 1256.12 962.266 1258 964.76 1258C967.254 1258 969.321 1256.12 969.721 1253.68H971.48C972.799 1253.68 974 1252.44 974 1251.08V1242.76C974 1241.02 972.783 1239.24 972.635 1239.03L969.144 1234.22C968.343 1233.22 967.086 1232.05 965.6 1232.05H959.72ZM963.92 1236.38H968.619L971.296 1240.05C971.582 1240.47 972.32 1241.74 972.32 1242.76V1243.3H963.92C963.08 1243.3 962.24 1242.43 962.24 1241.57V1238.11C962.24 1237.15 963.08 1236.38 963.92 1236.38ZM942.92 1249.35C944.774 1249.35 946.28 1250.9 946.28 1252.81C946.28 1254.72 944.774 1256.27 942.92 1256.27C941.066 1256.27 939.56 1254.72 939.56 1252.81C939.56 1250.9 941.066 1249.35 942.92 1249.35ZM964.76 1249.35C966.614 1249.35 968.12 1250.9 968.12 1252.81C968.12 1254.72 966.614 1256.27 964.76 1256.27C962.906 1256.27 961.4 1254.72 961.4 1252.81C961.4 1250.9 962.906 1249.35 964.76 1249.35Z" stroke="black" stroke-width="6" mask="url(#path-92-outside-52_0_1)"/>
    </g>
    <g id="Vector_36">
      <mask id="path-93-outside-53_0_1" maskUnits="userSpaceOnUse" x="955" y="1241" width="28" height="28" fill="black">
        <rect fill="white" x="955" y="1241" width="28" height="28"/>
        <path d="M969 1244C962.934 1244 958 1248.93 958 1255C958 1261.07 962.934 1266 969 1266C975.066 1266 980 1261.07 980 1255C980 1248.93 975.066 1244 969 1244ZM971.809 1246.36L969 1252.61L966.191 1246.36C967.076 1246.07 968.02 1245.91 969 1245.91C969.98 1245.91 970.924 1246.07 971.809 1246.36ZM964.333 1247.22L967.756 1254.52H970.244L973.667 1247.22C974.686 1247.83 975.573 1248.64 976.281 1249.59L972.038 1258.83L970.272 1255.48H967.728L965.962 1258.83L961.718 1249.59C962.427 1248.64 963.314 1247.83 964.333 1247.22ZM959.913 1255C959.913 1253.88 960.127 1252.81 960.501 1251.81L965.721 1263.47C965.724 1263.47 965.728 1263.47 965.731 1263.47C962.333 1262.15 959.913 1258.86 959.913 1255ZM965.741 1263.47L969 1257.39L972.259 1263.47C971.246 1263.86 970.15 1264.09 969 1264.09C967.85 1264.09 966.754 1263.86 965.741 1263.47ZM972.268 1263.47C972.272 1263.47 972.275 1263.47 972.278 1263.47L977.499 1251.81C977.873 1252.81 978.087 1253.88 978.087 1255C978.087 1258.86 975.667 1262.15 972.268 1263.47Z"/>
      </mask>
      <path d="M969 1244C962.934 1244 958 1248.93 958 1255C958 1261.07 962.934 1266 969 1266C975.066 1266 980 1261.07 980 1255C980 1248.93 975.066 1244 969 1244ZM971.809 1246.36L969 1252.61L966.191 1246.36C967.076 1246.07 968.02 1245.91 969 1245.91C969.98 1245.91 970.924 1246.07 971.809 1246.36ZM964.333 1247.22L967.756 1254.52H970.244L973.667 1247.22C974.686 1247.83 975.573 1248.64 976.281 1249.59L972.038 1258.83L970.272 1255.48H967.728L965.962 1258.83L961.718 1249.59C962.427 1248.64 963.314 1247.83 964.333 1247.22ZM959.913 1255C959.913 1253.88 960.127 1252.81 960.501 1251.81L965.721 1263.47C965.724 1263.47 965.728 1263.47 965.731 1263.47C962.333 1262.15 959.913 1258.86 959.913 1255ZM965.741 1263.47L969 1257.39L972.259 1263.47C971.246 1263.86 970.15 1264.09 969 1264.09C967.85 1264.09 966.754 1263.86 965.741 1263.47ZM972.268 1263.47C972.272 1263.47 972.275 1263.47 972.278 1263.47L977.499 1251.81C977.873 1252.81 978.087 1253.88 978.087 1255C978.087 1258.86 975.667 1262.15 972.268 1263.47Z" fill="white"/>
      <path d="M969 1244C962.934 1244 958 1248.93 958 1255C958 1261.07 962.934 1266 969 1266C975.066 1266 980 1261.07 980 1255C980 1248.93 975.066 1244 969 1244ZM971.809 1246.36L969 1252.61L966.191 1246.36C967.076 1246.07 968.02 1245.91 969 1245.91C969.98 1245.91 970.924 1246.07 971.809 1246.36ZM964.333 1247.22L967.756 1254.52H970.244L973.667 1247.22C974.686 1247.83 975.573 1248.64 976.281 1249.59L972.038 1258.83L970.272 1255.48H967.728L965.962 1258.83L961.718 1249.59C962.427 1248.64 963.314 1247.83 964.333 1247.22ZM959.913 1255C959.913 1253.88 960.127 1252.81 960.501 1251.81L965.721 1263.47C965.724 1263.47 965.728 1263.47 965.731 1263.47C962.333 1262.15 959.913 1258.86 959.913 1255ZM965.741 1263.47L969 1257.39L972.259 1263.47C971.246 1263.86 970.15 1264.09 969 1264.09C967.85 1264.09 966.754 1263.86 965.741 1263.47ZM972.268 1263.47C972.272 1263.47 972.275 1263.47 972.278 1263.47L977.499 1251.81C977.873 1252.81 978.087 1253.88 978.087 1255C978.087 1258.86 975.667 1262.15 972.268 1263.47Z" stroke="black" stroke-width="6" mask="url(#path-93-outside-53_0_1)"/>
    </g>
    <path id="Vector_37" d="M938.111 1230C937.551 1230 937.014 1230.22 936.618 1230.62C936.222 1231.01 936 1231.55 936 1232.11C936 1232.48 936.098 1232.85 936.283 1233.17C936.469 1233.49 936.735 1233.75 937.056 1233.94V1242.95C936.735 1243.14 936.469 1243.4 936.284 1243.72C936.099 1244.04 936.001 1244.41 936 1244.78C936 1245.34 936.222 1245.87 936.618 1246.27C937.014 1246.67 937.551 1246.89 938.111 1246.89C938.671 1246.89 939.208 1246.67 939.604 1246.27C940 1245.87 940.222 1245.34 940.222 1244.78C940.222 1244.41 940.124 1244.04 939.939 1243.72C939.754 1243.4 939.487 1243.14 939.167 1242.95V1240.03C939.167 1239.74 939.403 1239.5 939.694 1239.5H943.917C944.208 1239.5 944.444 1239.74 944.444 1240.03V1242.95C944.124 1243.14 943.858 1243.4 943.673 1243.72C943.487 1244.04 943.39 1244.41 943.389 1244.78C943.389 1245.34 943.611 1245.87 944.007 1246.27C944.403 1246.67 944.94 1246.89 945.5 1246.89C946.06 1246.89 946.597 1246.67 946.993 1246.27C947.389 1245.87 947.611 1245.34 947.611 1244.78C947.611 1244.41 947.513 1244.04 947.328 1243.72C947.143 1243.4 946.876 1243.14 946.556 1242.95V1240.03C946.556 1239.74 946.792 1239.5 947.083 1239.5H951.306C951.597 1239.5 951.833 1239.74 951.833 1240.03V1245.06C951.513 1245.25 951.247 1245.52 951.062 1245.84C950.876 1246.16 950.778 1246.52 950.778 1246.89C950.778 1247.45 951 1247.99 951.396 1248.38C951.792 1248.78 952.329 1249 952.889 1249C953.449 1249 953.986 1248.78 954.382 1248.38C954.778 1247.99 955 1247.45 955 1246.89C955 1246.52 954.902 1246.15 954.717 1245.83C954.531 1245.51 954.265 1245.25 953.944 1245.06V1233.94C954.265 1233.75 954.531 1233.48 954.716 1233.16C954.901 1232.84 954.999 1232.48 955 1232.11C955 1231.55 954.778 1231.01 954.382 1230.62C953.986 1230.22 953.449 1230 952.889 1230C952.329 1230 951.792 1230.22 951.396 1230.62C951 1231.01 950.778 1231.55 950.778 1232.11C950.778 1232.48 950.876 1232.85 951.061 1233.17C951.246 1233.49 951.513 1233.75 951.833 1233.94V1236.86C951.833 1237.15 951.597 1237.39 951.306 1237.39H947.083C946.792 1237.39 946.556 1237.15 946.556 1236.86V1233.94C946.876 1233.75 947.142 1233.48 947.327 1233.16C947.513 1232.84 947.61 1232.48 947.611 1232.11C947.611 1231.55 947.389 1231.01 946.993 1230.62C946.597 1230.22 946.06 1230 945.5 1230C944.94 1230 944.403 1230.22 944.007 1230.62C943.611 1231.01 943.389 1231.55 943.389 1232.11C943.389 1232.48 943.487 1232.85 943.672 1233.17C943.857 1233.49 944.124 1233.75 944.444 1233.94V1236.86C944.444 1237.15 944.208 1237.39 943.917 1237.39H939.694C939.403 1237.39 939.167 1237.15 939.167 1236.86V1233.94C939.487 1233.75 939.753 1233.48 939.938 1233.16C940.124 1232.84 940.222 1232.48 940.222 1232.11C940.222 1231.55 940 1231.01 939.604 1230.62C939.208 1230.22 938.671 1230 938.111 1230Z" fill="black"/>
  </g>
</svg>