<?xml version="1.0" encoding="UTF-8" standalone="yes"?>
<svg width="119" height="119" viewBox="0 0 119 119" fill="none" xmlns="http://www.w3.org/2000/svg">
  <g id="VW Crafter Automatic" transform="translate(-776.5 -1184.5)">
    <g id="Vector_33">
      <mask id="path-89-outside-50_0_1" maskUnits="userSpaceOnUse" x="809" y="1223" width="48" height="38" fill="black">
        <rect fill="white" x="809" y="1223" width="48" height="38"/>
        <path d="M814.389 1226C813.07 1226 812 1227.1 812 1228.46V1251.08C812 1252.44 813.201 1253.68 814.52 1253.68H817.959C818.359 1256.13 820.426 1258 822.92 1258C825.414 1258 827.481 1256.13 827.881 1253.68H835.651C836.967 1253.68 838.04 1252.57 838.04 1251.22V1228.51C838.04 1227.13 836.98 1226 835.677 1226H814.389ZM839.72 1232.05V1253.68C840.124 1256.12 842.266 1258 844.76 1258C847.254 1258 849.321 1256.12 849.721 1253.68H851.48C852.799 1253.68 854 1252.44 854 1251.08V1242.76C854 1241.02 852.783 1239.24 852.635 1239.03L849.144 1234.22C848.343 1233.22 847.086 1232.05 845.6 1232.05H839.72ZM843.92 1236.38H848.619L851.296 1240.05C851.582 1240.47 852.32 1241.74 852.32 1242.76V1243.3H843.92C843.08 1243.3 842.24 1242.43 842.24 1241.57V1238.11C842.24 1237.15 843.08 1236.38 843.92 1236.38ZM822.92 1249.35C824.774 1249.35 826.28 1250.9 826.28 1252.81C826.28 1254.72 824.774 1256.27 822.92 1256.27C821.066 1256.27 819.56 1254.72 819.56 1252.81C819.56 1250.9 821.066 1249.35 822.92 1249.35ZM844.76 1249.35C846.614 1249.35 848.12 1250.9 848.12 1252.81C848.12 1254.72 846.614 1256.27 844.76 1256.27C842.906 1256.27 841.4 1254.72 841.4 1252.81C841.4 1250.9 842.906 1249.35 844.76 1249.35Z"/>
      </mask>
      <path d="M814.389 1226C813.07 1226 812 1227.1 812 1228.46V1251.08C812 1252.44 813.201 1253.68 814.52 1253.68H817.959C818.359 1256.13 820.426 1258 822.92 1258C825.414 1258 827.481 1256.13 827.881 1253.68H835.651C836.967 1253.68 838.04 1252.57 838.04 1251.22V1228.51C838.04 1227.13 836.98 1226 835.677 1226H814.389ZM839.72 1232.05V1253.68C840.124 1256.12 842.266 1258 844.76 1258C847.254 1258 849.321 1256.12 849.721 1253.68H851.48C852.799 1253.68 854 1252.44 854 1251.08V1242.76C854 1241.02 852.783 1239.24 852.635 1239.03L849.144 1234.22C848.343 1233.22 847.086 1232.05 845.6 1232.05H839.72ZM843.92 1236.38H848.619L851.296 1240.05C851.582 1240.47 852.32 1241.74 852.32 1242.76V1243.3H843.92C843.08 1243.3 842.24 1242.43 842.24 1241.57V1238.11C842.24 1237.15 843.08 1236.38 843.92 1236.38ZM822.92 1249.35C824.774 1249.35 826.28 1250.9 826.28 1252.81C826.28 1254.72 824.774 1256.27 822.92 1256.27C821.066 1256.27 819.56 1254.72 819.56 1252.81C819.56 1250.9 821.066 1249.35 822.92 1249.35ZM844.76 1249.35C846.614 1249.35 848.12 1250.9 848.12 1252.81C848.12 1254.72 846.614 1256.27 844.76 1256.27C842.906 1256.27 841.4 1254.72 841.4 1252.81C841.4 1250.9 842.906 1249.35 844.76 1249.35Z" fill="white"/>
      <path d="M814.389 1226C813.07 1226 812 1227.1 812 1228.46V1251.08C812 1252.44 813.201 1253.68 814.52 1253.68H817.959C818.359 1256.13 820.426 1258 822.92 1258C825.414 1258 827.481 1256.13 827.881 1253.68H835.651C836.967 1253.68 838.04 1252.57 838.04 1251.22V1228.51C838.04 1227.13 836.98 1226 835.677 1226H814.389ZM839.72 1232.05V1253.68C840.124 1256.12 842.266 1258 844.76 1258C847.254 1258 849.321 1256.12 849.721 1253.68H851.48C852.799 1253.68 854 1252.44 854 1251.08V1242.76C854 1241.02 852.783 1239.24 852.635 1239.03L849.144 1234.22C848.343 1233.22 847.086 1232.05 845.6 1232.05H839.72ZM843.92 1236.38H848.619L851.296 1240.05C851.582 1240.47 852.32 1241.74 852.32 1242.76V1243.3H843.92C843.08 1243.3 842.24 1242.43 842.24 1241.57V1238.11C842.24 1237.15 843.08 1236.38 843.92 1236.38ZM822.92 1249.35C824.774 1249.35 826.28 1250.9 826.28 1252.81C826.28 1254.72 824.774 1256.27 822.92 1256.27C821.066 1256.27 819.56 1254.72 819.56 1252.81C819.56 1250.9 821.066 1249.35 822.92 1249.35ZM844.76 1249.35C846.614 1249.35 848.12 1250.9 848.12 1252.81C848.12 1254.72 846.614 1256.27 844.76 1256.27C842.906 1256.27 841.4 1254.72 841.4 1252.81C841.4 1250.9 842.906 1249.35 844.76 1249.35Z" stroke="black" stroke-width="6" mask="url(#path-89-outside-50_0_1)"/>
    </g>
    <g id="Vector_34">
      <mask id="path-90-outside-51_0_1" maskUnits="userSpaceOnUse" x="835" y="1241" width="28" height="28" fill="black">
        <rect fill="white" x="835" y="1241" width="28" height="28"/>
        <path d="M849 1244C842.934 1244 838 1248.93 838 1255C838 1261.07 842.934 1266 849 1266C855.066 1266 860 1261.07 860 1255C860 1248.93 855.066 1244 849 1244ZM851.809 1246.36L849 1252.61L846.191 1246.36C847.076 1246.07 848.02 1245.91 849 1245.91C849.98 1245.91 850.924 1246.07 851.809 1246.36ZM844.333 1247.22L847.756 1254.52H850.244L853.667 1247.22C854.686 1247.83 855.573 1248.64 856.281 1249.59L852.038 1258.83L850.272 1255.48H847.728L845.962 1258.83L841.718 1249.59C842.427 1248.64 843.314 1247.83 844.333 1247.22ZM839.913 1255C839.913 1253.88 840.127 1252.81 840.501 1251.81L845.721 1263.47C845.724 1263.47 845.728 1263.47 845.731 1263.47C842.333 1262.15 839.913 1258.86 839.913 1255ZM845.741 1263.47L849 1257.39L852.259 1263.47C851.246 1263.86 850.15 1264.09 849 1264.09C847.85 1264.09 846.754 1263.86 845.741 1263.47ZM852.268 1263.47C852.272 1263.47 852.275 1263.47 852.278 1263.47L857.499 1251.81C857.873 1252.81 858.087 1253.88 858.087 1255C858.087 1258.86 855.667 1262.15 852.268 1263.47Z"/>
      </mask>
      <path d="M849 1244C842.934 1244 838 1248.93 838 1255C838 1261.07 842.934 1266 849 1266C855.066 1266 860 1261.07 860 1255C860 1248.93 855.066 1244 849 1244ZM851.809 1246.36L849 1252.61L846.191 1246.36C847.076 1246.07 848.02 1245.91 849 1245.91C849.98 1245.91 850.924 1246.07 851.809 1246.36ZM844.333 1247.22L847.756 1254.52H850.244L853.667 1247.22C854.686 1247.83 855.573 1248.64 856.281 1249.59L852.038 1258.83L850.272 1255.48H847.728L845.962 1258.83L841.718 1249.59C842.427 1248.64 843.314 1247.83 844.333 1247.22ZM839.913 1255C839.913 1253.88 840.127 1252.81 840.501 1251.81L845.721 1263.47C845.724 1263.47 845.728 1263.47 845.731 1263.47C842.333 1262.15 839.913 1258.86 839.913 1255ZM845.741 1263.47L849 1257.39L852.259 1263.47C851.246 1263.86 850.15 1264.09 849 1264.09C847.85 1264.09 846.754 1263.86 845.741 1263.47ZM852.268 1263.47C852.272 1263.47 852.275 1263.47 852.278 1263.47L857.499 1251.81C857.873 1252.81 858.087 1253.88 858.087 1255C858.087 1258.86 855.667 1262.15 852.268 1263.47Z" fill="white"/>
      <path d="M849 1244C842.934 1244 838 1248.93 838 1255C838 1261.07 842.934 1266 849 1266C855.066 1266 860 1261.07 860 1255C860 1248.93 855.066 1244 849 1244ZM851.809 1246.36L849 1252.61L846.191 1246.36C847.076 1246.07 848.02 1245.91 849 1245.91C849.98 1245.91 850.924 1246.07 851.809 1246.36ZM844.333 1247.22L847.756 1254.52H850.244L853.667 1247.22C854.686 1247.83 855.573 1248.64 856.281 1249.59L852.038 1258.83L850.272 1255.48H847.728L845.962 1258.83L841.718 1249.59C842.427 1248.64 843.314 1247.83 844.333 1247.22ZM839.913 1255C839.913 1253.88 840.127 1252.81 840.501 1251.81L845.721 1263.47C845.724 1263.47 845.728 1263.47 845.731 1263.47C842.333 1262.15 839.913 1258.86 839.913 1255ZM845.741 1263.47L849 1257.39L852.259 1263.47C851.246 1263.86 850.15 1264.09 849 1264.09C847.85 1264.09 846.754 1263.86 845.741 1263.47ZM852.268 1263.47C852.272 1263.47 852.275 1263.47 852.278 1263.47L857.499 1251.81C857.873 1252.81 858.087 1253.88 858.087 1255C858.087 1258.86 855.667 1262.15 852.268 1263.47Z" stroke="black" stroke-width="6" mask="url(#path-90-outside-51_0_1)"/>
    </g>
  </g>
</svg>