<?xml version="1.0" encoding="UTF-8" standalone="yes"?>
<svg width="119" height="119" viewBox="0 0 119 119" fill="none" xmlns="http://www.w3.org/2000/svg">
  <g id="VW ID.3" transform="translate(-776.5 -104.5)">
    <g id="Frame 1">
      <g id="Vector_2">
        <mask id="path-4-outside-2_0_1" maskUnits="userSpaceOnUse" x="810" y="135" width="52" height="52" fill="black">
          <rect fill="white" x="810" y="135" width="52" height="52"/>
          <path d="M836 138C823.317 138 813 148.318 813 161C813 173.682 823.317 184 836 184C848.683 184 859 173.682 859 161C859 148.318 848.683 138 836 138ZM841.873 142.94L836 156L830.127 142.94C831.978 142.336 833.95 142 836 142C838.05 142 840.022 142.336 841.873 142.94ZM826.241 144.728L833.398 160H838.601L845.758 144.728C847.888 146.011 849.743 147.694 851.224 149.681L842.353 169L838.66 162H833.34L829.647 169L820.775 149.681C822.256 147.695 824.111 146.011 826.241 144.728ZM817 161C817 158.652 817.448 156.413 818.23 154.335L829.144 178.7C829.151 178.703 829.158 178.705 829.165 178.708C822.06 175.955 817 169.065 817 161ZM829.185 178.715L836 166L842.815 178.715C840.696 179.533 838.404 180 836 180C833.596 180 831.304 179.533 829.185 178.715ZM842.834 178.708C842.841 178.705 842.848 178.703 842.855 178.7L853.77 154.335C854.552 156.413 855 158.652 855 161C855 169.065 849.94 175.955 842.834 178.708Z"/>
        </mask>
        <path d="M836 138C823.317 138 813 148.318 813 161C813 173.682 823.317 184 836 184C848.683 184 859 173.682 859 161C859 148.318 848.683 138 836 138ZM841.873 142.94L836 156L830.127 142.94C831.978 142.336 833.95 142 836 142C838.05 142 840.022 142.336 841.873 142.94ZM826.241 144.728L833.398 160H838.601L845.758 144.728C847.888 146.011 849.743 147.694 851.224 149.681L842.353 169L838.66 162H833.34L829.647 169L820.775 149.681C822.256 147.695 824.111 146.011 826.241 144.728ZM817 161C817 158.652 817.448 156.413 818.23 154.335L829.144 178.7C829.151 178.703 829.158 178.705 829.165 178.708C822.06 175.955 817 169.065 817 161ZM829.185 178.715L836 166L842.815 178.715C840.696 179.533 838.404 180 836 180C833.596 180 831.304 179.533 829.185 178.715ZM842.834 178.708C842.841 178.705 842.848 178.703 842.855 178.7L853.77 154.335C854.552 156.413 855 158.652 855 161C855 169.065 849.94 175.955 842.834 178.708Z" fill="white"/>
        <path d="M836 138C823.317 138 813 148.318 813 161C813 173.682 823.317 184 836 184C848.683 184 859 173.682 859 161C859 148.318 848.683 138 836 138ZM841.873 142.94L836 156L830.127 142.94C831.978 142.336 833.95 142 836 142C838.05 142 840.022 142.336 841.873 142.94ZM826.241 144.728L833.398 160H838.601L845.758 144.728C847.888 146.011 849.743 147.694 851.224 149.681L842.353 169L838.66 162H833.34L829.647 169L820.775 149.681C822.256 147.695 824.111 146.011 826.241 144.728ZM817 161C817 158.652 817.448 156.413 818.23 154.335L829.144 178.7C829.151 178.703 829.158 178.705 829.165 178.708C822.06 175.955 817 169.065 817 161ZM829.185 178.715L836 166L842.815 178.715C840.696 179.533 838.404 180 836 180C833.596 180 831.304 179.533 829.185 178.715ZM842.834 178.708C842.841 178.705 842.848 178.703 842.855 178.7L853.77 154.335C854.552 156.413 855 158.652 855 161C855 169.065 849.94 175.955 842.834 178.708Z" stroke="black" stroke-width="6" mask="url(#path-4-outside-2_0_1)"/>
      </g>
      <g id="3">
        <mask id="path-5-outside-3_0_1" maskUnits="userSpaceOnUse" x="833.44" y="158.368" width="28" height="33" fill="black">
          <rect fill="white" x="833.44" y="158.368" width="28" height="33"/>
          <path d="M847.512 187.432C845.688 187.432 843.984 187.132 842.4 186.532C840.84 185.908 839.52 185.032 838.44 183.904L842.94 179.476C843.348 180.052 843.972 180.532 844.812 180.916C845.652 181.276 846.516 181.456 847.404 181.456C848.124 181.456 848.76 181.336 849.312 181.096C849.888 180.856 850.332 180.508 850.644 180.052C850.98 179.596 851.148 179.044 851.148 178.396C851.148 177.748 850.98 177.196 850.644 176.74C850.308 176.284 849.828 175.936 849.204 175.696C848.58 175.456 847.836 175.336 846.972 175.336C846.492 175.336 845.976 175.372 845.424 175.444C844.896 175.492 844.488 175.576 844.2 175.696L847.332 171.808C848.172 171.616 848.916 171.46 849.564 171.34C850.236 171.196 850.824 171.124 851.328 171.124C852.624 171.124 853.788 171.424 854.82 172.024C855.852 172.624 856.668 173.488 857.268 174.616C857.868 175.72 858.168 177.04 858.168 178.576C858.168 180.328 857.724 181.876 856.836 183.22C855.972 184.54 854.736 185.572 853.128 186.316C851.544 187.06 849.672 187.432 847.512 187.432ZM844.2 175.696V171.844L849.852 165.184L857.52 165.22L851.688 171.808L844.2 175.696ZM840.348 167.272V161.368H857.52V165.22L852.228 167.272H840.348Z"/>
        </mask>
        <path d="M847.512 187.432C845.688 187.432 843.984 187.132 842.4 186.532C840.84 185.908 839.52 185.032 838.44 183.904L842.94 179.476C843.348 180.052 843.972 180.532 844.812 180.916C845.652 181.276 846.516 181.456 847.404 181.456C848.124 181.456 848.76 181.336 849.312 181.096C849.888 180.856 850.332 180.508 850.644 180.052C850.98 179.596 851.148 179.044 851.148 178.396C851.148 177.748 850.98 177.196 850.644 176.74C850.308 176.284 849.828 175.936 849.204 175.696C848.58 175.456 847.836 175.336 846.972 175.336C846.492 175.336 845.976 175.372 845.424 175.444C844.896 175.492 844.488 175.576 844.2 175.696L847.332 171.808C848.172 171.616 848.916 171.46 849.564 171.34C850.236 171.196 850.824 171.124 851.328 171.124C852.624 171.124 853.788 171.424 854.82 172.024C855.852 172.624 856.668 173.488 857.268 174.616C857.868 175.72 858.168 177.04 858.168 178.576C858.168 180.328 857.724 181.876 856.836 183.22C855.972 184.54 854.736 185.572 853.128 186.316C851.544 187.06 849.672 187.432 847.512 187.432ZM844.2 175.696V171.844L849.852 165.184L857.52 165.22L851.688 171.808L844.2 175.696ZM840.348 167.272V161.368H857.52V165.22L852.228 167.272H840.348Z" fill="white"/>
        <path d="M842.4 186.532L841.285 189.317L841.311 189.328L841.337 189.337L842.4 186.532ZM838.44 183.904L836.335 181.766L834.226 183.841L836.273 185.979L838.44 183.904ZM842.94 179.476L845.388 177.742L843.349 174.864L840.835 177.338L842.94 179.476ZM844.812 180.916L843.564 183.644L843.597 183.659L843.63 183.673L844.812 180.916ZM849.312 181.096L848.158 178.327L848.136 178.336L848.115 178.345L849.312 181.096ZM850.644 180.052L848.228 178.272L848.197 178.315L848.168 178.358L850.644 180.052ZM850.644 176.74L853.059 174.96L853.059 174.96L850.644 176.74ZM849.204 175.696L850.28 172.896L850.28 172.896L849.204 175.696ZM845.424 175.444L845.695 178.432L845.753 178.426L845.812 178.419L845.424 175.444ZM844.2 175.696H841.2V180.196L845.353 178.465L844.2 175.696ZM847.332 171.808L846.663 168.883L845.648 169.115L844.995 169.926L847.332 171.808ZM849.564 171.34L850.11 174.29L850.151 174.282L850.192 174.273L849.564 171.34ZM854.82 172.024L853.312 174.618L853.312 174.618L854.82 172.024ZM857.268 174.616L854.619 176.025L854.625 176.037L854.632 176.049L857.268 174.616ZM856.836 183.22L854.332 181.566L854.325 181.577L856.836 183.22ZM853.128 186.316L851.868 183.593L851.86 183.597L851.852 183.601L853.128 186.316ZM844.2 171.844L841.912 169.903L841.2 170.743V171.844H844.2ZM849.852 165.184L849.866 162.184L848.468 162.177L847.564 163.243L849.852 165.184ZM857.52 165.22L859.766 167.209L860.52 166.357V165.22H857.52ZM851.688 171.808L853.07 174.47L853.564 174.214L853.934 173.797L851.688 171.808ZM840.348 167.272H837.348V170.272H840.348V167.272ZM840.348 161.368V158.368H837.348V161.368H840.348ZM857.52 161.368H860.52V158.368H857.52V161.368ZM852.228 167.272V170.272H852.789L853.312 170.069L852.228 167.272ZM847.512 184.432C846.023 184.432 844.681 184.188 843.462 183.727L841.337 189.337C843.286 190.076 845.352 190.432 847.512 190.432V184.432ZM843.514 183.747C842.321 183.269 841.368 182.625 840.606 181.829L836.273 185.979C837.671 187.439 839.358 188.547 841.285 189.317L843.514 183.747ZM840.544 186.042L845.044 181.614L840.835 177.338L836.335 181.766L840.544 186.042ZM840.491 181.21C841.285 182.331 842.388 183.107 843.564 183.644L846.059 178.188C845.555 177.957 845.41 177.773 845.388 177.742L840.491 181.21ZM843.63 183.673C844.832 184.189 846.097 184.456 847.404 184.456V178.456C846.934 178.456 846.471 178.363 845.993 178.159L843.63 183.673ZM847.404 184.456C848.456 184.456 849.512 184.28 850.508 183.847L848.115 178.345C848.007 178.392 847.791 178.456 847.404 178.456V184.456ZM850.465 183.865C851.505 183.432 852.439 182.741 853.119 181.746L848.168 178.358C848.177 178.344 848.188 178.331 848.199 178.319C848.211 178.306 848.22 178.298 848.226 178.294C848.231 178.29 848.23 178.291 848.22 178.297C848.21 178.302 848.19 178.313 848.158 178.327L850.465 183.865ZM853.059 181.832C853.828 180.788 854.148 179.588 854.148 178.396H848.148C848.148 178.46 848.139 178.462 848.151 178.423C848.157 178.403 848.167 178.378 848.181 178.35C848.195 178.322 848.211 178.296 848.228 178.272L853.059 181.832ZM854.148 178.396C854.148 177.204 853.828 176.004 853.059 174.96L848.228 178.52C848.211 178.496 848.195 178.47 848.181 178.442C848.167 178.414 848.157 178.389 848.151 178.369C848.139 178.33 848.148 178.332 848.148 178.396H854.148ZM853.059 174.96C852.326 173.966 851.341 173.304 850.28 172.896L848.127 178.496C848.226 178.534 848.266 178.563 848.271 178.566C848.273 178.567 848.268 178.564 848.259 178.555C848.25 178.546 848.239 178.534 848.228 178.52L853.059 174.96ZM850.28 172.896C849.229 172.491 848.101 172.336 846.972 172.336V178.336C847.57 178.336 847.93 178.421 848.127 178.496L850.28 172.896ZM846.972 172.336C846.343 172.336 845.696 172.383 845.035 172.469L845.812 178.419C846.255 178.361 846.64 178.336 846.972 178.336V172.336ZM845.152 172.456C844.501 172.516 843.744 172.636 843.046 172.927L845.353 178.465C845.273 178.499 845.252 178.497 845.326 178.481C845.395 178.467 845.515 178.448 845.695 178.432L845.152 172.456ZM846.536 177.578L849.668 173.69L844.995 169.926L841.863 173.814L846.536 177.578ZM848 174.733C848.811 174.547 849.513 174.4 850.11 174.29L849.017 168.39C848.318 168.52 847.532 168.685 846.663 168.883L848 174.733ZM850.192 174.273C850.727 174.159 851.095 174.124 851.328 174.124V168.124C850.552 168.124 849.745 168.233 848.935 168.407L850.192 174.273ZM851.328 174.124C852.141 174.124 852.776 174.306 853.312 174.618L856.327 169.43C854.799 168.542 853.106 168.124 851.328 168.124V174.124ZM853.312 174.618C853.826 174.917 854.262 175.354 854.619 176.025L859.916 173.207C859.073 171.622 857.877 170.331 856.327 169.43L853.312 174.618ZM854.632 176.049C854.945 176.625 855.168 177.43 855.168 178.576H861.168C861.168 176.65 860.79 174.815 859.903 173.183L854.632 176.049ZM855.168 178.576C855.168 179.794 854.868 180.756 854.333 181.566L859.339 184.874C860.579 182.996 861.168 180.862 861.168 178.576H855.168ZM854.325 181.577C853.806 182.371 853.031 183.055 851.868 183.593L854.387 189.039C856.44 188.089 858.137 186.709 859.346 184.863L854.325 181.577ZM851.852 183.601C850.749 184.119 849.332 184.432 847.512 184.432V190.432C850.012 190.432 852.338 190.001 854.403 189.031L851.852 183.601ZM847.2 175.696V171.844H841.2V175.696H847.2ZM846.487 173.785L852.139 167.125L847.564 163.243L841.912 169.903L846.487 173.785ZM849.837 168.184L857.505 168.22L857.534 162.22L849.866 162.184L849.837 168.184ZM855.273 163.231L849.441 169.819L853.934 173.797L859.766 167.209L855.273 163.231ZM850.305 169.146L842.817 173.034L845.582 178.358L853.07 174.47L850.305 169.146ZM843.348 167.272V161.368H837.348V167.272H843.348ZM840.348 164.368H857.52V158.368H840.348V164.368ZM854.52 161.368V165.22H860.52V161.368H854.52ZM856.435 162.423L851.143 164.475L853.312 170.069L858.604 168.017L856.435 162.423ZM852.228 164.272H840.348V170.272H852.228V164.272Z" fill="black" mask="url(#path-5-outside-3_0_1)"/>
      </g>
    </g>
  </g>
</svg>