<?xml version="1.0" encoding="UTF-8" standalone="yes"?>
<svg width="119" height="119" viewBox="0 0 119 119" fill="none" xmlns="http://www.w3.org/2000/svg">
  <g id="VW ID.4 Pro" transform="translate(-896.5 -104.5)">
    <g id="Frame 2">
      <g id="Vector_3">
        <mask id="path-8-outside-4_0_1" maskUnits="userSpaceOnUse" x="930" y="135" width="52" height="52" fill="black">
          <rect fill="white" x="930" y="135" width="52" height="52"/>
          <path d="M956 138C943.317 138 933 148.318 933 161C933 173.682 943.317 184 956 184C968.683 184 979 173.682 979 161C979 148.318 968.683 138 956 138ZM961.873 142.94L956 156L950.127 142.94C951.978 142.336 953.95 142 956 142C958.05 142 960.022 142.336 961.873 142.94ZM946.241 144.728L953.398 160H958.601L965.758 144.728C967.888 146.011 969.743 147.694 971.224 149.681L962.353 169L958.66 162H953.34L949.647 169L940.775 149.681C942.256 147.695 944.111 146.011 946.241 144.728ZM937 161C937 158.652 937.448 156.413 938.23 154.335L949.144 178.7C949.151 178.703 949.158 178.705 949.165 178.708C942.06 175.955 937 169.065 937 161ZM949.185 178.715L956 166L962.815 178.715C960.696 179.533 958.404 180 956 180C953.596 180 951.304 179.533 949.185 178.715ZM962.834 178.708C962.841 178.705 962.848 178.703 962.855 178.7L973.77 154.335C974.552 156.413 975 158.652 975 161C975 169.065 969.94 175.955 962.834 178.708Z"/>
        </mask>
        <path d="M956 138C943.317 138 933 148.318 933 161C933 173.682 943.317 184 956 184C968.683 184 979 173.682 979 161C979 148.318 968.683 138 956 138ZM961.873 142.94L956 156L950.127 142.94C951.978 142.336 953.95 142 956 142C958.05 142 960.022 142.336 961.873 142.94ZM946.241 144.728L953.398 160H958.601L965.758 144.728C967.888 146.011 969.743 147.694 971.224 149.681L962.353 169L958.66 162H953.34L949.647 169L940.775 149.681C942.256 147.695 944.111 146.011 946.241 144.728ZM937 161C937 158.652 937.448 156.413 938.23 154.335L949.144 178.7C949.151 178.703 949.158 178.705 949.165 178.708C942.06 175.955 937 169.065 937 161ZM949.185 178.715L956 166L962.815 178.715C960.696 179.533 958.404 180 956 180C953.596 180 951.304 179.533 949.185 178.715ZM962.834 178.708C962.841 178.705 962.848 178.703 962.855 178.7L973.77 154.335C974.552 156.413 975 158.652 975 161C975 169.065 969.94 175.955 962.834 178.708Z" fill="white"/>
        <path d="M956 138C943.317 138 933 148.318 933 161C933 173.682 943.317 184 956 184C968.683 184 979 173.682 979 161C979 148.318 968.683 138 956 138ZM961.873 142.94L956 156L950.127 142.94C951.978 142.336 953.95 142 956 142C958.05 142 960.022 142.336 961.873 142.94ZM946.241 144.728L953.398 160H958.601L965.758 144.728C967.888 146.011 969.743 147.694 971.224 149.681L962.353 169L958.66 162H953.34L949.647 169L940.775 149.681C942.256 147.695 944.111 146.011 946.241 144.728ZM937 161C937 158.652 937.448 156.413 938.23 154.335L949.144 178.7C949.151 178.703 949.158 178.705 949.165 178.708C942.06 175.955 937 169.065 937 161ZM949.185 178.715L956 166L962.815 178.715C960.696 179.533 958.404 180 956 180C953.596 180 951.304 179.533 949.185 178.715ZM962.834 178.708C962.841 178.705 962.848 178.703 962.855 178.7L973.77 154.335C974.552 156.413 975 158.652 975 161C975 169.065 969.94 175.955 962.834 178.708Z" stroke="black" stroke-width="6" mask="url(#path-8-outside-4_0_1)"/>
      </g>
      <g id="4">
        <mask id="path-9-outside-5_0_1" maskUnits="userSpaceOnUse" x="954.25" y="159.368" width="28" height="32" fill="black">
          <rect fill="white" x="954.25" y="159.368" width="28" height="32"/>
          <path d="M957.25 179.36L964.954 162.368H972.586L964.702 179.36H957.25ZM957.25 183.212V179.36L959.194 177.308H978.418V183.212H957.25ZM969.274 188V173.024H976.294V188H969.274Z"/>
        </mask>
        <path d="M957.25 179.36L964.954 162.368H972.586L964.702 179.36H957.25ZM957.25 183.212V179.36L959.194 177.308H978.418V183.212H957.25ZM969.274 188V173.024H976.294V188H969.274Z" fill="white"/>
        <path d="M957.25 179.36L954.518 178.121L954.25 178.712V179.36H957.25ZM964.954 162.368V159.368H963.02L962.222 161.129L964.954 162.368ZM972.586 162.368L975.307 163.631L977.285 159.368H972.586V162.368ZM964.702 179.36V182.36H966.617L967.423 180.623L964.702 179.36ZM957.25 183.212H954.25V186.212H957.25V183.212ZM959.194 177.308V174.308H957.904L957.016 175.245L959.194 177.308ZM978.418 177.308H981.418V174.308H978.418V177.308ZM978.418 183.212V186.212H981.418V183.212H978.418ZM969.274 188H966.274V191H969.274V188ZM969.274 173.024V170.024H966.274V173.024H969.274ZM976.294 173.024H979.294V170.024H976.294V173.024ZM976.294 188V191H979.294V188H976.294ZM959.982 180.599L967.686 163.607L962.222 161.129L954.518 178.121L959.982 180.599ZM964.954 165.368H972.586V159.368H964.954V165.368ZM969.865 161.105L961.981 178.097L967.423 180.623L975.307 163.631L969.865 161.105ZM964.702 176.36H957.25V182.36H964.702V176.36ZM960.25 183.212V179.36H954.25V183.212H960.25ZM959.428 181.423L961.372 179.371L957.016 175.245L955.072 177.297L959.428 181.423ZM959.194 180.308H978.418V174.308H959.194V180.308ZM975.418 177.308V183.212H981.418V177.308H975.418ZM978.418 180.212H957.25V186.212H978.418V180.212ZM972.274 188V173.024H966.274V188H972.274ZM969.274 176.024H976.294V170.024H969.274V176.024ZM973.294 173.024V188H979.294V173.024H973.294ZM976.294 185H969.274V191H976.294V185Z" fill="black" mask="url(#path-9-outside-5_0_1)"/>
      </g>
    </g>
  </g>
</svg>