<?xml version="1.0" encoding="UTF-8" standalone="yes"?>
<svg width="119" height="119" viewBox="0 0 119 119" fill="none" xmlns="http://www.w3.org/2000/svg">
  <g id="VW Polo" transform="translate(-656.5 -224.5)">
    <g id="Frame 3">
      <g id="Vector_4">
        <mask id="path-12-outside-6_0_1" maskUnits="userSpaceOnUse" x="690" y="255" width="52" height="52" fill="black">
          <rect fill="white" x="690" y="255" width="52" height="52"/>
          <path d="M716 258C703.317 258 693 268.318 693 281C693 293.682 703.317 304 716 304C728.683 304 739 293.682 739 281C739 268.318 728.683 258 716 258ZM721.873 262.94L716 276L710.127 262.94C711.978 262.336 713.95 262 716 262C718.05 262 720.022 262.336 721.873 262.94ZM706.241 264.728L713.398 280H718.601L725.758 264.728C727.888 266.011 729.743 267.694 731.224 269.681L722.353 289L718.66 282H713.34L709.647 289L700.775 269.681C702.256 267.695 704.111 266.011 706.241 264.728ZM697 281C697 278.652 697.448 276.413 698.23 274.335L709.144 298.7C709.151 298.703 709.158 298.705 709.165 298.708C702.06 295.955 697 289.065 697 281ZM709.185 298.715L716 286L722.815 298.715C720.696 299.533 718.404 300 716 300C713.596 300 711.304 299.533 709.185 298.715ZM722.834 298.708C722.841 298.705 722.848 298.703 722.855 298.7L733.77 274.335C734.552 276.413 735 278.652 735 281C735 289.065 729.94 295.955 722.834 298.708Z"/>
        </mask>
        <path d="M716 258C703.317 258 693 268.318 693 281C693 293.682 703.317 304 716 304C728.683 304 739 293.682 739 281C739 268.318 728.683 258 716 258ZM721.873 262.94L716 276L710.127 262.94C711.978 262.336 713.95 262 716 262C718.05 262 720.022 262.336 721.873 262.94ZM706.241 264.728L713.398 280H718.601L725.758 264.728C727.888 266.011 729.743 267.694 731.224 269.681L722.353 289L718.66 282H713.34L709.647 289L700.775 269.681C702.256 267.695 704.111 266.011 706.241 264.728ZM697 281C697 278.652 697.448 276.413 698.23 274.335L709.144 298.7C709.151 298.703 709.158 298.705 709.165 298.708C702.06 295.955 697 289.065 697 281ZM709.185 298.715L716 286L722.815 298.715C720.696 299.533 718.404 300 716 300C713.596 300 711.304 299.533 709.185 298.715ZM722.834 298.708C722.841 298.705 722.848 298.703 722.855 298.7L733.77 274.335C734.552 276.413 735 278.652 735 281C735 289.065 729.94 295.955 722.834 298.708Z" fill="white"/>
        <path d="M716 258C703.317 258 693 268.318 693 281C693 293.682 703.317 304 716 304C728.683 304 739 293.682 739 281C739 268.318 728.683 258 716 258ZM721.873 262.94L716 276L710.127 262.94C711.978 262.336 713.95 262 716 262C718.05 262 720.022 262.336 721.873 262.94ZM706.241 264.728L713.398 280H718.601L725.758 264.728C727.888 266.011 729.743 267.694 731.224 269.681L722.353 289L718.66 282H713.34L709.647 289L700.775 269.681C702.256 267.695 704.111 266.011 706.241 264.728ZM697 281C697 278.652 697.448 276.413 698.23 274.335L709.144 298.7C709.151 298.703 709.158 298.705 709.165 298.708C702.06 295.955 697 289.065 697 281ZM709.185 298.715L716 286L722.815 298.715C720.696 299.533 718.404 300 716 300C713.596 300 711.304 299.533 709.185 298.715ZM722.834 298.708C722.841 298.705 722.848 298.703 722.855 298.7L733.77 274.335C734.552 276.413 735 278.652 735 281C735 289.065 729.94 295.955 722.834 298.708Z" stroke="black" stroke-width="6" mask="url(#path-12-outside-6_0_1)"/>
      </g>
      <g id="P">
        <mask id="path-13-outside-7_0_1" maskUnits="userSpaceOnUse" x="714.64" y="279.368" width="27" height="32" fill="black">
          <rect fill="white" x="714.64" y="279.368" width="27" height="32"/>
          <path d="M723.472 299V293.816H728.116C728.668 293.816 729.172 293.708 729.628 293.492C730.108 293.252 730.492 292.904 730.78 292.448C731.068 291.968 731.212 291.38 731.212 290.684C731.212 289.988 731.068 289.412 730.78 288.956C730.492 288.476 730.108 288.128 729.628 287.912C729.172 287.672 728.668 287.552 728.116 287.552H723.472V282.368H729.52C731.176 282.368 732.664 282.704 733.984 283.376C735.328 284.024 736.384 284.972 737.152 286.22C737.944 287.444 738.34 288.932 738.34 290.684C738.34 292.412 737.944 293.9 737.152 295.148C736.384 296.396 735.328 297.356 733.984 298.028C732.664 298.676 731.176 299 729.52 299H723.472ZM717.64 308V282.368H724.84V308H717.64Z"/>
        </mask>
        <path d="M723.472 299V293.816H728.116C728.668 293.816 729.172 293.708 729.628 293.492C730.108 293.252 730.492 292.904 730.78 292.448C731.068 291.968 731.212 291.38 731.212 290.684C731.212 289.988 731.068 289.412 730.78 288.956C730.492 288.476 730.108 288.128 729.628 287.912C729.172 287.672 728.668 287.552 728.116 287.552H723.472V282.368H729.52C731.176 282.368 732.664 282.704 733.984 283.376C735.328 284.024 736.384 284.972 737.152 286.22C737.944 287.444 738.34 288.932 738.34 290.684C738.34 292.412 737.944 293.9 737.152 295.148C736.384 296.396 735.328 297.356 733.984 298.028C732.664 298.676 731.176 299 729.52 299H723.472ZM717.64 308V282.368H724.84V308H717.64Z" fill="white"/>
        <path d="M723.472 299V293.816H728.116C728.668 293.816 729.172 293.708 729.628 293.492C730.108 293.252 730.492 292.904 730.78 292.448C731.068 291.968 731.212 291.38 731.212 290.684C731.212 289.988 731.068 289.412 730.78 288.956C730.492 288.476 730.108 288.128 729.628 287.912C729.172 287.672 728.668 287.552 728.116 287.552H723.472V282.368H729.52C731.176 282.368 732.664 282.704 733.984 283.376C735.328 284.024 736.384 284.972 737.152 286.22C737.944 287.444 738.34 288.932 738.34 290.684C738.34 292.412 737.944 293.9 737.152 295.148C736.384 296.396 735.328 297.356 733.984 298.028C732.664 298.676 731.176 299 729.52 299H723.472ZM717.64 308V282.368H724.84V308H717.64Z" stroke="black" stroke-width="6" mask="url(#path-13-outside-7_0_1)"/>
      </g>
    </g>
  </g>
</svg>