<?xml version="1.0" encoding="UTF-8" standalone="yes"?>
<svg width="119" height="119" viewBox="0 0 119 119" fill="none" xmlns="http://www.w3.org/2000/svg">
  <g id="VW Polo GP 2022" transform="translate(-656.5 -344.5)">
    <g id="Frame 4_2">
      <g id="Vector_7">
        <mask id="path-21-outside-12_0_1" maskUnits="userSpaceOnUse" x="689" y="375" width="52" height="52" fill="black">
          <rect fill="white" x="689" y="375" width="52" height="52"/>
          <path d="M715 378C702.317 378 692 388.318 692 401C692 413.682 702.317 424 715 424C727.683 424 738 413.682 738 401C738 388.318 727.683 378 715 378ZM720.873 382.94L715 396L709.127 382.94C710.978 382.336 712.95 382 715 382C717.05 382 719.022 382.336 720.873 382.94ZM705.241 384.728L712.398 400H717.601L724.758 384.728C726.888 386.011 728.743 387.694 730.224 389.681L721.353 409L717.66 402H712.34L708.647 409L699.775 389.681C701.256 387.695 703.111 386.011 705.241 384.728ZM696 401C696 398.652 696.448 396.413 697.23 394.335L708.144 418.7C708.151 418.703 708.158 418.705 708.165 418.708C701.06 415.955 696 409.065 696 401ZM708.185 418.715L715 406L721.815 418.715C719.696 419.533 717.404 420 715 420C712.596 420 710.304 419.533 708.185 418.715ZM721.834 418.708C721.841 418.705 721.848 418.703 721.855 418.7L732.77 394.335C733.552 396.413 734 398.652 734 401C734 409.065 728.94 415.955 721.834 418.708Z"/>
        </mask>
        <path d="M715 378C702.317 378 692 388.318 692 401C692 413.682 702.317 424 715 424C727.683 424 738 413.682 738 401C738 388.318 727.683 378 715 378ZM720.873 382.94L715 396L709.127 382.94C710.978 382.336 712.95 382 715 382C717.05 382 719.022 382.336 720.873 382.94ZM705.241 384.728L712.398 400H717.601L724.758 384.728C726.888 386.011 728.743 387.694 730.224 389.681L721.353 409L717.66 402H712.34L708.647 409L699.775 389.681C701.256 387.695 703.111 386.011 705.241 384.728ZM696 401C696 398.652 696.448 396.413 697.23 394.335L708.144 418.7C708.151 418.703 708.158 418.705 708.165 418.708C701.06 415.955 696 409.065 696 401ZM708.185 418.715L715 406L721.815 418.715C719.696 419.533 717.404 420 715 420C712.596 420 710.304 419.533 708.185 418.715ZM721.834 418.708C721.841 418.705 721.848 418.703 721.855 418.7L732.77 394.335C733.552 396.413 734 398.652 734 401C734 409.065 728.94 415.955 721.834 418.708Z" fill="white"/>
        <path d="M715 378C702.317 378 692 388.318 692 401C692 413.682 702.317 424 715 424C727.683 424 738 413.682 738 401C738 388.318 727.683 378 715 378ZM720.873 382.94L715 396L709.127 382.94C710.978 382.336 712.95 382 715 382C717.05 382 719.022 382.336 720.873 382.94ZM705.241 384.728L712.398 400H717.601L724.758 384.728C726.888 386.011 728.743 387.694 730.224 389.681L721.353 409L717.66 402H712.34L708.647 409L699.775 389.681C701.256 387.695 703.111 386.011 705.241 384.728ZM696 401C696 398.652 696.448 396.413 697.23 394.335L708.144 418.7C708.151 418.703 708.158 418.705 708.165 418.708C701.06 415.955 696 409.065 696 401ZM708.185 418.715L715 406L721.815 418.715C719.696 419.533 717.404 420 715 420C712.596 420 710.304 419.533 708.185 418.715ZM721.834 418.708C721.841 418.705 721.848 418.703 721.855 418.7L732.77 394.335C733.552 396.413 734 398.652 734 401C734 409.065 728.94 415.955 721.834 418.708Z" stroke="black" stroke-width="6" mask="url(#path-21-outside-12_0_1)"/>
      </g>
      <g id="GP">
        <mask id="path-22-outside-13_0_1" maskUnits="userSpaceOnUse" x="702.771" y="402.624" width="40" height="24" fill="black">
          <rect fill="white" x="702.771" y="402.624" width="40" height="24"/>
          <path d="M715.059 423.288C713.731 423.288 712.499 423.072 711.363 422.64C710.243 422.192 709.259 421.568 708.411 420.768C707.579 419.968 706.931 419.032 706.467 417.96C706.003 416.888 705.771 415.72 705.771 414.456C705.771 413.176 706.011 412 706.491 410.928C706.987 409.856 707.667 408.928 708.531 408.144C709.411 407.344 710.427 406.728 711.579 406.296C712.731 405.848 713.963 405.624 715.275 405.624C716.859 405.624 718.275 405.896 719.523 406.44C720.787 406.984 721.811 407.72 722.595 408.648L719.355 411.888C718.763 411.2 718.147 410.688 717.507 410.352C716.867 410.016 716.099 409.848 715.203 409.848C714.355 409.848 713.587 410.04 712.899 410.424C712.211 410.792 711.659 411.32 711.243 412.008C710.843 412.696 710.643 413.504 710.643 414.432C710.643 415.36 710.827 416.176 711.195 416.88C711.579 417.568 712.107 418.104 712.779 418.488C713.451 418.872 714.235 419.064 715.131 419.064C715.995 419.064 716.723 418.896 717.315 418.56C717.907 418.224 718.355 417.744 718.659 417.12C718.979 416.496 719.139 415.76 719.139 414.912L722.427 417L714.483 416.76V412.92H723.963V413.64C723.963 415.688 723.587 417.432 722.835 418.872C722.099 420.312 721.059 421.408 719.715 422.16C718.387 422.912 716.835 423.288 715.059 423.288Z"/>
          <path d="M729.648 417V413.544H732.744C733.112 413.544 733.448 413.472 733.752 413.328C734.072 413.168 734.328 412.936 734.52 412.632C734.712 412.312 734.808 411.92 734.808 411.456C734.808 410.992 734.712 410.608 734.52 410.304C734.328 409.984 734.072 409.752 733.752 409.608C733.448 409.448 733.112 409.368 732.744 409.368H729.648V405.912H733.68C734.784 405.912 735.776 406.136 736.656 406.584C737.552 407.016 738.256 407.648 738.768 408.48C739.296 409.296 739.56 410.288 739.56 411.456C739.56 412.608 739.296 413.6 738.768 414.432C738.256 415.264 737.552 415.904 736.656 416.352C735.776 416.784 734.784 417 733.68 417H729.648ZM725.76 423V405.912H730.56V423H725.76Z"/>
        </mask>
        <path d="M715.059 423.288C713.731 423.288 712.499 423.072 711.363 422.64C710.243 422.192 709.259 421.568 708.411 420.768C707.579 419.968 706.931 419.032 706.467 417.96C706.003 416.888 705.771 415.72 705.771 414.456C705.771 413.176 706.011 412 706.491 410.928C706.987 409.856 707.667 408.928 708.531 408.144C709.411 407.344 710.427 406.728 711.579 406.296C712.731 405.848 713.963 405.624 715.275 405.624C716.859 405.624 718.275 405.896 719.523 406.44C720.787 406.984 721.811 407.72 722.595 408.648L719.355 411.888C718.763 411.2 718.147 410.688 717.507 410.352C716.867 410.016 716.099 409.848 715.203 409.848C714.355 409.848 713.587 410.04 712.899 410.424C712.211 410.792 711.659 411.32 711.243 412.008C710.843 412.696 710.643 413.504 710.643 414.432C710.643 415.36 710.827 416.176 711.195 416.88C711.579 417.568 712.107 418.104 712.779 418.488C713.451 418.872 714.235 419.064 715.131 419.064C715.995 419.064 716.723 418.896 717.315 418.56C717.907 418.224 718.355 417.744 718.659 417.12C718.979 416.496 719.139 415.76 719.139 414.912L722.427 417L714.483 416.76V412.92H723.963V413.64C723.963 415.688 723.587 417.432 722.835 418.872C722.099 420.312 721.059 421.408 719.715 422.16C718.387 422.912 716.835 423.288 715.059 423.288Z" fill="white"/>
        <path d="M729.648 417V413.544H732.744C733.112 413.544 733.448 413.472 733.752 413.328C734.072 413.168 734.328 412.936 734.52 412.632C734.712 412.312 734.808 411.92 734.808 411.456C734.808 410.992 734.712 410.608 734.52 410.304C734.328 409.984 734.072 409.752 733.752 409.608C733.448 409.448 733.112 409.368 732.744 409.368H729.648V405.912H733.68C734.784 405.912 735.776 406.136 736.656 406.584C737.552 407.016 738.256 407.648 738.768 408.48C739.296 409.296 739.56 410.288 739.56 411.456C739.56 412.608 739.296 413.6 738.768 414.432C738.256 415.264 737.552 415.904 736.656 416.352C735.776 416.784 734.784 417 733.68 417H729.648ZM725.76 423V405.912H730.56V423H725.76Z" fill="white"/>
        <path d="M715.059 423.288C713.731 423.288 712.499 423.072 711.363 422.64C710.243 422.192 709.259 421.568 708.411 420.768C707.579 419.968 706.931 419.032 706.467 417.96C706.003 416.888 705.771 415.72 705.771 414.456C705.771 413.176 706.011 412 706.491 410.928C706.987 409.856 707.667 408.928 708.531 408.144C709.411 407.344 710.427 406.728 711.579 406.296C712.731 405.848 713.963 405.624 715.275 405.624C716.859 405.624 718.275 405.896 719.523 406.44C720.787 406.984 721.811 407.72 722.595 408.648L719.355 411.888C718.763 411.2 718.147 410.688 717.507 410.352C716.867 410.016 716.099 409.848 715.203 409.848C714.355 409.848 713.587 410.04 712.899 410.424C712.211 410.792 711.659 411.32 711.243 412.008C710.843 412.696 710.643 413.504 710.643 414.432C710.643 415.36 710.827 416.176 711.195 416.88C711.579 417.568 712.107 418.104 712.779 418.488C713.451 418.872 714.235 419.064 715.131 419.064C715.995 419.064 716.723 418.896 717.315 418.56C717.907 418.224 718.355 417.744 718.659 417.12C718.979 416.496 719.139 415.76 719.139 414.912L722.427 417L714.483 416.76V412.92H723.963V413.64C723.963 415.688 723.587 417.432 722.835 418.872C722.099 420.312 721.059 421.408 719.715 422.16C718.387 422.912 716.835 423.288 715.059 423.288Z" stroke="black" stroke-width="6" mask="url(#path-22-outside-13_0_1)"/>
        <path d="M729.648 417V413.544H732.744C733.112 413.544 733.448 413.472 733.752 413.328C734.072 413.168 734.328 412.936 734.52 412.632C734.712 412.312 734.808 411.92 734.808 411.456C734.808 410.992 734.712 410.608 734.52 410.304C734.328 409.984 734.072 409.752 733.752 409.608C733.448 409.448 733.112 409.368 732.744 409.368H729.648V405.912H733.68C734.784 405.912 735.776 406.136 736.656 406.584C737.552 407.016 738.256 407.648 738.768 408.48C739.296 409.296 739.56 410.288 739.56 411.456C739.56 412.608 739.296 413.6 738.768 414.432C738.256 415.264 737.552 415.904 736.656 416.352C735.776 416.784 734.784 417 733.68 417H729.648ZM725.76 423V405.912H730.56V423H725.76Z" stroke="black" stroke-width="6" mask="url(#path-22-outside-13_0_1)"/>
      </g>
    </g>
  </g>
</svg>