<?xml version="1.0" encoding="UTF-8" standalone="yes"?>
<svg width="119" height="119" viewBox="0 0 119 119" fill="none" xmlns="http://www.w3.org/2000/svg">
  <g id="VW T6" transform="translate(-656.5 -1064.5)">
    <g id="Vector_25">
      <mask id="path-75-outside-42_0_1" maskUnits="userSpaceOnUse" x="690" y="1106" width="52" height="36" fill="black">
        <rect fill="white" x="690" y="1106" width="52" height="36"/>
        <path d="M738.008 1123.81L735.385 1120.53L730.724 1111.48C729.933 1109.95 728.362 1109 726.623 1109H696.68C694.65 1109 693 1110.63 693 1112.64V1131.73C693 1133.73 694.65 1135.36 696.68 1135.36H699.533C699.961 1137.43 701.819 1139 704.04 1139C706.261 1139 708.119 1137.43 708.547 1135.36H726.213C726.641 1137.43 728.499 1139 730.72 1139C732.941 1139 734.799 1137.43 735.227 1135.36H736.24C737.76 1135.36 739 1134.14 739 1132.64V1126.63C739 1125.61 738.648 1124.6 738.008 1123.81ZM729.085 1112.31L733.361 1120.61L725.671 1120.02C725.279 1119.98 724.948 1119.71 724.851 1119.33L722.699 1110.82H726.623C727.669 1110.82 728.61 1111.39 729.085 1112.31ZM704.04 1137.18C702.52 1137.18 701.28 1135.96 701.28 1134.45C701.28 1132.95 702.52 1131.73 704.04 1131.73C705.56 1131.73 706.8 1132.95 706.8 1134.45C706.8 1135.96 705.56 1137.18 704.04 1137.18ZM730.72 1137.18C729.2 1137.18 727.96 1135.96 727.96 1134.45C727.96 1132.95 729.2 1131.73 730.72 1131.73C732.24 1131.73 733.48 1132.95 733.48 1134.45C733.48 1135.96 732.24 1137.18 730.72 1137.18Z"/>
      </mask>
      <path d="M738.008 1123.81L735.385 1120.53L730.724 1111.48C729.933 1109.95 728.362 1109 726.623 1109H696.68C694.65 1109 693 1110.63 693 1112.64V1131.73C693 1133.73 694.65 1135.36 696.68 1135.36H699.533C699.961 1137.43 701.819 1139 704.04 1139C706.261 1139 708.119 1137.43 708.547 1135.36H726.213C726.641 1137.43 728.499 1139 730.72 1139C732.941 1139 734.799 1137.43 735.227 1135.36H736.24C737.76 1135.36 739 1134.14 739 1132.64V1126.63C739 1125.61 738.648 1124.6 738.008 1123.81ZM729.085 1112.31L733.361 1120.61L725.671 1120.02C725.279 1119.98 724.948 1119.71 724.851 1119.33L722.699 1110.82H726.623C727.669 1110.82 728.61 1111.39 729.085 1112.31ZM704.04 1137.18C702.52 1137.18 701.28 1135.96 701.28 1134.45C701.28 1132.95 702.52 1131.73 704.04 1131.73C705.56 1131.73 706.8 1132.95 706.8 1134.45C706.8 1135.96 705.56 1137.18 704.04 1137.18ZM730.72 1137.18C729.2 1137.18 727.96 1135.96 727.96 1134.45C727.96 1132.95 729.2 1131.73 730.72 1131.73C732.24 1131.73 733.48 1132.95 733.48 1134.45C733.48 1135.96 732.24 1137.18 730.72 1137.18Z" fill="white"/>
      <path d="M738.008 1123.81L735.385 1120.53L730.724 1111.48C729.933 1109.95 728.362 1109 726.623 1109H696.68C694.65 1109 693 1110.63 693 1112.64V1131.73C693 1133.73 694.65 1135.36 696.68 1135.36H699.533C699.961 1137.43 701.819 1139 704.04 1139C706.261 1139 708.119 1137.43 708.547 1135.36H726.213C726.641 1137.43 728.499 1139 730.72 1139C732.941 1139 734.799 1137.43 735.227 1135.36H736.24C737.76 1135.36 739 1134.14 739 1132.64V1126.63C739 1125.61 738.648 1124.6 738.008 1123.81ZM729.085 1112.31L733.361 1120.61L725.671 1120.02C725.279 1119.98 724.948 1119.71 724.851 1119.33L722.699 1110.82H726.623C727.669 1110.82 728.61 1111.39 729.085 1112.31ZM704.04 1137.18C702.52 1137.18 701.28 1135.96 701.28 1134.45C701.28 1132.95 702.52 1131.73 704.04 1131.73C705.56 1131.73 706.8 1132.95 706.8 1134.45C706.8 1135.96 705.56 1137.18 704.04 1137.18ZM730.72 1137.18C729.2 1137.18 727.96 1135.96 727.96 1134.45C727.96 1132.95 729.2 1131.73 730.72 1131.73C732.24 1131.73 733.48 1132.95 733.48 1134.45C733.48 1135.96 732.24 1137.18 730.72 1137.18Z" stroke="black" stroke-width="6" mask="url(#path-75-outside-42_0_1)"/>
    </g>
    <g id="Vector_26">
      <mask id="path-76-outside-43_0_1" maskUnits="userSpaceOnUse" x="717" y="1122" width="28" height="28" fill="black">
        <rect fill="white" x="717" y="1122" width="28" height="28"/>
        <path d="M731 1125C724.934 1125 720 1129.93 720 1136C720 1142.07 724.934 1147 731 1147C737.066 1147 742 1142.07 742 1136C742 1129.93 737.066 1125 731 1125ZM733.809 1127.36L731 1133.61L728.191 1127.36C729.076 1127.07 730.02 1126.91 731 1126.91C731.98 1126.91 732.924 1127.07 733.809 1127.36ZM726.333 1128.22L729.756 1135.52H732.244L735.667 1128.22C736.686 1128.83 737.573 1129.64 738.281 1130.59L734.038 1139.83L732.272 1136.48H729.728L727.962 1139.83L723.718 1130.59C724.427 1129.64 725.314 1128.83 726.333 1128.22ZM721.913 1136C721.913 1134.88 722.127 1133.81 722.501 1132.81L727.721 1144.47C727.724 1144.47 727.728 1144.47 727.731 1144.47C724.333 1143.15 721.913 1139.86 721.913 1136ZM727.741 1144.47L731 1138.39L734.259 1144.47C733.246 1144.86 732.15 1145.09 731 1145.09C729.85 1145.09 728.754 1144.86 727.741 1144.47ZM734.268 1144.47C734.272 1144.47 734.275 1144.47 734.278 1144.47L739.499 1132.81C739.873 1133.81 740.087 1134.88 740.087 1136C740.087 1139.86 737.667 1143.15 734.268 1144.47Z"/>
      </mask>
      <path d="M731 1125C724.934 1125 720 1129.93 720 1136C720 1142.07 724.934 1147 731 1147C737.066 1147 742 1142.07 742 1136C742 1129.93 737.066 1125 731 1125ZM733.809 1127.36L731 1133.61L728.191 1127.36C729.076 1127.07 730.02 1126.91 731 1126.91C731.98 1126.91 732.924 1127.07 733.809 1127.36ZM726.333 1128.22L729.756 1135.52H732.244L735.667 1128.22C736.686 1128.83 737.573 1129.64 738.281 1130.59L734.038 1139.83L732.272 1136.48H729.728L727.962 1139.83L723.718 1130.59C724.427 1129.64 725.314 1128.83 726.333 1128.22ZM721.913 1136C721.913 1134.88 722.127 1133.81 722.501 1132.81L727.721 1144.47C727.724 1144.47 727.728 1144.47 727.731 1144.47C724.333 1143.15 721.913 1139.86 721.913 1136ZM727.741 1144.47L731 1138.39L734.259 1144.47C733.246 1144.86 732.15 1145.09 731 1145.09C729.85 1145.09 728.754 1144.86 727.741 1144.47ZM734.268 1144.47C734.272 1144.47 734.275 1144.47 734.278 1144.47L739.499 1132.81C739.873 1133.81 740.087 1134.88 740.087 1136C740.087 1139.86 737.667 1143.15 734.268 1144.47Z" fill="white"/>
      <path d="M731 1125C724.934 1125 720 1129.93 720 1136C720 1142.07 724.934 1147 731 1147C737.066 1147 742 1142.07 742 1136C742 1129.93 737.066 1125 731 1125ZM733.809 1127.36L731 1133.61L728.191 1127.36C729.076 1127.07 730.02 1126.91 731 1126.91C731.98 1126.91 732.924 1127.07 733.809 1127.36ZM726.333 1128.22L729.756 1135.52H732.244L735.667 1128.22C736.686 1128.83 737.573 1129.64 738.281 1130.59L734.038 1139.83L732.272 1136.48H729.728L727.962 1139.83L723.718 1130.59C724.427 1129.64 725.314 1128.83 726.333 1128.22ZM721.913 1136C721.913 1134.88 722.127 1133.81 722.501 1132.81L727.721 1144.47C727.724 1144.47 727.728 1144.47 727.731 1144.47C724.333 1143.15 721.913 1139.86 721.913 1136ZM727.741 1144.47L731 1138.39L734.259 1144.47C733.246 1144.86 732.15 1145.09 731 1145.09C729.85 1145.09 728.754 1144.86 727.741 1144.47ZM734.268 1144.47C734.272 1144.47 734.275 1144.47 734.278 1144.47L739.499 1132.81C739.873 1133.81 740.087 1134.88 740.087 1136C740.087 1139.86 737.667 1143.15 734.268 1144.47Z" stroke="black" stroke-width="6" mask="url(#path-76-outside-43_0_1)"/>
    </g>
  </g>
</svg>