<?xml version="1.0" encoding="UTF-8" standalone="yes"?>
<svg width="119" height="119" viewBox="0 0 119 119" fill="none" xmlns="http://www.w3.org/2000/svg">
  <g id="VW Taigo" transform="translate(-896.5 -224.5)">
    <g id="Frame 5_2">
      <g id="Vector_6">
        <mask id="path-18-outside-10_0_1" maskUnits="userSpaceOnUse" x="929" y="255" width="52" height="52" fill="black">
          <rect fill="white" x="929" y="255" width="52" height="52"/>
          <path d="M955 258C942.317 258 932 268.318 932 281C932 293.682 942.317 304 955 304C967.683 304 978 293.682 978 281C978 268.318 967.683 258 955 258ZM960.873 262.94L955 276L949.127 262.94C950.978 262.336 952.95 262 955 262C957.05 262 959.022 262.336 960.873 262.94ZM945.241 264.728L952.398 280H957.601L964.758 264.728C966.888 266.011 968.743 267.694 970.224 269.681L961.353 289L957.66 282H952.34L948.647 289L939.775 269.681C941.256 267.695 943.111 266.011 945.241 264.728ZM936 281C936 278.652 936.448 276.413 937.23 274.335L948.144 298.7C948.151 298.703 948.158 298.705 948.165 298.708C941.06 295.955 936 289.065 936 281ZM948.185 298.715L955 286L961.815 298.715C959.696 299.533 957.404 300 955 300C952.596 300 950.304 299.533 948.185 298.715ZM961.834 298.708C961.841 298.705 961.848 298.703 961.855 298.7L972.77 274.335C973.552 276.413 974 278.652 974 281C974 289.065 968.94 295.955 961.834 298.708Z"/>
        </mask>
        <path d="M955 258C942.317 258 932 268.318 932 281C932 293.682 942.317 304 955 304C967.683 304 978 293.682 978 281C978 268.318 967.683 258 955 258ZM960.873 262.94L955 276L949.127 262.94C950.978 262.336 952.95 262 955 262C957.05 262 959.022 262.336 960.873 262.94ZM945.241 264.728L952.398 280H957.601L964.758 264.728C966.888 266.011 968.743 267.694 970.224 269.681L961.353 289L957.66 282H952.34L948.647 289L939.775 269.681C941.256 267.695 943.111 266.011 945.241 264.728ZM936 281C936 278.652 936.448 276.413 937.23 274.335L948.144 298.7C948.151 298.703 948.158 298.705 948.165 298.708C941.06 295.955 936 289.065 936 281ZM948.185 298.715L955 286L961.815 298.715C959.696 299.533 957.404 300 955 300C952.596 300 950.304 299.533 948.185 298.715ZM961.834 298.708C961.841 298.705 961.848 298.703 961.855 298.7L972.77 274.335C973.552 276.413 974 278.652 974 281C974 289.065 968.94 295.955 961.834 298.708Z" fill="white"/>
        <path d="M955 258C942.317 258 932 268.318 932 281C932 293.682 942.317 304 955 304C967.683 304 978 293.682 978 281C978 268.318 967.683 258 955 258ZM960.873 262.94L955 276L949.127 262.94C950.978 262.336 952.95 262 955 262C957.05 262 959.022 262.336 960.873 262.94ZM945.241 264.728L952.398 280H957.601L964.758 264.728C966.888 266.011 968.743 267.694 970.224 269.681L961.353 289L957.66 282H952.34L948.647 289L939.775 269.681C941.256 267.695 943.111 266.011 945.241 264.728ZM936 281C936 278.652 936.448 276.413 937.23 274.335L948.144 298.7C948.151 298.703 948.158 298.705 948.165 298.708C941.06 295.955 936 289.065 936 281ZM948.185 298.715L955 286L961.815 298.715C959.696 299.533 957.404 300 955 300C952.596 300 950.304 299.533 948.185 298.715ZM961.834 298.708C961.841 298.705 961.848 298.703 961.855 298.7L972.77 274.335C973.552 276.413 974 278.652 974 281C974 289.065 968.94 295.955 961.834 298.708Z" stroke="black" stroke-width="6" mask="url(#path-18-outside-10_0_1)"/>
      </g>
      <g id="T">
        <mask id="path-19-outside-11_0_1" maskUnits="userSpaceOnUse" x="953.846" y="279.368" width="29" height="32" fill="black">
          <rect fill="white" x="953.846" y="279.368" width="29" height="32"/>
          <path d="M964.514 308V282.368H971.714V308H964.514ZM956.846 288.488V282.368H979.418V288.488H956.846Z"/>
        </mask>
        <path d="M964.514 308V282.368H971.714V308H964.514ZM956.846 288.488V282.368H979.418V288.488H956.846Z" fill="white"/>
        <path d="M964.514 308V282.368H971.714V308H964.514ZM956.846 288.488V282.368H979.418V288.488H956.846Z" stroke="black" stroke-width="6" mask="url(#path-19-outside-11_0_1)"/>
      </g>
    </g>
  </g>
</svg>