<?xml version="1.0" encoding="UTF-8" standalone="yes"?>
<svg width="119" height="119" viewBox="0 0 119 119" fill="none" xmlns="http://www.w3.org/2000/svg">
  <g id="VW_Crafter_Automatic_Alt" transform="translate(-896.5 -344.5)">
    <g id="Frame 4_4">
      <g id="Vector_9">
        <mask id="path-27-outside-16_0_1" maskUnits="userSpaceOnUse" x="929" y="375" width="52" height="52" fill="black">
          <rect fill="white" x="929" y="375" width="52" height="52"/>
          <path d="M955 378C942.317 378 932 388.318 932 401C932 413.682 942.317 424 955 424C967.683 424 978 413.682 978 401C978 388.318 967.683 378 955 378ZM960.873 382.94L955 396L949.127 382.94C950.978 382.336 952.95 382 955 382C957.05 382 959.022 382.336 960.873 382.94ZM945.241 384.728L952.398 400H957.601L964.758 384.728C966.888 386.011 968.743 387.694 970.224 389.681L961.353 409L957.66 402H952.34L948.647 409L939.775 389.681C941.256 387.695 943.111 386.011 945.241 384.728ZM936 401C936 398.652 936.448 396.413 937.23 394.335L948.144 418.7C948.151 418.703 948.158 418.705 948.165 418.708C941.06 415.955 936 409.065 936 401ZM948.185 418.715L955 406L961.815 418.715C959.696 419.533 957.404 420 955 420C952.596 420 950.304 419.533 948.185 418.715ZM961.834 418.708C961.841 418.705 961.848 418.703 961.855 418.7L972.77 394.335C973.552 396.413 974 398.652 974 401C974 409.065 968.94 415.955 961.834 418.708Z"/>
        </mask>
        <path d="M955 378C942.317 378 932 388.318 932 401C932 413.682 942.317 424 955 424C967.683 424 978 413.682 978 401C978 388.318 967.683 378 955 378ZM960.873 382.94L955 396L949.127 382.94C950.978 382.336 952.95 382 955 382C957.05 382 959.022 382.336 960.873 382.94ZM945.241 384.728L952.398 400H957.601L964.758 384.728C966.888 386.011 968.743 387.694 970.224 389.681L961.353 409L957.66 402H952.34L948.647 409L939.775 389.681C941.256 387.695 943.111 386.011 945.241 384.728ZM936 401C936 398.652 936.448 396.413 937.23 394.335L948.144 418.7C948.151 418.703 948.158 418.705 948.165 418.708C941.06 415.955 936 409.065 936 401ZM948.185 418.715L955 406L961.815 418.715C959.696 419.533 957.404 420 955 420C952.596 420 950.304 419.533 948.185 418.715ZM961.834 418.708C961.841 418.705 961.848 418.703 961.855 418.7L972.77 394.335C973.552 396.413 974 398.652 974 401C974 409.065 968.94 415.955 961.834 418.708Z" fill="white"/>
        <path d="M955 378C942.317 378 932 388.318 932 401C932 413.682 942.317 424 955 424C967.683 424 978 413.682 978 401C978 388.318 967.683 378 955 378ZM960.873 382.94L955 396L949.127 382.94C950.978 382.336 952.95 382 955 382C957.05 382 959.022 382.336 960.873 382.94ZM945.241 384.728L952.398 400H957.601L964.758 384.728C966.888 386.011 968.743 387.694 970.224 389.681L961.353 409L957.66 402H952.34L948.647 409L939.775 389.681C941.256 387.695 943.111 386.011 945.241 384.728ZM936 401C936 398.652 936.448 396.413 937.23 394.335L948.144 418.7C948.151 418.703 948.158 418.705 948.165 418.708C941.06 415.955 936 409.065 936 401ZM948.185 418.715L955 406L961.815 418.715C959.696 419.533 957.404 420 955 420C952.596 420 950.304 419.533 948.185 418.715ZM961.834 418.708C961.841 418.705 961.848 418.703 961.855 418.7L972.77 394.335C973.552 396.413 974 398.652 974 401C974 409.065 968.94 415.955 961.834 418.708Z" stroke="black" stroke-width="6" mask="url(#path-27-outside-16_0_1)"/>
      </g>
      <g id="CA">
        <mask id="path-28-outside-17_0_1" maskUnits="userSpaceOnUse" x="943.169" y="402.624" width="42" height="24" fill="black">
          <rect fill="white" x="943.169" y="402.624" width="42" height="24"/>
          <path d="M955.481 423.288C954.169 423.288 952.945 423.072 951.809 422.64C950.689 422.192 949.705 421.568 948.857 420.768C948.009 419.968 947.345 419.032 946.865 417.96C946.401 416.872 946.169 415.696 946.169 414.432C946.169 413.152 946.401 411.976 946.865 410.904C947.345 409.832 948.001 408.904 948.833 408.12C949.681 407.336 950.665 406.728 951.785 406.296C952.905 405.848 954.121 405.624 955.433 405.624C956.761 405.624 957.977 405.832 959.081 406.248C960.185 406.664 961.145 407.24 961.961 407.976L958.769 411.192C958.385 410.776 957.913 410.448 957.353 410.208C956.809 409.968 956.169 409.848 955.433 409.848C954.793 409.848 954.201 409.952 953.657 410.16C953.129 410.368 952.673 410.672 952.289 411.072C951.905 411.472 951.601 411.96 951.377 412.536C951.169 413.096 951.065 413.728 951.065 414.432C951.065 415.152 951.169 415.8 951.377 416.376C951.601 416.936 951.905 417.416 952.289 417.816C952.673 418.216 953.129 418.528 953.657 418.752C954.201 418.96 954.793 419.064 955.433 419.064C956.153 419.064 956.793 418.952 957.353 418.728C957.929 418.504 958.425 418.176 958.841 417.744L962.057 420.96C961.209 421.696 960.257 422.272 959.201 422.688C958.145 423.088 956.905 423.288 955.481 423.288Z"/>
          <path d="M962.027 423L968.531 405.912H973.427L979.859 423H974.867L970.091 408.48H971.819L966.923 423H962.027ZM966.251 420.12V416.376H975.803V420.12H966.251Z"/>
        </mask>
        <path d="M955.481 423.288C954.169 423.288 952.945 423.072 951.809 422.64C950.689 422.192 949.705 421.568 948.857 420.768C948.009 419.968 947.345 419.032 946.865 417.96C946.401 416.872 946.169 415.696 946.169 414.432C946.169 413.152 946.401 411.976 946.865 410.904C947.345 409.832 948.001 408.904 948.833 408.12C949.681 407.336 950.665 406.728 951.785 406.296C952.905 405.848 954.121 405.624 955.433 405.624C956.761 405.624 957.977 405.832 959.081 406.248C960.185 406.664 961.145 407.24 961.961 407.976L958.769 411.192C958.385 410.776 957.913 410.448 957.353 410.208C956.809 409.968 956.169 409.848 955.433 409.848C954.793 409.848 954.201 409.952 953.657 410.16C953.129 410.368 952.673 410.672 952.289 411.072C951.905 411.472 951.601 411.96 951.377 412.536C951.169 413.096 951.065 413.728 951.065 414.432C951.065 415.152 951.169 415.8 951.377 416.376C951.601 416.936 951.905 417.416 952.289 417.816C952.673 418.216 953.129 418.528 953.657 418.752C954.201 418.96 954.793 419.064 955.433 419.064C956.153 419.064 956.793 418.952 957.353 418.728C957.929 418.504 958.425 418.176 958.841 417.744L962.057 420.96C961.209 421.696 960.257 422.272 959.201 422.688C958.145 423.088 956.905 423.288 955.481 423.288Z" fill="white"/>
        <path d="M962.027 423L968.531 405.912H973.427L979.859 423H974.867L970.091 408.48H971.819L966.923 423H962.027ZM966.251 420.12V416.376H975.803V420.12H966.251Z" fill="white"/>
        <path d="M955.481 423.288C954.169 423.288 952.945 423.072 951.809 422.64C950.689 422.192 949.705 421.568 948.857 420.768C948.009 419.968 947.345 419.032 946.865 417.96C946.401 416.872 946.169 415.696 946.169 414.432C946.169 413.152 946.401 411.976 946.865 410.904C947.345 409.832 948.001 408.904 948.833 408.12C949.681 407.336 950.665 406.728 951.785 406.296C952.905 405.848 954.121 405.624 955.433 405.624C956.761 405.624 957.977 405.832 959.081 406.248C960.185 406.664 961.145 407.24 961.961 407.976L958.769 411.192C958.385 410.776 957.913 410.448 957.353 410.208C956.809 409.968 956.169 409.848 955.433 409.848C954.793 409.848 954.201 409.952 953.657 410.16C953.129 410.368 952.673 410.672 952.289 411.072C951.905 411.472 951.601 411.96 951.377 412.536C951.169 413.096 951.065 413.728 951.065 414.432C951.065 415.152 951.169 415.8 951.377 416.376C951.601 416.936 951.905 417.416 952.289 417.816C952.673 418.216 953.129 418.528 953.657 418.752C954.201 418.96 954.793 419.064 955.433 419.064C956.153 419.064 956.793 418.952 957.353 418.728C957.929 418.504 958.425 418.176 958.841 417.744L962.057 420.96C961.209 421.696 960.257 422.272 959.201 422.688C958.145 423.088 956.905 423.288 955.481 423.288Z" stroke="black" stroke-width="6" mask="url(#path-28-outside-17_0_1)"/>
        <path d="M962.027 423L968.531 405.912H973.427L979.859 423H974.867L970.091 408.48H971.819L966.923 423H962.027ZM966.251 420.12V416.376H975.803V420.12H966.251Z" stroke="black" stroke-width="6" mask="url(#path-28-outside-17_0_1)"/>
      </g>
    </g>
  </g>
</svg>