<?xml version="1.0" encoding="UTF-8" standalone="yes"?>
<svg width="119" height="119" viewBox="0 0 119 119" fill="none" xmlns="http://www.w3.org/2000/svg">
  <g id="VW_Crafter_Alt" transform="translate(-776.5 -224.5)">
    <g id="Frame 5">
      <g id="Vector_5">
        <mask id="path-15-outside-8_0_1" maskUnits="userSpaceOnUse" x="809" y="255" width="52" height="52" fill="black">
          <rect fill="white" x="809" y="255" width="52" height="52"/>
          <path d="M835 258C822.317 258 812 268.318 812 281C812 293.682 822.317 304 835 304C847.683 304 858 293.682 858 281C858 268.318 847.683 258 835 258ZM840.873 262.94L835 276L829.127 262.94C830.978 262.336 832.95 262 835 262C837.05 262 839.022 262.336 840.873 262.94ZM825.241 264.728L832.398 280H837.601L844.758 264.728C846.888 266.011 848.743 267.694 850.224 269.681L841.353 289L837.66 282H832.34L828.647 289L819.775 269.681C821.256 267.695 823.111 266.011 825.241 264.728ZM816 281C816 278.652 816.448 276.413 817.23 274.335L828.144 298.7C828.151 298.703 828.158 298.705 828.165 298.708C821.06 295.955 816 289.065 816 281ZM828.185 298.715L835 286L841.815 298.715C839.696 299.533 837.404 300 835 300C832.596 300 830.304 299.533 828.185 298.715ZM841.834 298.708C841.841 298.705 841.848 298.703 841.855 298.7L852.77 274.335C853.552 276.413 854 278.652 854 281C854 289.065 848.94 295.955 841.834 298.708Z"/>
        </mask>
        <path d="M835 258C822.317 258 812 268.318 812 281C812 293.682 822.317 304 835 304C847.683 304 858 293.682 858 281C858 268.318 847.683 258 835 258ZM840.873 262.94L835 276L829.127 262.94C830.978 262.336 832.95 262 835 262C837.05 262 839.022 262.336 840.873 262.94ZM825.241 264.728L832.398 280H837.601L844.758 264.728C846.888 266.011 848.743 267.694 850.224 269.681L841.353 289L837.66 282H832.34L828.647 289L819.775 269.681C821.256 267.695 823.111 266.011 825.241 264.728ZM816 281C816 278.652 816.448 276.413 817.23 274.335L828.144 298.7C828.151 298.703 828.158 298.705 828.165 298.708C821.06 295.955 816 289.065 816 281ZM828.185 298.715L835 286L841.815 298.715C839.696 299.533 837.404 300 835 300C832.596 300 830.304 299.533 828.185 298.715ZM841.834 298.708C841.841 298.705 841.848 298.703 841.855 298.7L852.77 274.335C853.552 276.413 854 278.652 854 281C854 289.065 848.94 295.955 841.834 298.708Z" fill="white"/>
        <path d="M835 258C822.317 258 812 268.318 812 281C812 293.682 822.317 304 835 304C847.683 304 858 293.682 858 281C858 268.318 847.683 258 835 258ZM840.873 262.94L835 276L829.127 262.94C830.978 262.336 832.95 262 835 262C837.05 262 839.022 262.336 840.873 262.94ZM825.241 264.728L832.398 280H837.601L844.758 264.728C846.888 266.011 848.743 267.694 850.224 269.681L841.353 289L837.66 282H832.34L828.647 289L819.775 269.681C821.256 267.695 823.111 266.011 825.241 264.728ZM816 281C816 278.652 816.448 276.413 817.23 274.335L828.144 298.7C828.151 298.703 828.158 298.705 828.165 298.708C821.06 295.955 816 289.065 816 281ZM828.185 298.715L835 286L841.815 298.715C839.696 299.533 837.404 300 835 300C832.596 300 830.304 299.533 828.185 298.715ZM841.834 298.708C841.841 298.705 841.848 298.703 841.855 298.7L852.77 274.335C853.552 276.413 854 278.652 854 281C854 289.065 848.94 295.955 841.834 298.708Z" stroke="black" stroke-width="6" mask="url(#path-15-outside-8_0_1)"/>
      </g>
      <g id="C">
        <mask id="path-16-outside-9_0_1" maskUnits="userSpaceOnUse" x="832.797" y="278.936" width="32" height="33" fill="black">
          <rect fill="white" x="832.797" y="278.936" width="32" height="33"/>
          <path d="M849.765 308.432C847.797 308.432 845.961 308.108 844.257 307.46C842.577 306.788 841.101 305.852 839.829 304.652C838.557 303.452 837.561 302.048 836.841 300.44C836.145 298.808 835.797 297.044 835.797 295.148C835.797 293.228 836.145 291.464 836.841 289.856C837.561 288.248 838.545 286.856 839.793 285.68C841.065 284.504 842.541 283.592 844.221 282.944C845.901 282.272 847.725 281.936 849.693 281.936C851.685 281.936 853.509 282.248 855.165 282.872C856.821 283.496 858.261 284.36 859.485 285.464L854.697 290.288C854.121 289.664 853.413 289.172 852.573 288.812C851.757 288.452 850.797 288.272 849.693 288.272C848.733 288.272 847.845 288.428 847.029 288.74C846.237 289.052 845.553 289.508 844.977 290.108C844.401 290.708 843.945 291.44 843.609 292.304C843.297 293.144 843.141 294.092 843.141 295.148C843.141 296.228 843.297 297.2 843.609 298.064C843.945 298.904 844.401 299.624 844.977 300.224C845.553 300.824 846.237 301.292 847.029 301.628C847.845 301.94 848.733 302.096 849.693 302.096C850.773 302.096 851.733 301.928 852.573 301.592C853.437 301.256 854.181 300.764 854.805 300.116L859.629 304.94C858.357 306.044 856.929 306.908 855.345 307.532C853.761 308.132 851.901 308.432 849.765 308.432Z"/>
        </mask>
        <path d="M849.765 308.432C847.797 308.432 845.961 308.108 844.257 307.46C842.577 306.788 841.101 305.852 839.829 304.652C838.557 303.452 837.561 302.048 836.841 300.44C836.145 298.808 835.797 297.044 835.797 295.148C835.797 293.228 836.145 291.464 836.841 289.856C837.561 288.248 838.545 286.856 839.793 285.68C841.065 284.504 842.541 283.592 844.221 282.944C845.901 282.272 847.725 281.936 849.693 281.936C851.685 281.936 853.509 282.248 855.165 282.872C856.821 283.496 858.261 284.36 859.485 285.464L854.697 290.288C854.121 289.664 853.413 289.172 852.573 288.812C851.757 288.452 850.797 288.272 849.693 288.272C848.733 288.272 847.845 288.428 847.029 288.74C846.237 289.052 845.553 289.508 844.977 290.108C844.401 290.708 843.945 291.44 843.609 292.304C843.297 293.144 843.141 294.092 843.141 295.148C843.141 296.228 843.297 297.2 843.609 298.064C843.945 298.904 844.401 299.624 844.977 300.224C845.553 300.824 846.237 301.292 847.029 301.628C847.845 301.94 848.733 302.096 849.693 302.096C850.773 302.096 851.733 301.928 852.573 301.592C853.437 301.256 854.181 300.764 854.805 300.116L859.629 304.94C858.357 306.044 856.929 306.908 855.345 307.532C853.761 308.132 851.901 308.432 849.765 308.432Z" fill="white"/>
        <path d="M849.765 308.432C847.797 308.432 845.961 308.108 844.257 307.46C842.577 306.788 841.101 305.852 839.829 304.652C838.557 303.452 837.561 302.048 836.841 300.44C836.145 298.808 835.797 297.044 835.797 295.148C835.797 293.228 836.145 291.464 836.841 289.856C837.561 288.248 838.545 286.856 839.793 285.68C841.065 284.504 842.541 283.592 844.221 282.944C845.901 282.272 847.725 281.936 849.693 281.936C851.685 281.936 853.509 282.248 855.165 282.872C856.821 283.496 858.261 284.36 859.485 285.464L854.697 290.288C854.121 289.664 853.413 289.172 852.573 288.812C851.757 288.452 850.797 288.272 849.693 288.272C848.733 288.272 847.845 288.428 847.029 288.74C846.237 289.052 845.553 289.508 844.977 290.108C844.401 290.708 843.945 291.44 843.609 292.304C843.297 293.144 843.141 294.092 843.141 295.148C843.141 296.228 843.297 297.2 843.609 298.064C843.945 298.904 844.401 299.624 844.977 300.224C845.553 300.824 846.237 301.292 847.029 301.628C847.845 301.94 848.733 302.096 849.693 302.096C850.773 302.096 851.733 301.928 852.573 301.592C853.437 301.256 854.181 300.764 854.805 300.116L859.629 304.94C858.357 306.044 856.929 306.908 855.345 307.532C853.761 308.132 851.901 308.432 849.765 308.432Z" stroke="black" stroke-width="6" mask="url(#path-16-outside-9_0_1)"/>
      </g>
    </g>
  </g>
</svg>