<?xml version="1.0" encoding="UTF-8" standalone="yes"?>
<svg width="120" height="120" viewBox="0 0 120 120" fill="none" xmlns="http://www.w3.org/2000/svg">
  <g id="VW_ID.4">
    <g id="Frame 2">
      <path id="Vector_2" d="M836 138C823.317 138 813 148.318 813 161C813 173.682 823.317 184 836 184C848.683 184 859 173.682 859 161C859 148.318 848.683 138 836 138ZM841.873 142.94L836 156L830.127 142.94C831.978 142.336 833.95 142 836 142C838.05 142 840.022 142.336 841.873 142.94ZM826.241 144.728L833.398 160H838.601L845.758 144.728C847.888 146.011 849.743 147.694 851.224 149.681L842.353 169L838.66 162H833.34L829.647 169L820.775 149.681C822.256 147.695 824.111 146.011 826.241 144.728ZM817 161C817 158.652 817.448 156.413 818.23 154.335L829.144 178.7C829.151 178.703 829.158 178.705 829.165 178.708C822.06 175.955 817 169.065 817 161ZM829.185 178.715L836 166L842.815 178.715C840.696 179.533 838.404 180 836 180C833.596 180 831.304 179.533 829.185 178.715ZM842.834 178.708C842.841 178.705 842.848 178.703 842.855 178.7L853.77 154.335C854.552 156.413 855 158.652 855 161C855 169.065 849.94 175.955 842.834 178.708Z" fill="white"/>
      <path id="4" d="M836.409 178.794L836.25 178.962V179.144L835.699 180.36H836.25V183.212V184.212H837.25H848.274V188V189H849.274H856.294H857.294V188V184.212H858.418H859.418V183.212V177.308V176.308H858.418H857.294V173.024V172.024H856.294H849.274H849.208L853.493 162.789L854.153 161.368H852.586H844.954H844.31L844.043 161.955L836.409 178.794ZM848.274 174.037V176.308H847.221L848.274 174.037Z" fill="white" stroke="black" stroke-width="2"/>
    </g>
  </g>
</svg>