<?xml version="1.0" encoding="UTF-8" standalone="yes"?>
<svg width="120" height="120" viewBox="0 0 120 120" fill="none" xmlns="http://www.w3.org/2000/svg">
  <g id="VW_ID.3">
    <g id="Frame 1">
      <path id="Vector" d="M716 138C703.317 138 693 148.318 693 161C693 173.682 703.317 184 716 184C728.683 184 739 173.682 739 161C739 148.318 728.683 138 716 138ZM721.873 142.94L716 156L710.127 142.94C711.978 142.336 713.95 142 716 142C718.05 142 720.022 142.336 721.873 142.94ZM706.241 144.728L713.398 160H718.601L725.758 144.728C727.888 146.011 729.743 147.694 731.224 149.681L722.353 169L718.66 162H713.34L709.647 169L700.775 149.681C702.256 147.695 704.111 146.011 706.241 144.728ZM697 161C697 158.652 697.448 156.413 698.23 154.335L709.144 178.7C709.151 178.703 709.158 178.705 709.165 178.708C702.06 175.955 697 169.065 697 161ZM709.185 178.715L716 166L722.815 178.715C720.696 179.533 718.404 180 716 180C713.596 180 711.304 179.533 709.185 178.715ZM722.834 178.708C722.841 178.705 722.848 178.703 722.855 178.7L733.77 154.335C734.552 156.413 735 158.652 735 161C735 169.065 729.94 175.955 722.834 178.708Z" fill="white"/>
      <path id="3" d="M722.028 187.46L722.037 187.464L722.045 187.467C723.751 188.113 725.576 188.432 727.512 188.432C729.784 188.432 731.806 188.041 733.55 187.222C735.304 186.41 736.693 185.263 737.671 183.77C738.676 182.248 739.168 180.505 739.168 178.576C739.168 176.912 738.842 175.421 738.148 174.142C737.467 172.864 736.525 171.859 735.322 171.16C734.93 170.932 734.523 170.742 734.101 170.59L738.107 166.065L738.52 165.905V165.599L739.731 164.23L738.52 164.225V161.368V160.368H737.52H720.348H719.348V161.368V167.272V168.272H720.348H725.919L723.437 171.197L723.2 171.477V171.844V175.696V177.342L724.616 176.606C724.775 176.547 725.06 176.481 725.514 176.44L725.533 176.438L725.553 176.436C726.069 176.368 726.541 176.336 726.972 176.336C727.747 176.336 728.363 176.444 728.845 176.629C729.323 176.813 729.635 177.057 729.838 177.333C730.03 177.593 730.148 177.929 730.148 178.396C730.148 178.863 730.03 179.199 729.838 179.459L729.828 179.473L729.818 179.487C729.629 179.764 729.348 179.997 728.927 180.173L728.92 180.176L728.913 180.179C728.509 180.355 728.013 180.456 727.404 180.456C726.659 180.456 725.932 180.307 725.216 180.002C724.495 179.67 724.034 179.29 723.756 178.898L723.076 177.939L722.238 178.763L717.738 183.191L717.035 183.883L717.717 184.596C718.903 185.834 720.346 186.788 722.028 187.46Z" fill="white" stroke="black" stroke-width="2"/>
    </g>
  </g>
</svg>