<?xml version="1.0" encoding="UTF-8" standalone="yes"?>
<svg width="120" height="120" viewBox="0 0 120 120" fill="none" xmlns="http://www.w3.org/2000/svg">
  <g id="VW_Polo">
    <g id="Frame 3">
      <path id="Vector_3" d="M956 138C943.317 138 933 148.318 933 161C933 173.682 943.317 184 956 184C968.683 184 979 173.682 979 161C979 148.318 968.683 138 956 138ZM961.873 142.94L956 156L950.127 142.94C951.978 142.336 953.95 142 956 142C958.05 142 960.022 142.336 961.873 142.94ZM946.241 144.728L953.398 160H958.601L965.758 144.728C967.888 146.011 969.743 147.694 971.224 149.681L962.353 169L958.66 162H953.34L949.647 169L940.775 149.681C942.256 147.695 944.111 146.011 946.241 144.728ZM937 161C937 158.652 937.448 156.413 938.23 154.335L949.144 178.7C949.151 178.703 949.158 178.705 949.165 178.708C942.06 175.955 937 169.065 937 161ZM949.185 178.715L956 166L962.815 178.715C960.696 179.533 958.404 180 956 180C953.596 180 951.304 179.533 949.185 178.715ZM962.834 178.708C962.841 178.705 962.848 178.703 962.855 178.7L973.77 154.335C974.552 156.413 975 158.652 975 161C975 169.065 969.94 175.955 962.834 178.708Z" fill="white"/>
      <path id="P" d="M965.84 188V180H969.52C971.309 180 972.951 179.649 974.424 178.926L974.424 178.926L974.431 178.922C975.935 178.17 977.132 177.086 978 175.678C978.907 174.246 979.34 172.567 979.34 170.684C979.34 168.783 978.909 167.1 977.997 165.686C977.13 164.28 975.933 163.208 974.428 162.48C972.954 161.732 971.311 161.368 969.52 161.368H965.84H964.84H963.472H962.472H957.64H956.64V162.368V188V189H957.64H964.84H965.84V188ZM965.84 172.816V168.552H968.116C968.517 168.552 968.86 168.638 969.162 168.797L969.189 168.811L969.217 168.824C969.499 168.951 969.732 169.154 969.922 169.471L969.928 169.48L969.934 169.49C970.096 169.746 970.212 170.123 970.212 170.684C970.212 171.236 970.099 171.634 969.928 171.924C969.74 172.218 969.498 172.437 969.19 172.593C968.882 172.737 968.529 172.816 968.116 172.816H965.84Z" fill="white" stroke="black" stroke-width="2"/>
    </g>
  </g>
</svg>