<?xml version="1.0" encoding="UTF-8" standalone="yes"?>
<svg width="120" height="120" viewBox="0 0 120 120" fill="none" xmlns="http://www.w3.org/2000/svg">
  <g id="VW_Polo_GP">
    <g id="Frame 4">
      <path id="Vector_4" d="M715 258C702.317 258 692 268.318 692 281C692 293.682 702.317 304 715 304C727.683 304 738 293.682 738 281C738 268.318 727.683 258 715 258ZM720.873 262.94L715 276L709.127 262.94C710.978 262.336 712.95 262 715 262C717.05 262 719.022 262.336 720.873 262.94ZM705.241 264.728L712.398 280H717.601L724.758 264.728C726.888 266.011 728.743 267.694 730.224 269.681L721.353 289L717.66 282H712.34L708.647 289L699.775 269.681C701.256 267.695 703.111 266.011 705.241 264.728ZM696 281C696 278.652 696.448 276.413 697.23 274.335L708.144 298.7C708.151 298.703 708.158 298.705 708.165 298.708C701.06 295.955 696 289.065 696 281ZM708.185 298.715L715 286L721.815 298.715C719.696 299.533 717.404 300 715 300C712.596 300 710.304 299.533 708.185 298.715ZM721.834 298.708C721.841 298.705 721.848 298.703 721.855 298.7L732.77 274.335C733.552 276.413 734 278.652 734 281C734 289.065 728.94 295.955 721.834 298.708Z" fill="white"/>
      <path id="GP" d="M710.991 303.569L710.999 303.572L711.007 303.575C712.267 304.054 713.621 304.288 715.059 304.288C716.978 304.288 718.705 303.881 720.205 303.031C721.728 302.179 722.903 300.935 723.723 299.331C723.935 298.925 724.119 298.5 724.275 298.056L724.76 298.071V303V304H725.76H730.56H731.56V303V298H733.68C734.917 298 736.063 297.757 737.096 297.25L737.096 297.25L737.103 297.246C738.159 296.718 739.004 295.954 739.616 294.962C740.259 293.946 740.56 292.763 740.56 291.456C740.56 290.139 740.261 288.952 739.614 287.946C739.002 286.956 738.157 286.2 737.1 285.688C736.066 285.164 734.919 284.912 733.68 284.912H731.56H730.56H729.648H728.648H725.76H724.76V285.912V291.92H723.963H720.737L723.302 289.355L723.952 288.705L723.359 288.003C722.462 286.942 721.307 286.119 719.92 285.522C718.528 284.916 716.973 284.624 715.275 284.624C713.849 284.624 712.495 284.868 711.222 285.362C709.958 285.837 708.834 286.517 707.858 287.404C706.894 288.279 706.135 289.316 705.583 290.508L705.583 290.508L705.578 290.519C705.036 291.731 704.771 293.048 704.771 294.456C704.771 295.845 705.026 297.15 705.549 298.357C706.065 299.549 706.789 300.596 707.718 301.489L707.718 301.489L707.725 301.495C708.667 302.385 709.759 303.075 710.991 303.569ZM724.76 297.297L724.548 297.162C724.631 296.839 724.702 296.508 724.76 296.169V297.297ZM731.56 292.544V290.368H732.744C732.961 290.368 733.136 290.414 733.286 290.493L733.313 290.507L733.341 290.52C733.463 290.575 733.568 290.662 733.662 290.819L733.668 290.828L733.674 290.838C733.74 290.942 733.808 291.127 733.808 291.456C733.808 291.775 733.744 291.977 733.668 292.108C733.576 292.25 733.462 292.353 733.314 292.429C733.158 292.501 732.973 292.544 732.744 292.544H731.56ZM717.042 291.237C717.354 291.401 717.673 291.626 717.997 291.92H714.483H713.483V292.92V296.76V297.728C713.411 297.694 713.342 297.658 713.275 297.62C712.768 297.33 712.371 296.931 712.075 296.405C711.797 295.868 711.643 295.22 711.643 294.432C711.643 293.655 711.808 293.028 712.103 292.518C712.428 291.983 712.848 291.585 713.37 291.306L713.378 291.302L713.386 291.297C713.914 291.003 714.512 290.848 715.203 290.848C715.975 290.848 716.576 290.993 717.042 291.237L717.507 290.352L717.042 291.237ZM715.131 298.064C714.484 298.064 713.944 297.946 713.488 297.73L714.453 297.76L716.548 297.823C716.178 297.974 715.714 298.064 715.131 298.064Z" fill="white" stroke="black" stroke-width="2"/>
    </g>
  </g>
</svg>