<?xml version="1.0" encoding="UTF-8" standalone="yes"?>
<svg width="119" height="119" viewBox="0 0 119 119" fill="none" xmlns="http://www.w3.org/2000/svg">
  <g id="VW_T6_Alt" transform="translate(-776.5 -344.5)">
    <g id="Frame 4_3">
      <g id="Vector_8">
        <mask id="path-24-outside-14_0_1" maskUnits="userSpaceOnUse" x="809" y="375" width="52" height="52" fill="black">
          <rect fill="white" x="809" y="375" width="52" height="52"/>
          <path d="M835 378C822.317 378 812 388.318 812 401C812 413.682 822.317 424 835 424C847.683 424 858 413.682 858 401C858 388.318 847.683 378 835 378ZM840.873 382.94L835 396L829.127 382.94C830.978 382.336 832.95 382 835 382C837.05 382 839.022 382.336 840.873 382.94ZM825.241 384.728L832.398 400H837.601L844.758 384.728C846.888 386.011 848.743 387.694 850.224 389.681L841.353 409L837.66 402H832.34L828.647 409L819.775 389.681C821.256 387.695 823.111 386.011 825.241 384.728ZM816 401C816 398.652 816.448 396.413 817.23 394.335L828.144 418.7C828.151 418.703 828.158 418.705 828.165 418.708C821.06 415.955 816 409.065 816 401ZM828.185 418.715L835 406L841.815 418.715C839.696 419.533 837.404 420 835 420C832.596 420 830.304 419.533 828.185 418.715ZM841.834 418.708C841.841 418.705 841.848 418.703 841.855 418.7L852.77 394.335C853.552 396.413 854 398.652 854 401C854 409.065 848.94 415.955 841.834 418.708Z"/>
        </mask>
        <path d="M835 378C822.317 378 812 388.318 812 401C812 413.682 822.317 424 835 424C847.683 424 858 413.682 858 401C858 388.318 847.683 378 835 378ZM840.873 382.94L835 396L829.127 382.94C830.978 382.336 832.95 382 835 382C837.05 382 839.022 382.336 840.873 382.94ZM825.241 384.728L832.398 400H837.601L844.758 384.728C846.888 386.011 848.743 387.694 850.224 389.681L841.353 409L837.66 402H832.34L828.647 409L819.775 389.681C821.256 387.695 823.111 386.011 825.241 384.728ZM816 401C816 398.652 816.448 396.413 817.23 394.335L828.144 418.7C828.151 418.703 828.158 418.705 828.165 418.708C821.06 415.955 816 409.065 816 401ZM828.185 418.715L835 406L841.815 418.715C839.696 419.533 837.404 420 835 420C832.596 420 830.304 419.533 828.185 418.715ZM841.834 418.708C841.841 418.705 841.848 418.703 841.855 418.7L852.77 394.335C853.552 396.413 854 398.652 854 401C854 409.065 848.94 415.955 841.834 418.708Z" fill="white"/>
        <path d="M835 378C822.317 378 812 388.318 812 401C812 413.682 822.317 424 835 424C847.683 424 858 413.682 858 401C858 388.318 847.683 378 835 378ZM840.873 382.94L835 396L829.127 382.94C830.978 382.336 832.95 382 835 382C837.05 382 839.022 382.336 840.873 382.94ZM825.241 384.728L832.398 400H837.601L844.758 384.728C846.888 386.011 848.743 387.694 850.224 389.681L841.353 409L837.66 402H832.34L828.647 409L819.775 389.681C821.256 387.695 823.111 386.011 825.241 384.728ZM816 401C816 398.652 816.448 396.413 817.23 394.335L828.144 418.7C828.151 418.703 828.158 418.705 828.165 418.708C821.06 415.955 816 409.065 816 401ZM828.185 418.715L835 406L841.815 418.715C839.696 419.533 837.404 420 835 420C832.596 420 830.304 419.533 828.185 418.715ZM841.834 418.708C841.841 418.705 841.848 418.703 841.855 418.7L852.77 394.335C853.552 396.413 854 398.652 854 401C854 409.065 848.94 415.955 841.834 418.708Z" stroke="black" stroke-width="6" mask="url(#path-24-outside-14_0_1)"/>
      </g>
      <g id="T6">
        <mask id="path-25-outside-15_0_1" maskUnits="userSpaceOnUse" x="827.548" y="402.912" width="37" height="24" fill="black">
          <rect fill="white" x="827.548" y="402.912" width="37" height="24"/>
          <path d="M835.66 423V405.912H840.46V423H835.66ZM830.548 409.992V405.912H845.596V409.992H830.548Z"/>
          <path d="M852.992 423.288C851.744 423.288 850.616 423.024 849.608 422.496C848.616 421.968 847.824 421.256 847.232 420.36C846.656 419.448 846.368 418.424 846.368 417.288C846.368 415.944 846.832 414.592 847.76 413.232L852.728 405.912H858.056L852.32 413.832L850.52 413.448C850.792 413.048 851.048 412.704 851.288 412.416C851.544 412.128 851.848 411.904 852.2 411.744C852.568 411.584 853.048 411.504 853.64 411.504C854.76 411.504 855.768 411.768 856.664 412.296C857.56 412.808 858.272 413.504 858.8 414.384C859.344 415.248 859.616 416.216 859.616 417.288C859.616 418.424 859.32 419.448 858.728 420.36C858.152 421.256 857.368 421.968 856.376 422.496C855.384 423.024 854.256 423.288 852.992 423.288ZM852.992 419.304C853.392 419.304 853.744 419.216 854.048 419.04C854.368 418.848 854.616 418.592 854.792 418.272C854.968 417.936 855.056 417.56 855.056 417.144C855.056 416.728 854.968 416.36 854.792 416.04C854.616 415.704 854.368 415.448 854.048 415.272C853.744 415.08 853.392 414.984 852.992 414.984C852.592 414.984 852.232 415.08 851.912 415.272C851.608 415.448 851.368 415.704 851.192 416.04C851.016 416.36 850.928 416.728 850.928 417.144C850.928 417.56 851.016 417.936 851.192 418.272C851.368 418.592 851.608 418.848 851.912 419.04C852.232 419.216 852.592 419.304 852.992 419.304Z"/>
        </mask>
        <path d="M835.66 423V405.912H840.46V423H835.66ZM830.548 409.992V405.912H845.596V409.992H830.548Z" fill="white"/>
        <path d="M852.992 423.288C851.744 423.288 850.616 423.024 849.608 422.496C848.616 421.968 847.824 421.256 847.232 420.36C846.656 419.448 846.368 418.424 846.368 417.288C846.368 415.944 846.832 414.592 847.76 413.232L852.728 405.912H858.056L852.32 413.832L850.52 413.448C850.792 413.048 851.048 412.704 851.288 412.416C851.544 412.128 851.848 411.904 852.2 411.744C852.568 411.584 853.048 411.504 853.64 411.504C854.76 411.504 855.768 411.768 856.664 412.296C857.56 412.808 858.272 413.504 858.8 414.384C859.344 415.248 859.616 416.216 859.616 417.288C859.616 418.424 859.32 419.448 858.728 420.36C858.152 421.256 857.368 421.968 856.376 422.496C855.384 423.024 854.256 423.288 852.992 423.288ZM852.992 419.304C853.392 419.304 853.744 419.216 854.048 419.04C854.368 418.848 854.616 418.592 854.792 418.272C854.968 417.936 855.056 417.56 855.056 417.144C855.056 416.728 854.968 416.36 854.792 416.04C854.616 415.704 854.368 415.448 854.048 415.272C853.744 415.08 853.392 414.984 852.992 414.984C852.592 414.984 852.232 415.08 851.912 415.272C851.608 415.448 851.368 415.704 851.192 416.04C851.016 416.36 850.928 416.728 850.928 417.144C850.928 417.56 851.016 417.936 851.192 418.272C851.368 418.592 851.608 418.848 851.912 419.04C852.232 419.216 852.592 419.304 852.992 419.304Z" fill="white"/>
        <path d="M835.66 423V405.912H840.46V423H835.66ZM830.548 409.992V405.912H845.596V409.992H830.548Z" stroke="black" stroke-width="6" mask="url(#path-25-outside-15_0_1)"/>
        <path d="M852.992 423.288C851.744 423.288 850.616 423.024 849.608 422.496C848.616 421.968 847.824 421.256 847.232 420.36C846.656 419.448 846.368 418.424 846.368 417.288C846.368 415.944 846.832 414.592 847.76 413.232L852.728 405.912H858.056L852.32 413.832L850.52 413.448C850.792 413.048 851.048 412.704 851.288 412.416C851.544 412.128 851.848 411.904 852.2 411.744C852.568 411.584 853.048 411.504 853.64 411.504C854.76 411.504 855.768 411.768 856.664 412.296C857.56 412.808 858.272 413.504 858.8 414.384C859.344 415.248 859.616 416.216 859.616 417.288C859.616 418.424 859.32 419.448 858.728 420.36C858.152 421.256 857.368 421.968 856.376 422.496C855.384 423.024 854.256 423.288 852.992 423.288ZM852.992 419.304C853.392 419.304 853.744 419.216 854.048 419.04C854.368 418.848 854.616 418.592 854.792 418.272C854.968 417.936 855.056 417.56 855.056 417.144C855.056 416.728 854.968 416.36 854.792 416.04C854.616 415.704 854.368 415.448 854.048 415.272C853.744 415.08 853.392 414.984 852.992 414.984C852.592 414.984 852.232 415.08 851.912 415.272C851.608 415.448 851.368 415.704 851.192 416.04C851.016 416.36 850.928 416.728 850.928 417.144C850.928 417.56 851.016 417.936 851.192 418.272C851.368 418.592 851.608 418.848 851.912 419.04C852.232 419.216 852.592 419.304 852.992 419.304Z" stroke="black" stroke-width="6" mask="url(#path-25-outside-15_0_1)"/>
      </g>
    </g>
  </g>
</svg>