<?xml version="1.0" encoding="UTF-8" standalone="yes"?>
<svg width="120" height="120" viewBox="0 0 120 120" fill="none" xmlns="http://www.w3.org/2000/svg">
  <g id="VW_Taigo">
    <g id="Frame 5">
      <path id="Vector_5" d="M835 258C822.317 258 812 268.318 812 281C812 293.682 822.317 304 835 304C847.683 304 858 293.682 858 281C858 268.318 847.683 258 835 258ZM840.873 262.94L835 276L829.127 262.94C830.978 262.336 832.95 262 835 262C837.05 262 839.022 262.336 840.873 262.94ZM825.241 264.728L832.398 280H837.601L844.758 264.728C846.888 266.011 848.743 267.694 850.224 269.681L841.353 289L837.66 282H832.34L828.647 289L819.775 269.681C821.256 267.695 823.111 266.011 825.241 264.728ZM816 281C816 278.652 816.448 276.413 817.23 274.335L828.144 298.7C828.151 298.703 828.158 298.705 828.165 298.708C821.06 295.955 816 289.065 816 281ZM828.185 298.715L835 286L841.815 298.715C839.696 299.533 837.404 300 835 300C832.596 300 830.304 299.533 828.185 298.715ZM841.834 298.708C841.841 298.705 841.848 298.703 841.855 298.7L852.77 274.335C853.552 276.413 854 278.652 854 281C854 289.065 848.94 295.955 841.834 298.708Z" fill="white"/>
      <path id="T" d="M843.514 308V309H844.514H851.714H852.714V308V289.488H859.418H860.418V288.488V282.368V281.368H859.418H852.714H851.714H844.514H843.514H836.846H835.846V282.368V288.488V289.488H836.846H843.514V308Z" fill="white" stroke="black" stroke-width="2"/>
    </g>
  </g>
</svg>