<svg width="120" height="120" viewBox="0 0 120 120" fill="none" xmlns="http://www.w3.org/2000/svg">
<circle cx="87.5" cy="34.5" r="17.5" fill="#EEC048"/>
<path d="M83.9582 45.902L83.9628 45.9037C84.1413 45.9699 84.324 46 84.5 46C84.9569 46 85.4369 45.7939 85.7388 45.3664L85.7408 45.3635L93.7402 33.9501L93.7402 33.9501L93.7432 33.9458C94.0585 33.4908 94.0921 32.8883 93.796 32.3956C93.5112 31.9216 92.9996 31.6735 92.4995 31.6735H89.8721L91.4642 24.7753L91.4648 24.7728C91.6366 24.0198 91.1851 23.349 90.558 23.105C89.9447 22.8657 89.2097 23.0403 88.7891 23.5945L88.789 23.5945L88.7836 23.6018L80.2841 35.0152L80.2839 35.0155C79.9466 35.4688 79.9013 36.0824 80.1938 36.585C80.4761 37.0734 80.9945 37.3258 81.5002 37.3258H84.6279L83.0384 44.2199C83.0381 44.2208 83.0379 44.2217 83.0377 44.2226C82.8595 44.9863 83.3259 45.6639 83.9582 45.902Z" fill="white" stroke="black" stroke-width="2"/>
</svg>