<?xml version="1.0" encoding="UTF-8" standalone="yes"?>
<svg width="119" height="119" viewBox="0 0 119 119" fill="none" xmlns="http://www.w3.org/2000/svg">
  <g id="electric_33" transform="translate(-288.5 -1064.5)">
    <path id="Outline Path_15" d="M348 1180.3C353.066 1175.3 366.228 1162.07 371 1156.2C383.374 1140.97 385.5 1133.5 385.5 1122.5C385.5 1104.5 369 1086.5 348 1086.5C327 1086.5 310.5 1104.5 310.5 1122.5C310.5 1133.5 313 1142 325 1156.3C330.789 1163.2 346.226 1178.72 347.86 1180.36" stroke="#37DFA3" stroke-width="5" stroke-linecap="round" fill="none"/>
    <g id="Frame 22_3">
      <rect x="352" y="1148" width="50" height="30" rx="15" fill="#37DFA3"/>
      <g id="+1_3">
        <mask id="path-159-outside-71_0_1" maskUnits="userSpaceOnUse" x="357.807" y="1151.91" width="39" height="24" fill="black">
          <rect fill="white" x="357.807" y="1151.91" width="39" height="24"/>
          <path d="M360.807 1165.83V1162.14H372.543V1165.83H360.807ZM364.791 1157.79H368.583V1170.13H364.791V1157.79Z"/>
          <path d="M385.841 1172.29C384.625 1172.29 383.489 1172.09 382.433 1171.69C381.393 1171.27 380.513 1170.69 379.793 1169.94L382.793 1166.98C383.065 1167.37 383.481 1167.69 384.041 1167.94C384.601 1168.18 385.177 1168.3 385.769 1168.3C386.249 1168.3 386.673 1168.22 387.041 1168.06C387.425 1167.9 387.721 1167.67 387.929 1167.37C388.153 1167.06 388.265 1166.7 388.265 1166.26C388.265 1165.83 388.153 1165.46 387.929 1165.16C387.705 1164.86 387.385 1164.62 386.969 1164.46C386.553 1164.3 386.057 1164.22 385.481 1164.22C385.161 1164.22 384.817 1164.25 384.449 1164.3C384.097 1164.33 383.825 1164.38 383.633 1164.46L385.721 1161.87C386.281 1161.74 386.777 1161.64 387.209 1161.56C387.657 1161.46 388.049 1161.42 388.385 1161.42C389.249 1161.42 390.025 1161.62 390.713 1162.02C391.401 1162.42 391.945 1162.99 392.345 1163.74C392.745 1164.48 392.945 1165.36 392.945 1166.38C392.945 1167.55 392.649 1168.58 392.057 1169.48C391.481 1170.36 390.657 1171.05 389.585 1171.54C388.529 1172.04 387.281 1172.29 385.841 1172.29ZM383.633 1164.46V1161.9L387.401 1157.46L392.513 1157.48L388.625 1161.87L383.633 1164.46ZM381.065 1158.85V1154.91H392.513V1157.48L388.985 1158.85H381.065Z"/>
        </mask>
        <path d="M360.807 1165.83V1162.14H372.543V1165.83H360.807ZM364.791 1157.79H368.583V1170.13H364.791V1157.79Z" fill="white"/>
        <path d="M385.841 1172.29C384.625 1172.29 383.489 1172.09 382.433 1171.69C381.393 1171.27 380.513 1170.69 379.793 1169.94L382.793 1166.98C383.065 1167.37 383.481 1167.69 384.041 1167.94C384.601 1168.18 385.177 1168.3 385.769 1168.3C386.249 1168.3 386.673 1168.22 387.041 1168.06C387.425 1167.9 387.721 1167.67 387.929 1167.37C388.153 1167.06 388.265 1166.7 388.265 1166.26C388.265 1165.83 388.153 1165.46 387.929 1165.16C387.705 1164.86 387.385 1164.62 386.969 1164.46C386.553 1164.3 386.057 1164.22 385.481 1164.22C385.161 1164.22 384.817 1164.25 384.449 1164.3C384.097 1164.33 383.825 1164.38 383.633 1164.46L385.721 1161.87C386.281 1161.74 386.777 1161.64 387.209 1161.56C387.657 1161.46 388.049 1161.42 388.385 1161.42C389.249 1161.42 390.025 1161.62 390.713 1162.02C391.401 1162.42 391.945 1162.99 392.345 1163.74C392.745 1164.48 392.945 1165.36 392.945 1166.38C392.945 1167.55 392.649 1168.58 392.057 1169.48C391.481 1170.36 390.657 1171.05 389.585 1171.54C388.529 1172.04 387.281 1172.29 385.841 1172.29ZM383.633 1164.46V1161.9L387.401 1157.46L392.513 1157.48L388.625 1161.87L383.633 1164.46ZM381.065 1158.85V1154.91H392.513V1157.48L388.985 1158.85H381.065Z" fill="white"/>
        <path d="M360.807 1165.83H357.807V1168.83H360.807V1165.83ZM360.807 1162.14V1159.14H357.807V1162.14H360.807ZM372.543 1162.14H375.543V1159.14H372.543V1162.14ZM372.543 1165.83V1168.83H375.543V1165.83H372.543ZM364.791 1157.79V1154.79H361.791V1157.79H364.791ZM368.583 1157.79H371.583V1154.79H368.583V1157.79ZM368.583 1170.13V1173.13H371.583V1170.13H368.583ZM364.791 1170.13H361.791V1173.13H364.791V1170.13ZM382.433 1171.69L381.319 1174.47L381.344 1174.48L381.37 1174.49L382.433 1171.69ZM379.793 1169.94L377.689 1167.8L375.58 1169.87L377.626 1172.01L379.793 1169.94ZM382.793 1166.98L385.241 1165.25L383.203 1162.37L380.689 1164.85L382.793 1166.98ZM384.041 1167.94L382.794 1170.67L382.826 1170.69L382.859 1170.7L384.041 1167.94ZM387.041 1168.06L385.887 1165.29L385.866 1165.3L385.845 1165.31L387.041 1168.06ZM387.929 1167.37L385.514 1165.59L385.483 1165.63L385.453 1165.67L387.929 1167.37ZM387.929 1165.16L390.344 1163.38L390.344 1163.38L387.929 1165.16ZM386.969 1164.46L388.046 1161.66L388.046 1161.66L386.969 1164.46ZM384.449 1164.3L384.721 1167.28L384.779 1167.28L384.837 1167.27L384.449 1164.3ZM383.633 1164.46H380.633V1168.96L384.787 1167.23L383.633 1164.46ZM385.721 1161.87L385.053 1158.95L384.038 1159.18L383.385 1159.99L385.721 1161.87ZM387.209 1161.56L387.755 1164.51L387.797 1164.5L387.838 1164.49L387.209 1161.56ZM390.713 1162.02L389.205 1164.61L389.205 1164.61L390.713 1162.02ZM392.345 1163.74L389.696 1165.15L389.703 1165.16L389.709 1165.18L392.345 1163.74ZM392.057 1169.48L389.554 1167.83L389.547 1167.84L392.057 1169.48ZM389.585 1171.54L388.325 1168.82L388.317 1168.82L388.31 1168.83L389.585 1171.54ZM383.633 1161.9L381.346 1159.95L380.633 1160.79V1161.9H383.633ZM387.401 1157.46L387.415 1154.46L386.018 1154.45L385.114 1155.51L387.401 1157.46ZM392.513 1157.48L394.759 1159.47L395.513 1158.62V1157.48H392.513ZM388.625 1161.87L390.007 1164.53L390.502 1164.28L390.871 1163.86L388.625 1161.87ZM381.065 1158.85H378.065V1161.85H381.065V1158.85ZM381.065 1154.91V1151.91H378.065V1154.91H381.065ZM392.513 1154.91H395.513V1151.91H392.513V1154.91ZM388.985 1158.85V1161.85H389.546L390.07 1161.65L388.985 1158.85ZM363.807 1165.83V1162.14H357.807V1165.83H363.807ZM360.807 1165.14H372.543V1159.14H360.807V1165.14ZM369.543 1162.14V1165.83H375.543V1162.14H369.543ZM372.543 1162.83H360.807V1168.83H372.543V1162.83ZM364.791 1160.79H368.583V1154.79H364.791V1160.79ZM365.583 1157.79V1170.13H371.583V1157.79H365.583ZM368.583 1167.13H364.791V1173.13H368.583V1167.13ZM367.791 1170.13V1157.79H361.791V1170.13H367.791ZM385.841 1169.29C384.96 1169.29 384.187 1169.14 383.496 1168.88L381.37 1174.49C382.791 1175.03 384.29 1175.29 385.841 1175.29V1169.29ZM383.547 1168.9C382.874 1168.63 382.362 1168.28 381.96 1167.86L377.626 1172.01C378.664 1173.1 379.912 1173.91 381.319 1174.47L383.547 1168.9ZM381.897 1172.07L384.897 1169.12L380.689 1164.85L377.689 1167.8L381.897 1172.07ZM380.345 1168.72C381.003 1169.65 381.897 1170.26 382.794 1170.67L385.288 1165.22C385.235 1165.19 385.198 1165.17 385.173 1165.16C385.148 1165.14 385.138 1165.13 385.138 1165.13C385.139 1165.13 385.151 1165.14 385.17 1165.16C385.189 1165.18 385.214 1165.21 385.241 1165.25L380.345 1168.72ZM382.859 1170.7C383.782 1171.1 384.759 1171.3 385.769 1171.3V1165.3C385.595 1165.3 385.42 1165.27 385.223 1165.19L382.859 1170.7ZM385.769 1171.3C386.581 1171.3 387.425 1171.17 388.237 1170.82L385.845 1165.31C385.881 1165.3 385.899 1165.29 385.891 1165.3C385.881 1165.3 385.843 1165.3 385.769 1165.3V1171.3ZM388.195 1170.83C389.043 1170.48 389.828 1169.9 390.405 1169.06L385.453 1165.67C385.526 1165.57 385.612 1165.48 385.7 1165.41C385.786 1165.34 385.856 1165.31 385.887 1165.29L388.195 1170.83ZM390.344 1169.15C391.001 1168.26 391.265 1167.24 391.265 1166.26H385.265C385.265 1166.22 385.271 1166.12 385.311 1165.99C385.352 1165.86 385.42 1165.72 385.514 1165.59L390.344 1169.15ZM391.265 1166.26C391.265 1165.29 391.001 1164.27 390.344 1163.38L385.514 1166.94C385.42 1166.81 385.352 1166.67 385.311 1166.54C385.271 1166.41 385.265 1166.31 385.265 1166.26H391.265ZM390.344 1163.38C389.723 1162.54 388.898 1161.99 388.046 1161.66L385.892 1167.26C385.887 1167.26 385.836 1167.24 385.76 1167.19C385.682 1167.13 385.594 1167.05 385.514 1166.94L390.344 1163.38ZM388.046 1161.66C387.202 1161.34 386.323 1161.22 385.481 1161.22V1167.22C385.791 1167.22 385.904 1167.27 385.892 1167.26L388.046 1161.66ZM385.481 1161.22C385.013 1161.22 384.538 1161.26 384.061 1161.32L384.837 1167.27C385.096 1167.24 385.309 1167.22 385.481 1167.22V1161.22ZM384.177 1161.31C383.702 1161.35 383.081 1161.44 382.479 1161.69L384.787 1167.23C384.719 1167.26 384.667 1167.28 384.636 1167.29C384.604 1167.3 384.587 1167.3 384.586 1167.3C384.585 1167.3 384.595 1167.3 384.619 1167.3C384.642 1167.29 384.676 1167.29 384.721 1167.28L384.177 1161.31ZM385.969 1166.35L388.057 1163.75L383.385 1159.99L381.297 1162.58L385.969 1166.35ZM386.389 1164.8C386.92 1164.68 387.374 1164.58 387.755 1164.51L386.663 1158.61C386.18 1158.7 385.642 1158.81 385.053 1158.95L386.389 1164.8ZM387.838 1164.49C388.148 1164.43 388.321 1164.42 388.385 1164.42V1158.42C387.777 1158.42 387.166 1158.5 386.58 1158.63L387.838 1164.49ZM388.385 1164.42C388.766 1164.42 389.014 1164.5 389.205 1164.61L392.221 1159.42C391.036 1158.73 389.732 1158.42 388.385 1158.42V1164.42ZM389.205 1164.61C389.376 1164.71 389.54 1164.86 389.696 1165.15L394.994 1162.34C394.35 1161.13 393.426 1160.12 392.221 1159.42L389.205 1164.61ZM389.709 1165.18C389.823 1165.39 389.945 1165.75 389.945 1166.38H395.945C395.945 1164.97 395.667 1163.57 394.981 1162.31L389.709 1165.18ZM389.945 1166.38C389.945 1167.02 389.793 1167.46 389.554 1167.83L394.56 1171.13C395.505 1169.7 395.945 1168.09 395.945 1166.38H389.945ZM389.547 1167.84C389.315 1168.19 388.952 1168.53 388.325 1168.82L390.845 1174.27C392.362 1173.56 393.647 1172.53 394.567 1171.12L389.547 1167.84ZM388.31 1168.83C387.735 1169.1 386.941 1169.29 385.841 1169.29V1175.29C387.621 1175.29 389.323 1174.98 390.86 1174.26L388.31 1168.83ZM386.633 1164.46V1161.9H380.633V1164.46H386.633ZM385.92 1163.84L389.688 1159.4L385.114 1155.51L381.346 1159.95L385.92 1163.84ZM387.387 1160.46L392.499 1160.48L392.527 1154.48L387.415 1154.46L387.387 1160.46ZM390.267 1155.49L386.379 1159.88L390.871 1163.86L394.759 1159.47L390.267 1155.49ZM387.243 1159.21L382.251 1161.8L385.015 1167.13L390.007 1164.53L387.243 1159.21ZM384.065 1158.85V1154.91H378.065V1158.85H384.065ZM381.065 1157.91H392.513V1151.91H381.065V1157.91ZM389.513 1154.91V1157.48H395.513V1154.91H389.513ZM391.428 1154.68L387.9 1156.05L390.07 1161.65L393.598 1160.28L391.428 1154.68ZM388.985 1155.85H381.065V1161.85H388.985V1155.85Z" fill="black" mask="url(#path-159-outside-71_0_1)"/>
      </g>
    </g>
  </g>
</svg>