<?xml version="1.0" encoding="UTF-8" standalone="yes"?>
<svg width="119" height="119" viewBox="0 0 119 119" fill="none" xmlns="http://www.w3.org/2000/svg">
  <g id="electric_32" transform="translate(-288.5 -944.5)">
    <path id="Outline Path_14" d="M348 1060.3C353.066 1055.3 366.228 1042.07 371 1036.2C383.374 1020.97 385.5 1013.5 385.5 1002.5C385.5 984.5 369 966.5 348 966.5C327 966.5 310.5 984.5 310.5 1002.5C310.5 1013.5 313 1022 325 1036.3C330.789 1043.2 346.226 1058.72 347.86 1060.36" stroke="#37DFA3" stroke-width="5" stroke-linecap="round" fill="none"/>
    <g id="Frame 22_2">
      <rect x="352" y="1028" width="51" height="30" rx="15" fill="#37DFA3"/>
      <g id="+1_2">
        <mask id="path-154-outside-70_0_1" maskUnits="userSpaceOnUse" x="357.596" y="1031.62" width="39" height="24" fill="black">
          <rect fill="white" x="357.596" y="1031.62" width="39" height="24"/>
          <path d="M360.596 1045.83V1042.14H372.332V1045.83H360.596ZM364.58 1037.79H368.372V1050.13H364.58V1037.79Z"/>
          <path d="M379.894 1049.43L386.71 1042.57C386.982 1042.3 387.198 1042.05 387.358 1041.82C387.534 1041.58 387.654 1041.36 387.718 1041.15C387.798 1040.94 387.838 1040.73 387.838 1040.5C387.838 1039.94 387.654 1039.5 387.286 1039.18C386.934 1038.85 386.454 1038.68 385.846 1038.68C385.302 1038.68 384.798 1038.85 384.334 1039.18C383.87 1039.5 383.374 1040.06 382.846 1040.84L379.726 1038.03C380.43 1036.91 381.334 1036.06 382.438 1035.49C383.558 1034.91 384.83 1034.62 386.254 1034.62C387.55 1034.62 388.662 1034.86 389.59 1035.32C390.534 1035.77 391.254 1036.42 391.75 1037.26C392.262 1038.11 392.518 1039.12 392.518 1040.29C392.518 1040.94 392.43 1041.56 392.254 1042.14C392.078 1042.71 391.798 1043.28 391.414 1043.84C391.03 1044.38 390.534 1044.94 389.926 1045.52L385.63 1049.6L379.894 1049.43ZM379.894 1052V1049.43L383.878 1048.06H392.878V1052H379.894Z"/>
        </mask>
        <path d="M360.596 1045.83V1042.14H372.332V1045.83H360.596ZM364.58 1037.79H368.372V1050.13H364.58V1037.79Z" fill="white"/>
        <path d="M379.894 1049.43L386.71 1042.57C386.982 1042.3 387.198 1042.05 387.358 1041.82C387.534 1041.58 387.654 1041.36 387.718 1041.15C387.798 1040.94 387.838 1040.73 387.838 1040.5C387.838 1039.94 387.654 1039.5 387.286 1039.18C386.934 1038.85 386.454 1038.68 385.846 1038.68C385.302 1038.68 384.798 1038.85 384.334 1039.18C383.87 1039.5 383.374 1040.06 382.846 1040.84L379.726 1038.03C380.43 1036.91 381.334 1036.06 382.438 1035.49C383.558 1034.91 384.83 1034.62 386.254 1034.62C387.55 1034.62 388.662 1034.86 389.59 1035.32C390.534 1035.77 391.254 1036.42 391.75 1037.26C392.262 1038.11 392.518 1039.12 392.518 1040.29C392.518 1040.94 392.43 1041.56 392.254 1042.14C392.078 1042.71 391.798 1043.28 391.414 1043.84C391.03 1044.38 390.534 1044.94 389.926 1045.52L385.63 1049.6L379.894 1049.43ZM379.894 1052V1049.43L383.878 1048.06H392.878V1052H379.894Z" fill="white"/>
        <path d="M360.596 1045.83H357.596V1048.83H360.596V1045.83ZM360.596 1042.14V1039.14H357.596V1042.14H360.596ZM372.332 1042.14H375.332V1039.14H372.332V1042.14ZM372.332 1045.83V1048.83H375.332V1045.83H372.332ZM364.58 1037.79V1034.79H361.58V1037.79H364.58ZM368.372 1037.79H371.372V1034.79H368.372V1037.79ZM368.372 1050.13V1053.13H371.372V1050.13H368.372ZM364.58 1050.13H361.58V1053.13H364.58V1050.13ZM379.894 1049.43L377.765 1047.32L376.894 1048.2V1049.43H379.894ZM386.71 1042.57L384.589 1040.45L384.581 1040.45L386.71 1042.57ZM387.358 1041.82L384.939 1040.05L384.928 1040.07L384.917 1040.08L387.358 1041.82ZM387.718 1041.15L384.918 1040.08L384.881 1040.17L384.851 1040.27L387.718 1041.15ZM387.286 1039.18L385.215 1041.35L385.265 1041.4L385.318 1041.45L387.286 1039.18ZM384.334 1039.18L386.037 1041.65L386.066 1041.63L386.094 1041.61L384.334 1039.18ZM382.846 1040.84L380.839 1043.07L383.406 1045.38L385.334 1042.52L382.846 1040.84ZM379.726 1038.03L377.186 1036.44L375.843 1038.57L377.719 1040.26L379.726 1038.03ZM382.438 1035.49L381.066 1032.82L381.058 1032.82L381.05 1032.83L382.438 1035.49ZM389.59 1035.32L388.248 1038L388.276 1038.02L388.304 1038.03L389.59 1035.32ZM391.75 1037.26L389.16 1038.78L389.171 1038.8L389.182 1038.81L391.75 1037.26ZM392.254 1042.14L395.123 1043.01L392.254 1042.14ZM391.414 1043.84L393.865 1045.57L393.877 1045.55L393.888 1045.54L391.414 1043.84ZM389.926 1045.52L387.863 1043.34L387.86 1043.34L389.926 1045.52ZM385.63 1049.6L385.542 1052.6L386.79 1052.64L387.696 1051.78L385.63 1049.6ZM379.894 1052H376.894V1055H379.894V1052ZM383.878 1048.06V1045.06H383.377L382.904 1045.23L383.878 1048.06ZM392.878 1048.06H395.878V1045.06H392.878V1048.06ZM392.878 1052V1055H395.878V1052H392.878ZM363.596 1045.83V1042.14H357.596V1045.83H363.596ZM360.596 1045.14H372.332V1039.14H360.596V1045.14ZM369.332 1042.14V1045.83H375.332V1042.14H369.332ZM372.332 1042.83H360.596V1048.83H372.332V1042.83ZM364.58 1040.79H368.372V1034.79H364.58V1040.79ZM365.372 1037.79V1050.13H371.372V1037.79H365.372ZM368.372 1047.13H364.58V1053.13H368.372V1047.13ZM367.58 1050.13V1037.79H361.58V1050.13H367.58ZM382.023 1051.55L388.839 1044.68L384.581 1040.45L377.765 1047.32L382.023 1051.55ZM388.831 1044.69C389.178 1044.34 389.514 1043.97 389.799 1043.57L384.917 1040.08C384.882 1040.13 384.786 1040.25 384.589 1040.45L388.831 1044.69ZM389.777 1043.6C390.084 1043.18 390.394 1042.66 390.585 1042.03L384.851 1040.27C384.884 1040.16 384.919 1040.09 384.936 1040.06C384.952 1040.03 384.957 1040.02 384.939 1040.05L389.777 1043.6ZM390.518 1042.23C390.731 1041.68 390.838 1041.09 390.838 1040.5H384.838C384.838 1040.36 384.865 1040.21 384.918 1040.08L390.518 1042.23ZM390.838 1040.5C390.838 1039.22 390.379 1037.9 389.255 1036.92L385.318 1041.45C385.162 1041.31 385.022 1041.13 384.932 1040.91C384.847 1040.71 384.838 1040.55 384.838 1040.5H390.838ZM389.357 1037.01C388.317 1036.02 387.024 1035.68 385.846 1035.68V1041.68C385.877 1041.68 385.805 1041.68 385.671 1041.64C385.526 1041.59 385.361 1041.49 385.215 1041.35L389.357 1037.01ZM385.846 1035.68C384.635 1035.68 383.521 1036.07 382.575 1036.75L386.094 1041.61C386.097 1041.61 386.068 1041.63 386.009 1041.65C385.947 1041.67 385.889 1041.68 385.846 1041.68V1035.68ZM382.631 1036.71C381.718 1037.34 380.973 1038.25 380.358 1039.16L385.334 1042.52C385.54 1042.21 385.712 1041.99 385.846 1041.84C385.983 1041.69 386.049 1041.65 386.037 1041.65L382.631 1036.71ZM384.853 1038.61L381.733 1035.8L377.719 1040.26L380.839 1043.07L384.853 1038.61ZM382.266 1039.63C382.705 1038.93 383.223 1038.46 383.826 1038.15L381.05 1032.83C379.445 1033.67 378.155 1034.89 377.186 1036.44L382.266 1039.63ZM383.81 1038.16C384.453 1037.83 385.244 1037.62 386.254 1037.62V1031.62C384.416 1031.62 382.663 1032 381.066 1032.82L383.81 1038.16ZM386.254 1037.62C387.198 1037.62 387.828 1037.79 388.248 1038L390.932 1032.64C389.496 1031.92 387.902 1031.62 386.254 1031.62V1037.62ZM388.304 1038.03C388.74 1038.24 388.989 1038.48 389.16 1038.78L394.34 1035.75C393.519 1034.35 392.328 1033.3 390.876 1032.61L388.304 1038.03ZM389.182 1038.81C389.364 1039.12 389.518 1039.57 389.518 1040.29H395.518C395.518 1038.67 395.16 1037.11 394.318 1035.71L389.182 1038.81ZM389.518 1040.29C389.518 1040.67 389.467 1040.99 389.385 1041.26L395.123 1043.01C395.393 1042.13 395.518 1041.21 395.518 1040.29H389.518ZM389.385 1041.26C389.309 1041.51 389.173 1041.8 388.94 1042.14L393.888 1045.54C394.423 1044.76 394.847 1043.91 395.123 1043.01L389.385 1041.26ZM388.963 1042.11C388.718 1042.46 388.362 1042.87 387.863 1043.34L391.989 1047.7C392.706 1047.02 393.342 1046.31 393.865 1045.57L388.963 1042.11ZM387.86 1043.34L383.564 1047.42L387.696 1051.78L391.992 1047.7L387.86 1043.34ZM385.718 1046.6L379.982 1046.43L379.806 1052.43L385.542 1052.6L385.718 1046.6ZM382.894 1052V1049.43H376.894V1052H382.894ZM380.868 1052.27L384.852 1050.9L382.904 1045.23L378.92 1046.59L380.868 1052.27ZM383.878 1051.06H392.878V1045.06H383.878V1051.06ZM389.878 1048.06V1052H395.878V1048.06H389.878ZM392.878 1049H379.894V1055H392.878V1049Z" fill="black" mask="url(#path-154-outside-70_0_1)"/>
      </g>
    </g>
  </g>
</svg>