<?xml version="1.0" encoding="UTF-8" standalone="yes"?>
<svg width="119" height="119" viewBox="0 0 119 119" fill="none" xmlns="http://www.w3.org/2000/svg">
  <g id="electric_34" transform="translate(-288.5 -1184.5)">
    <path id="Outline Path_16" d="M348 1300.3C353.066 1295.3 366.228 1282.07 371 1276.2C383.374 1260.97 385.5 1253.5 385.5 1242.5C385.5 1224.5 369 1206.5 348 1206.5C327 1206.5 310.5 1224.5 310.5 1242.5C310.5 1253.5 313 1262 325 1276.3C330.789 1283.2 346.226 1298.72 347.86 1300.36" stroke="#37DFA3" stroke-width="5" stroke-linecap="round" fill="none"/>
    <g id="Frame 22_4">
      <rect x="352" y="1268" width="51" height="30" rx="15" fill="#37DFA3"/>
      <g id="+1_4">
        <mask id="path-164-outside-72_0_1" maskUnits="userSpaceOnUse" x="356.846" y="1271.91" width="40" height="24" fill="black">
          <rect fill="white" x="356.846" y="1271.91" width="40" height="24"/>
          <path d="M359.846 1285.83V1282.14H371.582V1285.83H359.846ZM363.83 1277.79H367.622V1290.13H363.83V1277.79Z"/>
          <path d="M379 1286.24L384.136 1274.91H389.224L383.968 1286.24H379ZM379 1288.81V1286.24L380.296 1284.87H393.112V1288.81H379ZM387.016 1292V1282.02H391.696V1292H387.016Z"/>
        </mask>
        <path d="M359.846 1285.83V1282.14H371.582V1285.83H359.846ZM363.83 1277.79H367.622V1290.13H363.83V1277.79Z" fill="white"/>
        <path d="M379 1286.24L384.136 1274.91H389.224L383.968 1286.24H379ZM379 1288.81V1286.24L380.296 1284.87H393.112V1288.81H379ZM387.016 1292V1282.02H391.696V1292H387.016Z" fill="white"/>
        <path d="M359.846 1285.83H356.846V1288.83H359.846V1285.83ZM359.846 1282.14V1279.14H356.846V1282.14H359.846ZM371.582 1282.14H374.582V1279.14H371.582V1282.14ZM371.582 1285.83V1288.83H374.582V1285.83H371.582ZM363.83 1277.79V1274.79H360.83V1277.79H363.83ZM367.622 1277.79H370.622V1274.79H367.622V1277.79ZM367.622 1290.13V1293.13H370.622V1290.13H367.622ZM363.83 1290.13H360.83V1293.13H363.83V1290.13ZM379 1286.24L376.268 1285L376 1285.59V1286.24H379ZM384.136 1274.91V1271.91H382.202L381.404 1273.67L384.136 1274.91ZM389.224 1274.91L391.945 1276.17L393.923 1271.91H389.224V1274.91ZM383.968 1286.24V1289.24H385.883L386.689 1287.5L383.968 1286.24ZM379 1288.81H376V1291.81H379V1288.81ZM380.296 1284.87V1281.87H379.006L378.118 1282.81L380.296 1284.87ZM393.112 1284.87H396.112V1281.87H393.112V1284.87ZM393.112 1288.81V1291.81H396.112V1288.81H393.112ZM387.016 1292H384.016V1295H387.016V1292ZM387.016 1282.02V1279.02H384.016V1282.02H387.016ZM391.696 1282.02H394.696V1279.02H391.696V1282.02ZM391.696 1292V1295H394.696V1292H391.696ZM362.846 1285.83V1282.14H356.846V1285.83H362.846ZM359.846 1285.14H371.582V1279.14H359.846V1285.14ZM368.582 1282.14V1285.83H374.582V1282.14H368.582ZM371.582 1282.83H359.846V1288.83H371.582V1282.83ZM363.83 1280.79H367.622V1274.79H363.83V1280.79ZM364.622 1277.79V1290.13H370.622V1277.79H364.622ZM367.622 1287.13H363.83V1293.13H367.622V1287.13ZM366.83 1290.13V1277.79H360.83V1290.13H366.83ZM381.732 1287.48L386.868 1276.15L381.404 1273.67L376.268 1285L381.732 1287.48ZM384.136 1277.91H389.224V1271.91H384.136V1277.91ZM386.503 1273.65L381.247 1284.98L386.689 1287.5L391.945 1276.17L386.503 1273.65ZM383.968 1283.24H379V1289.24H383.968V1283.24ZM382 1288.81V1286.24H376V1288.81H382ZM381.178 1288.3L382.474 1286.94L378.118 1282.81L376.822 1284.18L381.178 1288.3ZM380.296 1287.87H393.112V1281.87H380.296V1287.87ZM390.112 1284.87V1288.81H396.112V1284.87H390.112ZM393.112 1285.81H379V1291.81H393.112V1285.81ZM390.016 1292V1282.02H384.016V1292H390.016ZM387.016 1285.02H391.696V1279.02H387.016V1285.02ZM388.696 1282.02V1292H394.696V1282.02H388.696ZM391.696 1289H387.016V1295H391.696V1289Z" fill="black" mask="url(#path-164-outside-72_0_1)"/>
      </g>
    </g>
  </g>
</svg>