<?xml version="1.0" encoding="UTF-8" standalone="yes"?>
<svg width="119" height="119" viewBox="0 0 119 119" fill="none" xmlns="http://www.w3.org/2000/svg">
  <g id="electric_35" transform="translate(-288.5 -1304.5)">
    <path id="Outline Path_17" d="M348 1420.3C353.066 1415.3 366.228 1402.07 371 1396.2C383.374 1380.97 385.5 1373.5 385.5 1362.5C385.5 1344.5 369 1326.5 348 1326.5C327 1326.5 310.5 1344.5 310.5 1362.5C310.5 1373.5 313 1382 325 1396.3C330.789 1403.2 346.226 1418.72 347.86 1420.36" stroke="#37DFA3" stroke-width="5" stroke-linecap="round" fill="none"/>
    <g id="Frame 22_5">
      <rect x="352" y="1388" width="51" height="30" rx="15" fill="#37DFA3"/>
      <g id="+1_5">
        <mask id="path-169-outside-73_0_1" maskUnits="userSpaceOnUse" x="357.877" y="1391.91" width="39" height="24" fill="black">
          <rect fill="white" x="357.877" y="1391.91" width="39" height="24"/>
          <path d="M360.877 1405.83V1402.14H372.613V1405.83H360.877ZM364.861 1397.79H368.653V1410.13H364.861V1397.79Z"/>
          <path d="M385.935 1412.29C384.767 1412.29 383.623 1412.09 382.503 1411.69C381.399 1411.27 380.487 1410.69 379.767 1409.94L382.791 1406.98C383.063 1407.37 383.471 1407.69 384.015 1407.94C384.575 1408.18 385.151 1408.3 385.743 1408.3C386.255 1408.3 386.695 1408.22 387.063 1408.04C387.431 1407.86 387.719 1407.62 387.927 1407.3C388.135 1406.96 388.239 1406.58 388.239 1406.14C388.239 1405.71 388.127 1405.33 387.903 1404.99C387.695 1404.64 387.383 1404.37 386.967 1404.18C386.551 1403.97 386.039 1403.86 385.431 1403.86C384.919 1403.86 384.439 1403.94 383.991 1404.1C383.543 1404.26 383.159 1404.46 382.839 1404.7L383.367 1401.63C383.847 1401.39 384.255 1401.19 384.591 1401.03C384.927 1400.87 385.271 1400.76 385.623 1400.7C385.975 1400.62 386.391 1400.58 386.871 1400.58C388.199 1400.58 389.311 1400.84 390.207 1401.37C391.103 1401.9 391.783 1402.6 392.247 1403.48C392.711 1404.34 392.943 1405.29 392.943 1406.31C392.943 1407.48 392.655 1408.52 392.079 1409.43C391.519 1410.33 390.719 1411.03 389.679 1411.54C388.639 1412.04 387.391 1412.29 385.935 1412.29ZM382.839 1404.7L381.087 1403.17L381.975 1394.91H386.247L385.359 1402.71L382.839 1404.7ZM382.503 1398.85L381.975 1394.91H392.007V1398.85H382.503Z"/>
        </mask>
        <path d="M360.877 1405.83V1402.14H372.613V1405.83H360.877ZM364.861 1397.79H368.653V1410.13H364.861V1397.79Z" fill="white"/>
        <path d="M385.935 1412.29C384.767 1412.29 383.623 1412.09 382.503 1411.69C381.399 1411.27 380.487 1410.69 379.767 1409.94L382.791 1406.98C383.063 1407.37 383.471 1407.69 384.015 1407.94C384.575 1408.18 385.151 1408.3 385.743 1408.3C386.255 1408.3 386.695 1408.22 387.063 1408.04C387.431 1407.86 387.719 1407.62 387.927 1407.3C388.135 1406.96 388.239 1406.58 388.239 1406.14C388.239 1405.71 388.127 1405.33 387.903 1404.99C387.695 1404.64 387.383 1404.37 386.967 1404.18C386.551 1403.97 386.039 1403.86 385.431 1403.86C384.919 1403.86 384.439 1403.94 383.991 1404.1C383.543 1404.26 383.159 1404.46 382.839 1404.7L383.367 1401.63C383.847 1401.39 384.255 1401.19 384.591 1401.03C384.927 1400.87 385.271 1400.76 385.623 1400.7C385.975 1400.62 386.391 1400.58 386.871 1400.58C388.199 1400.58 389.311 1400.84 390.207 1401.37C391.103 1401.9 391.783 1402.6 392.247 1403.48C392.711 1404.34 392.943 1405.29 392.943 1406.31C392.943 1407.48 392.655 1408.52 392.079 1409.43C391.519 1410.33 390.719 1411.03 389.679 1411.54C388.639 1412.04 387.391 1412.29 385.935 1412.29ZM382.839 1404.7L381.087 1403.17L381.975 1394.91H386.247L385.359 1402.71L382.839 1404.7ZM382.503 1398.85L381.975 1394.91H392.007V1398.85H382.503Z" fill="white"/>
        <path d="M360.877 1405.83H357.877V1408.83H360.877V1405.83ZM360.877 1402.14V1399.14H357.877V1402.14H360.877ZM372.613 1402.14H375.613V1399.14H372.613V1402.14ZM372.613 1405.83V1408.83H375.613V1405.83H372.613ZM364.861 1397.79V1394.79H361.861V1397.79H364.861ZM368.653 1397.79H371.653V1394.79H368.653V1397.79ZM368.653 1410.13V1413.13H371.653V1410.13H368.653ZM364.861 1410.13H361.861V1413.13H364.861V1410.13ZM382.503 1411.69L381.445 1414.5L381.47 1414.5L381.494 1414.51L382.503 1411.69ZM379.767 1409.94L377.672 1407.79L375.546 1409.86L377.6 1412.01L379.767 1409.94ZM382.791 1406.98L385.239 1405.25L383.209 1402.38L380.696 1404.84L382.791 1406.98ZM384.015 1407.94L382.738 1410.66L382.785 1410.68L382.834 1410.7L384.015 1407.94ZM387.063 1408.04L388.358 1410.75H388.358L387.063 1408.04ZM387.927 1407.3L390.443 1408.93L390.461 1408.9L390.478 1408.88L387.927 1407.3ZM387.903 1404.99L385.321 1406.52L385.362 1406.59L385.407 1406.66L387.903 1404.99ZM386.967 1404.18L385.626 1406.86L385.668 1406.88L385.71 1406.9L386.967 1404.18ZM383.991 1404.1L382.982 1401.28L382.982 1401.28L383.991 1404.1ZM382.839 1404.7L380.862 1406.96L382.692 1408.56L384.639 1407.1L382.839 1404.7ZM383.367 1401.63L382.026 1398.95L380.668 1399.63L380.411 1401.12L383.367 1401.63ZM385.623 1400.7L386.16 1403.65L386.224 1403.64L386.288 1403.62L385.623 1400.7ZM392.247 1403.48L389.594 1404.88L389.599 1404.89L389.604 1404.9L392.247 1403.48ZM392.079 1409.43L389.543 1407.83L389.539 1407.84L389.535 1407.84L392.079 1409.43ZM389.679 1411.54L390.971 1414.25L390.988 1414.24L391.004 1414.24L389.679 1411.54ZM381.087 1403.17L378.105 1402.85L377.938 1404.4L379.11 1405.42L381.087 1403.17ZM381.975 1394.91V1391.91H379.281L378.993 1394.59L381.975 1394.91ZM386.247 1394.91L389.228 1395.25L389.608 1391.91H386.247V1394.91ZM385.359 1402.71L387.22 1405.07L388.199 1404.29L388.34 1403.05L385.359 1402.71ZM382.503 1398.85L379.53 1399.25L379.879 1401.85H382.503V1398.85ZM392.007 1394.91H395.007V1391.91H392.007V1394.91ZM392.007 1398.85V1401.85H395.007V1398.85H392.007ZM363.877 1405.83V1402.14H357.877V1405.83H363.877ZM360.877 1405.14H372.613V1399.14H360.877V1405.14ZM369.613 1402.14V1405.83H375.613V1402.14H369.613ZM372.613 1402.83H360.877V1408.83H372.613V1402.83ZM364.861 1400.79H368.653V1394.79H364.861V1400.79ZM365.653 1397.79V1410.13H371.653V1397.79H365.653ZM368.653 1407.13H364.861V1413.13H368.653V1407.13ZM367.861 1410.13V1397.79H361.861V1410.13H367.861ZM385.935 1409.29C385.117 1409.29 384.314 1409.15 383.512 1408.86L381.494 1414.51C382.932 1415.03 384.417 1415.29 385.935 1415.29V1409.29ZM383.561 1408.88C382.821 1408.6 382.305 1408.25 381.934 1407.86L377.6 1412.01C378.67 1413.13 379.978 1413.94 381.445 1414.5L383.561 1408.88ZM381.863 1412.08L384.887 1409.13L380.696 1404.84L377.672 1407.79L381.863 1412.08ZM380.343 1408.72C380.986 1409.63 381.853 1410.24 382.738 1410.66L385.293 1405.23C385.193 1405.18 385.154 1405.15 385.153 1405.15C385.153 1405.15 385.162 1405.16 385.179 1405.18C385.195 1405.19 385.216 1405.22 385.239 1405.25L380.343 1408.72ZM382.834 1410.7C383.756 1411.1 384.733 1411.3 385.743 1411.3V1405.3C385.57 1405.3 385.395 1405.27 385.197 1405.19L382.834 1410.7ZM385.743 1411.3C386.592 1411.3 387.496 1411.16 388.358 1410.75L385.769 1405.33C385.799 1405.32 385.824 1405.31 385.842 1405.3C385.86 1405.3 385.869 1405.3 385.869 1405.3C385.868 1405.3 385.829 1405.3 385.743 1405.3V1411.3ZM388.358 1410.75C389.188 1410.35 389.913 1409.75 390.443 1408.93L385.412 1405.66C385.462 1405.58 385.526 1405.51 385.598 1405.45C385.669 1405.39 385.731 1405.35 385.769 1405.33L388.358 1410.75ZM390.478 1408.88C391.007 1408.02 391.239 1407.08 391.239 1406.14H385.239C385.239 1406.12 385.243 1406.06 385.266 1405.97C385.289 1405.89 385.327 1405.8 385.377 1405.72L390.478 1408.88ZM391.239 1406.14C391.239 1405.16 390.975 1404.19 390.399 1403.33L385.407 1406.66C385.352 1406.57 385.305 1406.48 385.275 1406.37C385.246 1406.27 385.239 1406.19 385.239 1406.14H391.239ZM390.486 1403.47C389.931 1402.53 389.124 1401.87 388.224 1401.45L385.71 1406.9C385.687 1406.89 385.622 1406.86 385.542 1406.79C385.459 1406.71 385.382 1406.62 385.321 1406.52L390.486 1403.47ZM388.309 1401.49C387.369 1401.02 386.367 1400.86 385.431 1400.86V1406.86C385.566 1406.86 385.644 1406.88 385.674 1406.88C385.703 1406.89 385.68 1406.89 385.626 1406.86L388.309 1401.49ZM385.431 1400.86C384.602 1400.86 383.778 1400.99 382.982 1401.28L385 1406.93C385.101 1406.89 385.237 1406.86 385.431 1406.86V1400.86ZM382.982 1401.28C382.303 1401.52 381.641 1401.85 381.039 1402.3L384.639 1407.1C384.678 1407.08 384.784 1407.01 385 1406.93L382.982 1401.28ZM385.796 1405.21L386.324 1402.14L380.411 1401.12L379.883 1404.2L385.796 1405.21ZM384.709 1404.32C385.179 1404.08 385.568 1403.89 385.881 1403.74L383.301 1398.32C382.942 1398.49 382.516 1398.7 382.026 1398.95L384.709 1404.32ZM385.881 1403.74C385.988 1403.69 386.079 1403.66 386.16 1403.65L385.087 1397.74C384.464 1397.86 383.867 1398.05 383.301 1398.32L385.881 1403.74ZM386.288 1403.62C386.364 1403.6 386.547 1403.58 386.871 1403.58V1397.58C386.236 1397.58 385.586 1397.63 384.958 1397.77L386.288 1403.62ZM386.871 1403.58C387.809 1403.58 388.361 1403.76 388.684 1403.95L391.73 1398.78C390.262 1397.92 388.589 1397.58 386.871 1397.58V1403.58ZM388.684 1403.95C389.123 1404.21 389.401 1404.51 389.594 1404.88L394.901 1402.08C394.165 1400.69 393.083 1399.58 391.73 1398.78L388.684 1403.95ZM389.604 1404.9C389.823 1405.31 389.943 1405.76 389.943 1406.31H395.943C395.943 1404.82 395.599 1403.38 394.89 1402.06L389.604 1404.9ZM389.943 1406.31C389.943 1406.96 389.791 1407.44 389.543 1407.83L394.616 1411.03C395.52 1409.6 395.943 1408 395.943 1406.31H389.943ZM389.535 1407.84C389.3 1408.22 388.944 1408.56 388.354 1408.85L391.004 1414.24C392.495 1413.5 393.739 1412.44 394.623 1411.02L389.535 1407.84ZM388.388 1408.84C387.843 1409.1 387.059 1409.29 385.935 1409.29V1415.29C387.724 1415.29 389.436 1414.98 390.971 1414.25L388.388 1408.84ZM384.817 1402.45L383.065 1400.91L379.11 1405.42L380.862 1406.96L384.817 1402.45ZM384.07 1403.49L384.958 1395.23L378.993 1394.59L378.105 1402.85L384.07 1403.49ZM381.975 1397.91H386.247V1391.91H381.975V1397.91ZM383.267 1394.57L382.379 1402.37L388.34 1403.05L389.228 1395.25L383.267 1394.57ZM383.499 1400.36L380.979 1402.35L384.7 1407.06L387.22 1405.07L383.499 1400.36ZM385.477 1398.45L384.949 1394.51L379.002 1395.31L379.53 1399.25L385.477 1398.45ZM381.975 1397.91H392.007V1391.91H381.975V1397.91ZM389.007 1394.91V1398.85H395.007V1394.91H389.007ZM392.007 1395.85H382.503V1401.85H392.007V1395.85Z" fill="black" mask="url(#path-169-outside-73_0_1)"/>
      </g>
    </g>
  </g>
</svg>