<svg width="120" height="120" viewBox="0 0 120 120" fill="none" xmlns="http://www.w3.org/2000/svg">
    <path fill-rule="evenodd" clip-rule="evenodd"
        d="M100 60C100 60.2505 99.9977 60.5006 99.9931 60.75H100C99.9927 60.9962 99.9836 61.2413 99.9729 61.4854C99.9193 62.9532 99.7867 64.4009 99.579 65.8243C99.1775 68.654 98.4828 71.3991 97.4068 74.1984C96.8334 75.7083 96.1712 77.1744 95.4266 78.5904C90.2038 88.7118 79.7574 100.373 60.319 119.526L60 120L59.9186 119.92L59.8372 120L59.5182 119.526C31.0739 91.4987 22.0191 79.5125 20.2996 64.9203C20.1615 63.7941 20.0701 62.6534 20.0276 61.5002C20.0167 61.2512 20.0075 61.0012 20 60.75H20.0069C20.0023 60.5006 20 60.2505 20 60C20 37.9086 37.9086 20 60 20C82.0914 20 100 37.9086 100 60Z"
        fill="#111111" />
</svg>