<svg width="80" height="100" viewBox="0 0 80 100" fill="none" xmlns="http://www.w3.org/2000/svg">
    <path fill-rule="evenodd" clip-rule="evenodd"
        d="M80 40C80 40.2505 79.9977 40.5006 79.9931 40.75H80C79.9927 40.9962 79.9836 41.2413 79.9729 41.4854C79.9193 42.9532 79.7867 44.4009 79.579 45.8243C79.1775 48.654 78.4828 51.3991 77.4068 54.1984C76.8334 55.7083 76.1712 57.1744 75.4266 58.5904C70.2038 68.7118 59.7574 80.3735 40.319 99.5256L40 100L39.9186 99.9199L39.8372 100L39.5182 99.5256C11.0739 71.4987 2.01915 59.5125 0.299614 44.9203C0.161465 43.7941 0.0701292 42.6534 0.0276107 41.5002C0.0166843 41.2512 0.00749868 41.0012 0 40.75H0.00689045C0.00230349 40.5006 0 40.2505 0 40C0 17.9086 17.9086 0 40 0C62.0914 0 80 17.9086 80 40Z"
        fill="#111111" />
</svg>