<svg width="120" height="120" viewBox="0 0 120 120" fill="none" xmlns="http://www.w3.org/2000/svg">
    <path
        d="M73.4012 50.0089C70.9134 51.1803 68.4257 52.3516 65.9379 53.5223H65.9361C67.453 54.0805 68.9691 54.6408 70.4845 55.2032C71.4231 55.5512 72.5365 55.9881 72.9461 57.0548C73.3671 58.1501 72.7479 59.1273 72.2007 59.9514C71.3726 61.1988 70.5444 62.4463 69.7163 63.6931C66.7703 68.1309 63.8222 72.5687 60.8648 77C60.8595 75.6321 60.8562 74.2633 60.8534 72.8951V72.8927C61.9842 69.4716 63.0879 66.0426 64.1527 62.6013C64.4546 61.624 64.7537 60.646 65.0486 59.667C65.2261 59.0772 65.1113 58.7241 64.5214 58.4429C63.0148 57.7276 61.5073 57.013 59.999 56.2994C58.4914 57.013 56.9842 57.7276 55.4766 58.4429C54.8869 58.7241 54.7722 59.0772 54.9494 59.667C55.2452 60.646 55.5436 61.624 55.8463 62.6013C56.9101 66.0426 58.014 69.4713 59.1456 72.8927L59.1448 72.8951C59.1423 74.263 59.1388 75.6319 59.1335 77C56.176 72.5687 53.229 68.1309 50.2819 63.6931C49.4538 62.4463 48.6257 61.1988 47.7986 59.9514C47.2514 59.1273 46.6311 58.1501 47.0521 57.0548C47.4628 55.9881 48.5754 55.5512 49.5137 55.2032C51.0291 54.6408 52.5452 54.0802 54.0621 53.5223H54.0614C51.5727 52.3516 49.0849 51.1803 46.5972 50.0089L46.5937 50.0055C47.3705 51.2554 48.1455 52.5063 48.9205 53.7572C47.6375 54.2308 46.3553 54.7043 45.0733 55.1796C42.3798 51.1219 39.6843 47.0647 37 43C44.6581 45.6129 52.3093 48.2461 59.9995 50.7712C67.6907 48.2461 75.3409 45.6129 83 43C80.3157 47.0647 77.6192 51.1219 74.9252 55.1798C73.644 54.7046 72.361 54.231 71.078 53.7575C71.853 52.5066 72.629 51.2557 73.4048 50.0058"
        fill="white" />
</svg>