<?xml version="1.0" encoding="UTF-8" standalone="yes"?>
<svg width="100%" height="100%" viewBox="0 0 1179 1025" fill="none" xmlns="http://www.w3.org/2000/svg">
  <g id="Pin Background v0" clip-path="url(#clip0_0_1)">
    <mask id="mask0_0_1" style="mask-type:alpha" maskUnits="userSpaceOnUse" x="139" y="110" width="86" height="107">
      <path id="Union" d="M185.438 213.089C191.641 206.924 203.753 194.671 208.473 188.866C215.137 180.67 219.181 174.397 221.534 168.575C223.912 162.692 224.5 157.423 224.5 151.37C224.5 130.802 205.779 110.5 182 110.5C158.221 110.5 139.5 130.802 139.5 151.37C139.5 157.449 140.195 162.982 142.614 168.996C145.016 174.969 149.061 181.273 155.552 189.003C158.884 192.97 165.538 199.939 171.295 205.854C174.187 208.826 176.873 211.553 178.837 213.538C179.819 214.53 180.62 215.337 181.177 215.896C181.455 216.175 181.672 216.393 181.819 216.541L182.041 216.763L182.045 216.767C182.045 216.767 182.045 216.767 183.813 215C185.582 213.233 185.582 213.233 185.582 213.233L185.438 213.089Z" fill="black"/>
    </mask>
    <g mask="url(#mask0_0_1)">
      <g id="Group 1">
        <path id="lower part" fill-rule="evenodd" clip-rule="evenodd" d="M181.919 213.92C181.946 213.947 181.973 213.973 182 214L182.319 213.526C213.421 182.882 221.503 171.414 222 154.75H221.837H142C142.497 171.414 150.418 182.882 181.518 213.526L181.837 214C181.864 213.973 181.891 213.947 181.919 213.92Z" fill="#111111"/>
        <circle id="circle" cx="182" cy="154" r="40" fill="#111111"/>
      </g>
    </g>
  </g>
</svg>