<?xml version="1.0" encoding="UTF-8" standalone="yes"?>
<svg width="120" height="120" viewBox="0 0 120 120" fill="none" xmlns="http://www.w3.org/2000/svg">
  <g id="charging">
    <circle id="Ellipse 2" cx="191.5" cy="562.5" r="17.5" fill="#EEC048"/>
    <path id="Vector_17" d="M187.958 573.902L187.963 573.904C188.141 573.97 188.324 574 188.5 574C188.957 574 189.437 573.794 189.739 573.366L189.741 573.364L197.74 561.95L197.74 561.95L197.743 561.946C198.059 561.491 198.092 560.888 197.796 560.396C197.511 559.922 197 559.674 196.499 559.674H193.872L195.464 552.775L195.465 552.773C195.637 552.02 195.185 551.349 194.558 551.105C193.945 550.866 193.21 551.04 192.789 551.594L192.789 551.594L192.784 551.602L184.284 563.015L184.284 563.015C183.947 563.469 183.901 564.083 184.194 564.585C184.476 565.073 184.995 565.326 185.5 565.326H188.628L187.038 572.22C187.038 572.221 187.038 572.222 187.038 572.223C186.859 572.986 187.326 573.664 187.958 573.902Z" fill="white" stroke="black" stroke-width="2"/>
  </g>
</svg>