<?xml version="1.0" encoding="UTF-8" standalone="yes"?>
<svg width="119" height="119" viewBox="0 0 119 119" fill="none" xmlns="http://www.w3.org/2000/svg">
  <g id="charging" transform="translate(-104.5 -778.5)">
    <circle id="Ellipse 2" cx="191.5" cy="812.5" r="17.5" fill="#EEC048"/>
    <g id="Vector_48">
      <mask id="path-122-outside-68_0_1" maskUnits="userSpaceOnUse" x="183" y="800" width="16" height="25" fill="black">
        <rect fill="white" x="183" y="800" width="16" height="25"/>
        <path d="M188.5 823C188.438 823 188.373 822.989 188.311 822.966C188.088 822.882 187.961 822.665 188.012 822.449L189.885 814.326H185.5C185.315 814.326 185.145 814.233 185.059 814.083C184.971 813.933 184.983 813.752 185.086 813.612L193.586 802.199C193.722 802.019 193.976 801.951 194.195 802.037C194.416 802.122 194.539 802.336 194.49 802.55L192.615 810.674H196.499C196.681 810.674 196.851 810.764 196.939 810.911C197.027 811.057 197.019 811.235 196.921 811.376L188.922 822.79C188.826 822.925 188.666 823 188.5 823Z"/>
      </mask>
      <path d="M188.5 823C188.438 823 188.373 822.989 188.311 822.966C188.088 822.882 187.961 822.665 188.012 822.449L189.885 814.326H185.5C185.315 814.326 185.145 814.233 185.059 814.083C184.971 813.933 184.983 813.752 185.086 813.612L193.586 802.199C193.722 802.019 193.976 801.951 194.195 802.037C194.416 802.122 194.539 802.336 194.49 802.55L192.615 810.674H196.499C196.681 810.674 196.851 810.764 196.939 810.911C197.027 811.057 197.019 811.235 196.921 811.376L188.922 822.79C188.826 822.925 188.666 823 188.5 823Z" fill="white"/>
      <path d="M188.5 823C188.438 823 188.373 822.989 188.311 822.966C188.088 822.882 187.961 822.665 188.012 822.449L189.885 814.326H185.5C185.315 814.326 185.145 814.233 185.059 814.083C184.971 813.933 184.983 813.752 185.086 813.612L193.586 802.199C193.722 802.019 193.976 801.951 194.195 802.037C194.416 802.122 194.539 802.336 194.49 802.55L192.615 810.674H196.499C196.681 810.674 196.851 810.764 196.939 810.911C197.027 811.057 197.019 811.235 196.921 811.376L188.922 822.79C188.826 822.925 188.666 823 188.5 823Z" stroke="black" stroke-width="4" mask="url(#path-122-outside-68_0_1)"/>
    </g>
  </g>
</svg>