<?xml version="1.0" encoding="UTF-8" standalone="yes"?>
<svg width="119" height="119" viewBox="0 0 119 119" fill="none" xmlns="http://www.w3.org/2000/svg">
  <g id="discounted" transform="translate(-104.5 -658.5)">
    <circle id="Ellipse 1" cx="136.5" cy="692.5" r="17.5" fill="#37DFA3"/>
    <g id="Vector_47">
      <mask id="path-119-outside-67_0_1" maskUnits="userSpaceOnUse" x="124" y="680" width="25" height="24" fill="black">
        <rect fill="white" x="124" y="680" width="25" height="24"/>
        <path d="M130.301 702C130.217 702 130.133 701.958 130.049 701.916C129.923 701.832 129.839 701.622 129.881 701.454L131.73 694.563L126.183 690.067C126.015 689.983 125.973 689.773 126.015 689.605C126.057 689.437 126.225 689.311 126.393 689.311L133.537 688.933L136.1 682.252C136.185 682.126 136.353 682 136.521 682C136.689 682 136.857 682.126 136.899 682.252L139.462 688.933L146.606 689.311C146.774 689.311 146.942 689.437 146.984 689.605C147.026 689.773 146.984 689.941 146.858 690.067L141.311 694.563L143.16 701.454C143.202 701.622 143.16 701.79 142.992 701.916C142.866 702 142.656 702.042 142.53 701.916L136.521 698.05L130.512 701.916C130.427 702 130.385 702 130.301 702Z"/>
      </mask>
      <path d="M130.301 702C130.217 702 130.133 701.958 130.049 701.916C129.923 701.832 129.839 701.622 129.881 701.454L131.73 694.563L126.183 690.067C126.015 689.983 125.973 689.773 126.015 689.605C126.057 689.437 126.225 689.311 126.393 689.311L133.537 688.933L136.1 682.252C136.185 682.126 136.353 682 136.521 682C136.689 682 136.857 682.126 136.899 682.252L139.462 688.933L146.606 689.311C146.774 689.311 146.942 689.437 146.984 689.605C147.026 689.773 146.984 689.941 146.858 690.067L141.311 694.563L143.16 701.454C143.202 701.622 143.16 701.79 142.992 701.916C142.866 702 142.656 702.042 142.53 701.916L136.521 698.05L130.512 701.916C130.427 702 130.385 702 130.301 702Z" fill="white"/>
      <path d="M130.301 702C130.217 702 130.133 701.958 130.049 701.916C129.923 701.832 129.839 701.622 129.881 701.454L131.73 694.563L126.183 690.067C126.015 689.983 125.973 689.773 126.015 689.605C126.057 689.437 126.225 689.311 126.393 689.311L133.537 688.933L136.1 682.252C136.185 682.126 136.353 682 136.521 682C136.689 682 136.857 682.126 136.899 682.252L139.462 688.933L146.606 689.311C146.774 689.311 146.942 689.437 146.984 689.605C147.026 689.773 146.984 689.941 146.858 690.067L141.311 694.563L143.16 701.454C143.202 701.622 143.16 701.79 142.992 701.916C142.866 702 142.656 702.042 142.53 701.916L136.521 698.05L130.512 701.916C130.427 702 130.385 702 130.301 702Z" stroke="black" stroke-width="4" mask="url(#path-119-outside-67_0_1)"/>
    </g>
  </g>
</svg>