<?xml version="1.0" encoding="UTF-8" standalone="yes"?>
<svg width="120" height="120" viewBox="0 0 120 120" fill="none" xmlns="http://www.w3.org/2000/svg">
  <g id="discounted">
    <circle id="Ellipse 1" cx="136.5" cy="442.5" r="17.5" fill="#37DFA3"/>
    <path id="Vector_16" d="M129.495 452.748L129.546 452.783L129.602 452.81C129.604 452.811 129.606 452.813 129.61 452.815C129.666 452.845 129.958 453 130.301 453C130.302 453 130.302 453 130.304 453C130.327 453.001 130.519 453.006 130.723 452.938C130.894 452.881 131.025 452.794 131.121 452.713L136.521 449.239L141.931 452.72C142.228 452.956 142.569 453.009 142.823 452.993C143.099 452.976 143.351 452.879 143.547 452.748L143.57 452.733L143.592 452.716C143.82 452.545 144.006 452.309 144.104 452.017C144.2 451.729 144.19 451.448 144.13 451.211L144.128 451.203L144.126 451.195L142.445 444.931L147.488 440.844L147.528 440.811L147.565 440.774C147.95 440.39 148.078 439.857 147.954 439.362C147.801 438.749 147.243 438.327 146.641 438.311L140.163 437.968L137.837 431.907C137.726 431.599 137.512 431.385 137.326 431.257C137.125 431.117 136.846 431 136.521 431C136.192 431 135.922 431.119 135.738 431.238C135.552 431.357 135.389 431.517 135.268 431.697L135.207 431.79L135.167 431.894L132.836 437.968L126.358 438.311C125.757 438.327 125.198 438.749 125.045 439.362C124.952 439.734 124.967 440.488 125.615 440.894L130.596 444.931L128.915 451.195L128.913 451.203L128.911 451.211C128.831 451.532 128.879 451.836 128.966 452.068C129.05 452.293 129.214 452.561 129.495 452.748Z" fill="white" stroke="black" stroke-width="2"/>
  </g>
</svg>