<svg width="435" height="931" viewBox="0 0 435 931" fill="none" xmlns="http://www.w3.org/2000/svg">
<rect width="435" height="931" fill="#525252"/>
<g id="StationMarker.spritesheet">
<rect width="355" height="851" transform="translate(40 40)" fill="#494949"/>
<g id="chargestation">
<g id="charger,unavailable">
<g id="Lightning" filter="url(#filter0_d_0_1)">
<circle id="Ellipse 2" cx="163.5" cy="163.5" r="19.5" fill="#1A1A1A" stroke="white" stroke-width="2"/>
<path id="Vector" d="M159.986 175.8C159.913 175.8 159.837 175.787 159.764 175.76C159.503 175.662 159.354 175.407 159.414 175.154L161.608 165.639H156.472C156.254 165.639 156.055 165.53 155.955 165.355C155.852 165.179 155.865 164.966 155.987 164.803L165.943 151.433C166.103 151.222 166.401 151.143 166.657 151.243C166.915 151.343 167.06 151.594 167.002 151.845L164.806 161.36H169.357C169.569 161.36 169.768 161.467 169.871 161.638C169.974 161.81 169.965 162.018 169.851 162.183L160.48 175.553C160.368 175.712 160.18 175.8 159.986 175.8Z" fill="white"/>
</g>
<rect x="104.5" y="104.5" width="119" height="119" stroke="#666666"/>
</g>
<g id="charger,unavailable,selected">
<circle id="Ellipse 8" cx="283.5" cy="163.5" r="23" stroke="white" stroke-width="5"/>
<g id="Lightning_2" filter="url(#filter1_d_0_1)">
<circle id="Ellipse 2_2" cx="283.5" cy="163.5" r="19.5" fill="#1A1A1A" stroke="white" stroke-width="2"/>
<path id="Vector_2" d="M279.986 175.8C279.913 175.8 279.837 175.787 279.764 175.76C279.503 175.662 279.354 175.407 279.414 175.154L281.608 165.639H276.472C276.254 165.639 276.055 165.53 275.955 165.355C275.852 165.179 275.865 164.966 275.987 164.803L285.943 151.433C286.103 151.222 286.401 151.143 286.657 151.243C286.915 151.343 287.06 151.594 287.002 151.845L284.806 161.36H289.357C289.569 161.36 289.768 161.467 289.871 161.638C289.974 161.81 289.965 162.018 289.851 162.183L280.48 175.553C280.368 175.712 280.18 175.8 279.986 175.8Z" fill="white"/>
</g>
<rect x="224.5" y="104.5" width="119" height="119" stroke="#666666"/>
</g>
<g id="charger,unknown">
<g id="Unknown" filter="url(#filter2_d_0_1)">
<circle id="Ellipse 2_3" cx="163.5" cy="283.5" r="19.5" fill="#111111" stroke="#37DFA3" stroke-width="2"/>
<path id="Vector_3" d="M163.024 270C161.018 270 159.124 270.698 157.633 271.941C155.972 273.346 155 275.4 155 277.56C155 278.155 155.515 278.64 156.146 278.64H157.293C157.924 278.64 158.439 278.155 158.439 277.56C158.439 276.318 159.005 275.185 159.979 274.32C160.839 273.618 161.878 273.24 163.024 273.24C163.197 273.24 163.371 273.236 163.544 273.291C165.664 273.506 167.327 275.126 167.556 277.071C167.784 278.853 166.799 280.526 165.138 281.391C162.731 282.578 161.251 284.846 161.251 287.331V290.52C161.251 291.115 161.766 291.6 162.397 291.6H163.544C164.175 291.6 164.69 291.115 164.69 290.52V287.331C164.69 286.088 165.489 284.907 166.75 284.259C169.674 282.802 171.342 279.828 170.941 276.75C170.596 273.24 167.605 270.428 163.938 270.051C163.651 269.996 163.311 270 163.024 270ZM161.878 293.76C161.562 293.76 161.305 294 161.305 294.3V296.46C161.305 296.76 161.562 297 161.878 297H164.171C164.488 297 164.744 296.76 164.744 296.46V294.3C164.744 294 164.488 293.76 164.171 293.76H161.878Z" fill="white"/>
</g>
<rect x="104.5" y="224.5" width="119" height="119" stroke="#666666"/>
</g>
<g id="charger,unknown,selected">
<circle id="Ellipse 8_2" cx="283.5" cy="283.5" r="23" stroke="white" stroke-width="5"/>
<g id="Unknown_2" filter="url(#filter3_d_0_1)">
<circle id="Ellipse 2_4" cx="283.5" cy="283.5" r="19.5" fill="#111111" stroke="#37DFA3" stroke-width="2"/>
<path id="Vector_4" d="M283.024 270C281.018 270 279.124 270.698 277.633 271.941C275.972 273.346 275 275.4 275 277.56C275 278.155 275.515 278.64 276.146 278.64H277.293C277.924 278.64 278.439 278.155 278.439 277.56C278.439 276.318 279.005 275.185 279.979 274.32C280.839 273.618 281.878 273.24 283.024 273.24C283.197 273.24 283.371 273.236 283.544 273.291C285.664 273.506 287.327 275.126 287.556 277.071C287.784 278.853 286.799 280.526 285.138 281.391C282.731 282.578 281.251 284.846 281.251 287.331V290.52C281.251 291.115 281.766 291.6 282.397 291.6H283.544C284.175 291.6 284.69 291.115 284.69 290.52V287.331C284.69 286.088 285.489 284.907 286.75 284.259C289.674 282.802 291.342 279.828 290.941 276.75C290.596 273.24 287.605 270.428 283.938 270.051C283.651 269.996 283.311 270 283.024 270ZM281.878 293.76C281.562 293.76 281.305 294 281.305 294.3V296.46C281.305 296.76 281.562 297 281.878 297H284.171C284.488 297 284.744 296.76 284.744 296.46V294.3C284.744 294 284.488 293.76 284.171 293.76H281.878Z" fill="white"/>
</g>
<rect x="224.5" y="224.5" width="119" height="119" stroke="#666666"/>
</g>
<g id="charger,1">
<g id="Lightning_3" filter="url(#filter4_d_0_1)">
<circle id="Ellipse 2_5" cx="163.5" cy="403.5" r="20.5" fill="#37DFA3"/>
<g id="Vector_5">
<mask id="path-17-outside-1_0_1" maskUnits="userSpaceOnUse" x="153.886" y="389.2" width="19" height="29" fill="black">
<rect fill="white" x="153.886" y="389.2" width="19" height="29"/>
<path d="M159.986 415.8C159.913 415.8 159.837 415.787 159.764 415.76C159.503 415.662 159.354 415.407 159.414 415.154L161.608 405.639H156.472C156.254 405.639 156.055 405.53 155.955 405.355C155.852 405.179 155.865 404.966 155.987 404.803L165.943 391.433C166.103 391.222 166.401 391.143 166.657 391.243C166.915 391.343 167.06 391.594 167.002 391.845L164.806 401.36H169.357C169.569 401.36 169.768 401.467 169.871 401.638C169.974 401.81 169.965 402.018 169.851 402.183L160.48 415.553C160.368 415.712 160.18 415.8 159.986 415.8Z"/>
</mask>
<path d="M159.986 415.8C159.913 415.8 159.837 415.787 159.764 415.76C159.503 415.662 159.354 415.407 159.414 415.154L161.608 405.639H156.472C156.254 405.639 156.055 405.53 155.955 405.355C155.852 405.179 155.865 404.966 155.987 404.803L165.943 391.433C166.103 391.222 166.401 391.143 166.657 391.243C166.915 391.343 167.06 391.594 167.002 391.845L164.806 401.36H169.357C169.569 401.36 169.768 401.467 169.871 401.638C169.974 401.81 169.965 402.018 169.851 402.183L160.48 415.553C160.368 415.712 160.18 415.8 159.986 415.8Z" fill="white"/>
<path d="M159.986 415.8C159.913 415.8 159.837 415.787 159.764 415.76C159.503 415.662 159.354 415.407 159.414 415.154L161.608 405.639H156.472C156.254 405.639 156.055 405.53 155.955 405.355C155.852 405.179 155.865 404.966 155.987 404.803L165.943 391.433C166.103 391.222 166.401 391.143 166.657 391.243C166.915 391.343 167.06 391.594 167.002 391.845L164.806 401.36H169.357C169.569 401.36 169.768 401.467 169.871 401.638C169.974 401.81 169.965 402.018 169.851 402.183L160.48 415.553C160.368 415.712 160.18 415.8 159.986 415.8Z" stroke="black" stroke-width="4" mask="url(#path-17-outside-1_0_1)"/>
</g>
</g>
<rect x="104.5" y="344.5" width="119" height="119" stroke="#666666"/>
</g>
<g id="charger,1,selected">
<circle id="Ellipse 8_3" cx="283.5" cy="403.5" r="23" stroke="white" stroke-width="5"/>
<g id="Lightning_4" filter="url(#filter5_d_0_1)">
<circle id="Ellipse 2_6" cx="283.5" cy="403.5" r="20.5" fill="#37DFA3"/>
<g id="Vector_6">
<mask id="path-21-outside-2_0_1" maskUnits="userSpaceOnUse" x="273.886" y="389.2" width="19" height="29" fill="black">
<rect fill="white" x="273.886" y="389.2" width="19" height="29"/>
<path d="M279.986 415.8C279.913 415.8 279.837 415.787 279.764 415.76C279.503 415.662 279.354 415.407 279.414 415.154L281.608 405.639H276.472C276.254 405.639 276.055 405.53 275.955 405.355C275.852 405.179 275.865 404.966 275.987 404.803L285.943 391.433C286.103 391.222 286.401 391.143 286.657 391.243C286.915 391.343 287.06 391.594 287.002 391.845L284.806 401.36H289.357C289.569 401.36 289.768 401.467 289.871 401.638C289.974 401.81 289.965 402.018 289.851 402.183L280.48 415.553C280.368 415.712 280.18 415.8 279.986 415.8Z"/>
</mask>
<path d="M279.986 415.8C279.913 415.8 279.837 415.787 279.764 415.76C279.503 415.662 279.354 415.407 279.414 415.154L281.608 405.639H276.472C276.254 405.639 276.055 405.53 275.955 405.355C275.852 405.179 275.865 404.966 275.987 404.803L285.943 391.433C286.103 391.222 286.401 391.143 286.657 391.243C286.915 391.343 287.06 391.594 287.002 391.845L284.806 401.36H289.357C289.569 401.36 289.768 401.467 289.871 401.638C289.974 401.81 289.965 402.018 289.851 402.183L280.48 415.553C280.368 415.712 280.18 415.8 279.986 415.8Z" fill="white"/>
<path d="M279.986 415.8C279.913 415.8 279.837 415.787 279.764 415.76C279.503 415.662 279.354 415.407 279.414 415.154L281.608 405.639H276.472C276.254 405.639 276.055 405.53 275.955 405.355C275.852 405.179 275.865 404.966 275.987 404.803L285.943 391.433C286.103 391.222 286.401 391.143 286.657 391.243C286.915 391.343 287.06 391.594 287.002 391.845L284.806 401.36H289.357C289.569 401.36 289.768 401.467 289.871 401.638C289.974 401.81 289.965 402.018 289.851 402.183L280.48 415.553C280.368 415.712 280.18 415.8 279.986 415.8Z" stroke="black" stroke-width="4" mask="url(#path-21-outside-2_0_1)"/>
</g>
</g>
<rect x="224.5" y="344.5" width="119" height="119" stroke="#666666"/>
</g>
<g id="charger,2">
<g id="Frame 15">
<g id="Lightning_5" filter="url(#filter6_d_0_1)">
<circle id="Ellipse 2_7" cx="153.5" cy="523.5" r="20.5" fill="#37DFA3"/>
<g id="Vector_7">
<mask id="path-24-outside-3_0_1" maskUnits="userSpaceOnUse" x="143.886" y="509.2" width="19" height="29" fill="black">
<rect fill="white" x="143.886" y="509.2" width="19" height="29"/>
<path d="M149.986 535.8C149.913 535.8 149.837 535.787 149.764 535.76C149.503 535.662 149.354 535.407 149.414 535.154L151.608 525.639H146.472C146.254 525.639 146.055 525.53 145.955 525.355C145.852 525.179 145.865 524.966 145.987 524.803L155.943 511.433C156.103 511.222 156.401 511.143 156.657 511.243C156.915 511.343 157.06 511.594 157.002 511.845L154.806 521.36H159.357C159.569 521.36 159.768 521.467 159.871 521.638C159.974 521.81 159.965 522.018 159.851 522.183L150.48 535.553C150.368 535.712 150.18 535.8 149.986 535.8Z"/>
</mask>
<path d="M149.986 535.8C149.913 535.8 149.837 535.787 149.764 535.76C149.503 535.662 149.354 535.407 149.414 535.154L151.608 525.639H146.472C146.254 525.639 146.055 525.53 145.955 525.355C145.852 525.179 145.865 524.966 145.987 524.803L155.943 511.433C156.103 511.222 156.401 511.143 156.657 511.243C156.915 511.343 157.06 511.594 157.002 511.845L154.806 521.36H159.357C159.569 521.36 159.768 521.467 159.871 521.638C159.974 521.81 159.965 522.018 159.851 522.183L150.48 535.553C150.368 535.712 150.18 535.8 149.986 535.8Z" fill="white"/>
<path d="M149.986 535.8C149.913 535.8 149.837 535.787 149.764 535.76C149.503 535.662 149.354 535.407 149.414 535.154L151.608 525.639H146.472C146.254 525.639 146.055 525.53 145.955 525.355C145.852 525.179 145.865 524.966 145.987 524.803L155.943 511.433C156.103 511.222 156.401 511.143 156.657 511.243C156.915 511.343 157.06 511.594 157.002 511.845L154.806 521.36H159.357C159.569 521.36 159.768 521.467 159.871 521.638C159.974 521.81 159.965 522.018 159.851 522.183L150.48 535.553C150.368 535.712 150.18 535.8 149.986 535.8Z" stroke="black" stroke-width="4" mask="url(#path-24-outside-3_0_1)"/>
</g>
</g>
<g id="Lightning_6" filter="url(#filter7_d_0_1)">
<circle id="Ellipse 2_8" cx="174.5" cy="523.5" r="20.5" fill="#37DFA3"/>
<g id="Vector_8">
<mask id="path-26-outside-4_0_1" maskUnits="userSpaceOnUse" x="164.886" y="509.2" width="19" height="29" fill="black">
<rect fill="white" x="164.886" y="509.2" width="19" height="29"/>
<path d="M170.986 535.8C170.913 535.8 170.837 535.787 170.764 535.76C170.503 535.662 170.354 535.407 170.414 535.154L172.608 525.639H167.472C167.254 525.639 167.055 525.53 166.955 525.355C166.852 525.179 166.865 524.966 166.987 524.803L176.943 511.433C177.103 511.222 177.401 511.143 177.657 511.243C177.915 511.343 178.06 511.594 178.002 511.845L175.806 521.36H180.357C180.569 521.36 180.768 521.467 180.871 521.638C180.974 521.81 180.965 522.018 180.851 522.183L171.48 535.553C171.368 535.712 171.18 535.8 170.986 535.8Z"/>
</mask>
<path d="M170.986 535.8C170.913 535.8 170.837 535.787 170.764 535.76C170.503 535.662 170.354 535.407 170.414 535.154L172.608 525.639H167.472C167.254 525.639 167.055 525.53 166.955 525.355C166.852 525.179 166.865 524.966 166.987 524.803L176.943 511.433C177.103 511.222 177.401 511.143 177.657 511.243C177.915 511.343 178.06 511.594 178.002 511.845L175.806 521.36H180.357C180.569 521.36 180.768 521.467 180.871 521.638C180.974 521.81 180.965 522.018 180.851 522.183L171.48 535.553C171.368 535.712 171.18 535.8 170.986 535.8Z" fill="white"/>
<path d="M170.986 535.8C170.913 535.8 170.837 535.787 170.764 535.76C170.503 535.662 170.354 535.407 170.414 535.154L172.608 525.639H167.472C167.254 525.639 167.055 525.53 166.955 525.355C166.852 525.179 166.865 524.966 166.987 524.803L176.943 511.433C177.103 511.222 177.401 511.143 177.657 511.243C177.915 511.343 178.06 511.594 178.002 511.845L175.806 521.36H180.357C180.569 521.36 180.768 521.467 180.871 521.638C180.974 521.81 180.965 522.018 180.851 522.183L171.48 535.553C171.368 535.712 171.18 535.8 170.986 535.8Z" stroke="black" stroke-width="4" mask="url(#path-26-outside-4_0_1)"/>
</g>
</g>
</g>
<rect x="104.5" y="464.5" width="119" height="119" stroke="#666666"/>
</g>
<g id="charger,2,selected">
<g id="highlight">
<g id="Lightning_7">
<circle id="Ellipse 8_4" cx="273.5" cy="523.5" r="23" stroke="white" stroke-width="5"/>
</g>
<g id="Lightning_8">
<circle id="Ellipse 8_5" cx="294.5" cy="523.5" r="23" stroke="white" stroke-width="5"/>
</g>
</g>
<g id="Frame 17">
<g id="Lightning_9" filter="url(#filter8_d_0_1)">
<circle id="Ellipse 2_9" cx="273.5" cy="523.5" r="20.5" fill="#37DFA3"/>
<g id="Vector_9">
<mask id="path-31-outside-5_0_1" maskUnits="userSpaceOnUse" x="263.886" y="509.2" width="19" height="29" fill="black">
<rect fill="white" x="263.886" y="509.2" width="19" height="29"/>
<path d="M269.986 535.8C269.913 535.8 269.837 535.787 269.764 535.76C269.503 535.662 269.354 535.407 269.414 535.154L271.608 525.639H266.472C266.254 525.639 266.055 525.53 265.955 525.355C265.852 525.179 265.865 524.966 265.987 524.803L275.943 511.433C276.103 511.222 276.401 511.143 276.657 511.243C276.915 511.343 277.06 511.594 277.002 511.845L274.806 521.36H279.357C279.569 521.36 279.768 521.467 279.871 521.638C279.974 521.81 279.965 522.018 279.851 522.183L270.48 535.553C270.368 535.712 270.18 535.8 269.986 535.8Z"/>
</mask>
<path d="M269.986 535.8C269.913 535.8 269.837 535.787 269.764 535.76C269.503 535.662 269.354 535.407 269.414 535.154L271.608 525.639H266.472C266.254 525.639 266.055 525.53 265.955 525.355C265.852 525.179 265.865 524.966 265.987 524.803L275.943 511.433C276.103 511.222 276.401 511.143 276.657 511.243C276.915 511.343 277.06 511.594 277.002 511.845L274.806 521.36H279.357C279.569 521.36 279.768 521.467 279.871 521.638C279.974 521.81 279.965 522.018 279.851 522.183L270.48 535.553C270.368 535.712 270.18 535.8 269.986 535.8Z" fill="white"/>
<path d="M269.986 535.8C269.913 535.8 269.837 535.787 269.764 535.76C269.503 535.662 269.354 535.407 269.414 535.154L271.608 525.639H266.472C266.254 525.639 266.055 525.53 265.955 525.355C265.852 525.179 265.865 524.966 265.987 524.803L275.943 511.433C276.103 511.222 276.401 511.143 276.657 511.243C276.915 511.343 277.06 511.594 277.002 511.845L274.806 521.36H279.357C279.569 521.36 279.768 521.467 279.871 521.638C279.974 521.81 279.965 522.018 279.851 522.183L270.48 535.553C270.368 535.712 270.18 535.8 269.986 535.8Z" stroke="black" stroke-width="4" mask="url(#path-31-outside-5_0_1)"/>
</g>
</g>
<g id="Lightning_10" filter="url(#filter9_d_0_1)">
<circle id="Ellipse 2_10" cx="294.5" cy="523.5" r="20.5" fill="#37DFA3"/>
<g id="Vector_10">
<mask id="path-33-outside-6_0_1" maskUnits="userSpaceOnUse" x="284.886" y="509.2" width="19" height="29" fill="black">
<rect fill="white" x="284.886" y="509.2" width="19" height="29"/>
<path d="M290.986 535.8C290.913 535.8 290.837 535.787 290.764 535.76C290.503 535.662 290.354 535.407 290.414 535.154L292.608 525.639H287.472C287.254 525.639 287.055 525.53 286.955 525.355C286.852 525.179 286.865 524.966 286.987 524.803L296.943 511.433C297.103 511.222 297.401 511.143 297.657 511.243C297.915 511.343 298.06 511.594 298.002 511.845L295.806 521.36H300.357C300.569 521.36 300.768 521.467 300.871 521.638C300.974 521.81 300.965 522.018 300.851 522.183L291.48 535.553C291.368 535.712 291.18 535.8 290.986 535.8Z"/>
</mask>
<path d="M290.986 535.8C290.913 535.8 290.837 535.787 290.764 535.76C290.503 535.662 290.354 535.407 290.414 535.154L292.608 525.639H287.472C287.254 525.639 287.055 525.53 286.955 525.355C286.852 525.179 286.865 524.966 286.987 524.803L296.943 511.433C297.103 511.222 297.401 511.143 297.657 511.243C297.915 511.343 298.06 511.594 298.002 511.845L295.806 521.36H300.357C300.569 521.36 300.768 521.467 300.871 521.638C300.974 521.81 300.965 522.018 300.851 522.183L291.48 535.553C291.368 535.712 291.18 535.8 290.986 535.8Z" fill="white"/>
<path d="M290.986 535.8C290.913 535.8 290.837 535.787 290.764 535.76C290.503 535.662 290.354 535.407 290.414 535.154L292.608 525.639H287.472C287.254 525.639 287.055 525.53 286.955 525.355C286.852 525.179 286.865 524.966 286.987 524.803L296.943 511.433C297.103 511.222 297.401 511.143 297.657 511.243C297.915 511.343 298.06 511.594 298.002 511.845L295.806 521.36H300.357C300.569 521.36 300.768 521.467 300.871 521.638C300.974 521.81 300.965 522.018 300.851 522.183L291.48 535.553C291.368 535.712 291.18 535.8 290.986 535.8Z" stroke="black" stroke-width="4" mask="url(#path-33-outside-6_0_1)"/>
</g>
</g>
</g>
<rect x="224.5" y="464.5" width="119" height="119" stroke="#666666"/>
</g>
<g id="charger,3,more">
<g id="Frame 15_2">
<g id="Lightning_11" filter="url(#filter10_d_0_1)">
<circle id="Ellipse 2_11" cx="143" cy="643.5" r="20.5" fill="#37DFA3"/>
<g id="Vector_11">
<mask id="path-36-outside-7_0_1" maskUnits="userSpaceOnUse" x="133.386" y="629.2" width="19" height="29" fill="black">
<rect fill="white" x="133.386" y="629.2" width="19" height="29"/>
<path d="M139.486 655.8C139.413 655.8 139.337 655.787 139.264 655.76C139.003 655.662 138.854 655.407 138.914 655.154L141.108 645.639H135.972C135.754 645.639 135.555 645.53 135.455 645.355C135.352 645.179 135.365 644.966 135.487 644.803L145.443 631.433C145.603 631.222 145.901 631.143 146.157 631.243C146.415 631.343 146.56 631.594 146.502 631.845L144.306 641.36H148.857C149.069 641.36 149.268 641.467 149.371 641.638C149.474 641.81 149.465 642.018 149.351 642.183L139.98 655.553C139.868 655.712 139.68 655.8 139.486 655.8Z"/>
</mask>
<path d="M139.486 655.8C139.413 655.8 139.337 655.787 139.264 655.76C139.003 655.662 138.854 655.407 138.914 655.154L141.108 645.639H135.972C135.754 645.639 135.555 645.53 135.455 645.355C135.352 645.179 135.365 644.966 135.487 644.803L145.443 631.433C145.603 631.222 145.901 631.143 146.157 631.243C146.415 631.343 146.56 631.594 146.502 631.845L144.306 641.36H148.857C149.069 641.36 149.268 641.467 149.371 641.638C149.474 641.81 149.465 642.018 149.351 642.183L139.98 655.553C139.868 655.712 139.68 655.8 139.486 655.8Z" fill="white"/>
<path d="M139.486 655.8C139.413 655.8 139.337 655.787 139.264 655.76C139.003 655.662 138.854 655.407 138.914 655.154L141.108 645.639H135.972C135.754 645.639 135.555 645.53 135.455 645.355C135.352 645.179 135.365 644.966 135.487 644.803L145.443 631.433C145.603 631.222 145.901 631.143 146.157 631.243C146.415 631.343 146.56 631.594 146.502 631.845L144.306 641.36H148.857C149.069 641.36 149.268 641.467 149.371 641.638C149.474 641.81 149.465 642.018 149.351 642.183L139.98 655.553C139.868 655.712 139.68 655.8 139.486 655.8Z" stroke="black" stroke-width="4" mask="url(#path-36-outside-7_0_1)"/>
</g>
</g>
<g id="Lightning_12" filter="url(#filter11_d_0_1)">
<circle id="Ellipse 2_12" cx="164" cy="643.5" r="20.5" fill="#37DFA3"/>
<g id="Vector_12">
<mask id="path-38-outside-8_0_1" maskUnits="userSpaceOnUse" x="154.386" y="629.2" width="19" height="29" fill="black">
<rect fill="white" x="154.386" y="629.2" width="19" height="29"/>
<path d="M160.486 655.8C160.413 655.8 160.337 655.787 160.264 655.76C160.003 655.662 159.854 655.407 159.914 655.154L162.108 645.639H156.972C156.754 645.639 156.555 645.53 156.455 645.355C156.352 645.179 156.365 644.966 156.487 644.803L166.443 631.433C166.603 631.222 166.901 631.143 167.157 631.243C167.415 631.343 167.56 631.594 167.502 631.845L165.306 641.36H169.857C170.069 641.36 170.268 641.467 170.371 641.638C170.474 641.81 170.465 642.018 170.351 642.183L160.98 655.553C160.868 655.712 160.68 655.8 160.486 655.8Z"/>
</mask>
<path d="M160.486 655.8C160.413 655.8 160.337 655.787 160.264 655.76C160.003 655.662 159.854 655.407 159.914 655.154L162.108 645.639H156.972C156.754 645.639 156.555 645.53 156.455 645.355C156.352 645.179 156.365 644.966 156.487 644.803L166.443 631.433C166.603 631.222 166.901 631.143 167.157 631.243C167.415 631.343 167.56 631.594 167.502 631.845L165.306 641.36H169.857C170.069 641.36 170.268 641.467 170.371 641.638C170.474 641.81 170.465 642.018 170.351 642.183L160.98 655.553C160.868 655.712 160.68 655.8 160.486 655.8Z" fill="white"/>
<path d="M160.486 655.8C160.413 655.8 160.337 655.787 160.264 655.76C160.003 655.662 159.854 655.407 159.914 655.154L162.108 645.639H156.972C156.754 645.639 156.555 645.53 156.455 645.355C156.352 645.179 156.365 644.966 156.487 644.803L166.443 631.433C166.603 631.222 166.901 631.143 167.157 631.243C167.415 631.343 167.56 631.594 167.502 631.845L165.306 641.36H169.857C170.069 641.36 170.268 641.467 170.371 641.638C170.474 641.81 170.465 642.018 170.351 642.183L160.98 655.553C160.868 655.712 160.68 655.8 160.486 655.8Z" stroke="black" stroke-width="4" mask="url(#path-38-outside-8_0_1)"/>
</g>
</g>
<g id="Lightning_13" filter="url(#filter12_d_0_1)">
<circle id="Ellipse 2_13" cx="185" cy="643.5" r="20.5" fill="#37DFA3"/>
<g id="Vector_13">
<mask id="path-40-outside-9_0_1" maskUnits="userSpaceOnUse" x="175.386" y="629.2" width="19" height="29" fill="black">
<rect fill="white" x="175.386" y="629.2" width="19" height="29"/>
<path d="M181.486 655.8C181.413 655.8 181.337 655.787 181.264 655.76C181.003 655.662 180.854 655.407 180.914 655.154L183.108 645.639H177.972C177.754 645.639 177.555 645.53 177.455 645.355C177.352 645.179 177.365 644.966 177.487 644.803L187.443 631.433C187.603 631.222 187.901 631.143 188.157 631.243C188.415 631.343 188.56 631.594 188.502 631.845L186.306 641.36H190.857C191.069 641.36 191.268 641.467 191.371 641.638C191.474 641.81 191.465 642.018 191.351 642.183L181.98 655.553C181.868 655.712 181.68 655.8 181.486 655.8Z"/>
</mask>
<path d="M181.486 655.8C181.413 655.8 181.337 655.787 181.264 655.76C181.003 655.662 180.854 655.407 180.914 655.154L183.108 645.639H177.972C177.754 645.639 177.555 645.53 177.455 645.355C177.352 645.179 177.365 644.966 177.487 644.803L187.443 631.433C187.603 631.222 187.901 631.143 188.157 631.243C188.415 631.343 188.56 631.594 188.502 631.845L186.306 641.36H190.857C191.069 641.36 191.268 641.467 191.371 641.638C191.474 641.81 191.465 642.018 191.351 642.183L181.98 655.553C181.868 655.712 181.68 655.8 181.486 655.8Z" fill="white"/>
<path d="M181.486 655.8C181.413 655.8 181.337 655.787 181.264 655.76C181.003 655.662 180.854 655.407 180.914 655.154L183.108 645.639H177.972C177.754 645.639 177.555 645.53 177.455 645.355C177.352 645.179 177.365 644.966 177.487 644.803L187.443 631.433C187.603 631.222 187.901 631.143 188.157 631.243C188.415 631.343 188.56 631.594 188.502 631.845L186.306 641.36H190.857C191.069 641.36 191.268 641.467 191.371 641.638C191.474 641.81 191.465 642.018 191.351 642.183L181.98 655.553C181.868 655.712 181.68 655.8 181.486 655.8Z" stroke="black" stroke-width="4" mask="url(#path-40-outside-9_0_1)"/>
</g>
</g>
</g>
<rect x="104.5" y="584.5" width="119" height="119" stroke="#666666"/>
</g>
<g id="charger,3,more,selected">
<g id="Frame 15_3">
<g id="Lightning_14">
<circle id="Ellipse 8_6" cx="263" cy="643.5" r="23" stroke="white" stroke-width="5"/>
</g>
<g id="Lightning_15">
<circle id="Ellipse 8_7" cx="284" cy="643.5" r="23" stroke="white" stroke-width="5"/>
</g>
<g id="Lightning_16">
<circle id="Ellipse 8_8" cx="305" cy="643.5" r="23" stroke="white" stroke-width="5"/>
</g>
</g>
<g id="Frame 16">
<g id="Lightning_17" filter="url(#filter13_d_0_1)">
<circle id="Ellipse 2_14" cx="263" cy="643.5" r="20.5" fill="#37DFA3"/>
<g id="Vector_14">
<mask id="path-46-outside-10_0_1" maskUnits="userSpaceOnUse" x="253.386" y="629.2" width="19" height="29" fill="black">
<rect fill="white" x="253.386" y="629.2" width="19" height="29"/>
<path d="M259.486 655.8C259.413 655.8 259.337 655.787 259.264 655.76C259.003 655.662 258.854 655.407 258.914 655.154L261.108 645.639H255.972C255.754 645.639 255.555 645.53 255.455 645.355C255.352 645.179 255.365 644.966 255.487 644.803L265.443 631.433C265.603 631.222 265.901 631.143 266.157 631.243C266.415 631.343 266.56 631.594 266.502 631.845L264.306 641.36H268.857C269.069 641.36 269.268 641.467 269.371 641.638C269.474 641.81 269.465 642.018 269.351 642.183L259.98 655.553C259.868 655.712 259.68 655.8 259.486 655.8Z"/>
</mask>
<path d="M259.486 655.8C259.413 655.8 259.337 655.787 259.264 655.76C259.003 655.662 258.854 655.407 258.914 655.154L261.108 645.639H255.972C255.754 645.639 255.555 645.53 255.455 645.355C255.352 645.179 255.365 644.966 255.487 644.803L265.443 631.433C265.603 631.222 265.901 631.143 266.157 631.243C266.415 631.343 266.56 631.594 266.502 631.845L264.306 641.36H268.857C269.069 641.36 269.268 641.467 269.371 641.638C269.474 641.81 269.465 642.018 269.351 642.183L259.98 655.553C259.868 655.712 259.68 655.8 259.486 655.8Z" fill="white"/>
<path d="M259.486 655.8C259.413 655.8 259.337 655.787 259.264 655.76C259.003 655.662 258.854 655.407 258.914 655.154L261.108 645.639H255.972C255.754 645.639 255.555 645.53 255.455 645.355C255.352 645.179 255.365 644.966 255.487 644.803L265.443 631.433C265.603 631.222 265.901 631.143 266.157 631.243C266.415 631.343 266.56 631.594 266.502 631.845L264.306 641.36H268.857C269.069 641.36 269.268 641.467 269.371 641.638C269.474 641.81 269.465 642.018 269.351 642.183L259.98 655.553C259.868 655.712 259.68 655.8 259.486 655.8Z" stroke="black" stroke-width="4" mask="url(#path-46-outside-10_0_1)"/>
</g>
</g>
<g id="Lightning_18" filter="url(#filter14_d_0_1)">
<circle id="Ellipse 2_15" cx="284" cy="643.5" r="20.5" fill="#37DFA3"/>
<g id="Vector_15">
<mask id="path-48-outside-11_0_1" maskUnits="userSpaceOnUse" x="274.386" y="629.2" width="19" height="29" fill="black">
<rect fill="white" x="274.386" y="629.2" width="19" height="29"/>
<path d="M280.486 655.8C280.413 655.8 280.337 655.787 280.264 655.76C280.003 655.662 279.854 655.407 279.914 655.154L282.108 645.639H276.972C276.754 645.639 276.555 645.53 276.455 645.355C276.352 645.179 276.365 644.966 276.487 644.803L286.443 631.433C286.603 631.222 286.901 631.143 287.157 631.243C287.415 631.343 287.56 631.594 287.502 631.845L285.306 641.36H289.857C290.069 641.36 290.268 641.467 290.371 641.638C290.474 641.81 290.465 642.018 290.351 642.183L280.98 655.553C280.868 655.712 280.68 655.8 280.486 655.8Z"/>
</mask>
<path d="M280.486 655.8C280.413 655.8 280.337 655.787 280.264 655.76C280.003 655.662 279.854 655.407 279.914 655.154L282.108 645.639H276.972C276.754 645.639 276.555 645.53 276.455 645.355C276.352 645.179 276.365 644.966 276.487 644.803L286.443 631.433C286.603 631.222 286.901 631.143 287.157 631.243C287.415 631.343 287.56 631.594 287.502 631.845L285.306 641.36H289.857C290.069 641.36 290.268 641.467 290.371 641.638C290.474 641.81 290.465 642.018 290.351 642.183L280.98 655.553C280.868 655.712 280.68 655.8 280.486 655.8Z" fill="white"/>
<path d="M280.486 655.8C280.413 655.8 280.337 655.787 280.264 655.76C280.003 655.662 279.854 655.407 279.914 655.154L282.108 645.639H276.972C276.754 645.639 276.555 645.53 276.455 645.355C276.352 645.179 276.365 644.966 276.487 644.803L286.443 631.433C286.603 631.222 286.901 631.143 287.157 631.243C287.415 631.343 287.56 631.594 287.502 631.845L285.306 641.36H289.857C290.069 641.36 290.268 641.467 290.371 641.638C290.474 641.81 290.465 642.018 290.351 642.183L280.98 655.553C280.868 655.712 280.68 655.8 280.486 655.8Z" stroke="black" stroke-width="4" mask="url(#path-48-outside-11_0_1)"/>
</g>
</g>
<g id="Lightning_19" filter="url(#filter15_d_0_1)">
<circle id="Ellipse 2_16" cx="305" cy="643.5" r="20.5" fill="#37DFA3"/>
<g id="Vector_16">
<mask id="path-50-outside-12_0_1" maskUnits="userSpaceOnUse" x="295.386" y="629.2" width="19" height="29" fill="black">
<rect fill="white" x="295.386" y="629.2" width="19" height="29"/>
<path d="M301.486 655.8C301.413 655.8 301.337 655.787 301.264 655.76C301.003 655.662 300.854 655.407 300.914 655.154L303.108 645.639H297.972C297.754 645.639 297.555 645.53 297.455 645.355C297.352 645.179 297.365 644.966 297.487 644.803L307.443 631.433C307.603 631.222 307.901 631.143 308.157 631.243C308.415 631.343 308.56 631.594 308.502 631.845L306.306 641.36H310.857C311.069 641.36 311.268 641.467 311.371 641.638C311.474 641.81 311.465 642.018 311.351 642.183L301.98 655.553C301.868 655.712 301.68 655.8 301.486 655.8Z"/>
</mask>
<path d="M301.486 655.8C301.413 655.8 301.337 655.787 301.264 655.76C301.003 655.662 300.854 655.407 300.914 655.154L303.108 645.639H297.972C297.754 645.639 297.555 645.53 297.455 645.355C297.352 645.179 297.365 644.966 297.487 644.803L307.443 631.433C307.603 631.222 307.901 631.143 308.157 631.243C308.415 631.343 308.56 631.594 308.502 631.845L306.306 641.36H310.857C311.069 641.36 311.268 641.467 311.371 641.638C311.474 641.81 311.465 642.018 311.351 642.183L301.98 655.553C301.868 655.712 301.68 655.8 301.486 655.8Z" fill="white"/>
<path d="M301.486 655.8C301.413 655.8 301.337 655.787 301.264 655.76C301.003 655.662 300.854 655.407 300.914 655.154L303.108 645.639H297.972C297.754 645.639 297.555 645.53 297.455 645.355C297.352 645.179 297.365 644.966 297.487 644.803L307.443 631.433C307.603 631.222 307.901 631.143 308.157 631.243C308.415 631.343 308.56 631.594 308.502 631.845L306.306 641.36H310.857C311.069 641.36 311.268 641.467 311.371 641.638C311.474 641.81 311.465 642.018 311.351 642.183L301.98 655.553C301.868 655.712 301.68 655.8 301.486 655.8Z" stroke="black" stroke-width="4" mask="url(#path-50-outside-12_0_1)"/>
</g>
</g>
</g>
<rect x="224.5" y="584.5" width="119" height="119" stroke="#666666"/>
</g>
<g id="gasstation">
<g id="Group 1">
<path id="lower part" fill-rule="evenodd" clip-rule="evenodd" d="M163.919 823.92C163.946 823.947 163.973 823.973 164 824L164.319 823.526C195.421 792.882 203.503 781.414 204 764.75H203.837H124C124.497 781.414 132.418 792.882 163.518 823.526L163.837 824C163.864 823.973 163.891 823.947 163.919 823.92Z" fill="#429DF1"/>
<circle id="circle" cx="164" cy="764" r="40" fill="#429DF1"/>
</g>
<g id="Vector_17">
<mask id="path-54-outside-13_0_1" maskUnits="userSpaceOnUse" x="142" y="740" width="48" height="50" fill="black">
<rect fill="white" x="142" y="740" width="48" height="50"/>
<path d="M151.398 743C148.797 743 146.75 745.059 146.75 747.675V779.96H173.875V747.675C173.875 745.059 171.828 743 169.227 743H151.398ZM152.793 747.4H167.832C168.707 747.4 169.5 748.197 169.5 749.077V758.042C169.5 758.922 168.707 759.72 167.832 759.72H152.793C151.918 759.72 151.125 758.922 151.125 758.042V749.077C151.125 748.197 151.918 747.4 152.793 747.4ZM176.254 747.648L174.996 748.912L180 753.917V761.122C180 762.123 180.414 763.161 181.121 763.872L185.25 767.997V774.68C185.25 776.653 183.712 778.2 181.75 778.2C179.788 778.2 178.25 776.653 178.25 774.68V770.28C178.25 767.942 176.808 766.014 174.75 765.302V767.227C175.799 767.829 176.5 768.953 176.5 770.28V774.68C176.5 777.64 178.807 779.96 181.75 779.96C184.693 779.96 187 777.64 187 774.68V760.077C187 759.077 186.586 758.039 185.879 757.328L176.254 747.648ZM145.875 781.72C145.393 781.72 145 782.112 145 782.6V786.12C145 786.608 145.393 787 145.875 787H174.75C175.235 787 175.625 786.608 175.625 786.12V782.6C175.625 782.112 175.235 781.72 174.75 781.72H145.875Z"/>
</mask>
<path d="M151.398 743C148.797 743 146.75 745.059 146.75 747.675V779.96H173.875V747.675C173.875 745.059 171.828 743 169.227 743H151.398ZM152.793 747.4H167.832C168.707 747.4 169.5 748.197 169.5 749.077V758.042C169.5 758.922 168.707 759.72 167.832 759.72H152.793C151.918 759.72 151.125 758.922 151.125 758.042V749.077C151.125 748.197 151.918 747.4 152.793 747.4ZM176.254 747.648L174.996 748.912L180 753.917V761.122C180 762.123 180.414 763.161 181.121 763.872L185.25 767.997V774.68C185.25 776.653 183.712 778.2 181.75 778.2C179.788 778.2 178.25 776.653 178.25 774.68V770.28C178.25 767.942 176.808 766.014 174.75 765.302V767.227C175.799 767.829 176.5 768.953 176.5 770.28V774.68C176.5 777.64 178.807 779.96 181.75 779.96C184.693 779.96 187 777.64 187 774.68V760.077C187 759.077 186.586 758.039 185.879 757.328L176.254 747.648ZM145.875 781.72C145.393 781.72 145 782.112 145 782.6V786.12C145 786.608 145.393 787 145.875 787H174.75C175.235 787 175.625 786.608 175.625 786.12V782.6C175.625 782.112 175.235 781.72 174.75 781.72H145.875Z" fill="white"/>
<path d="M151.398 743C148.797 743 146.75 745.059 146.75 747.675V779.96H173.875V747.675C173.875 745.059 171.828 743 169.227 743H151.398ZM152.793 747.4H167.832C168.707 747.4 169.5 748.197 169.5 749.077V758.042C169.5 758.922 168.707 759.72 167.832 759.72H152.793C151.918 759.72 151.125 758.922 151.125 758.042V749.077C151.125 748.197 151.918 747.4 152.793 747.4ZM176.254 747.648L174.996 748.912L180 753.917V761.122C180 762.123 180.414 763.161 181.121 763.872L185.25 767.997V774.68C185.25 776.653 183.712 778.2 181.75 778.2C179.788 778.2 178.25 776.653 178.25 774.68V770.28C178.25 767.942 176.808 766.014 174.75 765.302V767.227C175.799 767.829 176.5 768.953 176.5 770.28V774.68C176.5 777.64 178.807 779.96 181.75 779.96C184.693 779.96 187 777.64 187 774.68V760.077C187 759.077 186.586 758.039 185.879 757.328L176.254 747.648ZM145.875 781.72C145.393 781.72 145 782.112 145 782.6V786.12C145 786.608 145.393 787 145.875 787H174.75C175.235 787 175.625 786.608 175.625 786.12V782.6C175.625 782.112 175.235 781.72 174.75 781.72H145.875Z" stroke="black" stroke-width="6" mask="url(#path-54-outside-13_0_1)"/>
</g>
<rect x="104.5" y="704.5" width="119" height="119" stroke="#666666"/>
</g>
<g id="gasstation,selected">
<g id="Group 1_2">
<path id="lower part_2" fill-rule="evenodd" clip-rule="evenodd" d="M283.919 823.92C283.946 823.947 283.973 823.973 284 824L284.319 823.526C315.421 792.882 323.503 781.414 324 764.75H323.837H244C244.497 781.414 252.418 792.882 283.518 823.526L283.837 824C283.864 823.973 283.891 823.947 283.919 823.92Z" fill="white"/>
<circle id="circle_2" cx="284" cy="764" r="40" fill="white"/>
</g>
<g id="Vector_18">
<mask id="path-58-outside-14_0_1" maskUnits="userSpaceOnUse" x="262" y="740" width="48" height="50" fill="black">
<rect fill="white" x="262" y="740" width="48" height="50"/>
<path d="M271.398 743C268.797 743 266.75 745.059 266.75 747.675V779.96H293.875V747.675C293.875 745.059 291.828 743 289.227 743H271.398ZM272.793 747.4H287.832C288.707 747.4 289.5 748.197 289.5 749.077V758.042C289.5 758.922 288.707 759.72 287.832 759.72H272.793C271.918 759.72 271.125 758.922 271.125 758.042V749.077C271.125 748.197 271.918 747.4 272.793 747.4ZM296.254 747.648L294.996 748.912L300 753.917V761.122C300 762.123 300.414 763.161 301.121 763.872L305.25 767.997V774.68C305.25 776.653 303.712 778.2 301.75 778.2C299.788 778.2 298.25 776.653 298.25 774.68V770.28C298.25 767.942 296.808 766.014 294.75 765.302V767.227C295.799 767.829 296.5 768.953 296.5 770.28V774.68C296.5 777.64 298.807 779.96 301.75 779.96C304.693 779.96 307 777.64 307 774.68V760.077C307 759.077 306.586 758.039 305.879 757.328L296.254 747.648ZM265.875 781.72C265.393 781.72 265 782.112 265 782.6V786.12C265 786.608 265.393 787 265.875 787H294.75C295.235 787 295.625 786.608 295.625 786.12V782.6C295.625 782.112 295.235 781.72 294.75 781.72H265.875Z"/>
</mask>
<path d="M271.398 743C268.797 743 266.75 745.059 266.75 747.675V779.96H293.875V747.675C293.875 745.059 291.828 743 289.227 743H271.398ZM272.793 747.4H287.832C288.707 747.4 289.5 748.197 289.5 749.077V758.042C289.5 758.922 288.707 759.72 287.832 759.72H272.793C271.918 759.72 271.125 758.922 271.125 758.042V749.077C271.125 748.197 271.918 747.4 272.793 747.4ZM296.254 747.648L294.996 748.912L300 753.917V761.122C300 762.123 300.414 763.161 301.121 763.872L305.25 767.997V774.68C305.25 776.653 303.712 778.2 301.75 778.2C299.788 778.2 298.25 776.653 298.25 774.68V770.28C298.25 767.942 296.808 766.014 294.75 765.302V767.227C295.799 767.829 296.5 768.953 296.5 770.28V774.68C296.5 777.64 298.807 779.96 301.75 779.96C304.693 779.96 307 777.64 307 774.68V760.077C307 759.077 306.586 758.039 305.879 757.328L296.254 747.648ZM265.875 781.72C265.393 781.72 265 782.112 265 782.6V786.12C265 786.608 265.393 787 265.875 787H294.75C295.235 787 295.625 786.608 295.625 786.12V782.6C295.625 782.112 295.235 781.72 294.75 781.72H265.875Z" fill="#429DF1"/>
<path d="M271.398 743C268.797 743 266.75 745.059 266.75 747.675V779.96H293.875V747.675C293.875 745.059 291.828 743 289.227 743H271.398ZM272.793 747.4H287.832C288.707 747.4 289.5 748.197 289.5 749.077V758.042C289.5 758.922 288.707 759.72 287.832 759.72H272.793C271.918 759.72 271.125 758.922 271.125 758.042V749.077C271.125 748.197 271.918 747.4 272.793 747.4ZM296.254 747.648L294.996 748.912L300 753.917V761.122C300 762.123 300.414 763.161 301.121 763.872L305.25 767.997V774.68C305.25 776.653 303.712 778.2 301.75 778.2C299.788 778.2 298.25 776.653 298.25 774.68V770.28C298.25 767.942 296.808 766.014 294.75 765.302V767.227C295.799 767.829 296.5 768.953 296.5 770.28V774.68C296.5 777.64 298.807 779.96 301.75 779.96C304.693 779.96 307 777.64 307 774.68V760.077C307 759.077 306.586 758.039 305.879 757.328L296.254 747.648ZM265.875 781.72C265.393 781.72 265 782.112 265 782.6V786.12C265 786.608 265.393 787 265.875 787H294.75C295.235 787 295.625 786.608 295.625 786.12V782.6C295.625 782.112 295.235 781.72 294.75 781.72H265.875Z" stroke="black" stroke-width="6" mask="url(#path-58-outside-14_0_1)"/>
</g>
<rect x="224.5" y="704.5" width="119" height="119" stroke="#666666"/>
</g>
</g>
</g>
<g id="Rectangle">
<rect x="40" y="4" width="146.047" height="30" rx="3" fill="#494949"/>
<rect x="40.5" y="4.5" width="145.047" height="29" rx="2.5" stroke="black" stroke-opacity="0.14902"/>
</g>
<path id="StationMarker.spritesheet_2" d="M51.3438 16C51.2969 15.6042 51.1068 15.2969 50.7734 15.0781C50.4401 14.8594 50.0313 14.75 49.5469 14.75C49.1927 14.75 48.8828 14.8073 48.6172 14.9219C48.3542 15.0365 48.1484 15.194 48 15.3945C47.8542 15.5951 47.7813 15.8229 47.7813 16.0781C47.7813 16.2917 47.832 16.4753 47.9336 16.6289C48.0378 16.7799 48.1706 16.9062 48.332 17.0078C48.4935 17.1068 48.6628 17.1888 48.8398 17.2539C49.0169 17.3164 49.1797 17.3672 49.3281 17.4062L50.1406 17.625C50.349 17.6797 50.5807 17.7552 50.8359 17.8516C51.0938 17.9479 51.3398 18.0794 51.5742 18.2461C51.8112 18.4102 52.0065 18.6211 52.1602 18.8789C52.3138 19.1367 52.3906 19.4531 52.3906 19.8281C52.3906 20.2604 52.2773 20.651 52.0508 21C51.8268 21.349 51.4987 21.6263 51.0664 21.832C50.6367 22.0378 50.1146 22.1406 49.5 22.1406C48.9271 22.1406 48.431 22.0482 48.0117 21.8633C47.5951 21.6784 47.2669 21.4206 47.0273 21.0898C46.7904 20.7591 46.6563 20.375 46.625 19.9375H47.625C47.651 20.2396 47.7526 20.4896 47.9297 20.6875C48.1094 20.8828 48.3359 21.0286 48.6094 21.125C48.8854 21.2187 49.1823 21.2656 49.5 21.2656C49.8698 21.2656 50.2018 21.2057 50.4961 21.0859C50.7904 20.9635 51.0234 20.7943 51.1953 20.5781C51.3672 20.3594 51.4531 20.1042 51.4531 19.8125C51.4531 19.5469 51.3789 19.3307 51.2305 19.1641C51.082 18.9974 50.8867 18.862 50.6445 18.7578C50.4023 18.6536 50.1406 18.5625 49.8594 18.4844L48.875 18.2031C48.25 18.0234 47.7552 17.7669 47.3906 17.4336C47.026 17.1003 46.8438 16.6641 46.8438 16.125C46.8438 15.6771 46.9648 15.2865 47.207 14.9531C47.4518 14.6172 47.7799 14.3568 48.1914 14.1719C48.6055 13.9844 49.0677 13.8906 49.5781 13.8906C50.0938 13.8906 50.5521 13.9831 50.9531 14.168C51.3542 14.3503 51.6719 14.6003 51.9062 14.918C52.1432 15.2357 52.2682 15.5964 52.2813 16H51.3438ZM56.4678 16V16.7812H53.3584V16H56.4678ZM54.2646 14.5625H55.1865V20.2812C55.1865 20.5417 55.2243 20.737 55.2998 20.8672C55.3779 20.9948 55.4769 21.0807 55.5967 21.125C55.7191 21.1667 55.848 21.1875 55.9834 21.1875C56.085 21.1875 56.1683 21.1823 56.2334 21.1719C56.2985 21.1589 56.3506 21.1484 56.3896 21.1406L56.5771 21.9687C56.5146 21.9922 56.4274 22.0156 56.3154 22.0391C56.2035 22.0651 56.0615 22.0781 55.8896 22.0781C55.6292 22.0781 55.374 22.0221 55.124 21.9102C54.8766 21.7982 54.6709 21.6276 54.5068 21.3984C54.3454 21.1693 54.2646 20.8802 54.2646 20.5312V14.5625ZM59.6201 22.1406C59.2399 22.1406 58.8949 22.069 58.585 21.9258C58.2751 21.7799 58.029 21.5703 57.8467 21.2969C57.6644 21.0208 57.5732 20.6875 57.5732 20.2969C57.5732 19.9531 57.641 19.6745 57.7764 19.4609C57.9118 19.2448 58.0928 19.0755 58.3193 18.9531C58.5459 18.8307 58.7959 18.7396 59.0693 18.6797C59.3454 18.6172 59.6227 18.5677 59.9014 18.5313C60.266 18.4844 60.5615 18.4492 60.7881 18.4258C61.0173 18.3997 61.1839 18.3568 61.2881 18.2969C61.3949 18.237 61.4482 18.1328 61.4482 17.9844V17.9531C61.4482 17.5677 61.3428 17.2682 61.1318 17.0547C60.9235 16.8411 60.6071 16.7344 60.1826 16.7344C59.7425 16.7344 59.3975 16.8307 59.1475 17.0234C58.8975 17.2161 58.7217 17.4219 58.6201 17.6406L57.7451 17.3281C57.9014 16.9635 58.1097 16.6797 58.3701 16.4766C58.6331 16.2708 58.9196 16.1276 59.2295 16.0469C59.542 15.9635 59.8493 15.9219 60.1514 15.9219C60.3441 15.9219 60.5654 15.9453 60.8154 15.9922C61.068 16.0365 61.3115 16.1289 61.5459 16.2695C61.7829 16.4102 61.9795 16.6224 62.1357 16.9062C62.292 17.1901 62.3701 17.5703 62.3701 18.0469V22H61.4482V21.1875H61.4014C61.3389 21.3177 61.2347 21.457 61.0889 21.6055C60.943 21.7539 60.749 21.8802 60.5068 21.9844C60.2646 22.0885 59.9691 22.1406 59.6201 22.1406ZM59.7607 21.3125C60.1253 21.3125 60.4326 21.2409 60.6826 21.0977C60.9352 20.9544 61.1253 20.7695 61.2529 20.543C61.3831 20.3164 61.4482 20.0781 61.4482 19.8281V18.9844C61.4092 19.0312 61.3232 19.0742 61.1904 19.1133C61.0602 19.1497 60.9092 19.1823 60.7373 19.2109C60.568 19.237 60.4027 19.2604 60.2412 19.2812C60.0824 19.2995 59.9535 19.3151 59.8545 19.3281C59.6149 19.3594 59.391 19.4102 59.1826 19.4805C58.9769 19.5482 58.8102 19.651 58.6826 19.7891C58.5576 19.9245 58.4951 20.1094 58.4951 20.3437C58.4951 20.6641 58.6136 20.9062 58.8506 21.0703C59.0902 21.2318 59.3936 21.3125 59.7607 21.3125ZM66.6621 16V16.7812H63.5527V16H66.6621ZM64.459 14.5625H65.3809V20.2812C65.3809 20.5417 65.4186 20.737 65.4941 20.8672C65.5723 20.9948 65.6712 21.0807 65.791 21.125C65.9134 21.1667 66.0423 21.1875 66.1777 21.1875C66.2793 21.1875 66.3626 21.1823 66.4277 21.1719C66.4928 21.1589 66.5449 21.1484 66.584 21.1406L66.7715 21.9687C66.709 21.9922 66.6217 22.0156 66.5098 22.0391C66.3978 22.0651 66.2559 22.0781 66.084 22.0781C65.8236 22.0781 65.5684 22.0221 65.3184 21.9102C65.071 21.7982 64.8652 21.6276 64.7012 21.3984C64.5397 21.1693 64.459 20.8802 64.459 20.5312V14.5625ZM68.0488 22V16H68.9707V22H68.0488ZM68.5176 15C68.3379 15 68.1829 14.9388 68.0527 14.8164C67.9251 14.694 67.8613 14.5469 67.8613 14.375C67.8613 14.2031 67.9251 14.056 68.0527 13.9336C68.1829 13.8112 68.3379 13.75 68.5176 13.75C68.6973 13.75 68.8509 13.8112 68.9785 13.9336C69.1087 14.056 69.1738 14.2031 69.1738 14.375C69.1738 14.5469 69.1087 14.694 68.9785 14.8164C68.8509 14.9388 68.6973 15 68.5176 15ZM73.0967 22.125C72.555 22.125 72.0798 21.9961 71.6709 21.7383C71.2646 21.4805 70.9469 21.1198 70.7178 20.6562C70.4912 20.1927 70.3779 19.651 70.3779 19.0312C70.3779 18.4062 70.4912 17.8607 70.7178 17.3945C70.9469 16.9284 71.2646 16.5664 71.6709 16.3086C72.0798 16.0508 72.555 15.9219 73.0967 15.9219C73.6383 15.9219 74.1123 16.0508 74.5186 16.3086C74.9274 16.5664 75.2451 16.9284 75.4717 17.3945C75.7008 17.8607 75.8154 18.4062 75.8154 19.0312C75.8154 19.651 75.7008 20.1927 75.4717 20.6562C75.2451 21.1198 74.9274 21.4805 74.5186 21.7383C74.1123 21.9961 73.6383 22.125 73.0967 22.125ZM73.0967 21.2969C73.5081 21.2969 73.8467 21.1914 74.1123 20.9805C74.3779 20.7695 74.5745 20.4922 74.7021 20.1484C74.8298 19.8047 74.8936 19.4323 74.8936 19.0312C74.8936 18.6302 74.8298 18.2565 74.7021 17.9102C74.5745 17.5638 74.3779 17.2839 74.1123 17.0703C73.8467 16.8568 73.5081 16.75 73.0967 16.75C72.6852 16.75 72.3467 16.8568 72.0811 17.0703C71.8154 17.2839 71.6188 17.5638 71.4912 17.9102C71.3636 18.2565 71.2998 18.6302 71.2998 19.0312C71.2998 19.4323 71.3636 19.8047 71.4912 20.1484C71.6188 20.4922 71.8154 20.7695 72.0811 20.9805C72.3467 21.1914 72.6852 21.2969 73.0967 21.2969ZM78.1445 18.3906V22H77.2227V16H78.1133V16.9375H78.1914C78.332 16.6328 78.5456 16.388 78.832 16.2031C79.1185 16.0156 79.4883 15.9219 79.9414 15.9219C80.3477 15.9219 80.7031 16.0052 81.0078 16.1719C81.3125 16.3359 81.5495 16.5859 81.7188 16.9219C81.888 17.2552 81.9727 17.6771 81.9727 18.1875V22H81.0508V18.25C81.0508 17.7786 80.9284 17.4115 80.6836 17.1484C80.4388 16.8828 80.1029 16.75 79.6758 16.75C79.3815 16.75 79.1185 16.8138 78.8867 16.9414C78.6576 17.069 78.4766 17.2552 78.3438 17.5C78.2109 17.7448 78.1445 18.0417 78.1445 18.3906ZM83.7822 14H84.9385L87.6572 20.6406H87.751L90.4697 14H91.626V22H90.7197V15.9219H90.6416L88.1416 22H87.2666L84.7666 15.9219H84.6885V22H83.7822V14ZM95.209 22.1406C94.8288 22.1406 94.4837 22.069 94.1738 21.9258C93.8639 21.7799 93.6178 21.5703 93.4355 21.2969C93.2533 21.0208 93.1621 20.6875 93.1621 20.2969C93.1621 19.9531 93.2298 19.6745 93.3652 19.4609C93.5007 19.2448 93.6816 19.0755 93.9082 18.9531C94.1348 18.8307 94.3848 18.7396 94.6582 18.6797C94.9342 18.6172 95.2116 18.5677 95.4902 18.5313C95.8548 18.4844 96.1504 18.4492 96.377 18.4258C96.6061 18.3997 96.7728 18.3568 96.877 18.2969C96.9837 18.237 97.0371 18.1328 97.0371 17.9844V17.9531C97.0371 17.5677 96.9316 17.2682 96.7207 17.0547C96.5124 16.8411 96.196 16.7344 95.7715 16.7344C95.3314 16.7344 94.9863 16.8307 94.7363 17.0234C94.4863 17.2161 94.3105 17.4219 94.209 17.6406L93.334 17.3281C93.4902 16.9635 93.6986 16.6797 93.959 16.4766C94.222 16.2708 94.5085 16.1276 94.8184 16.0469C95.1309 15.9635 95.4382 15.9219 95.7402 15.9219C95.9329 15.9219 96.1543 15.9453 96.4043 15.9922C96.6569 16.0365 96.9004 16.1289 97.1348 16.2695C97.3717 16.4102 97.5684 16.6224 97.7246 16.9062C97.8809 17.1901 97.959 17.5703 97.959 18.0469V22H97.0371V21.1875H96.9902C96.9277 21.3177 96.8236 21.457 96.6777 21.6055C96.5319 21.7539 96.3379 21.8802 96.0957 21.9844C95.8535 22.0885 95.5579 22.1406 95.209 22.1406ZM95.3496 21.3125C95.7142 21.3125 96.0215 21.2409 96.2715 21.0977C96.5241 20.9544 96.7142 20.7695 96.8418 20.543C96.972 20.3164 97.0371 20.0781 97.0371 19.8281V18.9844C96.998 19.0312 96.9121 19.0742 96.7793 19.1133C96.6491 19.1497 96.498 19.1823 96.3262 19.2109C96.1569 19.237 95.9915 19.2604 95.8301 19.2812C95.6712 19.2995 95.5423 19.3151 95.4434 19.3281C95.2038 19.3594 94.9798 19.4102 94.7715 19.4805C94.5658 19.5482 94.3991 19.651 94.2715 19.7891C94.1465 19.9245 94.084 20.1094 94.084 20.3437C94.084 20.6641 94.2025 20.9062 94.4395 21.0703C94.679 21.2318 94.9824 21.3125 95.3496 21.3125ZM99.6416 22V16H100.532V16.9062H100.595C100.704 16.6094 100.902 16.3685 101.188 16.1836C101.475 15.9987 101.798 15.9062 102.157 15.9062C102.225 15.9062 102.31 15.9076 102.411 15.9102C102.513 15.9128 102.59 15.9167 102.642 15.9219V16.8594C102.61 16.8516 102.539 16.8398 102.427 16.8242C102.317 16.806 102.201 16.7969 102.079 16.7969C101.787 16.7969 101.527 16.8581 101.298 16.9805C101.071 17.1003 100.892 17.2669 100.759 17.4805C100.629 17.6914 100.563 17.9323 100.563 18.2031V22H99.6416ZM104.594 19.8125L104.578 18.6719H104.766L107.391 16H108.531L105.734 18.8281H105.656L104.594 19.8125ZM103.734 22V14H104.656V22H103.734ZM107.547 22L105.203 19.0312L105.859 18.3906L108.719 22H107.547ZM111.986 22.125C111.408 22.125 110.91 21.9974 110.49 21.7422C110.074 21.4844 109.752 21.125 109.525 20.6641C109.301 20.2005 109.189 19.6615 109.189 19.0469C109.189 18.4323 109.301 17.8906 109.525 17.4219C109.752 16.9505 110.067 16.5833 110.471 16.3203C110.877 16.0547 111.351 15.9219 111.893 15.9219C112.205 15.9219 112.514 15.974 112.818 16.0781C113.123 16.1823 113.4 16.3516 113.65 16.5859C113.9 16.8177 114.1 17.125 114.248 17.5078C114.396 17.8906 114.471 18.362 114.471 18.9219V19.3125H109.846V18.5156H113.533C113.533 18.1771 113.465 17.875 113.33 17.6094C113.197 17.3437 113.007 17.1341 112.76 16.9805C112.515 16.8268 112.226 16.75 111.893 16.75C111.525 16.75 111.208 16.8411 110.939 17.0234C110.674 17.2031 110.469 17.4375 110.326 17.7266C110.183 18.0156 110.111 18.3255 110.111 18.6562V19.1875C110.111 19.6406 110.189 20.0247 110.346 20.3398C110.505 20.6523 110.725 20.8906 111.006 21.0547C111.287 21.2161 111.614 21.2969 111.986 21.2969C112.229 21.2969 112.447 21.263 112.643 21.1953C112.84 21.125 113.011 21.0208 113.154 20.8828C113.298 20.7422 113.408 20.5677 113.486 20.3594L114.377 20.6094C114.283 20.9115 114.126 21.1771 113.904 21.4062C113.683 21.6328 113.41 21.8099 113.084 21.9375C112.758 22.0625 112.393 22.125 111.986 22.125ZM115.873 22V16H116.764V16.9062H116.826C116.936 16.6094 117.133 16.3685 117.42 16.1836C117.706 15.9987 118.029 15.9062 118.389 15.9062C118.456 15.9062 118.541 15.9076 118.643 15.9102C118.744 15.9128 118.821 15.9167 118.873 15.9219V16.8594C118.842 16.8516 118.77 16.8398 118.658 16.8242C118.549 16.806 118.433 16.7969 118.311 16.7969C118.019 16.7969 117.758 16.8581 117.529 16.9805C117.303 17.1003 117.123 17.2669 116.99 17.4805C116.86 17.6914 116.795 17.9323 116.795 18.2031V22H115.873ZM119.95 22.0625C119.757 22.0625 119.592 21.9935 119.454 21.8555C119.316 21.7174 119.247 21.5521 119.247 21.3594C119.247 21.1667 119.316 21.0013 119.454 20.8633C119.592 20.7253 119.757 20.6562 119.95 20.6562C120.143 20.6562 120.308 20.7253 120.446 20.8633C120.584 21.0013 120.653 21.1667 120.653 21.3594C120.653 21.487 120.621 21.6042 120.556 21.7109C120.493 21.8177 120.409 21.9036 120.302 21.9687C120.198 22.0313 120.08 22.0625 119.95 22.0625ZM126.558 17.3437L125.729 17.5781C125.677 17.4401 125.601 17.306 125.499 17.1758C125.4 17.043 125.265 16.9336 125.093 16.8477C124.921 16.7617 124.701 16.7187 124.433 16.7187C124.065 16.7187 123.759 16.8034 123.515 16.9727C123.272 17.1393 123.151 17.3516 123.151 17.6094C123.151 17.8385 123.235 18.0195 123.401 18.1523C123.568 18.2852 123.828 18.3958 124.183 18.4844L125.073 18.7031C125.61 18.8333 126.009 19.0326 126.272 19.3008C126.535 19.5664 126.667 19.9089 126.667 20.3281C126.667 20.6719 126.568 20.9792 126.37 21.25C126.175 21.5208 125.901 21.7344 125.55 21.8906C125.198 22.0469 124.789 22.125 124.323 22.125C123.711 22.125 123.205 21.9922 122.804 21.7266C122.403 21.4609 122.149 21.0729 122.042 20.5625L122.917 20.3437C123 20.6667 123.158 20.9089 123.39 21.0703C123.624 21.2318 123.93 21.3125 124.308 21.3125C124.737 21.3125 125.078 21.2214 125.331 21.0391C125.586 20.8542 125.714 20.6328 125.714 20.375C125.714 20.1667 125.641 19.9922 125.495 19.8516C125.349 19.7083 125.125 19.6016 124.823 19.5312L123.823 19.2969C123.274 19.1667 122.87 18.9648 122.612 18.6914C122.357 18.4154 122.229 18.0703 122.229 17.6562C122.229 17.3177 122.325 17.0182 122.515 16.7578C122.707 16.4974 122.969 16.293 123.3 16.1445C123.633 15.9961 124.011 15.9219 124.433 15.9219C125.026 15.9219 125.493 16.0521 125.831 16.3125C126.172 16.5729 126.414 16.9167 126.558 17.3437ZM128.055 24.25V16H128.945V16.9531H129.055C129.122 16.849 129.216 16.7161 129.336 16.5547C129.458 16.3906 129.633 16.2448 129.859 16.1172C130.089 15.987 130.398 15.9219 130.789 15.9219C131.294 15.9219 131.74 16.0482 132.125 16.3008C132.51 16.5534 132.811 16.9115 133.027 17.375C133.243 17.8385 133.352 18.3854 133.352 19.0156C133.352 19.651 133.243 20.2018 133.027 20.668C132.811 21.1315 132.512 21.4909 132.129 21.7461C131.746 21.9987 131.305 22.125 130.805 22.125C130.419 22.125 130.111 22.0612 129.879 21.9336C129.647 21.8034 129.469 21.6562 129.344 21.4922C129.219 21.3255 129.122 21.1875 129.055 21.0781H128.977V24.25H128.055ZM128.961 19C128.961 19.4531 129.027 19.8529 129.16 20.1992C129.293 20.543 129.487 20.8125 129.742 21.0078C129.997 21.2005 130.31 21.2969 130.68 21.2969C131.065 21.2969 131.387 21.1953 131.645 20.9922C131.905 20.7865 132.1 20.5104 132.23 20.1641C132.363 19.8151 132.43 19.4271 132.43 19C132.43 18.5781 132.365 18.1979 132.234 17.8594C132.107 17.5182 131.913 17.2487 131.652 17.0508C131.395 16.8503 131.07 16.75 130.68 16.75C130.305 16.75 129.99 16.8451 129.734 17.0352C129.479 17.2227 129.286 17.4857 129.156 17.8242C129.026 18.1602 128.961 18.5521 128.961 19ZM134.758 22V16H135.648V16.9062H135.711C135.82 16.6094 136.018 16.3685 136.305 16.1836C136.591 15.9987 136.914 15.9062 137.273 15.9062C137.341 15.9062 137.426 15.9076 137.527 15.9102C137.629 15.9128 137.706 15.9167 137.758 15.9219V16.8594C137.727 16.8516 137.655 16.8398 137.543 16.8242C137.434 16.806 137.318 16.7969 137.195 16.7969C136.904 16.7969 136.643 16.8581 136.414 16.9805C136.188 17.1003 136.008 17.2669 135.875 17.4805C135.745 17.6914 135.68 17.9323 135.68 18.2031V22H134.758ZM138.851 22V16H139.772V22H138.851ZM139.319 15C139.14 15 138.985 14.9388 138.854 14.8164C138.727 14.694 138.663 14.5469 138.663 14.375C138.663 14.2031 138.727 14.056 138.854 13.9336C138.985 13.8112 139.14 13.75 139.319 13.75C139.499 13.75 139.653 13.8112 139.78 13.9336C139.91 14.056 139.976 14.2031 139.976 14.375C139.976 14.5469 139.91 14.694 139.78 14.8164C139.653 14.9388 139.499 15 139.319 15ZM144.07 16V16.7812H140.961V16H144.07ZM141.867 14.5625H142.789V20.2812C142.789 20.5417 142.827 20.737 142.902 20.8672C142.98 20.9948 143.079 21.0807 143.199 21.125C143.322 21.1667 143.451 21.1875 143.586 21.1875C143.688 21.1875 143.771 21.1823 143.836 21.1719C143.901 21.1589 143.953 21.1484 143.992 21.1406L144.18 21.9687C144.117 21.9922 144.03 22.0156 143.918 22.0391C143.806 22.0651 143.664 22.0781 143.492 22.0781C143.232 22.0781 142.977 22.0221 142.727 21.9102C142.479 21.7982 142.273 21.6276 142.109 21.3984C141.948 21.1693 141.867 20.8802 141.867 20.5312V14.5625ZM147.908 22.125C147.33 22.125 146.831 21.9974 146.412 21.7422C145.995 21.4844 145.674 21.125 145.447 20.6641C145.223 20.2005 145.111 19.6615 145.111 19.0469C145.111 18.4323 145.223 17.8906 145.447 17.4219C145.674 16.9505 145.989 16.5833 146.393 16.3203C146.799 16.0547 147.273 15.9219 147.814 15.9219C148.127 15.9219 148.436 15.974 148.74 16.0781C149.045 16.1823 149.322 16.3516 149.572 16.5859C149.822 16.8177 150.021 17.125 150.17 17.5078C150.318 17.8906 150.393 18.362 150.393 18.9219V19.3125H145.768V18.5156H149.455C149.455 18.1771 149.387 17.875 149.252 17.6094C149.119 17.3437 148.929 17.1341 148.682 16.9805C148.437 16.8268 148.148 16.75 147.814 16.75C147.447 16.75 147.13 16.8411 146.861 17.0234C146.596 17.2031 146.391 17.4375 146.248 17.7266C146.105 18.0156 146.033 18.3255 146.033 18.6562V19.1875C146.033 19.6406 146.111 20.0247 146.268 20.3398C146.426 20.6523 146.646 20.8906 146.928 21.0547C147.209 21.2161 147.536 21.2969 147.908 21.2969C148.15 21.2969 148.369 21.263 148.564 21.1953C148.762 21.125 148.933 21.0208 149.076 20.8828C149.219 20.7422 149.33 20.5677 149.408 20.3594L150.299 20.6094C150.205 20.9115 150.048 21.1771 149.826 21.4062C149.605 21.6328 149.331 21.8099 149.006 21.9375C148.68 22.0625 148.314 22.125 147.908 22.125ZM156.045 17.3437L155.217 17.5781C155.165 17.4401 155.088 17.306 154.986 17.1758C154.887 17.043 154.752 16.9336 154.58 16.8477C154.408 16.7617 154.188 16.7187 153.92 16.7187C153.553 16.7187 153.247 16.8034 153.002 16.9727C152.76 17.1393 152.639 17.3516 152.639 17.6094C152.639 17.8385 152.722 18.0195 152.889 18.1523C153.055 18.2852 153.316 18.3958 153.67 18.4844L154.561 18.7031C155.097 18.8333 155.497 19.0326 155.76 19.3008C156.023 19.5664 156.154 19.9089 156.154 20.3281C156.154 20.6719 156.055 20.9792 155.857 21.25C155.662 21.5208 155.389 21.7344 155.037 21.8906C154.686 22.0469 154.277 22.125 153.811 22.125C153.199 22.125 152.692 21.9922 152.291 21.7266C151.89 21.4609 151.636 21.0729 151.529 20.5625L152.404 20.3437C152.488 20.6667 152.645 20.9089 152.877 21.0703C153.111 21.2318 153.417 21.3125 153.795 21.3125C154.225 21.3125 154.566 21.2214 154.818 21.0391C155.074 20.8542 155.201 20.6328 155.201 20.375C155.201 20.1667 155.128 19.9922 154.982 19.8516C154.837 19.7083 154.613 19.6016 154.311 19.5312L153.311 19.2969C152.761 19.1667 152.357 18.9648 152.1 18.6914C151.844 18.4154 151.717 18.0703 151.717 17.6562C151.717 17.3177 151.812 17.0182 152.002 16.7578C152.195 16.4974 152.456 16.293 152.787 16.1445C153.12 15.9961 153.498 15.9219 153.92 15.9219C154.514 15.9219 154.98 16.0521 155.318 16.3125C155.66 16.5729 155.902 16.9167 156.045 17.3437ZM158.464 18.3906V22H157.542V14H158.464V16.9375H158.542C158.683 16.6276 158.894 16.3815 159.175 16.1992C159.459 16.0143 159.836 15.9219 160.308 15.9219C160.716 15.9219 161.075 16.0039 161.382 16.168C161.689 16.3294 161.927 16.5781 162.097 16.9141C162.269 17.2474 162.354 17.6719 162.354 18.1875V22H161.433V18.25C161.433 17.7734 161.309 17.4049 161.062 17.1445C160.817 16.8815 160.477 16.75 160.042 16.75C159.74 16.75 159.469 16.8138 159.229 16.9414C158.993 17.069 158.805 17.2552 158.667 17.5C158.532 17.7448 158.464 18.0417 158.464 18.3906ZM166.557 22.125C165.979 22.125 165.48 21.9974 165.061 21.7422C164.644 21.4844 164.322 21.125 164.096 20.6641C163.872 20.2005 163.76 19.6615 163.76 19.0469C163.76 18.4323 163.872 17.8906 164.096 17.4219C164.322 16.9505 164.637 16.5833 165.041 16.3203C165.447 16.0547 165.921 15.9219 166.463 15.9219C166.775 15.9219 167.084 15.974 167.389 16.0781C167.693 16.1823 167.971 16.3516 168.221 16.5859C168.471 16.8177 168.67 17.125 168.818 17.5078C168.967 17.8906 169.041 18.362 169.041 18.9219V19.3125H164.416V18.5156H168.104C168.104 18.1771 168.036 17.875 167.9 17.6094C167.768 17.3437 167.577 17.1341 167.33 16.9805C167.085 16.8268 166.796 16.75 166.463 16.75C166.096 16.75 165.778 16.8411 165.51 17.0234C165.244 17.2031 165.04 17.4375 164.896 17.7266C164.753 18.0156 164.682 18.3255 164.682 18.6562V19.1875C164.682 19.6406 164.76 20.0247 164.916 20.3398C165.075 20.6523 165.295 20.8906 165.576 21.0547C165.857 21.2161 166.184 21.2969 166.557 21.2969C166.799 21.2969 167.018 21.263 167.213 21.1953C167.411 21.125 167.581 21.0208 167.725 20.8828C167.868 20.7422 167.979 20.5677 168.057 20.3594L168.947 20.6094C168.854 20.9115 168.696 21.1771 168.475 21.4062C168.253 21.6328 167.98 21.8099 167.654 21.9375C167.329 22.0625 166.963 22.125 166.557 22.125ZM172.959 22.125C172.381 22.125 171.882 21.9974 171.463 21.7422C171.046 21.4844 170.725 21.125 170.498 20.6641C170.274 20.2005 170.162 19.6615 170.162 19.0469C170.162 18.4323 170.274 17.8906 170.498 17.4219C170.725 16.9505 171.04 16.5833 171.443 16.3203C171.85 16.0547 172.324 15.9219 172.865 15.9219C173.178 15.9219 173.486 15.974 173.791 16.0781C174.096 16.1823 174.373 16.3516 174.623 16.5859C174.873 16.8177 175.072 17.125 175.221 17.5078C175.369 17.8906 175.443 18.362 175.443 18.9219V19.3125H170.818V18.5156H174.506C174.506 18.1771 174.438 17.875 174.303 17.6094C174.17 17.3437 173.98 17.1341 173.732 16.9805C173.488 16.8268 173.199 16.75 172.865 16.75C172.498 16.75 172.18 16.8411 171.912 17.0234C171.646 17.2031 171.442 17.4375 171.299 17.7266C171.156 18.0156 171.084 18.3255 171.084 18.6562V19.1875C171.084 19.6406 171.162 20.0247 171.318 20.3398C171.477 20.6523 171.697 20.8906 171.979 21.0547C172.26 21.2161 172.587 21.2969 172.959 21.2969C173.201 21.2969 173.42 21.263 173.615 21.1953C173.813 21.125 173.984 21.0208 174.127 20.8828C174.27 20.7422 174.381 20.5677 174.459 20.3594L175.35 20.6094C175.256 20.9115 175.098 21.1771 174.877 21.4062C174.656 21.6328 174.382 21.8099 174.057 21.9375C173.731 22.0625 173.365 22.125 172.959 22.125ZM179.455 16V16.7812H176.346V16H179.455ZM177.252 14.5625H178.174V20.2812C178.174 20.5417 178.212 20.737 178.287 20.8672C178.365 20.9948 178.464 21.0807 178.584 21.125C178.706 21.1667 178.835 21.1875 178.971 21.1875C179.072 21.1875 179.156 21.1823 179.221 21.1719C179.286 21.1589 179.338 21.1484 179.377 21.1406L179.564 21.9687C179.502 21.9922 179.415 22.0156 179.303 22.0391C179.191 22.0651 179.049 22.0781 178.877 22.0781C178.617 22.0781 178.361 22.0221 178.111 21.9102C177.864 21.7982 177.658 21.6276 177.494 21.3984C177.333 21.1693 177.252 20.8802 177.252 20.5312V14.5625Z" fill="white"/>
<defs>
<filter id="filter0_d_0_1" x="139" y="139" width="49" height="49" filterUnits="userSpaceOnUse" color-interpolation-filters="sRGB">
<feFlood flood-opacity="0" result="BackgroundImageFix"/>
<feColorMatrix in="SourceAlpha" type="matrix" values="0 0 0 0 0 0 0 0 0 0 0 0 0 0 0 0 0 0 127 0" result="hardAlpha"/>
<feOffset/>
<feGaussianBlur stdDeviation="2"/>
<feComposite in2="hardAlpha" operator="out"/>
<feColorMatrix type="matrix" values="0 0 0 0 0 0 0 0 0 0 0 0 0 0 0 0 0 0 0.25 0"/>
<feBlend mode="normal" in2="BackgroundImageFix" result="effect1_dropShadow_0_1"/>
<feBlend mode="normal" in="SourceGraphic" in2="effect1_dropShadow_0_1" result="shape"/>
</filter>
<filter id="filter1_d_0_1" x="259" y="139" width="49" height="49" filterUnits="userSpaceOnUse" color-interpolation-filters="sRGB">
<feFlood flood-opacity="0" result="BackgroundImageFix"/>
<feColorMatrix in="SourceAlpha" type="matrix" values="0 0 0 0 0 0 0 0 0 0 0 0 0 0 0 0 0 0 127 0" result="hardAlpha"/>
<feOffset/>
<feGaussianBlur stdDeviation="2"/>
<feComposite in2="hardAlpha" operator="out"/>
<feColorMatrix type="matrix" values="0 0 0 0 0 0 0 0 0 0 0 0 0 0 0 0 0 0 0.25 0"/>
<feBlend mode="normal" in2="BackgroundImageFix" result="effect1_dropShadow_0_1"/>
<feBlend mode="normal" in="SourceGraphic" in2="effect1_dropShadow_0_1" result="shape"/>
</filter>
<filter id="filter2_d_0_1" x="139" y="259" width="49" height="49" filterUnits="userSpaceOnUse" color-interpolation-filters="sRGB">
<feFlood flood-opacity="0" result="BackgroundImageFix"/>
<feColorMatrix in="SourceAlpha" type="matrix" values="0 0 0 0 0 0 0 0 0 0 0 0 0 0 0 0 0 0 127 0" result="hardAlpha"/>
<feOffset/>
<feGaussianBlur stdDeviation="2"/>
<feComposite in2="hardAlpha" operator="out"/>
<feColorMatrix type="matrix" values="0 0 0 0 0 0 0 0 0 0 0 0 0 0 0 0 0 0 0.25 0"/>
<feBlend mode="normal" in2="BackgroundImageFix" result="effect1_dropShadow_0_1"/>
<feBlend mode="normal" in="SourceGraphic" in2="effect1_dropShadow_0_1" result="shape"/>
</filter>
<filter id="filter3_d_0_1" x="259" y="259" width="49" height="49" filterUnits="userSpaceOnUse" color-interpolation-filters="sRGB">
<feFlood flood-opacity="0" result="BackgroundImageFix"/>
<feColorMatrix in="SourceAlpha" type="matrix" values="0 0 0 0 0 0 0 0 0 0 0 0 0 0 0 0 0 0 127 0" result="hardAlpha"/>
<feOffset/>
<feGaussianBlur stdDeviation="2"/>
<feComposite in2="hardAlpha" operator="out"/>
<feColorMatrix type="matrix" values="0 0 0 0 0 0 0 0 0 0 0 0 0 0 0 0 0 0 0.25 0"/>
<feBlend mode="normal" in2="BackgroundImageFix" result="effect1_dropShadow_0_1"/>
<feBlend mode="normal" in="SourceGraphic" in2="effect1_dropShadow_0_1" result="shape"/>
</filter>
<filter id="filter4_d_0_1" x="139" y="379" width="49" height="49" filterUnits="userSpaceOnUse" color-interpolation-filters="sRGB">
<feFlood flood-opacity="0" result="BackgroundImageFix"/>
<feColorMatrix in="SourceAlpha" type="matrix" values="0 0 0 0 0 0 0 0 0 0 0 0 0 0 0 0 0 0 127 0" result="hardAlpha"/>
<feOffset/>
<feGaussianBlur stdDeviation="2"/>
<feComposite in2="hardAlpha" operator="out"/>
<feColorMatrix type="matrix" values="0 0 0 0 0 0 0 0 0 0 0 0 0 0 0 0 0 0 0.25 0"/>
<feBlend mode="normal" in2="BackgroundImageFix" result="effect1_dropShadow_0_1"/>
<feBlend mode="normal" in="SourceGraphic" in2="effect1_dropShadow_0_1" result="shape"/>
</filter>
<filter id="filter5_d_0_1" x="259" y="379" width="49" height="49" filterUnits="userSpaceOnUse" color-interpolation-filters="sRGB">
<feFlood flood-opacity="0" result="BackgroundImageFix"/>
<feColorMatrix in="SourceAlpha" type="matrix" values="0 0 0 0 0 0 0 0 0 0 0 0 0 0 0 0 0 0 127 0" result="hardAlpha"/>
<feOffset/>
<feGaussianBlur stdDeviation="2"/>
<feComposite in2="hardAlpha" operator="out"/>
<feColorMatrix type="matrix" values="0 0 0 0 0 0 0 0 0 0 0 0 0 0 0 0 0 0 0.25 0"/>
<feBlend mode="normal" in2="BackgroundImageFix" result="effect1_dropShadow_0_1"/>
<feBlend mode="normal" in="SourceGraphic" in2="effect1_dropShadow_0_1" result="shape"/>
</filter>
<filter id="filter6_d_0_1" x="129" y="499" width="49" height="49" filterUnits="userSpaceOnUse" color-interpolation-filters="sRGB">
<feFlood flood-opacity="0" result="BackgroundImageFix"/>
<feColorMatrix in="SourceAlpha" type="matrix" values="0 0 0 0 0 0 0 0 0 0 0 0 0 0 0 0 0 0 127 0" result="hardAlpha"/>
<feOffset/>
<feGaussianBlur stdDeviation="2"/>
<feComposite in2="hardAlpha" operator="out"/>
<feColorMatrix type="matrix" values="0 0 0 0 0 0 0 0 0 0 0 0 0 0 0 0 0 0 0.25 0"/>
<feBlend mode="normal" in2="BackgroundImageFix" result="effect1_dropShadow_0_1"/>
<feBlend mode="normal" in="SourceGraphic" in2="effect1_dropShadow_0_1" result="shape"/>
</filter>
<filter id="filter7_d_0_1" x="150" y="499" width="49" height="49" filterUnits="userSpaceOnUse" color-interpolation-filters="sRGB">
<feFlood flood-opacity="0" result="BackgroundImageFix"/>
<feColorMatrix in="SourceAlpha" type="matrix" values="0 0 0 0 0 0 0 0 0 0 0 0 0 0 0 0 0 0 127 0" result="hardAlpha"/>
<feOffset/>
<feGaussianBlur stdDeviation="2"/>
<feComposite in2="hardAlpha" operator="out"/>
<feColorMatrix type="matrix" values="0 0 0 0 0 0 0 0 0 0 0 0 0 0 0 0 0 0 0.25 0"/>
<feBlend mode="normal" in2="BackgroundImageFix" result="effect1_dropShadow_0_1"/>
<feBlend mode="normal" in="SourceGraphic" in2="effect1_dropShadow_0_1" result="shape"/>
</filter>
<filter id="filter8_d_0_1" x="249" y="499" width="49" height="49" filterUnits="userSpaceOnUse" color-interpolation-filters="sRGB">
<feFlood flood-opacity="0" result="BackgroundImageFix"/>
<feColorMatrix in="SourceAlpha" type="matrix" values="0 0 0 0 0 0 0 0 0 0 0 0 0 0 0 0 0 0 127 0" result="hardAlpha"/>
<feOffset/>
<feGaussianBlur stdDeviation="2"/>
<feComposite in2="hardAlpha" operator="out"/>
<feColorMatrix type="matrix" values="0 0 0 0 0 0 0 0 0 0 0 0 0 0 0 0 0 0 0.25 0"/>
<feBlend mode="normal" in2="BackgroundImageFix" result="effect1_dropShadow_0_1"/>
<feBlend mode="normal" in="SourceGraphic" in2="effect1_dropShadow_0_1" result="shape"/>
</filter>
<filter id="filter9_d_0_1" x="270" y="499" width="49" height="49" filterUnits="userSpaceOnUse" color-interpolation-filters="sRGB">
<feFlood flood-opacity="0" result="BackgroundImageFix"/>
<feColorMatrix in="SourceAlpha" type="matrix" values="0 0 0 0 0 0 0 0 0 0 0 0 0 0 0 0 0 0 127 0" result="hardAlpha"/>
<feOffset/>
<feGaussianBlur stdDeviation="2"/>
<feComposite in2="hardAlpha" operator="out"/>
<feColorMatrix type="matrix" values="0 0 0 0 0 0 0 0 0 0 0 0 0 0 0 0 0 0 0.25 0"/>
<feBlend mode="normal" in2="BackgroundImageFix" result="effect1_dropShadow_0_1"/>
<feBlend mode="normal" in="SourceGraphic" in2="effect1_dropShadow_0_1" result="shape"/>
</filter>
<filter id="filter10_d_0_1" x="118.5" y="619" width="49" height="49" filterUnits="userSpaceOnUse" color-interpolation-filters="sRGB">
<feFlood flood-opacity="0" result="BackgroundImageFix"/>
<feColorMatrix in="SourceAlpha" type="matrix" values="0 0 0 0 0 0 0 0 0 0 0 0 0 0 0 0 0 0 127 0" result="hardAlpha"/>
<feOffset/>
<feGaussianBlur stdDeviation="2"/>
<feComposite in2="hardAlpha" operator="out"/>
<feColorMatrix type="matrix" values="0 0 0 0 0 0 0 0 0 0 0 0 0 0 0 0 0 0 0.25 0"/>
<feBlend mode="normal" in2="BackgroundImageFix" result="effect1_dropShadow_0_1"/>
<feBlend mode="normal" in="SourceGraphic" in2="effect1_dropShadow_0_1" result="shape"/>
</filter>
<filter id="filter11_d_0_1" x="139.5" y="619" width="49" height="49" filterUnits="userSpaceOnUse" color-interpolation-filters="sRGB">
<feFlood flood-opacity="0" result="BackgroundImageFix"/>
<feColorMatrix in="SourceAlpha" type="matrix" values="0 0 0 0 0 0 0 0 0 0 0 0 0 0 0 0 0 0 127 0" result="hardAlpha"/>
<feOffset/>
<feGaussianBlur stdDeviation="2"/>
<feComposite in2="hardAlpha" operator="out"/>
<feColorMatrix type="matrix" values="0 0 0 0 0 0 0 0 0 0 0 0 0 0 0 0 0 0 0.25 0"/>
<feBlend mode="normal" in2="BackgroundImageFix" result="effect1_dropShadow_0_1"/>
<feBlend mode="normal" in="SourceGraphic" in2="effect1_dropShadow_0_1" result="shape"/>
</filter>
<filter id="filter12_d_0_1" x="160.5" y="619" width="49" height="49" filterUnits="userSpaceOnUse" color-interpolation-filters="sRGB">
<feFlood flood-opacity="0" result="BackgroundImageFix"/>
<feColorMatrix in="SourceAlpha" type="matrix" values="0 0 0 0 0 0 0 0 0 0 0 0 0 0 0 0 0 0 127 0" result="hardAlpha"/>
<feOffset/>
<feGaussianBlur stdDeviation="2"/>
<feComposite in2="hardAlpha" operator="out"/>
<feColorMatrix type="matrix" values="0 0 0 0 0 0 0 0 0 0 0 0 0 0 0 0 0 0 0.25 0"/>
<feBlend mode="normal" in2="BackgroundImageFix" result="effect1_dropShadow_0_1"/>
<feBlend mode="normal" in="SourceGraphic" in2="effect1_dropShadow_0_1" result="shape"/>
</filter>
<filter id="filter13_d_0_1" x="238.5" y="619" width="49" height="49" filterUnits="userSpaceOnUse" color-interpolation-filters="sRGB">
<feFlood flood-opacity="0" result="BackgroundImageFix"/>
<feColorMatrix in="SourceAlpha" type="matrix" values="0 0 0 0 0 0 0 0 0 0 0 0 0 0 0 0 0 0 127 0" result="hardAlpha"/>
<feOffset/>
<feGaussianBlur stdDeviation="2"/>
<feComposite in2="hardAlpha" operator="out"/>
<feColorMatrix type="matrix" values="0 0 0 0 0 0 0 0 0 0 0 0 0 0 0 0 0 0 0.25 0"/>
<feBlend mode="normal" in2="BackgroundImageFix" result="effect1_dropShadow_0_1"/>
<feBlend mode="normal" in="SourceGraphic" in2="effect1_dropShadow_0_1" result="shape"/>
</filter>
<filter id="filter14_d_0_1" x="259.5" y="619" width="49" height="49" filterUnits="userSpaceOnUse" color-interpolation-filters="sRGB">
<feFlood flood-opacity="0" result="BackgroundImageFix"/>
<feColorMatrix in="SourceAlpha" type="matrix" values="0 0 0 0 0 0 0 0 0 0 0 0 0 0 0 0 0 0 127 0" result="hardAlpha"/>
<feOffset/>
<feGaussianBlur stdDeviation="2"/>
<feComposite in2="hardAlpha" operator="out"/>
<feColorMatrix type="matrix" values="0 0 0 0 0 0 0 0 0 0 0 0 0 0 0 0 0 0 0.25 0"/>
<feBlend mode="normal" in2="BackgroundImageFix" result="effect1_dropShadow_0_1"/>
<feBlend mode="normal" in="SourceGraphic" in2="effect1_dropShadow_0_1" result="shape"/>
</filter>
<filter id="filter15_d_0_1" x="280.5" y="619" width="49" height="49" filterUnits="userSpaceOnUse" color-interpolation-filters="sRGB">
<feFlood flood-opacity="0" result="BackgroundImageFix"/>
<feColorMatrix in="SourceAlpha" type="matrix" values="0 0 0 0 0 0 0 0 0 0 0 0 0 0 0 0 0 0 127 0" result="hardAlpha"/>
<feOffset/>
<feGaussianBlur stdDeviation="2"/>
<feComposite in2="hardAlpha" operator="out"/>
<feColorMatrix type="matrix" values="0 0 0 0 0 0 0 0 0 0 0 0 0 0 0 0 0 0 0.25 0"/>
<feBlend mode="normal" in2="BackgroundImageFix" result="effect1_dropShadow_0_1"/>
<feBlend mode="normal" in="SourceGraphic" in2="effect1_dropShadow_0_1" result="shape"/>
</filter>
</defs>
</svg>
