<svg width="23" height="40" viewBox="0 0 23 40" fill="none" xmlns="http://www.w3.org/2000/svg">
<path d="M6.6667 40C6.54766 40 6.4249 39.9796 6.30586 39.9355C5.88178 39.7758 5.63998 39.3614 5.7367 38.9504L9.30417 23.4777H0.952806C0.599408 23.4777 0.275771 23.3011 0.112092 23.0158C-0.0553083 22.7304 -0.0329884 22.3839 0.16417 22.119L16.3535 0.379167C16.6139 0.0360856 17.0975 -0.092995 17.5142 0.0700537C17.9345 0.233102 18.1689 0.640724 18.0759 1.04835L14.5047 16.521H21.9037C22.2497 16.521 22.5733 16.6942 22.7407 16.9728C22.9081 17.2513 22.8933 17.591 22.7073 17.8593L7.47021 39.5992C7.28794 39.8573 6.9829 40 6.6667 40Z" fill="#000000"/>
</svg>
