<svg xmlns="http://www.w3.org/2000/svg" xmlns:xlink="http://www.w3.org/1999/xlink" viewBox="0,0,255.99544,255.99544" width="24px" height="24px"><g fill="#ffffff" fill-rule="nonzero" stroke="none" stroke-width="1" stroke-linecap="butt" stroke-linejoin="miter" stroke-miterlimit="10" stroke-dasharray="" stroke-dashoffset="0" font-family="none" font-weight="none" font-size="none" text-anchor="none" style="mix-blend-mode: normal"><g transform="scale(10.66667,10.66667)"><path d="M20,11h-7v-7c0,-0.552 -0.448,-1 -1,-1c-0.552,0 -1,0.448 -1,1v7h-7c-0.552,0 -1,0.448 -1,1c0,0.552 0.448,1 1,1h7v7c0,0.552 0.448,1 1,1c0.552,0 1,-0.448 1,-1v-7h7c0.552,0 1,-0.448 1,-1c0,-0.552 -0.448,-1 -1,-1z"></path></g></g></svg>