<svg xmlns="http://www.w3.org/2000/svg"  viewBox="0 0 24 24" width="24px" height="24px"><path d="M 10 2 C 8.6983906 2 7.5978609 2.8387486 7.1835938 4 L 3 4 A 1.0001 1.0001 0 1 0 3 6 L 7.1835938 6 C 7.5978609 7.1612514 8.6983906 8 10 8 C 11.654 8 13 6.654 13 5 C 13 3.346 11.654 2 10 2 z M 16 4 A 1.0001 1.0001 0 1 0 16 6 L 21 6 A 1.0001 1.0001 0 1 0 21 4 L 16 4 z M 15 9 C 13.698391 9 12.597861 9.8387486 12.183594 11 L 3 11 A 1.0001 1.0001 0 1 0 3 13 L 12.183594 13 C 12.597861 14.161251 13.698391 15 15 15 C 16.654 15 18 13.654 18 12 C 18 10.346 16.654 9 15 9 z M 21 11 A 1.0001 1.0001 0 1 0 21 13 A 1.0001 1.0001 0 1 0 21 11 z M 7 16 C 5.6983906 16 4.5978609 16.838749 4.1835938 18 L 3 18 A 1.0001 1.0001 0 1 0 3 20 L 4.1835938 20 C 4.5978609 21.161251 5.6983906 22 7 22 C 8.654 22 10 20.654 10 19 C 10 17.346 8.654 16 7 16 z M 13 18 A 1.0001 1.0001 0 1 0 13 20 L 21 20 A 1.0001 1.0001 0 1 0 21 18 L 13 18 z"/></svg>