<svg width="120" height="120" viewBox="0 0 120 120" fill="none" xmlns="http://www.w3.org/2000/svg">
<path d="M60.0004 75.8565C50.9083 75.8565 43.5108 68.5184 43.5108 59.4992C43.5108 59.0337 43.5349 58.5736 43.5752 58.1188L57.3596 58.9726L51.3938 63.0633C51.3133 63.1191 51.2597 63.2122 51.2597 63.316C51.2597 63.4862 51.3991 63.6272 51.5707 63.6272H75.9595C74.1094 70.6541 67.6552 75.8565 60.0004 75.8565ZM60.0005 43.1415C69.0954 43.1415 76.49 50.4796 76.49 59.4988C76.49 59.9616 76.466 60.4192 76.4284 60.8713H76.4204L62.6359 60.0015L68.6178 55.9347C68.701 55.8789 68.7519 55.7858 68.7519 55.682C68.7519 55.5092 68.6125 55.3708 68.4409 55.3708H44.0439C45.8913 48.3439 52.3457 43.1415 60.0005 43.1415ZM83.6407 61.326L78.5838 61.0068C78.624 60.5095 78.6509 60.0067 78.6509 59.4988C78.6509 49.2988 70.2849 41 59.9998 41C51.1465 41 43.7217 47.1521 41.8238 55.3705H37.7026C37.4694 55.3705 37.2629 55.4795 37.1315 55.6497L36.0778 57.094C36.0295 57.1551 36 57.2323 36 57.3148C36 57.5116 36.1609 57.6712 36.362 57.6712L40.8558 57.9478L41.4189 57.985C41.3787 58.4851 41.3519 58.9878 41.3519 59.4985C41.3519 69.6984 49.7178 78 60.0002 78C68.8535 78 76.2811 71.8452 78.1762 63.6268H82.3C82.5333 63.6268 82.7398 63.5178 82.8712 63.3475L83.9249 61.9033C83.9732 61.8421 84 61.765 84 61.6825C84 61.4857 83.8391 61.326 83.6407 61.326Z" fill="white"/>
</svg>
