<svg width="120" height="120" viewBox="0 0 120 120" fill="none" xmlns="http://www.w3.org/2000/svg">
<path d="M52.8974 44.1121C60.7922 43.8298 68.695 44.1101 76.576 44.6239C77.4058 44.697 78.2464 44.6909 79.0633 44.8682C79.5053 44.9763 79.9828 45.1476 80.2413 45.5551C80.4771 45.9987 80.482 46.5164 80.5432 47.0051C80.7307 49.4054 80.7859 51.8157 80.9625 54.216C80.6211 54.258 80.2798 54.205 79.9384 54.1939C73.8599 53.8745 67.7765 53.6091 61.6881 53.6011C58.5349 53.6102 55.3777 53.5791 52.2275 53.7343C51.4638 53.8485 50.5996 54.1078 50.1586 54.7988C52.5422 55.2284 54.9209 55.692 57.3036 56.1296C65.2004 57.6297 73.1032 59.0967 81 60.5947C80.9931 62.1148 80.9961 63.6349 80.999 65.155C76.5583 64.4089 72.1254 63.6038 67.6877 62.8338C58.1402 61.1635 48.5958 59.4702 39.0454 57.8159C39.0641 56.1286 39.1352 54.4423 39.1697 52.754C39.2299 51.4171 39.1924 50.0623 39.4903 48.7495C39.6906 47.8232 40.0616 46.892 40.7532 46.23C41.947 45.0304 43.6736 44.6929 45.2808 44.5237C47.8134 44.2854 50.3569 44.2073 52.8974 44.1121ZM39 60.0359C52.6784 62.5975 66.3518 65.202 80.0282 67.7785C80.3271 67.8526 80.6468 67.8587 80.9339 67.9698L80.9684 68.0499C80.8934 70.327 80.85 72.6062 80.7691 74.8833C80.7168 76.2882 80.5708 77.7582 79.8585 78.9959C79.0949 80.2756 77.6722 80.9836 76.2643 81.251C74.1894 81.6465 72.0702 81.6726 69.9687 81.7897C60.9264 82.2063 51.8654 81.976 42.8379 81.3451C42.1167 81.294 41.3827 81.281 40.6822 81.0777C40.3191 80.9616 39.9442 80.7743 39.739 80.4339C39.519 79.9873 39.5051 79.4776 39.4509 78.9909C39.2575 76.3343 39.1549 73.6726 39.0178 71.013C43.6746 71.3134 48.3393 71.4816 53.0049 71.5868C57.5098 71.6609 62.0147 71.6599 66.5195 71.7049C67.4913 71.746 68.5421 71.5577 69.2791 70.8648C69.3866 70.7396 69.5612 70.6234 69.5435 70.4362C67.513 70.1268 65.4944 69.7422 63.4679 69.4038C55.3146 67.9888 47.1573 66.5869 39.0049 65.164C38.9951 63.4546 39.0069 61.7453 39 60.0359Z" fill="white"/>
</svg>
