<svg width="120" height="120" viewBox="0 0 120 120" fill="none" xmlns="http://www.w3.org/2000/svg">
<circle cx="32.5" cy="34.5" r="17.5" fill="#37DFA3"/>
<path d="M25.4946 44.7481L25.5464 44.7826L25.6021 44.8104C25.6037 44.8112 25.6064 44.8127 25.6102 44.8146C25.6665 44.8446 25.9581 45 26.3014 45C26.3017 45 26.3025 45 26.3036 45C26.3267 45.0007 26.5193 45.006 26.7227 44.9382C26.8935 44.8812 27.0246 44.7936 27.1205 44.7132L32.5207 41.2395L37.9307 44.7196C38.2278 44.9562 38.5693 45.0087 38.8234 44.9928C39.0987 44.9756 39.3506 44.8788 39.5468 44.7481L39.5699 44.7327L39.5921 44.716C39.8204 44.5448 40.0061 44.3094 40.1036 44.0169C40.1996 43.7292 40.1896 43.4483 40.1304 43.2112L40.1283 43.2029L40.1261 43.1946L38.4454 36.931L43.4878 32.8441L43.5284 32.8113L43.5652 32.7744C43.95 32.3896 44.078 31.857 43.9544 31.3625C43.8011 30.7494 43.2426 30.3274 42.6414 30.3114L36.1634 29.9685L33.8375 23.9067C33.7262 23.5986 33.5116 23.3849 33.3262 23.2566C33.1253 23.1175 32.8465 23 32.5207 23C32.1921 23 31.9221 23.1195 31.7384 23.2376C31.5521 23.3573 31.3888 23.5168 31.2685 23.6974L31.2067 23.79L31.1669 23.8939L28.836 29.9685L22.358 30.3114C21.7568 30.3274 21.1983 30.7494 21.045 31.3625C20.952 31.7344 20.9668 32.488 21.6148 32.8937L26.5961 36.931L24.9154 43.1946L24.9131 43.2029L24.9111 43.2112C24.8308 43.5321 24.8792 43.8363 24.9659 44.0675C25.0503 44.2927 25.2137 44.5608 25.4946 44.7481Z" fill="white" stroke="black" stroke-width="2"/>
</svg>