<svg width="120" height="120" viewBox="0 0 120 120" fill="none" xmlns="http://www.w3.org/2000/svg">
<g filter="url(#filter0_d_56_117)">
<circle cx="39" cy="59.5" r="20.5" fill="#37DFA3"/>
<path d="M34.9115 72.6962L34.916 72.6979C35.1053 72.7681 35.299 72.8 35.4858 72.8C35.9711 72.8 36.4785 72.5811 36.7968 72.1303L36.7988 72.1275L46.1696 58.7575L46.1696 58.7575L46.1726 58.7532C46.5047 58.274 46.5396 57.6409 46.2284 57.1231C45.9285 56.6241 45.3878 56.3604 44.8565 56.3604H41.5632L43.4768 48.0696L43.4774 48.0672C43.6575 47.2774 43.1849 46.57 42.52 46.3113C41.8692 46.0574 41.0907 46.2436 40.6466 46.8286L40.6466 46.8286L40.6411 46.8359L30.6847 60.2059L30.6844 60.2062C30.3294 60.6834 30.282 61.3283 30.5897 61.8565C30.8867 62.3706 31.4343 62.6388 31.9717 62.6388H35.851L33.9404 70.9254C33.9402 70.9263 33.94 70.9272 33.9398 70.9281C33.7528 71.7289 34.241 72.4438 34.9115 72.6962Z" fill="white" stroke="black" stroke-width="2"/>
</g>
<g filter="url(#filter1_d_56_117)">
<circle cx="60" cy="59.5" r="20.5" fill="#37DFA3"/>
<path d="M55.9115 72.6962L55.916 72.6979C56.1053 72.7681 56.299 72.8 56.4858 72.8C56.9711 72.8 57.4785 72.5811 57.7968 72.1303L57.7988 72.1275L67.1696 58.7575L67.1696 58.7575L67.1726 58.7532C67.5047 58.274 67.5396 57.6409 67.2284 57.1231C66.9285 56.6241 66.3878 56.3604 65.8565 56.3604H62.5632L64.4768 48.0696L64.4774 48.0672C64.6575 47.2774 64.1849 46.57 63.52 46.3113C62.8692 46.0574 62.0907 46.2436 61.6466 46.8286L61.6466 46.8286L61.6411 46.8359L51.6847 60.2059L51.6844 60.2062C51.3294 60.6834 51.282 61.3283 51.5897 61.8565C51.8867 62.3706 52.4343 62.6388 52.9717 62.6388H56.851L54.9404 70.9254C54.9402 70.9263 54.94 70.9272 54.9398 70.9281C54.7528 71.7289 55.241 72.4438 55.9115 72.6962Z" fill="white" stroke="black" stroke-width="2"/>
</g>
<g filter="url(#filter2_d_56_117)">
<circle cx="81" cy="59.5" r="20.5" fill="#37DFA3"/>
<path d="M76.9115 72.6962L76.916 72.6979C77.1053 72.7681 77.299 72.8 77.4858 72.8C77.9711 72.8 78.4785 72.5811 78.7968 72.1303L78.7988 72.1275L88.1696 58.7575L88.1696 58.7575L88.1726 58.7532C88.5047 58.274 88.5396 57.6409 88.2284 57.1231C87.9285 56.6241 87.3878 56.3604 86.8565 56.3604H83.5632L85.4768 48.0696L85.4774 48.0672C85.6575 47.2774 85.1849 46.57 84.52 46.3113C83.8692 46.0574 83.0907 46.2436 82.6466 46.8286L82.6466 46.8286L82.6411 46.8359L72.6847 60.2059L72.6844 60.2062C72.3294 60.6834 72.282 61.3283 72.5897 61.8565C72.8867 62.3706 73.4343 62.6388 73.9717 62.6388H77.851L75.9404 70.9254C75.9402 70.9263 75.94 70.9272 75.9398 70.9281C75.7528 71.7289 76.241 72.4438 76.9115 72.6962Z" fill="white" stroke="black" stroke-width="2"/>
</g>
<defs>
<filter id="filter0_d_56_117" x="14.5" y="35" width="49" height="49" filterUnits="userSpaceOnUse" color-interpolation-filters="sRGB">
<feFlood flood-opacity="0" result="BackgroundImageFix"/>
<feColorMatrix in="SourceAlpha" type="matrix" values="0 0 0 0 0 0 0 0 0 0 0 0 0 0 0 0 0 0 127 0" result="hardAlpha"/>
<feOffset/>
<feGaussianBlur stdDeviation="2"/>
<feComposite in2="hardAlpha" operator="out"/>
<feColorMatrix type="matrix" values="0 0 0 0 0 0 0 0 0 0 0 0 0 0 0 0 0 0 0.25 0"/>
<feBlend mode="normal" in2="BackgroundImageFix" result="effect1_dropShadow_56_117"/>
<feBlend mode="normal" in="SourceGraphic" in2="effect1_dropShadow_56_117" result="shape"/>
</filter>
<filter id="filter1_d_56_117" x="35.5" y="35" width="49" height="49" filterUnits="userSpaceOnUse" color-interpolation-filters="sRGB">
<feFlood flood-opacity="0" result="BackgroundImageFix"/>
<feColorMatrix in="SourceAlpha" type="matrix" values="0 0 0 0 0 0 0 0 0 0 0 0 0 0 0 0 0 0 127 0" result="hardAlpha"/>
<feOffset/>
<feGaussianBlur stdDeviation="2"/>
<feComposite in2="hardAlpha" operator="out"/>
<feColorMatrix type="matrix" values="0 0 0 0 0 0 0 0 0 0 0 0 0 0 0 0 0 0 0.25 0"/>
<feBlend mode="normal" in2="BackgroundImageFix" result="effect1_dropShadow_56_117"/>
<feBlend mode="normal" in="SourceGraphic" in2="effect1_dropShadow_56_117" result="shape"/>
</filter>
<filter id="filter2_d_56_117" x="56.5" y="35" width="49" height="49" filterUnits="userSpaceOnUse" color-interpolation-filters="sRGB">
<feFlood flood-opacity="0" result="BackgroundImageFix"/>
<feColorMatrix in="SourceAlpha" type="matrix" values="0 0 0 0 0 0 0 0 0 0 0 0 0 0 0 0 0 0 127 0" result="hardAlpha"/>
<feOffset/>
<feGaussianBlur stdDeviation="2"/>
<feComposite in2="hardAlpha" operator="out"/>
<feColorMatrix type="matrix" values="0 0 0 0 0 0 0 0 0 0 0 0 0 0 0 0 0 0 0.25 0"/>
<feBlend mode="normal" in2="BackgroundImageFix" result="effect1_dropShadow_56_117"/>
<feBlend mode="normal" in="SourceGraphic" in2="effect1_dropShadow_56_117" result="shape"/>
</filter>
</defs>
</svg>
