<svg width="120" height="120" viewBox="0 0 120 120" fill="none" xmlns="http://www.w3.org/2000/svg">
<path d="M55.4169 43.4205L77.9079 20.9457L73.9561 17L51.463 39.4748L55.4169 43.4205ZM69.4583 57.4538L91.9493 34.979L88.0665 31.1023L65.5734 53.5771L69.4583 57.4538Z" fill="#FFC107"/>
<path d="M42.2299 92.1048C39.5405 92.1048 37.6549 91.8815 37.4236 91.8511C31.233 90.4851 27.8332 88.0657 27.1289 84.6213C25.8604 78.4165 34.3465 72.1326 35.3167 71.4364L37.6834 74.7347C35.2843 76.4619 30.5185 80.9496 31.1071 83.8114C31.4522 85.492 33.9406 86.9291 38.1157 87.8546C38.1969 87.8546 53.519 89.6245 58.9606 82.3744C65.4739 73.6995 74.645 72.9594 81 73C81 73 94.8342 72.6441 93 82.3744C91.1658 92.1048 58 120 58 120C58 120 79.5 88.8744 81 82.3744C82.5 75.8744 64.6174 81.6011 62.2061 84.8121C57.5135 91.0656 48.0165 92.1048 42.2299 92.1048Z" fill="#CFD8DC"/>
<path d="M48.1951 33.7531L38.9418 42.9984L40.1982 57.2184L51.6517 68.7471L65.9326 69.971L75.186 60.7257L48.1951 33.7531Z" fill="#90A4AE"/>
<path d="M51.6518 68.7471L40.1982 57.2184L31.1924 68.7187L40.1901 77.7102L51.6518 68.7471ZM85.4746 56.4349L77.1427 64.7628L44.1541 31.7965L52.4839 23.4727L85.4746 56.4349Z" fill="#546E7A"/>
</svg>
