<svg width="120" height="120" viewBox="0 0 120 120" fill="none" xmlns="http://www.w3.org/2000/svg">
<g filter="url(#filter0_d_56_64)">
<circle cx="59.5" cy="59.5" r="20.5" fill="#37DFA3"/>
<path d="M55.4115 72.6962L55.416 72.6979C55.6053 72.7681 55.799 72.8 55.9858 72.8C56.4711 72.8 56.9785 72.5811 57.2968 72.1303L57.2988 72.1275L66.6696 58.7575L66.6696 58.7575L66.6726 58.7532C67.0047 58.274 67.0396 57.6409 66.7284 57.1231C66.4285 56.6241 65.8878 56.3604 65.3565 56.3604H62.0632L63.9768 48.0696L63.9774 48.0672C64.1575 47.2774 63.6849 46.57 63.02 46.3113C62.3692 46.0574 61.5907 46.2436 61.1466 46.8286L61.1466 46.8286L61.1411 46.8359L51.1847 60.2059L51.1844 60.2062C50.8294 60.6834 50.782 61.3283 51.0897 61.8565C51.3867 62.3706 51.9343 62.6388 52.4717 62.6388H56.351L54.4404 70.9254C54.4402 70.9263 54.44 70.9272 54.4398 70.9281C54.2528 71.7289 54.741 72.4438 55.4115 72.6962Z" fill="white" stroke="black" stroke-width="2"/>
</g>
<path d="M55.4115 72.6962L55.416 72.6979C55.6053 72.7681 55.799 72.8 55.9858 72.8C56.4711 72.8 56.9785 72.5811 57.2968 72.1303L57.2988 72.1275L66.6696 58.7575L66.6696 58.7575L66.6726 58.7532C67.0047 58.274 67.0396 57.6409 66.7284 57.1231C66.4285 56.6241 65.8878 56.3604 65.3565 56.3604H62.0632L63.9768 48.0696L63.9774 48.0672C64.1575 47.2774 63.6849 46.57 63.02 46.3113C62.3692 46.0574 61.5907 46.2436 61.1466 46.8286L61.1466 46.8286L61.1411 46.8359L51.1847 60.2059L51.1844 60.2062C50.8294 60.6834 50.782 61.3283 51.0897 61.8565C51.3867 62.3706 51.9343 62.6388 52.4717 62.6388H56.351L54.4404 70.9254C54.4402 70.9263 54.44 70.9272 54.4398 70.9281C54.2528 71.7289 54.741 72.4438 55.4115 72.6962Z" fill="white" stroke="black" stroke-width="2"/>
<defs>
<filter id="filter0_d_56_64" x="35" y="35" width="49" height="49" filterUnits="userSpaceOnUse" color-interpolation-filters="sRGB">
<feFlood flood-opacity="0" result="BackgroundImageFix"/>
<feColorMatrix in="SourceAlpha" type="matrix" values="0 0 0 0 0 0 0 0 0 0 0 0 0 0 0 0 0 0 127 0" result="hardAlpha"/>
<feOffset/>
<feGaussianBlur stdDeviation="2"/>
<feComposite in2="hardAlpha" operator="out"/>
<feColorMatrix type="matrix" values="0 0 0 0 0 0 0 0 0 0 0 0 0 0 0 0 0 0 0.25 0"/>
<feBlend mode="normal" in2="BackgroundImageFix" result="effect1_dropShadow_56_64"/>
<feBlend mode="normal" in="SourceGraphic" in2="effect1_dropShadow_56_64" result="shape"/>
</filter>
</defs>
</svg>
