<svg width="120" height="120" viewBox="0 0 120 120" fill="none" xmlns="http://www.w3.org/2000/svg">
<circle cx="59.5" cy="59.5" r="58.5" fill="#429DF1"/>
<path d="M35.8333 78.72V79.5607C34.5282 79.7236 33.5 80.8309 33.5 82.2V86.84C33.5 88.3238 34.7076 89.5 36.1667 89.5H74.6667C76.1341 89.5 77.3333 88.32 77.3333 86.84V82.2C77.3333 80.8338 76.3115 79.7232 75 79.5605V78.72V64.2457C75.3171 64.7323 75.5 65.3173 75.5 65.96V71.76C75.5 76.4979 79.2559 80.22 84 80.22C88.7441 80.22 92.5 76.4979 92.5 71.76V52.5112C92.5 50.8047 91.7973 49.05 90.5628 47.8226L77.7295 35.0626L76.6719 34.011L75.6143 35.0626L74.9859 35.6873C74.7446 31.6306 71.4307 28.5 67.3021 28.5H43.5312C39.2428 28.5 35.8333 31.8777 35.8333 36.1625V78.72ZM75 57.9275V39.9084L80.1667 45.0175V53.8888C80.1667 55.5953 80.8693 57.35 82.1038 58.5774L82.1074 58.581L87.1667 63.578V71.76C87.1667 73.5244 85.7956 74.9 84 74.9C82.2044 74.9 80.8333 73.5244 80.8333 71.76V65.96C80.8333 62.2229 78.4885 59.1202 75.1519 57.9794L75 57.9275ZM45.3906 37.3H65.4427C65.7891 37.3 66.1667 37.6878 66.1667 38.0112V49.8287C66.1667 50.1522 65.7891 50.54 65.4427 50.54H45.3906C45.0443 50.54 44.6667 50.1522 44.6667 49.8287V38.0112C44.6667 37.6878 45.0443 37.3 45.3906 37.3Z" fill="white" stroke="black" stroke-width="3"/>
</svg>
