<svg width="120" height="120" viewBox="0 0 120 120" fill="none" xmlns="http://www.w3.org/2000/svg">
<path d="M43.5 42C38.8174 42 35 45.8174 35 50.5C35 55.1826 38.8174 59 43.5 59C45.5958 59 47.5155 58.2315 49 56.9668C50.4845 58.2315 52.4042 59 54.5 59C56.5958 59 58.5155 58.2315 60 56.9668C61.4845 58.2315 63.4042 59 65.5 59C67.5958 59 69.5155 58.2315 71 56.9668C72.4845 58.2315 74.4042 59 76.5 59C81.1826 59 85 55.1826 85 50.5C85 45.8174 81.1826 42 76.5 42C74.4042 42 72.4845 42.7685 71 44.0332C69.5155 42.7685 67.5958 42 65.5 42C63.4042 42 61.4845 42.7685 60 44.0332C58.5155 42.7685 56.5958 42 54.5 42C52.4042 42 50.4845 42.7685 49 44.0332C47.5155 42.7685 45.5958 42 43.5 42ZM43.5 44C45.0812 44 46.526 44.5587 47.6504 45.4902C46.6179 46.8974 46 48.6271 46 50.5C46 52.3729 46.6179 54.1026 47.6504 55.5098C46.526 56.4413 45.0812 57 43.5 57C39.8983 57 37 54.1017 37 50.5C37 46.8983 39.8983 44 43.5 44ZM54.5 44C56.0812 44 57.526 44.5587 58.6504 45.4902C57.6179 46.8974 57 48.6271 57 50.5C57 52.3729 57.6179 54.1026 58.6504 55.5098C57.526 56.4413 56.0812 57 54.5 57C52.9188 57 51.474 56.4413 50.3496 55.5098C51.3821 54.1026 52 52.3729 52 50.5C52 48.6271 51.3821 46.8974 50.3496 45.4902C51.474 44.5587 52.9188 44 54.5 44ZM65.5 44C67.0812 44 68.526 44.5587 69.6504 45.4902C68.6179 46.8974 68 48.6271 68 50.5C68 52.3729 68.6179 54.1026 69.6504 55.5098C68.526 56.4413 67.0812 57 65.5 57C63.9188 57 62.474 56.4413 61.3496 55.5098C62.3821 54.1026 63 52.3729 63 50.5C63 48.6271 62.3821 46.8974 61.3496 45.4902C62.474 44.5587 63.9188 44 65.5 44ZM76.5 44C80.1017 44 83 46.8983 83 50.5C83 54.1017 80.1017 57 76.5 57C74.9188 57 73.474 56.4413 72.3496 55.5098C73.3821 54.1026 74 52.3729 74 50.5C74 48.6271 73.3821 46.8974 72.3496 45.4902C73.474 44.5587 74.9188 44 76.5 44ZM49 47.0371C49.6305 48.0393 50 49.2234 50 50.5C50 51.7766 49.6305 52.9607 49 53.9629C48.3695 52.9607 48 51.7766 48 50.5C48 49.2234 48.3695 48.0393 49 47.0371ZM60 47.0371C60.6305 48.0393 61 49.2234 61 50.5C61 51.7766 60.6305 52.9607 60 53.9629C59.3695 52.9607 59 51.7766 59 50.5C59 49.2234 59.3695 48.0393 60 47.0371ZM71 47.0371C71.6305 48.0393 72 49.2234 72 50.5C72 51.7766 71.6305 52.9607 71 53.9629C70.3695 52.9607 70 51.7766 70 50.5C70 49.2234 70.3695 48.0393 71 47.0371Z" fill="white"/>
<path d="M75.2234 72.336C73.8794 72.336 72.6394 72.112 71.5034 71.664C70.3834 71.216 69.3994 70.592 68.5514 69.792C67.7194 68.992 67.0714 68.048 66.6074 66.96C66.1434 65.872 65.9114 64.696 65.9114 63.432C65.9114 62.152 66.1354 60.976 66.5834 59.904C67.0474 58.832 67.6954 57.896 68.5274 57.096C69.3594 56.296 70.3354 55.68 71.4554 55.248C72.5914 54.8 73.8314 54.576 75.1754 54.576C76.5194 54.576 77.7514 54.8 78.8714 55.248C80.0074 55.68 80.9914 56.296 81.8234 57.096C82.6554 57.896 83.2954 58.84 83.7434 59.928C84.2074 61 84.4394 62.176 84.4394 63.456C84.4394 64.72 84.2074 65.896 83.7434 66.984C83.2954 68.056 82.6554 69 81.8234 69.816C80.9914 70.616 80.0154 71.24 78.8954 71.688C77.7754 72.12 76.5514 72.336 75.2234 72.336ZM82.6394 73.56L74.3594 65.28L76.9514 62.688L85.2314 70.968L82.6394 73.56ZM75.1754 68.112C76.0714 68.112 76.8474 67.92 77.5034 67.536C78.1594 67.152 78.6634 66.608 79.0154 65.904C79.3674 65.2 79.5434 64.376 79.5434 63.432C79.5434 62.728 79.4394 62.096 79.2314 61.536C79.0394 60.96 78.7514 60.472 78.3674 60.072C77.9834 59.656 77.5194 59.344 76.9754 59.136C76.4474 58.912 75.8474 58.8 75.1754 58.8C74.2794 58.8 73.5034 58.992 72.8474 59.376C72.1914 59.744 71.6874 60.28 71.3354 60.984C70.9834 61.672 70.8074 62.488 70.8074 63.432C70.8074 64.152 70.9034 64.8 71.0954 65.376C71.3034 65.952 71.5994 66.448 71.9834 66.864C72.3674 67.264 72.8234 67.576 73.3514 67.8C73.8954 68.008 74.5034 68.112 75.1754 68.112Z" fill="white"/>
<path d="M71.5034 71.664L70.7606 73.521L70.7696 73.5245L71.5034 71.664ZM68.5514 69.792L67.1652 71.2337L67.172 71.2403L67.1789 71.2468L68.5514 69.792ZM66.6074 66.96L64.7677 67.7446L64.7677 67.7446L66.6074 66.96ZM66.5834 59.904L64.7479 59.1096L64.7429 59.1212L64.738 59.1328L66.5834 59.904ZM68.5274 57.096L67.1412 55.6543L67.1412 55.6543L68.5274 57.096ZM71.4554 55.248L72.1751 57.114L72.1821 57.1113L72.1891 57.1085L71.4554 55.248ZM78.8714 55.248L78.1286 57.105L78.1445 57.1113L78.1605 57.1174L78.8714 55.248ZM81.8234 57.096L83.2096 55.6543L83.2096 55.6543L81.8234 57.096ZM83.7434 59.928L81.894 60.6895L81.9008 60.706L81.9079 60.7224L83.7434 59.928ZM83.7434 66.984L81.9037 66.1994L81.9008 66.2061L81.898 66.2128L83.7434 66.984ZM81.8234 69.816L83.2096 71.2577L83.2167 71.2508L83.2238 71.2439L81.8234 69.816ZM78.8954 71.688L79.6151 73.554L79.6267 73.5495L79.6382 73.545L78.8954 71.688ZM82.6394 73.56L81.2252 74.9742L82.6394 76.3884L84.0536 74.9742L82.6394 73.56ZM74.3594 65.28L72.9452 63.8658L71.5309 65.28L72.9452 66.6942L74.3594 65.28ZM76.9514 62.688L78.3656 61.2738L76.9514 59.8596L75.5372 61.2738L76.9514 62.688ZM85.2314 70.968L86.6456 72.3822L88.0598 70.968L86.6456 69.5538L85.2314 70.968ZM79.0154 65.904L77.2265 65.0096L77.2265 65.0096L79.0154 65.904ZM79.2314 61.536L77.334 62.1685L77.3447 62.2006L77.3565 62.2324L79.2314 61.536ZM78.3674 60.072L76.8978 61.4286L76.911 61.4429L76.9246 61.4571L78.3674 60.072ZM76.9754 59.136L76.1943 60.9772L76.2274 60.9912L76.2611 61.0041L76.9754 59.136ZM72.8474 59.376L73.8259 61.1203L73.8419 61.1113L73.8577 61.102L72.8474 59.376ZM71.3354 60.984L73.1159 61.895L73.1201 61.8867L73.1242 61.8784L71.3354 60.984ZM71.0954 65.376L69.198 66.0085L69.2058 66.032L69.2143 66.0553L71.0954 65.376ZM71.9834 66.864L70.5138 68.2206L70.527 68.2349L70.5406 68.2491L71.9834 66.864ZM73.3514 67.8L72.5703 69.6412L72.6034 69.6552L72.6371 69.6681L73.3514 67.8ZM75.2234 70.336C74.1052 70.336 73.117 70.1505 72.2371 69.8035L70.7696 73.5245C72.1617 74.0735 73.6535 74.336 75.2234 74.336V70.336ZM72.2462 69.807C71.3512 69.4491 70.5827 68.9588 69.9238 68.3372L67.1789 71.2468C68.216 72.2252 69.4156 72.9829 70.7606 73.521L72.2462 69.807ZM69.9376 68.3503C69.3042 67.7413 68.8083 67.0224 68.4471 66.1754L64.7677 67.7446C65.3345 69.0736 66.1345 70.2427 67.1652 71.2337L69.9376 68.3503ZM68.4471 66.1754C68.096 65.3522 67.9114 64.4451 67.9114 63.432H63.9114C63.9114 64.9469 64.1908 66.3918 64.7677 67.7446L68.4471 66.1754ZM67.9114 63.432C67.9114 62.3897 68.0927 61.4791 68.4287 60.6752L64.738 59.1328C64.178 60.4729 63.9114 61.9143 63.9114 63.432H67.9114ZM68.4188 60.6984C68.7788 59.8668 69.2751 59.1516 69.9136 58.5377L67.1412 55.6543C66.1156 56.6404 65.316 57.7972 64.7479 59.1096L68.4188 60.6984ZM69.9136 58.5377C70.5462 57.9294 71.2931 57.4542 72.1751 57.114L70.7356 53.382C69.3776 53.9058 68.1726 54.6626 67.1412 55.6543L69.9136 58.5377ZM72.1891 57.1085C73.069 56.7615 74.0572 56.576 75.1754 56.576V52.576C73.6055 52.576 72.1137 52.8385 70.7216 53.3875L72.1891 57.1085ZM75.1754 56.576C76.2939 56.576 77.2703 56.7617 78.1286 57.105L79.6142 53.391C78.2324 52.8383 76.7448 52.576 75.1754 52.576V56.576ZM78.1605 57.1174C79.0584 57.4589 79.8094 57.934 80.4372 58.5377L83.2096 55.6543C82.1734 54.658 80.9563 53.9011 79.5823 53.3786L78.1605 57.1174ZM80.4372 58.5377C81.0654 59.1417 81.5495 59.8528 81.894 60.6895L85.5927 59.1665C85.0413 57.8272 84.2454 56.6503 83.2096 55.6543L80.4372 58.5377ZM81.9079 60.7224C82.2534 61.5205 82.4394 62.4229 82.4394 63.456H86.4394C86.4394 61.9291 86.1614 60.4795 85.5788 59.1336L81.9079 60.7224ZM82.4394 63.456C82.4394 64.4691 82.2548 65.3762 81.9037 66.1994L85.5831 67.7686C86.16 66.4158 86.4394 64.9709 86.4394 63.456H82.4394ZM81.898 66.2128C81.5533 67.0376 81.0649 67.7585 80.423 68.3881L83.2238 71.2439C84.2459 70.2415 85.0374 69.0744 85.5887 67.7552L81.898 66.2128ZM80.4372 68.3743C79.7992 68.9877 79.0443 69.4743 78.1526 69.831L79.6382 73.545C80.9864 73.0057 82.1835 72.2443 83.2096 71.2577L80.4372 68.3743ZM78.1756 69.822C77.3084 70.1565 76.3314 70.336 75.2234 70.336V74.336C76.7714 74.336 78.2423 74.0835 79.6151 73.554L78.1756 69.822ZM84.0536 72.1458L75.7736 63.8658L72.9452 66.6942L81.2252 74.9742L84.0536 72.1458ZM75.7736 66.6942L78.3656 64.1022L75.5372 61.2738L72.9452 63.8658L75.7736 66.6942ZM75.5372 64.1022L83.8172 72.3822L86.6456 69.5538L78.3656 61.2738L75.5372 64.1022ZM83.8172 69.5538L81.2252 72.1458L84.0536 74.9742L86.6456 72.3822L83.8172 69.5538ZM75.1754 70.112C76.3625 70.112 77.5004 69.8552 78.5137 69.262L76.493 65.81C76.1944 65.9848 75.7802 66.112 75.1754 66.112V70.112ZM78.5137 69.262C79.5167 68.6749 80.2853 67.8362 80.8042 66.7984L77.2265 65.0096C77.0414 65.3798 76.8021 65.6291 76.493 65.81L78.5137 69.262ZM80.8042 66.7984C81.3201 65.7667 81.5434 64.6252 81.5434 63.432H77.5434C77.5434 64.1268 77.4146 64.6333 77.2265 65.0096L80.8042 66.7984ZM81.5434 63.432C81.5434 62.5318 81.4103 61.6583 81.1062 60.8396L77.3565 62.2324C77.4684 62.5337 77.5434 62.9242 77.5434 63.432H81.5434ZM81.1287 60.9035C80.8519 60.0732 80.4185 59.3207 79.8102 58.6869L76.9246 61.4571C77.0842 61.6233 77.2268 61.8468 77.334 62.1685L81.1287 60.9035ZM79.837 58.7154C79.2379 58.0664 78.5129 57.5827 77.6897 57.2679L76.2611 61.0041C76.5258 61.1053 76.7289 61.2456 76.8978 61.4286L79.837 58.7154ZM77.7565 57.2948C76.9427 56.9496 76.0703 56.8 75.1754 56.8V60.8C75.6245 60.8 75.952 60.8744 76.1943 60.9772L77.7565 57.2948ZM75.1754 56.8C73.9882 56.8 72.8504 57.0568 71.837 57.65L73.8577 61.102C74.1564 60.9272 74.5705 60.8 75.1754 60.8V56.8ZM71.8689 57.6317C70.847 58.2049 70.0687 59.0452 69.5465 60.0896L73.1242 61.8784C73.306 61.5148 73.5357 61.2831 73.8259 61.1203L71.8689 57.6317ZM69.5549 60.073C69.0301 61.0988 68.8074 62.2404 68.8074 63.432H72.8074C72.8074 62.7356 72.9367 62.2452 73.1159 61.895L69.5549 60.073ZM68.8074 63.432C68.8074 64.3281 68.9267 65.1947 69.198 66.0085L72.9927 64.7435C72.88 64.4053 72.8074 63.9759 72.8074 63.432H68.8074ZM69.2143 66.0553C69.5054 66.8615 69.9344 67.593 70.5138 68.2206L73.453 65.5074C73.2643 65.303 73.1013 65.0425 72.9765 64.6967L69.2143 66.0553ZM70.5406 68.2491C71.1185 68.851 71.8019 69.3152 72.5703 69.6412L74.1325 65.9588C73.8449 65.8368 73.6162 65.677 73.4262 65.4789L70.5406 68.2491ZM72.6371 69.6681C73.4414 69.9756 74.2963 70.112 75.1754 70.112V66.112C74.7105 66.112 74.3494 66.0404 74.0657 65.9319L72.6371 69.6681Z" fill="black"/>
</svg>
