<svg width="120" height="120" viewBox="0 0 120 120" fill="none" xmlns="http://www.w3.org/2000/svg">
<path d="M43.5 42C38.8174 42 35 45.8174 35 50.5C35 55.1826 38.8174 59 43.5 59C45.5958 59 47.5155 58.2315 49 56.9668C50.4845 58.2315 52.4042 59 54.5 59C56.5958 59 58.5155 58.2315 60 56.9668C61.4845 58.2315 63.4042 59 65.5 59C67.5958 59 69.5155 58.2315 71 56.9668C72.4845 58.2315 74.4042 59 76.5 59C81.1826 59 85 55.1826 85 50.5C85 45.8174 81.1826 42 76.5 42C74.4042 42 72.4845 42.7685 71 44.0332C69.5155 42.7685 67.5958 42 65.5 42C63.4042 42 61.4845 42.7685 60 44.0332C58.5155 42.7685 56.5958 42 54.5 42C52.4042 42 50.4845 42.7685 49 44.0332C47.5155 42.7685 45.5958 42 43.5 42ZM43.5 44C45.0812 44 46.526 44.5587 47.6504 45.4902C46.6179 46.8974 46 48.6271 46 50.5C46 52.3729 46.6179 54.1026 47.6504 55.5098C46.526 56.4413 45.0812 57 43.5 57C39.8983 57 37 54.1017 37 50.5C37 46.8983 39.8983 44 43.5 44ZM54.5 44C56.0812 44 57.526 44.5587 58.6504 45.4902C57.6179 46.8974 57 48.6271 57 50.5C57 52.3729 57.6179 54.1026 58.6504 55.5098C57.526 56.4413 56.0812 57 54.5 57C52.9188 57 51.474 56.4413 50.3496 55.5098C51.3821 54.1026 52 52.3729 52 50.5C52 48.6271 51.3821 46.8974 50.3496 45.4902C51.474 44.5587 52.9188 44 54.5 44ZM65.5 44C67.0812 44 68.526 44.5587 69.6504 45.4902C68.6179 46.8974 68 48.6271 68 50.5C68 52.3729 68.6179 54.1026 69.6504 55.5098C68.526 56.4413 67.0812 57 65.5 57C63.9188 57 62.474 56.4413 61.3496 55.5098C62.3821 54.1026 63 52.3729 63 50.5C63 48.6271 62.3821 46.8974 61.3496 45.4902C62.474 44.5587 63.9188 44 65.5 44ZM76.5 44C80.1017 44 83 46.8983 83 50.5C83 54.1017 80.1017 57 76.5 57C74.9188 57 73.474 56.4413 72.3496 55.5098C73.3821 54.1026 74 52.3729 74 50.5C74 48.6271 73.3821 46.8974 72.3496 45.4902C73.474 44.5587 74.9188 44 76.5 44ZM49 47.0371C49.6305 48.0393 50 49.2234 50 50.5C50 51.7766 49.6305 52.9607 49 53.9629C48.3695 52.9607 48 51.7766 48 50.5C48 49.2234 48.3695 48.0393 49 47.0371ZM60 47.0371C60.6305 48.0393 61 49.2234 61 50.5C61 51.7766 60.6305 52.9607 60 53.9629C59.3695 52.9607 59 51.7766 59 50.5C59 49.2234 59.3695 48.0393 60 47.0371ZM71 47.0371C71.6305 48.0393 72 49.2234 72 50.5C72 51.7766 71.6305 52.9607 71 53.9629C70.3695 52.9607 70 51.7766 70 50.5C70 49.2234 70.3695 48.0393 71 47.0371Z" fill="white"/>
<path d="M67.0268 72L73.5308 54.912H78.4268L84.8588 72H79.8668L75.0908 57.48H76.8188L71.9228 72H67.0268ZM71.2508 69.12V65.376H80.8028V69.12H71.2508Z" fill="white"/>
<path d="M67.0268 72L65.1576 71.2886L64.1256 74H67.0268V72ZM73.5308 54.912V52.912H72.1521L71.6616 54.2006L73.5308 54.912ZM78.4268 54.912L80.2986 54.2074L79.811 52.912H78.4268V54.912ZM84.8588 72V74H87.7486L86.7306 71.2954L84.8588 72ZM79.8668 72L77.9669 72.6249L78.4192 74H79.8668V72ZM75.0908 57.48V55.48H72.3275L73.1909 58.1049L75.0908 57.48ZM76.8188 57.48L78.714 58.119L79.6038 55.48H76.8188V57.48ZM71.9228 72V74H73.3591L73.818 72.639L71.9228 72ZM71.2508 69.12H69.2508V71.12H71.2508V69.12ZM71.2508 65.376V63.376H69.2508V65.376H71.2508ZM80.8028 65.376H82.8028V63.376H80.8028V65.376ZM80.8028 69.12V71.12H82.8028V69.12H80.8028ZM68.896 72.7114L75.4 55.6234L71.6616 54.2006L65.1576 71.2886L68.896 72.7114ZM73.5308 56.912H78.4268V52.912H73.5308V56.912ZM76.555 55.6166L82.987 72.7046L86.7306 71.2954L80.2986 54.2074L76.555 55.6166ZM84.8588 70H79.8668V74H84.8588V70ZM81.7667 71.3751L76.9907 56.8551L73.1909 58.1049L77.9669 72.6249L81.7667 71.3751ZM75.0908 59.48H76.8188V55.48H75.0908V59.48ZM74.9237 56.841L70.0277 71.361L73.818 72.639L78.714 58.119L74.9237 56.841ZM71.9228 70H67.0268V74H71.9228V70ZM73.2508 69.12V65.376H69.2508V69.12H73.2508ZM71.2508 67.376H80.8028V63.376H71.2508V67.376ZM78.8028 65.376V69.12H82.8028V65.376H78.8028ZM80.8028 67.12H71.2508V71.12H80.8028V67.12Z" fill="black"/>
</svg>
