<svg width="120" height="120" viewBox="0 0 120 120" fill="none" xmlns="http://www.w3.org/2000/svg">
    <path
        d="M73.4012 58.0089C70.9134 59.1803 68.4257 60.3516 65.9379 61.5223H65.9361C67.453 62.0805 68.9691 62.6408 70.4845 63.2032C71.4231 63.5512 72.5365 63.9881 72.9461 65.0548C73.3671 66.1501 72.7479 67.1273 72.2007 67.9514C71.3726 69.1988 70.5444 70.4463 69.7163 71.6931C66.7703 76.1309 63.8222 80.5687 60.8648 85C60.8595 83.6321 60.8562 82.2633 60.8534 80.8951V80.8927C61.9842 77.4716 63.0879 74.0426 64.1527 70.6013C64.4546 69.624 64.7537 68.646 65.0486 67.667C65.2261 67.0772 65.1113 66.7241 64.5214 66.4429C63.0148 65.7276 61.5073 65.013 59.999 64.2994C58.4914 65.013 56.9842 65.7276 55.4766 66.4429C54.8869 66.7241 54.7722 67.0772 54.9494 67.667C55.2452 68.646 55.5436 69.624 55.8463 70.6013C56.9101 74.0426 58.014 77.4713 59.1456 80.8927L59.1448 80.8951C59.1423 82.263 59.1388 83.6319 59.1335 85C56.176 80.5687 53.229 76.1309 50.2819 71.6931C49.4538 70.4463 48.6257 69.1988 47.7986 67.9514C47.2514 67.1273 46.6311 66.1501 47.0521 65.0548C47.4628 63.9881 48.5754 63.5512 49.5137 63.2032C51.0291 62.6408 52.5452 62.0802 54.0621 61.5223H54.0614C51.5727 60.3516 49.0849 59.1803 46.5972 58.0089L46.5937 58.0055C47.3705 59.2554 48.1455 60.5063 48.9205 61.7572C47.6375 62.2308 46.3553 62.7043 45.0733 63.1796C42.3798 59.1219 39.6843 55.0647 37 51C44.6581 53.6129 52.3093 56.2461 59.9995 58.7712C67.6907 56.2461 75.3409 53.6129 83 51C80.3157 55.0647 77.6192 59.1219 74.9252 63.1798C73.644 62.7046 72.361 62.231 71.078 61.7575C71.853 60.5066 72.629 59.2557 73.4048 58.0058"
        fill="white" />
</svg>