<svg width="120" height="120" viewBox="0 0 120 120" fill="none" xmlns="http://www.w3.org/2000/svg">
<path d="M65.335 47C65.0908 47 64.8316 47.1131 64.6437 47.3016L59.3538 52.6092C58.9781 52.9861 58.9781 53.5893 59.3538 53.9662C59.5416 54.1547 59.7971 54.2376 60.0451 54.2376C60.293 54.2376 60.5485 54.1547 60.7364 53.9662L62.69 52.006L66.1766 55.5042C64.6512 56.4655 62.0814 57.5549 58.1215 57.5549C52.005 57.5549 49.2135 55.0293 48.5034 54.2678V53.3631C48.5034 52.1116 48.154 50.9694 47.4815 49.9554L46.4296 48.3269C46.1403 47.8821 45.5542 47.7351 45.1071 48.0253C44.66 48.3156 44.5172 48.9036 44.8065 49.3522L45.8885 51.0109C46.3619 51.7233 46.5798 52.4885 46.5798 53.3631V53.6948H41.1096C39.34 53.6948 37.9537 55.082 37.9537 56.8613V61.5054C38.2918 61.4263 38.6187 61.3848 38.9756 61.3848H40.2379C41.5642 60.1521 43.3075 59.4548 45.1371 59.4548C46.9668 59.4548 48.7101 60.1521 50.0363 61.3848H70.0539C71.3801 60.1521 73.1234 59.4548 74.953 59.4548C76.7827 59.4548 78.526 60.1521 79.8522 61.3848H81.0244C81.2498 61.3848 81.4678 61.415 81.6857 61.4451C79.469 57.0724 70.159 54.0906 68.9718 53.725C68.5999 53.6081 68.1904 53.7438 67.9499 54.0567C67.9461 54.0605 67.8485 54.1547 67.7095 54.2979L64.0726 50.649L66.0263 48.6586C66.402 48.2817 66.402 47.6785 66.0263 47.3016C65.8384 47.1131 65.5792 47 65.335 47ZM45.1371 61.3848C43.4991 61.3848 42.0225 62.135 41.0495 63.3148H38.9756C37.3601 63.3148 36 64.7171 36 66.3908V67.0844C36 68.679 37.3863 70.07 38.9756 70.07H41.0495C42.0225 71.2498 43.4991 72 45.1371 72C46.7752 72 48.2517 71.2498 49.2248 70.07H70.8654C71.8384 71.2498 73.315 72 74.953 72C76.5911 72 78.0676 71.2498 79.0407 70.07H79.4915C79.6381 70.07 79.7884 70.0398 79.9123 69.9795H81.0244C82.67 69.9795 84 68.6451 84 66.994V66.3004C84 64.653 82.67 63.3148 81.0244 63.3148H79.0407C78.0676 62.135 76.5911 61.3848 74.953 61.3848C73.315 61.3848 71.8384 62.135 70.8654 63.3148H49.2248C48.2517 62.135 46.7752 61.3848 45.1371 61.3848ZM45.1371 63.3148C46.9931 63.3148 48.5034 64.8302 48.5034 66.6924C48.5034 68.5546 46.9931 70.07 45.1371 70.07C43.2812 70.07 41.7708 68.5546 41.7708 66.6924C41.7708 64.8302 43.2812 63.3148 45.1371 63.3148ZM74.953 63.3148C76.809 63.3148 78.3193 64.8302 78.3193 66.6924C78.3193 68.5546 76.809 70.07 74.953 70.07C73.0971 70.07 71.5867 68.5546 71.5867 66.6924C71.5867 64.8302 73.0971 63.3148 74.953 63.3148Z" fill="white"/>
</svg>