<svg width="120" height="120" viewBox="0 0 120 120" fill="none" xmlns="http://www.w3.org/2000/svg">
<path d="M71.7719 71.12L65.2679 59.912H70.7879L75.7079 69.056H71.5799L76.4999 59.912H81.8999L75.3479 71.12H71.7719ZM71.2199 77V69.368H76.0199V77H71.2199Z" fill="white"/>
<path d="M71.7719 71.12L70.042 72.1238L70.6201 73.12H71.7719V71.12ZM65.2679 59.912V57.912H61.7949L63.538 60.9158L65.2679 59.912ZM70.7879 59.912L72.5491 58.9644L71.9829 57.912H70.7879V59.912ZM75.7079 69.056V71.056H79.0551L77.4691 68.1084L75.7079 69.056ZM71.5799 69.056L69.8186 68.1084L68.2326 71.056H71.5799V69.056ZM76.4999 59.912V57.912H75.3049L74.7386 58.9644L76.4999 59.912ZM81.8999 59.912L83.6265 60.9214L85.3857 57.912H81.8999V59.912ZM75.3479 71.12V73.12H76.4954L77.0745 72.1294L75.3479 71.12ZM71.2199 77H69.2199V79H71.2199V77ZM71.2199 69.368V67.368H69.2199V69.368H71.2199ZM76.0199 69.368H78.0199V67.368H76.0199V69.368ZM76.0199 77V79H78.0199V77H76.0199ZM73.5017 70.1162L66.9977 58.9082L63.538 60.9158L70.042 72.1238L73.5017 70.1162ZM65.2679 61.912H70.7879V57.912H65.2679V61.912ZM69.0266 60.8596L73.9466 70.0036L77.4691 68.1084L72.5491 58.9644L69.0266 60.8596ZM75.7079 67.056H71.5799V71.056H75.7079V67.056ZM73.3411 70.0036L78.2611 60.8596L74.7386 58.9644L69.8186 68.1084L73.3411 70.0036ZM76.4999 61.912H81.8999V57.912H76.4999V61.912ZM80.1733 58.9026L73.6213 70.1106L77.0745 72.1294L83.6265 60.9214L80.1733 58.9026ZM75.3479 69.12H71.7719V73.12H75.3479V69.12ZM73.2199 77V69.368H69.2199V77H73.2199ZM71.2199 71.368H76.0199V67.368H71.2199V71.368ZM74.0199 69.368V77H78.0199V69.368H74.0199ZM76.0199 75H71.2199V79H76.0199V75Z" fill="black"/>
<path d="M38 38.7782C43.7462 36.832 49.8413 36.2006 55.9365 36.0446C58.2899 35.9851 60.7027 35.9851 63.0635 36.0446C69.1587 36.2006 75.2538 36.832 81 38.7782L79.6934 40.6799C74.8306 38.9713 69.0919 38.1319 63.0041 37.9462C60.7027 37.8794 58.3047 37.8794 55.9959 37.9462C49.9081 38.1319 44.1694 38.9713 39.3066 40.6799L38 38.7782Z" fill="white"/>
<path d="M40.3163 42.2844C44.0729 40.7616 49.6632 40.2565 53.739 40.145C55.0975 40.1079 56.2854 40.1079 57.1837 40.145L59.5 43.1164L61.8163 40.145C65.4095 40.0113 73.6725 40.2565 78.6837 42.2844C77.9933 43.5992 74.994 45.4935 73.3384 45.9094C73.2419 43.3244 69.5967 42.7598 66.0925 42.7598L59.5 78L52.9075 42.7598C49.4033 42.7598 45.7581 43.3244 45.6616 45.9094C44.0135 45.4935 41.0067 43.5992 40.3163 42.2844Z" fill="white"/>
</svg>
