<svg width="120" height="120" viewBox="0 0 120 120" fill="none" xmlns="http://www.w3.org/2000/svg">
<path d="M74.341 77.288C73.125 77.288 71.989 77.088 70.933 76.688C69.893 76.272 69.013 75.688 68.293 74.936L71.293 71.984C71.565 72.368 71.981 72.688 72.541 72.944C73.101 73.184 73.677 73.304 74.269 73.304C74.749 73.304 75.173 73.224 75.541 73.064C75.925 72.904 76.221 72.672 76.429 72.368C76.653 72.064 76.765 71.696 76.765 71.264C76.765 70.832 76.653 70.464 76.429 70.16C76.205 69.856 75.885 69.624 75.469 69.464C75.053 69.304 74.557 69.224 73.981 69.224C73.661 69.224 73.317 69.248 72.949 69.296C72.597 69.328 72.325 69.384 72.133 69.464L74.221 66.872C74.781 66.744 75.277 66.64 75.709 66.56C76.157 66.464 76.549 66.416 76.885 66.416C77.749 66.416 78.525 66.616 79.213 67.016C79.901 67.416 80.445 67.992 80.845 68.744C81.245 69.48 81.445 70.36 81.445 71.384C81.445 72.552 81.149 73.584 80.557 74.48C79.981 75.36 79.157 76.048 78.085 76.544C77.029 77.04 75.781 77.288 74.341 77.288ZM72.133 69.464V66.896L75.901 62.456L81.013 62.48L77.125 66.872L72.133 69.464ZM69.565 63.848V59.912H81.013V62.48L77.485 63.848H69.565Z" fill="white"/>
<path d="M70.933 76.688L70.1902 78.545L70.2073 78.5518L70.2245 78.5583L70.933 76.688ZM68.293 74.936L66.8902 73.5104L65.484 74.8941L66.8484 76.3191L68.293 74.936ZM71.293 71.984L72.925 70.828L71.5661 68.9094L69.8902 70.5584L71.293 71.984ZM72.541 72.944L71.7095 74.7629L71.7312 74.7729L71.7532 74.7823L72.541 72.944ZM75.541 73.064L74.7718 71.2178L74.7576 71.2237L74.7435 71.2299L75.541 73.064ZM76.429 72.368L74.8189 71.1816L74.7981 71.2098L74.7784 71.2386L76.429 72.368ZM76.429 70.16L78.0391 68.9736L78.0391 68.9736L76.429 70.16ZM75.469 69.464L76.187 67.5973L76.187 67.5973L75.469 69.464ZM72.949 69.296L73.1301 71.2878L73.169 71.2843L73.2077 71.2792L72.949 69.296ZM72.133 69.464L70.5755 68.2093L72.9022 71.3102L72.133 69.464ZM74.221 66.872L73.7754 64.9223L73.0988 65.0769L72.6635 65.6173L74.221 66.872ZM75.709 66.56L76.0732 68.5266L76.1007 68.5215L76.1281 68.5156L75.709 66.56ZM79.213 67.016L78.2078 68.745L78.2078 68.745L79.213 67.016ZM80.845 68.744L79.0793 69.6832L79.0835 69.6911L79.0878 69.699L80.845 68.744ZM80.557 74.48L78.8883 73.3775L78.8836 73.3847L80.557 74.48ZM78.085 76.544L77.2452 74.7288L77.2347 74.7337L78.085 76.544ZM72.133 69.464H70.133V72.756L73.0546 71.239L72.133 69.464ZM72.133 66.896L70.6081 65.6019L70.133 66.1617V66.896H72.133ZM75.901 62.456L75.9104 60.456L74.9789 60.4516L74.3761 61.1619L75.901 62.456ZM81.013 62.48L82.5105 63.8057L85.4362 60.5007L81.0224 60.48L81.013 62.48ZM77.125 66.872L78.0466 68.647L78.3763 68.4758L78.6225 68.1977L77.125 66.872ZM69.565 63.848H67.565V65.848H69.565V63.848ZM69.565 59.912V57.912H67.565V59.912H69.565ZM81.013 59.912H83.013V57.912H81.013V59.912ZM81.013 62.48L81.7361 64.3447L83.013 63.8496V62.48H81.013ZM77.485 63.848V65.848H77.8592L78.2081 65.7127L77.485 63.848ZM74.341 75.288C73.3484 75.288 72.4542 75.1256 71.6415 74.8177L70.2245 78.5583C71.5238 79.0504 72.9016 79.288 74.341 79.288V75.288ZM71.6758 74.831C70.8804 74.5129 70.2455 74.0833 69.7376 73.5529L66.8484 76.3191C67.7805 77.2927 68.9056 78.0311 70.1902 78.545L71.6758 74.831ZM69.6958 76.3616L72.6958 73.4096L69.8902 70.5584L66.8902 73.5104L69.6958 76.3616ZM69.661 73.14C70.1902 73.8873 70.9252 74.4044 71.7095 74.7629L73.3725 71.1251C73.0368 70.9716 72.9398 70.8487 72.925 70.828L69.661 73.14ZM71.7532 74.7823C72.5547 75.1258 73.3982 75.304 74.269 75.304V71.304C73.9558 71.304 73.6473 71.2422 73.3288 71.1057L71.7532 74.7823ZM74.269 75.304C74.9705 75.304 75.6745 75.1868 76.3385 74.8981L74.7435 71.2299C74.6715 71.2612 74.5275 71.304 74.269 71.304V75.304ZM76.3102 74.9102C77.0035 74.6213 77.6259 74.1605 78.0796 73.4974L74.7784 71.2386C74.7845 71.2296 74.7917 71.2207 74.7995 71.2124C74.8072 71.2043 74.8135 71.1988 74.8172 71.1959C74.8208 71.1931 74.8202 71.194 74.8136 71.1978C74.8069 71.2016 74.7936 71.2088 74.7718 71.2178L76.3102 74.9102ZM78.0391 73.5544C78.5519 72.8585 78.765 72.0589 78.765 71.264H74.765C74.765 71.3066 74.7596 71.308 74.7677 71.2817C74.7715 71.2689 74.7778 71.2523 74.7871 71.2336C74.7965 71.2148 74.8074 71.1972 74.8189 71.1816L78.0391 73.5544ZM78.765 71.264C78.765 70.4691 78.5519 69.6695 78.0391 68.9736L74.8189 71.3464C74.8074 71.3308 74.7965 71.3132 74.7871 71.2944C74.7778 71.2757 74.7715 71.2591 74.7677 71.2463C74.7596 71.22 74.765 71.2214 74.765 71.264H78.765ZM78.0391 68.9736C77.5506 68.3106 76.8939 67.8692 76.187 67.5973L74.751 71.3307C74.8172 71.3562 74.8442 71.3752 74.8471 71.3772C74.8485 71.3783 74.8454 71.3761 74.8393 71.3701C74.8332 71.3641 74.826 71.3561 74.8189 71.3464L78.0391 68.9736ZM76.187 67.5973C75.4857 67.3276 74.7342 67.224 73.981 67.224V71.224C74.3798 71.224 74.6203 71.2804 74.751 71.3307L76.187 67.5973ZM73.981 67.224C73.5621 67.224 73.1309 67.2553 72.6903 67.3128L73.2077 71.2792C73.5031 71.2407 73.7599 71.224 73.981 71.224V67.224ZM72.7679 67.3042C72.334 67.3437 71.8293 67.4239 71.3638 67.6178L72.9022 71.3102C72.8485 71.3326 72.8348 71.3311 72.8843 71.3209C72.9303 71.3114 73.0097 71.2987 73.1301 71.2878L72.7679 67.3042ZM73.6905 70.7187L75.7785 68.1267L72.6635 65.6173L70.5755 68.2093L73.6905 70.7187ZM74.6666 68.8217C75.2073 68.6981 75.6752 68.6003 76.0732 68.5266L75.3448 64.5934C74.8788 64.6797 74.3547 64.7899 73.7754 64.9223L74.6666 68.8217ZM76.1281 68.5156C76.4843 68.4393 76.7302 68.416 76.885 68.416V64.416C76.3678 64.416 75.8297 64.4887 75.2899 64.6044L76.1281 68.5156ZM76.885 68.416C77.4271 68.416 77.8509 68.5376 78.2078 68.745L80.2182 65.287C79.1991 64.6944 78.0709 64.416 76.885 64.416V68.416ZM78.2078 68.745C78.5508 68.9445 78.8414 69.2361 79.0793 69.6832L82.6107 67.8048C82.0486 66.7479 81.2512 65.8875 80.2182 65.287L78.2078 68.745ZM79.0878 69.699C79.2967 70.0835 79.445 70.6201 79.445 71.384H83.445C83.445 70.0999 83.1933 68.8765 82.6023 67.789L79.0878 69.699ZM79.445 71.384C79.445 72.1958 79.2453 72.8373 78.8883 73.3775L82.2257 75.5825C83.0527 74.3307 83.445 72.9082 83.445 71.384H79.445ZM78.8836 73.3847C78.5371 73.9141 78.0204 74.3702 77.2452 74.7289L78.9248 78.3591C80.2936 77.7258 81.4249 76.8059 82.2304 75.5753L78.8836 73.3847ZM77.2347 74.7337C76.4996 75.079 75.5543 75.288 74.341 75.288V79.288C76.0077 79.288 77.5584 79.001 78.9353 78.3543L77.2347 74.7337ZM74.133 69.464V66.896H70.133V69.464H74.133ZM73.6579 68.1901L77.4259 63.7501L74.3761 61.1619L70.6081 65.6019L73.6579 68.1901ZM75.8916 64.456L81.0036 64.48L81.0224 60.48L75.9104 60.456L75.8916 64.456ZM79.5155 61.1543L75.6275 65.5463L78.6225 68.1977L82.5105 63.8057L79.5155 61.1543ZM76.2034 65.097L71.2114 67.689L73.0546 71.239L78.0466 68.647L76.2034 65.097ZM71.565 63.848V59.912H67.565V63.848H71.565ZM69.565 61.912H81.013V57.912H69.565V61.912ZM79.013 59.912V62.48H83.013V59.912H79.013ZM80.2899 60.6153L76.7619 61.9833L78.2081 65.7127L81.7361 64.3447L80.2899 60.6153ZM77.485 61.848H69.565V65.848H77.485V61.848Z" fill="black"/>
<path d="M38 38.7782C43.7462 36.832 49.8413 36.2006 55.9365 36.0446C58.2899 35.9851 60.7027 35.9851 63.0635 36.0446C69.1587 36.2006 75.2538 36.832 81 38.7782L79.6934 40.6799C74.8306 38.9713 69.0919 38.1319 63.0041 37.9462C60.7027 37.8794 58.3047 37.8794 55.9959 37.9462C49.9081 38.1319 44.1694 38.9713 39.3066 40.6799L38 38.7782Z" fill="white"/>
<path d="M40.3163 42.2844C44.0729 40.7616 49.6632 40.2565 53.739 40.145C55.0975 40.1079 56.2854 40.1079 57.1837 40.145L59.5 43.1164L61.8163 40.145C65.4095 40.0113 73.6725 40.2565 78.6837 42.2844C77.9933 43.5992 74.994 45.4935 73.3384 45.9094C73.2419 43.3244 69.5967 42.7598 66.0925 42.7598L59.5 78L52.9075 42.7598C49.4033 42.7598 45.7581 43.3244 45.6616 45.9094C44.0135 45.4935 41.0067 43.5992 40.3163 42.2844Z" fill="white"/>
</svg>
