<svg width="120" height="120" viewBox="0 0 120 120" fill="none" xmlns="http://www.w3.org/2000/svg">
    <path
        d="M60 34C47.317 34 37 44.318 37 57C37 69.682 47.317 80 60 80C72.683 80 83 69.682 83 57C83 44.318 72.683 34 60 34ZM65.873 38.94L60 52L54.127 38.94C55.978 38.336 57.95 38 60 38C62.05 38 64.022 38.336 65.873 38.94ZM50.241 40.728L57.398 56H62.601L69.758 40.728C71.888 42.011 73.743 43.694 75.224 45.681L66.353 65L62.66 58H57.34L53.647 65L44.775 45.681C46.256 43.695 48.111 42.011 50.241 40.728ZM41 57C41 54.652 41.448 52.413 42.23 50.335L53.144 74.7C53.151 74.703 53.158 74.705 53.165 74.708C46.06 71.955 41 65.065 41 57ZM53.185 74.715L60 62L66.815 74.715C64.696 75.533 62.404 76 60 76C57.596 76 55.304 75.533 53.185 74.715ZM66.834 74.708C66.841 74.705 66.848 74.703 66.855 74.7L77.77 50.335C78.552 52.413 79 54.652 79 57C79 65.065 73.94 71.955 66.834 74.708Z"
        fill="white" />
    <path
        d="M66.0281 83.4605L66.0367 83.4639L66.0453 83.4672C67.7509 84.1132 69.5758 84.432 71.5115 84.432C73.7837 84.432 75.8061 84.0409 77.5499 83.2224C79.3044 82.4101 80.6928 81.2632 81.671 79.7694C82.6758 78.248 83.1675 76.5053 83.1675 74.576C83.1675 72.9116 82.8423 71.4213 82.1483 70.1424C81.4673 68.8639 80.5253 67.859 79.3221 67.1595C78.9302 66.9316 78.5229 66.742 78.1013 66.5899L82.2683 61.8828L82.5195 61.599V61.22V57.368V56.368H81.5195H64.3475H63.3475V57.368V63.272V64.272H64.3475H69.9193L67.4371 67.1969L67.1995 67.4769V67.844V71.696V73.196L68.5841 72.6191C68.7354 72.5561 69.027 72.4842 69.514 72.4399L69.5335 72.4381L69.5528 72.4356C70.0686 72.3683 70.5409 72.336 70.9715 72.336C71.7469 72.336 72.3631 72.4442 72.8445 72.6293C73.323 72.8134 73.6347 73.0567 73.8384 73.3332C74.0301 73.5932 74.1475 73.9295 74.1475 74.396C74.1475 74.8625 74.0301 75.1988 73.8384 75.4588L73.8281 75.4729L73.8182 75.4873C73.6291 75.7637 73.3482 75.9974 72.9269 76.1729L72.9198 76.1759L72.9128 76.1789C72.5088 76.3546 72.0127 76.456 71.4035 76.456C70.6587 76.456 69.9321 76.3066 69.2164 76.0015C68.4948 75.67 68.0335 75.2904 67.7555 74.898L67.076 73.9387L66.2381 74.7632L61.7381 79.1912L61.035 79.8831L61.7172 80.5956C62.9032 81.8343 64.3458 82.7875 66.0281 83.4605Z"
        fill="white" stroke="black" stroke-width="2" />
</svg>