<svg width="120" height="120" viewBox="0 0 120 120" fill="none" xmlns="http://www.w3.org/2000/svg">
    <path
        d="M60 34C47.317 34 37 44.318 37 57C37 69.682 47.317 80 60 80C72.683 80 83 69.682 83 57C83 44.318 72.683 34 60 34ZM65.873 38.94L60 52L54.127 38.94C55.978 38.336 57.95 38 60 38C62.05 38 64.022 38.336 65.873 38.94ZM50.241 40.728L57.398 56H62.601L69.758 40.728C71.888 42.011 73.743 43.694 75.224 45.681L66.353 65L62.66 58H57.34L53.647 65L44.775 45.681C46.256 43.695 48.111 42.011 50.241 40.728ZM41 57C41 54.652 41.448 52.413 42.23 50.335L53.144 74.7C53.151 74.703 53.158 74.705 53.165 74.708C46.06 71.955 41 65.065 41 57ZM53.185 74.715L60 62L66.815 74.715C64.696 75.533 62.404 76 60 76C57.596 76 55.304 75.533 53.185 74.715ZM66.834 74.708C66.841 74.705 66.848 74.703 66.855 74.7L77.77 50.335C78.552 52.413 79 54.652 79 57C79 65.065 73.94 71.955 66.834 74.708Z"
        fill="white" />
    <path
        d="M68.5001 73.24L73.6361 61.912H78.7241L73.4681 73.24H68.5001ZM68.5001 75.808V73.24L69.7961 71.872H82.6121V75.808H68.5001ZM76.5161 79V69.016H81.1961V79H76.5161Z"
        fill="white" />
    <path
        d="M68.5001 73.24L66.6785 72.4141L65.3973 75.24H68.5001V73.24ZM73.6361 61.912V59.912H72.3469L71.8145 61.0861L73.6361 61.912ZM78.7241 61.912L80.5383 62.7538L81.8568 59.912H78.7241V61.912ZM73.4681 73.24V75.24H74.7449L75.2823 74.0818L73.4681 73.24ZM68.5001 75.808H66.5001V77.808H68.5001V75.808ZM68.5001 73.24L67.0482 71.8645L66.5001 72.4431V73.24H68.5001ZM69.7961 71.872V69.872H68.9358L68.3442 70.4965L69.7961 71.872ZM82.6121 71.872H84.6121V69.872H82.6121V71.872ZM82.6121 75.808V77.808H84.6121V75.808H82.6121ZM76.5161 79H74.5161V81H76.5161V79ZM76.5161 69.016V67.016H74.5161V69.016H76.5161ZM81.1961 69.016H83.1961V67.016H81.1961V69.016ZM81.1961 79V81H83.1961V79H81.1961ZM70.3216 74.0659L75.4576 62.7379L71.8145 61.0861L66.6785 72.4141L70.3216 74.0659ZM73.6361 63.912H78.7241V59.912H73.6361V63.912ZM76.9098 61.0702L71.6538 72.3982L75.2823 74.0818L80.5383 62.7538L76.9098 61.0702ZM73.4681 71.24H68.5001V75.24H73.4681V71.24ZM70.5001 75.808V73.24H66.5001V75.808H70.5001ZM69.952 74.6155L71.248 73.2475L68.3442 70.4965L67.0482 71.8645L69.952 74.6155ZM69.7961 73.872H82.6121V69.872H69.7961V73.872ZM80.6121 71.872V75.808H84.6121V71.872H80.6121ZM82.6121 73.808H68.5001V77.808H82.6121V73.808ZM78.5161 79V69.016H74.5161V79H78.5161ZM76.5161 71.016H81.1961V67.016H76.5161V71.016ZM79.1961 69.016V79H83.1961V69.016H79.1961ZM81.1961 77H76.5161V81H81.1961V77Z"
        fill="black" />
</svg>