<svg width="120" height="120" viewBox="0 0 120 120" fill="none" xmlns="http://www.w3.org/2000/svg">
    <path
        d="M60 34C47.317 34 37 44.318 37 57C37 69.682 47.317 80 60 80C72.683 80 83 69.682 83 57C83 44.318 72.683 34 60 34ZM65.873 38.94L60 52L54.127 38.94C55.978 38.336 57.95 38 60 38C62.05 38 64.022 38.336 65.873 38.94ZM50.241 40.728L57.398 56H62.601L69.758 40.728C71.888 42.011 73.743 43.694 75.224 45.681L66.353 65L62.66 58H57.34L53.647 65L44.775 45.681C46.256 43.695 48.111 42.011 50.241 40.728ZM41 57C41 54.652 41.448 52.413 42.23 50.335L53.144 74.7C53.151 74.703 53.158 74.705 53.165 74.708C46.06 71.955 41 65.065 41 57ZM53.185 74.715L60 62L66.815 74.715C64.696 75.533 62.404 76 60 76C57.596 76 55.304 75.533 53.185 74.715ZM66.834 74.708C66.841 74.705 66.848 74.703 66.855 74.7L77.77 50.335C78.552 52.413 79 54.652 79 57C79 65.065 73.94 71.955 66.834 74.708Z"
        fill="white" />
    <path
        d="M72.6478 73V69.544H75.7438C76.1118 69.544 76.4478 69.472 76.7518 69.328C77.0718 69.168 77.3278 68.936 77.5198 68.632C77.7118 68.312 77.8078 67.92 77.8078 67.456C77.8078 66.992 77.7118 66.608 77.5198 66.304C77.3278 65.984 77.0718 65.752 76.7518 65.608C76.4478 65.448 76.1118 65.368 75.7438 65.368H72.6478V61.912H76.6798C77.7838 61.912 78.7758 62.136 79.6558 62.584C80.5518 63.016 81.2558 63.648 81.7678 64.48C82.2958 65.296 82.5598 66.288 82.5598 67.456C82.5598 68.608 82.2958 69.6 81.7678 70.432C81.2558 71.264 80.5518 71.904 79.6558 72.352C78.7758 72.784 77.7838 73 76.6798 73H72.6478ZM68.7598 79V61.912H73.5598V79H68.7598Z"
        fill="white" />
    <path
        d="M72.6478 73H70.6478V75H72.6478V73ZM72.6478 69.544V67.544H70.6478V69.544H72.6478ZM76.7518 69.328L77.6079 71.1355L77.6271 71.1264L77.6462 71.1169L76.7518 69.328ZM77.5198 68.632L79.2107 69.7L79.223 69.6806L79.2347 69.661L77.5198 68.632ZM77.5198 66.304L75.8048 67.333L75.8165 67.3526L75.8288 67.372L77.5198 66.304ZM76.7518 65.608L75.8203 67.3778L75.8748 67.4065L75.931 67.4318L76.7518 65.608ZM72.6478 65.368H70.6478V67.368H72.6478V65.368ZM72.6478 61.912V59.912H70.6478V61.912H72.6478ZM79.6558 62.584L78.7484 64.3663L78.7677 64.3761L78.7872 64.3855L79.6558 62.584ZM81.7678 64.48L80.0644 65.5282L80.0763 65.5475L80.0886 65.5665L81.7678 64.48ZM81.7678 70.432L80.0791 69.3604L80.0717 69.372L80.0644 69.3838L81.7678 70.432ZM79.6558 72.352L80.5371 74.1473L80.5436 74.1441L80.5502 74.1409L79.6558 72.352ZM68.7598 79H66.7598V81H68.7598V79ZM68.7598 61.912V59.912H66.7598V61.912H68.7598ZM73.5598 61.912H75.5598V59.912H73.5598V61.912ZM73.5598 79V81H75.5598V79H73.5598ZM74.6478 73V69.544H70.6478V73H74.6478ZM72.6478 71.544H75.7438V67.544H72.6478V71.544ZM75.7438 71.544C76.3797 71.544 77.0119 71.4178 77.6079 71.1355L75.8956 67.5205C75.8836 67.5262 75.8438 67.544 75.7438 67.544V71.544ZM77.6462 71.1169C78.2942 70.7929 78.825 70.3108 79.2107 69.7L75.8288 67.564C75.8267 67.5673 75.8267 67.5668 75.8292 67.5639C75.8317 67.5609 75.8356 67.5567 75.8407 67.552C75.8458 67.5474 75.8507 67.5437 75.8545 67.5411C75.8583 67.5385 75.8596 67.538 75.8573 67.5391L77.6462 71.1169ZM79.2347 69.661C79.6537 68.9628 79.8078 68.1949 79.8078 67.456H75.8078C75.8078 67.551 75.7978 67.6031 75.7932 67.6223C75.789 67.6393 75.7895 67.6284 75.8048 67.603L79.2347 69.661ZM79.8078 67.456C79.8078 66.7222 79.6555 65.9403 79.2107 65.236L75.8288 67.372C75.8004 67.327 75.7939 67.2987 75.7955 67.3051C75.7977 67.314 75.8078 67.3603 75.8078 67.456H79.8078ZM79.2347 65.275C78.8468 64.6285 78.2889 64.1065 77.5725 63.7842L75.931 67.4318C75.9031 67.4193 75.8703 67.3988 75.8407 67.372C75.812 67.3459 75.8018 67.328 75.8048 67.333L79.2347 65.275ZM77.6832 63.8382C77.0717 63.5163 76.4126 63.368 75.7438 63.368V67.368C75.7819 67.368 75.8018 67.372 75.8085 67.3736C75.8146 67.3751 75.8172 67.3762 75.8203 67.3778L77.6832 63.8382ZM75.7438 63.368H72.6478V67.368H75.7438V63.368ZM74.6478 65.368V61.912H70.6478V65.368H74.6478ZM72.6478 63.912H76.6798V59.912H72.6478V63.912ZM76.6798 63.912C77.506 63.912 78.1812 64.0776 78.7484 64.3663L80.5631 60.8017C79.3703 60.1944 78.0615 59.912 76.6798 59.912V63.912ZM78.7872 64.3855C79.3452 64.6546 79.7567 65.0282 80.0644 65.5282L83.4711 63.4318C82.7548 62.2678 81.7583 61.3774 80.5243 60.7825L78.7872 64.3855ZM80.0886 65.5665C80.3682 65.9986 80.5598 66.5949 80.5598 67.456H84.5598C84.5598 65.9811 84.2233 64.5934 83.4469 63.3935L80.0886 65.5665ZM80.5598 67.456C80.5598 68.2938 80.3714 68.8998 80.0791 69.3604L83.4564 71.5036C84.2201 70.3002 84.5598 68.9222 84.5598 67.456H80.5598ZM80.0644 69.3838C79.7529 69.89 79.3329 70.2774 78.7613 70.5631L80.5502 74.1409C81.7706 73.5306 82.7586 72.638 83.4711 71.4802L80.0644 69.3838ZM78.7744 70.5567C78.2015 70.8379 77.517 71 76.6798 71V75C78.0505 75 79.35 74.7301 80.5371 74.1473L78.7744 70.5567ZM76.6798 71H72.6478V75H76.6798V71ZM70.7598 79V61.912H66.7598V79H70.7598ZM68.7598 63.912H73.5598V59.912H68.7598V63.912ZM71.5598 61.912V79H75.5598V61.912H71.5598ZM73.5598 77H68.7598V81H73.5598V77Z"
        fill="black" />
</svg>