<svg width="120" height="120" viewBox="0 0 120 120" fill="none" xmlns="http://www.w3.org/2000/svg">
<path d="M59 34C46.317 34 36 44.318 36 57C36 69.682 46.317 80 59 80C71.683 80 82 69.682 82 57C82 44.318 71.683 34 59 34ZM64.873 38.94L59 52L53.127 38.94C54.978 38.336 56.95 38 59 38C61.05 38 63.022 38.336 64.873 38.94ZM49.241 40.728L56.398 56H61.601L68.758 40.728C70.888 42.011 72.743 43.694 74.224 45.681L65.353 65L61.66 58H56.34L52.647 65L43.775 45.681C45.256 43.695 47.111 42.011 49.241 40.728ZM40 57C40 54.652 40.448 52.413 41.23 50.335L52.144 74.7C52.151 74.703 52.158 74.705 52.165 74.708C45.06 71.955 40 65.065 40 57ZM52.185 74.715L59 62L65.815 74.715C63.696 75.533 61.404 76 59 76C56.596 76 54.304 75.533 52.185 74.715ZM65.834 74.708C65.841 74.705 65.848 74.703 65.855 74.7L76.77 50.335C77.552 52.413 78 54.652 78 57C78 65.065 72.94 71.955 65.834 74.708Z" fill="white"/>
<path d="M59.0588 79.288C57.7308 79.288 56.4988 79.072 55.3628 78.64C54.2428 78.192 53.2588 77.568 52.4108 76.768C51.5788 75.968 50.9308 75.032 50.4668 73.96C50.0028 72.888 49.7708 71.72 49.7708 70.456C49.7708 69.176 50.0108 68 50.4908 66.928C50.9868 65.856 51.6668 64.928 52.5308 64.144C53.4108 63.344 54.4268 62.728 55.5788 62.296C56.7308 61.848 57.9628 61.624 59.2748 61.624C60.8588 61.624 62.2748 61.896 63.5228 62.44C64.7868 62.984 65.8108 63.72 66.5948 64.648L63.3548 67.888C62.7628 67.2 62.1468 66.688 61.5068 66.352C60.8668 66.016 60.0988 65.848 59.2028 65.848C58.3548 65.848 57.5868 66.04 56.8988 66.424C56.2108 66.792 55.6588 67.32 55.2428 68.008C54.8428 68.696 54.6428 69.504 54.6428 70.432C54.6428 71.36 54.8268 72.176 55.1948 72.88C55.5788 73.568 56.1068 74.104 56.7788 74.488C57.4508 74.872 58.2348 75.064 59.1308 75.064C59.9948 75.064 60.7228 74.896 61.3148 74.56C61.9068 74.224 62.3548 73.744 62.6588 73.12C62.9788 72.496 63.1388 71.76 63.1388 70.912L66.4268 73L58.4828 72.76V68.92H67.9628V69.64C67.9628 71.688 67.5868 73.432 66.8348 74.872C66.0988 76.312 65.0588 77.408 63.7148 78.16C62.3868 78.912 60.8348 79.288 59.0588 79.288ZM73.6478 73V69.544H76.7438C77.1118 69.544 77.4478 69.472 77.7518 69.328C78.0718 69.168 78.3278 68.936 78.5198 68.632C78.7118 68.312 78.8078 67.92 78.8078 67.456C78.8078 66.992 78.7118 66.608 78.5198 66.304C78.3278 65.984 78.0718 65.752 77.7518 65.608C77.4478 65.448 77.1118 65.368 76.7438 65.368H73.6478V61.912H77.6798C78.7838 61.912 79.7758 62.136 80.6558 62.584C81.5518 63.016 82.2558 63.648 82.7678 64.48C83.2958 65.296 83.5598 66.288 83.5598 67.456C83.5598 68.608 83.2958 69.6 82.7678 70.432C82.2558 71.264 81.5518 71.904 80.6558 72.352C79.7758 72.784 78.7838 73 77.6798 73H73.6478ZM69.7598 79V61.912H74.5598V79H69.7598Z" fill="white"/>
<path d="M55.3628 78.64L54.62 80.497L54.6359 80.5033L54.6519 80.5094L55.3628 78.64ZM52.4108 76.768L51.0245 78.2097L51.0314 78.2163L51.0383 78.2228L52.4108 76.768ZM50.4908 66.928L48.6756 66.0882L48.6704 66.0994L48.6654 66.1107L50.4908 66.928ZM52.5308 64.144L53.8747 65.6251L53.8761 65.6239L52.5308 64.144ZM55.5788 62.296L56.281 64.1687L56.2923 64.1644L56.3036 64.16L55.5788 62.296ZM63.5228 62.44L62.7236 64.2734L62.7321 64.2771L63.5228 62.44ZM66.5948 64.648L68.009 66.0622L69.3092 64.762L68.1225 63.3573L66.5948 64.648ZM63.3548 67.888L61.8387 69.1925L63.2447 70.8265L64.769 69.3022L63.3548 67.888ZM61.5068 66.352L60.5771 68.1228L60.5771 68.1228L61.5068 66.352ZM56.8988 66.424L57.8421 68.1876L57.8578 68.1791L57.8735 68.1704L56.8988 66.424ZM55.2428 68.008L53.5313 66.9732L53.5224 66.9879L53.5137 67.0028L55.2428 68.008ZM55.1948 72.88L53.4223 73.8065L53.435 73.8308L53.4484 73.8547L55.1948 72.88ZM56.7788 74.488L57.771 72.7515L57.771 72.7515L56.7788 74.488ZM61.3148 74.56L62.302 76.2994L62.302 76.2994L61.3148 74.56ZM62.6588 73.12L60.8791 72.2074L60.8698 72.2256L60.8608 72.2441L62.6588 73.12ZM63.1388 70.912L64.2109 69.2237L61.1388 67.2727V70.912H63.1388ZM66.4268 73L66.3664 74.9991L73.6522 75.2192L67.4989 71.3117L66.4268 73ZM58.4828 72.76H56.4828V74.7005L58.4224 74.7591L58.4828 72.76ZM58.4828 68.92V66.92H56.4828V68.92H58.4828ZM67.9628 68.92H69.9628V66.92H67.9628V68.92ZM66.8348 74.872L65.0619 73.9462L65.0579 73.954L65.0539 73.9618L66.8348 74.872ZM63.7148 78.16L62.7382 76.4146L62.7293 76.4197L63.7148 78.16ZM59.0588 77.288C57.9511 77.288 56.9624 77.1086 56.0736 76.7706L54.6519 80.5094C56.0351 81.0354 57.5104 81.288 59.0588 81.288V77.288ZM56.1055 76.783C55.2106 76.4251 54.4421 75.9348 53.7832 75.3132L51.0383 78.2228C52.0754 79.2012 53.2749 79.9589 54.62 80.497L56.1055 76.783ZM53.797 75.3263C53.1585 74.7124 52.6621 73.9972 52.3022 73.1656L48.6313 74.7544C49.1994 76.0668 49.999 77.2236 51.0245 78.2097L53.797 75.3263ZM52.3022 73.1656C51.9554 72.3644 51.7708 71.4694 51.7708 70.456H47.7708C47.7708 71.9706 48.0501 73.4116 48.6313 74.7544L52.3022 73.1656ZM51.7708 70.456C51.7708 69.4321 51.9612 68.5379 52.3161 67.7453L48.6654 66.1107C48.0603 67.4621 47.7708 68.9199 47.7708 70.456H51.7708ZM52.3059 67.7678C52.6908 66.9359 53.2117 66.2268 53.8747 65.6251L51.1868 62.6629C50.1218 63.6292 49.2827 64.7761 48.6756 66.0882L52.3059 67.7678ZM53.8761 65.6239C54.5621 65.0003 55.358 64.5148 56.281 64.1687L54.8765 60.4233C53.4955 60.9412 52.2594 61.6877 51.1854 62.6641L53.8761 65.6239ZM56.3036 64.16C57.2106 63.8073 58.1953 63.624 59.2748 63.624V59.624C57.7302 59.624 56.2509 59.8887 54.8539 60.432L56.3036 64.16ZM59.2748 63.624C60.6283 63.624 61.7655 63.8558 62.7236 64.2734L64.3219 60.6066C62.784 59.9362 61.0892 59.624 59.2748 59.624V63.624ZM62.7321 64.2771C63.7494 64.7149 64.5081 65.2772 65.067 65.9387L68.1225 63.3573C67.1134 62.1628 65.8241 61.2531 64.3134 60.6029L62.7321 64.2771ZM65.1805 63.2338L61.9405 66.4738L64.769 69.3022L68.009 66.0622L65.1805 63.2338ZM64.8708 66.5835C64.1549 65.7515 63.3485 65.06 62.4364 64.5812L60.5771 68.1228C60.945 68.316 61.3706 68.6485 61.8387 69.1925L64.8708 66.5835ZM62.4364 64.5812C61.449 64.0628 60.3463 63.848 59.2028 63.848V67.848C59.8512 67.848 60.2845 67.9692 60.5771 68.1228L62.4364 64.5812ZM59.2028 63.848C58.0403 63.848 56.9325 64.1147 55.924 64.6776L57.8735 68.1704C58.241 67.9653 58.6692 67.848 59.2028 67.848V63.848ZM55.9554 64.6604C54.9406 65.2032 54.1273 65.9875 53.5313 66.9732L56.9542 69.0428C57.1902 68.6525 57.4809 68.3808 57.8421 68.1876L55.9554 64.6604ZM53.5137 67.0028C52.9087 68.0435 52.6428 69.2101 52.6428 70.432H56.6428C56.6428 69.7979 56.7768 69.3485 56.9718 69.0132L53.5137 67.0028ZM52.6428 70.432C52.6428 71.6283 52.8815 72.772 53.4223 73.8065L56.9672 71.9535C56.772 71.58 56.6428 71.0917 56.6428 70.432H52.6428ZM53.4484 73.8547C54.0064 74.8545 54.7925 75.6565 55.7865 76.2245L57.771 72.7515C57.421 72.5515 57.1511 72.2815 56.9411 71.9053L53.4484 73.8547ZM55.7865 76.2245C56.8054 76.8068 57.9422 77.064 59.1308 77.064V73.064C58.5273 73.064 58.0961 72.9372 57.771 72.7515L55.7865 76.2245ZM59.1308 77.064C60.2493 77.064 61.3383 76.8463 62.302 76.2994L60.3275 72.8206C60.1072 72.9457 59.7402 73.064 59.1308 73.064V77.064ZM62.302 76.2994C63.2525 75.7599 63.9796 74.9754 64.4567 73.9959L60.8608 72.2441C60.7299 72.5126 60.561 72.6881 60.3275 72.8206L62.302 76.2994ZM64.4384 74.0326C64.9305 73.0731 65.1388 72.0117 65.1388 70.912H61.1388C61.1388 71.5083 61.027 71.9189 60.8791 72.2074L64.4384 74.0326ZM62.0666 72.6003L65.3546 74.6883L67.4989 71.3117L64.2109 69.2237L62.0666 72.6003ZM66.4871 71.0009L58.5431 70.7609L58.4224 74.7591L66.3664 74.9991L66.4871 71.0009ZM60.4828 72.76V68.92H56.4828V72.76H60.4828ZM58.4828 70.92H67.9628V66.92H58.4828V70.92ZM65.9628 68.92V69.64H69.9628V68.92H65.9628ZM65.9628 69.64C65.9628 71.4477 65.6308 72.8568 65.0619 73.9462L68.6076 75.7978C69.5427 74.0072 69.9628 71.9283 69.9628 69.64H65.9628ZM65.0539 73.9618C64.4881 75.0687 63.7197 75.8654 62.7382 76.4146L64.6913 79.9054C66.3978 78.9506 67.7094 77.5553 68.6156 75.7822L65.0539 73.9618ZM62.7293 76.4197C61.7478 76.9754 60.5464 77.288 59.0588 77.288V81.288C61.1231 81.288 63.0257 80.8486 64.7002 79.9003L62.7293 76.4197ZM73.6478 73H71.6478V75H73.6478V73ZM73.6478 69.544V67.544H71.6478V69.544H73.6478ZM77.7518 69.328L78.6079 71.1355L78.6271 71.1264L78.6462 71.1169L77.7518 69.328ZM78.5198 68.632L80.2107 69.7L80.223 69.6806L80.2347 69.661L78.5198 68.632ZM78.5198 66.304L76.8048 67.333L76.8165 67.3526L76.8288 67.372L78.5198 66.304ZM77.7518 65.608L76.8203 67.3778L76.8748 67.4065L76.931 67.4318L77.7518 65.608ZM73.6478 65.368H71.6478V67.368H73.6478V65.368ZM73.6478 61.912V59.912H71.6478V61.912H73.6478ZM80.6558 62.584L79.7484 64.3663L79.7677 64.3761L79.7872 64.3855L80.6558 62.584ZM82.7678 64.48L81.0644 65.5282L81.0763 65.5475L81.0886 65.5665L82.7678 64.48ZM82.7678 70.432L81.0791 69.3604L81.0717 69.372L81.0644 69.3838L82.7678 70.432ZM80.6558 72.352L81.5371 74.1473L81.5436 74.1441L81.5502 74.1409L80.6558 72.352ZM69.7598 79H67.7598V81H69.7598V79ZM69.7598 61.912V59.912H67.7598V61.912H69.7598ZM74.5598 61.912H76.5598V59.912H74.5598V61.912ZM74.5598 79V81H76.5598V79H74.5598ZM75.6478 73V69.544H71.6478V73H75.6478ZM73.6478 71.544H76.7438V67.544H73.6478V71.544ZM76.7438 71.544C77.3797 71.544 78.0119 71.4178 78.6079 71.1355L76.8956 67.5205C76.8836 67.5262 76.8438 67.544 76.7438 67.544V71.544ZM78.6462 71.1169C79.2942 70.7929 79.825 70.3108 80.2107 69.7L76.8288 67.564C76.8267 67.5673 76.8267 67.5668 76.8292 67.5639C76.8317 67.5609 76.8356 67.5567 76.8407 67.552C76.8458 67.5474 76.8507 67.5437 76.8545 67.5411C76.8583 67.5385 76.8596 67.538 76.8573 67.5391L78.6462 71.1169ZM80.2347 69.661C80.6537 68.9628 80.8078 68.1949 80.8078 67.456H76.8078C76.8078 67.551 76.7978 67.6031 76.7932 67.6223C76.789 67.6393 76.7895 67.6284 76.8048 67.603L80.2347 69.661ZM80.8078 67.456C80.8078 66.7222 80.6555 65.9403 80.2107 65.236L76.8288 67.372C76.8004 67.327 76.7939 67.2987 76.7955 67.3051C76.7977 67.314 76.8078 67.3603 76.8078 67.456H80.8078ZM80.2347 65.275C79.8468 64.6285 79.2889 64.1065 78.5725 63.7842L76.931 67.4318C76.9031 67.4193 76.8703 67.3988 76.8407 67.372C76.812 67.3459 76.8018 67.328 76.8048 67.333L80.2347 65.275ZM78.6832 63.8382C78.0717 63.5163 77.4126 63.368 76.7438 63.368V67.368C76.7819 67.368 76.8018 67.372 76.8085 67.3736C76.8146 67.3751 76.8172 67.3762 76.8203 67.3778L78.6832 63.8382ZM76.7438 63.368H73.6478V67.368H76.7438V63.368ZM75.6478 65.368V61.912H71.6478V65.368H75.6478ZM73.6478 63.912H77.6798V59.912H73.6478V63.912ZM77.6798 63.912C78.506 63.912 79.1812 64.0776 79.7484 64.3663L81.5631 60.8017C80.3703 60.1944 79.0615 59.912 77.6798 59.912V63.912ZM79.7872 64.3855C80.3452 64.6546 80.7567 65.0282 81.0644 65.5282L84.4711 63.4318C83.7548 62.2678 82.7583 61.3774 81.5243 60.7825L79.7872 64.3855ZM81.0886 65.5665C81.3682 65.9986 81.5598 66.5949 81.5598 67.456H85.5598C85.5598 65.9811 85.2233 64.5934 84.4469 63.3935L81.0886 65.5665ZM81.5598 67.456C81.5598 68.2938 81.3714 68.8998 81.0791 69.3604L84.4564 71.5036C85.2201 70.3002 85.5598 68.9222 85.5598 67.456H81.5598ZM81.0644 69.3838C80.7529 69.89 80.3329 70.2774 79.7613 70.5631L81.5502 74.1409C82.7706 73.5306 83.7586 72.638 84.4711 71.4802L81.0644 69.3838ZM79.7744 70.5567C79.2015 70.8379 78.517 71 77.6798 71V75C79.0505 75 80.35 74.7301 81.5371 74.1473L79.7744 70.5567ZM77.6798 71H73.6478V75H77.6798V71ZM71.7598 79V61.912H67.7598V79H71.7598ZM69.7598 63.912H74.5598V59.912H69.7598V63.912ZM72.5598 61.912V79H76.5598V61.912H72.5598ZM74.5598 77H69.7598V81H74.5598V77Z" fill="black"/>
</svg>
