<svg width="120" height="120" viewBox="0 0 120 120" fill="none" xmlns="http://www.w3.org/2000/svg">
<path d="M59 34C46.317 34 36 44.318 36 57C36 69.682 46.317 80 59 80C71.683 80 82 69.682 82 57C82 44.318 71.683 34 59 34ZM64.873 38.94L59 52L53.127 38.94C54.978 38.336 56.95 38 59 38C61.05 38 63.022 38.336 64.873 38.94ZM49.241 40.728L56.398 56H61.601L68.758 40.728C70.888 42.011 72.743 43.694 74.224 45.681L65.353 65L61.66 58H56.34L52.647 65L43.775 45.681C45.256 43.695 47.111 42.011 49.241 40.728ZM40 57C40 54.652 40.448 52.413 41.23 50.335L52.144 74.7C52.151 74.703 52.158 74.705 52.165 74.708C45.06 71.955 40 65.065 40 57ZM52.185 74.715L59 62L65.815 74.715C63.696 75.533 61.404 76 59 76C56.596 76 54.304 75.533 52.185 74.715ZM65.834 74.708C65.841 74.705 65.848 74.703 65.855 74.7L76.77 50.335C77.552 52.413 78 54.652 78 57C78 65.065 72.94 71.955 65.834 74.708Z" fill="white"/>
<path d="M73.6757 79V61.912H78.4757V79H73.6757ZM68.5637 65.992V61.912H83.6117V65.992H68.5637Z" fill="white"/>
<path d="M73.6757 79H71.6757V81H73.6757V79ZM73.6757 61.912V59.912H71.6757V61.912H73.6757ZM78.4757 61.912H80.4757V59.912H78.4757V61.912ZM78.4757 79V81H80.4757V79H78.4757ZM68.5637 65.992H66.5637V67.992H68.5637V65.992ZM68.5637 61.912V59.912H66.5637V61.912H68.5637ZM83.6117 61.912H85.6117V59.912H83.6117V61.912ZM83.6117 65.992V67.992H85.6117V65.992H83.6117ZM75.6757 79V61.912H71.6757V79H75.6757ZM73.6757 63.912H78.4757V59.912H73.6757V63.912ZM76.4757 61.912V79H80.4757V61.912H76.4757ZM78.4757 77H73.6757V81H78.4757V77ZM70.5637 65.992V61.912H66.5637V65.992H70.5637ZM68.5637 63.912H83.6117V59.912H68.5637V63.912ZM81.6117 61.912V65.992H85.6117V61.912H81.6117ZM83.6117 63.992H68.5637V67.992H83.6117V63.992Z" fill="black"/>
</svg>
