<svg width="100" height="100" viewBox="0 0 100 100" fill="none" xmlns="http://www.w3.org/2000/svg">
<path fill-rule="evenodd" clip-rule="evenodd" d="M81.281 23.7773C82.2087 25.0573 82.5616 26.3243 82.3014 27.4433C81.8037 29.5815 81.1574 32.4105 80.4281 35.617C79.3442 40.3894 78.2638 45.1627 77.1869 49.9368C77.0906 50.3621 76.9944 50.7864 76.8993 51.2107C76.7674 51.7914 76.1593 54.483 75.9882 55.2411C74.692 60.9736 73.5039 66.2122 72.7068 69.6596C72.2185 71.7694 71.3797 74.8689 70.5124 77.4278C69.6987 79.8255 66.037 78.8006 63.5682 78.2668C60.0528 77.51 57.925 75.8514 58.3005 73.4242C58.6962 70.8679 58.6914 70.2107 58.7687 69.2282C58.8517 68.1586 60.1277 62.0548 60.7205 59.375C61.7898 54.5453 64.5377 45.0789 63.9533 41.3351C62.455 43.914 60.4046 48.867 58.4168 53.6695C56.2013 59.0201 54.1078 64.0766 52.5728 66.4978C52.4505 66.6905 52.346 66.8938 52.2413 67.0949C51.6841 68.168 50.9915 69.4963 48.2663 69.0895C44.2958 68.4866 42.1882 67.3042 41.5905 65.0438C40.8955 62.417 38.8081 53.6755 38.4696 52.2251C38.156 50.8782 37.8424 49.5322 37.525 48.1864C37.5144 48.1383 37.5024 48.0901 37.4918 48.0431C37.4918 48.0431 33.7174 64.7441 33.0889 67.4874C32.8571 68.4984 32.5697 69.7221 32.2619 71.0288C31.5705 73.9686 30.7865 77.2996 30.3255 79.5682C30.1319 80.5248 29.6947 81.1877 29.0258 81.537C28.7263 81.6944 28.3878 81.786 28.0077 81.8083C27.3078 81.8506 24.5861 80.8893 24.1369 80.7117C23.3635 80.4072 19.5213 77.678 18.8002 77.1478C17.4303 76.1418 16.9159 73.6487 17.011 72.3324C17.1356 70.5929 17.39 68.6969 17.7228 66.3837C17.8688 65.3646 18.1396 66.0217 18.3203 64.9229C18.5875 63.2926 18.8893 61.5858 19.2185 59.8334C19.7662 56.9196 20.3911 53.8801 21.0586 50.8593C21.1728 50.3432 21.6075 48.424 21.7097 47.9821C23.4168 40.6076 25.3333 33.6269 26.9848 29.2041C29.1149 23.5059 29.7363 23.5235 37.2507 25.5499C38.3425 25.8436 39.3142 26.4338 40.254 27.0016C40.5832 27.2024 40.9109 27.401 41.2401 27.5831C41.5265 27.743 41.7759 27.9559 41.9944 28.1426C42.238 28.3507 42.4887 28.5634 42.6658 28.5954C47.5485 29.424 47.9122 31.9734 47.8646 34.7366C47.8125 37.8643 48.4148 46.2024 48.4777 47.2004C50.2742 44.2126 52.6347 38.8822 54.9228 33.7117C57.3666 28.1933 59.675 22.9817 61.399 20.2818C62.6879 18.2625 64.6721 17.623 67.831 18.207C69.3826 18.4928 70.983 18.662 72.6237 18.8265C75.735 19.1345 79.4573 21.2633 81.281 23.7773Z" fill="white"/>
</svg>
