<svg width="100" height="100" viewBox="0 0 100 100" fill="none" xmlns="http://www.w3.org/2000/svg">
<path d="M69.5864 19.6721C68.8389 17.4754 66.7769 16 64.4658 16H24.5342C22.2231 16 20.1611 17.4754 19.4136 19.6721L12.3936 40.2295C12.1336 40.9871 12 41.7846 12 42.5821V68.5625C12 71.564 14.4267 74 17.4167 74C20.4067 74 22.8333 71.564 22.8333 68.5625V66.75H66.1667V68.5625C66.1667 71.564 68.5933 74 71.5833 74C74.5733 74 77 71.564 77 68.5625V42.5821C77 41.781 76.8664 40.9871 76.61 40.2295L69.5864 19.6721ZM27.1161 23.25H61.8839C62.6567 23.25 63.3428 23.743 63.5919 24.4752L67.3078 35.3503C67.7086 36.5248 66.8383 37.75 65.5997 37.75H23.4003C22.1617 37.75 21.2914 36.5248 21.6922 35.3503L25.4081 24.4752C25.6572 23.743 26.3433 23.25 27.1161 23.25ZM24.6389 55.875C21.6489 55.875 19.2222 53.439 19.2222 50.4375C19.2222 47.436 21.6489 45 24.6389 45C27.6289 45 30.0556 47.436 30.0556 50.4375C30.0556 53.439 27.6289 55.875 24.6389 55.875ZM64.3611 55.875C61.3711 55.875 58.9444 53.439 58.9444 50.4375C58.9444 47.436 61.3711 45 64.3611 45C67.3511 45 69.7778 47.436 69.7778 50.4375C69.7778 53.439 67.3511 55.875 64.3611 55.875Z" fill="#BBBBBB"/>
<path d="M55 57H84V85H55V57Z" fill="#1A1A1A"/>
<path d="M69 50C57.4206 50 48 59.4206 48 71C48 82.5794 57.4206 92 69 92C80.5794 92 90 82.5794 90 71C90 59.4206 80.5794 50 69 50ZM68.4792 81.5819L65.5959 74.4041L58.4181 71.5208C56.8536 70.8929 56.8935 68.6627 58.479 68.0915L75.804 61.8482C77.2656 61.3211 78.681 62.7365 78.1539 64.1981L71.9106 81.5231C71.3394 83.1065 69.1092 83.1464 68.4792 81.5819Z" fill="white"/>
</svg>
