<svg width="100" height="100" viewBox="0 0 100 100" fill="none" xmlns="http://www.w3.org/2000/svg">
<path d="M54.1665 8.33334C51.9564 8.33334 49.8368 9.21132 48.274 10.7741C46.7112 12.3369 45.8332 14.4565 45.8332 16.6667C45.8332 18.8768 46.7112 20.9964 48.274 22.5592C49.8368 24.122 51.9564 25 54.1665 25C56.3767 25 58.4963 24.122 60.0591 22.5592C61.6219 20.9964 62.4999 18.8768 62.4999 16.6667C62.4999 14.4565 61.6219 12.3369 60.0591 10.7741C58.4963 9.21132 56.3767 8.33334 54.1665 8.33334ZM44.8485 29.1667L25.7648 38.7126L22.3632 48.9014C21.6382 51.0805 22.8126 53.4335 24.9917 54.1585L25.008 54.1667C27.1872 54.8958 29.536 53.7173 30.2652 51.5381L32.5682 44.6208L39.9657 40.9261L30.2896 86.6455C29.7438 89.233 31.7169 91.6667 34.3586 91.6667H34.3749C36.3415 91.6667 38.0397 90.2916 38.4439 88.3708L43.4976 64.4694C45.4934 66.8402 48.5417 70.6831 49.9917 72.2331V87.5163C49.9959 89.8079 51.8626 91.6667 54.1584 91.6667H54.1747C56.4705 91.6667 58.3332 89.804 58.3332 87.5081V69.5719L53.4423 62.2396L56.909 47.6725C58.0924 49.7725 59.515 51.5847 61.1734 53.068C63.69 55.318 66.5963 56.874 69.7671 57.6823C72.413 58.3615 74.9999 56.3669 74.9999 53.6377C74.9999 51.6752 73.5917 50.085 71.6958 49.585C69.875 49.1058 68.2358 48.2046 66.7316 46.8587C64.6191 44.9712 63.0555 42.0463 62.093 38.1755C60.3096 31.0463 53.404 29.1667 49.9999 29.1667H44.8485Z" fill="#BBBBBB"/>
<rect x="49" y="57" width="29" height="28" fill="#1A1A1A"/>
<path d="M63 50C51.4206 50 42 59.4206 42 71C42 82.5794 51.4206 92 63 92C74.5794 92 84 82.5794 84 71C84 59.4206 74.5794 50 63 50ZM62.4792 81.5819L59.5959 74.4041L52.4181 71.5208C50.8536 70.8929 50.8935 68.6627 52.479 68.0915L69.804 61.8482C71.2656 61.3211 72.681 62.7365 72.1539 64.1981L65.9106 81.5231C65.3394 83.1065 63.1092 83.1464 62.4792 81.5819Z" fill="white"/>
</svg>
