<svg width="120" height="120" viewBox="0 0 120 120" fill="none" xmlns="http://www.w3.org/2000/svg">
<path d="M38.73 42C37.2225 42 36 43.2428 36 44.7669V70.2162C36 71.7403 37.3725 73.1351 38.88 73.1351H42.81C43.2675 75.8944 45.63 78 48.48 78C51.33 78 53.6925 75.8944 54.15 73.1351H63.03C64.5337 73.1351 65.76 71.8923 65.76 70.3682V44.8277C65.76 43.2694 64.5487 42 63.06 42H38.73ZM67.68 48.8108V73.1351C68.1412 75.8906 70.59 78 73.44 78C76.29 78 78.6525 75.8906 79.11 73.1351H81.12C82.6275 73.1351 84 71.7441 84 70.2162V60.8514C84 58.894 82.6087 56.8948 82.44 56.6554L78.45 51.2432C77.535 50.1258 76.0987 48.8108 74.4 48.8108H67.68ZM72.48 53.6757H77.85L80.91 57.8108C81.2362 58.2783 82.08 59.7111 82.08 60.8514V61.4595H72.48C71.52 61.4595 70.56 60.4865 70.56 59.5135V55.6216C70.56 54.546 71.52 53.6757 72.48 53.6757ZM48.48 68.2703C50.5987 68.2703 52.32 70.0148 52.32 72.1622C52.32 74.3095 50.5987 76.0541 48.48 76.0541C46.3612 76.0541 44.64 74.3095 44.64 72.1622C44.64 70.0148 46.3612 68.2703 48.48 68.2703ZM73.44 68.2703C75.5587 68.2703 77.28 70.0148 77.28 72.1622C77.28 74.3095 75.5587 76.0541 73.44 76.0541C71.3212 76.0541 69.6 74.3095 69.6 72.1622C69.6 70.0148 71.3212 68.2703 73.44 68.2703Z" fill="white"/>
</svg>