<svg width="120" height="120" viewBox="0 0 120 120" fill="none" xmlns="http://www.w3.org/2000/svg">
<path d="M38 38.7782C43.7462 36.832 49.8413 36.2006 55.9365 36.0446C58.2899 35.9851 60.7027 35.9851 63.0635 36.0446C69.1587 36.2006 75.2538 36.832 81 38.7782L79.6934 40.6799C74.8306 38.9713 69.0919 38.1319 63.0041 37.9462C60.7027 37.8794 58.3047 37.8794 55.9959 37.9462C49.9081 38.1319 44.1694 38.9713 39.3066 40.6799L38 38.7782Z" fill="white"/>
<path d="M40.3163 42.2844C44.0729 40.7616 49.6632 40.2565 53.739 40.145C55.0975 40.1079 56.2854 40.1079 57.1837 40.145L59.5 43.1164L61.8163 40.145C65.4095 40.0113 73.6725 40.2565 78.6837 42.2844C77.9933 43.5992 74.994 45.4935 73.3384 45.9094C73.2419 43.3244 69.5967 42.7598 66.0925 42.7598L59.5 78L52.9075 42.7598C49.4033 42.7598 45.7581 43.3244 45.6616 45.9094C44.0135 45.4935 41.0067 43.5992 40.3163 42.2844Z" fill="white"/>
<path d="M64.8298 72.0223V82V83H65.8298H73.0298H74.0298V82V71.7265L82.7131 56.8727L83.5927 55.368H81.8498H73.7498H73.1523L72.8692 55.8942L69.4658 62.2195L66.0624 55.8942L65.7793 55.368H65.1818H56.9018H55.1653L56.0369 56.8699L64.8298 72.0223Z" fill="white" stroke="black" stroke-width="2"/>
</svg>
