<?xml version="1.0" encoding="UTF-8" standalone="yes"?>
<svg width="100%" height="100%" viewBox="0 0 1179 1025" fill="none" xmlns="http://www.w3.org/2000/svg">
  <g id="Audi Q2 +Variants">
    <g id="Frame 10">
      <path id="Vector_12" d="M601.5 496C596.817 496 593 499.817 593 504.5C593 509.183 596.817 513 601.5 513C603.596 513 605.516 512.231 607 510.967C608.484 512.231 610.404 513 612.5 513C614.596 513 616.516 512.231 618 510.967C619.484 512.231 621.404 513 623.5 513C625.596 513 627.516 512.231 629 510.967C630.484 512.231 632.404 513 634.5 513C639.183 513 643 509.183 643 504.5C643 499.817 639.183 496 634.5 496C632.404 496 630.484 496.769 629 498.033C627.516 496.769 625.596 496 623.5 496C621.404 496 619.484 496.769 618 498.033C616.516 496.769 614.596 496 612.5 496C610.404 496 608.484 496.769 607 498.033C605.516 496.769 603.596 496 601.5 496ZM601.5 498C603.081 498 604.526 498.559 605.65 499.49C604.618 500.897 604 502.627 604 504.5C604 506.373 604.618 508.103 605.65 509.51C604.526 510.441 603.081 511 601.5 511C597.898 511 595 508.102 595 504.5C595 500.898 597.898 498 601.5 498ZM612.5 498C614.081 498 615.526 498.559 616.65 499.49C615.618 500.897 615 502.627 615 504.5C615 506.373 615.618 508.103 616.65 509.51C615.526 510.441 614.081 511 612.5 511C610.919 511 609.474 510.441 608.35 509.51C609.382 508.103 610 506.373 610 504.5C610 502.627 609.382 500.897 608.35 499.49C609.474 498.559 610.919 498 612.5 498ZM623.5 498C625.081 498 626.526 498.559 627.65 499.49C626.618 500.897 626 502.627 626 504.5C626 506.373 626.618 508.103 627.65 509.51C626.526 510.441 625.081 511 623.5 511C621.919 511 620.474 510.441 619.35 509.51C620.382 508.103 621 506.373 621 504.5C621 502.627 620.382 500.897 619.35 499.49C620.474 498.559 621.919 498 623.5 498ZM634.5 498C638.102 498 641 500.898 641 504.5C641 508.102 638.102 511 634.5 511C632.919 511 631.474 510.441 630.35 509.51C631.382 508.103 632 506.373 632 504.5C632 502.627 631.382 500.897 630.35 499.49C631.474 498.559 632.919 498 634.5 498ZM607 501.037C607.631 502.039 608 503.223 608 504.5C608 505.777 607.631 506.961 607 507.963C606.369 506.961 606 505.777 606 504.5C606 503.223 606.369 502.039 607 501.037ZM618 501.037C618.631 502.039 619 503.223 619 504.5C619 505.777 618.631 506.961 618 507.963C617.369 506.961 617 505.777 617 504.5C617 503.223 617.369 502.039 618 501.037ZM629 501.037C629.631 502.039 630 503.223 630 504.5C630 505.777 629.631 506.961 629 507.963C628.369 506.961 628 505.777 628 504.5C628 503.223 628.369 502.039 629 501.037Z" fill="white"/>
      <path id="Q" d="M622.384 531.425L622.388 531.426C624.22 532.149 626.206 532.504 628.335 532.504C630.437 532.504 632.397 532.162 634.203 531.465L634.203 531.465L634.214 531.46C634.676 531.276 635.123 531.072 635.555 530.85L638.752 534.047L639.459 534.754L640.166 534.047L644.054 530.159L644.761 529.452L644.054 528.745L641.07 525.76C641.437 525.159 641.76 524.527 642.036 523.865C642.788 522.102 643.159 520.204 643.159 518.184C643.159 516.144 642.789 514.246 642.036 512.503C641.313 510.749 640.276 509.219 638.928 507.923L638.235 508.644L638.928 507.923C637.58 506.627 635.99 505.633 634.171 504.94C632.362 504.218 630.389 503.864 628.263 503.864C626.135 503.864 624.151 504.219 622.32 504.94C620.522 505.634 618.945 506.628 617.598 507.923L618.213 508.563L617.598 507.923C616.253 509.216 615.205 510.731 614.457 512.459L614.457 512.459L614.452 512.47C613.724 514.212 613.367 516.109 613.367 518.148C613.367 520.169 613.739 522.068 614.491 523.832C615.239 525.585 616.287 527.113 617.634 528.409L617.634 528.409L617.641 528.415C619.007 529.705 620.591 530.707 622.384 531.425ZM633.815 518.148C633.815 518.267 633.813 518.384 633.809 518.5L631.634 516.325L630.927 515.618L630.22 516.325L626.332 520.213L625.625 520.92L626.332 521.627L628.851 524.146C628.661 524.161 628.465 524.168 628.263 524.168C627.366 524.168 626.583 524.03 625.901 523.772C625.24 523.489 624.677 523.102 624.203 522.611C623.731 522.096 623.357 521.476 623.088 520.736C622.842 519.994 622.711 519.135 622.711 518.148C622.711 516.856 622.952 515.795 623.393 514.931L623.393 514.932L623.397 514.923C623.84 514.037 624.459 513.386 625.26 512.936L625.268 512.932L625.276 512.927C626.082 512.456 627.065 512.2 628.263 512.2C629.16 512.2 629.923 512.349 630.573 512.625L630.589 512.632L630.606 512.638C631.282 512.897 631.848 513.279 632.316 513.786L632.323 513.793L632.33 513.801C632.793 514.284 633.153 514.883 633.398 515.62L633.404 515.636L633.41 515.652C633.674 516.363 633.815 517.19 633.815 518.148Z" fill="white" stroke="black" stroke-width="2"/>
    </g>
  </g>
</svg>