<?xml version="1.0" encoding="UTF-8" standalone="yes"?>
<svg width="100%" height="100%" viewBox="0 0 1179 1025" fill="none" xmlns="http://www.w3.org/2000/svg">
  <g id="Audi A4">
    <g id="Frame 9">
      <path id="Vector_11" d="M841.5 376C836.817 376 833 379.817 833 384.5C833 389.183 836.817 393 841.5 393C843.596 393 845.516 392.231 847 390.967C848.484 392.231 850.404 393 852.5 393C854.596 393 856.516 392.231 858 390.967C859.484 392.231 861.404 393 863.5 393C865.596 393 867.516 392.231 869 390.967C870.484 392.231 872.404 393 874.5 393C879.183 393 883 389.183 883 384.5C883 379.817 879.183 376 874.5 376C872.404 376 870.484 376.769 869 378.033C867.516 376.769 865.596 376 863.5 376C861.404 376 859.484 376.769 858 378.033C856.516 376.769 854.596 376 852.5 376C850.404 376 848.484 376.769 847 378.033C845.516 376.769 843.596 376 841.5 376ZM841.5 378C843.081 378 844.526 378.559 845.65 379.49C844.618 380.897 844 382.627 844 384.5C844 386.373 844.618 388.103 845.65 389.51C844.526 390.441 843.081 391 841.5 391C837.898 391 835 388.102 835 384.5C835 380.898 837.898 378 841.5 378ZM852.5 378C854.081 378 855.526 378.559 856.65 379.49C855.618 380.897 855 382.627 855 384.5C855 386.373 855.618 388.103 856.65 389.51C855.526 390.441 854.081 391 852.5 391C850.919 391 849.474 390.441 848.35 389.51C849.382 388.103 850 386.373 850 384.5C850 382.627 849.382 380.897 848.35 379.49C849.474 378.559 850.919 378 852.5 378ZM863.5 378C865.081 378 866.526 378.559 867.65 379.49C866.618 380.897 866 382.627 866 384.5C866 386.373 866.618 388.103 867.65 389.51C866.526 390.441 865.081 391 863.5 391C861.919 391 860.474 390.441 859.35 389.51C860.382 388.103 861 386.373 861 384.5C861 382.627 860.382 380.897 859.35 379.49C860.474 378.559 861.919 378 863.5 378ZM874.5 378C878.102 378 881 380.898 881 384.5C881 388.102 878.102 391 874.5 391C872.919 391 871.474 390.441 870.35 389.51C871.382 388.103 872 386.373 872 384.5C872 382.627 871.382 380.897 870.35 379.49C871.474 378.559 872.919 378 874.5 378ZM847 381.037C847.631 382.039 848 383.223 848 384.5C848 385.777 847.631 386.961 847 387.963C846.369 386.961 846 385.777 846 384.5C846 383.223 846.369 382.039 847 381.037ZM858 381.037C858.631 382.039 859 383.223 859 384.5C859 385.777 858.631 386.961 858 387.963C857.369 386.961 857 385.777 857 384.5C857 383.223 857.369 382.039 858 381.037ZM869 381.037C869.631 382.039 870 383.223 870 384.5C870 385.777 869.631 386.961 869 387.963C868.369 386.961 868 385.777 868 384.5C868 383.223 868.369 382.039 869 381.037Z" fill="white"/>
      <path id="A" d="M855.106 410.644L854.59 412H856.04H863.384H864.102L864.332 411.319L865.559 407.68H873.155L874.35 411.312L874.576 412H875.3H882.788H884.233L883.724 410.648L874.076 385.016L873.832 384.368H873.14H865.796H865.107L864.862 385.012L855.106 410.644ZM869.404 396.276L870.65 400.064H868.127L869.404 396.276Z" fill="white" stroke="black" stroke-width="2"/>
    </g>
  </g>
</svg>