<?xml version="1.0" encoding="UTF-8" standalone="yes"?>
<svg width="100%" height="100%" viewBox="0 0 1179 1025" fill="none" xmlns="http://www.w3.org/2000/svg">
  <g id="Cupra +Variants">
    <g id="Frame 6">
      <path id="Vector_8" d="M871.401 272.009C868.913 273.18 866.426 274.352 863.938 275.522H863.936C865.453 276.08 866.969 276.641 868.485 277.203C869.423 277.551 870.536 277.988 870.946 279.055C871.367 280.15 870.748 281.127 870.201 281.951C869.373 283.199 868.544 284.446 867.716 285.693C864.77 290.131 861.822 294.569 858.865 299C858.859 297.632 858.856 296.263 858.853 294.895V294.893C859.984 291.472 861.088 288.043 862.153 284.601C862.455 283.624 862.754 282.646 863.049 281.667C863.226 281.077 863.111 280.724 862.521 280.443C861.015 279.728 859.507 279.013 857.999 278.299C856.491 279.013 854.984 279.728 853.477 280.443C852.887 280.724 852.772 281.077 852.949 281.667C853.245 282.646 853.544 283.624 853.846 284.601C854.91 288.043 856.014 291.471 857.146 294.893L857.145 294.895C857.142 296.263 857.139 297.632 857.133 299C854.176 294.569 851.229 290.131 848.282 285.693C847.454 284.446 846.626 283.199 845.799 281.951C845.251 281.127 844.631 280.15 845.052 279.055C845.463 277.988 846.575 277.551 847.514 277.203C849.029 276.641 850.545 276.08 852.062 275.522H852.061C849.573 274.352 847.085 273.18 844.597 272.009L844.594 272.006C845.37 273.255 846.145 274.506 846.921 275.757C845.637 276.231 844.355 276.704 843.073 277.18C840.38 273.122 837.684 269.065 835 265C842.658 267.613 850.309 270.246 857.999 272.771C865.691 270.246 873.341 267.613 881 265C878.316 269.065 875.619 273.122 872.925 277.18C871.644 276.705 870.361 276.231 869.078 275.757C869.853 274.507 870.629 273.256 871.405 272.006" fill="white"/>
    </g>
  </g>
</svg>