<?xml version="1.0" encoding="UTF-8" standalone="yes"?>
<svg width="100%" height="100%" viewBox="0 0 1179 1025" fill="none" xmlns="http://www.w3.org/2000/svg">
  <g id="Ford +Variants">
    <g id="Frame 13">
      <g id="Vector_15">
        <path d="M639.788 629.854C639.635 629.854 639.556 629.874 639.484 630.024C639.246 630.505 636.353 635.086 635.815 635.976C635.724 636.111 635.613 636.093 635.6 635.939C635.546 635.41 635.114 634.803 634.433 634.512C633.915 634.289 633.408 634.249 632.881 634.323C631.929 634.459 631.081 634.989 630.336 635.587C629.212 636.49 628.243 637.659 626.992 638.524C626.309 638.994 625.373 639.404 624.748 638.792C624.181 638.237 624.245 637.004 625.112 636.051C625.203 635.951 625.313 636.034 625.296 636.125C625.214 636.556 625.314 636.984 625.624 637.285C626.002 637.643 626.543 637.684 627.006 637.445C627.552 637.158 627.874 636.606 627.968 635.979C628.112 635.006 627.403 634.148 626.516 634.079C625.796 634.025 625.106 634.291 624.433 634.878C624.096 635.173 623.903 635.392 623.611 635.83C623.54 635.939 623.431 635.95 623.434 635.79C623.469 634.545 622.981 633.844 622.006 633.821C621.25 633.802 620.442 634.235 619.812 634.766C619.121 635.352 618.518 636.128 617.87 636.858C617.79 636.948 617.72 636.944 617.698 636.769C617.678 635.944 617.482 635.145 617.12 634.577C616.992 634.38 616.723 634.282 616.497 634.416C616.392 634.476 616.029 634.653 615.765 634.878C615.634 634.992 615.582 635.157 615.64 635.369C615.99 636.602 615.913 638.003 615.439 639.188C615.004 640.271 614.16 641.249 613.167 641.581C612.513 641.8 611.833 641.692 611.413 641.08C610.835 640.233 611.068 638.764 611.929 637.542C612.689 636.468 613.789 635.784 614.885 635.344C615.015 635.292 615.041 635.204 615.004 635.088C614.944 634.897 614.85 634.638 614.811 634.52C614.711 634.237 614.429 634.191 614.085 634.23C613.288 634.329 612.569 634.617 611.859 635.019C610 636.071 609.068 638.108 608.659 639.197C608.463 639.72 608.294 640.047 608.077 640.336C607.784 640.725 607.416 641.08 606.743 641.704C606.682 641.762 606.637 641.88 606.688 641.992C606.756 642.142 607.107 642.663 607.205 642.711C607.315 642.768 607.442 642.688 607.493 642.65C607.963 642.312 608.527 641.778 608.802 641.415C608.899 641.291 608.999 641.344 609.049 641.532C609.307 642.502 609.981 643.294 610.912 643.624C612.617 644.231 614.386 643.352 615.72 641.821C616.569 640.849 616.875 640.223 617.2 639.797C617.751 639.076 618.838 637.462 620.132 636.426C620.607 636.044 621.17 635.753 621.452 635.946C621.678 636.101 621.752 636.462 621.388 637.161C620.068 639.708 618.125 642.7 617.77 643.426C617.705 643.552 617.761 643.651 617.886 643.651C618.577 643.648 619.261 643.65 619.889 643.65C619.993 643.645 620.04 643.594 620.092 643.517C621.105 641.841 622.058 640.245 623.08 638.597C623.138 638.5 623.19 638.576 623.192 638.618C623.213 639.001 623.303 639.523 623.517 639.867C623.903 640.502 624.451 640.776 625.058 640.779C625.541 640.785 625.785 640.708 626.306 640.502C626.73 640.336 627.07 640.118 627.332 639.921C627.484 639.809 627.511 639.996 627.507 640.025C627.272 641.355 627.562 642.932 628.813 643.585C630.311 644.365 631.955 643.268 632.902 642.279C632.994 642.183 633.094 642.193 633.103 642.399C633.123 642.777 633.285 643.225 633.58 643.538C634.374 644.38 635.974 644.046 637.58 642.733C638.611 641.892 639.69 640.703 640.665 639.445C640.702 639.396 640.728 639.318 640.659 639.24C640.51 639.075 640.296 638.888 640.148 638.743C640.081 638.683 639.983 638.7 639.926 638.745C638.927 639.749 638.028 640.894 636.728 641.841C636.29 642.163 635.591 642.425 635.277 641.976C635.155 641.802 635.169 641.561 635.289 641.245C635.668 640.245 641.668 630.593 641.98 630.025C642.033 629.925 641.977 629.853 641.858 629.853C641.241 629.853 640.431 629.854 639.788 629.854M630.279 641.717C629.97 641.548 629.836 641.091 629.843 640.721C629.859 639.683 630.294 638.616 631.102 637.568C632.087 636.288 633.176 635.623 633.89 635.986C634.629 636.359 634.393 637.263 634.062 637.972C634.038 638.028 634.036 638.074 634.049 638.119C634.061 638.193 634.153 638.265 634.242 638.299C634.273 638.311 634.29 638.335 634.255 638.412C634 638.99 633.765 639.323 633.445 639.825C633.151 640.289 632.82 640.651 632.419 640.999C631.952 641.407 631.345 641.844 630.773 641.844C630.604 641.844 630.438 641.805 630.279 641.717Z" fill="white"/>
        <path d="M606.169 624.073C602.481 624.401 598.972 626.594 598.965 629.925C598.962 631.613 600.098 632.982 601.858 632.922C603.927 632.848 605.626 631.097 606.515 628.888C606.852 628.05 606.227 627.703 605.93 628.185C605.399 629.054 604.651 629.729 603.842 630.147C602.869 630.651 601.828 630.515 601.513 629.68C601.069 628.502 601.991 626.738 604.095 625.908C607.134 624.72 610.313 625.506 613.372 626.114C613.416 626.114 613.579 626.209 613.435 626.289C612.886 626.604 612.348 626.861 611.507 627.625C610.905 628.17 610.116 628.896 609.506 629.686C608.901 630.465 608.471 631.161 607.903 631.931C607.825 632.042 607.727 632.037 607.728 632.037C606.344 632.284 604.989 632.449 603.748 633.361C603.492 633.548 603.38 633.88 603.536 634.135C603.675 634.36 603.995 634.384 604.217 634.213C604.989 633.604 605.782 633.317 606.692 633.29C606.732 633.293 606.751 633.3 606.762 633.326C606.769 633.34 606.765 633.371 606.749 633.394C605.385 635.392 605.044 635.843 604.018 637.082C603.494 637.719 602.978 638.257 602.402 638.816C600.073 641.102 597.569 641.063 596.67 639.629C596.133 638.77 596.204 637.866 596.556 637.117C596.989 636.2 597.865 635.528 598.592 635.135C598.863 634.989 598.94 634.624 598.67 634.291C598.498 634.074 598.081 634.035 597.77 634.096C596.816 634.282 595.689 635.044 595.024 635.96C594.273 636.989 593.898 638.239 594.024 639.64C594.25 642.169 596.221 643.63 598.458 643.613C600.239 643.598 601.916 643.029 603.934 640.864C605.815 638.845 607.529 635.83 609.133 633.034C609.184 632.944 609.22 632.896 609.463 632.864C610.469 632.731 611.955 632.58 612.909 632.521C613.12 632.509 613.163 632.512 613.248 632.623C613.496 632.954 613.868 633.236 614.167 633.406C614.313 633.49 614.382 633.531 614.496 633.533C614.637 633.536 614.747 633.456 614.818 633.371C614.92 633.254 614.947 633.101 614.893 633.002C614.835 632.898 614.171 632.509 614.152 632.352C614.137 632.254 614.239 632.23 614.239 632.23C614.727 632.068 615.235 631.736 615.543 631.112C615.845 630.499 615.894 629.681 615.341 629.225C614.856 628.825 614.122 628.888 613.536 629.443C612.963 629.983 612.774 630.766 612.852 631.454C612.865 631.573 612.859 631.613 612.706 631.627C611.825 631.701 610.977 631.727 610.034 631.78C609.97 631.785 609.95 631.74 609.987 631.695C611.073 629.7 612.695 628.28 614.489 626.881C614.608 626.788 614.571 626.608 614.567 626.459C617.806 627.202 620.936 628.586 624.297 628.556C625.687 628.545 627.018 628.321 628.289 627.585C629.407 626.94 629.861 626.343 629.894 625.724C629.92 625.295 629.639 625.025 629.237 625.117C625.842 625.942 622.603 625.932 619.225 625.501C615.391 625.009 611.71 624 607.896 624C607.323 624 606.748 624.022 606.169 624.073ZM613.75 631.189C613.701 630.809 613.818 630.3 614.201 629.942C614.395 629.761 614.655 629.72 614.814 629.865C614.994 630.027 614.909 630.43 614.728 630.71C614.531 631.017 614.196 631.283 613.891 631.347C613.882 631.349 613.874 631.35 613.866 631.35C613.815 631.35 613.772 631.312 613.75 631.189Z" fill="white"/>
      </g>
    </g>
  </g>
</svg>