<?xml version="1.0" encoding="UTF-8" standalone="yes"?>
<svg width="100%" height="100%" viewBox="0 0 1179 1025" fill="none" xmlns="http://www.w3.org/2000/svg">
  <g id="Generic Truck">
    <g id="Frame 13_3">
      <path id="Vector_17" d="M836.73 616C835.223 616 834 617.243 834 618.767V644.216C834 645.74 835.373 647.135 836.88 647.135H840.81C841.268 649.894 843.63 652 846.48 652C849.33 652 851.692 649.894 852.15 647.135H861.03C862.534 647.135 863.76 645.892 863.76 644.368V618.828C863.76 617.269 862.549 616 861.06 616H836.73ZM865.68 622.811V647.135C866.141 649.891 868.59 652 871.44 652C874.29 652 876.653 649.891 877.11 647.135H879.12C880.627 647.135 882 645.744 882 644.216V634.851C882 632.894 880.609 630.895 880.44 630.655L876.45 625.243C875.535 624.126 874.099 622.811 872.4 622.811H865.68ZM870.48 627.676H875.85L878.91 631.811C879.236 632.278 880.08 633.711 880.08 634.851V635.459H870.48C869.52 635.459 868.56 634.486 868.56 633.514V629.622C868.56 628.546 869.52 627.676 870.48 627.676ZM846.48 642.27C848.599 642.27 850.32 644.015 850.32 646.162C850.32 648.31 848.599 650.054 846.48 650.054C844.361 650.054 842.64 648.31 842.64 646.162C842.64 644.015 844.361 642.27 846.48 642.27ZM871.44 642.27C873.559 642.27 875.28 644.015 875.28 646.162C875.28 648.31 873.559 650.054 871.44 650.054C869.321 650.054 867.6 648.31 867.6 646.162C867.6 644.015 869.321 642.27 871.44 642.27Z" fill="white"/>
    </g>
  </g>
</svg>