<?xml version="1.0" encoding="UTF-8" standalone="yes"?>
<svg width="100%" height="100%" viewBox="0 0 1179 1025" fill="none" xmlns="http://www.w3.org/2000/svg">
  <g id="Generic">
    <g id="Frame 13_2">
      <path id="Vector_16" d="M743.335 621C743.091 621 742.832 621.113 742.644 621.302L737.354 626.609C736.978 626.986 736.978 627.589 737.354 627.966C737.542 628.155 737.797 628.238 738.045 628.238C738.293 628.238 738.549 628.155 738.736 627.966L740.69 626.006L744.177 629.504C742.651 630.465 740.081 631.555 736.121 631.555C730.005 631.555 727.214 629.029 726.503 628.268V627.363C726.503 626.112 726.154 624.969 725.482 623.955L724.43 622.327C724.14 621.882 723.554 621.735 723.107 622.025C722.66 622.316 722.517 622.904 722.807 623.352L723.889 625.011C724.362 625.723 724.58 626.489 724.58 627.363V627.695H719.11C717.34 627.695 715.954 629.082 715.954 630.861V635.505C716.292 635.426 716.619 635.385 716.976 635.385H718.238C719.564 634.152 721.307 633.455 723.137 633.455C724.967 633.455 726.71 634.152 728.036 635.385H748.054C749.38 634.152 751.123 633.455 752.953 633.455C754.783 633.455 756.526 634.152 757.852 635.385H759.024C759.25 635.385 759.468 635.415 759.686 635.445C757.469 631.072 748.159 628.091 746.972 627.725C746.6 627.608 746.19 627.744 745.95 628.057C745.946 628.06 745.848 628.155 745.709 628.298L742.073 624.649L744.026 622.659C744.402 622.282 744.402 621.679 744.026 621.302C743.838 621.113 743.579 621 743.335 621ZM723.137 635.385C721.499 635.385 720.023 636.135 719.049 637.315H716.976C715.36 637.315 714 638.717 714 640.391V641.084C714 642.679 715.386 644.07 716.976 644.07H719.049C720.023 645.25 721.499 646 723.137 646C724.775 646 726.252 645.25 727.225 644.07H748.865C749.838 645.25 751.315 646 752.953 646C754.591 646 756.068 645.25 757.041 644.07H757.492C757.638 644.07 757.788 644.04 757.912 643.979H759.024C760.67 643.979 762 642.645 762 640.994V640.3C762 638.653 760.67 637.315 759.024 637.315H757.041C756.068 636.135 754.591 635.385 752.953 635.385C751.315 635.385 749.838 636.135 748.865 637.315H727.225C726.252 636.135 724.775 635.385 723.137 635.385ZM723.137 637.315C724.993 637.315 726.503 638.83 726.503 640.692C726.503 642.555 724.993 644.07 723.137 644.07C721.281 644.07 719.771 642.555 719.771 640.692C719.771 638.83 721.281 637.315 723.137 637.315ZM752.953 637.315C754.809 637.315 756.319 638.83 756.319 640.692C756.319 642.555 754.809 644.07 752.953 644.07C751.097 644.07 749.587 642.555 749.587 640.692C749.587 638.83 751.097 637.315 752.953 637.315Z" fill="white"/>
    </g>
  </g>
</svg>