<?xml version="1.0" encoding="UTF-8" standalone="yes"?>
<svg width="100%" height="100%" viewBox="0 0 1179 1025" fill="none" xmlns="http://www.w3.org/2000/svg">
  <g id="Opel +Variants">
    <g id="Frame 12">
      <path id="Vector_14" d="M858 529.857C848.908 529.857 841.511 522.518 841.511 513.499C841.511 513.034 841.535 512.574 841.575 512.119L855.36 512.973L849.394 517.063C849.313 517.119 849.26 517.212 849.26 517.316C849.26 517.486 849.399 517.627 849.571 517.627H873.959C872.109 524.654 865.655 529.857 858 529.857ZM858 497.142C867.095 497.142 874.49 504.48 874.49 513.499C874.49 513.962 874.466 514.419 874.428 514.871H874.42L860.636 514.001L866.618 509.935C866.701 509.879 866.752 509.786 866.752 509.682C866.752 509.509 866.612 509.371 866.441 509.371H842.044C843.891 502.344 850.346 497.142 858 497.142ZM881.641 515.326L876.584 515.007C876.624 514.509 876.651 514.007 876.651 513.499C876.651 503.299 868.285 495 858 495C849.147 495 841.722 501.152 839.824 509.37H835.703C835.469 509.37 835.263 509.48 835.132 509.65L834.078 511.094C834.03 511.155 834 511.232 834 511.315C834 511.512 834.161 511.671 834.362 511.671L838.856 511.948L839.419 511.985C839.379 512.485 839.352 512.988 839.352 513.498C839.352 523.698 847.718 532 858 532C866.853 532 874.281 525.845 876.176 517.627H880.3C880.533 517.627 880.74 517.518 880.871 517.348L881.925 515.903C881.973 515.842 882 515.765 882 515.682C882 515.486 881.839 515.326 881.641 515.326Z" fill="white"/>
    </g>
  </g>
</svg>