<?xml version="1.0" encoding="UTF-8" standalone="yes"?>
<svg width="100%" height="100%" viewBox="0 0 1179 1025" fill="none" xmlns="http://www.w3.org/2000/svg">
  <g id="Seat +Variants">
    <g id="Frame 11">
      <path id="Vector_13" d="M730.897 498.112C738.792 497.83 746.695 498.11 754.576 498.624C755.406 498.697 756.246 498.691 757.063 498.868C757.505 498.976 757.983 499.148 758.241 499.555C758.477 499.999 758.482 500.516 758.543 501.005C758.731 503.405 758.786 505.816 758.963 508.216C758.621 508.258 758.28 508.205 757.938 508.194C751.86 507.875 745.776 507.609 739.688 507.601C736.535 507.61 733.378 507.579 730.227 507.734C729.464 507.848 728.6 508.108 728.159 508.799C730.542 509.228 732.921 509.692 735.304 510.13C743.2 511.63 751.103 513.097 759 514.595C758.993 516.115 758.996 517.635 758.999 519.155C754.558 518.409 750.125 517.604 745.688 516.834C736.14 515.163 726.596 513.47 717.045 511.816C717.064 510.129 717.135 508.442 717.17 506.754C717.23 505.417 717.192 504.062 717.49 502.749C717.691 501.823 718.062 500.892 718.753 500.23C719.947 499.03 721.674 498.693 723.281 498.524C725.813 498.285 728.357 498.207 730.897 498.112ZM717 514.036C730.678 516.597 744.352 519.202 758.028 521.779C758.327 521.853 758.647 521.859 758.934 521.97L758.968 522.05C758.893 524.327 758.85 526.606 758.769 528.883C758.717 530.288 758.571 531.758 757.858 532.996C757.095 534.276 755.672 534.984 754.264 535.251C752.189 535.647 750.07 535.673 747.969 535.79C738.926 536.206 729.865 535.976 720.838 535.345C720.117 535.294 719.383 535.281 718.682 535.078C718.319 534.962 717.944 534.774 717.739 534.434C717.519 533.987 717.505 533.478 717.451 532.991C717.258 530.334 717.155 527.673 717.018 525.013C721.675 525.313 726.339 525.482 731.005 525.587C735.51 525.661 740.015 525.66 744.52 525.705C745.491 525.746 746.542 525.558 747.279 524.865C747.387 524.74 747.561 524.623 747.543 524.436C745.513 524.127 743.494 523.742 741.468 523.404C733.315 521.989 725.157 520.587 717.005 519.164C716.995 517.455 717.007 515.745 717 514.036Z" fill="white"/>
    </g>
  </g>
</svg>