<?xml version="1.0" encoding="UTF-8" standalone="yes"?>
<svg width="100%" height="100%" viewBox="0 0 1179 1025" fill="none" xmlns="http://www.w3.org/2000/svg">
  <g id="Tesla Model 3">
    <g id="Frame 7">
      <g id="Vector_9">
        <path d="M596 372.778C601.746 370.832 607.841 370.201 613.936 370.045C616.29 369.985 618.703 369.985 621.064 370.045C627.159 370.201 633.254 370.832 639 372.778L637.693 374.68C632.831 372.971 627.092 372.132 621.004 371.946C618.703 371.879 616.305 371.879 613.996 371.946C607.908 372.132 602.169 372.971 597.307 374.68L596 372.778Z" fill="white"/>
        <path d="M598.316 376.284C602.073 374.762 607.663 374.256 611.739 374.145C613.098 374.108 614.285 374.108 615.184 374.145L617.5 377.116L619.816 374.145C623.41 374.011 631.672 374.256 636.684 376.284C635.993 377.599 632.994 379.493 631.338 379.909C631.242 377.324 627.597 376.76 624.093 376.76L617.5 412L610.907 376.76C607.403 376.76 603.758 377.324 603.662 379.909C602.013 379.493 599.007 377.599 598.316 376.284Z" fill="white"/>
      </g>
      <path id="3_2" d="M623.028 416.46L623.037 416.464L623.045 416.467C624.751 417.113 626.576 417.432 628.512 417.432C630.784 417.432 632.806 417.041 634.55 416.222C636.304 415.41 637.693 414.263 638.671 412.77C639.676 411.248 640.168 409.505 640.168 407.576C640.168 405.912 639.842 404.421 639.148 403.142C638.467 401.864 637.525 400.859 636.322 400.159C635.93 399.932 635.523 399.742 635.101 399.59L639.107 395.065L639.52 394.905V394.599L640.731 393.23L639.52 393.225V390.368V389.368H638.52H621.348H620.348V390.368V396.272V397.272H621.348H626.919L624.437 400.197L624.2 400.477V400.844V404.696V406.342L625.616 405.606C625.775 405.547 626.06 405.481 626.514 405.44L626.533 405.438L626.553 405.436C627.069 405.368 627.541 405.336 627.972 405.336C628.747 405.336 629.363 405.444 629.845 405.629C630.323 405.813 630.635 406.057 630.838 406.333C631.03 406.593 631.148 406.929 631.148 407.396C631.148 407.863 631.03 408.199 630.838 408.459L630.828 408.473L630.818 408.487C630.629 408.764 630.348 408.997 629.927 409.173L629.92 409.176L629.913 409.179C629.509 409.355 629.013 409.456 628.404 409.456C627.659 409.456 626.932 409.307 626.216 409.002C625.495 408.67 625.034 408.29 624.756 407.898L624.076 406.939L623.238 407.763L618.738 412.191L618.035 412.883L618.717 413.596C619.903 414.834 621.346 415.788 623.028 416.46Z" fill="white" stroke="black" stroke-width="2"/>
    </g>
  </g>
</svg>