<?xml version="1.0" encoding="UTF-8" standalone="yes"?>
<svg width="100%" height="100%" viewBox="0 0 1179 1025" fill="none" xmlns="http://www.w3.org/2000/svg">
  <g id="Tesla Model Y">
    <g id="Frame 8">
      <g id="Vector_10">
        <path d="M716 372.778C721.746 370.832 727.841 370.201 733.936 370.045C736.29 369.985 738.703 369.985 741.064 370.045C747.159 370.201 753.254 370.832 759 372.778L757.693 374.68C752.831 372.971 747.092 372.132 741.004 371.946C738.703 371.879 736.305 371.879 733.996 371.946C727.908 372.132 722.169 372.971 717.307 374.68L716 372.778Z" fill="white"/>
        <path d="M718.316 376.284C722.073 374.762 727.663 374.256 731.739 374.145C733.098 374.108 734.285 374.108 735.184 374.145L737.5 377.116L739.816 374.145C743.41 374.011 751.672 374.256 756.684 376.284C755.993 377.599 752.994 379.493 751.338 379.909C751.242 377.324 747.597 376.76 744.093 376.76L737.5 412L730.907 376.76C727.403 376.76 723.758 377.324 723.662 379.909C722.013 379.493 719.007 377.599 718.316 376.284Z" fill="white"/>
      </g>
      <path id="Y" d="M742.83 406.022V416V417H743.83H751.03H752.03V416V405.727L760.713 390.873L761.593 389.368H759.85H751.75H751.152L750.869 389.894L747.466 396.219L744.062 389.894L743.779 389.368H743.182H734.902H733.165L734.037 390.87L742.83 406.022Z" fill="white" stroke="black" stroke-width="2"/>
    </g>
  </g>
</svg>