<?xml version="1.0" encoding="UTF-8" standalone="yes"?>
<svg width="100%" height="100%" viewBox="0 0 1179 1025" fill="none" xmlns="http://www.w3.org/2000/svg">
  <g id="VW ID.4">
    <g id="Frame 2">
      <path id="Vector_4" d="M738 128C725.317 128 715 138.318 715 151C715 163.682 725.317 174 738 174C750.683 174 761 163.682 761 151C761 138.318 750.683 128 738 128ZM743.873 132.94L738 146L732.127 132.94C733.978 132.336 735.95 132 738 132C740.05 132 742.022 132.336 743.873 132.94ZM728.241 134.728L735.398 150H740.601L747.758 134.728C749.888 136.011 751.743 137.694 753.224 139.681L744.353 159L740.66 152H735.34L731.647 159L722.775 139.681C724.256 137.695 726.111 136.011 728.241 134.728ZM719 151C719 148.652 719.448 146.413 720.23 144.335L731.144 168.7C731.151 168.703 731.158 168.705 731.165 168.708C724.06 165.955 719 159.065 719 151ZM731.185 168.715L738 156L744.815 168.715C742.696 169.533 740.404 170 738 170C735.596 170 733.304 169.533 731.185 168.715ZM744.834 168.708C744.841 168.705 744.848 168.703 744.855 168.7L755.77 144.335C756.552 146.413 757 148.652 757 151C757 159.065 751.94 165.955 744.834 168.708Z" fill="white"/>
      <path id="4" d="M738.409 168.794L738.25 168.962V169.144L737.699 170.36H738.25V173.212V174.212H739.25H750.274V178V179H751.274H758.294H759.294V178V174.212H760.418H761.418V173.212V167.308V166.308H760.418H759.294V163.024V162.024H758.294H751.274H751.208L755.493 152.789L756.153 151.368H754.586H746.954H746.31L746.043 151.955L738.409 168.794ZM750.274 164.037V166.308H749.221L750.274 164.037Z" fill="white" stroke="black" stroke-width="2"/>
    </g>
  </g>
</svg>