<?xml version="1.0" encoding="UTF-8" standalone="yes"?>
<svg width="100%" height="100%" viewBox="0 0 1179 1025" fill="none" xmlns="http://www.w3.org/2000/svg">
  <g id="VW ID.3">
    <g id="Frame 1">
      <path id="Vector_3" d="M618 128C605.317 128 595 138.318 595 151C595 163.682 605.317 174 618 174C630.683 174 641 163.682 641 151C641 138.318 630.683 128 618 128ZM623.873 132.94L618 146L612.127 132.94C613.978 132.336 615.95 132 618 132C620.05 132 622.022 132.336 623.873 132.94ZM608.241 134.728L615.398 150H620.601L627.758 134.728C629.888 136.011 631.743 137.694 633.224 139.681L624.353 159L620.66 152H615.34L611.647 159L602.775 139.681C604.256 137.695 606.111 136.011 608.241 134.728ZM599 151C599 148.652 599.448 146.413 600.23 144.335L611.144 168.7C611.151 168.703 611.158 168.705 611.165 168.708C604.06 165.955 599 159.065 599 151ZM611.185 168.715L618 156L624.815 168.715C622.696 169.533 620.404 170 618 170C615.596 170 613.304 169.533 611.185 168.715ZM624.834 168.708C624.841 168.705 624.848 168.703 624.855 168.7L635.77 144.335C636.552 146.413 637 148.652 637 151C637 159.065 631.94 165.955 624.834 168.708Z" fill="white"/>
      <path id="3" d="M624.028 177.46L624.037 177.464L624.045 177.467C625.751 178.113 627.576 178.432 629.512 178.432C631.784 178.432 633.806 178.041 635.55 177.222C637.304 176.41 638.693 175.263 639.671 173.77C640.676 172.248 641.168 170.505 641.168 168.576C641.168 166.912 640.842 165.421 640.148 164.142C639.467 162.864 638.525 161.859 637.322 161.16C636.93 160.932 636.523 160.742 636.101 160.59L640.107 156.065L640.52 155.905V155.599L641.731 154.23L640.52 154.225V151.368V150.368H639.52H622.348H621.348V151.368V157.272V158.272H622.348H627.919L625.437 161.197L625.2 161.477V161.844V165.696V167.342L626.616 166.606C626.775 166.547 627.06 166.481 627.514 166.44L627.533 166.438L627.553 166.436C628.069 166.368 628.541 166.336 628.972 166.336C629.747 166.336 630.363 166.444 630.845 166.629C631.323 166.813 631.635 167.057 631.838 167.333C632.03 167.593 632.148 167.929 632.148 168.396C632.148 168.863 632.03 169.199 631.838 169.459L631.828 169.473L631.818 169.487C631.629 169.764 631.348 169.997 630.927 170.173L630.92 170.176L630.913 170.179C630.509 170.355 630.013 170.456 629.404 170.456C628.659 170.456 627.932 170.307 627.216 170.002C626.495 169.67 626.034 169.29 625.756 168.898L625.076 167.939L624.238 168.763L619.738 173.191L619.035 173.883L619.717 174.596C620.903 175.834 622.346 176.788 624.028 177.46Z" fill="white" stroke="black" stroke-width="2"/>
    </g>
  </g>
</svg>