<?xml version="1.0" encoding="UTF-8" standalone="yes"?>
<svg width="100%" height="100%" viewBox="0 0 1179 1025" fill="none" xmlns="http://www.w3.org/2000/svg">
  <g id="VW Polo GP">
    <g id="Frame 4">
      <path id="Vector_6" d="M617 248C604.317 248 594 258.318 594 271C594 283.682 604.317 294 617 294C629.683 294 640 283.682 640 271C640 258.318 629.683 248 617 248ZM622.873 252.94L617 266L611.127 252.94C612.978 252.336 614.95 252 617 252C619.05 252 621.022 252.336 622.873 252.94ZM607.241 254.728L614.398 270H619.601L626.758 254.728C628.888 256.011 630.743 257.694 632.224 259.681L623.353 279L619.66 272H614.34L610.647 279L601.775 259.681C603.256 257.695 605.111 256.011 607.241 254.728ZM598 271C598 268.652 598.448 266.413 599.23 264.335L610.144 288.7C610.151 288.703 610.158 288.705 610.165 288.708C603.06 285.955 598 279.065 598 271ZM610.185 288.715L617 276L623.815 288.715C621.696 289.533 619.404 290 617 290C614.596 290 612.304 289.533 610.185 288.715ZM623.834 288.708C623.841 288.705 623.848 288.703 623.855 288.7L634.77 264.335C635.552 266.413 636 268.652 636 271C636 279.065 630.94 285.955 623.834 288.708Z" fill="white"/>
      <path id="GP" d="M612.991 293.569L612.999 293.572L613.007 293.575C614.267 294.054 615.621 294.288 617.059 294.288C618.978 294.288 620.705 293.881 622.205 293.031C623.728 292.179 624.903 290.935 625.723 289.331C625.935 288.925 626.119 288.5 626.275 288.056L626.76 288.071V293V294H627.76H632.56H633.56V293V288H635.68C636.917 288 638.063 287.757 639.096 287.25L639.096 287.25L639.103 287.246C640.159 286.718 641.004 285.954 641.616 284.962C642.259 283.946 642.56 282.763 642.56 281.456C642.56 280.139 642.261 278.952 641.614 277.946C641.002 276.956 640.157 276.2 639.1 275.688C638.066 275.164 636.919 274.912 635.68 274.912H633.56H632.56H631.648H630.648H627.76H626.76V275.912V281.92H625.963H622.737L625.302 279.355L625.952 278.705L625.359 278.003C624.462 276.942 623.307 276.119 621.92 275.522C620.528 274.916 618.973 274.624 617.275 274.624C615.849 274.624 614.495 274.868 613.222 275.362C611.958 275.837 610.834 276.517 609.858 277.404C608.894 278.279 608.135 279.316 607.583 280.508L607.583 280.508L607.578 280.519C607.036 281.731 606.771 283.048 606.771 284.456C606.771 285.845 607.026 287.15 607.549 288.357C608.065 289.549 608.789 290.596 609.718 291.489L609.718 291.489L609.725 291.495C610.667 292.385 611.759 293.075 612.991 293.569ZM626.76 287.297L626.548 287.162C626.631 286.839 626.702 286.508 626.76 286.169V287.297ZM633.56 282.544V280.368H634.744C634.961 280.368 635.136 280.414 635.286 280.493L635.313 280.507L635.341 280.52C635.463 280.575 635.568 280.662 635.662 280.819L635.668 280.828L635.674 280.838C635.74 280.942 635.808 281.127 635.808 281.456C635.808 281.775 635.744 281.977 635.668 282.108C635.576 282.25 635.462 282.353 635.314 282.429C635.158 282.501 634.973 282.544 634.744 282.544H633.56ZM619.042 281.237C619.354 281.401 619.673 281.626 619.997 281.92H616.483H615.483V282.92V286.76V287.728C615.411 287.694 615.342 287.658 615.275 287.62C614.768 287.33 614.371 286.931 614.075 286.405C613.797 285.868 613.643 285.22 613.643 284.432C613.643 283.655 613.808 283.028 614.103 282.518C614.428 281.983 614.848 281.585 615.37 281.306L615.378 281.302L615.386 281.297C615.914 281.003 616.512 280.848 617.203 280.848C617.975 280.848 618.576 280.993 619.042 281.237L619.507 280.352L619.042 281.237ZM617.131 288.064C616.484 288.064 615.944 287.946 615.488 287.73L616.453 287.76L618.548 287.823C618.178 287.974 617.714 288.064 617.131 288.064Z" fill="white" stroke="black" stroke-width="2"/>
    </g>
  </g>
</svg>