<?xml version="1.0" encoding="UTF-8" standalone="yes"?>
<svg width="100%" height="100%" viewBox="0 0 1179 1025" fill="none" xmlns="http://www.w3.org/2000/svg">
  <g id="VW Polo">
    <g id="Frame 3">
      <path id="Vector_5" d="M858 128C845.317 128 835 138.318 835 151C835 163.682 845.317 174 858 174C870.683 174 881 163.682 881 151C881 138.318 870.683 128 858 128ZM863.873 132.94L858 146L852.127 132.94C853.978 132.336 855.95 132 858 132C860.05 132 862.022 132.336 863.873 132.94ZM848.241 134.728L855.398 150H860.601L867.758 134.728C869.888 136.011 871.743 137.694 873.224 139.681L864.353 159L860.66 152H855.34L851.647 159L842.775 139.681C844.256 137.695 846.111 136.011 848.241 134.728ZM839 151C839 148.652 839.448 146.413 840.23 144.335L851.144 168.7C851.151 168.703 851.158 168.705 851.165 168.708C844.06 165.955 839 159.065 839 151ZM851.185 168.715L858 156L864.815 168.715C862.696 169.533 860.404 170 858 170C855.596 170 853.304 169.533 851.185 168.715ZM864.834 168.708C864.841 168.705 864.848 168.703 864.855 168.7L875.77 144.335C876.552 146.413 877 148.652 877 151C877 159.065 871.94 165.955 864.834 168.708Z" fill="white"/>
      <path id="P" d="M867.84 178V170H871.52C873.309 170 874.951 169.649 876.424 168.926L876.424 168.926L876.431 168.922C877.935 168.17 879.132 167.086 880 165.678C880.907 164.246 881.34 162.567 881.34 160.684C881.34 158.783 880.909 157.1 879.997 155.686C879.13 154.28 877.933 153.208 876.428 152.48C874.954 151.732 873.311 151.368 871.52 151.368H867.84H866.84H865.472H864.472H859.64H858.64V152.368V178V179H859.64H866.84H867.84V178ZM867.84 162.816V158.552H870.116C870.517 158.552 870.86 158.638 871.162 158.797L871.189 158.811L871.217 158.824C871.499 158.951 871.732 159.154 871.922 159.471L871.928 159.48L871.934 159.49C872.096 159.746 872.212 160.123 872.212 160.684C872.212 161.236 872.099 161.634 871.928 161.924C871.74 162.218 871.498 162.437 871.19 162.593C870.882 162.737 870.529 162.816 870.116 162.816H867.84Z" fill="white" stroke="black" stroke-width="2"/>
    </g>
  </g>
</svg>