<?xml version="1.0" encoding="UTF-8" standalone="yes"?>
<svg width="100%" height="100%" viewBox="0 0 1179 1025" fill="none" xmlns="http://www.w3.org/2000/svg">
  <g id="VW Taigo">
    <g id="Frame 5">
      <path id="Vector_7" d="M737 248C724.317 248 714 258.318 714 271C714 283.682 724.317 294 737 294C749.683 294 760 283.682 760 271C760 258.318 749.683 248 737 248ZM742.873 252.94L737 266L731.127 252.94C732.978 252.336 734.95 252 737 252C739.05 252 741.022 252.336 742.873 252.94ZM727.241 254.728L734.398 270H739.601L746.758 254.728C748.888 256.011 750.743 257.694 752.224 259.681L743.353 279L739.66 272H734.34L730.647 279L721.775 259.681C723.256 257.695 725.111 256.011 727.241 254.728ZM718 271C718 268.652 718.448 266.413 719.23 264.335L730.144 288.7C730.151 288.703 730.158 288.705 730.165 288.708C723.06 285.955 718 279.065 718 271ZM730.185 288.715L737 276L743.815 288.715C741.696 289.533 739.404 290 737 290C734.596 290 732.304 289.533 730.185 288.715ZM743.834 288.708C743.841 288.705 743.848 288.703 743.855 288.7L754.77 264.335C755.552 266.413 756 268.652 756 271C756 279.065 750.94 285.955 743.834 288.708Z" fill="white"/>
      <path id="T" d="M745.514 298V299H746.514H753.714H754.714V298V279.488H761.418H762.418V278.488V272.368V271.368H761.418H754.714H753.714H746.514H745.514H738.846H737.846V272.368V278.488V279.488H738.846H745.514V298Z" fill="white" stroke="black" stroke-width="2"/>
    </g>
  </g>
</svg>