<svg width="120" height="120" viewBox="0 0 120 120" fill="none" xmlns="http://www.w3.org/2000/svg">
<g filter="url(#filter0_d_56_76)">
<circle cx="49.5" cy="59.5" r="20.5" fill="#37DFA3"/>
<path d="M45.4115 72.6962L45.416 72.6979C45.6053 72.7681 45.799 72.8 45.9858 72.8C46.4711 72.8 46.9785 72.5811 47.2968 72.1303L47.2988 72.1275L56.6696 58.7575L56.6696 58.7575L56.6726 58.7532C57.0047 58.274 57.0396 57.6409 56.7284 57.1231C56.4285 56.6241 55.8878 56.3604 55.3565 56.3604H52.0632L53.9768 48.0696L53.9774 48.0672C54.1575 47.2774 53.6849 46.57 53.02 46.3113C52.3692 46.0574 51.5907 46.2436 51.1466 46.8286L51.1466 46.8286L51.1411 46.8359L41.1847 60.2059L41.1844 60.2062C40.8294 60.6834 40.782 61.3283 41.0897 61.8565C41.3867 62.3706 41.9343 62.6388 42.4717 62.6388H46.351L44.4404 70.9254C44.4402 70.9263 44.44 70.9272 44.4398 70.9281C44.2528 71.7289 44.741 72.4438 45.4115 72.6962Z" fill="white" stroke="black" stroke-width="2"/>
</g>
<g filter="url(#filter1_d_56_76)">
<circle cx="70.5" cy="59.5" r="20.5" fill="#37DFA3"/>
<path d="M66.4115 72.6962L66.416 72.6979C66.6053 72.7681 66.799 72.8 66.9858 72.8C67.4711 72.8 67.9785 72.5811 68.2968 72.1303L68.2988 72.1275L77.6696 58.7575L77.6696 58.7575L77.6726 58.7532C78.0047 58.274 78.0396 57.6409 77.7284 57.1231C77.4285 56.6241 76.8878 56.3604 76.3565 56.3604H73.0632L74.9768 48.0696L74.9774 48.0672C75.1575 47.2774 74.6849 46.57 74.02 46.3113C73.3692 46.0574 72.5907 46.2436 72.1466 46.8286L72.1466 46.8286L72.1411 46.8359L62.1847 60.2059L62.1844 60.2062C61.8294 60.6834 61.782 61.3283 62.0897 61.8565C62.3867 62.3706 62.9343 62.6388 63.4717 62.6388H67.351L65.4404 70.9254C65.4402 70.9263 65.44 70.9272 65.4398 70.9281C65.2528 71.7289 65.741 72.4438 66.4115 72.6962Z" fill="white" stroke="black" stroke-width="2"/>
</g>
<defs>
<filter id="filter0_d_56_76" x="25" y="35" width="49" height="49" filterUnits="userSpaceOnUse" color-interpolation-filters="sRGB">
<feFlood flood-opacity="0" result="BackgroundImageFix"/>
<feColorMatrix in="SourceAlpha" type="matrix" values="0 0 0 0 0 0 0 0 0 0 0 0 0 0 0 0 0 0 127 0" result="hardAlpha"/>
<feOffset/>
<feGaussianBlur stdDeviation="2"/>
<feComposite in2="hardAlpha" operator="out"/>
<feColorMatrix type="matrix" values="0 0 0 0 0 0 0 0 0 0 0 0 0 0 0 0 0 0 0.25 0"/>
<feBlend mode="normal" in2="BackgroundImageFix" result="effect1_dropShadow_56_76"/>
<feBlend mode="normal" in="SourceGraphic" in2="effect1_dropShadow_56_76" result="shape"/>
</filter>
<filter id="filter1_d_56_76" x="46" y="35" width="49" height="49" filterUnits="userSpaceOnUse" color-interpolation-filters="sRGB">
<feFlood flood-opacity="0" result="BackgroundImageFix"/>
<feColorMatrix in="SourceAlpha" type="matrix" values="0 0 0 0 0 0 0 0 0 0 0 0 0 0 0 0 0 0 127 0" result="hardAlpha"/>
<feOffset/>
<feGaussianBlur stdDeviation="2"/>
<feComposite in2="hardAlpha" operator="out"/>
<feColorMatrix type="matrix" values="0 0 0 0 0 0 0 0 0 0 0 0 0 0 0 0 0 0 0.25 0"/>
<feBlend mode="normal" in2="BackgroundImageFix" result="effect1_dropShadow_56_76"/>
<feBlend mode="normal" in="SourceGraphic" in2="effect1_dropShadow_56_76" result="shape"/>
</filter>
</defs>
</svg>
