<?xml version="1.0" encoding="UTF-8" standalone="yes"?>
<svg width="120" height="120" viewBox="0 0 120 120" fill="none" xmlns="http://www.w3.org/2000/svg">
  <g id="black_full" clip-path="url(#clip0_0_1)">
    <mask id="mask0_0_1" style="mask-type:alpha" maskUnits="userSpaceOnUse" x="121" y="120" width="86" height="107">
      <path id="Union" d="M167.438 223.089C173.641 216.924 185.753 204.671 190.473 198.866C197.137 190.67 201.181 184.397 203.534 178.575C205.912 172.692 206.5 167.423 206.5 161.37C206.5 140.802 187.779 120.5 164 120.5C140.221 120.5 121.5 140.802 121.5 161.37C121.5 167.449 122.195 172.982 124.614 178.996C127.016 184.969 131.061 191.273 137.552 199.003C140.884 202.97 147.538 209.939 153.295 215.854C156.187 218.826 158.873 221.553 160.837 223.538C161.819 224.53 162.62 225.337 163.177 225.896C163.455 226.175 163.672 226.393 163.819 226.541L164.041 226.763L164.045 226.767C164.045 226.767 164.045 226.767 165.813 225C167.582 223.233 167.582 223.233 167.582 223.233L167.438 223.089Z" fill="black"/>
    </mask>
    <g mask="url(#mask0_0_1)">
      <g id="Group 1">
        <path id="lower part" fill-rule="evenodd" clip-rule="evenodd" d="M163.919 223.92C163.946 223.947 163.973 223.973 164 224L164.319 223.526C195.421 192.882 203.503 181.414 204 164.75H203.837H124C124.497 181.414 132.418 192.882 163.518 223.526L163.837 224C163.864 223.973 163.891 223.947 163.919 223.92Z" fill="#111111"/>
        <circle id="circle" cx="164" cy="164" r="40" fill="#111111"/>
      </g>
    </g>
  </g>
</svg>