<?xml version="1.0" encoding="UTF-8" standalone="yes"?>
<svg width="119" height="119" viewBox="0 0 119 119" fill="none" xmlns="http://www.w3.org/2000/svg">
  <g id="white_full" transform="translate(-104.5 -344.5)">
    <g clip-path="url(#clip1_0_1)">
      <mask id="mask1_0_1" style="mask-type:alpha" maskUnits="userSpaceOnUse" x="121" y="360" width="86" height="107">
        <path id="Union_2" d="M167.438 463.089C173.641 456.924 185.753 444.671 190.473 438.866C197.137 430.67 201.181 424.397 203.534 418.575C205.912 412.692 206.5 407.423 206.5 401.37C206.5 380.802 187.779 360.5 164 360.5C140.221 360.5 121.5 380.802 121.5 401.37C121.5 407.449 122.195 412.982 124.614 418.996C127.016 424.969 131.061 431.273 137.552 439.003C140.884 442.97 147.538 449.939 153.295 455.854C156.187 458.826 158.873 461.553 160.837 463.538C161.819 464.53 162.62 465.337 163.177 465.896C163.455 466.175 163.672 466.393 163.819 466.541L164.041 466.763L164.045 466.767C164.045 466.767 164.045 466.767 165.813 465C167.582 463.233 167.582 463.233 167.582 463.233L167.438 463.089Z" fill="black"/>
      </mask>
      <g mask="url(#mask1_0_1)">
        <g id="Group 1_2">
          <path id="lower part_2" fill-rule="evenodd" clip-rule="evenodd" d="M163.919 463.92C163.946 463.947 163.973 463.973 164 464L164.319 463.526C195.421 432.882 203.503 421.414 204 404.75H203.837H124C124.497 421.414 132.418 432.882 163.518 463.526L163.837 464C163.864 463.973 163.891 463.947 163.919 463.92Z" fill="white"/>
          <circle id="circle_2" cx="164" cy="404" r="40" fill="white"/>
        </g>
      </g>
    </g>
  </g>
</svg>