<svg width="120" height="120" viewBox="0 0 120 120" fill="none" xmlns="http://www.w3.org/2000/svg">
<path d="M81.7883 55.8537C81.6346 55.8537 81.5558 55.8738 81.4835 56.0245C81.2464 56.5048 78.3533 61.0862 77.8146 61.9761C77.7239 62.1114 77.6129 62.0927 77.6004 61.9386C77.5459 61.4096 77.1136 60.803 76.433 60.5121C75.9147 60.2893 75.4076 60.249 74.8807 60.3226C73.9295 60.4587 73.0814 60.989 72.3358 61.5866C71.2124 62.4897 70.2434 63.6587 68.992 64.5236C68.3088 64.9942 67.3733 65.4044 66.7479 64.7915C66.181 64.2369 66.2453 63.0041 67.1118 62.051C67.2031 61.9511 67.3129 62.0344 67.2958 62.1246C67.2143 62.5557 67.3142 62.984 67.6236 63.2845C68.002 63.6427 68.5426 63.6836 69.0058 63.4449C69.5523 63.1582 69.8736 62.6056 69.9675 61.9788C70.112 61.0057 69.4032 60.1477 68.5164 60.079C67.7964 60.0255 67.1059 60.2907 66.4326 60.8779C66.0956 61.1729 65.9031 61.3916 65.6114 61.8303C65.5405 61.9386 65.4314 61.9497 65.434 61.79C65.4688 60.5447 64.9807 59.8437 64.0059 59.8208C63.2497 59.802 62.4417 60.2351 61.8117 60.7662C61.1213 61.352 60.5175 62.1281 59.8705 62.8583C59.7903 62.9479 59.72 62.9437 59.6977 62.7695C59.678 61.9441 59.4816 61.1452 59.1196 60.5774C58.9922 60.3795 58.7235 60.2824 58.4975 60.4156C58.3924 60.476 58.0291 60.653 57.765 60.8779C57.6336 60.9918 57.5824 61.157 57.6402 61.3694C57.9897 62.6022 57.9128 64.003 57.4392 65.1879C57.0043 66.2714 56.1601 67.2495 55.1675 67.5806C54.5132 67.7999 53.8333 67.6923 53.4128 67.0801C52.8347 66.2332 53.0679 64.7637 53.9285 63.542C54.6893 62.4675 55.789 61.7845 56.8854 61.3444C57.0148 61.2916 57.0411 61.2042 57.0043 61.0882C56.9445 60.8974 56.8499 60.6384 56.8111 60.5198C56.7106 60.2372 56.4288 60.1914 56.0852 60.2303C55.2884 60.3289 54.569 60.6169 53.8589 61.0188C52.0004 62.0712 51.0676 64.1078 50.659 65.1969C50.4626 65.7196 50.2937 66.0465 50.0769 66.336C49.7839 66.7254 49.4161 67.0801 48.7427 67.7041C48.6823 67.7617 48.6369 67.8804 48.6875 67.9915C48.7565 68.1421 49.1066 68.6634 49.2052 68.7106C49.3149 68.7675 49.4417 68.6877 49.4929 68.6495C49.9633 68.3122 50.5269 67.7777 50.8022 67.4147C50.8994 67.2911 50.9986 67.3439 51.0492 67.532C51.3074 68.5017 51.9807 69.2937 52.9123 69.6241C54.617 70.2315 56.3861 69.352 57.7203 67.8214C58.5691 66.8489 58.8752 66.2228 59.1997 65.7973C59.7509 65.0761 60.8381 63.4622 62.1323 62.4259C62.6073 62.0441 63.1696 61.7525 63.4521 61.9462C63.678 62.101 63.7516 62.462 63.3883 63.161C62.0679 65.7078 60.1254 68.7002 59.77 69.4263C59.7049 69.5519 59.7614 69.6512 59.8862 69.6512C60.5767 69.6479 61.2612 69.6501 61.8886 69.6501C61.993 69.6446 62.0397 69.5939 62.0922 69.5168C63.1052 67.8412 64.0584 66.2454 65.0799 64.5968C65.1378 64.5003 65.1903 64.5759 65.1923 64.6176C65.2133 65.0008 65.3026 65.5234 65.5175 65.867C65.9031 66.5022 66.451 66.7757 67.058 66.7792C67.5408 66.7854 67.7852 66.7077 68.3061 66.5022C68.7299 66.3363 69.0701 66.1183 69.3316 65.9205C69.484 65.8087 69.5109 65.9962 69.507 66.0253C69.2725 67.3553 69.5615 68.9317 70.813 69.5849C72.3108 70.3651 73.9551 69.2683 74.9017 68.2792C74.9944 68.1827 75.0936 68.1931 75.1028 68.3986C75.1231 68.7769 75.2847 69.2253 75.5803 69.5384C76.3739 70.3804 77.9742 70.0465 79.5804 68.7332C80.6111 67.8919 81.6905 66.7035 82.6654 65.445C82.7015 65.3964 82.7284 65.318 82.6588 65.2395C82.5103 65.075 82.2955 64.8876 82.1483 64.7425C82.0813 64.6828 81.9835 64.7002 81.9263 64.7453C80.9271 65.7491 80.0278 66.8944 78.7277 67.8412C78.2895 68.1633 77.5912 68.425 77.2772 67.9759C77.155 67.8023 77.1688 67.5608 77.289 67.2449C77.6681 66.2454 83.6685 56.5933 83.9799 56.0248C84.0331 55.9249 83.9767 55.8527 83.8583 55.8527C83.2415 55.8527 82.4315 55.8543 81.7884 55.8543M72.2786 67.7165C71.9699 67.5479 71.8365 67.0911 71.8431 66.7211C71.8588 65.6834 72.2944 64.6158 73.1024 63.5683C74.0871 62.2876 75.1757 61.6227 75.8898 61.9857C76.6288 62.3591 76.393 63.2629 76.0619 63.9723C76.0376 64.0279 76.0356 64.0744 76.0487 64.1188C76.0612 64.1931 76.1525 64.2646 76.2419 64.2986C76.2728 64.3111 76.2905 64.3347 76.255 64.4124C76.0001 64.9899 75.765 65.3231 75.445 65.825C75.1514 66.2894 74.8203 66.651 74.4189 66.9988C73.9525 67.4069 73.3448 67.8436 72.7733 67.8436C72.6038 67.8436 72.4376 67.8054 72.2786 67.7165Z" fill="white"/>
<path d="M48.1685 50.0729C44.4812 50.4012 40.9719 52.594 40.9653 55.9245C40.9621 57.6134 42.0978 58.9822 43.8584 58.9218C45.9271 58.8483 47.6259 57.0969 48.5147 54.8882C48.8524 54.0503 48.227 53.7026 47.9301 54.185C47.3993 55.0541 46.651 55.7288 45.8423 56.1474C44.8688 56.6506 43.8282 56.5152 43.5129 55.6795C43.0694 54.5015 43.9911 52.7384 46.0946 51.9082C49.1336 50.7199 52.3131 51.5063 55.3718 52.1137C55.4158 52.1137 55.5787 52.2088 55.4349 52.2886C54.8863 52.6038 54.3476 52.8606 53.5074 53.6248C52.905 54.1697 52.116 54.8958 51.5058 55.6864C50.9007 56.4653 50.4711 57.1608 49.9028 57.9306C49.8247 58.0424 49.7268 58.0368 49.7281 58.0368C48.3439 58.2839 46.9887 58.4491 45.7484 59.3605C45.4915 59.548 45.3799 59.8798 45.5362 60.1345C45.6755 60.3601 45.9954 60.3837 46.2175 60.2129C46.9887 59.6042 47.7823 59.3168 48.6921 59.2904C48.7322 59.2932 48.7506 59.3002 48.7617 59.3258C48.769 59.3404 48.7649 59.3709 48.7486 59.3938C47.3848 61.3916 47.0439 61.8435 46.0184 63.0825C45.4942 63.719 44.9778 64.257 44.4017 64.8158C42.0729 67.1016 39.5686 67.0627 38.67 65.6286C38.1332 64.77 38.2042 63.8662 38.5563 63.1172C38.9886 62.1995 39.8649 61.5276 40.5921 61.1347C40.8628 60.989 40.9403 60.6238 40.6703 60.2913C40.4975 60.0741 40.0811 60.0352 39.7703 60.0963C38.8165 60.2823 37.6892 61.0438 37.0237 61.9601C36.2735 62.9895 35.8984 64.2389 36.0238 65.6397C36.2505 68.1692 38.2206 69.6303 40.4581 69.613C42.2391 69.5984 43.9162 69.0292 45.9343 66.8642C47.8151 64.8449 49.529 61.8296 51.1333 59.0336C51.1838 58.944 51.22 58.8961 51.463 58.8642C52.4695 58.7309 53.9555 58.5796 54.9087 58.5213C55.1202 58.5095 55.1629 58.5116 55.2476 58.6233C55.496 58.9537 55.8684 59.2356 56.1673 59.4056C56.3125 59.4896 56.3822 59.5306 56.4965 59.5333C56.637 59.5361 56.7474 59.4556 56.8184 59.3709C56.9195 59.2536 56.9471 59.1009 56.8926 59.0023C56.8354 58.8982 56.1706 58.5095 56.1516 58.3519C56.1371 58.254 56.2389 58.2298 56.2389 58.2298C56.727 58.068 57.2349 57.7355 57.543 57.1122C57.8451 56.4986 57.8944 55.6809 57.3406 55.2248C56.8558 54.825 56.122 54.8881 55.536 55.4435C54.9632 55.9828 54.774 56.7665 54.8515 57.4544C54.8646 57.5731 54.8588 57.6134 54.7057 57.6272C53.8247 57.7008 52.9766 57.7272 52.0339 57.7799C51.9702 57.7849 51.9505 57.7404 51.9873 57.6946C53.0732 55.6996 54.6951 54.2801 56.4892 52.8814C56.6081 52.7877 56.5713 52.6079 56.5667 52.4587C59.8061 53.2021 62.9363 54.5862 66.2972 54.5563C67.6866 54.5445 69.0176 54.321 70.2887 53.5845C71.4068 52.9397 71.8608 52.3434 71.8943 51.7243C71.9199 51.2953 71.6387 51.0252 71.2373 51.1169C67.8416 51.9415 64.603 51.9325 61.225 51.5007C57.3905 51.0086 53.7104 50 49.8962 50C49.3234 50 48.748 50.0222 48.1685 50.0729ZM55.7502 57.1885C55.7009 56.8088 55.8178 56.3 56.2015 55.9419C56.3946 55.7614 56.6548 55.7204 56.8144 55.8655C56.9937 56.0272 56.909 56.4298 56.7283 56.7096C56.5306 57.0171 56.1962 57.2829 55.8907 57.3475C55.8822 57.3492 55.8737 57.3497 55.8658 57.3497C55.8145 57.3497 55.7725 57.3121 55.7502 57.1885Z" fill="white"/>
</svg>
