<svg width="120" height="120" viewBox="0 0 120 120" fill="none" xmlns="http://www.w3.org/2000/svg">
<path d="M60 34C47.317 34 37 44.318 37 57C37 69.682 47.317 80 60 80C72.683 80 83 69.682 83 57C83 44.318 72.683 34 60 34ZM65.873 38.94L60 52L54.127 38.94C55.978 38.336 57.95 38 60 38C62.05 38 64.022 38.336 65.873 38.94ZM50.241 40.728L57.398 56H62.601L69.758 40.728C71.888 42.011 73.743 43.694 75.224 45.681L66.353 65L62.66 58H57.34L53.647 65L44.775 45.681C46.256 43.695 48.111 42.011 50.241 40.728ZM41 57C41 54.652 41.448 52.413 42.23 50.335L53.144 74.7C53.151 74.703 53.158 74.705 53.165 74.708C46.06 71.955 41 65.065 41 57ZM53.185 74.715L60 62L66.815 74.715C64.696 75.533 62.404 76 60 76C57.596 76 55.304 75.533 53.185 74.715ZM66.834 74.708C66.841 74.705 66.848 74.703 66.855 74.7L77.77 50.335C78.552 52.413 79 54.652 79 57C79 65.065 73.94 71.955 66.834 74.708Z" fill="white"/>
<path d="M60.4087 74.7941L60.2501 74.9615V75.1439L59.6987 76.36H60.2501V79.212V80.212H61.2501H72.2741V84V85H73.2741H80.2941H81.2941V84V80.212H82.4181H83.4181V79.212V73.308V72.308H82.4181H81.2941V69.024V68.024H80.2941H73.2741H73.2083L77.4932 58.7889L78.1525 57.368H76.5861H68.9541H68.3095L68.0433 57.9551L60.4087 74.7941ZM72.2741 70.0374V72.308H71.2206L72.2741 70.0374Z" fill="white" stroke="black" stroke-width="2"/>
</svg>
