<svg width="120" height="120" viewBox="0 0 120 120" fill="none" xmlns="http://www.w3.org/2000/svg">
<path d="M59 34C46.317 34 36 44.318 36 57C36 69.682 46.317 80 59 80C71.683 80 82 69.682 82 57C82 44.318 71.683 34 59 34ZM64.873 38.94L59 52L53.127 38.94C54.978 38.336 56.95 38 59 38C61.05 38 63.022 38.336 64.873 38.94ZM49.241 40.728L56.398 56H61.601L68.758 40.728C70.888 42.011 72.743 43.694 74.224 45.681L65.353 65L61.66 58H56.34L52.647 65L43.775 45.681C45.256 43.695 47.111 42.011 49.241 40.728ZM40 57C40 54.652 40.448 52.413 41.23 50.335L52.144 74.7C52.151 74.703 52.158 74.705 52.165 74.708C45.06 71.955 40 65.065 40 57ZM52.185 74.715L59 62L65.815 74.715C63.696 75.533 61.404 76 59 76C56.596 76 54.304 75.533 52.185 74.715ZM65.834 74.708C65.841 74.705 65.848 74.703 65.855 74.7L76.77 50.335C77.552 52.413 78 54.652 78 57C78 65.065 72.94 71.955 65.834 74.708Z" fill="white"/>
<path d="M54.9914 79.5685L54.9993 79.5716L55.0073 79.5747C56.2669 80.0537 57.6206 80.288 59.0588 80.288C60.9781 80.288 62.7046 79.8807 64.2055 79.0313C65.7283 78.1787 66.9026 76.9349 67.7232 75.3311C67.9352 74.9247 68.119 74.4995 68.2753 74.0563L68.7598 74.0709V79V80H69.7598H74.5598H75.5598V79V74H77.6798C78.9171 74 80.0629 73.7571 81.0964 73.2497L81.0964 73.2497L81.103 73.2464C82.1591 72.7184 83.0038 71.9541 83.6158 70.962C84.2591 69.9456 84.5598 68.7626 84.5598 67.456C84.5598 66.1388 84.2614 64.9523 83.6135 63.9464C83.0017 62.9561 82.1568 62.1997 81.0998 61.6879C80.0659 61.1636 78.9188 60.912 77.6798 60.912H75.5598H74.5598H73.6478H72.6478H69.7598H68.7598V61.912V67.92H67.9628H64.737L67.3019 65.3551L67.952 64.705L67.3586 64.0026C66.4625 62.9419 65.3066 62.1193 63.9201 61.5223C62.5277 60.9158 60.9731 60.624 59.2748 60.624C57.8486 60.624 56.4948 60.8676 55.222 61.3618C53.9579 61.8366 52.8339 62.517 51.8584 63.4037C50.8941 64.2788 50.1347 65.3162 49.5832 66.5081L49.5831 66.508L49.5781 66.5193C49.0355 67.7311 48.7708 69.0479 48.7708 70.456C48.7708 71.8453 49.0264 73.1498 49.549 74.3572C50.0651 75.5494 50.7889 76.5958 51.7176 77.4888L51.7176 77.4889L51.7245 77.4954C52.6671 78.3846 53.7588 79.0755 54.9914 79.5685ZM68.7598 73.2969L68.5476 73.1622C68.6311 72.8394 68.7017 72.5082 68.7598 72.1688V73.2969ZM75.5598 68.544V66.368H76.7438C76.9613 66.368 77.1358 66.4138 77.286 66.4929L77.3133 66.5073L77.3414 66.5199C77.4632 66.5747 77.5682 66.6618 77.6623 66.8185L77.6681 66.8283L77.6743 66.838C77.7399 66.9419 77.8078 67.1269 77.8078 67.456C77.8078 67.7749 77.7439 67.9769 77.6678 68.1081C77.5757 68.2504 77.4618 68.353 77.314 68.4288C77.158 68.5009 76.973 68.544 76.7438 68.544H75.5598ZM61.0419 67.2374C61.3544 67.4014 61.6733 67.6261 61.997 67.92H58.4828H57.4828V68.92V72.76V73.7281C57.4114 73.6943 57.3422 73.6582 57.2749 73.6198C56.7677 73.3299 56.371 72.9308 56.0747 72.4046C55.797 71.8682 55.6428 71.2199 55.6428 70.432C55.6428 69.6547 55.8082 69.0283 56.103 68.518C56.4284 67.9826 56.8482 67.5851 57.3704 67.3058L57.3783 67.3016L57.3861 67.2972C57.9139 67.0026 58.512 66.848 59.2028 66.848C59.975 66.848 60.5756 66.9926 61.0419 67.2374ZM59.1308 74.064C58.4845 74.064 57.9437 73.9456 57.4875 73.7304L58.4526 73.7595L60.5477 73.8228C60.178 73.9744 59.7136 74.064 59.1308 74.064Z" fill="white" stroke="black" stroke-width="2"/>
</svg>
