<svg width="120" height="120" viewBox="0 0 120 120" fill="none" xmlns="http://www.w3.org/2000/svg">
<path d="M43.5 42C38.8174 42 35 45.8174 35 50.5C35 55.1826 38.8174 59 43.5 59C45.5958 59 47.5155 58.2315 49 56.9668C50.4845 58.2315 52.4042 59 54.5 59C56.5958 59 58.5155 58.2315 60 56.9668C61.4845 58.2315 63.4042 59 65.5 59C67.5958 59 69.5155 58.2315 71 56.9668C72.4845 58.2315 74.4042 59 76.5 59C81.1826 59 85 55.1826 85 50.5C85 45.8174 81.1826 42 76.5 42C74.4042 42 72.4845 42.7685 71 44.0332C69.5155 42.7685 67.5958 42 65.5 42C63.4042 42 61.4845 42.7685 60 44.0332C58.5155 42.7685 56.5958 42 54.5 42C52.4042 42 50.4845 42.7685 49 44.0332C47.5155 42.7685 45.5958 42 43.5 42ZM43.5 44C45.0812 44 46.526 44.5587 47.6504 45.4902C46.6179 46.8974 46 48.6271 46 50.5C46 52.3729 46.6179 54.1026 47.6504 55.5098C46.526 56.4413 45.0812 57 43.5 57C39.8983 57 37 54.1017 37 50.5C37 46.8983 39.8983 44 43.5 44ZM54.5 44C56.0812 44 57.526 44.5587 58.6504 45.4902C57.6179 46.8974 57 48.6271 57 50.5C57 52.3729 57.6179 54.1026 58.6504 55.5098C57.526 56.4413 56.0812 57 54.5 57C52.9188 57 51.474 56.4413 50.3496 55.5098C51.3821 54.1026 52 52.3729 52 50.5C52 48.6271 51.3821 46.8974 50.3496 45.4902C51.474 44.5587 52.9188 44 54.5 44ZM65.5 44C67.0812 44 68.526 44.5587 69.6504 45.4902C68.6179 46.8974 68 48.6271 68 50.5C68 52.3729 68.6179 54.1026 69.6504 55.5098C68.526 56.4413 67.0812 57 65.5 57C63.9188 57 62.474 56.4413 61.3496 55.5098C62.3821 54.1026 63 52.3729 63 50.5C63 48.6271 62.3821 46.8974 61.3496 45.4902C62.474 44.5587 63.9188 44 65.5 44ZM76.5 44C80.1017 44 83 46.8983 83 50.5C83 54.1017 80.1017 57 76.5 57C74.9188 57 73.474 56.4413 72.3496 55.5098C73.3821 54.1026 74 52.3729 74 50.5C74 48.6271 73.3821 46.8974 72.3496 45.4902C73.474 44.5587 74.9188 44 76.5 44ZM49 47.0371C49.6305 48.0393 50 49.2234 50 50.5C50 51.7766 49.6305 52.9607 49 53.9629C48.3695 52.9607 48 51.7766 48 50.5C48 49.2234 48.3695 48.0393 49 47.0371ZM60 47.0371C60.6305 48.0393 61 49.2234 61 50.5C61 51.7766 60.6305 52.9607 60 53.9629C59.3695 52.9607 59 51.7766 59 50.5C59 49.2234 59.3695 48.0393 60 47.0371ZM71 47.0371C71.6305 48.0393 72 49.2234 72 50.5C72 51.7766 71.6305 52.9607 71 53.9629C70.3695 52.9607 70 51.7766 70 50.5C70 49.2234 70.3695 48.0393 71 47.0371Z" fill="white"/>
<path d="M64.3837 77.4245L64.3882 77.4263C66.2202 78.1488 68.2061 78.504 70.3351 78.504C72.4371 78.504 74.3965 78.1618 76.2029 77.465L76.203 77.4651L76.2145 77.4605C76.6758 77.276 77.1226 77.0724 77.5548 76.8499L80.752 80.0471L81.4591 80.7542L82.1662 80.0471L86.0542 76.1591L86.7613 75.452L86.0542 74.7449L83.0696 71.7603C83.4373 71.1586 83.7596 70.5267 84.0363 69.8651C84.7878 68.1016 85.1591 66.2042 85.1591 64.184C85.1591 62.1438 84.7892 60.2457 84.0363 58.503C83.3128 56.7488 82.276 55.2191 80.9282 53.9232L80.2351 54.644L80.9282 53.9232C79.58 52.6269 77.9902 51.6335 76.1705 50.9404C74.3618 50.2181 72.3887 49.864 70.2631 49.864C68.1355 49.864 66.1508 50.2188 64.3197 50.9404C62.5221 51.6342 60.9448 52.6281 59.598 53.9232L60.2245 54.5748L59.598 53.9232C58.2532 55.2162 57.2054 56.7306 56.4573 58.4588L56.4573 58.4588L56.4524 58.4704C55.7244 60.2124 55.3671 62.1091 55.3671 64.148C55.3671 66.1695 55.7388 68.0679 56.4912 69.8323C57.2386 71.5848 58.2866 73.1133 59.634 74.4088L59.6339 74.4089L59.6408 74.4154C61.0074 75.7046 62.5912 76.7075 64.3837 77.4245ZM75.8151 64.148C75.8151 64.2671 75.813 64.3843 75.809 64.4997L73.6342 62.3249L72.9271 61.6178L72.22 62.3249L68.332 66.2129L67.6249 66.92L68.332 67.6271L70.8512 70.1464C70.6612 70.1607 70.4652 70.168 70.2631 70.168C69.366 70.168 68.5829 70.0305 67.901 69.7724C67.2396 69.4893 66.6769 69.1021 66.2032 68.6105C65.7305 68.0964 65.3567 67.4763 65.0879 66.7361C64.842 65.9936 64.7111 65.1348 64.7111 64.148C64.7111 62.8558 64.9517 61.7946 65.3933 60.9315L65.3934 60.9315L65.3975 60.9232C65.8404 60.0374 66.4592 59.3855 67.2603 58.9362L67.2683 58.9317L67.2762 58.927C68.0816 58.4556 69.0646 58.2 70.2631 58.2C71.1596 58.2 71.9234 58.3492 72.5725 58.6246L72.5891 58.6316L72.6059 58.6381C73.2823 58.8967 73.8478 59.2788 74.3163 59.7863L74.3229 59.7935L74.3297 59.8005C74.7935 60.2837 75.1528 60.8834 75.3984 61.6202L75.4037 61.6363L75.4096 61.6522C75.6736 62.3628 75.8151 63.1901 75.8151 64.148Z" fill="white" stroke="black" stroke-width="2"/>
</svg>
